<svg viewBox="0 0 330 199.9921875" xmlns="http://www.w3.org/2000/svg"><g><g><g><g><g><line x1="50" y1="176.992" x2="45" y2="176.992" style="visibility: inherit;" fill="rgb(0, 0, 0)" stroke="rgb(204, 204, 204)" stroke-width="1px"></line><line x1="50" y1="154.86799999999997" x2="45" y2="154.86799999999997" style="visibility: inherit;" fill="rgb(0, 0, 0)" stroke="rgb(204, 204, 204)" stroke-width="1px"></line><line x1="50" y1="132.744" x2="45" y2="132.744" style="visibility: inherit;" fill="rgb(0, 0, 0)" stroke="rgb(204, 204, 204)" stroke-width="1px"></line><line x1="50" y1="110.61999999999999" x2="45" y2="110.61999999999999" style="visibility: inherit;" fill="rgb(0, 0, 0)" stroke="rgb(204, 204, 204)" stroke-width="1px"></line><line x1="50" y1="88.49599999999998" x2="45" y2="88.49599999999998" style="visibility: inherit;" fill="rgb(0, 0, 0)" stroke="rgb(204, 204, 204)" stroke-width="1px"></line><line x1="50" y1="66.372" x2="45" y2="66.372" style="visibility: inherit;" fill="rgb(0, 0, 0)" stroke="rgb(204, 204, 204)" stroke-width="1px"></line><line x1="50" y1="44.247999999999976" x2="45" y2="44.247999999999976" style="visibility: inherit;" fill="rgb(0, 0, 0)" stroke="rgb(204, 204, 204)" stroke-width="1px"></line><line x1="50" y1="22.12400000000002" x2="45" y2="22.12400000000002" style="visibility: inherit;" fill="rgb(0, 0, 0)" stroke="rgb(204, 204, 204)" stroke-width="1px"></line><line x1="50" y1="0" x2="45" y2="0" style="visibility: inherit;" fill="rgb(0, 0, 0)" stroke="rgb(204, 204, 204)" stroke-width="1px"></line></g><g transform="translate(40, 0)"><text x="0" y="176.992" dx="0em" dy="0.3em" style="text-anchor: end; visibility: hidden; font-family: Roboto, sans-serif; font-size: 12px; font-weight: 200;" fill="rgb(33, 33, 33)" stroke="none" stroke-width="1px">0.35</text><text x="0" y="154.86799999999997" dx="0em" dy="0.3em" style="text-anchor: end; visibility: inherit; font-family: Roboto, sans-serif; font-size: 12px; font-weight: 200;" fill="rgb(33, 33, 33)" stroke="none" stroke-width="1px">0.4</text><text x="0" y="132.744" dx="0em" dy="0.3em" style="text-anchor: end; visibility: hidden; font-family: Roboto, sans-serif; font-size: 12px; font-weight: 200;" fill="rgb(33, 33, 33)" stroke="none" stroke-width="1px">0.45</text><text x="0" y="110.61999999999999" dx="0em" dy="0.3em" style="text-anchor: end; visibility: inherit; font-family: Roboto, sans-serif; font-size: 12px; font-weight: 200;" fill="rgb(33, 33, 33)" stroke="none" stroke-width="1px">0.5</text><text x="0" y="88.49599999999998" dx="0em" dy="0.3em" style="text-anchor: end; visibility: hidden; font-family: Roboto, sans-serif; font-size: 12px; font-weight: 200;" fill="rgb(33, 33, 33)" stroke="none" stroke-width="1px">0.55</text><text x="0" y="66.372" dx="0em" dy="0.3em" style="text-anchor: end; visibility: inherit; font-family: Roboto, sans-serif; font-size: 12px; font-weight: 200;" fill="rgb(33, 33, 33)" stroke="none" stroke-width="1px">0.6</text><text x="0" y="44.247999999999976" dx="0em" dy="0.3em" style="text-anchor: end; visibility: hidden; font-family: Roboto, sans-serif; font-size: 12px; font-weight: 200;" fill="rgb(33, 33, 33)" stroke="none" stroke-width="1px">0.65</text><text x="0" y="22.12400000000002" dx="0em" dy="0.3em" style="text-anchor: end; visibility: inherit; font-family: Roboto, sans-serif; font-size: 12px; font-weight: 200;" fill="rgb(33, 33, 33)" stroke="none" stroke-width="1px">0.7</text><text x="0" y="0" dx="0em" dy="0.3em" style="text-anchor: end; visibility: hidden; font-family: Roboto, sans-serif; font-size: 12px; font-weight: 200;" fill="rgb(33, 33, 33)" stroke="none" stroke-width="1px">0.75</text></g><line x1="50" y1="0" x2="50" y2="176.992" fill="rgb(0, 0, 0)" stroke="rgb(204, 204, 204)" stroke-width="1px"></line></g></g><g transform="translate(50, 0)" clip-path="url(#clip_0)"><clipPath id="clip_0"><rect width="279" height="176"></rect></clipPath><g><g><g><line x1="0" y1="0" x2="0" y2="176.992" fill="rgb(0, 0, 0)" stroke="rgb(66, 66, 66)" stroke-width="1px" opacity="0.25"></line><line x1="23.333333333333332" y1="0" x2="23.333333333333332" y2="176.992" fill="rgb(0, 0, 0)" stroke="rgb(66, 66, 66)" stroke-width="1px" opacity="0.25"></line><line x1="46.666666666666664" y1="0" x2="46.666666666666664" y2="176.992" fill="rgb(0, 0, 0)" stroke="rgb(66, 66, 66)" stroke-width="1px" opacity="0.25"></line><line x1="70" y1="0" x2="70" y2="176.992" fill="rgb(0, 0, 0)" stroke="rgb(66, 66, 66)" stroke-width="1px" opacity="0.25"></line><line x1="93.33333333333333" y1="0" x2="93.33333333333333" y2="176.992" fill="rgb(0, 0, 0)" stroke="rgb(66, 66, 66)" stroke-width="1px" opacity="0.25"></line><line x1="116.66666666666667" y1="0" x2="116.66666666666667" y2="176.992" fill="rgb(0, 0, 0)" stroke="rgb(66, 66, 66)" stroke-width="1px" opacity="0.25"></line><line x1="140" y1="0" x2="140" y2="176.992" fill="rgb(0, 0, 0)" stroke="rgb(66, 66, 66)" stroke-width="1px" opacity="0.25"></line><line x1="163.33333333333334" y1="0" x2="163.33333333333334" y2="176.992" fill="rgb(0, 0, 0)" stroke="rgb(66, 66, 66)" stroke-width="1px" opacity="0.25"></line><line x1="186.66666666666666" y1="0" x2="186.66666666666666" y2="176.992" fill="rgb(0, 0, 0)" stroke="rgb(66, 66, 66)" stroke-width="1px" opacity="0.25"></line><line x1="210" y1="0" x2="210" y2="176.992" fill="rgb(0, 0, 0)" stroke="rgb(66, 66, 66)" stroke-width="1px" opacity="0.25"></line><line x1="233.33333333333334" y1="0" x2="233.33333333333334" y2="176.992" fill="rgb(0, 0, 0)" stroke="rgb(66, 66, 66)" stroke-width="1px" opacity="0.25"></line><line x1="256.66666666666663" y1="0" x2="256.66666666666663" y2="176.992" fill="rgb(0, 0, 0)" stroke="rgb(66, 66, 66)" stroke-width="1px" opacity="0.25"></line><line x1="280" y1="0" x2="280" y2="176.992" fill="rgb(0, 0, 0)" stroke="rgb(66, 66, 66)" stroke-width="1px" opacity="0.25"></line></g><g><line x1="0" y1="176.992" x2="280" y2="176.992" fill="rgb(0, 0, 0)" stroke="rgb(66, 66, 66)" stroke-width="1px" opacity="0.25"></line><line x1="0" y1="154.86799999999997" x2="280" y2="154.86799999999997" fill="rgb(0, 0, 0)" stroke="rgb(66, 66, 66)" stroke-width="1px" opacity="0.25"></line><line x1="0" y1="132.744" x2="280" y2="132.744" fill="rgb(0, 0, 0)" stroke="rgb(66, 66, 66)" stroke-width="1px" opacity="0.25"></line><line x1="0" y1="110.61999999999999" x2="280" y2="110.61999999999999" fill="rgb(0, 0, 0)" stroke="rgb(66, 66, 66)" stroke-width="1px" opacity="0.25"></line><line x1="0" y1="88.49599999999998" x2="280" y2="88.49599999999998" fill="rgb(0, 0, 0)" stroke="rgb(66, 66, 66)" stroke-width="1px" opacity="0.25"></line><line x1="0" y1="66.372" x2="280" y2="66.372" fill="rgb(0, 0, 0)" stroke="rgb(66, 66, 66)" stroke-width="1px" opacity="0.25"></line><line x1="0" y1="44.247999999999976" x2="280" y2="44.247999999999976" fill="rgb(0, 0, 0)" stroke="rgb(66, 66, 66)" stroke-width="1px" opacity="0.25"></line><line x1="0" y1="22.12400000000002" x2="280" y2="22.12400000000002" fill="rgb(0, 0, 0)" stroke="rgb(66, 66, 66)" stroke-width="1px" opacity="0.25"></line><line x1="0" y1="0" x2="280" y2="0" fill="rgb(0, 0, 0)" stroke="rgb(66, 66, 66)" stroke-width="1px" opacity="0.25"></line></g></g></g><g><g><line x1="0" y1="331.85999999999996" x2="280" y2="331.85999999999996" fill="rgb(0, 0, 0)" stroke="rgb(153, 153, 153)" stroke-width="1.5px"></line></g></g><g><g><line x1="23.333333333333332" y1="0" x2="23.333333333333332" y2="176.992" fill="rgb(0, 0, 0)" stroke="rgb(153, 153, 153)" stroke-width="1.5px"></line></g></g><g><g><g><g><g><path stroke="rgb(51, 187, 238)" stroke-width="2px" d="M29.166666666666668,178.51154797038794L30.333333333333336,172.9061070374963L31.5,169.39737384840583L32.666666666666664,161.26386645473028L33.833333333333336,155.6200900539963L35,147.12456562305047L36.16666666666667,145.38149928941408L37.333333333333336,136.6185909941263L38.5,133.64220930199662L39.666666666666664,127.63599671032605L40.833333333333336,125.8199173228545L42,122.37680138417873L43.16666666666667,118.44462114901567L44.33333333333333,120.1434083597923L45.5,118.24104313797926L46.666666666666664,115.55775007921255L47.833333333333336,114.51588075908593L49,114.37768077686347L50.166666666666664,114.78167805600175L51.33333333333333,115.10522780618139L52.5,111.6475202412868L53.66666666666667,110.38441352953052L54.833333333333336,110.76267903257275L56,108.96083855953782L57.166666666666664,104.79597533662312L58.333333333333336,108.38343961116509L59.5,105.09874509440792L60.66666666666667,105.48133177645208L61.83333333333333,103.60094300728093L63,100.11930662739033L64.16666666666666,99.97796080984564L65.33333333333333,98.7570305829657L66.5,97.86216769681366L67.66666666666667,95.62106586806959L68.83333333333333,92.97797728777067L70,88.79526917074504L71.16666666666666,86.36679140507165L72.33333333333334,90.0222675835852L73.5,86.77838094486805L74.66666666666667,85.64357273336779L75.83333333333333,85.93650578260177L77,87.73530260521794L78.16666666666667,87.51615321420313L79.33333333333333,82.43440549809453L80.5,83.68639593291527L81.66666666666667,88.9820916643891L82.83333333333333,87.29040867370789L84,83.59738625837173L85.16666666666666,85.68261187358604L86.33333333333334,83.768830908559L87.5,90.00537062574992L88.66666666666666,86.93054752498541L89.83333333333334,81.6772854737613L91,78.11957163215685L92.16666666666667,73.30693070626837L93.33333333333333,74.23348150191657L94.5,69.75799624596795L95.66666666666667,72.67218219086388L96.83333333333333,73.52802288415944L98,71.7692818396265L99.16666666666667,72.986282673417L100.33333333333333,72.98611705430655L101.5,71.03837118129913L102.66666666666666,68.89590568149679L103.83333333333334,68.99001151802891L105,68.80301261378976L106.16666666666666,65.12014032622365L107.33333333333334,61.6931365715276L108.5,61.341118414092726L109.66666666666667,59.993784789376654L110.83333333333333,58.77962800367665L112,57.483072567129064L113.16666666666667,60.27581225022312L114.33333333333333,61.13994283833882L115.5,56.78932076167331L116.66666666666667,60.589927286334444L117.83333333333333,62.7079969964192L119,58.86627598677671L120.16666666666666,58.103122722116666L121.33333333333334,59.99863387573213L122.5,59.43175647251873L123.66666666666666,56.65706926627796L124.83333333333334,53.937291864179635L126,51.41275454927864L127.16666666666667,50.547240627821594L128.33333333333331,51.894421124587225L129.5,50.26817920787914L130.66666666666666,55.05421591057647L131.83333333333334,50.86562859496038L133,50.0566603009734L134.16666666666669,46.00060637955861L135.33333333333334,45.0277062654793L136.5,46.229307944315636L137.66666666666666,45.3272319585907L138.83333333333334,47.788597947050825L140,49.671174150997196L141.16666666666666,45.44470518105852L142.33333333333331,46.31720253940596L143.5,45.055359207130515L144.66666666666669,45.921290200792015L145.83333333333334,43.35707956519258L147,44.09079864434317L148.16666666666666,46.96559085614631L149.33333333333334,45.52553929953067L150.5,41.41544492905312L151.66666666666666,43.4127321254311L152.83333333333331,41.283883354848484L154,41.79191583978291L155.16666666666669,41.609821067971936L156.33333333333334,40.202136720372984L157.5,39.84444037458522L158.66666666666666,35.40993060506121L159.83333333333331,38.42984894416771L161,38.29415344609048L162.16666666666669,35.778185932476674L163.33333333333334,34.430910178565576L164.5,34.59636270221686L165.66666666666666,32.50453585825333L166.83333333333334,32.629014338743495L168,34.81365268283594L169.16666666666666,35.06946006139222L170.33333333333331,32.707247171402614L171.5,32.10143265914951L172.66666666666669,31.251029689026062L173.83333333333334,27.819323429412947L175,28.438312294570967L176.16666666666666,28.647400859408613L177.33333333333331,30.801647602208277L178.5,27.793156583480723L179.66666666666669,27.692246067626883L180.83333333333334,30.1474076247833L182,32.35087067846194L183.16666666666666,30.50802162697157L184.33333333333334,31.674568206132932L185.5,34.15983790091362L186.66666666666666,30.94419349295906L187.83333333333331,29.258258704799463L189,29.86973482493044L190.16666666666669,25.448667169830088L191.33333333333334,24.3379059178954L192.5,23.022240699251014L193.66666666666666,19.554828947138496L194.83333333333331,19.990089762539725L196,21.306221879679555L197.16666666666669,21.284377378677483L198.33333333333334,21.190123575720264L199.5,21.620485556717554L200.66666666666666,19.76875148951757L201.83333333333334,21.092261263965096L203,19.532964016222074L204.16666666666666,21.194251186146207L205.33333333333331,21.054890208300254L206.5,19.83515089133757L207.66666666666669,23.810113525982995L208.83333333333334,23.19247952687518L210,18.845459021972236L211.16666666666666,20.70059053769506L212.33333333333331,19.784875843231678L213.5,21.75115489322233L214.66666666666669,23.661288442601485L215.83333333333334,22.535112562173417L217,22.508626050945427L218.16666666666666,19.408964912412387L219.33333333333334,22.33712155647148L220.5,18.494548993987294L221.66666666666666,17.812042449523517L222.83333333333331,16.50986764920321L224,14.998196649626314L225.16666666666669,14.9027072716209L226.33333333333334,13.709290914562466L227.5,11.85711837007232L228.66666666666666,10.583510089121043L229.83333333333331,13.795785225988494L231,12.8016858305699L232.16666666666669,13.909410288701435L233.33333333333334,14.492887311679128L234.5,13.138789430083019L235.66666666666666,14.111672448409308L236.83333333333334,15.020011767919486L238,15.970771970495953L239.16666666666666,11.022908645478134L240.33333333333331,12.35522971487481L241.5,13.316927110769997L242.66666666666669,12.189761452924381L243.83333333333334,8.75430233493515L245,9.452186587423489L246.16666666666666,12.143162599426725L247.33333333333331,10.511684770120512L248.5,11.15582451601821L249.66666666666669,11.136551752686469L250.83333333333334,10.394621975302712L252,11.004439736771612L253.16666666666666,8.69231777272705L254.33333333333334,8.928081587327005L255.5,9.069539876087" style="fill: none;" fill="none"></path></g><g><path stroke="rgb(204, 51, 17)" stroke-width="2px" d="M29.166666666666668,178.9432089312856L30.333333333333336,175.91526978908877L31.5,171.34738660076744L32.666666666666664,171.8533953208738L33.833333333333336,169.94928939230877L35,163.60160006754614L36.16666666666667,161.3530003316224L37.333333333333336,157.00043887502204L38.5,151.30635539568107L39.666666666666664,153.65724936199084L40.833333333333336,148.41075284081035L42,142.74767386044442L43.16666666666667,140.6489993855416L44.33333333333333,136.71176057625365L45.5,133.2945566438734L46.666666666666664,131.244314246769L47.833333333333336,131.8807162854172L49,130.39604328285017L50.166666666666664,127.23299075796203L51.33333333333333,122.41369605184546L52.5,120.4148003934604L53.66666666666667,123.75996602771804L54.833333333333336,119.84298352169745L56,119.76504185527355L57.166666666666664,116.71566463010454L58.333333333333336,116.42791827209844L59.5,115.52490430421015L60.66666666666667,118.06686534852489L61.83333333333333,115.1286926761108L63,113.12233726574065L64.16666666666666,110.86354840281193L65.33333333333333,112.2674348403228L66.5,112.46055295260213L67.66666666666667,113.22563756321334L68.83333333333333,115.14542056921128L70,111.91509365134435L71.16666666666666,108.27271340607952L72.33333333333334,105.76267575143433L73.5,101.57865108726645L74.66666666666667,109.53680854354512L75.83333333333333,105.14155824749602L77,104.614348776374L78.16666666666667,100.88965490287151L79.33333333333333,102.14436442153715L80.5,102.32912876759357L81.66666666666667,99.92427950854554L82.83333333333333,98.7248218097381L84,98.49206145322829L85.16666666666666,102.00423583625034L86.33333333333334,101.19007598852028L87.5,95.99477385505779L88.66666666666666,97.58439879980567L89.83333333333334,92.61409770921925L91,92.8779804913763L92.16666666666667,98.0677258940082L93.33333333333333,94.12136379835242L94.5,95.97343850301057L95.66666666666667,94.73128021339383L96.83333333333333,90.90222655737281L98,88.03672244908735L99.16666666666667,86.47972473837325L100.33333333333333,83.67903726230494L101.5,82.16092953092117L102.66666666666666,84.41498122624314L103.83333333333334,85.52396038682309L105,87.16316585916903L106.16666666666666,85.71213892780911L107.33333333333334,87.60068249227506L108.5,84.18930716038885L109.66666666666667,84.09012846279826L110.83333333333333,82.16413239460398L112,79.79125437153105L113.16666666666667,78.20522280343012L114.33333333333333,80.09392123775264L115.5,75.30305369136678L116.66666666666667,75.51230239533153L117.83333333333333,78.72162084950664L119,77.1576860793451L120.16666666666666,74.35283636760826L121.33333333333334,75.429086263848L122.5,74.04604259769481L123.66666666666666,74.02772961974361L124.83333333333334,68.8230318949236L126,68.5405200856694L127.16666666666667,68.6144754062753L128.33333333333331,67.92848247925409L129.5,71.49331627893429L130.66666666666666,65.67934689741124L131.83333333333334,64.62551548326489L133,66.83353400996015L134.16666666666669,69.21332075387652L135.33333333333334,68.1254849335576L136.5,66.74241732198148L137.66666666666666,63.31572178601113L138.83333333333334,63.450802822583256L140,67.18368204145033L141.16666666666666,64.3108467370772L142.33333333333331,58.36725359240194L143.5,57.966014039749L144.66666666666669,54.80380583061821L145.83333333333334,59.317471225345415L147,60.159181612541836L148.16666666666666,56.03855927193792L149.33333333333334,56.89340695598503L150.5,60.81468375717868L151.66666666666666,60.732899623127395L152.83333333333331,63.0372322551081L154,61.90412396762785L155.16666666666669,58.78970878037224L156.33333333333334,56.67760781140569L157.5,53.625005482741834L158.66666666666666,50.98192031425751L159.83333333333331,48.097641728654594L161,51.56079506488744L162.16666666666669,51.85334531934326L163.33333333333334,51.37965645498794L164.5,48.0928315564797L165.66666666666666,48.39298207788501L166.83333333333334,48.24847343175904L168,49.62250048285303L169.16666666666666,51.745344198021726L170.33333333333331,50.34103780619705L171.5,50.30997774238825L172.66666666666669,48.99290367004535L173.83333333333334,46.579632783158175L175,48.62119609369253L176.16666666666666,45.62624211796173L177.33333333333331,43.50466022400885L178.5,44.01705283492105L179.66666666666669,43.107208019312026L180.83333333333334,44.18433812297332L182,44.019092413884124L183.16666666666666,42.29691854494913L184.33333333333334,43.211250175583956L185.5,41.40644604155335L186.66666666666666,40.080111704521855L187.83333333333331,37.336664600761836L189,37.0701814749194L190.16666666666669,38.93908520331104L191.33333333333334,37.54471957367731L192.5,39.06150330830858L193.66666666666666,37.21241382580546L194.83333333333331,38.699815105328284L196,40.079170135813584L197.16666666666669,34.982707096670644L198.33333333333334,33.7913181228248L199.5,37.45868145482586L200.66666666666666,35.92611120520146L201.83333333333334,34.51966534220046L203,34.811920554654996L204.16666666666666,33.76999329997134L205.33333333333331,33.63175120993279L206.5,34.603781583808775L207.66666666666669,32.10323057633812L208.83333333333334,32.22593696488246L210,31.325732272465867L211.16666666666666,27.214936511993333L212.33333333333331,31.484058884429867L213.5,34.20782651260368L214.66666666666669,33.001780263870174L215.83333333333334,31.710091149502542L217,30.529321070011584L218.16666666666666,28.847030496773794L219.33333333333334,26.944985279189133L220.5,26.858733776537548L221.66666666666666,25.752007247047406L222.83333333333331,28.820959578178392L224,30.09426961172942L225.16666666666669,32.40013497298556L226.33333333333334,30.21298124471663L227.5,29.712202229496008L228.66666666666666,32.089747441289504L229.83333333333331,32.05554232959607L231,29.032397133139703L232.16666666666669,29.653070779578645L233.33333333333334,26.45479147287416L234.5,26.483470390392586L235.66666666666666,27.231043860288402L236.83333333333334,27.841892696483097L238,27.883792489685487L239.16666666666666,24.1759546663272L240.33333333333331,23.249679456824477L241.5,25.12846454589036L242.66666666666669,22.928514510920426L243.83333333333334,20.715873616296534L245,16.385677499627143L246.16666666666666,19.95508774367277L247.33333333333331,23.800917985482812L248.5,21.726229963805537L249.66666666666669,21.049478515926754L250.83333333333334,19.750756773557534L252,21.6495257995166L253.16666666666666,23.194554375507686L254.33333333333334,23.39120540171755L255.5,24.239562136828255" style="fill: none;" fill="none"></path></g><g><path stroke="rgb(0, 119, 187)" stroke-width="2px" d="M28,178.9152544209181L29.166666666666668,173.0306974909907L30.333333333333336,167.34305003275992L31.5,163.4563360506631L32.666666666666664,157.64146316746036L33.833333333333336,153.45546269522043L35,150.22709501371546L36.16666666666667,141.95394002700263L37.333333333333336,142.36460694441462L38.5,140.66149487906458L39.666666666666664,139.6404822045596L40.833333333333336,138.45996026134262L42,133.8559130939331L43.16666666666667,132.06790576569594L44.33333333333333,134.24148411909525L45.5,130.59510728327018L46.666666666666664,127.02775638064804L47.833333333333336,122.04704643851201L49,121.33093111008704L50.166666666666664,124.87771920511135L51.33333333333333,122.70472473902552L52.5,117.26219064314105L53.66666666666667,119.75845332765675L54.833333333333336,118.57820031252555L56,117.70774415325096L57.166666666666664,114.5886098450549L58.333333333333336,114.34017218454204L59.5,113.8665000749758L60.66666666666667,110.1739232050682L61.83333333333333,110.47407985994734L63,107.24580032324056L64.16666666666666,106.93186964650158L65.33333333333333,104.39010811555468L66.5,104.08233159373015L67.66666666666667,101.30081070655662L68.83333333333333,101.49838703035344L70,101.29232331568781L71.16666666666666,102.87286918319698L72.33333333333334,97.97826774645048L73.5,94.39229841771107L74.66666666666667,91.26689884476589L75.83333333333333,89.95972046636969L77,88.52619442233102L78.16666666666667,90.18178666266734L79.33333333333333,88.01022567265046L80.5,87.92455891128002L81.66666666666667,87.22395038697154L82.83333333333333,90.45541586932305L84,86.55136620363962L85.16666666666666,88.5911331205471L86.33333333333334,88.51656578617707L87.5,85.38805615375765L88.66666666666666,90.16539255112713L89.83333333333334,88.0003892057553L91,84.91604545124831L92.16666666666667,81.92931646828913L93.33333333333333,80.86764519789848L94.5,81.20446041166204L95.66666666666667,82.29922041356217L96.83333333333333,79.2230987154224L98,77.86432940976488L99.16666666666667,76.88676307211321L100.33333333333333,77.51750365167855L101.5,78.13939985603095L102.66666666666666,73.56227949720622L103.83333333333334,70.97831203616855L105,71.86248177431341L106.16666666666666,71.33801853884644L107.33333333333334,72.07830567592016L108.5,70.899451514683L109.66666666666667,72.70783633506404L110.83333333333333,68.59915728924338L112,63.942851503596664L113.16666666666667,65.45011764616127L114.33333333333333,65.54295356041405L115.5,62.59604352907069L116.66666666666667,64.39857045528724L117.83333333333333,67.75234262107273L119,64.00282406782188L120.16666666666666,62.80808856377056L121.33333333333334,60.95512453108458L122.5,57.57109010141747L123.66666666666666,57.326011190901134L124.83333333333334,60.1004283221304L126,59.97973685358402L127.16666666666667,57.7162236143019L128.33333333333331,56.439273322633895L129.5,53.56315189183473L130.66666666666666,51.431722422484846L131.83333333333334,54.12930484631319L133,54.205964409939384L134.16666666666669,54.982326267499865L135.33333333333334,50.49788530060003L136.5,55.19203956620902L137.66666666666666,55.24937240229255L138.83333333333334,54.39110123030069L140,56.79760300464464L141.16666666666666,54.670820574683184L142.33333333333331,55.26123996634616L143.5,56.83277198350032L144.66666666666669,53.39349447748424L145.83333333333334,53.03411206925727L147,51.84466464832315L148.16666666666666,53.48439930817421L149.33333333333334,50.24834814203343L150.5,49.361693070248094L151.66666666666666,50.209274614045256L152.83333333333331,50.31206692945313L154,50.3737423186979L155.16666666666669,45.703941327421724L156.33333333333334,42.98321838455724L157.5,42.89266395996408L158.66666666666666,42.27026994008065L159.83333333333331,42.70834674989129L161,42.321984368294146L162.16666666666669,43.22628966959098L163.33333333333334,43.444263341854665L164.5,41.87086344983017L165.66666666666666,40.11531029287478L166.83333333333334,37.76355091418924L168,42.19541369251073L169.16666666666666,42.41998114473617L170.33333333333331,43.366245387357445L171.5,40.93138180348992L172.66666666666669,40.7688911376817L173.83333333333334,44.24208023276462L175,43.40452921227535L176.16666666666666,40.87320499608469L177.33333333333331,40.57168029898142L178.5,41.36459400626263L179.66666666666669,37.05238890345242L180.83333333333334,38.27919064340202L182,37.71684420285944L183.16666666666666,39.32708284007506L184.33333333333334,38.26443241850731L185.5,39.087574404336195L186.66666666666666,35.605019490395314L187.83333333333331,36.11234151105545L189,35.929831010225186L190.16666666666669,35.49571520121265L191.33333333333334,35.88445418328858L192.5,35.630793859307865L193.66666666666666,35.88435427578979L194.83333333333331,36.361100034193335L196,35.67331896369229L197.16666666666669,34.36798999729496L198.33333333333334,34.558610593454475L199.5,32.80649410151028L200.66666666666666,34.433226277724366L201.83333333333334,30.702469908175146L203,31.142018157826264L204.16666666666666,32.05496612464571L205.33333333333331,26.75980594965923L206.5,26.017260059434822L207.66666666666669,29.791624487351566L208.83333333333334,26.375618943280685L210,29.35743135017556L211.16666666666666,26.68316442610265L212.33333333333331,26.377031756171228L213.5,26.436814560370845L214.66666666666669,25.661160471604607L215.83333333333334,26.08843889198681L217,25.61443982483137L218.16666666666666,26.547320766694494L219.33333333333334,29.05468528380818L220.5,31.45177486771836L221.66666666666666,28.91359906217154L222.83333333333331,29.500634285096464L224,25.795268211057248L225.16666666666669,24.78932894879009L226.33333333333334,24.997278613170533L227.5,24.391682292414036L228.66666666666666,24.434081110830476L229.83333333333331,24.54067805378159L231,24.361173813393812L232.16666666666669,24.821543183834017L233.33333333333334,25.990425130194797L234.5,22.066105725089535L235.66666666666666,21.659160583567534L236.83333333333334,23.281482348294187L238,20.684202462107596L239.16666666666666,20.343104363006724L240.33333333333331,21.031116377188205L241.5,23.31041243533697L242.66666666666669,25.814112800481357L243.83333333333334,27.64094252808239L245,23.94908703746404L246.16666666666666,21.81513139499427L247.33333333333331,23.13161297853713L248.5,20.513123188352136L249.66666666666669,19.428943577012745L250.83333333333334,18.61613105595193L252,18.939956765056163L253.16666666666666,19.62116645329029L254.33333333333334,17.514184399562044L255.5,16.57460467583954" style="fill: none;" fill="none"></path></g><g><path stroke="rgb(255, 112, 67)" stroke-width="2px" d="M28,184.7732659697483L29.166666666666668,175.83496769917187L30.333333333333336,169.41074950189855L31.5,164.10505567981693L32.666666666666664,160.73332352060754L33.833333333333336,162.3245633553617L35,157.4089228834297L36.16666666666667,151.9497864555441L37.333333333333336,149.49449439046137L38.5,142.1758670718229L39.666666666666664,138.0319293010577L40.833333333333336,136.2773861994074L42,138.14693624421824L43.16666666666667,133.99306563663873L44.33333333333333,128.41705612764315L45.5,128.64247666334344L46.666666666666664,125.85619514297247L47.833333333333336,126.05098404152722L49,122.27253724896953L50.166666666666664,122.4400552962757L51.33333333333333,120.67406618572454L52.5,117.99144144583005L53.66666666666667,115.32689282292195L54.833333333333336,113.89047024847534L56,110.91867050990147L57.166666666666664,109.37904327797787L58.333333333333336,105.45265517848694L59.5,102.1230045986121L60.66666666666667,102.4786070955297L61.83333333333333,101.88045533782106L63,99.3304658983432L64.16666666666666,99.42350927247905L65.33333333333333,99.07357868296488L66.5,92.93953370166572L67.66666666666667,94.85858383840359L68.83333333333333,91.46551244106936L70,91.05270659990012L71.16666666666666,88.20816812513613L72.33333333333334,86.90720165214132L73.5,86.12662176858485L74.66666666666667,84.60329821052872L75.83333333333333,85.71809767981998L77,81.68018168589641L78.16666666666667,82.99040978900254L79.33333333333333,82.15350965779878L80.5,84.0047726915143L81.66666666666667,80.97679620156386L82.83333333333333,80.1338282836037L84,82.71181676463077L85.16666666666666,82.63557286021582L86.33333333333334,78.5322393097701L87.5,77.7744232748876L88.66666666666666,78.69930824082694L89.83333333333334,78.92964026142127L91,80.60971881490342L92.16666666666667,78.77745912135467L93.33333333333333,78.73306838357938L94.5,77.65146886256032L95.66666666666667,73.35067855302503L96.83333333333333,70.77020436730389L98,73.44181181792266L99.16666666666667,75.12592339064985L100.33333333333333,73.53953536526151L101.5,73.80498293218486L102.66666666666666,76.31764403520506L103.83333333333334,73.11844502173946L105,70.06280288340497L106.16666666666666,68.79747896553187L107.33333333333334,67.30791849542324L108.5,64.95344997458858L109.66666666666667,68.32872218926667L110.83333333333333,64.26750470638225L112,62.155383725166L113.16666666666667,63.1603565969465L114.33333333333333,64.49370643939959L115.5,61.31727623943323L116.66666666666667,59.65488052561184L117.83333333333333,55.81712572213591L119,58.545878023842455L120.16666666666666,58.47894530948368L121.33333333333334,57.62727245912774L122.5,54.60056088224544L123.66666666666666,47.83427585467988L124.83333333333334,48.72476291957677L126,51.45015351666912L127.16666666666667,53.40999738343895L128.33333333333331,51.420987369348644L129.5,50.308728463250425L130.66666666666666,50.69634874749064L131.83333333333334,50.84776326613352L133,53.45431984398795L134.16666666666669,50.71721472629331L135.33333333333334,50.535683894446L136.5,48.72257075040963L137.66666666666666,45.93051876860519L138.83333333333334,49.77360702608619L140,47.37265375575179L141.16666666666666,47.311666929964765L142.33333333333331,48.33005046239168L143.5,46.74998222369353L144.66666666666669,44.746965652575476L145.83333333333334,44.68127844015981L147,44.885317969323566L148.16666666666666,45.088899338723024L149.33333333333334,47.56445127277426L150.5,47.91365970294981L151.66666666666666,44.6336589183885L152.83333333333331,42.74680555000773L154,39.99165653595251L155.16666666666669,36.47207827787951L156.33333333333334,34.92839268816325L157.5,37.897463787870464L158.66666666666666,35.94592874841503L159.83333333333331,38.18337591550716L161,39.201245256793314L162.16666666666669,40.46117532904854L163.33333333333334,40.16216829404775L164.5,40.713119642886824L165.66666666666666,41.12484810409147L166.83333333333334,39.99230004440066L168,40.44890448838661L169.16666666666666,39.18097726410737L170.33333333333331,38.744830438054244L171.5,40.34963119206228L172.66666666666669,39.52716989718314L173.83333333333334,36.517995803132294L175,36.660127298697574L176.16666666666666,37.23232045880841L177.33333333333331,35.14108614010743L178.5,35.022468279141954L179.66666666666669,34.139773791276696L180.83333333333334,34.17822901323035L182,31.60443662783264L183.16666666666666,33.387392834548706L184.33333333333334,34.13255705006395L185.5,32.46970432357471L186.66666666666666,35.448432793119416L187.83333333333331,31.31159381741219L189,36.29544583054739L190.16666666666669,32.79361961586687L191.33333333333334,30.93597574367175L192.5,29.091023300969894L193.66666666666666,29.607088828375492L194.83333333333331,29.18636202543409L196,29.583144960698053L197.16666666666669,31.038484554467555L198.33333333333334,27.61064924632187L199.5,26.040862324206067L200.66666666666666,26.803174266319314L201.83333333333334,26.935951923072817L203,25.71719103261261L204.16666666666666,22.957140894439387L205.33333333333331,25.19639326507244L206.5,27.18916370448112L207.66666666666669,27.979069357255913L208.83333333333334,28.12840324040644L210,26.108052314498398L211.16666666666666,21.568620670544153L212.33333333333331,22.659097035352595L213.5,23.151078099980516L214.66666666666669,22.228986356600817L215.83333333333334,25.976780924525656L217,24.33017521174355L218.16666666666666,25.127542981812958L219.33333333333334,23.00910867482994L220.5,22.224962353411755L221.66666666666666,19.15761959153619L222.83333333333331,21.374801142205037L224,23.029719581120766L225.16666666666669,18.666645402618382L226.33333333333334,15.805349038903774L227.5,19.44458591298158L228.66666666666666,18.05745509240563L229.83333333333331,18.280152227959224L231,19.549893239546552L232.16666666666669,17.877177082186222L233.33333333333334,20.200779025724678L234.5,19.647293690306633L235.66666666666666,18.747141123928238L236.83333333333334,20.073538433741113L238,19.408644580859292L239.16666666666666,21.363111381541696L240.33333333333331,22.048877199179554L241.5,19.944639372638854L242.66666666666669,20.467427874453044L243.83333333333334,20.13189250805805L245,17.333716319196405L246.16666666666666,13.788311206694253L247.33333333333331,16.043264855501498L248.5,14.718234973405249L249.66666666666669,14.65358316353228L250.83333333333334,12.342536067552977L252,12.335492946378954L253.16666666666666,12.899328438802083L254.33333333333334,11.776897495486466L255.5,10.616524666725473" style="fill: none;" fill="none"></path></g></g></g></g><g opacity="0.2"><g><g><g><path stroke="rgb(51, 187, 238)" stroke-width="2px" d="M28,185.1781860423088L29.166666666666668,167.32479494333268L30.333333333333336,164.89023681640623L31.5,164.28160717487333L32.666666666666664,149.26852290153502L33.833333333333336,147.23973984718322L35,134.45833275794982L36.16666666666667,142.77638547897337L37.333333333333336,123.50284096717834L38.5,129.1834678053856L39.666666666666664,118.6337379002571L40.833333333333336,123.09707908153533L42,117.2135844874382L43.16666666666667,112.54734917640685L44.33333333333333,122.69133038282393L45.5,115.38766918897628L46.666666666666664,111.53295764923095L47.833333333333336,112.95311106204986L49,114.17038353204727L50.166666666666664,115.38766918897628L51.33333333333333,115.59055013179778L52.5,106.46097363948822L53.66666666666667,108.48975669384002L54.833333333333336,111.33007670640944L56,106.2580795097351L57.166666666666664,98.54868280410766L58.333333333333336,113.76463483333588L59.5,100.17170397281646L60.66666666666667,106.05521175384521L61.83333333333333,100.78035998821258L63,94.89685220718383L64.16666666666666,99.76594208717346L65.33333333333333,96.92563526153565L66.5,96.51987337589263L67.66666666666667,92.25941313743591L68.83333333333333,89.01334442615509L70,82.52120700359345L71.16666666666666,82.72407475948333L72.33333333333334,95.50548184871673L73.5,81.91255098819732L74.66666666666667,83.94136041641235L75.83333333333333,86.37590535640716L77,90.43349783897399L78.16666666666667,87.18742912769318L79.33333333333333,74.81178392410278L80.5,85.56438158512115L81.66666666666667,96.92563526153565L82.83333333333333,84.75288418769836L84,78.0578526353836L85.16666666666666,88.81045029640197L86.33333333333334,80.89815946102142L87.5,99.36018020153045L88.66666666666666,82.31831287384033L89.83333333333334,73.79739239692688L91,72.78300086975098L92.16666666666667,66.08796931743622L93.33333333333333,75.62330769538879L94.5,63.04476836204528L95.66666666666667,77.0434611082077L96.83333333333333,74.81178392410278L98,69.13117027282715L99.16666666666667,74.81178392410278L100.33333333333333,72.98586862564086L101.5,68.11675237178802L102.66666666666666,65.68220743179322L103.83333333333334,69.13117027282715L105,68.52251425743103L106.16666666666666,59.59583189487457L107.33333333333334,56.55263093948364L108.5,60.813091177940365L109.66666666666667,57.97278435230255L110.83333333333333,56.958392825126644L112,55.53823941230774L113.16666666666667,64.4649217748642L114.33333333333333,62.43613872051239L115.5,50.263387646675106L116.66666666666667,66.2908370733261L117.83333333333333,65.88510156154632L119,53.103694472312924L120.16666666666666,56.958392825126644L121.33333333333334,62.84190060615539L122.5,58.58144036769867L123.66666666666666,52.49503845691681L124.83333333333334,49.857625761032104L126,47.62594857692718L127.16666666666667,49.24896974563598L128.33333333333331,53.915191869735715L129.5,47.82881633281708L130.66666666666666,62.23327096462249L131.83333333333334,44.58274762153625L133,48.84320785999298L134.16666666666669,39.916525497436524L135.33333333333334,43.56835609436035L136.5,48.03171046257019L137.66666666666666,43.974117980003356L138.83333333333334,51.4806469297409L140,52.49503845691681L141.16666666666666,39.10500172615051L142.33333333333331,47.62594857692718L143.5,43.162594208717344L144.66666666666669,47.22018669128418L145.83333333333334,39.510763611793514L147,45.19137726306915L148.16666666666666,51.27777917385101L149.33333333333334,43.365461964607235L150.5,35.25030337333679L151.66666666666666,46.408662919998164L152.83333333333331,38.09061019897461L154,42.553964567184444L155.16666666666669,41.33667891025543L156.33333333333334,38.09061019897461L157.5,39.307895855903624L158.66666666666666,28.758165950775144L159.83333333333331,42.959726452827454L161,38.09061019897461L162.16666666666669,32.004234662055964L163.33333333333334,32.409996547698974L164.5,34.84454148769378L165.66666666666666,29.366795592308044L166.83333333333334,32.815732059478755L168,38.09061019897461L169.16666666666666,35.45317112922668L170.33333333333331,29.16392783641815L171.5,31.192710890769956L172.66666666666669,29.97542523384094L173.83333333333334,22.671764039993285L175,29.366795592308044L176.16666666666666,28.961033706665038L177.33333333333331,34.03301771640778L178.5,23.280420055389403L179.66666666666669,27.54088029384613L180.83333333333334,33.83014996051788L182,35.656065258979794L183.16666666666666,27.74374804973602L184.33333333333334,33.42438807487488L185.5,37.88774244308471L186.66666666666666,26.12072688102722L187.83333333333331,26.729356522560117L189,30.786949005126953L190.16666666666669,18.817065687179564L191.33333333333334,22.671764039993285L192.5,21.048742871284485L193.66666666666666,14.353711318969726L194.83333333333331,20.64298098564148L196,23.280420055389403L197.16666666666669,21.251610627174376L198.33333333333334,21.048742871284485L199.5,22.2660285282135L200.66666666666666,16.99115038871765L201.83333333333334,23.07752592563629L203,17.194018144607544L204.16666666666666,23.68618194103241L205.33333333333331,20.84584874153137L206.5,18.005541915893552L207.66666666666669,29.772557477951047L208.83333333333334,22.2660285282135L210,12.324928264617919L211.16666666666666,23.483287811279297L212.33333333333331,18.411303801536558L213.5,24.70057346820831L214.66666666666669,26.526488766670226L215.83333333333334,20.84584874153137L217,22.46889628410339L218.16666666666666,14.759473204612732L219.33333333333334,26.729356522560117L220.5,12.730690150260925L221.66666666666666,16.78828263282776L222.83333333333331,14.556605448722838L224,12.730690150260925L225.16666666666669,14.759473204612732L226.33333333333334,11.919166378974914L227.5,9.078859553337097L228.66666666666666,8.67309766769409L229.83333333333331,18.61419793128967L231,11.310536737442016L232.16666666666669,15.570996975898742L233.33333333333334,15.368102846145629L234.5,11.107642607688904L235.66666666666666,15.570996975898742L236.83333333333334,16.382520747184753L238,17.396912274360655L239.16666666666666,3.601113657951355L240.33333333333331,14.353711318969726L241.5,14.759473204612732L242.66666666666669,10.499012966156005L243.83333333333334,3.601113657951355L245,10.499012966156005L246.16666666666666,16.17962661743164L247.33333333333331,8.064468026161194L248.5,12.122034134864807L249.66666666666669,11.107642607688904L250.83333333333334,9.281727309226989L252,11.919166378974914L253.16666666666666,5.224134826660156L254.33333333333334,9.281727309226989L255.5,9.281727309226989" style="fill: none;" fill="none"></path></g><g><path stroke="rgb(204, 51, 17)" stroke-width="2px" d="M26.833333333333336,190.04728910923004L28,175.43996672153472L29.166666666666668,174.42557519435883L30.333333333333336,171.585268368721L31.5,164.68736906051635L32.666666666666664,172.5996598958969L33.833333333333336,167.12191400051117L35,154.13763915538786L36.16666666666667,157.9923375082016L37.333333333333336,150.48580855846404L38.5,142.77638547897337L39.666666666666664,157.18082692384718L40.833333333333336,140.54470829486846L42,134.2554518151283L43.16666666666667,137.50152052640914L44.33333333333333,130.806502161026L45.5,128.16906309127808L46.666666666666664,128.16906309127808L47.833333333333336,132.8352984023094L49,128.16906309127808L50.166666666666664,122.48844944000244L51.33333333333333,115.18478824615478L52.5,117.41646543025969L53.66666666666667,128.77770591974257L54.833333333333336,113.96751577615737L56,119.648129427433L57.166666666666664,112.14160047769546L58.333333333333336,115.99629883050918L59.5,114.17038353204727L60.66666666666667,121.87980661153793L61.83333333333333,110.72143387794495L63,110.11280423641205L64.16666666666666,107.47536516666412L65.33333333333333,114.37326447486876L66.5,112.75023011922836L67.66666666666667,114.37326447486876L68.83333333333333,118.02509507179259L70,107.06960328102112L71.16666666666666,102.80914304256439L72.33333333333334,101.99761927127838L73.5,95.30261409282684L74.66666666666667,121.47404472589493L75.83333333333333,98.54868280410766L77,103.82353456974029L78.16666666666667,95.30261409282684L79.33333333333333,104.02642869949341L80.5,102.60627528667449L81.66666666666667,96.31700562000275L82.83333333333333,96.92563526153565L84,98.14292091846465L85.16666666666666,107.27249741077422L86.33333333333334,99.96883621692658L87.5,88.20182065486908L88.66666666666666,99.96883621692658L89.83333333333334,85.15864607334136L91,93.27380466461182L92.16666666666667,105.85234399795532L93.33333333333333,88.20182065486908L94.5,98.75155055999755L95.66666666666667,92.8680427789688L96.83333333333333,85.15864607334136L98,83.73846628665923L99.16666666666667,84.14422817230223L100.33333333333333,79.47800604820252L101.5,79.88376793384552L102.66666666666666,87.79605876922606L103.83333333333334,87.18742912769318L105,89.62197406768799L106.16666666666666,83.53559853076935L107.33333333333334,90.43349783897399L108.5,79.0722441625595L109.66666666666667,83.94136041641235L110.83333333333333,79.27513829231262L112,76.23193733692169L113.16666666666667,75.82617545127869L114.33333333333333,82.92696888923645L115.5,68.11675237178802L116.66666666666667,75.82617545127869L117.83333333333333,83.53559853076935L119,74.81178392410278L120.16666666666666,70.14556180000305L121.33333333333334,77.0434611082077L122.5,71.97147709846496L123.66666666666666,74.00026015281676L124.83333333333334,61.01598530769348L126,68.11675237178802L127.16666666666667,68.72540838718415L128.33333333333331,66.89949308872222L129.5,76.84056697845459L130.66666666666666,56.958392825126644L131.83333333333334,63.04476836204528L133,70.14556180000305L134.16666666666669,72.78300086975098L135.33333333333334,66.49373120307922L136.5,64.6678159046173L137.66666666666666,58.17567848205566L138.83333333333334,63.653424377441404L140,72.78300086975098L141.16666666666666,60.001593780517574L142.33333333333331,49.451863875389094L143.5,57.36415471076965L144.66666666666669,50.060493516921994L145.83333333333334,66.08796931743622L147,61.421747193336486L148.16666666666666,49.857625761032104L149.33333333333334,58.17567848205566L150.5,66.69659895896912L151.66666666666666,60.610223422050474L152.83333333333331,66.49373120307922L154,60.204461536407464L155.16666666666669,54.11808599948883L156.33333333333334,53.509456357955926L157.5,49.04610198974609L158.66666666666666,47.017292561531065L159.83333333333331,43.771223850250244L161,56.755525069236754L162.16666666666669,52.29217070102691L163.33333333333334,50.669123158454894L164.5,43.162594208717344L165.66666666666666,48.84320785999298L166.83333333333334,48.03171046257019L168,51.68354105949402L169.16666666666666,54.92960977077484L170.33333333333331,48.23457821846008L171.5,50.263387646675106L172.66666666666669,47.017292561531065L173.83333333333334,42.959726452827454L175,51.68354105949402L176.16666666666666,41.13381115436554L177.33333333333331,40.32228738307953L178.5,44.78564175128937L179.66666666666669,41.74244079589843L180.83333333333334,45.80003327846527L182,43.771223850250244L183.16666666666666,39.713657741546626L184.33333333333334,44.58274762153625L185.5,38.6992398405075L186.66666666666666,38.09061019897461L187.83333333333331,33.221493945121765L189,36.6704567861557L190.16666666666669,41.74244079589843L191.33333333333334,35.45317112922668L192.5,41.33667891025543L193.66666666666666,34.43877960205078L194.83333333333331,40.93091702461243L196,42.14820268154144L197.16666666666669,27.338012537956235L198.33333333333334,32.004234662055964L199.5,42.959726452827454L200.66666666666666,33.62725583076477L201.83333333333334,32.409996547698974L203,35.25030337333679L204.16666666666666,32.20710241794586L205.33333333333331,33.42438807487488L206.5,36.061827144622804L207.66666666666669,28.352404065132138L208.83333333333334,32.409996547698974L210,29.97542523384094L211.16666666666666,21.048742871284485L212.33333333333331,37.88774244308471L213.5,38.2934779548645L214.66666666666669,31.192710890769956L215.83333333333334,29.772557477951047L217,28.758165950775144L218.16666666666666,26.323594636917115L219.33333333333334,24.091917452812194L220.5,26.729356522560117L221.66666666666666,24.091917452812194L222.83333333333331,33.42438807487488L224,32.004234662055964L225.16666666666669,35.858933014869685L226.33333333333334,26.932250652313233L227.5,28.961033706665038L228.66666666666666,35.656065258979794L229.83333333333331,32.004234662055964L231,24.4976793384552L232.16666666666669,30.58408124923706L233.33333333333334,21.657372512817382L234.5,26.526488766670226L235.66666666666666,28.352404065132138L236.83333333333334,28.758165950775144L238,27.946642179489135L239.16666666666666,18.61419793128967L240.33333333333331,21.860266642570494L241.5,27.946642179489135L242.66666666666669,19.628589458465576L243.83333333333334,17.396912274360655L245,9.890383324623107L246.16666666666666,25.30920310974121L247.33333333333331,29.569663348197935L248.5,18.61419793128967L249.66666666666669,20.03435134410858L250.83333333333334,17.80267416000366L252,24.4976793384552L253.16666666666666,25.512097239494324L254.33333333333334,23.68618194103241L255.5,25.512097239494324" style="fill: none;" fill="none"></path></g><g><path stroke="rgb(0, 119, 187)" stroke-width="2px" d="M26.833333333333336,180.51196391820906L28,171.7881493115425L29.166666666666668,164.89023681640623L30.333333333333336,159.2096231651306L31.5,157.7894697523117L32.666666666666664,149.06565514564514L33.833333333333336,147.23973984718322L35,145.4138245487213L36.16666666666667,129.58922969102858L37.333333333333336,142.97926642179488L38.5,138.11016335487366L39.666666666666664,138.11016335487366L40.833333333333336,136.69000994205473L42,126.95179062128067L43.16666666666667,129.3863487482071L44.33333333333333,137.50152052640914L45.5,125.12587532281874L46.666666666666664,121.67692566871642L47.833333333333336,114.57614541769027L49,120.25677225589752L50.166666666666664,130.19785933256148L51.33333333333333,119.44524848461151L52.5,109.09841270923614L53.66666666666667,123.50284096717834L54.833333333333336,116.8078226017952L56,116.40206071615218L57.166666666666664,109.90991010665893L58.333333333333336,113.96751577615737L59.5,113.15599200487136L60.66666666666667,104.6350583410263L61.83333333333333,110.92431482076644L63,102.40338115692138L64.16666666666666,106.46097363948822L65.33333333333333,100.57746585845946L66.5,103.62066681385039L67.66666666666667,97.12852939128875L68.83333333333333,101.79475151538848L70,100.98322774410248L71.16666666666666,105.2436879825592L72.33333333333334,90.63636559486389L73.5,89.01334442615509L74.66666666666667,86.57879948616028L75.83333333333333,87.99895289897918L77,86.37590535640716L78.16666666666667,92.66517502307892L79.33333333333333,84.75288418769836L80.5,87.79605876922606L81.66666666666667,86.17303760051726L82.83333333333333,95.30261409282684L84,80.69529170513152L85.16666666666666,91.65078349590301L86.33333333333334,88.40471478462219L87.5,80.69529170513152L88.66666666666666,97.33139714717865L89.83333333333334,84.75288418769836L91,80.28952981948852L92.16666666666667,77.4492229938507L93.33333333333333,79.27513829231262L94.5,81.70968323230743L95.66666666666667,83.94136041641235L96.83333333333333,74.60891616821289L98,75.82617545127869L99.16666666666667,75.42041356563568L100.33333333333333,78.46361452102661L101.5,79.0722441625595L102.66666666666666,66.69659895896912L103.83333333333334,67.10236084461212L105,73.18873638153076L106.16666666666666,70.55132368564605L107.33333333333334,73.18873638153076L108.5,69.13117027282715L109.66666666666667,75.42041356563568L110.83333333333333,62.43613872051239L112,56.958392825126644L113.16666666666667,67.71101686000823L114.33333333333333,65.68220743179322L115.5,58.17567848205566L116.66666666666667,67.10236084461212L117.83333333333333,72.78300086975098L119,58.37854623794556L120.16666666666666,61.01598530769348L121.33333333333334,58.17567848205566L122.5,52.49503845691681L123.66666666666666,56.958392825126644L124.83333333333334,64.2620540189743L126,59.79869965076446L127.16666666666667,54.32095375537872L128.33333333333331,54.523847885131836L129.5,49.24896974563598L130.66666666666666,48.23457821846008L131.83333333333334,58.17567848205566L133,54.32095375537872L134.16666666666669,56.14686905384063L135.33333333333334,43.771223850250244L136.5,62.23327096462249L137.66666666666666,55.33537165641784L138.83333333333334,53.103694472312924L140,60.40735566616058L141.16666666666666,51.4806469297409L142.33333333333331,56.14686905384063L143.5,59.19007000923156L144.66666666666669,48.23457821846008L145.83333333333334,52.49503845691681L147,50.060493516921994L148.16666666666666,55.94400129795074L149.33333333333334,45.39427139282226L150.5,48.03171046257019L151.66666666666666,51.4806469297409L152.83333333333331,50.466255402565L154,50.466255402565L155.16666666666669,38.6992398405075L156.33333333333334,38.90213397026062L157.5,42.75683232307434L158.66666666666666,41.33667891025543L159.83333333333331,43.365461964607235L161,41.74244079589843L162.16666666666669,44.58274762153625L163.33333333333334,43.771223850250244L164.5,39.510763611793514L165.66666666666666,37.48198055744171L166.83333333333334,34.23591184616089L168,48.84320785999298L169.16666666666666,42.75683232307434L170.33333333333331,44.78564175128937L171.5,37.2790864276886L172.66666666666669,40.52515513896942L173.83333333333334,49.451863875389094L175,42.14820268154144L176.16666666666666,37.076218671798706L177.33333333333331,40.119393253326415L178.5,42.553964567184444L179.66666666666669,30.58408124923706L180.83333333333334,40.119393253326415L182,36.873324542045594L183.16666666666666,41.74244079589843L184.33333333333334,36.6704567861557L185.5,40.32228738307953L186.66666666666666,30.381187119483947L187.83333333333331,36.873324542045594L189,35.656065258979794L190.16666666666669,34.84454148769378L191.33333333333334,36.467562656402585L192.5,35.25030337333679L193.66666666666666,36.264694900512694L194.83333333333331,37.076218671798706L196,34.64164735794067L197.16666666666669,32.409996547698974L198.33333333333334,34.84454148769378L199.5,30.178319363594053L200.66666666666666,36.873324542045594L201.83333333333334,25.106335353851318L203,31.801340532302856L204.16666666666666,33.42438807487488L205.33333333333331,18.817065687179564L206.5,24.903441224098206L207.66666666666669,35.45317112922668L208.83333333333334,21.251610627174376L210,33.83014996051788L211.16666666666666,22.671764039993285L212.33333333333331,25.91783275127411L213.5,26.526488766670226L214.66666666666669,24.4976793384552L215.83333333333334,26.729356522560117L217,24.903441224098206L218.16666666666666,27.946642179489135L219.33333333333334,32.815732059478755L220.5,35.04740924358368L221.66666666666666,25.106335353851318L222.83333333333331,30.381187119483947L224,20.237219099998473L225.16666666666669,23.280420055389403L226.33333333333334,25.30920310974121L227.5,23.483287811279297L228.66666666666666,24.4976793384552L229.83333333333331,24.70057346820831L231,24.091917452812194L232.16666666666669,25.512097239494324L233.33333333333334,27.74374804973602L234.5,16.17962661743164L235.66666666666666,21.048742871284485L236.83333333333334,25.714964995384214L238,16.78828263282776L239.16666666666666,19.831457214355467L240.33333333333331,22.063134398460388L241.5,26.729356522560117L242.66666666666669,29.569663348197935L243.83333333333334,30.381187119483947L245,18.411303801536558L246.16666666666666,18.61419793128967L247.33333333333331,25.106335353851318L248.5,16.585388503074647L249.66666666666669,17.80267416000366L250.83333333333334,17.396912274360655L252,19.42569532871246L253.16666666666666,20.64298098564148L254.33333333333334,14.353711318969726L255.5,15.165235090255736" style="fill: none;" fill="none"></path></g><g><path stroke="rgb(255, 112, 67)" stroke-width="2px" d="M28,184.16378132820128L29.166666666666668,163.47008340358732L30.333333333333336,160.2240146923065L31.5,156.36930315256117L32.666666666666664,155.76067351102827L33.833333333333336,164.68736906051635L35,150.08004667282103L36.16666666666667,143.79079019308088L37.333333333333336,145.81957324743271L38.5,131.212264046669L39.666666666666664,131.8208936882019L40.833333333333336,133.6468089866638L42,140.95047018051147L43.16666666666667,127.76331439256667L44.33333333333333,120.05389131307601L45.5,128.98058686256408L46.666666666666664,121.67692566871642L47.833333333333336,126.34316097974776L49,116.60494165897369L50.166666666666664,122.69133038282393L51.33333333333333,118.02509507179259L52.5,113.96751577615737L53.66666666666667,111.33007670640944L54.833333333333336,111.73583859205246L56,106.46097363948822L57.166666666666664,107.06960328102112L58.333333333333336,99.56307433128356L59.5,97.12852939128875L60.66666666666667,103.01201079845428L61.83333333333333,100.98322774410248L63,95.50548184871673L64.16666666666666,99.56307433128356L65.33333333333333,98.54868280410766L66.5,83.73846628665923L67.66666666666667,97.73715903282165L68.83333333333333,86.37590535640716L70,90.43349783897399L71.16666666666666,83.94136041641235L72.33333333333334,84.95575194358825L73.5,84.95575194358825L74.66666666666667,82.31831287384033L75.83333333333333,87.39029688358306L77,75.62330769538879L78.16666666666667,84.95575194358825L79.33333333333333,80.89815946102142L80.5,86.78166724205016L81.66666666666667,76.4348314666748L82.83333333333333,78.86937640666962L84,86.57879948616028L85.16666666666666,82.52120700359345L86.33333333333334,72.37723898410796L87.5,76.63769922256469L88.66666666666666,80.0866356897354L89.83333333333334,79.27513829231262L91,83.12983664512633L92.16666666666667,76.02906958103179L93.33333333333333,78.6664822769165L94.5,76.02906958103179L95.66666666666667,66.89949308872222L96.83333333333333,66.89949308872222L98,77.4492229938507L99.16666666666667,77.6520907497406L100.33333333333333,71.15995332717895L101.5,74.20315428256988L102.66666666666666,80.0866356897354L103.83333333333334,68.31964650154113L105,65.47933967590332L106.16666666666666,66.89949308872222L107.33333333333334,65.07357779026032L108.5,61.421747193336486L109.66666666666667,73.39163051128386L110.83333333333333,58.17567848205566L112,58.98720225334167L113.16666666666667,64.6678159046173L114.33333333333333,66.49373120307922L115.5,56.55263093948364L116.66666666666667,57.161286954879756L117.83333333333333,50.060493516921994L119,62.63900647640228L120.16666666666666,58.37854623794556L121.33333333333334,56.349763183593744L122.5,50.060493516921994L123.66666666666666,37.6848483133316L124.83333333333334,50.060493516921994L126,55.53823941230774L127.16666666666667,56.349763183593744L128.33333333333331,48.43747234821319L129.5,48.64034010410309L130.66666666666666,51.27777917385101L131.83333333333334,51.0748850440979L133,57.36415471076965L134.16666666666669,46.611557049751276L135.33333333333334,50.263387646675106L136.5,46.00290103435516L137.66666666666666,41.74244079589843L138.83333333333334,55.53823941230774L140,43.771223850250244L141.16666666666666,47.22018669128418L142.33333333333331,49.857625761032104L143.5,44.37987986564636L144.66666666666669,41.74244079589843L145.83333333333334,44.58274762153625L147,45.19137726306915L148.16666666666666,45.39427139282226L149.33333333333334,51.27777917385101L150.5,48.43747234821319L151.66666666666666,39.713657741546626L152.83333333333331,39.916525497436524L154,35.858933014869685L155.16666666666669,31.192710890769956L156.33333333333334,32.612864303588864L157.5,42.35107043743133L158.66666666666666,33.018626189231874L159.83333333333331,41.53954666614532L161,40.72804926872253L162.16666666666669,42.35107043743133L163.33333333333334,39.713657741546626L164.5,41.53954666614532L165.66666666666666,41.74244079589843L166.83333333333334,38.2934779548645L168,41.13381115436554L169.16666666666666,37.2790864276886L170.33333333333331,38.09061019897461L171.5,42.75683232307434L172.66666666666669,38.2934779548645L173.83333333333334,32.004234662055964L175,36.873324542045594L176.16666666666666,38.09061019897461L177.33333333333331,32.004234662055964L178.5,34.84454148769378L179.66666666666669,32.815732059478755L180.83333333333334,34.23591184616089L182,27.74374804973602L183.16666666666666,36.061827144622804L184.33333333333334,35.25030337333679L185.5,29.97542523384094L186.66666666666666,39.916525497436524L187.83333333333331,25.106335353851318L189,43.771223850250244L190.16666666666669,27.54088029384613L191.33333333333334,28.149509935379026L192.5,26.323594636917115L193.66666666666666,30.381187119483947L194.83333333333331,28.555271821022032L196,30.178319363594053L197.16666666666669,33.221493945121765L198.33333333333334,22.46889628410339L199.5,23.68618194103241L200.66666666666666,27.946642179489135L201.83333333333334,27.135118408203123L203,23.8890496969223L204.16666666666666,18.817065687179564L205.33333333333331,28.555271821022032L206.5,30.178319363594053L207.66666666666669,29.16392783641815L208.83333333333334,28.352404065132138L210,23.07752592563629L211.16666666666666,14.759473204612732L212.33333333333331,24.294811582565305L213.5,23.8890496969223L214.66666666666669,20.84584874153137L215.83333333333334,31.59847277641296L217,21.860266642570494L218.16666666666666,26.323594636917115L219.33333333333334,19.831457214355467L220.5,21.048742871284485L221.66666666666666,14.556605448722838L222.83333333333331,24.70057346820831L224,25.512097239494324L225.16666666666669,12.122034134864807L226.33333333333334,11.513404493331908L227.5,24.903441224098206L228.66666666666666,15.976758861541747L229.83333333333331,18.61419793128967L231,21.454504756927488L232.16666666666669,15.368102846145629L233.33333333333334,23.68618194103241L234.5,18.817065687179564L235.66666666666666,17.396912274360655L236.83333333333334,22.063134398460388L238,18.411303801536558L239.16666666666666,24.294811582565305L240.33333333333331,23.07752592563629L241.5,16.78828263282776L242.66666666666669,21.251610627174376L243.83333333333334,19.628589458465576L245,13.13645203590393L246.16666666666666,8.470203537940979L247.33333333333331,19.42569532871246L248.5,12.730690150260925L249.66666666666669,14.556605448722838L250.83333333333334,8.875965423583985L252,12.324928264617919L253.16666666666666,13.745081677436827L254.33333333333334,10.093251080513L255.5,8.875965423583985" style="fill: none;" fill="none"></path></g></g></g></g></g></g><g transform="translate(50, 176)" clip-path="url(#clip_1)"><clipPath id="clip_1"><rect width="279" height="22"></rect></clipPath><g><g><line x1="0" y1="0" x2="0" y2="5" style="visibility: inherit;" fill="rgb(0, 0, 0)" stroke="rgb(204, 204, 204)" stroke-width="1px"></line><line x1="23.333333333333332" y1="0" x2="23.333333333333332" y2="5" style="visibility: inherit;" fill="rgb(0, 0, 0)" stroke="rgb(204, 204, 204)" stroke-width="1px"></line><line x1="46.666666666666664" y1="0" x2="46.666666666666664" y2="5" style="visibility: inherit;" fill="rgb(0, 0, 0)" stroke="rgb(204, 204, 204)" stroke-width="1px"></line><line x1="70" y1="0" x2="70" y2="5" style="visibility: inherit;" fill="rgb(0, 0, 0)" stroke="rgb(204, 204, 204)" stroke-width="1px"></line><line x1="93.33333333333333" y1="0" x2="93.33333333333333" y2="5" style="visibility: inherit;" fill="rgb(0, 0, 0)" stroke="rgb(204, 204, 204)" stroke-width="1px"></line><line x1="116.66666666666667" y1="0" x2="116.66666666666667" y2="5" style="visibility: inherit;" fill="rgb(0, 0, 0)" stroke="rgb(204, 204, 204)" stroke-width="1px"></line><line x1="140" y1="0" x2="140" y2="5" style="visibility: inherit;" fill="rgb(0, 0, 0)" stroke="rgb(204, 204, 204)" stroke-width="1px"></line><line x1="163.33333333333334" y1="0" x2="163.33333333333334" y2="5" style="visibility: inherit;" fill="rgb(0, 0, 0)" stroke="rgb(204, 204, 204)" stroke-width="1px"></line><line x1="186.66666666666666" y1="0" x2="186.66666666666666" y2="5" style="visibility: inherit;" fill="rgb(0, 0, 0)" stroke="rgb(204, 204, 204)" stroke-width="1px"></line><line x1="210" y1="0" x2="210" y2="5" style="visibility: inherit;" fill="rgb(0, 0, 0)" stroke="rgb(204, 204, 204)" stroke-width="1px"></line><line x1="233.33333333333334" y1="0" x2="233.33333333333334" y2="5" style="visibility: inherit;" fill="rgb(0, 0, 0)" stroke="rgb(204, 204, 204)" stroke-width="1px"></line><line x1="256.66666666666663" y1="0" x2="256.66666666666663" y2="5" style="visibility: inherit;" fill="rgb(0, 0, 0)" stroke="rgb(204, 204, 204)" stroke-width="1px"></line><line x1="280" y1="0" x2="280" y2="5" style="visibility: inherit;" fill="rgb(0, 0, 0)" stroke="rgb(204, 204, 204)" stroke-width="1px"></line></g><g transform="translate(0, 8)"><text x="0" y="0" dx="0em" dy="0.95em" style="text-anchor: middle; visibility: hidden; font-family: Roboto, sans-serif; font-size: 12px; font-weight: 200;" fill="rgb(33, 33, 33)" stroke="none" stroke-width="1px">-20</text><text x="23.333333333333332" y="0" dx="0em" dy="0.95em" style="text-anchor: middle; visibility: inherit; font-family: Roboto, sans-serif; font-size: 12px; font-weight: 200;" fill="rgb(33, 33, 33)" stroke="none" stroke-width="1px">0</text><text x="46.666666666666664" y="0" dx="0em" dy="0.95em" style="text-anchor: middle; visibility: hidden; font-family: Roboto, sans-serif; font-size: 12px; font-weight: 200;" fill="rgb(33, 33, 33)" stroke="none" stroke-width="1px">20</text><text x="70" y="0" dx="0em" dy="0.95em" style="text-anchor: middle; visibility: inherit; font-family: Roboto, sans-serif; font-size: 12px; font-weight: 200;" fill="rgb(33, 33, 33)" stroke="none" stroke-width="1px">40</text><text x="93.33333333333333" y="0" dx="0em" dy="0.95em" style="text-anchor: middle; visibility: hidden; font-family: Roboto, sans-serif; font-size: 12px; font-weight: 200;" fill="rgb(33, 33, 33)" stroke="none" stroke-width="1px">60</text><text x="116.66666666666667" y="0" dx="0em" dy="0.95em" style="text-anchor: middle; visibility: inherit; font-family: Roboto, sans-serif; font-size: 12px; font-weight: 200;" fill="rgb(33, 33, 33)" stroke="none" stroke-width="1px">80</text><text x="140" y="0" dx="0em" dy="0.95em" style="text-anchor: middle; visibility: hidden; font-family: Roboto, sans-serif; font-size: 12px; font-weight: 200;" fill="rgb(33, 33, 33)" stroke="none" stroke-width="1px">100</text><text x="163.33333333333334" y="0" dx="0em" dy="0.95em" style="text-anchor: middle; visibility: inherit; font-family: Roboto, sans-serif; font-size: 12px; font-weight: 200;" fill="rgb(33, 33, 33)" stroke="none" stroke-width="1px">120</text><text x="186.66666666666666" y="0" dx="0em" dy="0.95em" style="text-anchor: middle; visibility: hidden; font-family: Roboto, sans-serif; font-size: 12px; font-weight: 200;" fill="rgb(33, 33, 33)" stroke="none" stroke-width="1px">140</text><text x="210" y="0" dx="0em" dy="0.95em" style="text-anchor: middle; visibility: inherit; font-family: Roboto, sans-serif; font-size: 12px; font-weight: 200;" fill="rgb(33, 33, 33)" stroke="none" stroke-width="1px">160</text><text x="233.33333333333334" y="0" dx="0em" dy="0.95em" style="text-anchor: middle; visibility: hidden; font-family: Roboto, sans-serif; font-size: 12px; font-weight: 200;" fill="rgb(33, 33, 33)" stroke="none" stroke-width="1px">180</text><text x="256.66666666666663" y="0" dx="0em" dy="0.95em" style="text-anchor: middle; visibility: inherit; font-family: Roboto, sans-serif; font-size: 12px; font-weight: 200;" fill="rgb(33, 33, 33)" stroke="none" stroke-width="1px">200</text><text x="280" y="0" dx="0em" dy="0.95em" style="text-anchor: middle; visibility: hidden; font-family: Roboto, sans-serif; font-size: 12px; font-weight: 200;" fill="rgb(33, 33, 33)" stroke="none" stroke-width="1px">220</text></g><line x1="0" y1="0" x2="280" y2="0" fill="rgb(0, 0, 0)" stroke="rgb(204, 204, 204)" stroke-width="1px"></line></g></g></g></g></svg>