<svg viewBox="0 0 330 199.9921875" xmlns="http://www.w3.org/2000/svg"><g><g><g><g><g><line x1="50" y1="176.992" x2="45" y2="176.992" style="visibility: inherit;" fill="rgb(0, 0, 0)" stroke="rgb(204, 204, 204)" stroke-width="1px"></line><line x1="50" y1="163.37723076923075" x2="45" y2="163.37723076923075" style="visibility: inherit;" fill="rgb(0, 0, 0)" stroke="rgb(204, 204, 204)" stroke-width="1px"></line><line x1="50" y1="149.7624615384615" x2="45" y2="149.7624615384615" style="visibility: inherit;" fill="rgb(0, 0, 0)" stroke="rgb(204, 204, 204)" stroke-width="1px"></line><line x1="50" y1="136.1476923076923" x2="45" y2="136.1476923076923" style="visibility: inherit;" fill="rgb(0, 0, 0)" stroke="rgb(204, 204, 204)" stroke-width="1px"></line><line x1="50" y1="122.53292307692307" x2="45" y2="122.53292307692307" style="visibility: inherit;" fill="rgb(0, 0, 0)" stroke="rgb(204, 204, 204)" stroke-width="1px"></line><line x1="50" y1="108.91815384615381" x2="45" y2="108.91815384615381" style="visibility: inherit;" fill="rgb(0, 0, 0)" stroke="rgb(204, 204, 204)" stroke-width="1px"></line><line x1="50" y1="95.30338461538463" x2="45" y2="95.30338461538463" style="visibility: inherit;" fill="rgb(0, 0, 0)" stroke="rgb(204, 204, 204)" stroke-width="1px"></line><line x1="50" y1="81.68861538461536" x2="45" y2="81.68861538461536" style="visibility: inherit;" fill="rgb(0, 0, 0)" stroke="rgb(204, 204, 204)" stroke-width="1px"></line><line x1="50" y1="68.07384615384612" x2="45" y2="68.07384615384612" style="visibility: inherit;" fill="rgb(0, 0, 0)" stroke="rgb(204, 204, 204)" stroke-width="1px"></line><line x1="50" y1="54.459076923076886" x2="45" y2="54.459076923076886" style="visibility: inherit;" fill="rgb(0, 0, 0)" stroke="rgb(204, 204, 204)" stroke-width="1px"></line><line x1="50" y1="40.844307692307645" x2="45" y2="40.844307692307645" style="visibility: inherit;" fill="rgb(0, 0, 0)" stroke="rgb(204, 204, 204)" stroke-width="1px"></line><line x1="50" y1="27.229538461538482" x2="45" y2="27.229538461538482" style="visibility: inherit;" fill="rgb(0, 0, 0)" stroke="rgb(204, 204, 204)" stroke-width="1px"></line><line x1="50" y1="13.614769230769241" x2="45" y2="13.614769230769241" style="visibility: inherit;" fill="rgb(0, 0, 0)" stroke="rgb(204, 204, 204)" stroke-width="1px"></line><line x1="50" y1="0" x2="45" y2="0" style="visibility: inherit;" fill="rgb(0, 0, 0)" stroke="rgb(204, 204, 204)" stroke-width="1px"></line></g><g transform="translate(40, 0)"><text x="0" y="176.992" dx="0em" dy="0.3em" style="text-anchor: end; visibility: hidden; font-family: Roboto, sans-serif; font-size: 12px; font-weight: 200;" fill="rgb(33, 33, 33)" stroke="none" stroke-width="1px">0.36</text><text x="0" y="163.37723076923075" dx="0em" dy="0.3em" style="text-anchor: end; visibility: inherit; font-family: Roboto, sans-serif; font-size: 12px; font-weight: 200;" fill="rgb(33, 33, 33)" stroke="none" stroke-width="1px">0.38</text><text x="0" y="149.7624615384615" dx="0em" dy="0.3em" style="text-anchor: end; visibility: hidden; font-family: Roboto, sans-serif; font-size: 12px; font-weight: 200;" fill="rgb(33, 33, 33)" stroke="none" stroke-width="1px">0.4</text><text x="0" y="136.1476923076923" dx="0em" dy="0.3em" style="text-anchor: end; visibility: inherit; font-family: Roboto, sans-serif; font-size: 12px; font-weight: 200;" fill="rgb(33, 33, 33)" stroke="none" stroke-width="1px">0.42</text><text x="0" y="122.53292307692307" dx="0em" dy="0.3em" style="text-anchor: end; visibility: hidden; font-family: Roboto, sans-serif; font-size: 12px; font-weight: 200;" fill="rgb(33, 33, 33)" stroke="none" stroke-width="1px">0.44</text><text x="0" y="108.91815384615381" dx="0em" dy="0.3em" style="text-anchor: end; visibility: inherit; font-family: Roboto, sans-serif; font-size: 12px; font-weight: 200;" fill="rgb(33, 33, 33)" stroke="none" stroke-width="1px">0.46</text><text x="0" y="95.30338461538463" dx="0em" dy="0.3em" style="text-anchor: end; visibility: hidden; font-family: Roboto, sans-serif; font-size: 12px; font-weight: 200;" fill="rgb(33, 33, 33)" stroke="none" stroke-width="1px">0.48</text><text x="0" y="81.68861538461536" dx="0em" dy="0.3em" style="text-anchor: end; visibility: inherit; font-family: Roboto, sans-serif; font-size: 12px; font-weight: 200;" fill="rgb(33, 33, 33)" stroke="none" stroke-width="1px">0.5</text><text x="0" y="68.07384615384612" dx="0em" dy="0.3em" style="text-anchor: end; visibility: hidden; font-family: Roboto, sans-serif; font-size: 12px; font-weight: 200;" fill="rgb(33, 33, 33)" stroke="none" stroke-width="1px">0.52</text><text x="0" y="54.459076923076886" dx="0em" dy="0.3em" style="text-anchor: end; visibility: inherit; font-family: Roboto, sans-serif; font-size: 12px; font-weight: 200;" fill="rgb(33, 33, 33)" stroke="none" stroke-width="1px">0.54</text><text x="0" y="40.844307692307645" dx="0em" dy="0.3em" style="text-anchor: end; visibility: hidden; font-family: Roboto, sans-serif; font-size: 12px; font-weight: 200;" fill="rgb(33, 33, 33)" stroke="none" stroke-width="1px">0.56</text><text x="0" y="27.229538461538482" dx="0em" dy="0.3em" style="text-anchor: end; visibility: inherit; font-family: Roboto, sans-serif; font-size: 12px; font-weight: 200;" fill="rgb(33, 33, 33)" stroke="none" stroke-width="1px">0.58</text><text x="0" y="13.614769230769241" dx="0em" dy="0.3em" style="text-anchor: end; visibility: hidden; font-family: Roboto, sans-serif; font-size: 12px; font-weight: 200;" fill="rgb(33, 33, 33)" stroke="none" stroke-width="1px">0.6</text><text x="0" y="0" dx="0em" dy="0.3em" style="text-anchor: end; visibility: hidden; font-family: Roboto, sans-serif; font-size: 12px; font-weight: 200;" fill="rgb(33, 33, 33)" stroke="none" stroke-width="1px">0.62</text></g><line x1="50" y1="0" x2="50" y2="176.992" fill="rgb(0, 0, 0)" stroke="rgb(204, 204, 204)" stroke-width="1px"></line></g></g><g transform="translate(50, 0)" clip-path="url(#clip_0)"><clipPath id="clip_0"><rect width="279" height="176"></rect></clipPath><g><g><g><line x1="0" y1="0" x2="0" y2="176.992" fill="rgb(0, 0, 0)" stroke="rgb(66, 66, 66)" stroke-width="1px" opacity="0.25"></line><line x1="23.333333333333332" y1="0" x2="23.333333333333332" y2="176.992" fill="rgb(0, 0, 0)" stroke="rgb(66, 66, 66)" stroke-width="1px" opacity="0.25"></line><line x1="46.666666666666664" y1="0" x2="46.666666666666664" y2="176.992" fill="rgb(0, 0, 0)" stroke="rgb(66, 66, 66)" stroke-width="1px" opacity="0.25"></line><line x1="70" y1="0" x2="70" y2="176.992" fill="rgb(0, 0, 0)" stroke="rgb(66, 66, 66)" stroke-width="1px" opacity="0.25"></line><line x1="93.33333333333333" y1="0" x2="93.33333333333333" y2="176.992" fill="rgb(0, 0, 0)" stroke="rgb(66, 66, 66)" stroke-width="1px" opacity="0.25"></line><line x1="116.66666666666667" y1="0" x2="116.66666666666667" y2="176.992" fill="rgb(0, 0, 0)" stroke="rgb(66, 66, 66)" stroke-width="1px" opacity="0.25"></line><line x1="140" y1="0" x2="140" y2="176.992" fill="rgb(0, 0, 0)" stroke="rgb(66, 66, 66)" stroke-width="1px" opacity="0.25"></line><line x1="163.33333333333334" y1="0" x2="163.33333333333334" y2="176.992" fill="rgb(0, 0, 0)" stroke="rgb(66, 66, 66)" stroke-width="1px" opacity="0.25"></line><line x1="186.66666666666666" y1="0" x2="186.66666666666666" y2="176.992" fill="rgb(0, 0, 0)" stroke="rgb(66, 66, 66)" stroke-width="1px" opacity="0.25"></line><line x1="210" y1="0" x2="210" y2="176.992" fill="rgb(0, 0, 0)" stroke="rgb(66, 66, 66)" stroke-width="1px" opacity="0.25"></line><line x1="233.33333333333334" y1="0" x2="233.33333333333334" y2="176.992" fill="rgb(0, 0, 0)" stroke="rgb(66, 66, 66)" stroke-width="1px" opacity="0.25"></line><line x1="256.66666666666663" y1="0" x2="256.66666666666663" y2="176.992" fill="rgb(0, 0, 0)" stroke="rgb(66, 66, 66)" stroke-width="1px" opacity="0.25"></line><line x1="280" y1="0" x2="280" y2="176.992" fill="rgb(0, 0, 0)" stroke="rgb(66, 66, 66)" stroke-width="1px" opacity="0.25"></line></g><g><line x1="0" y1="176.992" x2="280" y2="176.992" fill="rgb(0, 0, 0)" stroke="rgb(66, 66, 66)" stroke-width="1px" opacity="0.25"></line><line x1="0" y1="163.37723076923075" x2="280" y2="163.37723076923075" fill="rgb(0, 0, 0)" stroke="rgb(66, 66, 66)" stroke-width="1px" opacity="0.25"></line><line x1="0" y1="149.7624615384615" x2="280" y2="149.7624615384615" fill="rgb(0, 0, 0)" stroke="rgb(66, 66, 66)" stroke-width="1px" opacity="0.25"></line><line x1="0" y1="136.1476923076923" x2="280" y2="136.1476923076923" fill="rgb(0, 0, 0)" stroke="rgb(66, 66, 66)" stroke-width="1px" opacity="0.25"></line><line x1="0" y1="122.53292307692307" x2="280" y2="122.53292307692307" fill="rgb(0, 0, 0)" stroke="rgb(66, 66, 66)" stroke-width="1px" opacity="0.25"></line><line x1="0" y1="108.91815384615381" x2="280" y2="108.91815384615381" fill="rgb(0, 0, 0)" stroke="rgb(66, 66, 66)" stroke-width="1px" opacity="0.25"></line><line x1="0" y1="95.30338461538463" x2="280" y2="95.30338461538463" fill="rgb(0, 0, 0)" stroke="rgb(66, 66, 66)" stroke-width="1px" opacity="0.25"></line><line x1="0" y1="81.68861538461536" x2="280" y2="81.68861538461536" fill="rgb(0, 0, 0)" stroke="rgb(66, 66, 66)" stroke-width="1px" opacity="0.25"></line><line x1="0" y1="68.07384615384612" x2="280" y2="68.07384615384612" fill="rgb(0, 0, 0)" stroke="rgb(66, 66, 66)" stroke-width="1px" opacity="0.25"></line><line x1="0" y1="54.459076923076886" x2="280" y2="54.459076923076886" fill="rgb(0, 0, 0)" stroke="rgb(66, 66, 66)" stroke-width="1px" opacity="0.25"></line><line x1="0" y1="40.844307692307645" x2="280" y2="40.844307692307645" fill="rgb(0, 0, 0)" stroke="rgb(66, 66, 66)" stroke-width="1px" opacity="0.25"></line><line x1="0" y1="27.229538461538482" x2="280" y2="27.229538461538482" fill="rgb(0, 0, 0)" stroke="rgb(66, 66, 66)" stroke-width="1px" opacity="0.25"></line><line x1="0" y1="13.614769230769241" x2="280" y2="13.614769230769241" fill="rgb(0, 0, 0)" stroke="rgb(66, 66, 66)" stroke-width="1px" opacity="0.25"></line><line x1="0" y1="0" x2="280" y2="0" fill="rgb(0, 0, 0)" stroke="rgb(66, 66, 66)" stroke-width="1px" opacity="0.25"></line></g></g></g><g><g><line x1="0" y1="422.0578461538461" x2="280" y2="422.0578461538461" fill="rgb(0, 0, 0)" stroke="rgb(153, 153, 153)" stroke-width="1.5px"></line></g></g><g><g><line x1="23.333333333333332" y1="0" x2="23.333333333333332" y2="176.992" fill="rgb(0, 0, 0)" stroke="rgb(153, 153, 153)" stroke-width="1.5px"></line></g></g><g><g><g><g><g><path stroke="rgb(51, 187, 238)" stroke-width="2px" d="M30.333333333333336,181.53141258355694L31.5,171.451140210483L32.666666666666664,170.80947159849913L33.833333333333336,165.78112191920073L35,164.7884961476187L36.16666666666667,160.69183399796827L37.333333333333336,157.9895333508936L38.5,152.3721107026938L39.666666666666664,143.13382303068568L40.833333333333336,150.33180810055077L42,147.7814459076671L43.16666666666667,142.75538758985613L44.33333333333333,138.61637064673673L45.5,133.38634186654926L46.666666666666664,133.3697363813742L47.833333333333336,137.85439321703566L49,133.92810599249228L50.166666666666664,140.8112183709394L51.33333333333333,135.57736740095515L52.5,136.30739273911846L53.66666666666667,132.37569174896007L54.833333333333336,127.89424187051996L56,125.2053737047574L57.166666666666664,121.71932209091929L58.333333333333336,120.37678246597885L59.5,117.57367790060175L60.66666666666667,113.26998537871626L61.83333333333333,116.80536221956532L63,116.67931596831232L64.16666666666666,122.47158070471491L65.33333333333333,119.20509836458416L66.5,117.49490859630478L67.66666666666667,116.96819398438227L68.83333333333333,117.65095559201667L70,111.56847107072718L71.16666666666666,112.16384147585975L72.33333333333334,114.14409503172685L73.5,113.70921585209769L74.66666666666667,112.07494853862268L75.83333333333333,111.8434789014607L77,107.08519468839218L78.16666666666667,109.84841696410064L79.33333333333333,112.87969013510755L80.5,105.70934068329676L81.66666666666667,104.90289325920322L82.83333333333333,105.79236461035661L84,107.19998798278321L85.16666666666666,110.91609142841378L86.33333333333334,110.7736233174833L87.5,111.56208301266008L88.66666666666666,105.91756678258676L89.83333333333334,107.64965871902034L91,106.6913331354766L92.16666666666667,102.87026704531071L93.33333333333333,96.20791646750278L94.5,101.82386852996979L95.66666666666667,98.07704923253542L96.83333333333333,98.95018669818215L98,96.35284013346283L99.16666666666667,92.92170126019481L100.33333333333333,93.35999792550591L101.5,90.5017549956201L102.66666666666666,90.78438998309218L103.83333333333334,90.82912116460834L105,90.85595987351802L106.16666666666666,88.25024141365974L107.33333333333334,90.68197182855188L108.5,87.14705009894341L109.66666666666667,81.78003443617364L110.83333333333333,85.42650783645723L112,90.98531242763399L113.16666666666667,91.1993742532676L114.33333333333333,84.33627062470038L115.5,84.3384278643691L116.66666666666667,85.21366276990507L117.83333333333333,82.9921241020206L119,80.53556071762101L120.16666666666666,78.6870813691149L121.33333333333334,80.82406450005078L122.5,79.98382382224158L123.66666666666666,76.98269942628428L124.83333333333334,73.43414366524038L126,75.92441263922177L127.16666666666667,71.4258317873999L128.33333333333331,72.47214514517974L129.5,73.22479108584963L130.66666666666666,71.67879790484791L131.83333333333334,70.50150237431275L133,72.04240542332933L134.16666666666669,70.96936650733578L135.33333333333334,73.5716057827443L136.5,67.39232598830927L137.66666666666666,67.67991960245536L138.83333333333334,67.9773174668753L140,66.40787506205784L141.16666666666666,66.34015018090206L142.33333333333331,64.92617544660554L143.5,67.82326870497037L144.66666666666669,66.93968674471543L145.83333333333334,66.03499625069608L147,65.49218195428446L148.16666666666666,66.29013356010633L149.33333333333334,59.27796455578379L150.5,58.94098294806522L151.66666666666666,59.36303492323463L152.83333333333331,58.6174838506693L154,52.427094362783805L155.16666666666669,52.70803839092935L156.33333333333334,56.62206667668973L157.5,59.5947245879465L158.66666666666666,60.37952084696394L159.83333333333331,60.10131596664159L161,62.68107264965422L162.16666666666669,58.11132649724909L163.33333333333334,59.364640296613224L164.5,55.996609159422626L165.66666666666666,55.59882990464544L166.83333333333334,54.61107971604629L168,48.64992830647669L169.16666666666666,42.32655784952889L170.33333333333331,45.27437667737343L171.5,43.672147423073525L172.66666666666669,44.58353268989522L173.83333333333334,48.50128440099486L175,47.10647355878168L176.16666666666666,47.143527615188454L177.33333333333331,46.91606042709837L178.5,46.28019710044564L179.66666666666669,48.64534248559043L180.83333333333334,45.94442652993788L182,47.070540337682715L183.16666666666666,45.87348580292795L184.33333333333334,50.02435513461696L185.5,47.27121713315238L186.66666666666666,46.24359150214394L187.83333333333331,45.87671574547303L189,45.78143198740266L190.16666666666669,46.0988030504269L191.33333333333334,45.040743808640315L192.5,45.404690521235324L193.66666666666666,45.747916474794245L194.83333333333331,39.586552262782746L196,37.88731448097945L197.16666666666669,38.365969543502395L198.33333333333334,39.40224521674898L199.5,40.024010620696906L200.66666666666666,40.022528545199286L201.83333333333334,37.77435893256296L203,40.29577695985612L204.16666666666666,38.9371064690937L205.33333333333331,39.24554435830513L206.5,39.30574916583008L207.66666666666669,36.595192439138955L208.83333333333334,38.46463688013285L210,39.71114524066143L211.16666666666666,42.33178930644985L212.33333333333331,38.66051614544501L213.5,33.7110888677057L214.66666666666669,33.73779550413268L215.83333333333334,32.38047968038581L217,31.94064773407379L218.16666666666666,34.79796949535899L219.33333333333334,31.768102195520463L220.5,33.82050161049229L221.66666666666666,32.430103344201655L222.83333333333331,36.7146660589033L224,32.418720889778726L225.16666666666669,34.71025584084593L226.33333333333334,30.71667551507604L227.5,32.315688810421264L228.66666666666666,33.89935395749861L229.83333333333331,38.84471453655221L231,32.32341017076508L232.16666666666669,28.910026795161134L233.33333333333334,34.35293673761443L234.5,30.876841601073153L235.66666666666666,32.03724714415315L236.83333333333334,33.73228895773776L238,31.378393494881887L239.16666666666666,27.219376605962342L240.33333333333331,25.972448352211682L241.5,25.224291399961288L242.66666666666669,24.77539722861108L243.83333333333334,23.507278468133993L245,28.364608130192096L246.16666666666666,27.533544058553954L247.33333333333331,27.5342886293697L248.5,29.15777479939632L249.66666666666669,21.642144275929663L250.83333333333334,25.247946869465903L252,26.03808861998462L253.16666666666666,26.761873292230057L254.33333333333334,24.324622788439054L255.5,17.119213641818117" style="fill: none;" fill="none"></path></g><g><path stroke="rgb(204, 51, 17)" stroke-width="2px" d="M31.5,179.72869744646758L32.666666666666664,174.9855738578755L33.833333333333336,171.91926717146006L35,172.221551177433L36.16666666666667,165.6456695385339L37.333333333333336,160.45919092253126L38.5,154.47786913399233L39.666666666666664,156.6378214651206L40.833333333333336,155.9349982670917L42,153.1409076129435L43.16666666666667,154.21170641311514L44.33333333333333,148.6112938181972L45.5,143.75302028509472L46.666666666666664,146.08193636617136L47.833333333333336,144.4828427598523L49,141.52580354556747L50.166666666666664,141.37463396583215L51.33333333333333,138.66210353728383L52.5,142.77765074163995L53.66666666666667,139.25421808643702L54.833333333333336,142.0092739589553L56,133.92409059144515L57.166666666666664,134.69117652286985L58.333333333333336,131.78051509008753L59.5,130.0341184775111L60.66666666666667,130.23476253813723L61.83333333333333,138.59517992305098L63,130.25259757798912L64.16666666666666,127.244629028745L65.33333333333333,126.06409697775344L66.5,123.98243794113182L67.66666666666667,119.3625219655891L68.83333333333333,119.83664313122956L70,120.24596564127546L71.16666666666666,116.62124746539023L72.33333333333334,119.31551861492325L73.5,121.80602186603127L74.66666666666667,118.93061289225737L75.83333333333333,115.83203581753047L77,114.47228070167017L78.16666666666667,113.15703650334184L79.33333333333333,109.87090999505826L80.5,112.76833614269759L81.66666666666667,108.76374921696184L82.83333333333333,108.35857780694221L84,112.23548626271256L85.16666666666666,110.81616135225869L86.33333333333334,115.45791751336809L87.5,116.49509008656172L88.66666666666666,115.24466269604076L89.83333333333334,109.25075477628452L91,112.14655150451088L92.16666666666667,113.13493067564409L93.33333333333333,110.35703762731724L94.5,108.1909106694877L95.66666666666667,102.0221243272132L96.83333333333333,96.57297139837912L98,98.04773999768838L99.16666666666667,104.55079396058339L100.33333333333333,104.45746484751328L101.5,101.65479588349996L102.66666666666666,104.21805561783333L103.83333333333334,98.76447073448594L105,100.61112147895355L106.16666666666666,98.97244042946296L107.33333333333334,99.48742141633866L108.5,94.92729984088737L109.66666666666667,92.0663770846495L110.83333333333333,90.72437286380801L112,88.54583052570013L113.16666666666667,82.3696030702935L114.33333333333333,85.78024901692915L115.5,89.32482620148062L116.66666666666667,83.96064065943064L117.83333333333333,82.1154691398037L119,80.1344256662928L120.16666666666666,76.44881959291438L121.33333333333334,74.23745594888732L122.5,74.15911964207217L123.66666666666666,72.36423673451371L124.83333333333334,73.53458735731635L126,73.23799924326129L127.16666666666667,76.18126730390073L128.33333333333331,78.82117681705392L129.5,78.90693290837577L130.66666666666666,73.34018564482449L131.83333333333334,71.24863539636449L133,72.61552693249266L134.16666666666669,69.065959045496L135.33333333333334,72.05501998777406L136.5,75.72117937254252L137.66666666666666,73.55117219473003L138.83333333333334,71.74976864417428L140,70.66892651384079L141.16666666666666,68.5222397341054L142.33333333333331,63.73844918925571L143.5,65.36273559702134L144.66666666666669,61.96760463300717L145.83333333333334,61.553565482135866L147,64.67606254261965L148.16666666666666,66.42470285290806L149.33333333333334,65.9757055375458L150.5,65.33174960039237L151.66666666666666,64.44599302430166L152.83333333333331,60.4187606016387L154,58.50182039190924L155.16666666666669,63.718956050218374L156.33333333333334,63.478316894197235L157.5,64.45757358425347L158.66666666666666,56.180847824868486L159.83333333333331,62.70091382786036L161,57.498990264372324L162.16666666666669,58.37299761708659L163.33333333333334,51.53131998690142L164.5,54.66753752460217L165.66666666666666,54.177145983952634L166.83333333333334,54.38231030343126L168,50.635089100243434L169.16666666666666,50.634036745668546L170.33333333333331,51.13280457679193L171.5,51.93146451933418L172.66666666666669,49.91368049558771L173.83333333333334,42.8351095410613L175,50.948008988702995L176.16666666666666,51.820587166480884L177.33333333333331,48.34895635227081L178.5,50.13629765861967L179.66666666666669,52.58204224803198L180.83333333333334,52.67614919607634L182,52.60777166897076L183.16666666666666,51.06854742110247L184.33333333333334,49.27107231064677L185.5,52.81200590505071L186.66666666666666,52.93898531628946L187.83333333333331,51.26727560949361L189,45.27030603694204L190.16666666666669,45.167886540349954L191.33333333333334,47.10401558779822L192.5,53.50935261674522L193.66666666666666,48.613132986696584L194.83333333333331,49.29602138160812L196,46.4596755634807L197.16666666666669,46.880306744009815L198.33333333333334,49.255107893663094L199.5,46.31028577478143L200.66666666666666,43.1700526978494L201.83333333333334,45.03137472056325L203,47.14696642192816L204.16666666666666,48.4163214427471L205.33333333333331,41.8118524134247L206.5,42.59341512237128L207.66666666666669,42.93751105180691L208.83333333333334,42.769427291601936L210,40.67098006000569L211.16666666666666,38.28827153737907L212.33333333333331,41.60290678041272L213.5,41.344407558895135L214.66666666666669,43.062047075456015L215.83333333333334,38.09988854918171L217,36.74561663088471L218.16666666666666,35.183970844173686L219.33333333333334,35.870022799684214L220.5,30.788294750578384L221.66666666666666,30.86047885018736L222.83333333333331,37.64563041196603L224,38.720342115893004L225.16666666666669,36.61850575711275L226.33333333333334,36.8555854433799L227.5,36.12389269340554L228.66666666666666,38.55639835055915L229.83333333333331,38.26802062138192L231,30.728911942061846L232.16666666666669,31.823647652814135L233.33333333333334,34.10351227673298L234.5,31.60112748627905L235.66666666666666,34.968798664548544L236.83333333333334,33.4936391245714L238,32.23398585264908L239.16666666666666,36.222454246105286L240.33333333333331,36.617954536775414L241.5,33.983733404039185L242.66666666666669,28.1583396116562L243.83333333333334,33.277667257641234L245,37.472904028901155L246.16666666666666,37.992465346253546L247.33333333333331,33.684799706057206L248.5,33.472322385209395L249.66666666666669,30.34847298963014L250.83333333333334,23.23050375180468L252,24.577923127453726L253.16666666666666,23.763335325305974L254.33333333333334,28.268542622561114L255.5,27.72558814583989" style="fill: none;" fill="none"></path></g><g><path stroke="rgb(0, 119, 187)" stroke-width="2px" d="M29.166666666666668,182.296429468032L30.333333333333336,173.7118786617762L31.5,173.16193463532184L32.666666666666664,170.063298442537L33.833333333333336,165.20962441150547L35,160.56202582940733L36.16666666666667,154.9064877333778L37.333333333333336,152.27113266036739L38.5,150.44222874598557L39.666666666666664,150.34506429005472L40.833333333333336,147.66422520735574L42,145.05724640478053L43.16666666666667,141.1209785671981L44.33333333333333,140.88203362786774L45.5,138.49131344875673L46.666666666666664,139.05456185116378L47.833333333333336,135.14758599963235L49,133.1779776762696L50.166666666666664,130.12348282904622L51.33333333333333,132.28596803288846L52.5,138.20287364598857L53.66666666666667,132.01478836712448L54.833333333333336,133.04620452324798L56,129.17049142082814L57.166666666666664,125.34687452553597L58.333333333333336,120.93027409145488L59.5,123.52397422374511L60.66666666666667,118.71289408281004L61.83333333333333,118.07352657700666L63,118.8135462882336L64.16666666666666,120.63089792659625L65.33333333333333,119.22432889289225L66.5,116.00826540616272L67.66666666666667,116.57559920156793L68.83333333333333,114.79356891879432L70,117.46982073756662L71.16666666666666,112.20888091117143L72.33333333333334,112.67293719094084L73.5,113.45076208763672L74.66666666666667,114.54170608046834L75.83333333333333,112.69929248666709L77,106.10049322287699L78.16666666666667,101.89151404282124L79.33333333333333,103.36129614074405L80.5,102.49527616096668L81.66666666666667,101.72596455116945L82.83333333333333,97.39406590544208L84,100.28827782540056L85.16666666666666,102.52420422124135L86.33333333333334,94.75178877842052L87.5,96.58048099281264L88.66666666666666,95.80496538701055L89.83333333333334,96.08874677429712L91,86.89535281945095L92.16666666666667,89.74418886105975L93.33333333333333,90.32985030235598L94.5,88.43396679979594L95.66666666666667,93.66372836737197L96.83333333333333,87.31306459469828L98,86.49904556423425L99.16666666666667,87.25912414059178L100.33333333333333,88.46426203717395L101.5,88.18855440242146L102.66666666666666,82.28007909225853L103.83333333333334,85.3519851972069L105,78.58055682372624L106.16666666666666,78.01347827664631L107.33333333333334,79.67080377876714L108.5,79.54156701140565L109.66666666666667,83.20948681986168L110.83333333333333,73.4247542325138L112,72.17331711071283L113.16666666666667,69.30001616622673L114.33333333333333,71.69605501634415L115.5,69.63791607947574L116.66666666666667,69.52667290102359L117.83333333333333,71.83204905722226L119,68.34617269839958L120.16666666666666,66.00494726117184L121.33333333333334,61.229291447828594L122.5,62.608759072564L123.66666666666666,59.316420230596115L124.83333333333334,59.83799691468725L126,60.026101229209736L127.16666666666667,61.76198701539074L128.33333333333331,59.3077562401605L129.5,60.20733983829231L130.66666666666666,61.12164754510751L131.83333333333334,56.801130116654676L133,56.33124210091888L134.16666666666669,62.541450771556434L135.33333333333334,59.27603524999161L136.5,58.065884802855194L137.66666666666666,54.967672471303345L138.83333333333334,49.7378245213656L140,50.71991893814238L141.16666666666666,52.9322150157456L142.33333333333331,51.76261267303565L143.5,59.176032175025966L144.66666666666669,54.385262784935065L145.83333333333334,49.63807833147878L147,46.54006803747086L148.16666666666666,44.306704313130076L149.33333333333334,42.71698645659141L150.5,43.885594414073715L151.66666666666666,42.464320517157574L152.83333333333331,41.112173165209306L154,39.92632720610425L155.16666666666669,40.713017362246156L156.33333333333334,43.931694837067745L157.5,41.118657195420695L158.66666666666666,40.55447479410129L159.83333333333331,45.959007967586274L161,46.57990618647311L162.16666666666669,41.8336272132595L163.33333333333334,39.859816621135735L164.5,37.05249083832433L165.66666666666666,35.492937064569674L166.83333333333334,35.80570290998765L168,32.87214148816601L169.16666666666666,34.48292518607966L170.33333333333331,37.32211822422945L171.5,35.654713496112755L172.66666666666669,35.65306914697932L173.83333333333334,36.52602309923402L175,34.30311585938079L176.16666666666666,33.46877075933713L177.33333333333331,31.09542464983966L178.5,31.41931433768021L179.66666666666669,30.86454928458212L180.83333333333334,31.905030058326314L182,27.660200239961195L183.16666666666666,30.356961949420093L184.33333333333334,31.101078413360746L185.5,25.804505677448557L186.66666666666666,28.744145968044233L187.83333333333331,31.63157032607049L189,32.86462569701793L190.16666666666669,31.232336856316447L191.33333333333334,29.878422234029117L192.5,31.31335382799446L193.66666666666666,31.425213918571252L194.83333333333331,29.494749227513672L196,27.587371547076643L197.16666666666669,29.5641658678869L198.33333333333334,25.88114040783116L199.5,24.54526569353244L200.66666666666666,24.367981804753768L201.83333333333334,22.63858827401912L203,24.097932144850176L204.16666666666666,21.10321867247389L205.33333333333331,20.180331150782845L206.5,17.62901789236463L207.66666666666669,18.220652378649504L208.83333333333334,15.704111763282114L210,15.817226821598862L211.16666666666666,20.504498287196647L212.33333333333331,23.19201947062309L213.5,22.931793131207566L214.66666666666669,18.655654140818907L215.83333333333334,20.20997393332504L217,19.020143367492945L218.16666666666666,17.68200408819313L219.33333333333334,16.254863350743054L220.5,14.274938724604134L221.66666666666666,19.45428373306755L222.83333333333331,16.693990197867166L224,20.656014995091205L225.16666666666669,16.29138877141242L226.33333333333334,14.29685397700569L227.5,14.348631210032455L228.66666666666666,12.506958500377236L229.83333333333331,16.645614475061986L231,12.886366201727974L232.16666666666669,10.006560067857311L233.33333333333334,8.028976765600788L234.5,13.334568264325918L235.66666666666666,7.778517546213835L236.83333333333334,8.440048606153788L238,4.716947825308674L239.16666666666666,5.354608663939897L240.33333333333331,11.230564389530755L241.5,11.884616517746908L242.66666666666669,16.27220928548381L243.83333333333334,13.286564027781578L245,14.241856484366307L246.16666666666666,13.566533848646355L247.33333333333331,11.038917825878606L248.5,14.141750642825686L249.66666666666669,13.631328269723921L250.83333333333334,13.325074845862892L252,11.892824681875387L253.16666666666666,13.031055328886515L254.33333333333334,16.585515024231476L255.5,2.4878452562756634" style="fill: none;" fill="none"></path></g><g><path stroke="rgb(255, 112, 67)" stroke-width="2px" d="M28,182.52476398049657L29.166666666666668,175.77170172344347L30.333333333333336,178.47798553756778L31.5,175.86204819554237L32.666666666666664,172.0507338578807L33.833333333333336,169.411848760564L35,163.82905834115638L36.16666666666667,159.24116144122897L37.333333333333336,156.74484941938923L38.5,157.37324555678492L39.666666666666664,148.75661792356024L40.833333333333336,141.84086061794156L42,140.19005780921802L43.16666666666667,135.07932520219705L44.33333333333333,139.00517651825285L45.5,132.7456471875529L46.666666666666664,127.49185357866182L47.833333333333336,127.08636693965994L49,122.97272801181826L50.166666666666664,119.00637684614355L51.33333333333333,116.87627850682627L52.5,111.85274700603215L53.66666666666667,110.96106631852655L54.833333333333336,115.7945630832824L56,117.82071835872894L57.166666666666664,117.1636796977561L58.333333333333336,114.39732610118054L59.5,120.60299608974671L60.66666666666667,116.58576592245248L61.83333333333333,113.55117887212674L63,106.11223379768558L64.16666666666666,103.52159778861719L65.33333333333333,104.21449658152282L66.5,106.00356755018957L67.66666666666667,104.58003824733787L68.83333333333333,108.71987253784116L70,107.45831123672443L71.16666666666666,105.70258408351947L72.33333333333334,104.64914779213727L73.5,107.38799845405842L74.66666666666667,103.66280755393916L75.83333333333333,99.18041264663754L77,99.61220474665956L78.16666666666667,96.0009602117006L79.33333333333333,96.45604329105143L80.5,89.36301109678466L81.66666666666667,89.97629383282681L82.83333333333333,91.59275346908977L84,97.43173130339486L85.16666666666666,98.56299594069905L86.33333333333334,98.36780604631063L87.5,97.50160135890971L88.66666666666666,91.61337725005802L89.83333333333334,94.4477344538607L91,94.89985878150593L92.16666666666667,90.17718151458392L93.33333333333333,90.09024665060217L94.5,91.28657572684905L95.66666666666667,90.13164223816068L96.83333333333333,95.43142438115844L98,88.99793937284036L99.16666666666667,91.00574079309324L100.33333333333333,83.84554923072936L101.5,83.17004635121693L102.66666666666666,85.76112385664973L103.83333333333334,88.18971092164406L105,85.27715223693231L106.16666666666666,83.65445872203753L107.33333333333334,79.4347799880959L108.5,78.65085387120043L109.66666666666667,86.04597948674521L110.83333333333333,85.23940337062895L112,85.25484882979266L113.16666666666667,81.01925499254955L114.33333333333333,80.72517905754144L115.5,75.80447313992691L116.66666666666667,76.47266976229905L117.83333333333333,75.62510585612112L119,78.86202938128744L120.16666666666666,78.30720350711529L121.33333333333334,77.1003674208773L122.5,73.50474446199624L123.66666666666666,73.96919237187173L124.83333333333334,76.49514148513477L126,76.3876715255554L127.16666666666667,78.1959285992791L128.33333333333331,76.53420323230725L129.5,80.28142836873376L130.66666666666666,79.53338421744952L131.83333333333334,73.59121473433652L133,80.26351639342074L134.16666666666669,82.26931664346776L135.33333333333334,77.23035493535103L136.5,75.20577639821762L137.66666666666666,71.86859060453207L138.83333333333334,71.61416025179025L140,70.83726110034453L141.16666666666666,67.24990068040464L142.33333333333331,66.97022347791206L143.5,70.79757864722367L144.66666666666669,67.60063252639854L145.83333333333334,66.80610503757235L147,65.70514760447607L148.16666666666666,67.79125275582433L149.33333333333334,68.04411735889671L150.5,68.57039366867616L151.66666666666666,71.75768076168212L152.83333333333331,66.05427135373778L154,63.38130834470398L155.16666666666669,66.52179089589332L156.33333333333334,58.418176699589054L157.5,56.55237118487698L158.66666666666666,55.55774580205169L159.83333333333331,55.210670194290635L161,51.75634597455966L162.16666666666669,55.052252739131255L163.33333333333334,55.781314918273125L164.5,54.096313554352754L165.66666666666666,54.83321008953963L166.83333333333334,61.14323232086062L168,60.68438454691182L169.16666666666666,56.03937307386905L170.33333333333331,55.8741878752475L171.5,51.40537394740094L172.66666666666669,54.59196990090184L173.83333333333334,56.3790857770702L175,50.9592138226921L176.16666666666666,53.450333264341886L177.33333333333331,49.201962315055134L178.5,53.3947808474963L179.66666666666669,51.790452550151905L180.83333333333334,53.82423480488551L182,54.54510491385733L183.16666666666666,49.98366700069664L184.33333333333334,46.372863691065504L185.5,45.205180193023494L186.66666666666666,44.13002877633189L187.83333333333331,46.60615885538934L189,50.214259344159665L190.16666666666669,53.50275982109078L191.33333333333334,51.35584069044024L192.5,51.56588694365485L193.66666666666666,49.69433395018011L194.83333333333331,43.32774255361729L196,44.127206376356995L197.16666666666669,41.36080581492646L198.33333333333334,40.450064343870594L199.5,46.14606131938202L200.66666666666666,50.187900444489436L201.83333333333334,47.99360148894613L203,43.30610156461358L204.16666666666666,43.98936385695289L205.33333333333331,45.02356217215701L206.5,41.149520426603935L207.66666666666669,46.440877043020095L208.83333333333334,43.99749009452542L210,43.15571509529884L211.16666666666666,47.145210830438344L212.33333333333331,47.79101091798294L213.5,43.434246843969824L214.66666666666669,42.94261084089774L215.83333333333334,44.894909606392254L217,40.697787569278724L218.16666666666666,40.926193958216686L219.33333333333334,39.81473968190868L220.5,41.89454672732994L221.66666666666666,39.3969690857097L222.83333333333331,34.40264402372897L224,41.76851026149456L225.16666666666669,43.44135039294785L226.33333333333334,40.07535166314624L227.5,39.928491474736596L228.66666666666666,40.21491667955727L229.83333333333331,36.01705276370637L231,32.87409347439535L232.16666666666669,33.36045619414839L233.33333333333334,34.90075570560133L234.5,40.069796525214365L235.66666666666666,40.174841783842005L236.83333333333334,43.60878949002519L238,40.550356439259076L239.16666666666666,40.08863641440244L240.33333333333331,40.43584533928902L241.5,38.147190704948976L242.66666666666669,38.272195655949936L243.83333333333334,37.59809976074801L245,39.56578051696654L246.16666666666666,30.134228073809567L247.33333333333331,26.722576975253098L248.5,33.16530854160189L249.66666666666669,34.783667114073396L250.83333333333334,39.12560280856292L252,39.60832555385114L253.16666666666666,41.520998628561244L254.33333333333334,39.047982300446535L255.5,34.567809500507146" style="fill: none;" fill="none"></path></g></g></g></g><g opacity="0.2"><g><g><g><path stroke="rgb(51, 187, 238)" stroke-width="2px" d="M28,188.90258919290395L29.166666666666668,176.41768924654446L30.333333333333336,177.04193830137984L31.5,156.7540063199263L32.666666666666664,169.8631350335341L33.833333333333336,158.3146086694277L35,163.30856053293667L36.16666666666667,154.56913462800244L37.333333333333336,153.94490586075412L38.5,143.95698184614915L39.666666666666664,129.28725078303995L40.833333333333336,161.12370912859987L42,143.95698184614915L43.16666666666667,135.21757622880202L44.33333333333333,132.40847576962983L45.5,125.5417767416147L46.666666666666664,133.34482906429582L47.833333333333336,144.58123090098454L49,128.03875267336917L50.166666666666664,151.13580540158196L51.33333333333333,127.72662814595148L52.5,137.40242763313879L53.66666666666667,126.4781503238678L54.833333333333336,121.17207393294113L56,121.17207393294113L57.166666666666664,116.49024659684986L58.333333333333336,118.36297347376895L59.5,113.36902161026L60.66666666666667,106.81444710966255L61.83333333333333,122.10842722760712L63,116.49024659684986L64.16666666666666,131.15997765995905L65.33333333333333,114.305374904926L66.5,114.92962395976139L67.66666666666667,116.17812206943216L68.83333333333333,118.67509800118665L70,102.44474430098897L71.16666666666666,113.0568970828423L72.33333333333334,117.11447536409818L73.5,113.0568970828423L74.66666666666667,109.62354756883472L75.83333333333333,111.49627444575381L77,99.94776836923451L78.16666666666667,113.99325037750829L79.33333333333333,117.42659989151585L80.5,94.95381650572556L81.66666666666667,103.69322212307269L82.83333333333333,107.12657163708025L84,109.31142304141703L85.16666666666666,116.49024659684986L86.33333333333334,110.55992115108782L87.5,112.7447725554246L88.66666666666666,97.45079243748003L89.83333333333334,110.24779662367013L91,105.25384476016116L92.16666666666667,97.13866791006234L93.33333333333333,86.21439060079133L94.5,110.24779662367013L95.66666666666667,92.45682028638399L96.83333333333333,100.25989289665222L98,92.45682028638399L99.16666666666667,87.77499295029273L100.33333333333333,94.01744292347246L101.5,86.21439060079133L102.66666666666666,91.20834246430027L103.83333333333334,90.8962179368826L105,90.8962179368826L106.16666666666666,84.34166372387224L107.33333333333334,94.32956745089018L108.5,81.84466750453068L109.66666666666667,73.72951094201893L110.83333333333333,90.8962179368826L112,99.32351931439912L113.16666666666667,91.520466991718L114.33333333333333,74.04161518184954L115.5,84.34166372387224L116.66666666666667,86.52651512820903L117.83333333333333,79.6598161001939L119,76.85071564102172L120.16666666666666,75.91436234635573L121.33333333333334,84.02953919645455L122.5,78.7234628055279L123.66666666666666,72.48101283234816L124.83333333333334,68.11131002367458L126,79.6598161001939L127.16666666666667,64.67796050966702L128.33333333333331,74.04161518184954L129.5,74.35375999685434L130.66666666666666,69.35980813334537L131.83333333333334,68.73555907850998L133,74.35375999685434L134.16666666666669,69.35980813334537L135.33333333333334,77.47496469585711L136.5,58.12340629665667L137.66666666666666,68.11131002367458L138.83333333333334,68.4234142635052L140,64.05371145483163L141.16666666666666,66.23856285916841L142.33333333333331,62.805213345160844L143.5,72.16890859251755L144.66666666666669,65.61431380433302L145.83333333333334,64.67796050966702L147,64.67796050966702L148.16666666666666,67.4870609688392L149.33333333333334,48.75971104929996L150.5,58.43551053648728L151.66666666666666,59.99611288598868L152.83333333333331,57.49915724182129L154,43.14151013095561L155.16666666666669,53.12945443314772L156.33333333333334,62.493109105330234L157.5,64.05371145483163L158.66666666666666,61.55671523549005L159.83333333333331,59.68400864615807L161,66.5507076741732L162.16666666666669,51.256707268641534L163.33333333333334,61.24461099565944L164.5,50.94456245363674L165.66666666666666,55.00216102247971L166.83333333333334,53.12945443314772L168,39.708201192122225L169.16666666666666,32.84150216410709L170.33333333333331,49.696104919140154L171.5,41.26880354162362L172.66666666666669,45.950610590127795L173.83333333333334,54.37791196764431L175,45.0142572954618L176.16666666666666,47.19910869979858L177.33333333333331,46.574859644963176L178.5,45.326402110466574L179.66666666666669,52.193060563307526L180.83333333333334,41.89305259645901L182,48.75971104929996L183.16666666666666,44.077904000795805L184.33333333333334,56.250659132150496L185.5,43.14151013095561L186.66666666666666,44.70215305563119L187.83333333333331,45.326402110466574L189,45.638506350297185L190.16666666666669,46.574859644963176L191.33333333333334,43.4536549459604L192.5,45.950610590127795L193.66666666666666,46.26275540513259L194.83333333333331,30.344505944765533L196,35.33845780827448L197.16666666666669,39.08395213728684L198.33333333333334,40.95665872661883L199.5,40.95665872661883L200.66666666666666,40.020305431952835L201.83333333333334,34.402104513608485L203,44.077904000795805L204.16666666666666,36.89910073295006L205.33333333333331,39.708201192122225L206.5,39.39605637711745L207.66666666666669,32.52935734910231L208.83333333333334,41.26880354162362L210,41.58090778145423L211.16666666666666,46.26275540513259L212.33333333333331,33.1536064039377L213.5,26.286947951096746L214.66666666666669,33.777855458773104L215.83333333333334,30.344505944765533L217,31.28089981460571L218.16666666666666,39.08395213728684L219.33333333333334,27.22330124576274L220.5,36.89910073295006L221.66666666666666,30.344505944765533L222.83333333333331,43.14151013095561L224,25.974803136091953L225.16666666666669,38.14755826744666L226.33333333333334,24.726305026421166L227.5,34.714208753439095L228.66666666666666,36.27485167811466L229.83333333333331,46.26275540513259L231,22.541453622084383L232.16666666666669,23.78995173175517L233.33333333333334,42.51730165129441L234.5,25.66269889626136L235.66666666666666,33.777855458773104L236.83333333333334,36.27485167811466L238,27.847550300598144L239.16666666666666,20.980851272583006L240.33333333333331,24.10205597158578L241.5,24.10205597158578L242.66666666666669,24.10205597158578L243.83333333333334,21.60510032741839L245,35.650602623279276L246.16666666666666,26.286947951096746L247.33333333333331,27.53540548559335L248.5,31.593004054436303L249.66666666666669,10.368698490729692L250.83333333333334,30.656650759770308L252,27.22330124576274L253.16666666666666,27.847550300598144L254.33333333333334,20.668747032752396L255.5,6.31109992188674" style="fill: none;" fill="none"></path></g><g><path stroke="rgb(204, 51, 17)" stroke-width="2px" d="M30.333333333333336,180.47528781538742L31.5,167.36615910177963L32.666666666666664,167.99038786902793L33.833333333333336,167.36615910177963L35,172.67223549270628L36.16666666666667,155.81763273767322L37.333333333333336,152.69640775108337L38.5,145.51760448323762L39.666666666666664,159.8752110189291L40.833333333333336,154.88125915542014L42,148.9509539972452L43.16666666666667,155.81763273767322L44.33333333333333,140.21152809231097L45.5,136.4660540508857L46.666666666666664,149.5751827644935L47.833333333333336,142.08425496923005L49,137.0903031057211L50.166666666666664,141.14788138697696L51.33333333333333,134.5933271739666L52.5,148.9509539972452L53.66666666666667,133.9690781191312L54.833333333333336,146.141853538073L56,121.79632298777652L57.166666666666664,135.84180499605029L58.333333333333336,127.41452390612089L59.5,127.41452390612089L60.66666666666667,130.53572860512364L61.83333333333333,151.13580540158196L63,117.73872441893357L64.16666666666666,122.73267628244251L65.33333333333333,124.293298919531L66.5,120.85994940552342L67.66666666666667,112.43264802800691L68.83333333333333,120.54782487810574L70,120.85994940552342L71.16666666666666,111.18417020592321L72.33333333333334,123.35692533727791L73.5,125.5417767416147L74.66666666666667,114.61749943234369L75.83333333333333,111.18417020592321L77,112.43264802800691L78.16666666666667,111.18417020592321L79.33333333333333,104.94172023274346L80.5,117.11447536409818L81.66666666666667,102.7568688284067L82.83333333333333,107.75082069191564L84,118.05084894635125L85.16666666666666,108.68717398658163L86.33333333333334,122.42055175502482L87.5,118.05084894635125L88.66666666666666,113.36902161026L89.83333333333334,100.25989289665222L91,116.49024659684986L92.16666666666667,114.61749943234369L93.33333333333333,106.19019805482715L94.5,104.94172023274346L95.66666666666667,92.76894481380168L96.83333333333333,88.39924200512812L98,100.25989289665222L99.16666666666667,114.305374904926L100.33333333333333,104.31747117790806L101.5,97.45079243748003L102.66666666666666,108.06294521933334L103.83333333333334,90.5840934094649L105,103.38109759565499L106.16666666666666,96.51441885522694L107.33333333333334,100.25989289665222L108.5,88.08711747771042L109.66666666666667,87.77499295029273L110.83333333333333,88.71136653254581L112,85.27801701853824L113.16666666666667,73.10526188718354L114.33333333333333,90.8962179368826L115.5,94.64169197830785L116.66666666666667,75.91436234635573L117.83333333333333,79.3477118603633L119,77.1628604560265L120.16666666666666,70.92041048284676L121.33333333333334,70.92041048284676L122.5,74.04161518184954L123.66666666666666,69.67191237317597L124.83333333333334,75.29011329152033L126,72.79311707217876L127.16666666666667,80.59616939485988L128.33333333333331,82.78104108678376L129.5,79.0355670453585L130.66666666666666,64.99006474949762L131.83333333333334,68.11131002367458L133,74.66586423668494L134.16666666666669,63.74160721500102L135.33333333333334,76.53861140119112L136.5,81.22041844969529L137.66666666666666,70.29616142801136L138.83333333333334,69.0476633183406L140,69.0476633183406L141.16666666666666,65.30220956450242L142.33333333333331,56.562763371981106L143.5,67.7991652086698L144.66666666666669,56.874908186985884L145.83333333333334,60.932506755828854L147,69.35980813334537L148.16666666666666,69.0476633183406L149.33333333333334,65.30220956450242L150.5,64.36581569466225L151.66666666666666,63.11735816016564L152.83333333333331,54.37791196764431L154,55.62641007731509L155.16666666666669,71.54465953768215L156.33333333333334,63.11735816016564L157.5,65.9264586193378L158.66666666666666,43.76575918579101L159.83333333333331,72.48101283234816L161,49.696104919140154L162.16666666666669,59.68400864615807L163.33333333333334,41.26880354162362L164.5,59.37186383115327L165.66666666666666,53.44155867297832L166.83333333333334,54.6900567826491L168,45.0142572954618L169.16666666666666,50.63245821380615L170.33333333333331,51.88095632347694L171.5,53.12945443314772L172.66666666666669,46.88700445996797L173.83333333333334,32.2172531092717L175,63.11735816016564L176.16666666666666,53.12945443314772L177.33333333333331,43.14151013095561L178.5,52.81730961814293L179.66666666666669,56.250659132150496L180.83333333333334,52.81730961814293L182,52.50520537831232L183.16666666666666,48.75971104929996L184.33333333333334,46.574859644963176L185.5,58.12340629665667L186.66666666666666,53.12945443314772L187.83333333333331,48.75971104929996L189,36.27485167811466L190.16666666666669,45.0142572954618L191.33333333333334,50.00820915897074L192.5,63.11735816016564L193.66666666666666,41.26880354162362L194.83333333333331,50.32035397397554L196,42.20515683628962L197.16666666666669,47.51125351480337L198.33333333333334,52.81730961814293L199.5,41.89305259645901L200.66666666666666,38.45970308245144L201.83333333333334,47.82335775463397L203,50.32035397397554L204.16666666666666,50.32035397397554L205.33333333333331,31.905148869441096L206.5,43.76575918579101L207.66666666666669,43.4536549459604L208.83333333333334,42.51730165129441L210,37.52330921261126L211.16666666666666,34.714208753439095L212.33333333333331,46.574859644963176L213.5,40.95665872661883L214.66666666666669,45.638506350297185L215.83333333333334,30.656650759770308L217,34.714208753439095L218.16666666666666,32.84150216410709L219.33333333333334,36.89910073295006L220.5,23.16570267691979L221.66666666666666,30.968754999600918L222.83333333333331,47.82335775463397L224,40.332409671783445L225.16666666666669,33.46575121894249L226.33333333333334,37.21120497278067L227.5,35.02635356844387L228.66666666666666,42.20515683628962L229.83333333333331,37.83545402761605L231,19.42024892308161L232.16666666666669,33.46575121894249L233.33333333333334,37.52330921261126L234.5,27.847550300598144L235.66666666666666,40.020305431952835L236.83333333333334,31.28089981460571L238,30.344505944765533L239.16666666666666,42.20515683628962L240.33333333333331,37.21120497278067L241.5,30.032401704934923L242.66666666666669,19.42024892308161L243.83333333333334,40.95665872661883L245,43.76575918579101L246.16666666666666,38.77180732228205L247.33333333333331,27.22330124576274L248.5,33.1536064039377L249.66666666666669,25.66269889626136L250.83333333333334,12.553549895066473L252,26.599052190927356L253.16666666666666,22.541453622084383L254.33333333333334,35.02635356844387L255.5,26.911156430757966" style="fill: none;" fill="none"></path></g><g><path stroke="rgb(0, 119, 187)" stroke-width="2px" d="M26.833333333333336,191.71168965207613L28,176.10556471912676L29.166666666666668,172.36011096528858L30.333333333333336,161.43583365601756L31.5,172.36011096528858L32.666666666666664,165.49341193727344L33.833333333333336,158.00248414201L35,153.63278133333645L36.16666666666667,146.4539577779036L37.333333333333336,148.3267049424098L38.5,147.7024558875744L39.666666666666664,150.19943181932888L40.833333333333336,143.64485731873143L42,141.14788138697696L43.16666666666667,135.21757622880202L44.33333333333333,140.52365261972867L45.5,134.9054517013843L46.666666666666664,139.89940356489328L47.833333333333336,129.28725078303995L49,130.22360407770597L50.166666666666664,125.5417767416147L51.33333333333333,135.52968046863262L52.5,147.078206832739L53.66666666666667,122.73267628244251L54.833333333333336,134.5933271739666L56,123.35692533727791L57.166666666666664,119.61145129585266L58.333333333333336,114.305374904926L59.5,127.41452390612089L60.66666666666667,111.49627444575381L61.83333333333333,117.11447536409818L63,119.92357582327034L64.16666666666666,123.35692533727791L65.33333333333333,117.11447536409818L66.5,111.18417020592321L67.66666666666667,117.42659989151585L68.83333333333333,112.1205235005892L70,121.48419846035883L71.16666666666666,104.31747117790806L72.33333333333334,113.36902161026L73.5,114.61749943234369L74.66666666666667,116.17812206943216L75.83333333333333,109.93567209625243L77,96.20229432780924L78.16666666666667,95.57804527297387L79.33333333333333,105.56596928757887L80.5,101.19624619131821L81.66666666666667,100.57199713648282L82.83333333333333,90.8962179368826L84,104.62959570532578L85.16666666666666,105.87809381499655L86.33333333333334,83.09316561420145L87.5,99.32351931439912L88.66666666666666,94.64169197830785L89.83333333333334,96.51441885522694L91,73.10526188718354L92.16666666666667,94.01744292347246L93.33333333333333,91.20834246430027L94.5,85.59014154595594L95.66666666666667,101.5083707187359L96.83333333333333,77.78706893568771L98,85.27801701853824L99.16666666666667,88.39924200512812L100.33333333333333,90.2719688820472L101.5,87.77499295029273L102.66666666666666,73.41736612701416L103.83333333333334,89.95984435462951L105,68.4234142635052L106.16666666666666,77.1628604560265L107.33333333333334,82.15679203194838L108.5,79.3477118603633L109.66666666666667,88.71136653254581L110.83333333333333,58.74765535149207L112,70.29616142801136L113.16666666666667,64.99006474949762L114.33333333333333,75.29011329152033L115.5,66.5507076741732L116.66666666666667,69.35980813334537L117.83333333333333,75.29011329152033L119,63.11735816016564L120.16666666666666,62.493109105330234L121.33333333333334,54.06580772781372L122.5,64.67796050966702L123.66666666666666,54.37791196764431L124.83333333333334,60.62036194082406L126,60.30825770099345L127.16666666666667,64.36581569466225L128.33333333333331,55.62641007731509L129.5,61.55671523549005L130.66666666666666,62.493109105330234L131.83333333333334,50.32035397397554L133,55.62641007731509L134.16666666666669,71.85676377751275L135.33333333333334,54.37791196764431L136.5,56.250659132150496L137.66666666666666,50.32035397397554L138.83333333333334,41.89305259645901L140,52.193060563307526L141.16666666666666,56.250659132150496L142.33333333333331,50.00820915897074L143.5,70.29616142801136L144.66666666666669,47.19910869979858L145.83333333333334,42.51730165129441L147,41.89305259645901L148.16666666666666,40.95665872661883L149.33333333333334,40.332409671783445L150.5,45.638506350297185L151.66666666666666,40.332409671783445L152.83333333333331,39.08395213728684L154,38.14755826744666L155.16666666666669,41.89305259645901L156.33333333333334,48.75971104929996L157.5,36.89910073295006L158.66666666666666,39.708201192122225L159.83333333333331,54.06580772781372L161,47.51125351480337L162.16666666666669,34.714208753439095L163.33333333333334,36.89910073295006L164.5,32.84150216410709L165.66666666666666,33.1536064039377L166.83333333333334,36.27485167811466L168,28.471799355433525L169.16666666666666,36.89910073295006L170.33333333333331,41.58090778145423L171.5,33.1536064039377L172.66666666666669,35.650602623279276L173.83333333333334,37.83545402761605L175,30.968754999600918L176.16666666666666,32.2172531092717L177.33333333333331,27.53540548559335L178.5,31.905148869441096L179.66666666666669,30.032401704934923L180.83333333333334,33.46575121894249L182,21.292955512413617L183.16666666666666,34.402104513608485L184.33333333333334,32.2172531092717L185.5,17.859646573580232L186.66666666666666,33.1536064039377L187.83333333333331,35.96270686310989L189,34.714208753439095L190.16666666666669,28.783903595264135L191.33333333333334,27.847550300598144L192.5,33.46575121894249L193.66666666666666,31.593004054436303L194.83333333333331,26.599052190927356L196,24.726305026421166L197.16666666666669,32.52935734910231L198.33333333333334,20.356602217747604L199.5,22.541453622084383L200.66666666666666,24.10205597158578L201.83333333333334,20.04449797791701L203,26.286947951096746L204.16666666666666,16.611148463909444L205.33333333333331,18.795999868246227L206.5,13.80204800473726L207.66666666666669,19.108104108076816L208.83333333333334,11.92930084023109L210,15.986899409074042L211.16666666666666,27.53540548559335L212.33333333333331,27.22330124576274L213.5,22.541453622084383L214.66666666666669,12.241445655235882L215.83333333333334,22.541453622084383L217,17.23539751874483L218.16666666666666,15.67479516924345L219.33333333333334,14.11415224456787L220.5,11.305051785395685L221.66666666666666,27.22330124576274L222.83333333333331,12.553549895066473L224,26.599052190927356L225.16666666666669,9.744449435894309L226.33333333333334,11.305051785395685L227.5,14.426297059572663L228.66666666666666,9.744449435894309L229.83333333333331,22.85359843708918L231,7.247493791726917L232.16666666666669,5.686850867051337L233.33333333333334,5.062601812215953L234.5,21.292955512413617L235.66666666666666,-0.5555585309542324L236.83333333333334,9.432345196063698L238,-0.8677033459590061L239.16666666666666,6.31109992188674L240.33333333333331,20.04449797791701L241.5,12.865694710071267L242.66666666666669,22.85359843708918L243.83333333333334,8.808096141228315L245,15.67479516924345L246.16666666666666,12.553549895066473L247.33333333333331,7.247493791726917L248.5,18.795999868246227L249.66666666666669,12.865694710071267L250.83333333333334,12.865694710071267L252,9.744449435894309L253.16666666666666,14.738401299403254L254.33333333333334,21.917204567249L255.5,-18.658659395658066" style="fill: none;" fill="none"></path></g><g><path stroke="rgb(255, 112, 67)" stroke-width="2px" d="M26.833333333333336,188.27834013806856L28,176.72981377396215L29.166666666666668,166.42978551952655L30.333333333333336,182.34801469230652L31.5,172.0479864378709L32.666666666666664,166.42978551952655L33.833333333333336,165.49341193727344L35,155.50550821025553L36.16666666666667,152.38428322366565L37.333333333333336,153.00853227850106L38.5,158.3146086694277L39.666666666666664,135.84180499605029L40.833333333333336,131.47210218737675L42,137.71455216055648L43.16666666666667,127.41452390612089L44.33333333333333,144.89335542840223L45.5,123.35692533727791L46.666666666666664,119.61145129585266L47.833333333333336,126.4781503238678L49,116.80235083668047L50.166666666666664,113.0568970828423L51.33333333333333,113.6811461376777L52.5,104.31747117790806L53.66666666666667,109.62354756883472L54.833333333333336,123.04480080986022L56,120.85994940552342L57.166666666666664,116.17812206943216L58.333333333333336,110.24779662367013L59.5,129.91149983787537L60.66666666666667,110.55992115108782L61.83333333333333,108.99929851399934L63,94.95381650572556L64.16666666666666,99.63564384181682L65.33333333333333,105.25384476016116L66.5,108.68717398658163L67.66666666666667,102.44474430098897L68.83333333333333,114.92962395976139L70,105.56596928757887L71.16666666666666,103.06899335582438L72.33333333333334,103.06899335582438L73.5,111.49627444575381L74.66666666666667,98.07502120472833L75.83333333333333,92.45682028638399L77,100.25989289665222L78.16666666666667,90.5840934094649L79.33333333333333,97.13866791006234L80.5,78.7234628055279L81.66666666666667,90.8962179368826L82.83333333333333,94.01744292347246L84,106.19019805482715L85.16666666666666,100.25989289665222L86.33333333333334,98.07502120472833L87.5,96.20229432780924L88.66666666666666,82.78104108678376L89.83333333333334,98.69927025956373L91,95.57804527297387L92.16666666666667,83.09316561420145L93.33333333333333,89.95984435462951L94.5,93.08106934121936L95.66666666666667,88.39924200512812L96.83333333333333,103.38109759565499L98,79.3477118603633L99.16666666666667,94.01744292347246L100.33333333333333,73.10526188718354L101.5,82.15679203194838L102.66666666666666,89.6477401147989L103.83333333333334,91.83259151913568L105,80.90831420986467L106.16666666666666,81.22041844969529L107.33333333333334,73.10526188718354L108.5,77.47496469585711L109.66666666666667,97.13866791006234L110.83333333333333,84.02953919645455L112,85.27801701853824L113.16666666666667,74.66586423668494L114.33333333333333,80.2840651550293L115.5,68.4234142635052L116.66666666666667,77.47496469585711L117.83333333333333,74.35375999685434L119,83.71741466903686L120.16666666666666,77.47496469585711L121.33333333333334,75.29011329152033L122.5,68.11131002367458L123.66666666666666,74.66586423668494L124.83333333333334,80.2840651550293L126,76.22646658618632L127.16666666666667,80.90831420986467L128.33333333333331,74.04161518184954L129.5,85.90226607337364L130.66666666666666,78.4113179905231L131.83333333333334,64.67796050966702L133,90.2719688820472L134.16666666666669,85.27801701853824L135.33333333333334,69.67191237317597L136.5,72.16890859251755L137.66666666666666,66.8628119140038L138.83333333333334,71.23251472267738L140,69.67191237317597L141.16666666666666,61.868860050494845L142.33333333333331,66.5507076741732L143.5,76.53861140119112L144.66666666666669,62.805213345160844L145.83333333333334,65.61431380433302L147,64.05371145483163L148.16666666666666,70.92041048284676L149.33333333333334,68.4234142635052L150.5,69.35980813334537L151.66666666666666,76.53861140119112L152.83333333333331,57.49915724182129L154,59.37186383115327L155.16666666666669,71.23251472267738L156.33333333333334,46.26275540513259L157.5,53.75366291280893L158.66666666666666,54.06580772781372L159.83333333333331,54.6900567826491L161,46.574859644963176L162.16666666666669,59.99611288598868L163.33333333333334,56.874908186985884L164.5,51.568811508472145L165.66666666666666,55.938554892319885L166.83333333333334,70.60826566784198L168,59.99611288598868L169.16666666666666,49.07185586430475L170.33333333333331,55.62641007731509L171.5,44.70215305563119L172.66666666666669,59.37186383115327L173.83333333333334,59.05975959132267L175,42.82940589112502L176.16666666666666,57.187012426816494L177.33333333333331,42.82940589112502L178.5,59.68400864615807L179.66666666666669,49.38396010413536L180.83333333333334,56.874908186985884L182,55.62641007731509L183.16666666666666,43.14151013095561L184.33333333333334,40.95665872661883L185.5,43.4536549459604L186.66666666666666,42.51730165129441L187.83333333333331,50.32035397397554L189,55.62641007731509L190.16666666666669,58.43551053648728L191.33333333333334,48.13546199446458L192.5,51.88095632347694L193.66666666666666,46.88700445996797L194.83333333333331,33.777855458773104L196,45.326402110466574L197.16666666666669,37.21120497278067L198.33333333333334,39.08395213728684L199.5,54.6900567826491L200.66666666666666,56.250659132150496L201.83333333333334,44.70215305563119L203,36.27485167811466L204.16666666666666,45.0142572954618L205.33333333333331,46.574859644963176L206.5,35.33845780827448L207.66666666666669,54.37791196764431L208.83333333333334,40.332409671783445L210,41.89305259645901L211.16666666666666,53.12945443314772L212.33333333333331,48.75971104929996L213.5,36.89910073295006L214.66666666666669,42.20515683628962L215.83333333333334,47.82335775463397L217,34.402104513608485L218.16666666666666,41.26880354162362L219.33333333333334,38.14755826744666L220.5,45.0142572954618L221.66666666666666,35.650602623279276L222.83333333333331,26.911156430757966L224,52.81730961814293L225.16666666666669,45.950610590127795L226.33333333333334,35.02635356844387L227.5,39.708201192122225L228.66666666666666,40.64455448678824L229.83333333333331,29.72025688993013L231,28.159654540428733L232.16666666666669,34.090000273777875L233.33333333333334,37.21120497278067L234.5,47.82335775463397L235.66666666666666,40.332409671783445L236.83333333333334,48.75971104929996L238,35.96270686310989L239.16666666666666,39.39605637711745L240.33333333333331,40.95665872661883L241.5,34.714208753439095L242.66666666666669,38.45970308245144L243.83333333333334,36.58695591794527L245,42.51730165129441L246.16666666666666,15.986899409074042L247.33333333333331,21.60510032741839L248.5,42.82940589112502L249.66666666666669,37.21120497278067L250.83333333333334,45.638506350297185L252,40.332409671783445L253.16666666666666,44.3900082406264L254.33333333333334,35.33845780827448L255.5,27.847550300598144" style="fill: none;" fill="none"></path></g></g></g></g></g></g><g transform="translate(50, 176)" clip-path="url(#clip_1)"><clipPath id="clip_1"><rect width="279" height="22"></rect></clipPath><g><g><line x1="0" y1="0" x2="0" y2="5" style="visibility: inherit;" fill="rgb(0, 0, 0)" stroke="rgb(204, 204, 204)" stroke-width="1px"></line><line x1="23.333333333333332" y1="0" x2="23.333333333333332" y2="5" style="visibility: inherit;" fill="rgb(0, 0, 0)" stroke="rgb(204, 204, 204)" stroke-width="1px"></line><line x1="46.666666666666664" y1="0" x2="46.666666666666664" y2="5" style="visibility: inherit;" fill="rgb(0, 0, 0)" stroke="rgb(204, 204, 204)" stroke-width="1px"></line><line x1="70" y1="0" x2="70" y2="5" style="visibility: inherit;" fill="rgb(0, 0, 0)" stroke="rgb(204, 204, 204)" stroke-width="1px"></line><line x1="93.33333333333333" y1="0" x2="93.33333333333333" y2="5" style="visibility: inherit;" fill="rgb(0, 0, 0)" stroke="rgb(204, 204, 204)" stroke-width="1px"></line><line x1="116.66666666666667" y1="0" x2="116.66666666666667" y2="5" style="visibility: inherit;" fill="rgb(0, 0, 0)" stroke="rgb(204, 204, 204)" stroke-width="1px"></line><line x1="140" y1="0" x2="140" y2="5" style="visibility: inherit;" fill="rgb(0, 0, 0)" stroke="rgb(204, 204, 204)" stroke-width="1px"></line><line x1="163.33333333333334" y1="0" x2="163.33333333333334" y2="5" style="visibility: inherit;" fill="rgb(0, 0, 0)" stroke="rgb(204, 204, 204)" stroke-width="1px"></line><line x1="186.66666666666666" y1="0" x2="186.66666666666666" y2="5" style="visibility: inherit;" fill="rgb(0, 0, 0)" stroke="rgb(204, 204, 204)" stroke-width="1px"></line><line x1="210" y1="0" x2="210" y2="5" style="visibility: inherit;" fill="rgb(0, 0, 0)" stroke="rgb(204, 204, 204)" stroke-width="1px"></line><line x1="233.33333333333334" y1="0" x2="233.33333333333334" y2="5" style="visibility: inherit;" fill="rgb(0, 0, 0)" stroke="rgb(204, 204, 204)" stroke-width="1px"></line><line x1="256.66666666666663" y1="0" x2="256.66666666666663" y2="5" style="visibility: inherit;" fill="rgb(0, 0, 0)" stroke="rgb(204, 204, 204)" stroke-width="1px"></line><line x1="280" y1="0" x2="280" y2="5" style="visibility: inherit;" fill="rgb(0, 0, 0)" stroke="rgb(204, 204, 204)" stroke-width="1px"></line></g><g transform="translate(0, 8)"><text x="0" y="0" dx="0em" dy="0.95em" style="text-anchor: middle; visibility: hidden; font-family: Roboto, sans-serif; font-size: 12px; font-weight: 200;" fill="rgb(33, 33, 33)" stroke="none" stroke-width="1px">-20</text><text x="23.333333333333332" y="0" dx="0em" dy="0.95em" style="text-anchor: middle; visibility: inherit; font-family: Roboto, sans-serif; font-size: 12px; font-weight: 200;" fill="rgb(33, 33, 33)" stroke="none" stroke-width="1px">0</text><text x="46.666666666666664" y="0" dx="0em" dy="0.95em" style="text-anchor: middle; visibility: hidden; font-family: Roboto, sans-serif; font-size: 12px; font-weight: 200;" fill="rgb(33, 33, 33)" stroke="none" stroke-width="1px">20</text><text x="70" y="0" dx="0em" dy="0.95em" style="text-anchor: middle; visibility: inherit; font-family: Roboto, sans-serif; font-size: 12px; font-weight: 200;" fill="rgb(33, 33, 33)" stroke="none" stroke-width="1px">40</text><text x="93.33333333333333" y="0" dx="0em" dy="0.95em" style="text-anchor: middle; visibility: hidden; font-family: Roboto, sans-serif; font-size: 12px; font-weight: 200;" fill="rgb(33, 33, 33)" stroke="none" stroke-width="1px">60</text><text x="116.66666666666667" y="0" dx="0em" dy="0.95em" style="text-anchor: middle; visibility: inherit; font-family: Roboto, sans-serif; font-size: 12px; font-weight: 200;" fill="rgb(33, 33, 33)" stroke="none" stroke-width="1px">80</text><text x="140" y="0" dx="0em" dy="0.95em" style="text-anchor: middle; visibility: hidden; font-family: Roboto, sans-serif; font-size: 12px; font-weight: 200;" fill="rgb(33, 33, 33)" stroke="none" stroke-width="1px">100</text><text x="163.33333333333334" y="0" dx="0em" dy="0.95em" style="text-anchor: middle; visibility: inherit; font-family: Roboto, sans-serif; font-size: 12px; font-weight: 200;" fill="rgb(33, 33, 33)" stroke="none" stroke-width="1px">120</text><text x="186.66666666666666" y="0" dx="0em" dy="0.95em" style="text-anchor: middle; visibility: hidden; font-family: Roboto, sans-serif; font-size: 12px; font-weight: 200;" fill="rgb(33, 33, 33)" stroke="none" stroke-width="1px">140</text><text x="210" y="0" dx="0em" dy="0.95em" style="text-anchor: middle; visibility: inherit; font-family: Roboto, sans-serif; font-size: 12px; font-weight: 200;" fill="rgb(33, 33, 33)" stroke="none" stroke-width="1px">160</text><text x="233.33333333333334" y="0" dx="0em" dy="0.95em" style="text-anchor: middle; visibility: hidden; font-family: Roboto, sans-serif; font-size: 12px; font-weight: 200;" fill="rgb(33, 33, 33)" stroke="none" stroke-width="1px">180</text><text x="256.66666666666663" y="0" dx="0em" dy="0.95em" style="text-anchor: middle; visibility: inherit; font-family: Roboto, sans-serif; font-size: 12px; font-weight: 200;" fill="rgb(33, 33, 33)" stroke="none" stroke-width="1px">200</text><text x="280" y="0" dx="0em" dy="0.95em" style="text-anchor: middle; visibility: hidden; font-family: Roboto, sans-serif; font-size: 12px; font-weight: 200;" fill="rgb(33, 33, 33)" stroke="none" stroke-width="1px">220</text></g><line x1="0" y1="0" x2="280" y2="0" fill="rgb(0, 0, 0)" stroke="rgb(204, 204, 204)" stroke-width="1px"></line></g></g></g></g></svg>