<svg viewBox="0 0 330 199.9921875" xmlns="http://www.w3.org/2000/svg"><g><g><g><g><g><line x1="50" y1="176.992" x2="45" y2="176.992" style="visibility: inherit;" fill="rgb(0, 0, 0)" stroke="rgb(204, 204, 204)" stroke-width="1px"></line><line x1="50" y1="151.70742857142852" x2="45" y2="151.70742857142852" style="visibility: inherit;" fill="rgb(0, 0, 0)" stroke="rgb(204, 204, 204)" stroke-width="1px"></line><line x1="50" y1="126.42285714285713" x2="45" y2="126.42285714285713" style="visibility: inherit;" fill="rgb(0, 0, 0)" stroke="rgb(204, 204, 204)" stroke-width="1px"></line><line x1="50" y1="101.1382857142857" x2="45" y2="101.1382857142857" style="visibility: inherit;" fill="rgb(0, 0, 0)" stroke="rgb(204, 204, 204)" stroke-width="1px"></line><line x1="50" y1="75.85371428571425" x2="45" y2="75.85371428571425" style="visibility: inherit;" fill="rgb(0, 0, 0)" stroke="rgb(204, 204, 204)" stroke-width="1px"></line><line x1="50" y1="50.56914285714285" x2="45" y2="50.56914285714285" style="visibility: inherit;" fill="rgb(0, 0, 0)" stroke="rgb(204, 204, 204)" stroke-width="1px"></line><line x1="50" y1="25.284571428571397" x2="45" y2="25.284571428571397" style="visibility: inherit;" fill="rgb(0, 0, 0)" stroke="rgb(204, 204, 204)" stroke-width="1px"></line><line x1="50" y1="0" x2="45" y2="0" style="visibility: inherit;" fill="rgb(0, 0, 0)" stroke="rgb(204, 204, 204)" stroke-width="1px"></line></g><g transform="translate(40, 0)"><text x="0" y="176.992" dx="0em" dy="0.3em" style="text-anchor: end; visibility: hidden; font-family: Roboto, sans-serif; font-size: 12px; font-weight: 200;" fill="rgb(33, 33, 33)" stroke="none" stroke-width="1px">0.35</text><text x="0" y="151.70742857142852" dx="0em" dy="0.3em" style="text-anchor: end; visibility: inherit; font-family: Roboto, sans-serif; font-size: 12px; font-weight: 200;" fill="rgb(33, 33, 33)" stroke="none" stroke-width="1px">0.4</text><text x="0" y="126.42285714285713" dx="0em" dy="0.3em" style="text-anchor: end; visibility: inherit; font-family: Roboto, sans-serif; font-size: 12px; font-weight: 200;" fill="rgb(33, 33, 33)" stroke="none" stroke-width="1px">0.45</text><text x="0" y="101.1382857142857" dx="0em" dy="0.3em" style="text-anchor: end; visibility: inherit; font-family: Roboto, sans-serif; font-size: 12px; font-weight: 200;" fill="rgb(33, 33, 33)" stroke="none" stroke-width="1px">0.5</text><text x="0" y="75.85371428571425" dx="0em" dy="0.3em" style="text-anchor: end; visibility: inherit; font-family: Roboto, sans-serif; font-size: 12px; font-weight: 200;" fill="rgb(33, 33, 33)" stroke="none" stroke-width="1px">0.55</text><text x="0" y="50.56914285714285" dx="0em" dy="0.3em" style="text-anchor: end; visibility: inherit; font-family: Roboto, sans-serif; font-size: 12px; font-weight: 200;" fill="rgb(33, 33, 33)" stroke="none" stroke-width="1px">0.6</text><text x="0" y="25.284571428571397" dx="0em" dy="0.3em" style="text-anchor: end; visibility: inherit; font-family: Roboto, sans-serif; font-size: 12px; font-weight: 200;" fill="rgb(33, 33, 33)" stroke="none" stroke-width="1px">0.65</text><text x="0" y="0" dx="0em" dy="0.3em" style="text-anchor: end; visibility: hidden; font-family: Roboto, sans-serif; font-size: 12px; font-weight: 200;" fill="rgb(33, 33, 33)" stroke="none" stroke-width="1px">0.7</text></g><line x1="50" y1="0" x2="50" y2="176.992" fill="rgb(0, 0, 0)" stroke="rgb(204, 204, 204)" stroke-width="1px"></line></g></g><g transform="translate(50, 0)" clip-path="url(#clip_0)"><clipPath id="clip_0"><rect width="279" height="176"></rect></clipPath><g><g><g><line x1="0" y1="0" x2="0" y2="176.992" fill="rgb(0, 0, 0)" stroke="rgb(66, 66, 66)" stroke-width="1px" opacity="0.25"></line><line x1="23.333333333333332" y1="0" x2="23.333333333333332" y2="176.992" fill="rgb(0, 0, 0)" stroke="rgb(66, 66, 66)" stroke-width="1px" opacity="0.25"></line><line x1="46.666666666666664" y1="0" x2="46.666666666666664" y2="176.992" fill="rgb(0, 0, 0)" stroke="rgb(66, 66, 66)" stroke-width="1px" opacity="0.25"></line><line x1="70" y1="0" x2="70" y2="176.992" fill="rgb(0, 0, 0)" stroke="rgb(66, 66, 66)" stroke-width="1px" opacity="0.25"></line><line x1="93.33333333333333" y1="0" x2="93.33333333333333" y2="176.992" fill="rgb(0, 0, 0)" stroke="rgb(66, 66, 66)" stroke-width="1px" opacity="0.25"></line><line x1="116.66666666666667" y1="0" x2="116.66666666666667" y2="176.992" fill="rgb(0, 0, 0)" stroke="rgb(66, 66, 66)" stroke-width="1px" opacity="0.25"></line><line x1="140" y1="0" x2="140" y2="176.992" fill="rgb(0, 0, 0)" stroke="rgb(66, 66, 66)" stroke-width="1px" opacity="0.25"></line><line x1="163.33333333333334" y1="0" x2="163.33333333333334" y2="176.992" fill="rgb(0, 0, 0)" stroke="rgb(66, 66, 66)" stroke-width="1px" opacity="0.25"></line><line x1="186.66666666666666" y1="0" x2="186.66666666666666" y2="176.992" fill="rgb(0, 0, 0)" stroke="rgb(66, 66, 66)" stroke-width="1px" opacity="0.25"></line><line x1="210" y1="0" x2="210" y2="176.992" fill="rgb(0, 0, 0)" stroke="rgb(66, 66, 66)" stroke-width="1px" opacity="0.25"></line><line x1="233.33333333333334" y1="0" x2="233.33333333333334" y2="176.992" fill="rgb(0, 0, 0)" stroke="rgb(66, 66, 66)" stroke-width="1px" opacity="0.25"></line><line x1="256.66666666666663" y1="0" x2="256.66666666666663" y2="176.992" fill="rgb(0, 0, 0)" stroke="rgb(66, 66, 66)" stroke-width="1px" opacity="0.25"></line><line x1="280" y1="0" x2="280" y2="176.992" fill="rgb(0, 0, 0)" stroke="rgb(66, 66, 66)" stroke-width="1px" opacity="0.25"></line></g><g><line x1="0" y1="176.992" x2="280" y2="176.992" fill="rgb(0, 0, 0)" stroke="rgb(66, 66, 66)" stroke-width="1px" opacity="0.25"></line><line x1="0" y1="151.70742857142852" x2="280" y2="151.70742857142852" fill="rgb(0, 0, 0)" stroke="rgb(66, 66, 66)" stroke-width="1px" opacity="0.25"></line><line x1="0" y1="126.42285714285713" x2="280" y2="126.42285714285713" fill="rgb(0, 0, 0)" stroke="rgb(66, 66, 66)" stroke-width="1px" opacity="0.25"></line><line x1="0" y1="101.1382857142857" x2="280" y2="101.1382857142857" fill="rgb(0, 0, 0)" stroke="rgb(66, 66, 66)" stroke-width="1px" opacity="0.25"></line><line x1="0" y1="75.85371428571425" x2="280" y2="75.85371428571425" fill="rgb(0, 0, 0)" stroke="rgb(66, 66, 66)" stroke-width="1px" opacity="0.25"></line><line x1="0" y1="50.56914285714285" x2="280" y2="50.56914285714285" fill="rgb(0, 0, 0)" stroke="rgb(66, 66, 66)" stroke-width="1px" opacity="0.25"></line><line x1="0" y1="25.284571428571397" x2="280" y2="25.284571428571397" fill="rgb(0, 0, 0)" stroke="rgb(66, 66, 66)" stroke-width="1px" opacity="0.25"></line><line x1="0" y1="0" x2="280" y2="0" fill="rgb(0, 0, 0)" stroke="rgb(66, 66, 66)" stroke-width="1px" opacity="0.25"></line></g></g></g><g><g><line x1="0" y1="353.984" x2="280" y2="353.984" fill="rgb(0, 0, 0)" stroke="rgb(153, 153, 153)" stroke-width="1.5px"></line></g></g><g><g><line x1="23.333333333333332" y1="0" x2="23.333333333333332" y2="176.992" fill="rgb(0, 0, 0)" stroke="rgb(153, 153, 153)" stroke-width="1.5px"></line></g></g><g><g><g><g><g><path stroke="rgb(51, 187, 238)" stroke-width="2px" d="M28,179.82508823312403L29.166666666666668,174.0981067242677L30.333333333333336,170.07452270402354L31.5,168.4883233987615L32.666666666666664,169.98974356438274L33.833333333333336,165.09568894977312L35,163.48142415838223L36.16666666666667,160.28588407743771L37.333333333333336,155.30843530636005L38.5,153.71839246476557L39.666666666666664,156.56949774554812L40.833333333333336,152.62026843877715L42,150.0659214623707L43.16666666666667,147.42053611889628L44.33333333333333,146.38998422351648L45.5,141.31977310523794L46.666666666666664,140.7819324199572L47.833333333333336,140.2737419707615L49,139.22686756007127L50.166666666666664,136.18736994338406L51.33333333333333,130.56113139335864L52.5,130.24598354549212L53.66666666666667,129.1294445212889L54.833333333333336,131.79834043424643L56,134.04889016101433L57.166666666666664,133.26608888091428L58.333333333333336,135.6714972814276L59.5,135.44533974010483L60.66666666666667,134.01121315908182L61.83333333333333,131.5740745101053L63,128.34963748837524L64.16666666666666,125.95125346503488L65.33333333333333,122.8428147836521L66.5,119.86481072497803L67.66666666666667,119.84016214751736L68.83333333333333,120.3818404166759L70,119.03744513180081L71.16666666666666,121.47687290671396L72.33333333333334,118.48877819415436L73.5,117.71611665150978L74.66666666666667,115.58311145295572L75.83333333333333,116.34369287410532L77,115.77985247087588L78.16666666666667,109.32038255215238L79.33333333333333,109.71096685712854L80.5,111.98570198014019L81.66666666666667,104.91076214394757L82.83333333333333,105.02480404387619L84,107.50459601929529L85.16666666666666,106.48836482353379L86.33333333333334,106.89881536192883L87.5,108.35077211685088L88.66666666666666,107.64528347078524L89.83333333333334,102.58474173164039L91,103.81468294421416L92.16666666666667,98.43148199509619L93.33333333333333,97.89116498266726L94.5,102.38970844612598L95.66666666666667,97.02003590969909L96.83333333333333,91.94333296724099L98,94.92573130456685L99.16666666666667,91.79968503387354L100.33333333333333,90.85151301007024L101.5,93.992396580369L102.66666666666666,88.17911040349136L103.83333333333334,90.62680719799253L105,85.4177921831754L106.16666666666666,87.85708143609101L107.33333333333334,83.10674373731726L108.5,83.03888422064442L109.66666666666667,82.534446669646L110.83333333333333,79.07845874101051L112,75.52094885867231L113.16666666666667,77.2817329181958L114.33333333333333,81.21328600205099L115.5,80.697135204223L116.66666666666667,79.36724944136404L117.83333333333333,78.47656638147578L119,78.96235182970504L120.16666666666666,79.16108355309294L121.33333333333334,72.60268949560785L122.5,75.62351684590683L123.66666666666666,72.5205400396207L124.83333333333334,70.19502005823111L126,71.58206322861193L127.16666666666667,72.9707505173848L128.33333333333331,70.74338909478492L129.5,68.57226810478528L130.66666666666666,74.22545929557558L131.83333333333334,68.25013736149018L133,66.14886132619584L134.16666666666669,67.76319040978349L135.33333333333334,62.14690637059104L136.5,62.48692273165639L137.66666666666666,59.72309829798166L138.83333333333334,55.65344283063051L140,56.643205641528404L141.16666666666666,59.277453896391656L142.33333333333331,58.53938158771288L143.5,56.612621077348734L144.66666666666669,55.827535009952065L145.83333333333334,55.170992221791536L147,52.18021459402634L148.16666666666666,53.539073415403664L149.33333333333334,55.467323537941944L150.5,55.97506062274771L151.66666666666666,55.815981032636444L152.83333333333331,54.23661615341276L154,57.833500203522284L155.16666666666669,57.48751822426876L156.33333333333334,56.630716047999414L157.5,56.30212588996036L158.66666666666666,56.661433181681325L159.83333333333331,54.18741399967217L161,54.743393058791156L162.16666666666669,53.03658992593803L163.33333333333334,52.10525964839901L164.5,50.15528390226834L165.66666666666666,50.56196718191974L166.83333333333334,47.281669456229125L168,50.97092862817039L169.16666666666666,50.03115873329872L170.33333333333331,47.05592393260618L171.5,48.33136890467742L172.66666666666669,45.20134589899367L173.83333333333334,43.78706599320132L175,41.732811617841115L176.16666666666666,39.48006370846277L177.33333333333331,40.16880553116026L178.5,41.13851201132313L179.66666666666669,41.44210520614865L180.83333333333334,38.56367527055719L182,41.381120286846034L183.16666666666666,42.2368831601796L184.33333333333334,45.53268398677111L185.5,45.19154322112935L186.66666666666666,42.204515659152904L187.83333333333331,39.67034658770017L189,36.480436871949L190.16666666666669,35.5866742700374L191.33333333333334,36.62708543622028L192.5,34.005267192343915L193.66666666666666,33.823341769002205L194.83333333333331,31.95203869656804L196,32.68415627370956L197.16666666666669,32.38146222910433L198.33333333333334,33.86925407522068L199.5,32.721538614566015L200.66666666666666,34.90800404293741L201.83333333333334,37.61106087956753L203,37.748977856388635L204.16666666666666,38.01720713358067L205.33333333333331,38.363635847618376L206.5,35.51091928017748L207.66666666666669,36.58163244230429L208.83333333333334,33.977995395994284L210,33.714239145642786L211.16666666666666,29.47520425878285L212.33333333333331,36.48451112294896L213.5,35.12539697964267L214.66666666666669,33.660715504941706L215.83333333333334,32.59641547239859L217,30.19568763444359L218.16666666666666,29.589955068110296L219.33333333333334,32.472580471896464L220.5,28.73020905453502L221.66666666666666,30.19458504532219L222.83333333333331,33.020849605946054L224,31.47054339873436L225.16666666666669,34.34289806116093L226.33333333333334,29.759660062544093L227.5,29.792060365965334L228.66666666666666,28.698565718306156L229.83333333333331,24.981883077223905L231,27.11088532249574L232.16666666666669,26.069665408062168L233.33333333333334,25.352181857229173L234.5,27.425804136048626L235.66666666666666,24.58920842331445L236.83333333333334,30.30683662145868L238,28.45095802843466L239.16666666666666,24.369596622306325L240.33333333333331,26.001548858655124L241.5,23.085442268161085L242.66666666666669,18.36794406355078L243.83333333333334,22.586048471124315L245,26.87907099072076L246.16666666666666,23.79744669512297L247.33333333333331,27.698649470669643L248.5,23.73272033992478L249.66666666666669,23.115310679906983L250.83333333333334,25.619959588660546L252,25.63883180875575L253.16666666666666,24.537220311100956L254.33333333333334,27.678791799261752L255.5,26.503148839671418" style="fill: none;" fill="none"></path></g><g><path stroke="rgb(204, 51, 17)" stroke-width="2px" d="M30.333333333333336,177.1760300207559L31.5,170.53113094417577L32.666666666666664,166.61634829687623L33.833333333333336,162.79993112923873L35,161.17648645140284L36.16666666666667,159.46262017778912L37.333333333333336,155.37210277534876L38.5,151.90022486955064L39.666666666666664,150.7467261867117L40.833333333333336,147.27183990025273L42,146.39342617777578L43.16666666666667,147.72155490737558L44.33333333333333,145.36482825296864L45.5,143.9508841737228L46.666666666666664,148.29638071551526L47.833333333333336,143.94765626189363L49,141.52395083536115L50.166666666666664,138.30757763303248L51.33333333333333,136.00678614368806L52.5,135.36827526469355L53.66666666666667,133.59399645922676L54.833333333333336,129.37610300368354L56,124.61948605188799L57.166666666666664,126.58825173957582L58.333333333333336,121.83384158567237L59.5,120.0941308152302L60.66666666666667,121.8326537053434L61.83333333333333,114.25049508148618L63,115.72961422432574L64.16666666666666,109.56847023409088L65.33333333333333,111.80745844629429L66.5,113.8000703841878L67.66666666666667,115.08838311625645L68.83333333333333,110.76040035434235L70,109.64752782724364L71.16666666666666,104.89903522956608L72.33333333333334,106.31619990140216L73.5,102.1582738847359L74.66666666666667,98.08686160432669L75.83333333333333,95.1802803387052L77,97.60985226180316L78.16666666666667,96.56348300622828L79.33333333333333,96.77036558934944L80.5,98.10018157111483L81.66666666666667,95.18827231894521L82.83333333333333,96.03799077915212L84,95.71311771883347L85.16666666666666,95.14721158719722L86.33333333333334,96.29158503337369L87.5,96.05076541908936L88.66666666666666,91.82549251386895L89.83333333333334,93.37110990738684L91,94.7622021844922L92.16666666666667,88.64099376596495L93.33333333333333,88.49256435170712L94.5,89.23821083959221L95.66666666666667,87.18149837962724L96.83333333333333,89.56451814267938L98,83.57473231810272L99.16666666666667,77.94048231165542L100.33333333333333,81.7940267858493L101.5,82.71498794738145L102.66666666666666,82.06187821241605L103.83333333333334,82.78294720114866L105,76.07423366187571L106.16666666666666,77.14996990249999L107.33333333333334,74.54934670328846L108.5,70.1138780789974L109.66666666666667,73.11003471177835L110.83333333333333,70.45597731597603L112,71.73863758325888L113.16666666666667,73.43567742561798L114.33333333333333,70.37313225100766L115.5,72.15265238527257L116.66666666666667,73.59134676127651L117.83333333333333,73.43436810271665L119,69.07390862320919L120.16666666666666,70.44566246998087L121.33333333333334,70.99048408477174L122.5,71.22463750809658L123.66666666666666,68.49003485732725L124.83333333333334,68.05495969875041L126,66.58822817171955L127.16666666666667,59.958011902595736L128.33333333333331,61.73005949402676L129.5,64.83367861720987L130.66666666666666,66.97408078439189L131.83333333333334,63.713819107057404L133,61.5721709529342L134.16666666666669,59.17424723074836L135.33333333333334,59.21941012259385L136.5,60.359454744036206L137.66666666666666,60.57974761928375L138.83333333333334,59.784479662442855L140,56.617715331296644L141.16666666666666,57.59275143737313L142.33333333333331,56.32287368041707L143.5,59.085254719724865L144.66666666666669,55.17798508150359L145.83333333333334,54.22480087817812L147,53.37465966291063L148.16666666666666,53.05005402484944L149.33333333333334,48.77452156198698L150.5,47.971349902698584L151.66666666666666,47.67493805484803L152.83333333333331,50.279434048729094L154,55.366439338539216L155.16666666666669,56.65649469399615L156.33333333333334,54.740924350228596L157.5,51.36570042792105L158.66666666666666,49.80429997215443L159.83333333333331,49.70216383513419L161,46.95127859588032L162.16666666666669,48.454072850364376L163.33333333333334,49.72673169849985L164.5,46.40954587073217L165.66666666666666,49.70568988598209L166.83333333333334,49.27201548798571L168,46.78592913314086L169.16666666666666,47.24192834300881L170.33333333333331,48.9994449940865L171.5,47.920812814235795L172.66666666666669,48.572071540382986L173.83333333333334,43.86185035526001L175,40.94297809863664L176.16666666666666,40.861063017542016L177.33333333333331,42.66681338948726L178.5,41.153399601162356L179.66666666666669,42.100250748769355L180.83333333333334,41.740917755344206L182,43.93667876643541L183.16666666666666,46.7380524982471L184.33333333333334,45.35830294147055L185.5,40.542423672928486L186.66666666666666,40.0642569189496L187.83333333333331,39.128143877845055L189,40.32863592823463L190.16666666666669,38.081084851531344L191.33333333333334,34.32119339836298L192.5,35.21858392449839L193.66666666666666,39.65229617248291L194.83333333333331,38.69547628224254L196,37.00844951838644L197.16666666666669,36.64544644878991L198.33333333333334,38.28254402763404L199.5,33.32913407431269L200.66666666666666,28.502188681717872L201.83333333333334,34.60227579927556L203,36.592919796930694L204.16666666666666,39.17847171850788L205.33333333333331,38.04019931441247L206.5,35.13136621253136L207.66666666666669,36.26116105616694L208.83333333333334,34.4349255530291L210,32.87545035352854L211.16666666666666,34.9076115407653L212.33333333333331,30.098488150306693L213.5,31.850256639224934L214.66666666666669,32.80856613040297L215.83333333333334,33.29081227956016L217,33.58015996905449L218.16666666666666,30.507703639164998L219.33333333333334,30.704608352932556L220.5,27.205703942162017L221.66666666666666,27.981456000463915L222.83333333333331,29.65259366732978L224,25.925282142083077L225.16666666666669,26.56398993169932L226.33333333333334,25.185054730416738L227.5,28.06749245085119L228.66666666666666,33.32126277659327L229.83333333333331,27.84825291436901L231,31.242068031929154L232.16666666666669,31.330718136313614L233.33333333333334,34.90821589242573L234.5,33.43766730706185L235.66666666666666,30.051225746524324L236.83333333333334,34.51150275399714L238,32.92139667410935L239.16666666666666,32.24557577607202L240.33333333333331,28.872248986935766L241.5,27.219223152275834L242.66666666666669,25.949176958207726L243.83333333333334,28.61870533307549L245,26.13965327797033L246.16666666666666,31.329855136425063L247.33333333333331,31.661633148906482L248.5,29.63481824034837L249.66666666666669,26.84206056788373L250.83333333333334,24.053471134693L252,26.646577702526898L253.16666666666666,26.625784972520595L254.33333333333334,22.996262095485694L255.5,20.54030561936936" style="fill: none;" fill="none"></path></g><g><path stroke="rgb(0, 119, 187)" stroke-width="2px" d="M31.5,177.24586229915747L32.666666666666664,170.43046444386357L33.833333333333336,165.91890167423932L35,164.8118902012959L36.16666666666667,164.52205090093898L37.333333333333336,164.06995104241864L38.5,158.41564956924142L39.666666666666664,156.88167780153003L40.833333333333336,145.38585584153984L42,142.85018838939516L43.16666666666667,144.11168834237458L44.33333333333333,141.3439838500312L45.5,137.27201409427036L46.666666666666664,131.39729615377374L47.833333333333336,131.4896427173855L49,129.3191566113512L50.166666666666664,124.21431951329687L51.33333333333333,118.64731320665065L52.5,117.0692764047205L53.66666666666667,117.60637469027667L54.833333333333336,114.77530597531612L56,113.63313347889778L57.166666666666664,115.3591976189334L58.333333333333336,110.83014288711912L59.5,111.26603608151177L60.66666666666667,103.55151855443201L61.83333333333333,103.46729932517508L63,108.3322471184429L64.16666666666666,104.48083700566754L65.33333333333333,108.19841110353481L66.5,109.03778399106947L67.66666666666667,104.53318892011086L68.83333333333333,108.32256780812071L70,103.54758577338015L71.16666666666666,106.80375620628278L72.33333333333334,101.24512123489488L73.5,103.75286920917968L74.66666666666667,105.81399143669793L75.83333333333333,107.23614989249423L77,101.22632675472963L78.16666666666667,99.56807183841015L79.33333333333333,101.54095916730779L80.5,97.99470346753648L81.66666666666667,93.73381993380757L82.83333333333333,92.56845533657159L84,91.22002358951387L85.16666666666666,88.18509488185457L86.33333333333334,89.8884332941215L87.5,87.20064955689877L88.66666666666666,86.97914483755018L89.83333333333334,87.03173315366358L91,90.86582453008555L92.16666666666667,89.08551027591261L93.33333333333333,87.18261758696912L94.5,86.69009496232025L95.66666666666667,83.61223828493951L96.83333333333333,84.36237623338005L98,82.67932888857013L99.16666666666667,81.8549916294067L100.33333333333333,81.63861996718087L101.5,80.85958398112811L102.66666666666666,78.63001457106733L103.83333333333334,78.86892959573746L105,73.16934965546146L106.16666666666666,74.20136512338982L107.33333333333334,74.07860981325685L108.5,68.99673180853868L109.66666666666667,72.0687646540581L110.83333333333333,70.01670642906639L112,71.01134115349521L113.16666666666667,72.16459543132007L114.33333333333333,63.86029364490042L115.5,63.42221555069235L116.66666666666667,65.19975926249202L117.83333333333333,63.20569963708508L119,61.267299270950836L120.16666666666666,60.10425905127029L121.33333333333334,58.84997353291758L122.5,54.758585676147035L123.66666666666666,52.39649250763436L124.83333333333334,49.30982833364731L126,50.796646375014035L127.16666666666667,48.44267225624797L128.33333333333331,50.740074569569074L129.5,49.89264629813797L130.66666666666666,49.19869818755676L131.83333333333334,51.75016357152189L133,52.35359911991156L134.16666666666669,53.828595278657325L135.33333333333334,49.61262860971669L136.5,46.43383561963509L137.66666666666666,43.59910408697358L138.83333333333334,41.34180378083231L140,42.67701509756607L141.16666666666666,43.57089348977918L142.33333333333331,40.86114352489776L143.5,46.46940008065431L144.66666666666669,47.052010911516874L145.83333333333334,43.87726971655294L147,42.89986868156398L148.16666666666666,41.2932327764084L149.33333333333334,43.01885479035674L150.5,44.33245869199794L151.66666666666666,41.503573793951546L152.83333333333331,48.431514912793226L154,43.77751637870621L155.16666666666669,40.24316472398708L156.33333333333334,40.07019269730726L157.5,43.11973487933579L158.66666666666666,40.683199960804586L159.83333333333331,39.314018555235556L161,40.44016073466898L162.16666666666669,43.34171570175278L163.33333333333334,41.00187960197733L164.5,42.287569442530554L165.66666666666666,40.554882994166476L166.83333333333334,40.72094550040963L168,37.48176645839657L169.16666666666666,35.63101063536157L170.33333333333331,33.59310140292805L171.5,34.50349803396522L172.66666666666669,33.93678912625249L173.83333333333334,34.89518975905921L175,33.52259117259164L176.16666666666666,29.638458224847533L177.33333333333331,31.666978229499062L178.5,29.174303447709168L179.66666666666669,27.864189726357775L180.83333333333334,30.324186437133026L182,28.92508975883392L183.16666666666666,29.291318183739232L184.33333333333334,30.53125052284467L185.5,30.44050578986819L186.66666666666666,27.047242404323416L187.83333333333331,24.176580236556752L189,26.44221247037292L190.16666666666669,30.86217766314938L191.33333333333334,30.175340233056307L192.5,30.041468468272686L193.66666666666666,30.053897011575327L194.83333333333331,26.44429484190265L196,27.246367790412908L197.16666666666669,26.521937184257514L198.33333333333334,21.821006536192744L199.5,20.298886181411522L200.66666666666666,21.796974775689172L201.83333333333334,21.211910807098732L203,25.683606096860377L204.16666666666666,26.697214997837893L205.33333333333331,25.91420275881716L206.5,22.383821619541123L207.66666666666669,20.914805924692704L208.83333333333334,23.09397030364725L210,22.639321112590864L211.16666666666666,23.20123573439678L212.33333333333331,21.96172783677362L213.5,21.12527149602687L214.66666666666669,22.849279407625904L215.83333333333334,24.90387943874752L217,20.200958900169585L218.16666666666666,19.41959714534726L219.33333333333334,19.87822377444328L220.5,21.822808024780368L221.66666666666666,21.13467121100382L222.83333333333331,18.124925111245837L224,25.87180524767311L225.16666666666669,19.01956656709576L226.33333333333334,18.710761745502953L227.5,18.989200693541967L228.66666666666666,17.57960739165881L229.83333333333331,14.878951989926884L231,15.762671158206954L232.16666666666669,16.663884954620073L233.33333333333334,16.369909096028188L234.5,16.19352358087308L235.66666666666666,13.49082826028792L236.83333333333334,8.344903374455383L238,13.140667966358457L239.16666666666666,14.719700744065882L240.33333333333331,15.481629262967811L241.5,13.156443271717599L242.66666666666669,15.007396620553541L243.83333333333334,13.521116674986233L245,13.000318946467702L246.16666666666666,16.861360991555312L247.33333333333331,17.694069093450853L248.5,15.31861130644719L249.66666666666669,15.933715145946291L250.83333333333334,17.601215483703367L252,19.714650516069508L253.16666666666666,18.38584752399716L254.33333333333334,13.044074807733239L255.5,14.290762553445735" style="fill: none;" fill="none"></path></g><g><path stroke="rgb(255, 112, 67)" stroke-width="2px" d="M23.333333333333332,175.9138394857134L24.5,175.3341890683174L25.666666666666664,175.393333225506L26.833333333333336,179.1488276283761L29.166666666666668,178.5141937491893L30.333333333333336,170.3833214459626L31.5,166.03027220655457L32.666666666666664,160.5613544069366L33.833333333333336,158.9017454967722L35,157.91242594892492L36.16666666666667,149.88535860992073L37.333333333333336,142.10860014832747L38.5,142.83247039828422L39.666666666666664,136.77123344698992L40.833333333333336,135.91945001225014L42,131.6053456000477L43.16666666666667,129.38837032602052L44.33333333333333,128.4293341731599L45.5,125.99898264314102L46.666666666666664,126.11752588212772L47.833333333333336,123.12803005261388L49,121.79808324116186L50.166666666666664,123.13326209774331L51.33333333333333,122.17221253438484L52.5,119.36969903203843L53.66666666666667,120.6560373063868L54.833333333333336,120.59313477937323L56,119.813434451929L57.166666666666664,119.90208197720172L58.333333333333336,116.80194466351563L59.5,114.10715833561103L60.66666666666667,113.51048200900694L61.83333333333333,112.22502649440618L63,108.85689518139453L64.16666666666666,106.18680343523037L65.33333333333333,108.38728681544403L66.5,107.01797929613954L67.66666666666667,106.28913433356728L68.83333333333333,103.34772097270812L70,102.13933434569978L71.16666666666666,100.1158763920557L72.33333333333334,101.68415075219887L73.5,101.60492008365594L74.66666666666667,98.77503255134681L75.83333333333333,96.79886933886011L77,97.65356197984775L78.16666666666667,93.43638343894742L79.33333333333333,90.90607631446781L80.5,92.81946018776142L81.66666666666667,91.46337810239638L82.83333333333333,90.00051586246248L84,92.18337231437374L85.16666666666666,95.62621629939447L86.33333333333334,88.51018924618494L87.5,87.95035979884426L88.66666666666666,91.60249166491708L89.83333333333334,91.9388713639579L91,89.72933837623586L92.16666666666667,89.23832272004259L93.33333333333333,93.20997355407505L94.5,88.08062682653673L95.66666666666667,90.75320819954236L96.83333333333333,80.94912980646146L98,91.57527435168522L99.16666666666667,90.06765361203999L100.33333333333333,85.824264622494L101.5,87.26626076324249L102.66666666666666,83.5869554700479L103.83333333333334,82.39956757829334L105,80.38870886580621L106.16666666666666,77.51278536543442L107.33333333333334,76.62193540165113L108.5,74.32526554832884L109.66666666666667,81.2943050007328L110.83333333333333,77.31417845550034L112,76.87374149451253L113.16666666666667,75.49654448820796L114.33333333333333,74.02101329570795L115.5,72.57922113704039L116.66666666666667,69.3027850346935L117.83333333333333,68.4498582029973L119,64.87752830811603L120.16666666666666,63.47608290545416L121.33333333333334,63.098937504851726L122.5,57.493455207030046L123.66666666666666,60.90053846540452L124.83333333333334,60.347936465560366L126,63.633422504684994L127.16666666666667,66.53215781014916L128.33333333333331,61.96474819735484L129.5,63.67605380514908L130.66666666666666,62.84794980584685L131.83333333333334,60.40343638349065L133,60.420645455233874L134.16666666666669,57.55588825013877L135.33333333333334,58.71211657522278L136.5,58.107427592838704L137.66666666666666,58.022856953303624L138.83333333333334,56.395445842252826L140,52.91488676630318L141.16666666666666,51.19753361617837L142.33333333333331,51.09456540809292L143.5,50.38357149452439L144.66666666666669,47.36012319151442L145.83333333333334,45.4533026075356L147,49.96664806450391L148.16666666666666,49.79957269054384L149.33333333333334,48.95736287527777L150.5,45.85518503124924L151.66666666666666,49.83680727991024L152.83333333333331,47.68127765146317L154,48.335598840546574L155.16666666666669,51.881516952033024L156.33333333333334,48.44438161374212L157.5,48.79346121791391L158.66666666666666,43.530962320783935L159.83333333333331,43.897770675987424L161,47.456672234868414L162.16666666666669,51.1686698409036L163.33333333333334,50.14980346093862L164.5,47.31260191691265L165.66666666666666,44.868328456230174L166.83333333333334,44.5146992095326L168,42.169391547639904L169.16666666666666,43.451810507545986L170.33333333333331,46.63262269063596L171.5,42.419950352139644L172.66666666666669,43.231163494800796L173.83333333333334,40.379074834638566L175,41.45016474113256L176.16666666666666,40.79439270759455L177.33333333333331,40.4936810896446L178.5,47.45460905138718L179.66666666666669,46.34469825989899L180.83333333333334,43.91660396657692L182,43.108960379300946L183.16666666666666,42.717125829108184L184.33333333333334,38.401243962343536L185.5,43.78777391123702L186.66666666666666,45.35028360769365L187.83333333333331,42.207020345541835L189,38.18793227437653L190.16666666666669,41.15567448913764L191.33333333333334,39.69025487440824L192.5,39.27472494656523L193.66666666666666,35.964821137372695L194.83333333333331,37.50318654533867L196,35.087389244359336L197.16666666666669,36.88398786398091L198.33333333333334,33.51018360365984L199.5,36.49412586610563L200.66666666666666,33.74000030255259L201.83333333333334,32.55124680541549L203,32.116225400405376L204.16666666666666,34.73030726216355L205.33333333333331,37.22620006120785L206.5,34.73570620615831L207.66666666666669,35.93101345017028L208.83333333333334,33.68036354626354L210,30.10409188787252L211.16666666666666,30.64793244987959L212.33333333333331,30.788745639361338L213.5,33.65558871226496L214.66666666666669,32.40784824907008L215.83333333333334,30.5462691414412L217,28.409126392701655L218.16666666666666,29.167231311782388L219.33333333333334,30.178567706398344L220.5,27.261061849686495L221.66666666666666,30.147800858852772L222.83333333333331,30.58141828691811L224,28.151985186715642L225.16666666666669,29.10568613374047L226.33333333333334,31.718297270279827L227.5,29.019603724455177L228.66666666666666,31.481156676986178L229.83333333333331,30.732218789080928L231,32.415986170211916L232.16666666666669,30.18016959868129L233.33333333333334,29.209661951207906L234.5,27.514422533011963L235.66666666666666,31.969225541727457L236.83333333333334,29.541142982768747L238,30.866636549984957L239.16666666666666,29.343311428717946L240.33333333333331,24.16304407158623L241.5,22.538812839087313L242.66666666666669,24.346617202179353L243.83333333333334,21.257779137835897L245,23.856227674700687L246.16666666666666,26.064509785536792L247.33333333333331,25.905561926881486L248.5,27.20137079129557L249.66666666666669,24.45454841646263L250.83333333333334,26.794484526038964L252,25.8798249301881L253.16666666666666,28.669845718436513L254.33333333333334,28.767189464055765L255.5,25.39403962011867" style="fill: none;" fill="none"></path></g></g></g></g><g opacity="0.2"><g><g><g><path stroke="rgb(51, 187, 238)" stroke-width="2px" d="M26.833333333333336,182.86971231297082L28,172.20404667282102L29.166666666666668,166.17562958417616L30.333333333333336,164.32073317772998L31.5,166.17562958417616L32.666666666666664,172.20404667282102L33.833333333333336,157.82858821977885L35,161.07466823414393L36.16666666666667,155.50996394402637L37.333333333333336,147.8585143835885L38.5,151.33644326182772L39.666666666666664,160.84280429949078L40.833333333333336,146.69920978110176L42,146.23548191179546L43.16666666666667,143.45312976673668L44.33333333333333,144.84431337465557L45.5,133.71491986519948L46.666666666666664,139.97520088849745L47.833333333333336,139.51147301919116L49,137.656576612745L50.166666666666664,131.62815952410014L51.33333333333333,122.12181355721607L52.5,129.77326311765395L53.66666666666667,127.45463884190148L54.833333333333336,135.8016802062988L56,137.42471267809185L57.166666666666664,132.09188739340644L58.333333333333336,139.27960908453804L59.5,135.10610347311834L60.66666666666667,131.8600234587533L61.83333333333333,127.91836671120777L63,123.51298209435596L64.16666666666666,122.3536774918692L65.33333333333333,118.18015680967056L66.5,115.3978046646118L67.66666666666667,119.8031892814636L68.83333333333333,121.19435781860349L70,117.02085220718381L71.16666666666666,125.136014566149L72.33333333333334,114.0066361274719L73.5,116.55712433787751L74.66666666666667,112.38360365567887L75.83333333333333,117.48456500571112L77,114.93409186608447L78.16666666666667,99.63117767442975L79.33333333333333,110.29684331457953L80.5,115.3978046646118L81.66666666666667,94.29835238974432L82.83333333333333,105.19586689376828L84,111.22428398241314L85.16666666666666,104.96401802989412L86.33333333333334,107.51449116952075L87.5,110.52870724923267L88.66666666666666,106.58705050168717L89.83333333333334,94.99392912292478L91,105.65959476307458L92.16666666666667,90.35668057141983L93.33333333333333,97.08068946402412L94.5,109.13752364131379L95.66666666666667,88.96552710505891L96.83333333333333,84.32827855355396L98,99.39932881055557L99.16666666666667,87.11061562783375L100.33333333333333,89.42925497436521L101.5,98.70372193581714L102.66666666666666,79.45918113817484L103.83333333333334,94.29835238974432L105,77.60426966094968L106.16666666666666,91.51601531546454L107.33333333333334,75.98123718915664L108.5,82.9370949456351L109.66666666666667,81.77779034314835L110.83333333333333,73.89447684805732L112,70.18468403516495L113.16666666666667,79.92290900748114L114.33333333333333,87.11061562783375L115.5,79.92290900748114L116.66666666666667,77.37242079707553L117.83333333333333,77.1405417916434L119,79.69103000204902L120.16666666666666,79.45918113817484L121.33333333333334,62.7650984093802L122.5,80.15475787135532L123.66666666666666,67.86607483019145L124.83333333333334,66.70674008614674L126,73.66262798418315L127.16666666666667,75.05378145054407L128.33333333333331,67.40234696088517L129.5,65.31558661978583L130.66666666666666,82.70524608176093L131.83333333333334,59.287154460362004L133,62.99694727325437L134.16666666666669,70.18468403516495L135.33333333333334,53.722480311802435L136.5,62.99694727325437L137.66666666666666,55.57736164746964L138.83333333333334,49.54895962960377L140,58.127849857875255L141.16666666666666,63.2288262786865L142.33333333333331,57.4322731246948L143.5,53.722480311802435L144.66666666666669,54.64990590885706L145.83333333333334,54.18617803955076L147,47.694048152378606L148.16666666666666,55.57736164746964L149.33333333333334,58.359698721749425L150.5,56.73666624995637L151.66666666666666,55.57736164746964L152.83333333333331,51.86756883457728L154,63.2288262786865L155.16666666666669,56.9685452553885L156.33333333333334,55.34551278359547L157.5,55.80924065290177L158.66666666666666,57.200394119262675L159.83333333333331,50.476385226658394L161,55.57736164746964L162.16666666666669,50.476385226658394L163.33333333333334,50.70826423209052L164.5,47.23032028307231L165.66666666666666,51.1719921013968L166.83333333333334,42.361222867693186L168,56.50481738608222L169.16666666666666,48.621503890991185L170.33333333333331,42.59307173156736L171.5,50.244536362784224L172.66666666666669,40.50631139046803L173.83333333333334,41.665646134512734L175,38.65143005480083L176.16666666666666,36.10094184439521L177.33333333333331,41.20191826520646L178.5,42.59307173156736L179.66666666666669,41.89749499838691L180.83333333333334,34.24603036717005L182,45.60728781127928L183.16666666666666,43.52052747017994L184.33333333333334,50.476385226658394L185.5,44.67983207266669L186.66666666666666,37.72397431618824L187.83333333333331,35.86909298052104L189,31.695572298322393L190.16666666666669,34.24603036717005L191.33333333333334,38.187702185494544L192.5,30.07253982652934L193.66666666666666,33.55045363398958L194.83333333333331,29.145084087916757L196,33.7823326394217L197.16666666666669,31.927421162196545L198.33333333333334,36.10094184439521L199.5,30.999965423583962L200.66666666666666,38.187702185494544L201.83333333333334,41.665646134512734L203,37.955853321620374L204.16666666666666,38.41955104936869L205.33333333333331,38.883278918674996L206.5,31.231844429016093L207.66666666666669,38.187702185494544L208.83333333333334,30.07253982652934L210,33.31860477011543L211.16666666666666,23.11665192849293L212.33333333333331,46.998471419198154L213.5,33.086725764683294L214.66666666666669,31.463693292890262L215.83333333333334,30.999965423583962L217,26.594595877511146L218.16666666666666,28.68135621861048L219.33333333333334,36.79651857757566L220.5,23.11665192849293L221.66666666666666,32.39114903150284L222.83333333333331,37.260246446881965L224,29.145084087916757L225.16666666666669,38.65143005480083L226.33333333333334,22.88480306461878L227.5,29.84066082109721L228.66666666666666,27.058323746817425L229.83333333333331,19.406859115600565L231,30.30438869040351L232.16666666666669,24.50783553641181L233.33333333333334,24.275956530979684L234.5,30.536237554277662L235.66666666666666,20.334314854213147L236.83333333333334,38.883278918674996L238,25.667140138898564L239.16666666666666,18.247554513113812L240.33333333333331,28.449477213178348L241.5,18.711282382420112L242.66666666666669,11.291696756635362L243.83333333333334,28.91320508248463L245,33.31860477011543L246.16666666666666,19.175010251726395L247.33333333333331,33.55045363398958L248.5,17.783826643807533L249.66666666666669,22.18919618988035L250.83333333333334,29.37693295179093L252,25.667140138898564L253.16666666666666,22.88480306461878L254.33333333333334,32.39114903150284L255.5,24.739684400285963" style="fill: none;" fill="none"></path></g><g><path stroke="rgb(204, 51, 17)" stroke-width="2px" d="M29.166666666666668,178.23246376146588L30.333333333333336,171.97218273816787L31.5,160.84280429949078L32.666666666666664,160.84280429949078L33.833333333333336,157.13299641581943L35,158.75604395839144L36.16666666666667,156.90114755194526L37.333333333333336,149.2496829207284L38.5,146.69920978110176L39.666666666666664,149.0178340568542L40.833333333333336,142.0619612295968L42,145.07617730930872L43.16666666666667,149.7134107900347L44.33333333333333,141.83009729494367L45.5,141.83009729494367L46.666666666666664,154.81438721084592L47.833333333333336,137.42471267809185L49,137.88844054739815L50.166666666666664,133.48305593054633L51.33333333333333,132.5556152627127L52.5,134.41051166915892L53.66666666666667,130.9325827909197L54.833333333333336,123.04926929582867L56,117.48456500571112L57.166666666666664,129.5413991830008L58.333333333333336,114.70222793143134L59.5,117.48456500571112L60.66666666666667,124.44043783296857L61.83333333333333,102.8772576887948L63,117.9482928750174L64.16666666666666,100.32675440761018L65.33333333333333,115.16594072995865L66.5,116.78898827253067L67.66666666666667,117.02085220718381L68.83333333333333,104.26842622593469L70,107.97821903882706L71.16666666666666,97.77629633876252L72.33333333333334,108.44194690813336L73.5,95.92138486153736L74.66666666666667,91.97974318477083L75.83333333333333,90.82040844072613L77,101.25421014622277L78.16666666666667,94.99392912292478L79.33333333333333,97.08068946402412L80.5,100.09490554373603L81.66666666666667,90.82040844072613L82.83333333333333,97.31256846945624L84,95.2258081283569L85.16666666666666,94.29835238974432L86.33333333333334,98.0081452026367L87.5,95.68953599766321L88.66666666666666,85.48758315604071L89.83333333333334,95.68953599766321L91,96.84884060014996L92.16666666666667,79.45918113817484L93.33333333333333,88.2699202303205L94.5,90.35668057141983L95.66666666666667,84.09642968967981L96.83333333333333,93.13904778725758L98,74.59005358123777L99.16666666666667,69.4891073019845L100.33333333333333,87.57434349714005L101.5,84.09642968967981L102.66666666666666,81.0822136099679L103.83333333333334,83.86455068424769L105,66.01116335296628L106.16666666666666,78.76357426343644L107.33333333333334,70.64841190447123L108.5,63.460675142560675L109.66666666666667,77.60426966094968L110.83333333333333,66.47489122227259L112,73.66262798418315L113.16666666666667,75.98123718915664L114.33333333333333,65.77931448909212L115.5,74.8219325866699L116.66666666666667,75.74938832528248L117.83333333333333,73.19890011487686L119,62.533219403948074L120.16666666666666,72.50329324013843L121.33333333333334,71.80771650695799L122.5,71.57586764308384L123.66666666666666,64.38813088117325L124.83333333333334,67.40234696088517L126,64.38813088117325L127.16666666666667,50.01268749891007L128.33333333333331,64.38813088117325L129.5,69.4891073019845L130.66666666666666,70.18468403516495L131.83333333333334,58.82342659105571L133,58.359698721749425L134.16666666666669,55.57736164746964L135.33333333333334,59.287154460362004L136.5,62.06952167619975L137.66666666666666,60.910186932155035L138.83333333333334,58.59157772718155L140,51.86756883457728L141.16666666666666,59.055305596487834L142.33333333333331,54.41805704498289L143.5,63.2288262786865L144.66666666666669,49.31708062417164L145.83333333333334,52.795024573189856L147,52.099447840009404L148.16666666666666,52.56314556775773L149.33333333333334,42.361222867693186L150.5,46.76659241376603L151.66666666666666,47.23032028307231L152.83333333333331,54.18617803955076L154,62.99694727325437L155.16666666666669,58.59157772718155L156.33333333333334,51.86756883457728L157.5,46.30286454445973L158.66666666666666,47.462199288504436L159.83333333333331,49.54895962960377L161,42.82495073699949L162.16666666666669,50.70826423209052L163.33333333333334,51.6357199707031L164.5,41.43376712908061L165.66666666666666,54.64990590885706L166.83333333333334,48.621503890991185L168,43.05679960087366L169.16666666666666,47.92592715781074L170.33333333333331,51.6357199707031L171.5,46.30286454445973L172.66666666666669,49.54895962960377L173.83333333333334,36.79651857757566L175,36.56466971370149L176.16666666666666,40.738190395900155L177.33333333333331,45.3754389474051L178.5,38.883278918674996L179.66666666666669,43.52052747017994L180.83333333333334,41.20191826520646L182,47.23032028307231L183.16666666666666,50.940113095964676L184.33333333333334,43.28867860630579L185.5,33.31860477011543L186.66666666666666,39.34700678798128L187.83333333333331,37.72397431618824L189,42.12937400381904L190.16666666666669,34.709758236476326L191.33333333333334,28.68135621861048L192.5,36.56466971370149L193.66666666666666,46.30286454445973L194.83333333333331,37.260246446881965L196,34.47790937260218L197.16666666666669,36.10094184439521L198.33333333333334,40.738190395900155L199.5,25.899019144330694L200.66666666666666,21.261770592825727L201.83333333333334,43.75240647561207L203,39.578885793413406L204.16666666666666,43.05679960087366L205.33333333333331,36.332790708269364L206.5,30.768116559709792L207.66666666666669,37.955853321620374L208.83333333333334,31.695572298322393L210,30.536237554277662L211.16666666666666,37.955853321620374L212.33333333333331,22.88480306461878L213.5,34.47790937260218L214.66666666666669,34.24603036717005L215.83333333333334,34.01418150329588L217,34.01418150329588L218.16666666666666,25.899019144330694L219.33333333333334,30.999965423583962L220.5,21.95734732600618L221.66666666666666,29.145084087916757L222.83333333333331,32.15930016762867L224,20.334314854213147L225.16666666666669,27.522051616123726L226.33333333333334,23.11665192849293L227.5,32.39114903150284L228.66666666666666,41.20191826520646L229.83333333333331,19.638738121032695L231,36.332790708269364L232.16666666666669,31.463693292890262L233.33333333333334,40.27446252659388L234.5,31.231844429016093L235.66666666666666,24.971563405718094L236.83333333333334,41.20191826520646L238,30.536237554277662L239.16666666666666,31.231844429016093L240.33333333333331,23.81225880323136L241.5,24.739684400285963L242.66666666666669,24.04410766710551L243.83333333333334,32.622997895377L245,22.42107519531248L246.16666666666666,39.11515792410712L247.33333333333331,32.15930016762867L248.5,26.594595877511146L249.66666666666669,22.65292405918665L250.83333333333334,19.870586984906847L252,30.536237554277662L253.16666666666666,26.594595877511146L254.33333333333334,17.55197777993336L255.5,16.856370905194932" style="fill: none;" fill="none"></path></g><g><path stroke="rgb(0, 119, 187)" stroke-width="2px" d="M24.5,184.2608808501107L25.666666666666664,173.5952152099609L26.833333333333336,185.6520493872506L28,177.0731591589791L29.166666666666668,176.3775673550197L30.333333333333336,176.6094312896728L31.5,176.6094312896728L32.666666666666664,160.37907643018448L33.833333333333336,159.21975675691877L35,163.16141350446426L36.16666666666667,164.08886924307686L37.333333333333336,163.3932774391174L38.5,149.94527472468783L39.666666666666664,154.58252327619277L40.833333333333336,128.15023064586092L42,139.04776022066386L43.16666666666667,146.0036179771423L44.33333333333333,137.1928487434387L45.5,131.16443165479384L46.666666666666664,122.58554142652237L47.833333333333336,131.62815952410014L49,126.0634703047616L50.166666666666664,116.55712433787751L51.33333333333333,110.29684331457953L52.5,114.70222793143134L53.66666666666667,118.4120207443237L54.833333333333336,110.52870724923267L56,111.91987578637257L57.166666666666664,117.9482928750174L58.333333333333336,104.03656229128156L59.5,111.91987578637257L60.66666666666667,91.97974318477083L61.83333333333333,103.3409704873221L63,115.62966859926495L64.16666666666666,98.70372193581714L65.33333333333333,113.77477219281876L66.5,110.29684331457953L67.66666666666667,97.77629633876252L68.83333333333333,114.0066361274719L70,96.38511273084366L71.16666666666666,111.68801185171942L72.33333333333334,92.90716878182545L73.5,107.51449116952075L74.66666666666667,108.90567477743964L75.83333333333333,109.36938757596695L77,92.21159204864499L78.16666666666667,97.08068946402412L79.33333333333333,104.50029016058784L80.5,92.6753199179513L81.66666666666667,87.34249463326587L82.83333333333333,90.82040844072613L84,89.19737596893309L85.16666666666666,83.63270182037351L86.33333333333334,92.44344091251916L87.5,83.16897395106723L88.66666666666666,86.64688775852747L89.83333333333334,87.11061562783375L91,96.61696159471784L92.16666666666667,86.41503889465329L93.33333333333333,84.32827855355396L94.5,85.95131102534701L95.66666666666667,78.99545326886856L96.83333333333333,85.48758315604071L98,80.15475787135532L99.16666666666667,80.6184857406616L100.33333333333333,81.31406247384204L101.5,79.69103000204902L102.66666666666666,75.2856604559762L103.83333333333334,79.22730213274272L105,64.6199797450474L106.16666666666666,75.74938832528248L107.33333333333334,73.89447684805732L108.5,61.37391480146134L109.66666666666667,76.6768139223371L110.83333333333333,66.93861909157887L112,72.50329324013843L113.16666666666667,73.89447684805732L114.33333333333333,51.40384096527097L115.5,62.7650984093802L116.66666666666667,67.86607483019145L117.83333333333333,60.21461019897458L119,58.359698721749425L120.16666666666666,58.359698721749425L121.33333333333334,56.9685452553885L122.5,48.621503890991185L123.66666666666666,48.85335275486536L124.83333333333334,44.67983207266669L126,53.026873437064005L127.16666666666667,44.911711078098826L128.33333333333331,54.18617803955076L129.5,48.621503890991185L130.66666666666666,48.15777602168489L131.83333333333334,55.57736164746964L133,53.25875244249614L134.16666666666669,56.04108951677592L135.33333333333334,43.28867860630579L136.5,41.665646134512734L137.66666666666666,39.34700678798128L138.83333333333334,37.955853321620374L140,44.67983207266669L141.16666666666666,44.911711078098826L142.33333333333331,36.79651857757566L143.5,54.881784914289184L144.66666666666669,47.92592715781074L145.83333333333334,39.11515792410712L147,41.43376712908061L148.16666666666666,38.883278918674996L149.33333333333334,45.60728781127928L150.5,46.30286454445973L151.66666666666666,37.260246446881965L152.83333333333331,58.82342659105571L154,36.79651857757566L155.16666666666669,34.94163724190846L156.33333333333334,39.810734657287576L157.5,47.694048152378606L158.66666666666666,37.02839758300779L159.83333333333331,37.260246446881965L161,42.12937400381904L162.16666666666669,47.694048152378606L163.33333333333334,37.49212545231409L164.5,44.216104203360395L165.66666666666666,37.955853321620374L166.83333333333334,40.970039259774325L168,32.622997895377L169.16666666666666,32.854876900809124L170.33333333333331,30.536237554277662L171.5,35.86909298052104L172.66666666666669,33.086725764683294L173.83333333333334,36.332790708269364L175,31.463693292890262L176.16666666666666,23.81225880323136L177.33333333333331,34.709758236476326L178.5,25.435291275024394L179.66666666666669,25.899019144330694L180.83333333333334,34.01418150329588L182,26.8264447413853L183.16666666666666,29.84066082109721L184.33333333333334,32.39114903150284L185.5,30.30438869040351L186.66666666666666,21.95734732600618L187.83333333333331,19.870586984906847L189,29.84066082109721L190.16666666666669,37.49212545231409L191.33333333333334,29.145084087916757L192.5,29.84066082109721L193.66666666666666,30.07253982652934L194.83333333333331,21.0298915873936L196,28.449477213178348L197.16666666666669,25.435291275024394L198.33333333333334,14.769610564095618L199.5,18.01570564923966L200.66666666666666,24.04410766710551L201.83333333333334,20.334314854213147L203,32.39114903150284L204.16666666666666,28.217628349304178L205.33333333333331,24.739684400285963L206.5,17.08824991062706L207.66666666666669,18.711282382420112L208.83333333333334,26.362716872079016L210,21.95734732600618L211.16666666666666,24.04410766710551L212.33333333333331,20.102465990338974L213.5,19.870586984906847L214.66666666666669,25.435291275024394L215.83333333333334,27.985779485430008L217,13.146578092302565L218.16666666666666,18.247554513113812L219.33333333333334,20.566163718087317L220.5,24.739684400285963L221.66666666666666,20.102465990338974L222.83333333333331,13.610305961608866L224,37.49212545231409L225.16666666666669,8.741208546229748L226.33333333333334,18.247554513113812L227.5,19.406859115600565L228.66666666666666,15.465217438834028L229.83333333333331,10.827968887329082L231,17.08824991062706L232.16666666666669,18.01570564923966L233.33333333333334,15.928945308140328L234.5,15.928945308140328L235.66666666666666,9.4367852794102L236.83333333333334,0.6260160457065874L238,20.334314854213147L239.16666666666666,17.08824991062706L240.33333333333331,16.62452204132078L241.5,9.668664284842329L242.66666666666669,17.783826643807533L243.83333333333334,11.291696756635362L245,12.219122353689984L246.16666666666666,22.65292405918665L247.33333333333331,18.943131246294264L248.5,11.755424625941663L249.66666666666669,16.856370905194932L250.83333333333334,20.102465990338974L252,22.88480306461878L253.16666666666666,16.39264303588865L254.33333333333334,5.031415733337383L255.5,16.16079417201448" style="fill: none;" fill="none"></path></g><g><path stroke="rgb(255, 112, 67)" stroke-width="2px" d="M23.333333333333332,175.9138394857134L24.5,174.9863988178798L25.666666666666664,175.4501116164071L26.833333333333336,183.5652890461513L28,185.88391332190375L29.166666666666668,173.5952152099609L30.333333333333336,158.75604395839144L31.5,159.68348462622504L32.666666666666664,152.49576293509344L33.833333333333336,156.43741968263896L35,156.43741968263896L36.16666666666667,137.88844054739815L37.333333333333336,130.4688549216134L38.5,143.91685763604298L39.666666666666664,127.68650277655463L40.833333333333336,134.64237560381207L42,125.136014566149L43.16666666666667,126.0634703047616L44.33333333333333,126.99092604337417L45.5,122.3536774918692L46.666666666666664,126.29533423941474L47.833333333333336,118.64388467897686L49,119.8031892814636L50.166666666666664,125.136014566149L51.33333333333333,120.73064502007618L52.5,115.16594072995865L53.66666666666667,122.58554142652237L54.833333333333336,120.49878108542303L56,118.64388467897686L57.166666666666664,120.03505321611675L58.333333333333336,112.1517397210257L59.5,110.06497937992638L60.66666666666667,112.615467590332L61.83333333333333,110.29684331457953L63,103.80469835662839L64.16666666666666,102.18166588483535L65.33333333333333,111.68801185171942L66.5,104.96401802989412L67.66666666666667,105.19586689376828L68.83333333333333,98.93560094124928L70,100.32675440761018L71.16666666666666,97.08068946402412L72.33333333333334,104.03656229128156L73.5,101.48607408087592L74.66666666666667,94.53020125361849L75.83333333333333,93.83462452043804L77,98.93560094124928L78.16666666666667,87.11061562783375L79.33333333333333,87.11061562783375L80.5,95.68953599766321L81.66666666666667,89.42925497436521L82.83333333333333,87.80622250257218L84,95.45765699223108L85.16666666666666,100.79048227691648L86.33333333333334,77.83614866638182L87.5,87.11061562783375L88.66666666666666,97.08068946402412L89.83333333333334,92.44344091251916L91,86.41503889465329L92.16666666666667,88.50179923575263L93.33333333333333,99.16744980512344L94.5,80.38660673522946L95.66666666666667,94.7620802590506L96.83333333333333,66.24301221684046L98,107.51449116952075L99.16666666666667,87.80622250257218L100.33333333333333,79.45918113817484L101.5,89.42925497436521L102.66666666666666,78.06799753025598L103.83333333333334,80.6184857406616L105,77.37242079707553L106.16666666666666,73.19890011487686L107.33333333333334,75.2856604559762L108.5,70.88026076834541L109.66666666666667,91.74786417933869L110.83333333333333,71.3439886376517L112,76.2130860530308L113.16666666666667,73.43074897875101L114.33333333333333,71.80771650695799L115.5,70.4165328990391L116.66666666666667,64.38813088117325L117.83333333333333,67.17046795545303L119,59.51903346579414L120.16666666666666,61.37391480146134L121.33333333333334,62.533219403948074L122.5,49.08523176029749L123.66666666666666,66.01116335296628L124.83333333333334,59.51903346579414L126,68.56165156337192L127.16666666666667,70.88026076834541L128.33333333333331,55.11363377816334L129.5,66.24301221684046L130.66666666666666,61.605793806893466L131.83333333333334,56.73666624995637L133,60.44645906284876L134.16666666666669,53.25875244249614L135.33333333333334,60.44645906284876L136.5,57.200394119262675L137.66666666666666,57.8960009940011L138.83333333333334,53.954329175676584L140,47.694048152378606L141.16666666666666,48.621503890991185L142.33333333333331,50.940113095964676L143.5,49.31708062417164L144.66666666666669,42.82495073699949L145.83333333333334,42.59307173156736L147,56.73666624995637L148.16666666666666,49.54895962960377L149.33333333333334,47.694048152378606L150.5,41.20191826520646L151.66666666666666,55.80924065290177L152.83333333333331,44.44798320879252L154,49.31708062417164L155.16666666666669,57.200394119262675L156.33333333333334,43.28867860630579L157.5,49.31708062417164L158.66666666666666,35.63721397508891L159.83333333333331,44.44798320879252L161,52.795024573189856L162.16666666666669,56.73666624995637L163.33333333333334,48.621503890991185L164.5,43.05679960087366L165.66666666666666,41.20191826520646L166.83333333333334,43.98425533948624L168,38.65143005480083L169.16666666666666,45.3754389474051L170.33333333333331,51.40384096527097L171.5,36.10094184439521L172.66666666666669,44.44798320879252L173.83333333333334,36.10094184439521L175,43.05679960087366L176.16666666666666,39.810734657287576L177.33333333333331,40.0426136627197L178.5,57.8960009940011L179.66666666666669,44.67983207266669L180.83333333333334,40.27446252659388L182,41.89749499838691L183.16666666666666,42.12937400381904L184.33333333333334,31.927421162196545L185.5,51.86756883457728L186.66666666666666,47.694048152378606L187.83333333333331,37.49212545231409L189,32.15930016762867L190.16666666666669,45.60728781127928L191.33333333333334,37.49212545231409L192.5,38.65143005480083L193.66666666666666,30.999965423583962L194.83333333333331,39.810734657287576L196,31.463693292890262L197.16666666666669,39.578885793413406L198.33333333333334,28.449477213178348L199.5,40.970039259774325L200.66666666666666,29.608811957223057L201.83333333333334,30.768116559709792L203,31.463693292890262L204.16666666666666,38.65143005480083L205.33333333333331,40.970039259774325L206.5,30.999965423583962L207.66666666666669,37.72397431618824L208.83333333333334,30.30438869040351L210,24.739684400285963L211.16666666666666,31.463693292890262L212.33333333333331,30.999965423583962L213.5,37.955853321620374L214.66666666666669,30.536237554277662L215.83333333333334,27.753900479997878L217,25.203412269592263L218.16666666666666,30.30438869040351L219.33333333333334,31.695572298322393L220.5,22.88480306461878L221.66666666666666,34.47790937260218L222.83333333333331,31.231844429016093L224,24.50783553641181L225.16666666666669,30.536237554277662L226.33333333333334,35.63721397508891L227.5,24.971563405718094L228.66666666666666,35.17348610578263L229.83333333333331,29.608811957223057L231,34.94163724190846L232.16666666666669,26.8264447413853L233.33333333333334,27.753900479997878L234.5,24.971563405718094L235.66666666666666,38.65143005480083L236.83333333333334,25.899019144330694L238,32.854876900809124L239.16666666666666,27.058323746817425L240.33333333333331,16.39264303588865L241.5,20.102465990338974L242.66666666666669,27.058323746817425L243.83333333333334,16.62452204132078L245,27.753900479997878L246.16666666666666,29.37693295179093L247.33333333333331,25.667140138898564L248.5,29.145084087916757L249.66666666666669,20.334314854213147L250.83333333333334,30.30438869040351L252,24.50783553641181L253.16666666666666,32.854876900809124L254.33333333333334,28.91320508248463L255.5,20.334314854213147" style="fill: none;" fill="none"></path></g></g></g></g></g></g><g transform="translate(50, 176)" clip-path="url(#clip_1)"><clipPath id="clip_1"><rect width="279" height="22"></rect></clipPath><g><g><line x1="0" y1="0" x2="0" y2="5" style="visibility: inherit;" fill="rgb(0, 0, 0)" stroke="rgb(204, 204, 204)" stroke-width="1px"></line><line x1="23.333333333333332" y1="0" x2="23.333333333333332" y2="5" style="visibility: inherit;" fill="rgb(0, 0, 0)" stroke="rgb(204, 204, 204)" stroke-width="1px"></line><line x1="46.666666666666664" y1="0" x2="46.666666666666664" y2="5" style="visibility: inherit;" fill="rgb(0, 0, 0)" stroke="rgb(204, 204, 204)" stroke-width="1px"></line><line x1="70" y1="0" x2="70" y2="5" style="visibility: inherit;" fill="rgb(0, 0, 0)" stroke="rgb(204, 204, 204)" stroke-width="1px"></line><line x1="93.33333333333333" y1="0" x2="93.33333333333333" y2="5" style="visibility: inherit;" fill="rgb(0, 0, 0)" stroke="rgb(204, 204, 204)" stroke-width="1px"></line><line x1="116.66666666666667" y1="0" x2="116.66666666666667" y2="5" style="visibility: inherit;" fill="rgb(0, 0, 0)" stroke="rgb(204, 204, 204)" stroke-width="1px"></line><line x1="140" y1="0" x2="140" y2="5" style="visibility: inherit;" fill="rgb(0, 0, 0)" stroke="rgb(204, 204, 204)" stroke-width="1px"></line><line x1="163.33333333333334" y1="0" x2="163.33333333333334" y2="5" style="visibility: inherit;" fill="rgb(0, 0, 0)" stroke="rgb(204, 204, 204)" stroke-width="1px"></line><line x1="186.66666666666666" y1="0" x2="186.66666666666666" y2="5" style="visibility: inherit;" fill="rgb(0, 0, 0)" stroke="rgb(204, 204, 204)" stroke-width="1px"></line><line x1="210" y1="0" x2="210" y2="5" style="visibility: inherit;" fill="rgb(0, 0, 0)" stroke="rgb(204, 204, 204)" stroke-width="1px"></line><line x1="233.33333333333334" y1="0" x2="233.33333333333334" y2="5" style="visibility: inherit;" fill="rgb(0, 0, 0)" stroke="rgb(204, 204, 204)" stroke-width="1px"></line><line x1="256.66666666666663" y1="0" x2="256.66666666666663" y2="5" style="visibility: inherit;" fill="rgb(0, 0, 0)" stroke="rgb(204, 204, 204)" stroke-width="1px"></line><line x1="280" y1="0" x2="280" y2="5" style="visibility: inherit;" fill="rgb(0, 0, 0)" stroke="rgb(204, 204, 204)" stroke-width="1px"></line></g><g transform="translate(0, 8)"><text x="0" y="0" dx="0em" dy="0.95em" style="text-anchor: middle; visibility: hidden; font-family: Roboto, sans-serif; font-size: 12px; font-weight: 200;" fill="rgb(33, 33, 33)" stroke="none" stroke-width="1px">-20</text><text x="23.333333333333332" y="0" dx="0em" dy="0.95em" style="text-anchor: middle; visibility: inherit; font-family: Roboto, sans-serif; font-size: 12px; font-weight: 200;" fill="rgb(33, 33, 33)" stroke="none" stroke-width="1px">0</text><text x="46.666666666666664" y="0" dx="0em" dy="0.95em" style="text-anchor: middle; visibility: hidden; font-family: Roboto, sans-serif; font-size: 12px; font-weight: 200;" fill="rgb(33, 33, 33)" stroke="none" stroke-width="1px">20</text><text x="70" y="0" dx="0em" dy="0.95em" style="text-anchor: middle; visibility: inherit; font-family: Roboto, sans-serif; font-size: 12px; font-weight: 200;" fill="rgb(33, 33, 33)" stroke="none" stroke-width="1px">40</text><text x="93.33333333333333" y="0" dx="0em" dy="0.95em" style="text-anchor: middle; visibility: hidden; font-family: Roboto, sans-serif; font-size: 12px; font-weight: 200;" fill="rgb(33, 33, 33)" stroke="none" stroke-width="1px">60</text><text x="116.66666666666667" y="0" dx="0em" dy="0.95em" style="text-anchor: middle; visibility: inherit; font-family: Roboto, sans-serif; font-size: 12px; font-weight: 200;" fill="rgb(33, 33, 33)" stroke="none" stroke-width="1px">80</text><text x="140" y="0" dx="0em" dy="0.95em" style="text-anchor: middle; visibility: hidden; font-family: Roboto, sans-serif; font-size: 12px; font-weight: 200;" fill="rgb(33, 33, 33)" stroke="none" stroke-width="1px">100</text><text x="163.33333333333334" y="0" dx="0em" dy="0.95em" style="text-anchor: middle; visibility: inherit; font-family: Roboto, sans-serif; font-size: 12px; font-weight: 200;" fill="rgb(33, 33, 33)" stroke="none" stroke-width="1px">120</text><text x="186.66666666666666" y="0" dx="0em" dy="0.95em" style="text-anchor: middle; visibility: hidden; font-family: Roboto, sans-serif; font-size: 12px; font-weight: 200;" fill="rgb(33, 33, 33)" stroke="none" stroke-width="1px">140</text><text x="210" y="0" dx="0em" dy="0.95em" style="text-anchor: middle; visibility: inherit; font-family: Roboto, sans-serif; font-size: 12px; font-weight: 200;" fill="rgb(33, 33, 33)" stroke="none" stroke-width="1px">160</text><text x="233.33333333333334" y="0" dx="0em" dy="0.95em" style="text-anchor: middle; visibility: hidden; font-family: Roboto, sans-serif; font-size: 12px; font-weight: 200;" fill="rgb(33, 33, 33)" stroke="none" stroke-width="1px">180</text><text x="256.66666666666663" y="0" dx="0em" dy="0.95em" style="text-anchor: middle; visibility: inherit; font-family: Roboto, sans-serif; font-size: 12px; font-weight: 200;" fill="rgb(33, 33, 33)" stroke="none" stroke-width="1px">200</text><text x="280" y="0" dx="0em" dy="0.95em" style="text-anchor: middle; visibility: hidden; font-family: Roboto, sans-serif; font-size: 12px; font-weight: 200;" fill="rgb(33, 33, 33)" stroke="none" stroke-width="1px">220</text></g><line x1="0" y1="0" x2="280" y2="0" fill="rgb(0, 0, 0)" stroke="rgb(204, 204, 204)" stroke-width="1px"></line></g></g></g></g></svg>