<svg viewBox="0 0 330 199.9921875" xmlns="http://www.w3.org/2000/svg"><g><g><g><g><g><line x1="50" y1="176.992" x2="45" y2="176.992" style="visibility: inherit;" fill="rgb(0, 0, 0)" stroke="rgb(204, 204, 204)" stroke-width="1px"></line><line x1="50" y1="154.86799999999997" x2="45" y2="154.86799999999997" style="visibility: inherit;" fill="rgb(0, 0, 0)" stroke="rgb(204, 204, 204)" stroke-width="1px"></line><line x1="50" y1="132.744" x2="45" y2="132.744" style="visibility: inherit;" fill="rgb(0, 0, 0)" stroke="rgb(204, 204, 204)" stroke-width="1px"></line><line x1="50" y1="110.61999999999999" x2="45" y2="110.61999999999999" style="visibility: inherit;" fill="rgb(0, 0, 0)" stroke="rgb(204, 204, 204)" stroke-width="1px"></line><line x1="50" y1="88.49599999999998" x2="45" y2="88.49599999999998" style="visibility: inherit;" fill="rgb(0, 0, 0)" stroke="rgb(204, 204, 204)" stroke-width="1px"></line><line x1="50" y1="66.372" x2="45" y2="66.372" style="visibility: inherit;" fill="rgb(0, 0, 0)" stroke="rgb(204, 204, 204)" stroke-width="1px"></line><line x1="50" y1="44.247999999999976" x2="45" y2="44.247999999999976" style="visibility: inherit;" fill="rgb(0, 0, 0)" stroke="rgb(204, 204, 204)" stroke-width="1px"></line><line x1="50" y1="22.12400000000002" x2="45" y2="22.12400000000002" style="visibility: inherit;" fill="rgb(0, 0, 0)" stroke="rgb(204, 204, 204)" stroke-width="1px"></line><line x1="50" y1="0" x2="45" y2="0" style="visibility: inherit;" fill="rgb(0, 0, 0)" stroke="rgb(204, 204, 204)" stroke-width="1px"></line></g><g transform="translate(40, 0)"><text x="0" y="176.992" dx="0em" dy="0.3em" style="text-anchor: end; visibility: hidden; font-family: Roboto, sans-serif; font-size: 12px; font-weight: 200;" fill="rgb(33, 33, 33)" stroke="none" stroke-width="1px">0.35</text><text x="0" y="154.86799999999997" dx="0em" dy="0.3em" style="text-anchor: end; visibility: inherit; font-family: Roboto, sans-serif; font-size: 12px; font-weight: 200;" fill="rgb(33, 33, 33)" stroke="none" stroke-width="1px">0.4</text><text x="0" y="132.744" dx="0em" dy="0.3em" style="text-anchor: end; visibility: hidden; font-family: Roboto, sans-serif; font-size: 12px; font-weight: 200;" fill="rgb(33, 33, 33)" stroke="none" stroke-width="1px">0.45</text><text x="0" y="110.61999999999999" dx="0em" dy="0.3em" style="text-anchor: end; visibility: inherit; font-family: Roboto, sans-serif; font-size: 12px; font-weight: 200;" fill="rgb(33, 33, 33)" stroke="none" stroke-width="1px">0.5</text><text x="0" y="88.49599999999998" dx="0em" dy="0.3em" style="text-anchor: end; visibility: hidden; font-family: Roboto, sans-serif; font-size: 12px; font-weight: 200;" fill="rgb(33, 33, 33)" stroke="none" stroke-width="1px">0.55</text><text x="0" y="66.372" dx="0em" dy="0.3em" style="text-anchor: end; visibility: inherit; font-family: Roboto, sans-serif; font-size: 12px; font-weight: 200;" fill="rgb(33, 33, 33)" stroke="none" stroke-width="1px">0.6</text><text x="0" y="44.247999999999976" dx="0em" dy="0.3em" style="text-anchor: end; visibility: hidden; font-family: Roboto, sans-serif; font-size: 12px; font-weight: 200;" fill="rgb(33, 33, 33)" stroke="none" stroke-width="1px">0.65</text><text x="0" y="22.12400000000002" dx="0em" dy="0.3em" style="text-anchor: end; visibility: inherit; font-family: Roboto, sans-serif; font-size: 12px; font-weight: 200;" fill="rgb(33, 33, 33)" stroke="none" stroke-width="1px">0.7</text><text x="0" y="0" dx="0em" dy="0.3em" style="text-anchor: end; visibility: hidden; font-family: Roboto, sans-serif; font-size: 12px; font-weight: 200;" fill="rgb(33, 33, 33)" stroke="none" stroke-width="1px">0.75</text></g><line x1="50" y1="0" x2="50" y2="176.992" fill="rgb(0, 0, 0)" stroke="rgb(204, 204, 204)" stroke-width="1px"></line></g></g><g transform="translate(50, 0)" clip-path="url(#clip_0)"><clipPath id="clip_0"><rect width="279" height="176"></rect></clipPath><g><g><g><line x1="0" y1="0" x2="0" y2="176.992" fill="rgb(0, 0, 0)" stroke="rgb(66, 66, 66)" stroke-width="1px" opacity="0.25"></line><line x1="23.333333333333332" y1="0" x2="23.333333333333332" y2="176.992" fill="rgb(0, 0, 0)" stroke="rgb(66, 66, 66)" stroke-width="1px" opacity="0.25"></line><line x1="46.666666666666664" y1="0" x2="46.666666666666664" y2="176.992" fill="rgb(0, 0, 0)" stroke="rgb(66, 66, 66)" stroke-width="1px" opacity="0.25"></line><line x1="70" y1="0" x2="70" y2="176.992" fill="rgb(0, 0, 0)" stroke="rgb(66, 66, 66)" stroke-width="1px" opacity="0.25"></line><line x1="93.33333333333333" y1="0" x2="93.33333333333333" y2="176.992" fill="rgb(0, 0, 0)" stroke="rgb(66, 66, 66)" stroke-width="1px" opacity="0.25"></line><line x1="116.66666666666667" y1="0" x2="116.66666666666667" y2="176.992" fill="rgb(0, 0, 0)" stroke="rgb(66, 66, 66)" stroke-width="1px" opacity="0.25"></line><line x1="140" y1="0" x2="140" y2="176.992" fill="rgb(0, 0, 0)" stroke="rgb(66, 66, 66)" stroke-width="1px" opacity="0.25"></line><line x1="163.33333333333334" y1="0" x2="163.33333333333334" y2="176.992" fill="rgb(0, 0, 0)" stroke="rgb(66, 66, 66)" stroke-width="1px" opacity="0.25"></line><line x1="186.66666666666666" y1="0" x2="186.66666666666666" y2="176.992" fill="rgb(0, 0, 0)" stroke="rgb(66, 66, 66)" stroke-width="1px" opacity="0.25"></line><line x1="210" y1="0" x2="210" y2="176.992" fill="rgb(0, 0, 0)" stroke="rgb(66, 66, 66)" stroke-width="1px" opacity="0.25"></line><line x1="233.33333333333334" y1="0" x2="233.33333333333334" y2="176.992" fill="rgb(0, 0, 0)" stroke="rgb(66, 66, 66)" stroke-width="1px" opacity="0.25"></line><line x1="256.66666666666663" y1="0" x2="256.66666666666663" y2="176.992" fill="rgb(0, 0, 0)" stroke="rgb(66, 66, 66)" stroke-width="1px" opacity="0.25"></line><line x1="280" y1="0" x2="280" y2="176.992" fill="rgb(0, 0, 0)" stroke="rgb(66, 66, 66)" stroke-width="1px" opacity="0.25"></line></g><g><line x1="0" y1="176.992" x2="280" y2="176.992" fill="rgb(0, 0, 0)" stroke="rgb(66, 66, 66)" stroke-width="1px" opacity="0.25"></line><line x1="0" y1="154.86799999999997" x2="280" y2="154.86799999999997" fill="rgb(0, 0, 0)" stroke="rgb(66, 66, 66)" stroke-width="1px" opacity="0.25"></line><line x1="0" y1="132.744" x2="280" y2="132.744" fill="rgb(0, 0, 0)" stroke="rgb(66, 66, 66)" stroke-width="1px" opacity="0.25"></line><line x1="0" y1="110.61999999999999" x2="280" y2="110.61999999999999" fill="rgb(0, 0, 0)" stroke="rgb(66, 66, 66)" stroke-width="1px" opacity="0.25"></line><line x1="0" y1="88.49599999999998" x2="280" y2="88.49599999999998" fill="rgb(0, 0, 0)" stroke="rgb(66, 66, 66)" stroke-width="1px" opacity="0.25"></line><line x1="0" y1="66.372" x2="280" y2="66.372" fill="rgb(0, 0, 0)" stroke="rgb(66, 66, 66)" stroke-width="1px" opacity="0.25"></line><line x1="0" y1="44.247999999999976" x2="280" y2="44.247999999999976" fill="rgb(0, 0, 0)" stroke="rgb(66, 66, 66)" stroke-width="1px" opacity="0.25"></line><line x1="0" y1="22.12400000000002" x2="280" y2="22.12400000000002" fill="rgb(0, 0, 0)" stroke="rgb(66, 66, 66)" stroke-width="1px" opacity="0.25"></line><line x1="0" y1="0" x2="280" y2="0" fill="rgb(0, 0, 0)" stroke="rgb(66, 66, 66)" stroke-width="1px" opacity="0.25"></line></g></g></g><g><g><line x1="0" y1="331.85999999999996" x2="280" y2="331.85999999999996" fill="rgb(0, 0, 0)" stroke="rgb(153, 153, 153)" stroke-width="1.5px"></line></g></g><g><g><line x1="23.333333333333332" y1="0" x2="23.333333333333332" y2="176.992" fill="rgb(0, 0, 0)" stroke="rgb(153, 153, 153)" stroke-width="1.5px"></line></g></g><g><g><g><g><g><path stroke="rgb(51, 187, 238)" stroke-width="2px" d="M31.5,181.4424524838499L32.666666666666664,176.80361631483703L33.833333333333336,174.948511885914L35,172.70239475858259L36.16666666666667,168.26945455125983L37.333333333333336,165.53461570634386L38.5,165.03301922186344L39.666666666666664,163.10851253589422L40.833333333333336,160.73676919621204L42,159.1518192539298L43.16666666666667,156.4155031949879L44.33333333333333,154.93620079651518L45.5,152.58789667844792L46.666666666666664,152.47742512643015L47.833333333333336,153.22267292422032L49,153.83211608625734L50.166666666666664,153.3862565613569L51.33333333333333,146.54543371072242L52.5,141.6294325666851L53.66666666666667,138.84214216755467L54.833333333333336,137.73783146781807L56,129.4469772437181L57.166666666666664,129.42272584015234L58.333333333333336,124.29561148759811L59.5,127.06227273141567L60.66666666666667,128.80342171778886L61.83333333333333,124.73554807422678L63,123.67440384803804L64.16666666666666,124.82305381492556L65.33333333333333,121.53580893220118L66.5,122.64723125883334L67.66666666666667,120.87952915720737L68.83333333333333,119.98121265322645L70,117.0076672601137L71.16666666666666,110.92250095929525L72.33333333333334,113.76353860511452L73.5,114.81894744971241L74.66666666666667,117.48098636046211L75.83333333333333,112.1803103981L77,107.94492919295568L78.16666666666667,106.05291948701391L79.33333333333333,106.70305541078399L80.5,102.38633074017942L81.66666666666667,97.76750233393204L82.83333333333333,101.73180511893766L84,102.48734979690406L85.16666666666666,103.75218982542464L86.33333333333334,99.72314051535417L87.5,97.87377229444128L88.66666666666666,94.89766251225369L89.83333333333334,98.30570658099155L91,93.20917658264295L92.16666666666667,96.237649944871L93.33333333333333,92.69870872035571L94.5,93.659113217443L95.66666666666667,96.34530717149364L96.83333333333333,93.73713158187262L98,90.63033633742918L99.16666666666667,86.08825711938252L100.33333333333333,81.41536308701342L101.5,75.60901508769696L102.66666666666666,74.07284224010291L103.83333333333334,76.55951727185712L105,75.94157103511135L106.16666666666666,74.67814296896714L107.33333333333334,72.62164809522305L108.5,73.01078816400336L109.66666666666667,72.02700237266046L110.83333333333333,75.00740384287727L112,72.08884904972963L113.16666666666667,68.87698393507154L114.33333333333333,69.1409526748857L115.5,66.54017419549231L116.66666666666667,67.90117158539535L117.83333333333333,61.089509866520444L119,59.842819660833264L120.16666666666666,65.2623440010135L121.33333333333334,64.37531374542625L122.5,65.30382783084342L123.66666666666666,66.5101552991225L124.83333333333334,64.4747920568081L126,62.03629372926307L127.16666666666667,63.41351210791919L128.33333333333331,61.56183051418696L129.5,62.88537177271503L130.66666666666666,62.8679833060912L131.83333333333334,62.69524547185969L133,57.722502341785855L134.16666666666669,57.09224902660777L135.33333333333334,57.606767911142896L136.5,56.698209409252854L137.66666666666666,56.96458752985955L138.83333333333334,55.17676790068245L140,55.2402094029766L141.16666666666666,55.846335669480645L142.33333333333331,50.93514383943256L143.5,53.669052942224596L144.66666666666669,52.06332441784639L145.83333333333334,49.07109369932232L147,48.16842614184989L148.16666666666666,47.221068996496044L149.33333333333334,46.32804520076933L150.5,47.57757267061723L151.66666666666666,48.81419286575229L152.83333333333331,46.797005259551455L154,45.09978898260465L155.16666666666669,44.56836292966287L156.33333333333334,45.22333582344103L157.5,43.993282566681174L158.66666666666666,43.579860121139724L159.83333333333331,42.84489239104321L161,41.26778902273017L162.16666666666669,41.295344977740314L163.33333333333334,43.502976908900635L164.5,42.31184820092817L165.66666666666666,36.16000918148219L166.83333333333334,37.338006199349515L168,42.02124451550814L169.16666666666666,40.692442645507846L170.33333333333331,42.65432124678959L171.5,44.967581687359015L172.66666666666669,41.486426972620485L173.83333333333334,39.64118600039049L175,41.130896386077204L176.16666666666666,40.64514803062095L177.33333333333331,41.97673601037391L178.5,41.639566067970556L179.66666666666669,42.005325467656135L180.83333333333334,47.33734394316084L182,41.934466350103655L183.16666666666666,37.06970280124265L184.33333333333334,40.23722548361727L185.5,36.45711489222114L186.66666666666666,35.24402416528263L187.83333333333331,37.51878130901453L189,37.42290335648418L190.16666666666669,37.203071830708744L191.33333333333334,34.230866089605684L192.5,31.230262262787477L193.66666666666666,31.458693570593628L194.83333333333331,30.94654388779378L196,30.233497467243506L197.16666666666669,31.75330556690923L198.33333333333334,29.66257884681365L199.5,27.35316718685711L200.66666666666666,28.320923303294702L201.83333333333334,29.14502882977036L203,28.584516517756626L204.16666666666666,31.00736885383026L205.33333333333331,27.754284580196696L206.5,29.616569367197624L207.66666666666669,25.053316038577222L208.83333333333334,28.158282446937836L210,25.557918473289675L211.16666666666666,24.97151806509868L212.33333333333331,24.376225963570924L213.5,23.613294091783892L214.66666666666669,25.752389937736346L215.83333333333334,30.687678042231646L217,27.481312441336296L218.16666666666666,25.800955486957502L219.33333333333334,24.95504606858748L220.5,21.931792550896734L221.66666666666666,23.76967103720611L222.83333333333331,27.875009708886775L224,27.010991823485792L225.16666666666669,26.573728194601117L226.33333333333334,27.528650399426706L227.5,24.368626023042232L228.66666666666666,23.60873412746668L229.83333333333331,25.587349204888838L231,27.34257961646966L232.16666666666669,25.14965442690999L233.33333333333334,22.77892368527502L234.5,21.19418048603682L235.66666666666666,20.892553583522727L236.83333333333334,20.71157744201425L238,19.791467985823154L239.16666666666666,21.998562035390375L240.33333333333331,22.105548632519586L241.5,22.16974059079711L242.66666666666669,21.234427240220416L243.83333333333334,19.374811745362106L245,19.963226543829812L246.16666666666666,17.23251674065942L247.33333333333331,20.78780079680654L248.5,21.947153254496904L249.66666666666669,21.344337244598798L250.83333333333334,18.87269638286159L252,14.955161651051775L253.16666666666666,15.282642883346538L254.33333333333334,16.61526490252383L255.5,14.249911230332618" style="fill: none;" fill="none"></path></g><g><path stroke="rgb(204, 51, 17)" stroke-width="2px" d="M30.333333333333336,178.27169833237815L31.5,172.74514169408764L32.666666666666664,167.11185901795548L33.833333333333336,164.09502249952138L35,159.77177503884263L36.16666666666667,151.16955758738487L37.333333333333336,150.89570029919204L38.5,148.37636623540945L39.666666666666664,145.07985360897007L40.833333333333336,141.1547421852312L42,136.8524131807131L43.16666666666667,131.34972068783088L44.33333333333333,125.45144965939797L45.5,124.99659906096596L46.666666666666664,123.91216304623264L47.833333333333336,117.9054261978389L49,117.62868732818814L50.166666666666664,121.27679355441502L51.33333333333333,120.13841567918216L52.5,115.31663910571831L53.66666666666667,110.88169750646425L54.833333333333336,112.76523971327005L56,109.91892272649886L57.166666666666664,108.53574278590962L58.333333333333336,109.81578127815659L59.5,110.0157375797286L60.66666666666667,106.80849010319612L61.83333333333333,105.45220309669739L63,99.85047750818076L64.16666666666666,99.89782099216737L65.33333333333333,101.1434969223912L66.5,97.91447290493346L67.66666666666667,94.67863101472733L68.83333333333333,92.73712588521755L70,95.79211477460862L71.16666666666666,91.86332625118015L72.33333333333334,94.21285936451515L73.5,91.97074863452549L74.66666666666667,94.76422705690598L75.83333333333333,94.81727711702042L77,91.92764267543859L78.16666666666667,91.65459424936098L79.33333333333333,84.998617221524L80.5,85.63069012738359L81.66666666666667,89.58060681593602L82.83333333333333,89.11025000340908L84,87.12384127096287L85.16666666666666,85.03932515785448L86.33333333333334,83.86977314189211L87.5,85.5214450447276L88.66666666666666,88.541241790326L89.83333333333334,88.16202147953001L91,87.93448929305245L92.16666666666667,82.36079763695794L93.33333333333333,81.20768100145571L94.5,80.43466391779847L95.66666666666667,75.99441356216583L96.83333333333333,79.25433940622041L98,78.36998808701536L99.16666666666667,73.78179008769807L100.33333333333333,71.59693265323529L101.5,72.80172605922633L102.66666666666666,72.87538308579214L103.83333333333334,69.83580806993534L105,68.82358683170732L106.16666666666666,62.941386498819874L107.33333333333334,66.06650847590628L108.5,65.91278805826111L109.66666666666667,65.73940870531797L110.83333333333333,63.03852612452745L112,60.11955854199552L113.16666666666667,62.8315323606862L114.33333333333333,59.67076332472165L115.5,60.85806058539392L116.66666666666667,60.272011457284975L117.83333333333333,59.75808777570765L119,58.881661652088425L120.16666666666666,58.193511773204975L121.33333333333334,57.861768948230846L122.5,56.52660052299122L123.66666666666666,59.21502531051409L124.83333333333334,57.90661570548873L126,59.637277809142255L127.16666666666667,53.45316097984263L128.33333333333331,53.800278090057084L129.5,53.44048699105817L130.66666666666666,51.926184847146516L131.83333333333334,53.93906803833858L133,49.141564243718484L134.16666666666669,53.6478808126953L135.33333333333334,56.43281785643737L136.5,52.09854637334728L137.66666666666666,50.22834960287798L138.83333333333334,48.37586542121165L140,46.939775953242716L141.16666666666666,44.13047577092022L142.33333333333331,48.3689717189608L143.5,48.639823827274896L144.66666666666669,47.7473594643642L145.83333333333334,46.31920997297582L147,47.32880912778272L148.16666666666666,45.82462791441379L149.33333333333334,47.6001318073183L150.5,46.31203103064952L151.66666666666666,46.269536684033L152.83333333333331,42.8356613357524L154,39.882665253142115L155.16666666666669,37.05589197567675L156.33333333333334,38.03784063012343L157.5,32.378324256843015L158.66666666666666,31.74177415615661L159.83333333333331,34.930527590312636L161,34.490376538394734L162.16666666666669,36.9042879786246L163.33333333333334,34.94426665199717L164.5,37.25777969868727L165.66666666666666,37.915521407316575L166.83333333333334,36.9305812960806L168,34.229676523085956L169.16666666666666,35.20598862831383L170.33333333333331,35.95408064570776L171.5,35.26681312588901L172.66666666666669,36.63978381173641L173.83333333333334,34.866711254220185L175,35.02014810186682L176.16666666666666,34.787600701940406L177.33333333333331,31.888912538702673L178.5,30.555456251630396L179.66666666666669,27.970040732103115L180.83333333333334,27.71722945444436L182,28.377055909589814L183.16666666666666,27.799133806679198L184.33333333333334,27.776979503901906L185.5,29.06212495629315L186.66666666666666,28.697078947927498L187.83333333333331,27.90998997778054L189,26.058162008824063L190.16666666666669,23.973236701907002L191.33333333333334,23.696110043299942L192.5,26.2889937714176L193.66666666666666,24.7609547764919L194.83333333333331,24.006436133793716L196,20.469955716378525L197.16666666666669,17.942310855059045L198.33333333333334,19.428335518162356L199.5,21.45607304627951L200.66666666666666,20.725079611153934L201.83333333333334,21.909520543105323L203,19.21180636196553L204.16666666666666,18.810458235437984L205.33333333333331,17.271221875009108L206.5,17.564949891362886L207.66666666666669,16.361612114306844L208.83333333333334,15.8830613046864L210,13.81058907163018L211.16666666666666,15.163960700821141L212.33333333333331,15.002165702337816L213.5,15.716612474533774L214.66666666666669,15.496061520822579L215.83333333333334,13.416084447054685L217,12.817317219822753L218.16666666666666,14.405703385024793L219.33333333333334,12.437270606606917L220.5,12.067724161296914L221.66666666666666,8.762227062314647L222.83333333333331,12.053796392875888L224,12.40570099818584L225.16666666666669,9.85768403808999L226.33333333333334,14.90216893649533L227.5,13.059748896458336L228.66666666666666,13.49618676310695L229.83333333333331,13.1899881179685L231,11.951293302986281L232.16666666666669,13.074565263636861L233.33333333333334,11.80089248803138L234.5,10.062860297124857L235.66666666666666,7.802771149969876L236.83333333333334,9.04357263070153L238,11.005323351751603L239.16666666666666,9.991275426227352L240.33333333333331,11.087041315840818L241.5,9.796854348067722L242.66666666666669,10.321169651916195L243.83333333333334,6.172415015560728L245,6.361164305128062L246.16666666666666,5.825205411384939L247.33333333333331,5.828239583653489L248.5,8.021158445168918L249.66666666666669,7.064653752022596L250.83333333333334,7.139969953163651L252,4.912903663792741L253.16666666666666,3.0086025250426127L254.33333333333334,4.30058260610524L255.5,3.615038415973305" style="fill: none;" fill="none"></path></g><g><path stroke="rgb(0, 119, 187)" stroke-width="2px" d="M31.5,177.37776673571742L32.666666666666664,174.2993782057593L33.833333333333336,174.84003513490134L35,173.6148358185078L36.16666666666667,169.79207065624553L37.333333333333336,172.62299310344798L38.5,171.3954227377881L39.666666666666664,168.71093906296414L40.833333333333336,167.26340217540408L42,165.90815002201796L43.16666666666667,164.77050835632286L44.33333333333333,163.7633680161521L45.5,161.6983374435681L46.666666666666664,163.2997418311468L47.833333333333336,162.06943478209965L49,162.95431072734192L50.166666666666664,161.86218713842973L51.33333333333333,156.5001019653675L52.5,156.93469744435706L53.66666666666667,158.00696830960993L54.833333333333336,156.21577841657594L56,153.19342324033988L57.166666666666664,151.13655366209875L58.333333333333336,149.98358459406808L59.5,146.45149092466667L60.66666666666667,144.16993014092694L61.83333333333333,142.6386942562759L63,137.7435125797671L64.16666666666666,135.13101313958146L65.33333333333333,128.69440775827493L66.5,125.31935354479172L67.66666666666667,120.53516129529342L68.83333333333333,115.7981571002811L70,114.41668682726744L71.16666666666666,116.59041624550832L72.33333333333334,113.99937144112168L73.5,109.52328008092329L74.66666666666667,106.02611204347548L75.83333333333333,103.52204406079849L77,106.07719047923827L78.16666666666667,106.06839898908085L79.33333333333333,106.30657595160301L80.5,98.17200295920168L81.66666666666667,95.80696703048389L82.83333333333333,94.87485973603363L84,92.93601022294916L85.16666666666666,97.12871520741284L86.33333333333334,98.67052022208966L87.5,94.72649225181303L88.66666666666666,93.49620874944878L89.83333333333334,93.81300372638435L91,88.24130940936836L92.16666666666667,90.09200275720863L93.33333333333333,89.2547828139168L94.5,88.10323183091299L95.66666666666667,87.98036260623826L96.83333333333333,81.90141791164332L98,84.01582239806324L99.16666666666667,85.52791694652834L100.33333333333333,82.37758646781326L101.5,80.24393632397101L102.66666666666666,82.29096732607515L103.83333333333334,79.46159871954339L105,76.38439241921073L106.16666666666666,76.48571514055229L107.33333333333334,75.81614265397246L108.5,75.00864255115425L109.66666666666667,74.44298483756205L110.83333333333333,75.80778485433473L112,69.80990738377696L113.16666666666667,69.37610778513985L114.33333333333333,70.7388650189843L115.5,66.5251036259536L116.66666666666667,67.16176312428735L117.83333333333333,68.19297784031643L119,66.29599880326519L120.16666666666666,66.94315312831839L121.33333333333334,65.78956638222482L122.5,63.8801339524123L123.66666666666666,62.734474494524754L124.83333333333334,60.58634658102271L126,60.758202071690995L127.16666666666667,59.07597361880807L128.33333333333331,59.93312539671819L129.5,59.148988978951934L130.66666666666666,58.84081188254936L131.83333333333334,59.87318600686421L133,61.709880314064215L134.16666666666669,58.18624832546246L135.33333333333334,54.61133689353185L136.5,51.57371916073149L137.66666666666666,49.99461092720977L138.83333333333334,53.18588029724686L140,52.66609170450172L141.16666666666666,49.676205927928706L142.33333333333331,47.55767550301581L143.5,45.39388637442604L144.66666666666669,48.072042453165146L145.83333333333334,50.08470326082428L147,50.39962887177775L148.16666666666666,49.452461508094686L149.33333333333334,46.85536748598781L150.5,46.83899041384914L151.66666666666666,44.23230920154127L152.83333333333331,46.1578263168232L154,45.12203822783804L155.16666666666669,41.2544913883935L156.33333333333334,39.25857279324116L157.5,39.27830201830612L158.66666666666666,41.156628402985014L159.83333333333331,38.631793636868544L161,38.82107687258133L162.16666666666669,41.28804992642052L163.33333333333334,40.49598829821378L164.5,40.101898423645636L165.66666666666666,37.02513767326693L166.83333333333334,36.396351055650854L168,33.016467505186185L169.16666666666666,31.96235535090525L170.33333333333331,32.5471684404931L171.5,30.46350607947837L172.66666666666669,32.7839816078921L173.83333333333334,33.040144194685205L175,32.05771901650594L176.16666666666666,37.148888110419286L177.33333333333331,35.65908809620154L178.5,34.359451476800494L179.66666666666669,33.579669505159906L180.83333333333334,33.274094526887446L182,30.412747468543373L183.16666666666666,32.67237933897513L184.33333333333334,31.755902451178635L185.5,31.287173970401984L186.66666666666666,30.84363212767883L187.83333333333331,27.81834729876302L189,29.33039748982298L190.16666666666669,27.884224492047473L191.33333333333334,28.39610582979574L192.5,26.512136274290402L193.66666666666666,24.651388421602416L194.83333333333331,24.833367194502017L196,28.43208030090836L197.16666666666669,30.18554100433652L198.33333333333334,30.42610420465267L199.5,25.86363590001936L200.66666666666666,26.69683841180725L201.83333333333334,26.222941942882116L203,26.587812529010538L204.16666666666666,25.021393133403638L205.33333333333331,26.110335099936567L206.5,25.789882303858406L207.66666666666669,24.46148789595638L208.83333333333334,23.50214649695796L210,26.740677008739976L211.16666666666666,27.547672585554025L212.33333333333331,27.301503812257682L213.5,24.47578992735398L214.66666666666669,20.426958484000316L215.83333333333334,19.864148467627952L217,21.230657102732533L218.16666666666666,21.07673375825209L219.33333333333334,22.93202625310494L220.5,19.987614542222477L221.66666666666666,17.977515659079803L222.83333333333331,16.28454206642259L224,19.813259381394115L225.16666666666669,17.061378791296757L226.33333333333334,16.789835573651935L227.5,18.249946636091817L228.66666666666666,19.937526495296446L229.83333333333331,22.654258506201895L231,19.57750203746747L232.16666666666669,18.218351869453134L233.33333333333334,17.88977603141616L234.5,18.585301402235906L235.66666666666666,16.89266536892947L236.83333333333334,11.6571917868942L238,14.03422708423674L239.16666666666666,14.64893504090158L240.33333333333331,12.826661456746148L241.5,14.979371292306372L242.66666666666669,18.948999265023122L243.83333333333334,14.83863862609153L245,12.210117488475392L246.16666666666666,9.9837857888769L247.33333333333331,9.053753929533416L248.5,12.877931530235953L249.66666666666669,12.981339732503145L250.83333333333334,11.501494763192682L252,8.990550788579691L253.16666666666666,7.80859391232632L254.33333333333334,12.536592130782022L255.5,13.75035406882871" style="fill: none;" fill="none"></path></g><g><path stroke="rgb(255, 112, 67)" stroke-width="2px" d="M28,179.419424053663L29.166666666666668,171.79111584707692L30.333333333333336,164.1924002571487L31.5,162.99062266818618L32.666666666666664,154.49470427596168L33.833333333333336,147.90101841052362L35,150.07895870321823L36.16666666666667,145.6063088123446L37.333333333333336,141.95386654401224L38.5,136.8417009427209L39.666666666666664,135.31957662368544L40.833333333333336,134.89380658585537L42,136.18056709903257L43.16666666666667,132.24520497611198L44.33333333333333,128.26110760968604L45.5,134.9601345580821L46.666666666666664,129.6467344425398L47.833333333333336,125.89070013031929L49,125.34131401203769L50.166666666666664,120.38600935191945L51.33333333333333,121.87620336607326L52.5,118.71272293378733L53.66666666666667,117.30154761440997L54.833333333333336,117.50981434812978L56,116.82326078576047L57.166666666666664,118.60242237801188L58.333333333333336,120.07568102109893L59.5,117.3889575779093L60.66666666666667,112.53084950778502L61.83333333333333,113.67357741300206L63,112.24926811788113L64.16666666666666,110.42086457043666L65.33333333333333,109.32382245403963L66.5,106.63680357711617L67.66666666666667,105.75495837835959L68.83333333333333,103.84626612210532L70,107.00209511261531L71.16666666666666,101.75424133704696L72.33333333333334,98.36206666709344L73.5,102.08854371946853L74.66666666666667,100.75374645554142L75.83333333333333,97.03140361955266L77,97.4760105391341L78.16666666666667,94.90245731562543L79.33333333333333,96.11748510487624L80.5,95.71037904815194L81.66666666666667,91.89544246907955L82.83333333333333,94.88133756206864L84,96.1859709046293L85.16666666666666,97.13105566442162L86.33333333333334,99.32114351332416L87.5,100.31058671415023L88.66666666666666,100.33619126951803L89.83333333333334,101.56882383534985L91,96.14087546080114L92.16666666666667,89.15111818724696L93.33333333333333,88.52794731768259L94.5,87.09906916804485L95.66666666666667,90.21818238370044L96.83333333333333,85.43520813627492L98,83.62038866617353L99.16666666666667,80.5838610321168L100.33333333333333,81.115337014549L101.5,79.73003850862565L102.66666666666666,76.95122345307578L103.83333333333334,72.52477469646394L105,73.76418789603386L106.16666666666666,73.2094083312635L107.33333333333334,70.92889409086015L108.5,72.7255018807704L109.66666666666667,71.61236819656223L110.83333333333333,68.50993777126983L112,73.30292169291326L113.16666666666667,71.71536822723475L114.33333333333333,68.49059068731741L115.5,72.15519071228668L116.66666666666667,72.89321848849872L117.83333333333333,70.98263204181443L119,66.99597334816603L120.16666666666666,62.8997940365943L121.33333333333334,66.60961436369855L122.5,65.42713836919567L123.66666666666666,63.58151949269355L124.83333333333334,64.016038057463L126,62.24795559242766L127.16666666666667,61.51171562192081L128.33333333333331,62.44954622648502L129.5,59.92847535742727L130.66666666666666,57.76662436850907L131.83333333333334,61.98783322172187L133,59.65144755456937L134.16666666666669,55.57161408289728L135.33333333333334,60.102765685227254L136.5,58.68271178692983L137.66666666666666,57.424922837080985L138.83333333333334,53.99223684624578L140,53.06875853154509L141.16666666666666,52.10890438230899L142.33333333333331,51.6141495446686L143.5,51.15499188782718L144.66666666666669,55.261694010030936L145.83333333333334,51.395872065503404L147,48.508317533659344L148.16666666666666,50.91452967424836L149.33333333333334,47.89490259039193L150.5,49.81611458890315L151.66666666666666,45.93742605467245L152.83333333333331,47.18089642870191L154,45.24896603219367L155.16666666666669,45.87514954157265L156.33333333333334,45.8451030363297L157.5,44.36634289441441L158.66666666666666,41.450293205368126L159.83333333333331,43.8393977020905L161,45.59746990863831L162.16666666666669,42.18896941390245L163.33333333333334,43.06533359460003L164.5,40.9942971339939L165.66666666666666,42.75428683752523L166.83333333333334,42.83646268364612L168,39.801998959522365L169.16666666666666,37.0074921995049L170.33333333333331,36.061154262879214L171.5,34.76298538151901L172.66666666666669,37.06785328449917L173.83333333333334,38.85653063715763L175,40.9035655742959L176.16666666666666,38.23650408304189L177.33333333333331,39.72002587054045L178.5,35.659880861603426L179.66666666666669,34.846830849267974L180.83333333333334,31.599841118584834L182,32.978868368584386L183.16666666666666,33.48168575961499L184.33333333333334,34.91949892448845L185.5,32.04919857458746L186.66666666666666,34.546910326698296L187.83333333333331,33.61098716319732L189,30.777187804586504L190.16666666666669,29.888421411160714L191.33333333333334,28.381343599107296L192.5,26.665573140589295L193.66666666666666,27.42145261276235L194.83333333333331,28.36189455883783L196,28.358098361355555L197.16666666666669,24.866294800199544L198.33333333333334,24.313092004631425L199.5,23.00735235129261L200.66666666666666,28.472594125237865L201.83333333333334,27.369542473296445L203,26.95116333874471L204.16666666666666,27.024745366528077L205.33333333333331,23.17361212966111L206.5,23.86554376743598L207.66666666666669,22.657665757074117L208.83333333333334,25.584769547780827L210,26.367213846206944L211.16666666666666,26.593228568649494L212.33333333333331,26.647679750213722L213.5,23.43428702264412L214.66666666666669,25.401533839639328L215.83333333333334,25.851515810451726L217,22.79428390452972L218.16666666666666,25.504435681996988L219.33333333333334,24.939428390323105L220.5,21.273202926909317L221.66666666666666,21.42687076127254L222.83333333333331,21.03216774866418L224,23.067591401609434L225.16666666666669,21.04277160732306L226.33333333333334,21.937830986549574L227.5,21.501038088542273L228.66666666666666,20.589753882254367L229.83333333333331,19.79953150186849L231,18.595031954252192L232.16666666666669,18.115784082295555L233.33333333333334,16.529807874609265L234.5,18.499686627536576L235.66666666666666,18.38318639478059L236.83333333333334,17.014858770614673L238,16.031557441857935L239.16666666666666,15.76617560357299L240.33333333333331,19.50223950368434L241.5,17.686290635956922L242.66666666666669,20.410846116956233L243.83333333333334,19.28641968227398L245,16.82643262372594L246.16666666666666,14.701221371568307L247.33333333333331,15.779497732685263L248.5,12.693485850075655L249.66666666666669,14.980613030659997L250.83333333333334,16.19058458475342L252,13.589346428800049L253.16666666666666,12.921274408869976L254.33333333333334,12.92618780778231L255.5,13.253745355644112" style="fill: none;" fill="none"></path></g></g></g></g><g opacity="0.2"><g><g><g><path stroke="rgb(51, 187, 238)" stroke-width="2px" d="M25.666666666666664,183.9609135723114L26.833333333333336,175.43996672153472L28,187.4098632264137L29.166666666666668,192.68472817897796L30.333333333333336,173.2083027243614L31.5,181.32347450256347L32.666666666666664,169.96223401308058L33.833333333333336,172.1938980102539L35,169.35359118461608L36.16666666666667,161.64416810512543L37.333333333333336,161.44128716230392L38.5,164.28160717487333L39.666666666666664,160.2240146923065L40.833333333333336,157.18082692384718L42,156.7750650382042L43.16666666666667,152.31172385692597L44.33333333333333,152.71747255563736L45.5,149.06565514564514L46.666666666666664,152.31172385692597L47.833333333333336,154.34052009820937L49,154.74626879692076L50.166666666666664,152.71747255563736L51.33333333333333,136.28424805641174L52.5,134.2554518151283L53.66666666666667,134.66121370077133L54.833333333333336,136.08136711359023L56,117.01070354461669L57.166666666666664,129.3863487482071L58.333333333333336,116.60494165897369L59.5,131.212264046669L60.66666666666667,131.4151449894905L61.83333333333333,118.6337379002571L63,122.08268755435942L64.16666666666666,126.54602873563766L65.33333333333333,116.60494165897369L66.5,124.31436473846435L67.66666666666667,118.2279760146141L68.83333333333333,118.6337379002571L70,112.54734917640685L71.16666666666666,101.79475151538848L72.33333333333334,118.02509507179259L73.5,116.40206071615218L74.66666666666667,121.47404472589493L75.83333333333333,104.22929645538329L77,101.59185738563536L78.16666666666667,103.21490492820739L79.33333333333333,107.67825929641722L80.5,95.91124373435973L81.66666666666667,90.839259724617L82.83333333333333,107.67825929641722L84,103.62066681385039L85.16666666666666,105.6494498682022L86.33333333333334,93.67956655025482L87.5,95.09971996307372L88.66666666666666,90.43349783897399L89.83333333333334,103.41777268409729L91,85.56438158512115L92.16666666666667,100.78035998821258L93.33333333333333,87.39029688358306L94.5,95.09971996307372L95.66666666666667,100.37459810256958L96.83333333333333,89.82486819744109L98,85.97014347076416L99.16666666666667,79.27513829231262L100.33333333333333,74.40602203845977L101.5,66.89949308872222L102.66666666666666,71.76858296871185L103.83333333333334,80.28952981948852L105,75.01465167999267L106.16666666666666,72.78300086975098L107.33333333333334,69.53690578460693L108.5,73.59449826717376L109.66666666666667,70.55132368564605L110.83333333333333,79.47800604820252L112,67.71101686000823L113.16666666666667,64.05918626308441L114.33333333333333,69.53690578460693L115.5,62.63900647640228L116.66666666666667,69.94266767024993L117.83333333333333,50.872017288208006L119,57.97278435230255L120.16666666666666,73.39163051128386L121.33333333333334,63.04476836204528L122.5,66.69659895896912L123.66666666666666,68.31964650154113L124.83333333333334,61.421747193336486L126,58.37854623794556L127.16666666666667,65.47933967590332L128.33333333333331,58.78430812358856L129.5,64.8706836605072L130.66666666666666,62.84190060615539L131.83333333333334,62.43613872051239L133,50.263387646675106L134.16666666666669,56.14686905384063L135.33333333333334,58.37854623794556L136.5,55.33537165641784L137.66666666666666,57.36415471076965L138.83333333333334,52.49503845691681L140,55.33537165641784L141.16666666666666,56.755525069236754L142.33333333333331,43.56835609436035L143.5,57.769916596412656L144.66666666666669,49.65473163127899L145.83333333333334,44.58274762153625L147,46.814424805641174L148.16666666666666,45.80003327846527L149.33333333333334,44.98850950717926L150.5,49.451863875389094L151.66666666666666,50.669123158454894L152.83333333333331,43.771223850250244L154,42.553964567184444L155.16666666666669,43.771223850250244L156.33333333333334,46.205795164108274L157.5,42.14820268154144L158.66666666666666,42.959726452827454L159.83333333333331,41.74244079589843L161,38.90213397026062L162.16666666666669,41.33667891025543L163.33333333333334,46.814424805641174L164.5,40.52515513896942L165.66666666666666,26.932250652313233L166.83333333333334,39.10500172615051L168,49.04610198974609L169.16666666666666,38.6992398405075L170.33333333333331,45.59713914871215L171.5,48.43747234821319L172.66666666666669,36.264694900512694L173.83333333333334,36.873324542045594L175,43.365461964607235L176.16666666666666,39.916525497436524L177.33333333333331,43.974117980003356L178.5,41.13381115436554L179.66666666666669,42.553964567184444L180.83333333333334,55.33537165641784L182,33.83014996051788L183.16666666666666,29.772557477951047L184.33333333333334,44.98850950717926L185.5,30.786949005126953L186.66666666666666,33.42438807487488L187.83333333333331,40.93091702461243L189,37.2790864276886L190.16666666666669,36.873324542045594L191.33333333333334,29.772557477951047L192.5,26.729356522560117L193.66666666666666,31.801340532302856L194.83333333333331,30.178319363594053L196,29.16392783641815L197.16666666666669,34.03301771640778L198.33333333333334,26.526488766670226L199.5,23.8890496969223L200.66666666666666,29.772557477951047L201.83333333333334,30.381187119483947L203,27.74374804973602L204.16666666666666,34.64164735794067L205.33333333333331,22.874658169746397L206.5,32.409996547698974L207.66666666666669,18.208436045646668L208.83333333333334,32.815732059478755L210,21.657372512817382L211.16666666666666,24.091917452812194L212.33333333333331,23.483287811279297L213.5,22.46889628410339L214.66666666666669,28.961033706665038L215.83333333333334,38.09061019897461L217,22.671764039993285L218.16666666666666,23.280420055389403L219.33333333333334,23.68618194103241L220.5,17.396912274360655L221.66666666666666,26.526488766670226L222.83333333333331,34.03301771640778L224,25.714964995384214L225.16666666666669,25.91783275127411L226.33333333333334,28.961033706665038L227.5,19.628589458465576L228.66666666666666,22.46889628410339L229.83333333333331,28.555271821022032L231,29.97542523384094L232.16666666666669,21.860266642570494L233.33333333333334,19.22282757282257L234.5,18.817065687179564L235.66666666666666,20.440113229751585L236.83333333333334,20.440113229751585L238,18.411303801536558L239.16666666666666,25.30920310974121L240.33333333333331,22.2660285282135L241.5,22.2660285282135L242.66666666666669,19.831457214355467L243.83333333333334,16.585388503074647L245,20.84584874153137L246.16666666666666,13.13645203590393L247.33333333333331,26.12072688102722L248.5,23.68618194103241L249.66666666666669,20.440113229751585L250.83333333333334,15.165235090255736L252,9.078859553337097L253.16666666666666,15.773864731788635L254.33333333333334,18.61419793128967L255.5,10.701880722045898" style="fill: none;" fill="none"></path></g><g><path stroke="rgb(204, 51, 17)" stroke-width="2px" d="M28,188.42425475358962L29.166666666666668,172.5996598958969L30.333333333333336,174.83133708000182L31.5,164.68736906051635L32.666666666666664,158.8038612794876L33.833333333333336,159.615371863842L35,153.32611538410185L36.16666666666667,138.31304429769514L37.333333333333336,150.48580855846404L38.5,144.6023007774353L39.666666666666664,140.13895959615706L40.833333333333336,135.26984334230423L42,130.400740275383L43.16666666666667,123.09707908153533L44.33333333333333,116.60494165897369L45.5,124.31436473846435L46.666666666666664,122.28556849718093L47.833333333333336,108.89551857948302L49,117.2135844874382L50.166666666666664,126.74890967845916L51.33333333333333,118.4308569574356L52.5,108.08399480819702L53.66666666666667,104.22929645538329L54.833333333333336,115.59055013179778L56,105.6494498682022L57.166666666666664,106.46097363948822L58.333333333333336,111.73583859205246L59.5,110.31567199230193L60.66666666666667,101.99761927127838L61.83333333333333,103.41777268409729L63,91.4478893661499L64.16666666666666,99.96883621692658L65.33333333333333,103.01201079845428L66.5,93.07093690872192L67.66666666666667,89.82486819744109L68.83333333333333,89.82486819744109L70,100.37459810256958L71.16666666666666,85.97014347076416L72.33333333333334,97.73715903282165L73.5,88.60758254051208L74.66666666666667,98.95444468975066L75.83333333333333,94.89685220718383L77,87.59319101333618L78.16666666666667,91.24502161026001L79.33333333333333,75.01465167999267L80.5,86.57879948616028L81.66666666666667,95.50548184871673L82.83333333333333,88.40471478462219L84,84.14422817230223L85.16666666666666,81.91255098819732L86.33333333333334,82.11544511795043L87.5,87.99895289897918L88.66666666666666,93.07093690872192L89.83333333333334,87.59319101333618L91,87.59319101333618L92.16666666666667,74.00026015281676L93.33333333333333,79.47800604820252L94.5,79.27513829231262L95.66666666666667,69.33403802871703L96.83333333333333,84.14422817230223L98,77.0434611082077L99.16666666666667,66.89949308872222L100.33333333333333,68.31964650154113L101.5,74.60891616821289L102.66666666666666,72.98586862564086L103.83333333333334,65.2764455461502L105,67.30525497436523L106.16666666666666,54.11808599948883L107.33333333333334,70.75419144153595L108.5,65.68220743179322L109.66666666666667,65.47933967590332L110.83333333333333,58.98720225334167L112,55.74110716819763L113.16666666666667,66.89949308872222L114.33333333333333,54.92960977077484L115.5,62.63900647640228L116.66666666666667,59.39293776512146L117.83333333333333,58.98720225334167L119,57.567022466659544L120.16666666666666,57.161286954879756L121.33333333333334,57.36415471076965L122.5,54.523847885131836L123.66666666666666,63.247662491798394L124.83333333333334,55.94400129795074L126,62.23327096462249L127.16666666666667,44.17698573589325L128.33333333333331,54.32095375537872L129.5,52.90080034255981L130.66666666666666,49.65473163127899L131.83333333333334,56.958392825126644L133,41.94530855178833L134.16666666666669,60.40735566616058L135.33333333333334,60.610223422050474L136.5,45.59713914871215L137.66666666666666,47.42305444717407L138.83333333333334,45.59713914871215L140,44.78564175128937L141.16666666666666,39.916525497436524L142.33333333333331,54.72671564102173L143.5,49.04610198974609L144.66666666666669,46.408662919998164L145.83333333333334,44.17698573589325L147,48.84320785999298L148.16666666666666,43.56835609436035L149.33333333333334,50.263387646675106L150.5,44.37987986564636L151.66666666666666,46.205795164108274L152.83333333333331,37.6848483133316L154,35.45317112922668L155.16666666666669,32.815732059478755L156.33333333333334,39.510763611793514L157.5,23.8890496969223L158.66666666666666,30.786949005126953L159.83333333333331,39.713657741546626L161,33.83014996051788L162.16666666666669,40.52515513896942L163.33333333333334,32.004234662055964L164.5,40.72804926872253L165.66666666666666,38.90213397026062L166.83333333333334,35.45317112922668L168,30.178319363594053L169.16666666666666,36.6704567861557L170.33333333333331,37.076218671798706L171.5,34.23591184616089L172.66666666666669,38.6992398405075L173.83333333333334,32.20710241794586L175,35.25030337333679L176.16666666666666,34.43877960205078L177.33333333333331,27.54088029384613L178.5,28.555271821022032L179.66666666666669,24.091917452812194L180.83333333333334,27.338012537956235L182,29.366795592308044L183.16666666666666,26.932250652313233L184.33333333333334,27.74374804973602L185.5,30.989843134880065L186.66666666666666,28.149509935379026L187.83333333333331,26.729356522560117L189,23.280420055389403L190.16666666666669,20.84584874153137L191.33333333333334,23.280420055389403L192.5,30.178319363594053L193.66666666666666,22.46889628410339L194.83333333333331,22.874658169746397L196,15.165235090255736L197.16666666666669,14.150843563079833L198.33333333333334,21.657372512817382L199.5,24.4976793384552L200.66666666666666,19.628589458465576L201.83333333333334,23.68618194103241L203,15.165235090255736L204.16666666666666,18.208436045646668L205.33333333333331,14.962367334365844L206.5,18.005541915893552L207.66666666666669,14.556605448722838L208.83333333333334,15.165235090255736L210,10.701880722045898L211.16666666666666,17.194018144607544L212.33333333333331,14.759473204612732L213.5,16.78828263282776L214.66666666666669,15.165235090255736L215.83333333333334,10.296118836402892L217,11.919166378974914L218.16666666666666,16.78828263282776L219.33333333333334,9.484621438980103L220.5,11.513404493331908L221.66666666666666,3.8039814138412473L222.83333333333331,16.99115038871765L224,12.933557906150817L225.16666666666669,6.035658597946167L226.33333333333334,22.46889628410339L227.5,10.296118836402892L228.66666666666666,14.150843563079833L229.83333333333331,12.730690150260925L231,10.093251080513L232.16666666666669,14.759473204612732L233.33333333333334,9.890383324623107L234.5,7.455812010765075L235.66666666666666,4.412637429237366L236.83333333333334,10.904774851799012L238,13.94794943332672L239.16666666666666,8.470203537940979L240.33333333333331,12.730690150260925L241.5,7.861573896408081L242.66666666666669,11.107642607688904L243.83333333333334,-0.05071693897247314L245,6.6442882394790646L246.16666666666666,5.021267070770263L247.33333333333331,5.832790842056274L248.5,11.310536737442016L249.66666666666669,5.629896712303161L250.83333333333334,7.252944254875183L252,1.572304229736328L253.16666666666666,0.1521508169174194L254.33333333333334,6.23855272769928L255.5,2.5867221307754513" style="fill: none;" fill="none"></path></g><g><path stroke="rgb(0, 119, 187)" stroke-width="2px" d="M28,193.90200064897536L29.166666666666668,174.83133708000182L30.333333333333336,181.12059355974196L31.5,171.3823874258995L32.666666666666664,169.7593530702591L33.833333333333336,175.64284766435622L35,171.7881493115425L36.16666666666667,164.07872623205185L37.333333333333336,176.86013332128525L38.5,169.5564721274376L39.666666666666664,164.68736906051635L40.833333333333336,165.09311775922774L42,163.87584528923034L43.16666666666667,163.06433470487593L44.33333333333333,162.25281093358993L45.5,158.6009803366661L46.666666666666664,165.70176058769226L47.833333333333336,160.2240146923065L49,164.28160717487333L50.166666666666664,160.2240146923065L51.33333333333333,148.4570123171806L52.5,157.5865888094902L53.66666666666667,159.615371863842L54.833333333333336,153.52899632692336L56,148.65989326000212L57.166666666666664,148.05125043153762L58.333333333333336,148.25413137435913L59.5,141.15335112333298L60.66666666666667,140.74758923768997L61.83333333333333,140.34184053897857L63,130.400740275383L64.16666666666666,131.212264046669L65.33333333333333,119.0394997859001L66.5,120.25677225589752L67.66666666666667,113.35887294769286L68.83333333333333,108.69265082359313L70,112.34448142051696L71.16666666666666,119.85101037025451L72.33333333333334,110.11280423641205L73.5,102.80914304256439L74.66666666666667,100.78035998821258L75.83333333333333,99.76594208717346L77,109.90991010665893L78.16666666666667,106.05521175384521L79.33333333333333,106.66384139537811L80.5,85.97014347076416L81.66666666666667,92.25941313743591L82.83333333333333,93.47669879436492L84,90.02773595333099L85.16666666666666,103.41777268409729L86.33333333333334,100.98322774410248L87.5,88.81045029640197L88.66666666666666,91.65078349590301L89.83333333333334,94.28819619178772L91,79.88376793384552L92.16666666666667,92.8680427789688L93.33333333333333,87.99895289897918L94.5,86.37590535640716L95.66666666666667,87.79605876922606L96.83333333333333,72.78300086975098L98,87.18742912769318L99.16666666666667,87.79605876922606L100.33333333333333,77.6520907497406L101.5,77.0434611082077L102.66666666666666,85.36151382923126L103.83333333333334,75.21754580974579L105,71.76858296871185L106.16666666666666,76.63769922256469L107.33333333333334,74.81178392410278L108.5,73.79739239692688L109.66666666666667,73.59449826717376L110.83333333333333,77.85498487949371L112,60.813091177940365L113.16666666666667,68.72540838718415L114.33333333333333,72.78300086975098L115.5,60.204461536407464L116.66666666666667,68.11675237178802L117.83333333333333,69.73979991436005L119,63.45053024768829L120.16666666666666,67.91388461589813L121.33333333333334,64.05918626308441L122.5,61.01598530769348L123.66666666666666,61.01598530769348L124.83333333333334,57.36415471076965L126,61.01598530769348L127.16666666666667,56.55263093948364L128.33333333333331,61.21885306358337L129.5,57.97278435230255L130.66666666666666,58.37854623794556L131.83333333333334,61.421747193336486L133,64.4649217748642L134.16666666666669,52.90080034255981L135.33333333333334,49.24896974563598L136.5,47.017292561531065L137.66666666666666,47.62594857692718L138.83333333333334,57.97278435230255L140,51.88640881538391L141.16666666666666,45.19137726306915L142.33333333333331,44.37987986564636L143.5,42.14820268154144L144.66666666666669,52.0892765712738L145.83333333333334,53.103694472312924L147,50.872017288208006L148.16666666666666,48.03171046257019L149.33333333333334,42.959726452827454L150.5,46.814424805641174L151.66666666666666,40.32228738307953L152.83333333333331,49.04610198974609L154,43.56835609436035L155.16666666666669,35.45317112922668L156.33333333333334,36.264694900512694L157.5,39.307895855903624L158.66666666666666,43.974117980003356L159.83333333333331,34.84454148769378L161,39.10500172615051L162.16666666666669,44.98850950717926L163.33333333333334,39.307895855903624L164.5,39.510763611793514L165.66666666666666,32.409996547698974L166.83333333333334,35.45317112922668L168,27.946642179489135L169.16666666666666,30.381187119483947L170.33333333333331,33.42438807487488L171.5,27.338012537956235L172.66666666666669,36.264694900512694L173.83333333333334,33.42438807487488L175,30.58408124923706L176.16666666666666,44.78564175128937L177.33333333333331,33.42438807487488L178.5,32.409996547698974L179.66666666666669,32.409996547698974L180.83333333333334,32.815732059478755L182,26.12072688102722L183.16666666666666,36.061827144622804L184.33333333333334,30.381187119483947L185.5,30.58408124923706L186.66666666666666,30.178319363594053L187.83333333333331,23.280420055389403L189,31.59847277641296L190.16666666666669,25.714964995384214L191.33333333333334,29.16392783641815L192.5,23.68618194103241L193.66666666666666,21.860266642570494L194.83333333333331,25.106335353851318L196,33.83014996051788L197.16666666666669,32.815732059478755L198.33333333333334,30.786949005126953L199.5,19.01993344306946L200.66666666666666,27.946642179489135L201.83333333333334,25.512097239494324L203,27.135118408203123L204.16666666666666,22.671764039993285L205.33333333333331,27.74374804973602L206.5,25.30920310974121L207.66666666666669,22.46889628410339L208.83333333333334,22.063134398460388L210,31.59847277641296L211.16666666666666,28.758165950775144L212.33333333333331,26.932250652313233L213.5,20.237219099998473L214.66666666666669,14.353711318969726L215.83333333333334,19.01993344306946L217,23.280420055389403L218.16666666666666,20.84584874153137L219.33333333333334,25.714964995384214L220.5,15.570996975898742L221.66666666666666,14.962367334365844L222.83333333333331,13.745081677436827L224,25.106335353851318L225.16666666666669,12.933557906150817L226.33333333333334,16.382520747184753L227.5,20.440113229751585L228.66666666666666,22.46889628410339L229.83333333333331,26.729356522560117L231,14.962367334365844L232.16666666666669,16.17962661743164L233.33333333333334,17.396912274360655L234.5,19.628589458465576L235.66666666666666,14.353711318969726L236.83333333333334,3.8039814138412473L238,17.59978003025055L239.16666666666666,15.570996975898742L240.33333333333331,10.093251080513L241.5,18.208436045646668L242.66666666666669,24.903441224098206L243.83333333333334,8.67309766769409L245,8.267335782051086L246.16666666666666,6.6442882394790646L247.33333333333331,7.658706140518188L248.5,18.61419793128967L249.66666666666669,13.13645203590393L250.83333333333334,9.281727309226989L252,5.224134826660156L253.16666666666666,6.035658597946167L254.33333333333334,19.628589458465576L255.5,15.570996975898742" style="fill: none;" fill="none"></path></g><g><path stroke="rgb(255, 112, 67)" stroke-width="2px" d="M26.833333333333336,177.87452484846114L28,175.23709896564483L29.166666666666668,161.238419406414L30.333333333333336,153.32611538410185L31.5,161.238419406414L32.666666666666664,141.964874894619L33.833333333333336,138.11016335487366L35,153.32611538410185L36.16666666666667,138.92167393922804L37.333333333333336,136.48712899923325L38.5,129.1834678053856L39.666666666666664,133.0381793451309L40.833333333333336,134.2554518151283L42,138.11016335487366L43.16666666666667,126.34316097974776L44.33333333333333,122.28556849718093L45.5,145.0080626630783L46.666666666666664,121.67692566871642L47.833333333333336,120.25677225589752L49,124.51724568128586L50.166666666666664,112.95311106204986L51.33333333333333,124.11148379564284L52.5,113.96751577615737L53.66666666666667,115.18478824615478L54.833333333333336,117.8222141289711L56,115.79343107461929L57.166666666666664,121.27116378307342L58.333333333333336,122.28556849718093L59.5,113.35887294769286L60.66666666666667,105.2436879825592L61.83333333333333,115.38766918897628L63,110.11280423641205L64.16666666666666,107.67825929641722L65.33333333333333,107.67825929641722L66.5,102.60627528667449L67.66666666666667,104.43219058513641L68.83333333333333,100.98322774410248L70,111.73583859205246L71.16666666666666,93.88246068000792L72.33333333333334,93.27380466461182L73.5,107.67825929641722L74.66666666666667,98.75155055999755L75.83333333333333,91.4478893661499L77,98.14292091846465L78.16666666666667,91.04212748050689L79.33333333333333,97.94002678871155L80.5,95.09971996307372L81.66666666666667,86.17303760051726L82.83333333333333,99.36018020153045L84,98.14292091846465L85.16666666666666,98.54868280410766L86.33333333333334,102.60627528667449L87.5,101.79475151538848L88.66666666666666,100.37459810256958L89.83333333333334,103.41777268409729L91,87.99895289897918L92.16666666666667,78.6664822769165L93.33333333333333,87.59319101333618L94.5,84.95575194358825L95.66666666666667,94.89685220718383L96.83333333333333,78.26074676513672L98,80.89815946102142L99.16666666666667,76.02906958103179L100.33333333333333,81.91255098819732L101.5,77.6520907497406L102.66666666666666,72.78300086975098L103.83333333333334,65.88510156154632L105,75.62330769538879L106.16666666666666,72.37723898410796L107.33333333333334,67.50812273025512L108.5,75.42041356563568L109.66666666666667,69.94266767024993L110.83333333333333,63.856292133331294L112,80.49239757537842L113.16666666666667,69.33403802871703L114.33333333333333,63.653424377441404L115.5,77.6520907497406L116.66666666666667,74.00026015281676L117.83333333333333,68.11675237178802L119,61.01598530769348L120.16666666666666,56.755525069236754L121.33333333333334,72.17434485435486L122.5,63.653424377441404L123.66666666666666,60.813091177940365L124.83333333333334,64.6678159046173L126,59.59583189487457L127.16666666666667,60.40735566616058L128.33333333333331,63.856292133331294L129.5,56.14686905384063L130.66666666666666,54.523847885131836L131.83333333333334,68.31964650154113L133,56.14686905384063L134.16666666666669,49.451863875389094L135.33333333333334,66.89949308872222L136.5,56.55263093948364L137.66666666666666,55.53823941230774L138.83333333333334,48.84320785999298L140,51.68354105949402L141.16666666666666,50.669123158454894L142.33333333333331,50.872017288208006L143.5,50.466255402565L144.66666666666669,61.421747193336486L145.83333333333334,45.59713914871215L147,44.17698573589325L148.16666666666666,54.523847885131836L149.33333333333334,43.365461964607235L150.5,52.69793258666992L151.66666666666666,40.119393253326415L152.83333333333331,49.04610198974609L154,42.35107043743133L155.16666666666669,46.814424805641174L156.33333333333334,45.80003327846527L157.5,42.14820268154144L158.66666666666666,37.076218671798706L159.83333333333331,47.42305444717407L161,48.23457821846008L162.16666666666669,37.076218671798706L163.33333333333334,44.37987986564636L164.5,37.88774244308471L165.66666666666666,45.39427139282226L166.83333333333334,42.959726452827454L168,35.25030337333679L169.16666666666666,32.815732059478755L170.33333333333331,34.64164735794067L171.5,32.815732059478755L172.66666666666669,40.52515513896942L173.83333333333334,41.53954666614532L175,43.974117980003356L176.16666666666666,34.23591184616089L177.33333333333331,41.94530855178833L178.5,29.569663348197935L179.66666666666669,33.62725583076477L180.83333333333334,26.729356522560117L182,35.04740924358368L183.16666666666666,34.23591184616089L184.33333333333334,37.076218671798706L185.5,27.74374804973602L186.66666666666666,38.2934779548645L187.83333333333331,32.20710241794586L189,26.526488766670226L190.16666666666669,28.555271821022032L191.33333333333334,26.12072688102722L192.5,24.091917452812194L193.66666666666666,28.555271821022032L194.83333333333331,29.772557477951047L196,28.352404065132138L197.16666666666669,19.628589458465576L198.33333333333334,23.483287811279297L199.5,21.048742871284485L200.66666666666666,36.6704567861557L201.83333333333334,25.714964995384214L203,26.323594636917115L204.16666666666666,27.135118408203123L205.33333333333331,17.396912274360655L206.5,24.903441224098206L207.66666666666669,20.84584874153137L208.83333333333334,29.97542523384094L210,27.54088029384613L211.16666666666666,26.932250652313233L212.33333333333331,26.729356522560117L213.5,18.61419793128967L214.66666666666669,28.352404065132138L215.83333333333334,26.526488766670226L217,18.208436045646668L218.16666666666666,29.569663348197935L219.33333333333334,24.091917452812194L220.5,15.773864731788635L221.66666666666666,21.657372512817382L222.83333333333331,20.440113229751585L224,26.12072688102722L225.16666666666669,18.005541915893552L226.33333333333334,23.280420055389403L227.5,20.84584874153137L228.66666666666666,19.22282757282257L229.83333333333331,18.61419793128967L231,16.78828263282776L232.16666666666669,17.396912274360655L233.33333333333334,14.150843563079833L234.5,21.454504756927488L235.66666666666666,18.208436045646668L236.83333333333334,14.962367334365844L238,14.556605448722838L239.16666666666666,15.368102846145629L240.33333333333331,25.106335353851318L241.5,14.962367334365844L242.66666666666669,24.4976793384552L243.83333333333334,17.59978003025055L245,13.13645203590393L246.16666666666666,11.513404493331908L247.33333333333331,17.396912274360655L248.5,8.064468026161194L249.66666666666669,18.411303801536558L250.83333333333334,18.005541915893552L252,9.687489194869995L253.16666666666666,11.919166378974914L254.33333333333334,12.933557906150817L255.5,13.745081677436827" style="fill: none;" fill="none"></path></g></g></g></g></g></g><g transform="translate(50, 176)" clip-path="url(#clip_1)"><clipPath id="clip_1"><rect width="279" height="22"></rect></clipPath><g><g><line x1="0" y1="0" x2="0" y2="5" style="visibility: inherit;" fill="rgb(0, 0, 0)" stroke="rgb(204, 204, 204)" stroke-width="1px"></line><line x1="23.333333333333332" y1="0" x2="23.333333333333332" y2="5" style="visibility: inherit;" fill="rgb(0, 0, 0)" stroke="rgb(204, 204, 204)" stroke-width="1px"></line><line x1="46.666666666666664" y1="0" x2="46.666666666666664" y2="5" style="visibility: inherit;" fill="rgb(0, 0, 0)" stroke="rgb(204, 204, 204)" stroke-width="1px"></line><line x1="70" y1="0" x2="70" y2="5" style="visibility: inherit;" fill="rgb(0, 0, 0)" stroke="rgb(204, 204, 204)" stroke-width="1px"></line><line x1="93.33333333333333" y1="0" x2="93.33333333333333" y2="5" style="visibility: inherit;" fill="rgb(0, 0, 0)" stroke="rgb(204, 204, 204)" stroke-width="1px"></line><line x1="116.66666666666667" y1="0" x2="116.66666666666667" y2="5" style="visibility: inherit;" fill="rgb(0, 0, 0)" stroke="rgb(204, 204, 204)" stroke-width="1px"></line><line x1="140" y1="0" x2="140" y2="5" style="visibility: inherit;" fill="rgb(0, 0, 0)" stroke="rgb(204, 204, 204)" stroke-width="1px"></line><line x1="163.33333333333334" y1="0" x2="163.33333333333334" y2="5" style="visibility: inherit;" fill="rgb(0, 0, 0)" stroke="rgb(204, 204, 204)" stroke-width="1px"></line><line x1="186.66666666666666" y1="0" x2="186.66666666666666" y2="5" style="visibility: inherit;" fill="rgb(0, 0, 0)" stroke="rgb(204, 204, 204)" stroke-width="1px"></line><line x1="210" y1="0" x2="210" y2="5" style="visibility: inherit;" fill="rgb(0, 0, 0)" stroke="rgb(204, 204, 204)" stroke-width="1px"></line><line x1="233.33333333333334" y1="0" x2="233.33333333333334" y2="5" style="visibility: inherit;" fill="rgb(0, 0, 0)" stroke="rgb(204, 204, 204)" stroke-width="1px"></line><line x1="256.66666666666663" y1="0" x2="256.66666666666663" y2="5" style="visibility: inherit;" fill="rgb(0, 0, 0)" stroke="rgb(204, 204, 204)" stroke-width="1px"></line><line x1="280" y1="0" x2="280" y2="5" style="visibility: inherit;" fill="rgb(0, 0, 0)" stroke="rgb(204, 204, 204)" stroke-width="1px"></line></g><g transform="translate(0, 8)"><text x="0" y="0" dx="0em" dy="0.95em" style="text-anchor: middle; visibility: hidden; font-family: Roboto, sans-serif; font-size: 12px; font-weight: 200;" fill="rgb(33, 33, 33)" stroke="none" stroke-width="1px">-20</text><text x="23.333333333333332" y="0" dx="0em" dy="0.95em" style="text-anchor: middle; visibility: inherit; font-family: Roboto, sans-serif; font-size: 12px; font-weight: 200;" fill="rgb(33, 33, 33)" stroke="none" stroke-width="1px">0</text><text x="46.666666666666664" y="0" dx="0em" dy="0.95em" style="text-anchor: middle; visibility: hidden; font-family: Roboto, sans-serif; font-size: 12px; font-weight: 200;" fill="rgb(33, 33, 33)" stroke="none" stroke-width="1px">20</text><text x="70" y="0" dx="0em" dy="0.95em" style="text-anchor: middle; visibility: inherit; font-family: Roboto, sans-serif; font-size: 12px; font-weight: 200;" fill="rgb(33, 33, 33)" stroke="none" stroke-width="1px">40</text><text x="93.33333333333333" y="0" dx="0em" dy="0.95em" style="text-anchor: middle; visibility: hidden; font-family: Roboto, sans-serif; font-size: 12px; font-weight: 200;" fill="rgb(33, 33, 33)" stroke="none" stroke-width="1px">60</text><text x="116.66666666666667" y="0" dx="0em" dy="0.95em" style="text-anchor: middle; visibility: inherit; font-family: Roboto, sans-serif; font-size: 12px; font-weight: 200;" fill="rgb(33, 33, 33)" stroke="none" stroke-width="1px">80</text><text x="140" y="0" dx="0em" dy="0.95em" style="text-anchor: middle; visibility: hidden; font-family: Roboto, sans-serif; font-size: 12px; font-weight: 200;" fill="rgb(33, 33, 33)" stroke="none" stroke-width="1px">100</text><text x="163.33333333333334" y="0" dx="0em" dy="0.95em" style="text-anchor: middle; visibility: inherit; font-family: Roboto, sans-serif; font-size: 12px; font-weight: 200;" fill="rgb(33, 33, 33)" stroke="none" stroke-width="1px">120</text><text x="186.66666666666666" y="0" dx="0em" dy="0.95em" style="text-anchor: middle; visibility: hidden; font-family: Roboto, sans-serif; font-size: 12px; font-weight: 200;" fill="rgb(33, 33, 33)" stroke="none" stroke-width="1px">140</text><text x="210" y="0" dx="0em" dy="0.95em" style="text-anchor: middle; visibility: inherit; font-family: Roboto, sans-serif; font-size: 12px; font-weight: 200;" fill="rgb(33, 33, 33)" stroke="none" stroke-width="1px">160</text><text x="233.33333333333334" y="0" dx="0em" dy="0.95em" style="text-anchor: middle; visibility: hidden; font-family: Roboto, sans-serif; font-size: 12px; font-weight: 200;" fill="rgb(33, 33, 33)" stroke="none" stroke-width="1px">180</text><text x="256.66666666666663" y="0" dx="0em" dy="0.95em" style="text-anchor: middle; visibility: inherit; font-family: Roboto, sans-serif; font-size: 12px; font-weight: 200;" fill="rgb(33, 33, 33)" stroke="none" stroke-width="1px">200</text><text x="280" y="0" dx="0em" dy="0.95em" style="text-anchor: middle; visibility: hidden; font-family: Roboto, sans-serif; font-size: 12px; font-weight: 200;" fill="rgb(33, 33, 33)" stroke="none" stroke-width="1px">220</text></g><line x1="0" y1="0" x2="280" y2="0" fill="rgb(0, 0, 0)" stroke="rgb(204, 204, 204)" stroke-width="1px"></line></g></g></g></g></svg>