<svg viewBox="0 0 330 199.9921875" xmlns="http://www.w3.org/2000/svg"><g><g><g><g><g><line x1="50" y1="176.992" x2="45" y2="176.992" style="visibility: inherit;" fill="rgb(0, 0, 0)" stroke="rgb(204, 204, 204)" stroke-width="1px"></line><line x1="50" y1="151.70742857142852" x2="45" y2="151.70742857142852" style="visibility: inherit;" fill="rgb(0, 0, 0)" stroke="rgb(204, 204, 204)" stroke-width="1px"></line><line x1="50" y1="126.42285714285713" x2="45" y2="126.42285714285713" style="visibility: inherit;" fill="rgb(0, 0, 0)" stroke="rgb(204, 204, 204)" stroke-width="1px"></line><line x1="50" y1="101.1382857142857" x2="45" y2="101.1382857142857" style="visibility: inherit;" fill="rgb(0, 0, 0)" stroke="rgb(204, 204, 204)" stroke-width="1px"></line><line x1="50" y1="75.85371428571425" x2="45" y2="75.85371428571425" style="visibility: inherit;" fill="rgb(0, 0, 0)" stroke="rgb(204, 204, 204)" stroke-width="1px"></line><line x1="50" y1="50.56914285714285" x2="45" y2="50.56914285714285" style="visibility: inherit;" fill="rgb(0, 0, 0)" stroke="rgb(204, 204, 204)" stroke-width="1px"></line><line x1="50" y1="25.284571428571397" x2="45" y2="25.284571428571397" style="visibility: inherit;" fill="rgb(0, 0, 0)" stroke="rgb(204, 204, 204)" stroke-width="1px"></line><line x1="50" y1="0" x2="45" y2="0" style="visibility: inherit;" fill="rgb(0, 0, 0)" stroke="rgb(204, 204, 204)" stroke-width="1px"></line></g><g transform="translate(40, 0)"><text x="0" y="176.992" dx="0em" dy="0.3em" style="text-anchor: end; visibility: hidden; font-family: Roboto, sans-serif; font-size: 12px; font-weight: 200;" fill="rgb(33, 33, 33)" stroke="none" stroke-width="1px">0.35</text><text x="0" y="151.70742857142852" dx="0em" dy="0.3em" style="text-anchor: end; visibility: inherit; font-family: Roboto, sans-serif; font-size: 12px; font-weight: 200;" fill="rgb(33, 33, 33)" stroke="none" stroke-width="1px">0.4</text><text x="0" y="126.42285714285713" dx="0em" dy="0.3em" style="text-anchor: end; visibility: inherit; font-family: Roboto, sans-serif; font-size: 12px; font-weight: 200;" fill="rgb(33, 33, 33)" stroke="none" stroke-width="1px">0.45</text><text x="0" y="101.1382857142857" dx="0em" dy="0.3em" style="text-anchor: end; visibility: inherit; font-family: Roboto, sans-serif; font-size: 12px; font-weight: 200;" fill="rgb(33, 33, 33)" stroke="none" stroke-width="1px">0.5</text><text x="0" y="75.85371428571425" dx="0em" dy="0.3em" style="text-anchor: end; visibility: inherit; font-family: Roboto, sans-serif; font-size: 12px; font-weight: 200;" fill="rgb(33, 33, 33)" stroke="none" stroke-width="1px">0.55</text><text x="0" y="50.56914285714285" dx="0em" dy="0.3em" style="text-anchor: end; visibility: inherit; font-family: Roboto, sans-serif; font-size: 12px; font-weight: 200;" fill="rgb(33, 33, 33)" stroke="none" stroke-width="1px">0.6</text><text x="0" y="25.284571428571397" dx="0em" dy="0.3em" style="text-anchor: end; visibility: inherit; font-family: Roboto, sans-serif; font-size: 12px; font-weight: 200;" fill="rgb(33, 33, 33)" stroke="none" stroke-width="1px">0.65</text><text x="0" y="0" dx="0em" dy="0.3em" style="text-anchor: end; visibility: hidden; font-family: Roboto, sans-serif; font-size: 12px; font-weight: 200;" fill="rgb(33, 33, 33)" stroke="none" stroke-width="1px">0.7</text></g><line x1="50" y1="0" x2="50" y2="176.992" fill="rgb(0, 0, 0)" stroke="rgb(204, 204, 204)" stroke-width="1px"></line></g></g><g transform="translate(50, 0)" clip-path="url(#clip_0)"><clipPath id="clip_0"><rect width="279" height="176"></rect></clipPath><g><g><g><line x1="0" y1="0" x2="0" y2="176.992" fill="rgb(0, 0, 0)" stroke="rgb(66, 66, 66)" stroke-width="1px" opacity="0.25"></line><line x1="23.333333333333332" y1="0" x2="23.333333333333332" y2="176.992" fill="rgb(0, 0, 0)" stroke="rgb(66, 66, 66)" stroke-width="1px" opacity="0.25"></line><line x1="46.666666666666664" y1="0" x2="46.666666666666664" y2="176.992" fill="rgb(0, 0, 0)" stroke="rgb(66, 66, 66)" stroke-width="1px" opacity="0.25"></line><line x1="70" y1="0" x2="70" y2="176.992" fill="rgb(0, 0, 0)" stroke="rgb(66, 66, 66)" stroke-width="1px" opacity="0.25"></line><line x1="93.33333333333333" y1="0" x2="93.33333333333333" y2="176.992" fill="rgb(0, 0, 0)" stroke="rgb(66, 66, 66)" stroke-width="1px" opacity="0.25"></line><line x1="116.66666666666667" y1="0" x2="116.66666666666667" y2="176.992" fill="rgb(0, 0, 0)" stroke="rgb(66, 66, 66)" stroke-width="1px" opacity="0.25"></line><line x1="140" y1="0" x2="140" y2="176.992" fill="rgb(0, 0, 0)" stroke="rgb(66, 66, 66)" stroke-width="1px" opacity="0.25"></line><line x1="163.33333333333334" y1="0" x2="163.33333333333334" y2="176.992" fill="rgb(0, 0, 0)" stroke="rgb(66, 66, 66)" stroke-width="1px" opacity="0.25"></line><line x1="186.66666666666666" y1="0" x2="186.66666666666666" y2="176.992" fill="rgb(0, 0, 0)" stroke="rgb(66, 66, 66)" stroke-width="1px" opacity="0.25"></line><line x1="210" y1="0" x2="210" y2="176.992" fill="rgb(0, 0, 0)" stroke="rgb(66, 66, 66)" stroke-width="1px" opacity="0.25"></line><line x1="233.33333333333334" y1="0" x2="233.33333333333334" y2="176.992" fill="rgb(0, 0, 0)" stroke="rgb(66, 66, 66)" stroke-width="1px" opacity="0.25"></line><line x1="256.66666666666663" y1="0" x2="256.66666666666663" y2="176.992" fill="rgb(0, 0, 0)" stroke="rgb(66, 66, 66)" stroke-width="1px" opacity="0.25"></line><line x1="280" y1="0" x2="280" y2="176.992" fill="rgb(0, 0, 0)" stroke="rgb(66, 66, 66)" stroke-width="1px" opacity="0.25"></line></g><g><line x1="0" y1="176.992" x2="280" y2="176.992" fill="rgb(0, 0, 0)" stroke="rgb(66, 66, 66)" stroke-width="1px" opacity="0.25"></line><line x1="0" y1="151.70742857142852" x2="280" y2="151.70742857142852" fill="rgb(0, 0, 0)" stroke="rgb(66, 66, 66)" stroke-width="1px" opacity="0.25"></line><line x1="0" y1="126.42285714285713" x2="280" y2="126.42285714285713" fill="rgb(0, 0, 0)" stroke="rgb(66, 66, 66)" stroke-width="1px" opacity="0.25"></line><line x1="0" y1="101.1382857142857" x2="280" y2="101.1382857142857" fill="rgb(0, 0, 0)" stroke="rgb(66, 66, 66)" stroke-width="1px" opacity="0.25"></line><line x1="0" y1="75.85371428571425" x2="280" y2="75.85371428571425" fill="rgb(0, 0, 0)" stroke="rgb(66, 66, 66)" stroke-width="1px" opacity="0.25"></line><line x1="0" y1="50.56914285714285" x2="280" y2="50.56914285714285" fill="rgb(0, 0, 0)" stroke="rgb(66, 66, 66)" stroke-width="1px" opacity="0.25"></line><line x1="0" y1="25.284571428571397" x2="280" y2="25.284571428571397" fill="rgb(0, 0, 0)" stroke="rgb(66, 66, 66)" stroke-width="1px" opacity="0.25"></line><line x1="0" y1="0" x2="280" y2="0" fill="rgb(0, 0, 0)" stroke="rgb(66, 66, 66)" stroke-width="1px" opacity="0.25"></line></g></g></g><g><g><line x1="0" y1="353.984" x2="280" y2="353.984" fill="rgb(0, 0, 0)" stroke="rgb(153, 153, 153)" stroke-width="1.5px"></line></g></g><g><g><line x1="23.333333333333332" y1="0" x2="23.333333333333332" y2="176.992" fill="rgb(0, 0, 0)" stroke="rgb(153, 153, 153)" stroke-width="1.5px"></line></g></g><g><g><g><g><g><path stroke="rgb(51, 187, 238)" stroke-width="2px" d="M33.833333333333336,178.0043979689888L35,173.81415595525462L36.16666666666667,169.0790297949593L37.333333333333336,165.0373022575272L38.5,160.57365604436654L39.666666666666664,162.35155956283413L40.833333333333336,160.17077953646472L42,155.15227843686262L43.16666666666667,154.2750742950628L44.33333333333333,155.78931771070788L45.5,150.85466211429232L46.666666666666664,145.4825644923718L47.833333333333336,142.35212813718434L49,144.83293894904259L50.166666666666664,139.36551012458037L51.33333333333333,134.60114806629022L52.5,132.6699907926343L53.66666666666667,129.84188855522729L54.833333333333336,130.1854208866042L56,131.59722099822932L57.166666666666664,130.58940692992556L58.333333333333336,131.09765360887272L59.5,126.11614564045303L60.66666666666667,125.16762575058175L61.83333333333333,124.32028314440318L63,124.64657571871071L64.16666666666666,123.35843411924263L65.33333333333333,124.71868532345212L66.5,121.08307862027753L67.66666666666667,120.47837730954349L68.83333333333333,117.4259589916398L70,120.23175053042169L71.16666666666666,119.22562189391451L72.33333333333334,118.99292700787225L73.5,116.16370651878226L74.66666666666667,116.50656479417852L75.83333333333333,116.990510452683L77,114.12755244961195L78.16666666666667,113.89369477302817L79.33333333333333,114.03161688866876L80.5,116.15475469808136L81.66666666666667,111.30747773533795L82.83333333333333,108.77009385315304L84,106.78393565453969L85.16666666666666,106.42694487181454L86.33333333333334,106.2127504021797L87.5,104.22933429979618L88.66666666666666,103.5957580815342L89.83333333333334,104.97776619731808L91,102.46814849271748L92.16666666666667,100.86963832440762L93.33333333333333,100.93072750758404L94.5,101.43110285848458L95.66666666666667,99.13447611415599L96.83333333333333,99.14766559054296L98,100.45401128212121L99.16666666666667,99.1974341570552L100.33333333333333,98.25799673429316L101.5,96.21041715547891L102.66666666666666,95.63108239690764L103.83333333333334,92.13015614372836L105,90.21509153954337L106.16666666666666,92.5903484138906L107.33333333333334,89.47101161747845L108.5,90.10352194895042L109.66666666666667,91.13224113655076L110.83333333333333,91.10025966039376L112,90.98831917252673L113.16666666666667,89.43723775464953L114.33333333333333,85.63150625578218L115.5,88.35628011847702L116.66666666666667,86.83781903805748L117.83333333333333,90.37850582189975L119,88.42213675555615L120.16666666666666,91.14360530467646L121.33333333333334,84.15121437647913L122.5,81.53243649026736L123.66666666666666,79.2192172242734L124.83333333333334,76.99658152823731L126,76.31221309933285L127.16666666666667,76.82903572397962L128.33333333333331,73.52208205973652L129.5,73.67103997506484L130.66666666666666,71.62728461038769L131.83333333333334,71.79220897118863L133,73.56055980392549L134.16666666666669,75.27079534890801L135.33333333333334,75.83320277827964L136.5,70.32773033744772L137.66666666666666,68.60110354365513L138.83333333333334,63.29886723963128L140,63.64183315069838L141.16666666666666,65.33152982249558L142.33333333333331,66.6235785188461L143.5,68.88272486181339L144.66666666666669,69.31076898560434L145.83333333333334,65.7650450165021L147,64.56506637365332L148.16666666666666,65.60722700637324L149.33333333333334,62.42998499925156L150.5,61.172852783695724L151.66666666666666,59.39837817019997L152.83333333333331,64.08388281163099L154,63.09264720973601L155.16666666666669,55.17105976836388L156.33333333333334,53.29318995168171L157.5,54.57784092544195L158.66666666666666,56.09058404396497L159.83333333333331,57.36921221052375L161,57.02345428074712L162.16666666666669,55.51757354544676L163.33333333333334,53.130127979109595L164.5,48.72982638899337L165.66666666666666,46.36787612819581L166.83333333333334,44.76521482399479L168,46.307730450793315L169.16666666666666,48.80989649757908L170.33333333333331,47.89983531850417L171.5,46.79732516789167L172.66666666666669,49.01091378228842L173.83333333333334,49.597102360036395L175,47.908436994983845L176.16666666666666,46.52425548050733L177.33333333333331,55.15372276593064L178.5,52.54083521595488L179.66666666666669,49.860167856257476L180.83333333333334,46.675098713109215L182,47.45366078426196L183.16666666666666,42.91257320831526L184.33333333333334,42.32105077662142L185.5,42.615350306322306L186.66666666666666,45.945255422179244L187.83333333333331,40.98733470690336L189,42.37159410765908L190.16666666666669,36.61726825876747L191.33333333333334,39.93504538650005L192.5,37.28846913994619L193.66666666666666,39.874044074212556L194.83333333333331,39.7559807618929L196,39.963373467773266L197.16666666666669,38.78938311386708L198.33333333333334,37.15753316291079L199.5,35.807452953515195L200.66666666666666,34.06994908926524L201.83333333333334,36.644494009746325L203,38.652954859652866L204.16666666666666,37.53941010800019L205.33333333333331,35.75833637067341L206.5,33.113035457570724L207.66666666666669,33.844476171305836L208.83333333333334,37.15843530431115L210,37.01366861361696L211.16666666666666,35.16466078077135L212.33333333333331,31.180161376299715L213.5,30.18063931322397L214.66666666666669,34.12542905302226L215.83333333333334,37.69797727216282L217,32.51466012341209L218.16666666666666,36.91700706211924L219.33333333333334,34.1792201678833L220.5,34.02046515649869L221.66666666666666,34.48167353621226L222.83333333333331,32.99625074561126L224,29.971866957376495L225.16666666666669,26.58056795710586L226.33333333333334,29.36852222785932L227.5,32.432472369918735L228.66666666666666,32.69417372782458L229.83333333333331,32.57296384929588L231,30.27435620613165L232.16666666666669,27.967747938243722L233.33333333333334,28.62417354583544L234.5,29.01802891039049L235.66666666666666,33.52060235687184L236.83333333333334,33.25431217444675L238,34.20747289470363L239.16666666666666,32.1825173719889L240.33333333333331,31.2457747516322L241.5,26.046486656224836L242.66666666666669,30.346499424765142L243.83333333333334,29.216720301308584L245,26.776692952182312L246.16666666666666,29.207966531633023L247.33333333333331,26.029488156110087L248.5,25.699057801502946L249.66666666666669,27.91217245250821L250.83333333333334,23.67534298130541L252,32.44812091329495L253.16666666666666,30.01395929680857L254.33333333333334,23.08151566728366L255.5,19.942244773730973" style="fill: none;" fill="none"></path></g><g><path stroke="rgb(204, 51, 17)" stroke-width="2px" d="M23.333333333333332,169.1898305931091L24.5,178.6092370037351L29.166666666666668,178.99681689902468L30.333333333333336,176.487706497182L31.5,172.00942101084166L32.666666666666664,166.1856521483852L33.833333333333336,162.07601863201452L35,153.57583541558895L36.16666666666667,148.03076562091013L37.333333333333336,146.38305039652616L38.5,146.7880622277646L39.666666666666664,138.5871150702119L40.833333333333336,135.52443814367294L42,134.8005082951435L43.16666666666667,131.5836031118235L44.33333333333333,129.00441052794147L45.5,127.27150366599304L46.666666666666664,119.36852530015781L47.833333333333336,123.25224085200988L49,124.37674151363217L50.166666666666664,124.77319818706309L51.33333333333333,121.3940134664081L52.5,122.24160236341905L53.66666666666667,114.03212822194529L54.833333333333336,113.37271799049871L56,115.20294861866661L57.166666666666664,115.5591278373704L58.333333333333336,118.09145688734654L59.5,118.8688954807283L60.66666666666667,115.25458329395575L61.83333333333333,113.36423282190579L63,112.23002257333867L64.16666666666666,107.19048456179516L65.33333333333333,110.38066704880347L66.5,109.79067013806714L67.66666666666667,104.89216900525905L68.83333333333333,102.32405062849965L70,108.57374753211931L71.16666666666666,109.72670768665293L72.33333333333334,105.41026498724514L73.5,101.98569523181379L74.66666666666667,102.34232021464328L75.83333333333333,102.64904077818427L77,103.76051679832077L78.16666666666667,100.8103551712637L79.33333333333333,103.12103330346423L80.5,102.28156449501121L81.66666666666667,101.6851316077704L82.83333333333333,100.30707659126254L84,99.57299518353342L85.16666666666666,103.12057587337713L86.33333333333334,104.69265687242468L87.5,101.64786990906329L88.66666666666666,103.53079657225202L89.83333333333334,96.68449350121162L91,97.86316717049894L92.16666666666667,94.21135954214992L93.33333333333333,90.44361829443392L94.5,92.0782514781078L95.66666666666667,90.27668828572065L96.83333333333333,91.14338933644004L98,91.38517927359952L99.16666666666667,86.24379772398461L100.33333333333333,87.23973787424153L101.5,84.49848541863669L102.66666666666666,81.64805957001228L103.83333333333334,86.33719440246L105,84.51343277873535L106.16666666666666,77.29801615615024L107.33333333333334,79.1826774331223L108.5,80.31347419930559L109.66666666666667,79.3225439861361L110.83333333333333,79.28444724477873L112,76.75747679064514L113.16666666666667,79.5075668025365L114.33333333333333,77.63331311618987L115.5,76.13777860893681L116.66666666666667,76.72437502974195L117.83333333333333,76.51985943905746L119,73.4293158343329L120.16666666666666,70.2765636940637L121.33333333333334,70.98177642139427L122.5,70.01372647818533L123.66666666666666,70.73132248969439L124.83333333333334,73.57325296036939L126,71.66135194712007L127.16666666666667,69.21578536173604L128.33333333333331,70.0670666721023L129.5,66.12608408285125L130.66666666666666,67.28580222278202L131.83333333333334,64.82830770870409L133,59.27302986360831L134.16666666666669,57.794762577152824L135.33333333333334,60.89583173975571L136.5,57.28452657768433L137.66666666666666,56.2306783101534L138.83333333333334,57.63875991795935L140,57.27792245075816L141.16666666666666,56.0412246862752L142.33333333333331,53.815288902428456L143.5,55.81854397787938L144.66666666666669,57.76246161403999L145.83333333333334,54.940782661260194L147,55.65913609673867L148.16666666666666,54.51349148731914L149.33333333333334,54.939039551379345L150.5,54.452415855548566L151.66666666666666,53.047494751715L152.83333333333331,51.46258955514797L154,51.346350573647506L155.16666666666669,48.58700362770556L156.33333333333334,47.30237775558538L157.5,46.53160223231328L158.66666666666666,46.996580600339385L159.83333333333331,46.81184578016038L161,44.01140133101127L162.16666666666669,45.11347776411313L163.33333333333334,50.41196614716765L164.5,47.84088182409513L165.66666666666666,45.55627869598469L166.83333333333334,41.49591326207668L168,40.543611126888806L169.16666666666666,38.488312720619206L170.33333333333331,38.646299199841536L171.5,34.1966001663544L172.66666666666669,41.63596992908861L173.83333333333334,39.236467547488765L175,40.208138982298344L176.16666666666666,39.77094655902182L177.33333333333331,42.47646535536985L178.5,41.78115537158196L179.66666666666669,39.416330415157596L180.83333333333334,39.11037027101489L182,41.89462843484312L183.16666666666666,40.04087563965866L184.33333333333334,41.89645821286189L185.5,37.816103847046065L186.66666666666666,35.73886146637843L187.83333333333331,39.037019015621524L189,35.26573619226212L190.16666666666669,33.65217948696369L191.33333333333334,35.46638856637606L192.5,37.111387457191L193.66666666666666,36.79994875762231L194.83333333333331,31.697612321415594L196,37.817955960528636L197.16666666666669,33.14312077959907L198.33333333333334,30.33821967104142L199.5,32.92153923365511L200.66666666666666,29.74154890248033L201.83333333333334,33.30550136340852L203,31.084861010044285L204.16666666666666,33.27678449150718L205.33333333333331,33.0152698530551L206.5,36.84639060446001L207.66666666666669,34.13685029328777L208.83333333333334,34.27327392501354L210,31.016311558290077L211.16666666666666,31.102524706580464L212.33333333333331,26.60974961791098L213.5,27.160161564918603L214.66666666666669,28.41785241511257L215.83333333333334,30.285401754940857L217,30.385736074675588L218.16666666666666,28.405558154815132L219.33333333333334,25.64078267556904L220.5,24.909373126633984L221.66666666666666,20.297006715074293L222.83333333333331,25.598385482640406L224,27.388047220196015L225.16666666666669,25.957731853410134L226.33333333333334,25.192282178888284L227.5,22.692621805850678L228.66666666666666,23.696937991347337L229.83333333333331,22.722871031938684L231,22.602152697288226L232.16666666666669,23.642656526209826L233.33333333333334,18.053059629662812L234.5,21.469674128802104L235.66666666666666,21.664743407683755L236.83333333333334,18.350228883704123L238,20.72051994261435L239.16666666666666,24.36857629400745L240.33333333333331,20.621741604215583L241.5,22.547161472539123L242.66666666666669,20.27084524560145L243.83333333333334,22.800345498365328L245,20.79373795654217L246.16666666666666,19.404282283725742L247.33333333333331,20.425508300637933L248.5,22.429421490392528L249.66666666666669,23.8172605519678L250.83333333333334,24.00073894357254L252,22.719660455551253L253.16666666666666,19.261409805696818L254.33333333333334,19.13409838193581L255.5,18.315758993412338" style="fill: none;" fill="none"></path></g><g><path stroke="rgb(0, 119, 187)" stroke-width="2px" d="M26.833333333333336,181.84593091478666L28,176.25608480724344L29.166666666666668,171.63743258446556L30.333333333333336,164.42816434196055L31.5,164.2901278188796L32.666666666666664,158.02533001241312L33.833333333333336,155.05357555610843L35,157.75002596328858L36.16666666666667,153.41300431215404L37.333333333333336,151.0025689971959L38.5,147.70197612972925L39.666666666666664,141.82616021022767L40.833333333333336,138.48797676011475L42,137.96983784983553L43.16666666666667,137.9372756218421L44.33333333333333,134.6714716152188L45.5,134.1960879605702L46.666666666666664,127.32584294698992L47.833333333333336,126.54264685995447L49,123.1048781168809L50.166666666666664,119.83654812996852L51.33333333333333,122.60556159385452L52.5,125.56539282616683L53.66666666666667,121.7765904053258L54.833333333333336,120.2452704528277L56,115.06021125517475L57.166666666666664,112.69113568588953L58.333333333333336,113.21733593231997L59.5,108.06110291206896L60.66666666666667,109.8828488703661L61.83333333333333,113.20177214117896L63,110.83411413795271L64.16666666666666,110.80469695602254L65.33333333333333,113.01292234856919L66.5,110.72080429457746L67.66666666666667,111.66416076270352L68.83333333333333,104.34685510829338L70,101.90411068962116L71.16666666666666,102.84983690460169L72.33333333333334,99.05826080211895L73.5,99.75114939215803L74.66666666666667,99.51766955731993L75.83333333333333,97.15171199686995L77,97.67977642691893L78.16666666666667,97.3474020962039L79.33333333333333,89.63564026972078L80.5,87.4199560376865L81.66666666666667,92.02621399913397L82.83333333333333,92.1931047644885L84,98.69264162195776L85.16666666666666,94.61630466747147L86.33333333333334,86.04934284642827L87.5,89.34894666375591L88.66666666666666,90.21577412443959L89.83333333333334,97.4134976640568L91,96.90939208859864L92.16666666666667,88.90911242426648L93.33333333333333,90.13736472846826L94.5,85.77333969017796L95.66666666666667,82.32022053076406L96.83333333333333,79.22815375095354L98,75.14704402364337L99.16666666666667,74.27503485796389L100.33333333333333,74.12281165400128L101.5,73.84598658390121L102.66666666666666,76.83321693987759L103.83333333333334,69.81479194807129L105,68.29334051002934L106.16666666666666,66.45302596521472L107.33333333333334,65.99805022704318L108.5,70.45504685288326L109.66666666666667,70.3469017257959L110.83333333333333,69.54005005865343L112,71.09632962669248L113.16666666666667,70.45344069680927L114.33333333333333,69.51123389571178L115.5,69.50238325822085L116.66666666666667,65.60178288679982L117.83333333333333,64.93083093682668L119,67.58884561932955L120.16666666666666,67.5142461559518L121.33333333333334,63.20321419355361L122.5,63.21345902760675L123.66666666666666,61.55019765515919L124.83333333333334,59.71753669525093L126,62.142247812787396L127.16666666666667,62.11315735815236L128.33333333333331,60.79726505131369L129.5,61.76988954226284L130.66666666666666,59.29287838434555L131.83333333333334,58.91960651930708L133,58.046430411566824L134.16666666666669,56.78057221265576L135.33333333333334,51.569305917838264L136.5,47.60784200450805L137.66666666666666,53.11427112328937L138.83333333333334,48.25657837788336L140,48.21705743540395L141.16666666666666,47.63687142674872L142.33333333333331,51.74052325364969L143.5,50.21468481531411L144.66666666666669,50.96859002519222L145.83333333333334,50.678968560229016L147,51.247160272141144L148.16666666666666,48.71298059452423L149.33333333333334,47.93442532222095L150.5,45.61240479486019L151.66666666666666,43.8482101829987L152.83333333333331,40.28558100656261L154,43.24896786488901L155.16666666666669,42.151905275120605L156.33333333333334,41.2154370279874L157.5,39.35513010227301L158.66666666666666,40.27933651516888L159.83333333333331,41.66856449934617L161,41.76013669896247L162.16666666666669,39.867441052580595L163.33333333333334,40.122989187735584L164.5,40.92554311416898L165.66666666666666,43.35471443618065L166.83333333333334,38.96928827430955L168,43.85036980514449L169.16666666666666,42.883728734718936L170.33333333333331,43.04570868335367L171.5,42.49368366381732L172.66666666666669,40.864030618037894L173.83333333333334,39.700759699470865L175,40.764944966759806L176.16666666666666,39.17757441108614L177.33333333333331,39.5235901117396L178.5,34.35199241804823L179.66666666666669,37.55568459790622L180.83333333333334,36.881047950952144L182,34.15764470118301L183.16666666666666,35.02770310401753L184.33333333333334,36.29170273660834L185.5,33.247564129409206L186.66666666666666,33.646950624513515L187.83333333333331,36.761677226340375L189,33.25131812997624L190.16666666666669,36.43155818406833L191.33333333333334,31.66206912500571L192.5,31.39722764443704L193.66666666666666,31.794796199263345L194.83333333333331,27.58158595668826L196,33.400701175540576L197.16666666666669,34.94451928407713L198.33333333333334,34.2014018763196L199.5,31.715152919963753L200.66666666666666,32.17104251230194L201.83333333333334,33.18652880197172L203,29.90054264347028L204.16666666666666,25.424838539050224L205.33333333333331,28.76783617919883L206.5,26.600114081089338L207.66666666666669,29.565741049971965L208.83333333333334,29.21198711742735L210,26.310131200858898L211.16666666666666,27.907834196676696L212.33333333333331,25.898621743853553L213.5,28.40289311336361L214.66666666666669,29.16349134417952L215.83333333333334,24.51888591848104L217,23.216039788218914L218.16666666666666,22.156089360166256L219.33333333333334,21.42737955778501L220.5,19.691727698921845L221.66666666666666,21.432679686195304L222.83333333333331,20.993333753402393L224,22.213643318883648L225.16666666666669,22.482107217177678L226.33333333333334,19.675351305840195L227.5,24.20519695293774L228.66666666666666,20.894696295018782L229.83333333333331,22.618182684848207L231,21.611896007044503L232.16666666666669,19.895177114027188L233.33333333333334,20.627305653269115L234.5,21.43755301563614L235.66666666666666,19.512340625909985L236.83333333333334,20.861325601393535L238,17.404444302312108L239.16666666666666,14.031889545428813L240.33333333333331,15.718155532502804L241.5,19.326767079616072L242.66666666666669,18.709590905292643L243.83333333333334,17.31908991653634L245,19.916357471214386L246.16666666666666,18.599623299256965L247.33333333333331,21.42663003511363L248.5,17.37265672372234L249.66666666666669,16.8879117030392L250.83333333333334,15.855100099739229L252,13.195034626057948L253.16666666666666,13.361143160278308L254.33333333333334,11.791400007931076L255.5,11.406027559690223" style="fill: none;" fill="none"></path></g><g><path stroke="rgb(255, 112, 67)" stroke-width="2px" d="M30.333333333333336,178.0417854869135L31.5,176.70442268585413L32.666666666666664,171.70051906308086L33.833333333333336,165.83806196792548L35,162.34335706056322L36.16666666666667,160.25466617724553L37.333333333333336,150.64641389227705L38.5,148.7878390695993L39.666666666666664,145.53949319528752L40.833333333333336,143.7770008951172L42,141.79222309489563L43.16666666666667,140.8798304020515L44.33333333333333,139.40494786520247L45.5,139.8185553443877L46.666666666666664,138.02627482426035L47.833333333333336,135.83798219696084L49,134.61777136074915L50.166666666666664,134.34937506462654L51.33333333333333,129.922059715672L52.5,131.0682294635057L53.66666666666667,129.1590694198624L54.833333333333336,127.17886999521458L56,125.8052599026168L57.166666666666664,121.92051367018247L58.333333333333336,120.42437072752281L59.5,118.59923530482457L60.66666666666667,114.62906533042589L61.83333333333333,115.49303453202154L63,114.34200773555874L64.16666666666666,113.0949182214375L65.33333333333333,116.70567637809464L66.5,111.82352187296352L67.66666666666667,113.53147171501179L68.83333333333333,107.41488064743508L70,108.66041128915313L71.16666666666666,109.31498409963865L72.33333333333334,107.4818520973503L73.5,107.12393145902303L74.66666666666667,103.01389511504657L75.83333333333333,104.44315726979197L77,101.59092174955094L78.16666666666667,104.70230808018721L79.33333333333333,104.06503349748296L80.5,100.62208289535437L81.66666666666667,98.37082138637159L82.83333333333333,97.66927746970808L84,102.16383639280852L85.16666666666666,97.90470796186646L86.33333333333334,99.24450883560985L87.5,101.99603435431932L88.66666666666666,102.53400880752054L89.83333333333334,99.23974624040962L91,94.20260284765632L92.16666666666667,90.99482566428208L93.33333333333333,87.21527199027884L94.5,91.25419058194989L95.66666666666667,92.28636415734518L96.83333333333333,89.19586946137831L98,89.19647206440024L99.16666666666667,89.75330706938088L100.33333333333333,86.47036083333822L101.5,84.6860842394351L102.66666666666666,83.6155182830933L103.83333333333334,83.43690055028281L105,83.05148716070124L106.16666666666666,83.2839730245701L107.33333333333334,79.89915684940996L108.5,79.72316656491594L109.66666666666667,83.42011078097312L110.83333333333333,85.4527861628849L112,80.82946243695389L113.16666666666667,82.69271072458861L114.33333333333333,87.79868923164561L115.5,80.93857830077589L116.66666666666667,76.17329875353681L117.83333333333333,77.67314285511452L119,77.55285403189892L120.16666666666666,76.55322499935696L121.33333333333334,72.52189148852322L122.5,70.19583092757262L123.66666666666666,70.65509401160422L124.83333333333334,69.07575244142122L126,70.26128966980875L127.16666666666667,72.45652913199821L128.33333333333331,70.52759580910264L129.5,68.62828328109843L130.66666666666666,67.30320461657338L131.83333333333334,64.56050639508354L133,64.86253848496446L134.16666666666669,62.63238487512348L135.33333333333334,62.685470288826174L136.5,60.584191423173635L137.66666666666666,63.033210888362824L138.83333333333334,63.20419659004196L140,60.89542720390311L141.16666666666666,60.80859154965422L142.33333333333331,57.13944291807377L143.5,57.25657500072219L144.66666666666669,59.55272390973502L145.83333333333334,58.98277428899111L147,60.40295233497391L148.16666666666666,59.12192904868942L149.33333333333334,52.69587726956311L150.5,54.03396216844825L151.66666666666666,54.83681310777932L152.83333333333331,50.4957900004621L154,57.165661182458464L155.16666666666669,57.45779710707555L156.33333333333334,55.03621465035372L157.5,53.76875632404316L158.66666666666666,52.54455948726214L159.83333333333331,50.97533724875377L161,51.61046057635533L162.16666666666669,53.47545169807321L163.33333333333334,53.94523338238673L164.5,54.96906698386494L165.66666666666666,53.91395887187237L166.83333333333334,52.16795917496494L168,45.64841269718743L169.16666666666666,50.547448015912906L170.33333333333331,46.62374496790779L171.5,42.69285441177495L172.66666666666669,44.507840760293895L173.83333333333334,45.689584171578126L175,45.007452638741384L176.16666666666666,45.43287785547905L177.33333333333331,49.0269495312806L178.5,53.13103150291319L179.66666666666669,51.048989764872196L180.83333333333334,47.48114346045092L182,40.61044155243192L183.16666666666666,43.07290189696555L184.33333333333334,42.602739137534094L185.5,42.59887217514742L186.66666666666666,41.20538647473127L187.83333333333331,43.89360274796302L189,45.97025435289684L190.16666666666669,43.97016831564781L191.33333333333334,42.21365530675406L192.5,39.026605330920475L193.66666666666666,37.207126947593146L194.83333333333331,35.92994876987423L196,35.627363704237595L197.16666666666669,38.784629210614554L198.33333333333334,43.55408321920491L199.5,42.70595678315521L200.66666666666666,41.36237678508565L201.83333333333334,40.92721108168896L203,34.45220040912774L204.16666666666666,35.76090997195191L205.33333333333331,37.10260915281395L206.5,33.36312568368755L207.66666666666669,34.365512602420935L208.83333333333334,39.23320498140928L210,37.42382628343609L211.16666666666666,36.430950666825055L212.33333333333331,37.41188196756506L213.5,36.42378407730241L214.66666666666669,40.18993717306601L215.83333333333334,39.481782723587074L217,40.91178947450172L218.16666666666666,40.37862800206636L219.33333333333334,35.05050629996678L220.5,33.98676339258124L221.66666666666666,33.16302650042734L222.83333333333331,36.10034045644359L224,36.19332055717387L225.16666666666669,36.712842515229916L226.33333333333334,37.581017076607935L227.5,38.472904108879796L228.66666666666666,35.20549794148927L229.83333333333331,33.52328493432715L231,32.421217584480225L232.16666666666669,29.905077753970062L233.33333333333334,31.270488560428223L234.5,31.996983442130258L235.66666666666666,28.908572677670033L236.83333333333334,31.692780798810436L238,28.911542239400646L239.16666666666666,27.892012092471976L240.33333333333331,28.114998140754512L241.5,26.486641951294967L242.66666666666669,30.14687076081252L243.83333333333334,29.004191500764158L245,27.29838866057286L246.16666666666666,26.46039810418061L247.33333333333331,29.018189622832036L248.5,31.38756867046263L249.66666666666669,31.510770121606498L250.83333333333334,27.782140548916008L252,26.843400839359372L253.16666666666666,28.320535525326733L254.33333333333334,28.835846098085256L255.5,29.145032441740362" style="fill: none;" fill="none"></path></g></g></g></g><g opacity="0.2"><g><g><g><path stroke="rgb(51, 187, 238)" stroke-width="2px" d="M32.666666666666664,179.85549623325892L33.833333333333336,171.97218273816787L35,167.56679812131608L36.16666666666667,162.00210890197752L37.333333333333336,158.9879078930446L38.5,153.88693147223333L39.666666666666664,165.01632498168942L40.833333333333336,156.90114755194526L42,147.62665044893535L43.16666666666667,152.95949080439973L44.33333333333333,158.060452154432L45.5,143.45312976673668L46.666666666666664,137.42471267809185L47.833333333333336,137.656576612745L49,148.55410618754794L50.166666666666664,131.16443165479384L51.33333333333333,127.45463884190148L52.5,129.77326311765395L53.66666666666667,125.59974243545531L54.833333333333336,130.70071885626655L56,133.71491986519948L57.166666666666664,129.0776863844735L58.333333333333336,131.8600234587533L59.5,118.64388467897686L60.66666666666667,123.7448460290091L61.83333333333333,123.04926929582867L63,125.136014566149L64.16666666666666,121.42622175325666L65.33333333333333,126.75906210872101L66.5,115.62966859926495L67.66666666666667,119.57132534681045L68.83333333333333,112.84733152498517L70,124.44043783296857L71.16666666666666,117.71642894036427L72.33333333333334,118.64388467897686L73.5,111.91987578637257L74.66666666666667,117.02085220718381L75.83333333333333,117.71642894036427L77,109.83311544527325L78.16666666666667,113.5429082581656L79.33333333333333,114.23850006212506L80.5,119.33946141215729L81.66666666666667,104.03656229128156L82.83333333333333,104.96401802989412L84,103.80469835662839L85.16666666666666,105.89145869772773L86.33333333333334,105.89145869772773L87.5,101.25421014622277L88.66666666666666,102.64539375414166L89.83333333333334,107.05077837099347L91,98.70372193581714L92.16666666666667,98.471873071943L93.33333333333333,101.02236128234861L94.5,102.18166588483535L95.66666666666667,95.68953599766321L96.83333333333333,99.16744980512344L98,102.4135298194885L99.16666666666667,97.31256846945624L100.33333333333333,96.84884060014996L101.5,93.13904778725758L102.66666666666666,94.7620802590506L103.83333333333334,86.87876676395959L105,87.34249463326587L106.16666666666666,96.15323372541154L107.33333333333334,84.79200642286027L108.5,91.05228744615826L109.66666666666667,92.6753199179513L110.83333333333333,91.05228744615826L112,90.82040844072613L113.16666666666667,87.11061562783375L114.33333333333333,79.92290900748114L115.5,92.44344091251916L116.66666666666667,84.56012741742813L117.83333333333333,95.68953599766321L119,85.48758315604071L120.16666666666666,95.2258081283569L121.33333333333334,73.66262798418315L122.5,77.60426966094968L123.66666666666666,75.74938832528248L124.83333333333334,73.66262798418315L126,75.2856604559762L127.16666666666667,77.60426966094968L128.33333333333331,68.56165156337192L129.5,73.89447684805732L130.66666666666666,68.56165156337192L131.83333333333334,72.03959551239011L133,76.2130860530308L134.16666666666669,77.83614866638182L135.33333333333334,76.6768139223371L136.5,62.06952167619975L137.66666666666666,66.01116335296628L138.83333333333334,55.34551278359547L140,64.15628201729908L141.16666666666666,67.86607483019145L142.33333333333331,68.56165156337192L143.5,72.27144437626428L144.66666666666669,69.95283517129079L145.83333333333334,60.44645906284876L147,62.7650984093802L148.16666666666666,67.17046795545303L149.33333333333334,57.66412198856897L150.5,59.287154460362004L151.66666666666666,56.73666624995637L152.83333333333331,71.11213977377753L154,61.605793806893466L155.16666666666669,43.28867860630579L156.33333333333334,50.476385226658394L157.5,56.50481738608222L158.66666666666666,58.359698721749425L159.83333333333331,59.287154460362004L161,56.50481738608222L162.16666666666669,53.25875244249614L163.33333333333334,49.54895962960377L164.5,42.12937400381904L165.66666666666666,42.82495073699949L166.83333333333334,42.361222867693186L168,48.621503890991185L169.16666666666666,52.56314556775773L170.33333333333331,46.53474354989186L171.5,45.143559941972974L172.66666666666669,52.33129670388355L173.83333333333334,50.476385226658394L175,45.3754389474051L176.16666666666666,44.44798320879252L177.33333333333331,68.09792369406561L178.5,48.621503890991185L179.66666666666669,45.839166816711405L180.83333333333334,41.89749499838691L182,48.621503890991185L183.16666666666666,36.10094184439521L184.33333333333334,41.43376712908061L185.5,43.05679960087366L186.66666666666666,50.940113095964676L187.83333333333331,33.55045363398958L189,44.44798320879252L190.16666666666669,27.985779485430008L191.33333333333334,44.911711078098826L192.5,33.31860477011543L193.66666666666666,43.75240647561207L194.83333333333331,39.578885793413406L196,40.27446252659388L197.16666666666669,37.02839758300779L198.33333333333334,34.709758236476326L199.5,33.7823326394217L200.66666666666666,31.463693292890262L201.83333333333334,40.50631139046803L203,41.665646134512734L204.16666666666666,35.86909298052104L205.33333333333331,33.086725764683294L206.5,29.145084087916757L207.66666666666669,34.94163724190846L208.83333333333334,42.12937400381904L210,36.79651857757566L211.16666666666666,32.39114903150284L212.33333333333331,25.203412269592263L213.5,28.68135621861048L214.66666666666669,40.0426136627197L215.83333333333334,43.05679960087366L217,24.739684400285963L218.16666666666666,43.52052747017994L219.33333333333334,30.07253982652934L220.5,33.7823326394217L221.66666666666666,35.17348610578263L222.83333333333331,30.768116559709792L224,25.435291275024394L225.16666666666669,21.4936194566999L226.33333333333334,33.55045363398958L227.5,37.02839758300779L228.66666666666666,33.086725764683294L229.83333333333331,32.39114903150284L231,26.8264447413853L232.16666666666669,24.50783553641181L233.33333333333334,29.608811957223057L234.5,29.608811957223057L235.66666666666666,40.27446252659388L236.83333333333334,32.854876900809124L238,35.63721397508891L239.16666666666666,29.145084087916757L240.33333333333331,29.84066082109721L241.5,18.247554513113812L242.66666666666669,36.79651857757566L243.83333333333334,27.522051616123726L245,23.11665192849293L246.16666666666666,32.854876900809124L247.33333333333331,21.261770592825727L248.5,25.203412269592263L249.66666666666669,31.231844429016093L250.83333333333334,17.320098774501233L252,45.60728781127928L253.16666666666666,26.362716872079016L254.33333333333334,12.682850222996285L255.5,15.233338433401899" style="fill: none;" fill="none"></path></g><g><path stroke="rgb(204, 51, 17)" stroke-width="2px" d="M23.333333333333332,169.1898305931091L24.5,184.2608808501107L26.833333333333336,178.69619163077215L28,175.68197555106025L29.166666666666668,180.08736016791204L30.333333333333336,172.89963847678047L31.5,165.48003778021675L32.666666666666664,157.5967242851257L33.833333333333336,155.97369181333266L35,140.90265662711005L36.16666666666667,139.74333695384433L37.333333333333336,143.91685763604298L38.5,147.3947865142822L39.666666666666664,126.29533423941474L40.833333333333336,130.9325827909197L42,133.71491986519948L43.16666666666667,126.75906210872101L44.33333333333333,125.136014566149L45.5,124.6723017676217L46.666666666666664,107.51449116952075L47.833333333333336,129.0776863844735L49,126.0634703047616L50.166666666666664,125.36787850080215L51.33333333333333,116.32526040322438L52.5,123.51298209435596L53.66666666666667,101.71793801552906L54.833333333333336,112.38360365567887L56,117.9482928750174L57.166666666666664,116.09339646857123L58.333333333333336,121.88994962256292L59.5,120.03505321611675L60.66666666666667,109.83311544527325L61.83333333333333,110.52870724923267L63,110.52870724923267L64.16666666666666,99.63117767442975L65.33333333333333,115.16594072995865L66.5,108.90567477743964L67.66666666666667,97.54441733333039L68.83333333333333,98.471873071943L70,117.9482928750174L71.16666666666666,111.45614791706629L72.33333333333334,98.93560094124928L73.5,96.84884060014996L74.66666666666667,102.8772576887948L75.83333333333333,103.10912162344795L77,105.42773082842145L78.16666666666667,96.38511273084366L79.33333333333333,106.58705050168717L80.5,101.02236128234861L81.66666666666667,100.79048227691648L82.83333333333333,98.23999406651086L84,98.471873071943L85.16666666666666,108.44194690813336L86.33333333333334,107.05077837099347L87.5,97.08068946402412L88.66666666666666,106.35518656703401L89.83333333333334,86.41503889465329L91,99.63117767442975L92.16666666666667,88.73364809962678L93.33333333333333,84.79200642286027L94.5,94.53020125361849L95.66666666666667,87.57434349714005L96.83333333333333,92.44344091251916L98,91.74786417933869L99.16666666666667,78.53172539956226L100.33333333333333,88.73364809962678L101.5,80.38660673522946L102.66666666666666,77.37242079707553L103.83333333333334,93.37089665113174L105,81.77779034314835L106.16666666666666,66.47489122227259L107.33333333333334,82.00966934858047L108.5,82.00966934858047L109.66666666666667,77.83614866638182L110.83333333333333,79.22730213274272L112,72.96702110944473L113.16666666666667,83.63270182037351L114.33333333333333,74.8219325866699L115.5,73.89447684805732L116.66666666666667,77.60426966094968L117.83333333333333,76.2130860530308L119,68.79350042724607L120.16666666666666,65.54743548365998L121.33333333333334,72.03959551239011L122.5,68.56165156337192L123.66666666666666,71.80771650695799L124.83333333333334,77.83614866638182L126,68.79350042724607L127.16666666666667,65.54743548365998L128.33333333333331,71.3439886376517L129.5,60.21461019897458L130.66666666666666,69.02537943267819L131.83333333333334,61.14206593758717L133,50.940113095964676L134.16666666666669,55.57736164746964L135.33333333333334,65.54743548365998L136.5,51.86756883457728L137.66666666666666,54.64990590885706L138.83333333333334,59.750882329668286L140,56.73666624995637L141.16666666666666,54.18617803955076L142.33333333333331,50.476385226658394L143.5,58.82342659105571L144.66666666666669,60.67833806828089L145.83333333333334,50.70826423209052L147,56.73666624995637L148.16666666666666,52.795024573189856L149.33333333333334,55.57736164746964L150.5,53.722480311802435L151.66666666666666,50.940113095964676L152.83333333333331,49.08523176029749L154,51.1719921013968L155.16666666666669,44.44798320879252L156.33333333333334,45.3754389474051L157.5,45.3754389474051L158.66666666666666,47.694048152378606L159.83333333333331,46.53474354989186L161,39.810734657287576L162.16666666666669,46.76659241376603L163.33333333333334,58.359698721749425L164.5,43.98425533948624L165.66666666666666,42.12937400381904L166.83333333333334,35.405365111214756L168,39.11515792410712L169.16666666666666,35.405365111214756L170.33333333333331,38.883278918674996L171.5,27.522051616123726L172.66666666666669,52.795024573189856L173.83333333333334,35.63721397508891L175,41.665646134512734L176.16666666666666,39.11515792410712L177.33333333333331,46.53474354989186L178.5,40.738190395900155L179.66666666666669,35.86909298052104L180.83333333333334,38.65143005480083L182,46.071015680585575L183.16666666666666,37.260246446881965L184.33333333333334,44.67983207266669L185.5,31.695572298322393L186.66666666666666,32.622997895377L187.83333333333331,43.98425533948624L189,29.608811957223057L190.16666666666669,31.231844429016093L191.33333333333334,38.187702185494544L192.5,39.578885793413406L193.66666666666666,36.332790708269364L194.83333333333331,24.04410766710551L196,46.998471419198154L197.16666666666669,26.130868008204846L198.33333333333334,26.130868008204846L199.5,36.79651857757566L200.66666666666666,24.971563405718094L201.83333333333334,38.65143005480083L203,27.753900479997878L204.16666666666666,36.56466971370149L205.33333333333331,32.622997895377L206.5,42.59307173156736L207.66666666666669,30.07253982652934L208.83333333333334,34.47790937260218L210,26.130868008204846L211.16666666666666,31.231844429016093L212.33333333333331,19.870586984906847L213.5,27.985779485430008L214.66666666666669,30.30438869040351L215.83333333333334,33.086725764683294L217,30.536237554277662L218.16666666666666,25.435291275024394L219.33333333333334,21.4936194566999L220.5,23.81225880323136L221.66666666666666,13.378457097734694L222.83333333333331,33.55045363398958L224,30.07253982652934L225.16666666666669,23.81225880323136L226.33333333333334,24.04410766710551L227.5,18.943131246294264L228.66666666666666,25.203412269592263L229.83333333333331,21.261770592825727L231,22.42107519531248L232.16666666666669,25.203412269592263L233.33333333333334,9.668664284842329L234.5,26.594595877511146L235.66666666666666,21.95734732600618L236.83333333333334,13.378457097734694L238,24.275956530979684L239.16666666666666,29.84066082109721L240.33333333333331,15.001489569527747L241.5,25.435291275024394L242.66666666666669,16.856370905194932L243.83333333333334,26.594595877511146L245,17.783826643807533L246.16666666666666,17.320098774501233L247.33333333333331,21.95734732600618L248.5,25.435291275024394L249.66666666666669,25.899019144330694L250.83333333333334,24.275956530979684L252,20.798042723519448L253.16666666666666,14.074033830915146L254.33333333333334,18.943131246294264L255.5,17.08824991062706" style="fill: none;" fill="none"></path></g><g><path stroke="rgb(0, 119, 187)" stroke-width="2px" d="M26.833333333333336,181.71039263970508L28,168.95798172923494L29.166666666666668,165.2481738455636L30.333333333333336,154.11879540688648L31.5,164.08886924307686L32.666666666666664,148.7859701222011L33.833333333333336,150.64086652864728L35,161.77024496732437L36.16666666666667,146.93107371575488L37.333333333333336,147.3947865142822L38.5,142.75755303355623L39.666666666666664,133.019343132019L40.833333333333336,133.48305593054633L42,137.1928487434387L43.16666666666667,137.88844054739815L44.33333333333333,129.77326311765395L45.5,133.48305593054633L46.666666666666664,117.02085220718381L47.833333333333336,125.36787850080215L49,117.9482928750174L50.166666666666664,114.93409186608447L51.33333333333333,126.75906210872101L52.5,130.00512705230713L53.66666666666667,116.09339646857123L54.833333333333336,117.9482928750174L56,107.28262723486762L57.166666666666664,109.13752364131379L58.333333333333336,114.0066361274719L59.5,100.32675440761018L60.66666666666667,112.615467590332L61.83333333333333,118.18015680967056L63,107.28262723486762L64.16666666666666,110.76057118388582L65.33333333333333,116.32526040322438L66.5,107.28262723486762L67.66666666666667,113.0791954596383L68.83333333333333,93.37089665113174L70,98.23999406651086L71.16666666666666,104.26842622593469L72.33333333333334,93.37089665113174L73.5,100.79048227691648L74.66666666666667,99.16744980512344L75.83333333333333,93.60277565656388L77,98.471873071943L78.16666666666667,96.84884060014996L79.33333333333333,78.06799753025598L80.5,84.09642968967981L81.66666666666667,98.93560094124928L82.83333333333333,92.44344091251916L84,108.44194690813336L85.16666666666666,88.50179923575263L86.33333333333334,73.19890011487686L87.5,94.29835238974432L88.66666666666666,91.51601531546454L89.83333333333334,108.2100829734802L91,96.15323372541154L92.16666666666667,76.90869292776924L93.33333333333333,91.97974318477083L94.5,79.22730213274272L95.66666666666667,77.1405417916434L96.83333333333333,74.59005358123777L98,69.02537943267819L99.16666666666667,72.96702110944473L100.33333333333333,73.89447684805732L101.5,73.43074897875101L102.66666666666666,81.31406247384204L103.83333333333334,59.287154460362004L105,66.01116335296628L106.16666666666666,63.6925541479928L107.33333333333334,65.31558661978583L108.5,77.1405417916434L109.66666666666667,70.18468403516495L110.83333333333333,68.32977255793979L112,73.43074897875101L113.16666666666667,69.4891073019845L114.33333333333333,68.09792369406561L115.5,69.4891073019845L116.66666666666667,59.750882329668286L117.83333333333333,63.92440301186695L119,71.57586764308384L120.16666666666666,67.40234696088517L121.33333333333334,56.73666624995637L122.5,63.2288262786865L123.66666666666666,59.055305596487834L124.83333333333334,56.9685452553885L126,65.77931448909212L127.16666666666667,62.06952167619975L128.33333333333331,58.82342659105571L129.5,63.2288262786865L130.66666666666666,55.57736164746964L131.83333333333334,58.359698721749425L133,56.73666624995637L134.16666666666669,54.881784914289184L135.33333333333334,43.75240647561207L136.5,41.665646134512734L137.66666666666666,61.37391480146134L138.83333333333334,40.970039259774325L140,48.15777602168489L141.16666666666666,46.76659241376603L142.33333333333331,57.8960009940011L143.5,47.92592715781074L144.66666666666669,52.099447840009404L145.83333333333334,50.244536362784224L147,52.099447840009404L148.16666666666666,44.911711078098826L149.33333333333334,46.76659241376603L150.5,42.12937400381904L151.66666666666666,41.20191826520646L152.83333333333331,34.94163724190846L154,47.694048152378606L155.16666666666669,40.50631139046803L156.33333333333334,39.810734657287576L157.5,36.56466971370149L158.66666666666666,41.665646134512734L159.83333333333331,43.75240647561207L161,41.89749499838691L162.16666666666669,37.02839758300779L163.33333333333334,40.50631139046803L164.5,42.12937400381904L165.66666666666666,46.998471419198154L166.83333333333334,32.39114903150284L168,51.1719921013968L169.16666666666666,41.43376712908061L170.33333333333331,43.28867860630579L171.5,41.665646134512734L172.66666666666669,38.41955104936869L173.83333333333334,37.955853321620374L175,42.361222867693186L176.16666666666666,36.79651857757566L177.33333333333331,40.0426136627197L178.5,26.594595877511146L179.66666666666669,42.361222867693186L180.83333333333334,35.86909298052104L182,30.07253982652934L183.16666666666666,36.332790708269364L184.33333333333334,38.187702185494544L185.5,28.68135621861048L186.66666666666666,34.24603036717005L187.83333333333331,41.43376712908061L189,27.985779485430008L190.16666666666669,41.20191826520646L191.33333333333334,24.50783553641181L192.5,30.999965423583962L193.66666666666666,32.39114903150284L194.83333333333331,21.261770592825727L196,42.12937400381904L197.16666666666669,37.260246446881965L198.33333333333334,33.086725764683294L199.5,27.985779485430008L200.66666666666666,32.854876900809124L201.83333333333334,34.709758236476326L203,24.971563405718094L204.16666666666666,18.711282382420112L205.33333333333331,33.7823326394217L206.5,23.34853093392506L207.66666666666669,34.01418150329588L208.83333333333334,28.68135621861048L210,21.95734732600618L211.16666666666666,30.30438869040351L212.33333333333331,22.88480306461878L213.5,32.15930016762867L214.66666666666669,30.30438869040351L215.83333333333334,17.55197777993336L217,21.261770592825727L218.16666666666666,20.566163718087317L219.33333333333334,20.334314854213147L220.5,17.08824991062706L221.66666666666666,24.04410766710551L222.83333333333331,20.334314854213147L224,24.04410766710551L225.16666666666669,22.88480306461878L226.33333333333334,15.465217438834028L227.5,30.999965423583962L228.66666666666666,15.928945308140328L229.83333333333331,25.203412269592263L231,20.102465990338974L232.16666666666669,17.320098774501233L233.33333333333334,21.725498462132027L234.5,22.65292405918665L235.66666666666666,16.62452204132078L236.83333333333334,22.88480306461878L238,12.219122353689984L239.16666666666666,8.97305741010392L240.33333333333331,18.247554513113812L241.5,24.739684400285963L242.66666666666669,17.783826643807533L243.83333333333334,15.233338433401899L245,23.81225880323136L246.16666666666666,16.62452204132078L247.33333333333331,25.667140138898564L248.5,11.291696756635362L249.66666666666669,16.16079417201448L250.83333333333334,14.305882694789318L252,9.204936415536048L253.16666666666666,13.610305961608866L254.33333333333334,9.4367852794102L255.5,10.827968887329082" style="fill: none;" fill="none"></path></g><g><path stroke="rgb(255, 112, 67)" stroke-width="2px" d="M24.5,181.01481590652466L25.666666666666664,173.36335127530776L26.833333333333336,184.95647265407013L28,184.2608808501107L29.166666666666668,174.9863988178798L30.333333333333336,175.9138394857134L31.5,174.75453488322665L32.666666666666664,164.32073317772998L33.833333333333336,157.13299641581943L35,157.13299641581943L36.16666666666667,157.13299641581943L37.333333333333336,136.2654080756051L38.5,146.0036179771423L39.666666666666664,140.6707926924569L40.833333333333336,141.13450549098422L42,138.8158962860107L43.16666666666667,139.51147301919116L44.33333333333333,137.1928487434387L45.5,140.43892875780378L46.666666666666664,135.33795233699252L47.833333333333336,132.5556152627127L49,132.78747919736588L50.166666666666664,133.94678379985262L51.33333333333333,123.28111815970283L52.5,132.78747919736588L53.66666666666667,126.29533423941474L54.833333333333336,124.20857389831542L56,123.7448460290091L57.166666666666664,116.09339646857123L58.333333333333336,118.18015680967056L59.5,115.8615325339181L60.66666666666667,108.6738108427865L61.83333333333333,116.78898827253067L63,112.615467590332L64.16666666666666,111.22428398241314L65.33333333333333,122.12181355721607L66.5,104.50029016058784L67.66666666666667,116.09339646857123L68.83333333333333,98.23999406651086L70,110.52870724923267L71.16666666666666,110.29684331457953L72.33333333333334,104.73215409524097L73.5,106.58705050168717L74.66666666666667,96.84884060014996L75.83333333333333,106.58705050168717L77,97.31256846945624L78.16666666666667,109.36938757596695L79.33333333333333,103.10912162344795L80.5,95.45765699223108L81.66666666666667,94.99392912292478L82.83333333333333,96.61696159471784L84,108.90567477743964L85.16666666666666,91.51601531546454L86.33333333333334,101.25421014622277L87.5,106.12332263238086L88.66666666666666,103.3409704873221L89.83333333333334,94.29835238974432L91,86.64688775852747L92.16666666666667,86.18315988922117L93.33333333333333,81.54594147927418L94.5,97.31256846945624L95.66666666666667,93.83462452043804L96.83333333333333,84.56012741742813L98,89.19737596893309L99.16666666666667,90.58855957685196L100.33333333333333,81.54594147927418L101.5,82.00966934858047L102.66666666666666,82.00966934858047L103.83333333333334,83.16897395106723L105,82.4733670763288L106.16666666666666,83.63270182037351L107.33333333333334,74.8219325866699L108.5,79.45918113817484L109.66666666666667,88.96552710505891L110.83333333333333,88.50179923575263L112,73.89447684805732L113.16666666666667,85.48758315604071L114.33333333333333,95.45765699223108L115.5,70.64841190447123L116.66666666666667,69.02537943267819L117.83333333333333,79.92290900748114L119,77.37242079707553L120.16666666666666,75.05378145054407L121.33333333333334,66.47489122227259L122.5,66.70674008614674L123.66666666666666,71.3439886376517L124.83333333333334,66.70674008614674L126,72.03959551239011L127.16666666666667,75.74938832528248L128.33333333333331,67.63419582475932L129.5,65.77931448909212L130.66666666666666,65.31558661978583L131.83333333333334,60.44645906284876L133,65.31558661978583L134.16666666666669,59.287154460362004L135.33333333333334,62.7650984093802L136.5,57.4322731246948L137.66666666666666,66.70674008614674L138.83333333333334,63.460675142560675L140,57.4322731246948L141.16666666666666,60.67833806828089L142.33333333333331,51.6357199707031L143.5,57.4322731246948L144.66666666666669,62.99694727325437L145.83333333333334,58.127849857875255L147,62.533219403948074L148.16666666666666,57.200394119262675L149.33333333333334,43.05679960087366L150.5,56.04108951677592L151.66666666666666,56.04108951677592L152.83333333333331,43.98425533948624L154,67.17046795545303L155.16666666666669,57.8960009940011L156.33333333333334,51.40384096527097L157.5,51.86756883457728L158.66666666666666,50.70826423209052L159.83333333333331,48.621503890991185L161,52.56314556775773L162.16666666666669,56.27293838065009L163.33333333333334,54.64990590885706L164.5,56.50481738608222L165.66666666666666,52.33129670388355L166.83333333333334,49.54895962960377L168,35.86909298052104L169.16666666666666,57.8960009940011L170.33333333333331,40.738190395900155L171.5,36.79651857757566L172.66666666666669,47.23032028307231L173.83333333333334,47.462199288504436L175,43.98425533948624L176.16666666666666,46.071015680585575L177.33333333333331,54.41805704498289L178.5,59.287154460362004L179.66666666666669,47.92592715781074L180.83333333333334,42.12937400381904L182,30.30438869040351L183.16666666666666,46.76659241376603L184.33333333333334,41.89749499838691L185.5,42.59307173156736L186.66666666666666,39.11515792410712L187.83333333333331,47.92592715781074L189,49.08523176029749L190.16666666666669,40.970039259774325L191.33333333333334,39.578885793413406L192.5,34.24603036717005L193.66666666666666,34.47790937260218L194.83333333333331,34.01418150329588L196,35.17348610578263L197.16666666666669,43.52052747017994L198.33333333333334,50.70826423209052L199.5,41.43376712908061L200.66666666666666,39.34700678798128L201.83333333333334,40.27446252659388L203,24.739684400285963L204.16666666666666,37.72397431618824L205.33333333333331,39.11515792410712L206.5,27.753900479997878L207.66666666666669,35.86909298052104L208.83333333333334,46.53474354989186L210,34.709758236476326L211.16666666666666,34.94163724190846L212.33333333333331,38.883278918674996L213.5,34.94163724190846L214.66666666666669,45.839166816711405L215.83333333333334,38.41955104936869L217,43.05679960087366L218.16666666666666,39.578885793413406L219.33333333333334,27.058323746817425L220.5,32.39114903150284L221.66666666666666,31.927421162196545L222.83333333333331,40.50631139046803L224,36.332790708269364L225.16666666666669,37.49212545231409L226.33333333333334,38.883278918674996L227.5,39.810734657287576L228.66666666666666,30.30438869040351L229.83333333333331,30.999965423583962L231,30.768116559709792L232.16666666666669,26.130868008204846L233.33333333333334,33.31860477011543L234.5,33.086725764683294L235.66666666666666,24.275956530979684L236.83333333333334,35.86909298052104L238,24.739684400285963L239.16666666666666,26.362716872079016L240.33333333333331,28.449477213178348L241.5,24.04410766710551L242.66666666666669,35.63721397508891L243.83333333333334,27.2901726106916L245,24.739684400285963L246.16666666666666,25.203412269592263L247.33333333333331,32.854876900809124L248.5,34.94163724190846L249.66666666666669,31.695572298322393L250.83333333333334,22.18919618988035L252,25.435291275024394L253.16666666666666,30.536237554277662L254.33333333333334,29.608811957223057L255.5,29.608811957223057" style="fill: none;" fill="none"></path></g></g></g></g></g></g><g transform="translate(50, 176)" clip-path="url(#clip_1)"><clipPath id="clip_1"><rect width="279" height="22"></rect></clipPath><g><g><line x1="0" y1="0" x2="0" y2="5" style="visibility: inherit;" fill="rgb(0, 0, 0)" stroke="rgb(204, 204, 204)" stroke-width="1px"></line><line x1="23.333333333333332" y1="0" x2="23.333333333333332" y2="5" style="visibility: inherit;" fill="rgb(0, 0, 0)" stroke="rgb(204, 204, 204)" stroke-width="1px"></line><line x1="46.666666666666664" y1="0" x2="46.666666666666664" y2="5" style="visibility: inherit;" fill="rgb(0, 0, 0)" stroke="rgb(204, 204, 204)" stroke-width="1px"></line><line x1="70" y1="0" x2="70" y2="5" style="visibility: inherit;" fill="rgb(0, 0, 0)" stroke="rgb(204, 204, 204)" stroke-width="1px"></line><line x1="93.33333333333333" y1="0" x2="93.33333333333333" y2="5" style="visibility: inherit;" fill="rgb(0, 0, 0)" stroke="rgb(204, 204, 204)" stroke-width="1px"></line><line x1="116.66666666666667" y1="0" x2="116.66666666666667" y2="5" style="visibility: inherit;" fill="rgb(0, 0, 0)" stroke="rgb(204, 204, 204)" stroke-width="1px"></line><line x1="140" y1="0" x2="140" y2="5" style="visibility: inherit;" fill="rgb(0, 0, 0)" stroke="rgb(204, 204, 204)" stroke-width="1px"></line><line x1="163.33333333333334" y1="0" x2="163.33333333333334" y2="5" style="visibility: inherit;" fill="rgb(0, 0, 0)" stroke="rgb(204, 204, 204)" stroke-width="1px"></line><line x1="186.66666666666666" y1="0" x2="186.66666666666666" y2="5" style="visibility: inherit;" fill="rgb(0, 0, 0)" stroke="rgb(204, 204, 204)" stroke-width="1px"></line><line x1="210" y1="0" x2="210" y2="5" style="visibility: inherit;" fill="rgb(0, 0, 0)" stroke="rgb(204, 204, 204)" stroke-width="1px"></line><line x1="233.33333333333334" y1="0" x2="233.33333333333334" y2="5" style="visibility: inherit;" fill="rgb(0, 0, 0)" stroke="rgb(204, 204, 204)" stroke-width="1px"></line><line x1="256.66666666666663" y1="0" x2="256.66666666666663" y2="5" style="visibility: inherit;" fill="rgb(0, 0, 0)" stroke="rgb(204, 204, 204)" stroke-width="1px"></line><line x1="280" y1="0" x2="280" y2="5" style="visibility: inherit;" fill="rgb(0, 0, 0)" stroke="rgb(204, 204, 204)" stroke-width="1px"></line></g><g transform="translate(0, 8)"><text x="0" y="0" dx="0em" dy="0.95em" style="text-anchor: middle; visibility: hidden; font-family: Roboto, sans-serif; font-size: 12px; font-weight: 200;" fill="rgb(33, 33, 33)" stroke="none" stroke-width="1px">-20</text><text x="23.333333333333332" y="0" dx="0em" dy="0.95em" style="text-anchor: middle; visibility: inherit; font-family: Roboto, sans-serif; font-size: 12px; font-weight: 200;" fill="rgb(33, 33, 33)" stroke="none" stroke-width="1px">0</text><text x="46.666666666666664" y="0" dx="0em" dy="0.95em" style="text-anchor: middle; visibility: hidden; font-family: Roboto, sans-serif; font-size: 12px; font-weight: 200;" fill="rgb(33, 33, 33)" stroke="none" stroke-width="1px">20</text><text x="70" y="0" dx="0em" dy="0.95em" style="text-anchor: middle; visibility: inherit; font-family: Roboto, sans-serif; font-size: 12px; font-weight: 200;" fill="rgb(33, 33, 33)" stroke="none" stroke-width="1px">40</text><text x="93.33333333333333" y="0" dx="0em" dy="0.95em" style="text-anchor: middle; visibility: hidden; font-family: Roboto, sans-serif; font-size: 12px; font-weight: 200;" fill="rgb(33, 33, 33)" stroke="none" stroke-width="1px">60</text><text x="116.66666666666667" y="0" dx="0em" dy="0.95em" style="text-anchor: middle; visibility: inherit; font-family: Roboto, sans-serif; font-size: 12px; font-weight: 200;" fill="rgb(33, 33, 33)" stroke="none" stroke-width="1px">80</text><text x="140" y="0" dx="0em" dy="0.95em" style="text-anchor: middle; visibility: hidden; font-family: Roboto, sans-serif; font-size: 12px; font-weight: 200;" fill="rgb(33, 33, 33)" stroke="none" stroke-width="1px">100</text><text x="163.33333333333334" y="0" dx="0em" dy="0.95em" style="text-anchor: middle; visibility: inherit; font-family: Roboto, sans-serif; font-size: 12px; font-weight: 200;" fill="rgb(33, 33, 33)" stroke="none" stroke-width="1px">120</text><text x="186.66666666666666" y="0" dx="0em" dy="0.95em" style="text-anchor: middle; visibility: hidden; font-family: Roboto, sans-serif; font-size: 12px; font-weight: 200;" fill="rgb(33, 33, 33)" stroke="none" stroke-width="1px">140</text><text x="210" y="0" dx="0em" dy="0.95em" style="text-anchor: middle; visibility: inherit; font-family: Roboto, sans-serif; font-size: 12px; font-weight: 200;" fill="rgb(33, 33, 33)" stroke="none" stroke-width="1px">160</text><text x="233.33333333333334" y="0" dx="0em" dy="0.95em" style="text-anchor: middle; visibility: hidden; font-family: Roboto, sans-serif; font-size: 12px; font-weight: 200;" fill="rgb(33, 33, 33)" stroke="none" stroke-width="1px">180</text><text x="256.66666666666663" y="0" dx="0em" dy="0.95em" style="text-anchor: middle; visibility: inherit; font-family: Roboto, sans-serif; font-size: 12px; font-weight: 200;" fill="rgb(33, 33, 33)" stroke="none" stroke-width="1px">200</text><text x="280" y="0" dx="0em" dy="0.95em" style="text-anchor: middle; visibility: hidden; font-family: Roboto, sans-serif; font-size: 12px; font-weight: 200;" fill="rgb(33, 33, 33)" stroke="none" stroke-width="1px">220</text></g><line x1="0" y1="0" x2="280" y2="0" fill="rgb(0, 0, 0)" stroke="rgb(204, 204, 204)" stroke-width="1px"></line></g></g></g></g></svg>