<svg viewBox="0 0 330 199.9921875" xmlns="http://www.w3.org/2000/svg"><g><g><g><g><g><line x1="50" y1="176.992" x2="45" y2="176.992" style="visibility: inherit;" fill="rgb(0, 0, 0)" stroke="rgb(204, 204, 204)" stroke-width="1px"></line><line x1="50" y1="163.37723076923078" x2="45" y2="163.37723076923078" style="visibility: inherit;" fill="rgb(0, 0, 0)" stroke="rgb(204, 204, 204)" stroke-width="1px"></line><line x1="50" y1="149.76246153846154" x2="45" y2="149.76246153846154" style="visibility: inherit;" fill="rgb(0, 0, 0)" stroke="rgb(204, 204, 204)" stroke-width="1px"></line><line x1="50" y1="136.1476923076923" x2="45" y2="136.1476923076923" style="visibility: inherit;" fill="rgb(0, 0, 0)" stroke="rgb(204, 204, 204)" stroke-width="1px"></line><line x1="50" y1="122.53292307692308" x2="45" y2="122.53292307692308" style="visibility: inherit;" fill="rgb(0, 0, 0)" stroke="rgb(204, 204, 204)" stroke-width="1px"></line><line x1="50" y1="108.91815384615384" x2="45" y2="108.91815384615384" style="visibility: inherit;" fill="rgb(0, 0, 0)" stroke="rgb(204, 204, 204)" stroke-width="1px"></line><line x1="50" y1="95.30338461538459" x2="45" y2="95.30338461538459" style="visibility: inherit;" fill="rgb(0, 0, 0)" stroke="rgb(204, 204, 204)" stroke-width="1px"></line><line x1="50" y1="81.68861538461539" x2="45" y2="81.68861538461539" style="visibility: inherit;" fill="rgb(0, 0, 0)" stroke="rgb(204, 204, 204)" stroke-width="1px"></line><line x1="50" y1="68.07384615384615" x2="45" y2="68.07384615384615" style="visibility: inherit;" fill="rgb(0, 0, 0)" stroke="rgb(204, 204, 204)" stroke-width="1px"></line><line x1="50" y1="54.45907692307691" x2="45" y2="54.45907692307691" style="visibility: inherit;" fill="rgb(0, 0, 0)" stroke="rgb(204, 204, 204)" stroke-width="1px"></line><line x1="50" y1="40.844307692307666" x2="45" y2="40.844307692307666" style="visibility: inherit;" fill="rgb(0, 0, 0)" stroke="rgb(204, 204, 204)" stroke-width="1px"></line><line x1="50" y1="27.22953846153842" x2="45" y2="27.22953846153842" style="visibility: inherit;" fill="rgb(0, 0, 0)" stroke="rgb(204, 204, 204)" stroke-width="1px"></line><line x1="50" y1="13.614769230769241" x2="45" y2="13.614769230769241" style="visibility: inherit;" fill="rgb(0, 0, 0)" stroke="rgb(204, 204, 204)" stroke-width="1px"></line><line x1="50" y1="0" x2="45" y2="0" style="visibility: inherit;" fill="rgb(0, 0, 0)" stroke="rgb(204, 204, 204)" stroke-width="1px"></line></g><g transform="translate(40, 0)"><text x="0" y="176.992" dx="0em" dy="0.3em" style="text-anchor: end; visibility: hidden; font-family: Roboto, sans-serif; font-size: 12px; font-weight: 200;" fill="rgb(33, 33, 33)" stroke="none" stroke-width="1px">0.34</text><text x="0" y="163.37723076923078" dx="0em" dy="0.3em" style="text-anchor: end; visibility: inherit; font-family: Roboto, sans-serif; font-size: 12px; font-weight: 200;" fill="rgb(33, 33, 33)" stroke="none" stroke-width="1px">0.36</text><text x="0" y="149.76246153846154" dx="0em" dy="0.3em" style="text-anchor: end; visibility: hidden; font-family: Roboto, sans-serif; font-size: 12px; font-weight: 200;" fill="rgb(33, 33, 33)" stroke="none" stroke-width="1px">0.38</text><text x="0" y="136.1476923076923" dx="0em" dy="0.3em" style="text-anchor: end; visibility: inherit; font-family: Roboto, sans-serif; font-size: 12px; font-weight: 200;" fill="rgb(33, 33, 33)" stroke="none" stroke-width="1px">0.4</text><text x="0" y="122.53292307692308" dx="0em" dy="0.3em" style="text-anchor: end; visibility: hidden; font-family: Roboto, sans-serif; font-size: 12px; font-weight: 200;" fill="rgb(33, 33, 33)" stroke="none" stroke-width="1px">0.42</text><text x="0" y="108.91815384615384" dx="0em" dy="0.3em" style="text-anchor: end; visibility: inherit; font-family: Roboto, sans-serif; font-size: 12px; font-weight: 200;" fill="rgb(33, 33, 33)" stroke="none" stroke-width="1px">0.44</text><text x="0" y="95.30338461538459" dx="0em" dy="0.3em" style="text-anchor: end; visibility: hidden; font-family: Roboto, sans-serif; font-size: 12px; font-weight: 200;" fill="rgb(33, 33, 33)" stroke="none" stroke-width="1px">0.46</text><text x="0" y="81.68861538461539" dx="0em" dy="0.3em" style="text-anchor: end; visibility: inherit; font-family: Roboto, sans-serif; font-size: 12px; font-weight: 200;" fill="rgb(33, 33, 33)" stroke="none" stroke-width="1px">0.48</text><text x="0" y="68.07384615384615" dx="0em" dy="0.3em" style="text-anchor: end; visibility: hidden; font-family: Roboto, sans-serif; font-size: 12px; font-weight: 200;" fill="rgb(33, 33, 33)" stroke="none" stroke-width="1px">0.5</text><text x="0" y="54.45907692307691" dx="0em" dy="0.3em" style="text-anchor: end; visibility: inherit; font-family: Roboto, sans-serif; font-size: 12px; font-weight: 200;" fill="rgb(33, 33, 33)" stroke="none" stroke-width="1px">0.52</text><text x="0" y="40.844307692307666" dx="0em" dy="0.3em" style="text-anchor: end; visibility: hidden; font-family: Roboto, sans-serif; font-size: 12px; font-weight: 200;" fill="rgb(33, 33, 33)" stroke="none" stroke-width="1px">0.54</text><text x="0" y="27.22953846153842" dx="0em" dy="0.3em" style="text-anchor: end; visibility: inherit; font-family: Roboto, sans-serif; font-size: 12px; font-weight: 200;" fill="rgb(33, 33, 33)" stroke="none" stroke-width="1px">0.56</text><text x="0" y="13.614769230769241" dx="0em" dy="0.3em" style="text-anchor: end; visibility: hidden; font-family: Roboto, sans-serif; font-size: 12px; font-weight: 200;" fill="rgb(33, 33, 33)" stroke="none" stroke-width="1px">0.58</text><text x="0" y="0" dx="0em" dy="0.3em" style="text-anchor: end; visibility: hidden; font-family: Roboto, sans-serif; font-size: 12px; font-weight: 200;" fill="rgb(33, 33, 33)" stroke="none" stroke-width="1px">0.6</text></g><line x1="50" y1="0" x2="50" y2="176.992" fill="rgb(0, 0, 0)" stroke="rgb(204, 204, 204)" stroke-width="1px"></line></g></g><g transform="translate(50, 0)" clip-path="url(#clip_0)"><clipPath id="clip_0"><rect width="279" height="176"></rect></clipPath><g><g><g><line x1="0" y1="0" x2="0" y2="176.992" fill="rgb(0, 0, 0)" stroke="rgb(66, 66, 66)" stroke-width="1px" opacity="0.25"></line><line x1="23.333333333333332" y1="0" x2="23.333333333333332" y2="176.992" fill="rgb(0, 0, 0)" stroke="rgb(66, 66, 66)" stroke-width="1px" opacity="0.25"></line><line x1="46.666666666666664" y1="0" x2="46.666666666666664" y2="176.992" fill="rgb(0, 0, 0)" stroke="rgb(66, 66, 66)" stroke-width="1px" opacity="0.25"></line><line x1="70" y1="0" x2="70" y2="176.992" fill="rgb(0, 0, 0)" stroke="rgb(66, 66, 66)" stroke-width="1px" opacity="0.25"></line><line x1="93.33333333333333" y1="0" x2="93.33333333333333" y2="176.992" fill="rgb(0, 0, 0)" stroke="rgb(66, 66, 66)" stroke-width="1px" opacity="0.25"></line><line x1="116.66666666666667" y1="0" x2="116.66666666666667" y2="176.992" fill="rgb(0, 0, 0)" stroke="rgb(66, 66, 66)" stroke-width="1px" opacity="0.25"></line><line x1="140" y1="0" x2="140" y2="176.992" fill="rgb(0, 0, 0)" stroke="rgb(66, 66, 66)" stroke-width="1px" opacity="0.25"></line><line x1="163.33333333333334" y1="0" x2="163.33333333333334" y2="176.992" fill="rgb(0, 0, 0)" stroke="rgb(66, 66, 66)" stroke-width="1px" opacity="0.25"></line><line x1="186.66666666666666" y1="0" x2="186.66666666666666" y2="176.992" fill="rgb(0, 0, 0)" stroke="rgb(66, 66, 66)" stroke-width="1px" opacity="0.25"></line><line x1="210" y1="0" x2="210" y2="176.992" fill="rgb(0, 0, 0)" stroke="rgb(66, 66, 66)" stroke-width="1px" opacity="0.25"></line><line x1="233.33333333333334" y1="0" x2="233.33333333333334" y2="176.992" fill="rgb(0, 0, 0)" stroke="rgb(66, 66, 66)" stroke-width="1px" opacity="0.25"></line><line x1="256.66666666666663" y1="0" x2="256.66666666666663" y2="176.992" fill="rgb(0, 0, 0)" stroke="rgb(66, 66, 66)" stroke-width="1px" opacity="0.25"></line><line x1="280" y1="0" x2="280" y2="176.992" fill="rgb(0, 0, 0)" stroke="rgb(66, 66, 66)" stroke-width="1px" opacity="0.25"></line></g><g><line x1="0" y1="176.992" x2="280" y2="176.992" fill="rgb(0, 0, 0)" stroke="rgb(66, 66, 66)" stroke-width="1px" opacity="0.25"></line><line x1="0" y1="163.37723076923078" x2="280" y2="163.37723076923078" fill="rgb(0, 0, 0)" stroke="rgb(66, 66, 66)" stroke-width="1px" opacity="0.25"></line><line x1="0" y1="149.76246153846154" x2="280" y2="149.76246153846154" fill="rgb(0, 0, 0)" stroke="rgb(66, 66, 66)" stroke-width="1px" opacity="0.25"></line><line x1="0" y1="136.1476923076923" x2="280" y2="136.1476923076923" fill="rgb(0, 0, 0)" stroke="rgb(66, 66, 66)" stroke-width="1px" opacity="0.25"></line><line x1="0" y1="122.53292307692308" x2="280" y2="122.53292307692308" fill="rgb(0, 0, 0)" stroke="rgb(66, 66, 66)" stroke-width="1px" opacity="0.25"></line><line x1="0" y1="108.91815384615384" x2="280" y2="108.91815384615384" fill="rgb(0, 0, 0)" stroke="rgb(66, 66, 66)" stroke-width="1px" opacity="0.25"></line><line x1="0" y1="95.30338461538459" x2="280" y2="95.30338461538459" fill="rgb(0, 0, 0)" stroke="rgb(66, 66, 66)" stroke-width="1px" opacity="0.25"></line><line x1="0" y1="81.68861538461539" x2="280" y2="81.68861538461539" fill="rgb(0, 0, 0)" stroke="rgb(66, 66, 66)" stroke-width="1px" opacity="0.25"></line><line x1="0" y1="68.07384615384615" x2="280" y2="68.07384615384615" fill="rgb(0, 0, 0)" stroke="rgb(66, 66, 66)" stroke-width="1px" opacity="0.25"></line><line x1="0" y1="54.45907692307691" x2="280" y2="54.45907692307691" fill="rgb(0, 0, 0)" stroke="rgb(66, 66, 66)" stroke-width="1px" opacity="0.25"></line><line x1="0" y1="40.844307692307666" x2="280" y2="40.844307692307666" fill="rgb(0, 0, 0)" stroke="rgb(66, 66, 66)" stroke-width="1px" opacity="0.25"></line><line x1="0" y1="27.22953846153842" x2="280" y2="27.22953846153842" fill="rgb(0, 0, 0)" stroke="rgb(66, 66, 66)" stroke-width="1px" opacity="0.25"></line><line x1="0" y1="13.614769230769241" x2="280" y2="13.614769230769241" fill="rgb(0, 0, 0)" stroke="rgb(66, 66, 66)" stroke-width="1px" opacity="0.25"></line><line x1="0" y1="0" x2="280" y2="0" fill="rgb(0, 0, 0)" stroke="rgb(66, 66, 66)" stroke-width="1px" opacity="0.25"></line></g></g></g><g><g><line x1="0" y1="408.44307692307694" x2="280" y2="408.44307692307694" fill="rgb(0, 0, 0)" stroke="rgb(153, 153, 153)" stroke-width="1.5px"></line></g></g><g><g><line x1="23.333333333333332" y1="0" x2="23.333333333333332" y2="176.992" fill="rgb(0, 0, 0)" stroke="rgb(153, 153, 153)" stroke-width="1.5px"></line></g></g><g><g><g><g><g><path stroke="rgb(51, 187, 238)" stroke-width="2px" d="M25.666666666666664,181.53025420208368L26.833333333333336,171.34612579549872L28,169.40059872624104L29.166666666666668,164.27511217414224L30.333333333333336,162.38482949906654L31.5,158.9994419478388L32.666666666666664,154.3564504712034L33.833333333333336,152.73125951729793L35,149.6322983569529L36.16666666666667,148.65597992963004L37.333333333333336,144.8212349227873L38.5,140.27455302519712L39.666666666666664,139.29753671601222L40.833333333333336,138.21208084600028L42,139.30918036879345L43.16666666666667,134.84799962837067L44.33333333333333,132.67101084837626L45.5,127.99385868221106L46.666666666666664,124.43856964363783L47.833333333333336,127.42431518606158L49,123.2229396818466L50.166666666666664,118.45484459845922L51.33333333333333,115.96855250578076L52.5,120.5943842567753L53.66666666666667,115.0049972813489L54.833333333333336,106.78226371470187L56,105.84378976926709L57.166666666666664,98.91341254655542L58.333333333333336,105.24249155545691L59.5,105.79386742512378L60.66666666666667,103.50287110843804L61.83333333333333,98.00825385358986L63,97.08361382051784L64.16666666666666,99.40035926263887L65.33333333333333,100.41585707739891L66.5,95.90635406874968L67.66666666666667,98.94369490134834L68.83333333333333,98.7685186485028L70,96.66583214993965L71.16666666666666,97.15210137619168L72.33333333333334,96.69477216080911L73.5,98.1682557554364L74.66666666666667,97.55416441035835L75.83333333333333,97.18570960335242L77,92.71977560626343L78.16666666666667,97.78084668300573L79.33333333333333,93.45139917203055L80.5,97.59557176755047L81.66666666666667,98.83358533019901L82.83333333333333,95.3315323550306L84,92.98060906303631L85.16666666666666,98.6864375077295L86.33333333333334,96.49173365619362L87.5,95.79916040010865L88.66666666666666,96.00785738625851L89.83333333333334,90.63972447057041L91,89.41642546656173L92.16666666666667,75.44847159709853L93.33333333333333,82.29925448788245L94.5,80.41698198614186L95.66666666666667,79.28761848509751L96.83333333333333,84.72759243164882L98,83.99641530877238L99.16666666666667,88.30196939165612L100.33333333333333,89.01256279191506L101.5,81.19889622852193L102.66666666666666,83.50222889939862L103.83333333333334,79.64057701648144L105,80.31996511987143L106.16666666666666,78.60516742553472L107.33333333333334,76.07809919236259L108.5,72.68911920298801L109.66666666666667,73.2775610096022L110.83333333333333,70.3845553535312L112,68.14935271602029L113.16666666666667,68.43127056105088L114.33333333333333,64.60525977726206L115.5,62.434495002921054L116.66666666666667,67.3744861114962L117.83333333333333,63.59664778966285L119,68.8208685343089L120.16666666666666,64.08991969541444L121.33333333333334,66.37016018158863L122.5,64.24253411131949L123.66666666666666,62.71625884722383L124.83333333333334,58.804130685695924L126,60.32715735358436L127.16666666666667,56.2470296058433L128.33333333333331,55.29713445873395L129.5,55.60113793220311L130.66666666666666,53.03686040507846L131.83333333333334,53.121333316340916L133,55.16959780850196L134.16666666666669,51.15491313339031L135.33333333333334,52.990963441064665L136.5,52.968953442000384L137.66666666666666,51.95694895482519L138.83333333333334,48.72792457731592L140,50.91051313754977L141.16666666666666,47.850363465016514L142.33333333333331,44.64093385589354L143.5,44.08861589602277L144.66666666666669,45.62994793950197L145.83333333333334,48.177786593126704L147,46.71012678223095L148.16666666666666,40.08647205134725L149.33333333333334,42.10503767909751L150.5,39.196157638938594L151.66666666666666,34.5793083077049L152.83333333333331,33.68192152836635L154,39.5107892449101L155.16666666666669,43.38265119270271L156.33333333333334,40.83666630883638L157.5,39.18423368258429L158.66666666666666,34.57215393389235L159.83333333333331,35.67520964948243L161,35.58796044310364L162.16666666666669,35.161053371340344L163.33333333333334,36.02854931195122L164.5,40.41936667119268L165.66666666666666,38.93385389999813L166.83333333333334,39.41586981281476L168,34.586277686028666L169.16666666666666,31.06428147015646L170.33333333333331,35.81776653857857L171.5,34.92439571075886L172.66666666666669,35.13747207986949L173.83333333333334,39.135637696210836L175,42.40847762775039L176.16666666666666,37.50548255865892L177.33333333333331,33.315203637602934L178.5,35.91983795944542L179.66666666666669,39.3553576020222L180.83333333333334,39.419088642164695L182,36.71064765504419L183.16666666666666,34.086784575035196L184.33333333333334,38.75490858517474L185.5,35.43819905911548L186.66666666666666,33.44817334347992L187.83333333333331,34.87597959930272L189,33.984782229327L190.16666666666669,34.0743047471421L191.33333333333334,30.75709770682458L192.5,34.010433083111955L193.66666666666666,36.71151694461718L194.83333333333331,31.09094314570848L196,28.217981880161894L197.16666666666669,28.242102474373006L198.33333333333334,26.508677477360585L199.5,29.838341517896378L200.66666666666666,24.969457144272422L201.83333333333334,18.42750634715729L203,19.621137543364195L204.16666666666666,22.08519738455777L205.33333333333331,21.690894239802542L206.5,21.329470657017243L207.66666666666669,21.86171537314848L208.83333333333334,22.18106220282726L210,20.37508955523091L211.16666666666666,22.662426517679744L212.33333333333331,18.5414694727369L213.5,23.060435969718604L214.66666666666669,20.40331457149743L215.83333333333334,21.430863417768865L217,19.300713114325728L218.16666666666666,21.64324310520057L219.33333333333334,19.053599608918272L220.5,25.98953573663154L221.66666666666666,21.411675565842692L222.83333333333331,21.037097756709127L224,16.692331654419803L225.16666666666669,22.949735536395266L226.33333333333334,17.590214700297402L227.5,14.499360124640589L228.66666666666666,12.644847379246459L229.83333333333331,14.528502735080542L231,18.65507518172114L232.16666666666669,20.506777709905023L233.33333333333334,17.747479431940445L234.5,18.21432290649746L235.66666666666666,24.98657047131078L236.83333333333334,23.93111733572275L238,20.05178282936521L239.16666666666666,18.348423065351227L240.33333333333331,18.200347768677588L241.5,15.864222223335629L242.66666666666669,15.586187079799332L243.83333333333334,20.288468046219457L245,17.741335329661325L246.16666666666666,13.091834770653975L247.33333333333331,12.549414802587329L248.5,9.352441514608978L249.66666666666669,9.182138665291484L250.83333333333334,16.57089692351664L252,21.004151878451765L253.16666666666666,22.790164289678092L254.33333333333334,16.245990072665915L255.5,15.690406093465276" style="fill: none;" fill="none"></path></g><g><path stroke="rgb(204, 51, 17)" stroke-width="2px" d="M33.833333333333336,179.61089840282114L35,173.7403494308963L36.16666666666667,169.1055973114031L37.333333333333336,167.95636522188755L38.5,169.51683015768634L39.666666666666664,165.95565112627924L40.833333333333336,164.06978571891855L42,160.81581715331248L43.16666666666667,165.9808937869651L44.33333333333333,161.83793051584865L45.5,153.23449840639395L46.666666666666664,150.8193722114974L47.833333333333336,145.74966257374084L49,144.9551776125188L50.166666666666664,139.35966472192354L51.33333333333333,134.37933802952568L52.5,135.26146935789413L53.66666666666667,135.0416556744155L54.833333333333336,132.28793619802335L56,129.13752354090587L57.166666666666664,130.49334814720245L58.333333333333336,127.6862220659528L59.5,124.50375691970075L60.66666666666667,121.97003702444039L61.83333333333333,116.82918488804208L63,122.48409569812333L64.16666666666666,120.50854077017324L65.33333333333333,121.32078858421016L66.5,117.18873482165482L67.66666666666667,116.08283426756904L68.83333333333333,112.42292281458363L70,107.10575501434774L71.16666666666666,111.90578543742988L72.33333333333334,109.54214408780884L73.5,112.36882039194971L74.66666666666667,107.32299318644164L75.83333333333333,107.16701817078985L77,104.20191185415926L78.16666666666667,106.41800955514874L79.33333333333333,108.9961581703634L80.5,110.2933477175338L81.66666666666667,106.57710071113203L82.83333333333333,107.21888192948398L84,105.35667029315236L85.16666666666666,102.24176256594978L86.33333333333334,95.25400814011618L87.5,102.17290751034467L88.66666666666666,100.33150489626799L89.83333333333334,100.59999501839063L91,101.63502965339893L92.16666666666667,100.50816931093442L93.33333333333333,88.84535089070086L94.5,89.21374188037484L95.66666666666667,92.05660627441824L96.83333333333333,91.88959397640771L98,89.66695604123076L99.16666666666667,92.45338458189883L100.33333333333333,86.75915966448588L101.5,82.71837565920269L102.66666666666666,82.04179449453704L103.83333333333334,82.2600867355382L105,82.89046132400726L106.16666666666666,80.27230684394846L107.33333333333334,83.57052432348988L108.5,78.6827638982345L109.66666666666667,81.74285799432683L110.83333333333333,81.83102521347793L112,85.12999628500815L113.16666666666667,77.4960165187748L114.33333333333333,75.66230827024081L115.5,75.31117407188806L116.66666666666667,75.4750429857776L117.83333333333333,68.4569819142317L119,67.74190751824301L120.16666666666666,70.3092339987552L121.33333333333334,73.22296969266553L122.5,68.60391943989974L123.66666666666666,73.07372151908696L124.83333333333334,68.76407015768679L126,73.04496213879212L127.16666666666667,73.8656162039859L128.33333333333331,69.73860621249446L129.5,65.6393607900624L130.66666666666666,69.297405583781L131.83333333333334,63.87645891129906L133,64.7438940945493L134.16666666666669,66.0134540703019L135.33333333333334,65.52669194608272L136.5,63.11221223021539L137.66666666666666,67.15687550807225L138.83333333333334,64.58972161127737L140,66.54519152013934L141.16666666666666,64.34755291444984L142.33333333333331,64.27745163063726L143.5,65.73358859195473L144.66666666666669,64.73453171927382L145.83333333333334,61.76297553239533L147,58.10730277079686L148.16666666666666,58.16117948117556L149.33333333333334,54.073486090593626L150.5,56.48998833885604L151.66666666666666,56.8162495041446L152.83333333333331,54.2653265921117L154,51.9856739790895L155.16666666666669,49.11970090974093L156.33333333333334,46.775876128331205L157.5,52.23626405743085L158.66666666666666,52.391275885818146L159.83333333333331,51.98488373898226L161,53.364087878417884L162.16666666666669,52.818270556476264L163.33333333333334,50.867740735774134L164.5,48.94834020762006L165.66666666666666,46.1736604631904L166.83333333333334,43.75975375073015L168,49.42780837320329L169.16666666666666,50.331661157415276L170.33333333333331,43.258191164194535L171.5,44.88200970854054L172.66666666666669,50.72540288769006L173.83333333333334,50.485976926306726L175,45.0986617489988L176.16666666666666,44.36325263188596L177.33333333333331,37.92926492540747L178.5,41.809495661200565L179.66666666666669,41.51581241747229L180.83333333333334,40.34080398349869L182,37.138818933842614L183.16666666666666,35.092786208116735L184.33333333333334,32.99122601094655L185.5,36.34969232325215L186.66666666666666,43.483573785111524L187.83333333333331,41.89601835201832L189,38.945888116689076L190.16666666666669,38.92370732903066L191.33333333333334,39.65948149216842L192.5,40.35064561198522L193.66666666666666,37.76898108080476L194.83333333333331,37.0939229238312L196,41.68283177812123L197.16666666666669,34.822814681543704L198.33333333333334,33.20378441286909L199.5,36.47722736440562L200.66666666666666,32.8230922169832L201.83333333333334,34.376089227472484L203,38.55395005877073L204.16666666666666,41.06066655754965L205.33333333333331,40.56711571141341L206.5,41.269783691468334L207.66666666666669,41.191985235632934L208.83333333333334,36.90044504939042L210,37.44674186671737L211.16666666666666,33.65450054030441L212.33333333333331,31.12945612252248L213.5,27.117449482581375L214.66666666666669,24.210862484818165L215.83333333333334,28.709352144305075L217,36.02784837060498L218.16666666666666,37.6722664951789L219.33333333333334,36.78619455052154L220.5,25.892090108773143L221.66666666666666,25.348369679934844L222.83333333333331,27.26941778996961L224,26.549323836588794L225.16666666666669,21.747548425817076L226.33333333333334,25.98286559923368L227.5,19.160393116066253L228.66666666666666,19.686328286843235L229.83333333333331,22.62371107451354L231,25.509780930784586L232.16666666666669,24.12020191547478L233.33333333333334,19.1664350894798L234.5,18.81601290915661L235.66666666666666,21.477280908101044L236.83333333333334,23.947982269202384L238,22.808565170589368L239.16666666666666,26.86917526803117L240.33333333333331,25.435237761691063L241.5,20.579697537010095L242.66666666666669,19.164571133806454L243.83333333333334,14.944574740877709L245,19.404117629067812L246.16666666666666,17.710124323238674L247.33333333333331,18.4416094632106L248.5,16.13383716605734L249.66666666666669,13.126134360228278L250.83333333333334,13.818492666002705L252,10.98782879439294L253.16666666666666,16.40581289130671L254.33333333333334,17.659022604051433L255.5,7.424246216943683" style="fill: none;" fill="none"></path></g><g><path stroke="rgb(0, 119, 187)" stroke-width="2px" d="M23.333333333333332,184.3393501068996L24.5,172.6347690869295L25.666666666666664,179.4027301364492L26.833333333333336,177.3682472771973L28,172.8107660607768L29.166666666666668,170.4451465367683L30.333333333333336,168.19932794271125L31.5,165.11501967504915L32.666666666666664,156.99193541773235L33.833333333333336,152.04518592354847L35,139.3226782260982L36.16666666666667,140.4772656238734L37.333333333333336,143.54363985294492L38.5,143.0069087096547L39.666666666666664,141.5609705864914L40.833333333333336,136.5726690145147L42,134.2049354876372L43.16666666666667,133.53372684758344L44.33333333333333,131.50790695862634L45.5,134.66236472624243L46.666666666666664,130.56209187114422L47.833333333333336,121.73460213249768L49,120.05883141710676L50.166666666666664,120.30187336820136L51.33333333333333,120.19799746997639L52.5,122.50780634478026L53.66666666666667,119.89852356816773L54.833333333333336,122.32811955558405L56,117.41858217796987L57.166666666666664,113.7237699927582L58.333333333333336,112.63052353711379L59.5,107.85455601182794L60.66666666666667,106.98656469574959L61.83333333333333,104.71788064404615L63,108.22578050590458L64.16666666666666,105.7111097911364L65.33333333333333,101.20593624222651L66.5,98.62768194215505L67.66666666666667,97.45527068694012L68.83333333333333,102.86942410587325L70,105.1191176640635L71.16666666666666,105.59499323566752L72.33333333333334,99.01383577855528L73.5,103.55486353245747L74.66666666666667,97.5400583359701L75.83333333333333,93.68147559652814L77,95.98573649883234L78.16666666666667,94.24707211101712L79.33333333333333,98.44752496386673L80.5,95.59929537908671L81.66666666666667,96.51217931345033L82.83333333333333,100.68052984701691L84,98.56212962149847L85.16666666666666,101.53595059893557L86.33333333333334,100.94812112212439L87.5,101.71906361970719L88.66666666666666,97.93676800551438L89.83333333333334,93.29526045869413L91,90.38550611963528L92.16666666666667,93.00936443990878L93.33333333333333,91.83699982086658L94.5,87.76266049843466L95.66666666666667,81.1980456032013L96.83333333333333,81.87868721170386L98,83.91010348930779L99.16666666666667,84.87926174897076L100.33333333333333,85.33590689380154L101.5,84.86080322993229L102.66666666666666,86.19877234411315L103.83333333333334,87.37610324552283L105,85.71037160806388L106.16666666666666,86.08427243119155L107.33333333333334,82.9376923740615L108.5,89.16491713236493L109.66666666666667,88.65639087460563L110.83333333333333,82.73307420160569L112,83.79849474344829L113.16666666666667,80.44258557774667L114.33333333333333,79.80237176889395L115.5,86.65948382946381L116.66666666666667,80.9106890347201L117.83333333333333,79.58384271424448L119,79.41197586175963L120.16666666666666,74.56460350869393L121.33333333333334,77.14953120423182L122.5,71.08469804277175L123.66666666666666,70.06762794613466L124.83333333333334,69.70708551008666L126,70.4895504211596L127.16666666666667,71.58327842263876L128.33333333333331,67.37040505594952L129.5,64.34328179206764L130.66666666666666,66.77187706151473L131.83333333333334,62.11144217600514L133,61.06306236816886L134.16666666666669,59.560093921732324L135.33333333333334,62.778316040609795L136.5,68.95411853971244L137.66666666666666,65.66806743026152L138.83333333333334,66.69279976766151L140,62.313695421627386L141.16666666666666,61.808655255342735L142.33333333333331,60.756532289769446L143.5,62.37253887776324L144.66666666666669,61.719119633092006L145.83333333333334,56.45794980367768L147,55.54852827336682L148.16666666666666,57.125314026585805L149.33333333333334,56.82288736884644L150.5,51.14808838186038L151.66666666666666,53.236551982011214L152.83333333333331,55.86296994770467L154,51.07153717304361L155.16666666666669,47.32273694651231L156.33333333333334,51.940139608538935L157.5,49.09238028741055L158.66666666666666,47.3837246947336L159.83333333333331,48.98035302433149L161,45.943168531283085L162.16666666666669,50.36329969359901L163.33333333333334,47.52203539864604L164.5,53.30820055942031L165.66666666666666,51.28655666354241L166.83333333333334,46.4529501530749L168,42.17944644119138L169.16666666666666,44.359604570670925L170.33333333333331,45.41799982642454L171.5,43.93061453854082L172.66666666666669,45.535147125012834L173.83333333333334,44.99968517536081L175,46.426289129038956L176.16666666666666,46.65801056144532L177.33333333333331,45.79826116322217L178.5,46.53089340388943L179.66666666666669,43.72441012328507L180.83333333333334,39.543540165650505L182,40.03138119414032L183.16666666666666,42.196824860705576L184.33333333333334,40.874269375440534L185.5,42.70255776948571L186.66666666666666,41.67709213450727L187.83333333333331,38.315149372383864L189,32.30282222430265L190.16666666666669,33.18997044005973L191.33333333333334,37.967136712324994L192.5,33.467338203800715L193.66666666666666,30.642617402753903L194.83333333333331,32.06900585119822L196,28.804819503455754L197.16666666666669,27.845106182546857L198.33333333333334,21.65107727165724L199.5,26.798923468472484L200.66666666666666,33.63310928550435L201.83333333333334,31.11662136964241L203,33.851589732866636L204.16666666666666,26.378607585517912L205.33333333333331,31.757880328194393L206.5,33.98664548606362L207.66666666666669,32.07784195578045L208.83333333333334,33.3046819008806L210,33.41654492814012L211.16666666666666,35.356401793967116L212.33333333333331,26.407554260443543L213.5,27.780086842342566L214.66666666666669,22.486006229269385L215.83333333333334,26.80049782924113L217,25.394031298417037L218.16666666666666,23.676194588118157L219.33333333333334,29.38733366395207L220.5,30.94129429005073L221.66666666666666,30.00093161623862L222.83333333333331,29.936113255819652L224,27.649941872230496L225.16666666666669,24.780057540541744L226.33333333333334,28.301770311936775L227.5,24.79659705642943L228.66666666666666,20.446212735787316L229.83333333333331,15.089318762265671L231,15.745485942957984L232.16666666666669,18.51132454471295L233.33333333333334,22.792649390970073L234.5,22.739622613520226L235.66666666666666,22.208407303181946L236.83333333333334,22.638776982781458L238,22.772140864539285L239.16666666666666,20.604878826256247L240.33333333333331,15.184518416547018L241.5,8.436523693712923L242.66666666666669,8.008347032953244L243.83333333333334,11.996302149238748L245,14.763616536876459L246.16666666666666,15.674922533726303L247.33333333333331,17.96958725530566L248.5,15.351224597446084L249.66666666666669,14.404447942530917L250.83333333333334,10.84000271644159L252,11.94741443586239L253.16666666666666,12.1124622236465L254.33333333333334,10.338751846845637L255.5,14.892726539109482" style="fill: none;" fill="none"></path></g><g><path stroke="rgb(255, 112, 67)" stroke-width="2px" d="M23.333333333333332,178.4090246611375L24.5,172.36166266138736L25.666666666666664,169.3957092919043L26.833333333333336,166.65281396961862L28,168.2320359200902L29.166666666666668,164.775480316452L30.333333333333336,165.24817872087124L31.5,156.63446609051854L32.666666666666664,153.4515786856432L33.833333333333336,147.91985401771024L35,146.37654950080295L36.16666666666667,147.95658523716403L37.333333333333336,145.40206053657877L38.5,139.8731879571868L39.666666666666664,135.18465277988932L40.833333333333336,134.74574250924437L42,136.1057816899715L43.16666666666667,140.66750826186814L44.33333333333333,133.79029943768356L45.5,130.91277800048394L46.666666666666664,133.18158160634692L47.833333333333336,129.7985091140458L49,123.89835187207669L50.166666666666664,126.22621569280514L51.33333333333333,123.62774596156943L52.5,124.19110302770721L53.66666666666667,118.41151834387851L54.833333333333336,114.44437176886049L56,113.06288423877L57.166666666666664,114.85581431130798L58.333333333333336,115.43218090607898L59.5,105.04099736667037L60.66666666666667,108.79419197626461L61.83333333333333,105.1782160339531L63,110.62441232954009L64.16666666666666,106.15149849241773L65.33333333333333,104.59139041029373L66.5,103.15592632147586L67.66666666666667,105.16617730016718L68.83333333333333,100.50442733639306L70,100.2043573533915L71.16666666666666,97.77703499532535L72.33333333333334,96.69518289920777L73.5,101.16488143213485L74.66666666666667,99.97638075611829L75.83333333333333,101.0111695892007L77,89.39685067916051L78.16666666666667,91.5422306139372L79.33333333333333,93.70339913651887L80.5,92.37827044978904L81.66666666666667,91.08380210892213L82.83333333333333,85.9374101806849L84,92.33808762195308L85.16666666666666,87.81362167218255L86.33333333333334,87.84561359849623L87.5,90.98602968335804L88.66666666666666,85.75389691439315L89.83333333333334,87.10917798769103L91,85.17566702046337L92.16666666666667,86.76224005133308L93.33333333333333,92.20873648949566L94.5,90.48268248888402L95.66666666666667,85.70158821964404L96.83333333333333,77.46443036168985L98,74.64456620328804L99.16666666666667,79.81933050619243L100.33333333333333,79.30357703002912L101.5,75.99774571119093L102.66666666666666,71.64212485661803L103.83333333333334,71.6505740290784L105,72.90413352719057L106.16666666666666,73.40656960412375L107.33333333333334,75.95531161762135L108.5,71.74150609640851L109.66666666666667,74.45688238415879L110.83333333333333,74.33821891830465L112,73.76762970995871L113.16666666666667,75.79739824822114L114.33333333333333,72.5206986365031L115.5,72.55226772991072L116.66666666666667,71.19786938035223L117.83333333333333,71.50887055428602L119,72.81911144231518L120.16666666666666,68.73614580755594L121.33333333333334,59.794224946621306L122.5,65.16608313791585L123.66666666666666,64.89342769071881L124.83333333333334,63.3564946167976L126,57.69007441583515L127.16666666666667,53.16658211158885L128.33333333333331,58.068268392789044L129.5,60.88443846557685L130.66666666666666,55.33290016336801L131.83333333333334,58.369276966189524L133,56.82018249687584L134.16666666666669,50.64706621480971L135.33333333333334,57.68019903839042L136.5,55.53279517846161L137.66666666666666,52.746155130899446L138.83333333333334,51.698428272232334L140,55.18979534377151L141.16666666666666,56.0361337070939L142.33333333333331,59.78999935009202L143.5,55.30047763387771L144.66666666666669,54.47950365362049L145.83333333333334,55.98450001086967L147,53.39173557828035L148.16666666666666,53.708799738128405L149.33333333333334,54.8978367217739L150.5,52.36518005688685L151.66666666666666,47.724365128882155L152.83333333333331,52.430816139895015L154,49.13708658429007L155.16666666666669,48.15964733866373L156.33333333333334,51.443487356093144L157.5,45.92286762880478L158.66666666666666,44.857776159769564L159.83333333333331,45.84176070588555L161,45.05881162795218L162.16666666666669,44.089642937323774L163.33333333333334,50.749382068828304L164.5,50.37550650898778L165.66666666666666,45.5317787424757L166.83333333333334,46.246162255509276L168,50.29539630620052L169.16666666666666,48.60493354987587L170.33333333333331,50.08763588535297L171.5,49.60391748103621L172.66666666666669,39.5754661032927L173.83333333333334,46.917235784740804L175,42.95741706405925L176.16666666666666,42.32940695511972L177.33333333333331,37.20834053314637L178.5,37.631479156970904L179.66666666666669,39.63324345473504L180.83333333333334,42.83188277879708L182,37.38498433142059L183.16666666666666,35.739884690531845L184.33333333333334,32.006145294792574L185.5,38.005924260897515L186.66666666666666,35.86274902628386L187.83333333333331,33.45320370184677L189,35.752938376057536L190.16666666666669,42.251580855060034L191.33333333333334,39.783482788384376L192.5,35.43110264124066L193.66666666666666,31.321476821349535L194.83333333333331,29.85449981715144L196,29.099155310564868L197.16666666666669,31.392628217819016L198.33333333333334,35.64023326930977L199.5,33.569393869596475L200.66666666666666,33.325672487435476L201.83333333333334,28.310337605596974L203,25.301136676493904L204.16666666666666,27.86533515777528L205.33333333333331,27.90565651493918L206.5,26.181968205768065L207.66666666666669,28.019276527403708L208.83333333333334,21.75557947857132L210,23.36586254568208L211.16666666666666,24.456890311950495L212.33333333333331,28.232727900784013L213.5,27.876392538810215L214.66666666666669,27.91229094356013L215.83333333333334,30.181110353747783L217,31.667259925862332L218.16666666666666,28.563771948254175L219.33333333333334,34.0677774335728L220.5,29.254999817147716L221.66666666666666,24.120052879954876L222.83333333333331,23.28636508497691L224,20.66371373658468L225.16666666666669,22.21134385662175L226.33333333333334,23.764179098514226L227.5,18.203738763570712L228.66666666666666,17.489296247808657L229.83333333333331,18.184270922020307L231,21.223077411751436L232.16666666666669,25.043942050993753L233.33333333333334,23.09159972179779L234.5,18.549273773273637L235.66666666666666,20.568138560768755L236.83333333333334,19.28247744399394L238,18.38623907799682L239.16666666666666,20.34547604767045L240.33333333333331,26.140420660082313L241.5,20.253724640312075L242.66666666666669,16.34714948051383L243.83333333333334,18.372923423378104L245,15.34352667635536L246.16666666666666,18.51984860668559L247.33333333333331,20.05108421694764L248.5,19.596485777501787L249.66666666666669,14.579482587294338L250.83333333333334,10.445640489501018L252,13.084136905301019L253.16666666666666,12.045396839507251L254.33333333333334,14.793073351037581L255.5,15.56773869622103" style="fill: none;" fill="none"></path></g></g></g></g><g opacity="0.2"><g><g><g><path stroke="rgb(51, 187, 238)" stroke-width="2px" d="M24.5,188.08482414832483L25.666666666666664,175.91204872938303L26.833333333333336,159.3695907893548L28,166.8605185846182L29.166666666666668,157.1847190974309L30.333333333333336,159.68169502918536L31.5,154.0635143984281L32.666666666666664,147.5089398978307L33.833333333333336,150.31804035700284L35,145.0119639660762L36.16666666666667,147.196815370413L37.333333333333336,139.08163852031416L38.5,133.4634376019698L39.666666666666664,137.83316069823047L40.833333333333336,136.58466258855967L42,140.95436539723323L43.16666666666667,128.15736121104314L44.33333333333333,129.40585932071392L45.5,120.97855794319742L46.666666666666664,119.10583106627833L47.833333333333336,131.9028352524684L49,116.92095937435444L50.166666666666664,111.3027584560101L51.33333333333333,112.2391320382632L52.5,127.53311215620774L53.66666666666667,106.62093111991882L54.833333333333336,94.44817598856413L56,104.43607971558204L57.166666666666664,88.51785054280208L58.333333333333336,114.73610797001766L59.5,106.62093111991882L60.66666666666667,100.06637690690847L61.83333333333333,89.76632836488577L63,95.69665381064782L64.16666666666666,102.87547736608064L65.33333333333333,101.93910378382756L66.5,89.14209959763747L67.66666666666667,103.49970613332896L68.83333333333333,98.50575426981997L70,93.51180240631103L71.16666666666666,97.88150521498459L72.33333333333334,96.0087783380655L73.5,100.37848114673906L74.66666666666667,96.6330273929009L75.83333333333333,96.6330273929009L77,86.02087461104759L78.16666666666667,105.37245329783514L79.33333333333333,86.95722790571358L80.5,103.81183066074664L81.66666666666667,100.69060567415677L82.83333333333333,90.07845289230346L84,89.45422412505516L85.16666666666666,107.2451801747542L86.33333333333334,93.19967787889334L87.5,94.76030051598181L88.66666666666666,96.32090286548322L89.83333333333334,82.58752509704003L91,87.58147696054898L92.16666666666667,54.49654079290536L93.33333333333333,92.57542882405794L94.5,77.59357323353106L95.66666666666667,77.59357323353106L96.83333333333333,92.88755335147565L98,82.89964962445771L99.16666666666667,94.76030051598181L100.33333333333333,90.07845289230346L101.5,69.47839638343224L102.66666666666666,86.95722790571358L103.83333333333334,73.84809919210579L105,81.33904727495634L106.16666666666666,76.03297088402968L107.33333333333334,72.28749684260443L108.5,67.60564921892606L109.66666666666667,74.16022371952349L110.83333333333333,66.04504686942467L112,64.79654875975388L113.16666666666667,68.85414732859684L114.33333333333333,58.86624360157892L115.5,59.17834784140953L116.66666666666667,74.78447277435889L117.83333333333333,57.92989030691293L119,76.65719965127798L120.16666666666666,56.99349643707275L121.33333333333334,69.79052091084993L122.5,61.051095005915705L123.66666666666666,60.42684595108032L124.83333333333334,52.93593844340396L126,62.6116973554171L127.16666666666667,50.1268379842318L128.33333333333331,53.872291738069954L129.5,56.05714314240676L130.66666666666666,49.19044411439162L131.83333333333334,53.24804268323457L133,58.24199454674354L134.16666666666669,45.13288612072283L135.33333333333334,55.74503890257615L136.5,52.93593844340396L137.66666666666666,50.43894222406239L138.83333333333334,43.884388011052046L140,54.184395977900564L141.16666666666666,43.260138956216664L142.33333333333331,39.82678944220909L143.5,43.260138956216664L144.66666666666669,47.94194600472083L145.83333333333334,51.99954457356379L147,44.50863706588745L148.16666666666666,30.15098995502177L149.33333333333334,45.13288612072283L150.5,34.83283757870013L151.66666666666666,27.65403431085438L152.83333333333331,32.335841359358554L154,48.254090819725604L155.16666666666669,49.19044411439162L156.33333333333334,37.01768898303691L157.5,36.7055847432063L158.66666666666666,27.65403431085438L159.83333333333331,37.32979322286752L161,35.45708663353551L162.16666666666669,34.52069276369534L163.33333333333334,37.32979322286752L164.5,47.00559271005482L165.66666666666666,36.7055847432063L166.83333333333334,40.138893682039686L168,27.34188949584959L169.16666666666666,25.78128714634821L170.33333333333331,42.947994141211865L171.5,33.58433946902934L172.66666666666669,35.45708663353551L173.83333333333334,45.13288612072283L175,47.31773752505961L176.16666666666666,30.15098995502177L177.33333333333331,27.029785256018997L178.5,39.82678944220909L179.66666666666669,44.50863706588745L180.83333333333334,39.51468520237848L182,32.647986174363346L183.16666666666666,30.15098995502177L184.33333333333334,45.757094600384036L185.5,30.463134770026567L186.66666666666666,30.463134770026567L187.83333333333331,37.01768898303691L189,32.647986174363346L190.16666666666669,34.20858852386474L191.33333333333334,25.78128714634821L192.5,38.8904361475431L193.66666666666666,40.76314273687509L194.83333333333331,22.660082447345435L196,23.90853998184202L197.16666666666669,28.278283365689784L198.33333333333334,23.90853998184202L199.5,34.83283757870013L200.66666666666666,17.66613058383647L201.83333333333334,8.614580151484553L203,21.41158433767465L204.16666666666666,25.78128714634821L205.33333333333331,21.099439522669854L206.5,20.787335282839244L207.66666666666669,22.660082447345435L208.83333333333334,22.660082447345435L210,17.66613058383647L211.16666666666666,26.093431961353005L212.33333333333331,12.360033905322712L213.5,29.83888571519116L214.66666666666669,16.417632474165682L215.83333333333334,22.972186687176027L217,16.10548765916089L218.16666666666666,25.157038091512806L219.33333333333334,15.169134364494896L220.5,36.39343992820152L221.66666666666666,14.544885309659513L222.83333333333331,20.475231043008634L224,10.175182500985931L225.16666666666669,32.335841359358554L226.33333333333334,9.550933446150546L227.5,9.86307826115534L228.66666666666666,9.86307826115534L229.83333333333331,17.353985768831677L231,24.844933851682217L232.16666666666669,23.28433150218082L233.33333333333334,13.608532014993498L234.5,18.914588118333075L235.66666666666666,35.14494181853074L236.83333333333334,22.347937632340642L238,14.232781069828903L239.16666666666666,15.793383419330299L240.33333333333331,17.97823482366708L241.5,12.360033905322712L242.66666666666669,15.169134364494896L243.83333333333334,27.34188949584959L245,13.920636254824108L246.16666666666666,6.117583932142979L247.33333333333331,11.735784850487327L248.5,4.556981582641582L249.66666666666669,8.926684391315144L250.83333333333334,27.65403431085438L252,27.65403431085438L253.16666666666666,25.469182906517602L254.33333333333334,6.429728747147772L255.5,14.857030124664286" style="fill: none;" fill="none"></path></g><g><path stroke="rgb(204, 51, 17)" stroke-width="2px" d="M28,189.33330197040854L29.166666666666668,171.54234592070947L30.333333333333336,170.29386809862578L31.5,183.09087228481587L32.666666666666664,193.39090053925148L33.833333333333336,171.23022139329177L35,164.98777142011204L36.16666666666667,162.17869124852695L37.333333333333336,166.23626952978282L38.5,171.85447044812716L39.666666666666664,160.61806861143847L40.833333333333336,161.24231766627386L42,155.9362412753472L43.16666666666667,173.72719732504626L44.33333333333333,155.6241167479295L45.5,140.33013662998493L46.666666666666664,147.196815370413L47.833333333333336,138.14526493806105L49,143.76346585640542L50.166666666666664,130.9664616702153L51.33333333333333,126.90888338895945L52.5,136.58466258855967L53.66666666666667,134.7119357116406L54.833333333333336,128.15736121104314L56,124.41190745720498L57.166666666666664,132.5270843073038L58.333333333333336,123.47553387495188L59.5,119.73005983352661L60.66666666666667,118.16945748402523L61.83333333333333,109.11790705167328L63,130.9664616702153L64.16666666666666,117.54520842918983L65.33333333333333,122.5391602926988L66.5,110.99065421617948L67.66666666666667,114.42398344259995L68.83333333333333,106.93305564733653L70,99.13000332465538L71.16666666666666,119.10583106627833L72.33333333333334,105.99668206508343L73.5,116.60883484693674L74.66666666666667,99.75425237949078L75.83333333333333,106.93305564733653L77,99.75425237949078L78.16666666666667,109.74215610650869L79.33333333333333,112.86338109309857L80.5,112.2391320382632L81.66666666666667,101.00273020157447L82.83333333333333,108.1815537570073L84,102.56335283866295L85.16666666666666,97.56940097515398L86.33333333333334,84.77237650137681L87.5,112.55125656568086L88.66666666666666,97.56940097515398L89.83333333333334,101.00273020157447L91,103.18758160591125L92.16666666666667,98.81787879723768L93.33333333333333,71.35112326035133L94.5,89.76632836488577L95.66666666666667,96.32090286548322L96.83333333333333,91.63907552939195L98,86.33299913846528L99.16666666666667,96.6330273929009L100.33333333333333,78.21782228836646L101.5,76.65719965127798L102.66666666666666,81.02692274753862L103.83333333333334,82.58752509704003L105,83.8360232067108L106.16666666666666,76.34507512386027L107.33333333333334,88.51785054280208L108.5,71.35112326035133L109.66666666666667,86.33299913846528L110.83333333333333,81.96327604220464L112,90.07845289230346L113.16666666666667,66.04504686942467L114.33333333333333,72.9117458974398L115.5,74.78447277435889L116.66666666666667,75.72084635661199L117.83333333333333,57.92989030691293L119,66.66929592426006L120.16666666666666,74.16022371952349L121.33333333333334,77.59357323353106L122.5,61.67534406075111L123.66666666666666,79.77842463786784L124.83333333333334,62.29959311558649L126,79.46630011045015L127.16666666666667,75.09659730177658L128.33333333333331,63.548091225257274L129.5,59.490492656414325L130.66666666666666,74.78447277435889L131.83333333333334,55.74503890257615L133,66.04504686942467L134.16666666666669,67.91779403393083L135.33333333333334,64.79654875975388L136.5,59.490492656414325L137.66666666666666,73.2238704248575L138.83333333333334,60.73899076608511L140,69.47839638343224L141.16666666666666,61.051095005915705L142.33333333333331,64.1722997049185L143.5,67.91779403393083L144.66666666666669,63.23594641025248L145.83333333333334,57.30564125207754L147,52.62379362839919L148.16666666666666,58.24199454674354L149.33333333333334,47.94194600472083L150.5,60.11474171124971L151.66666666666666,57.30564125207754L152.83333333333331,50.43894222406239L154,48.566195059556215L155.16666666666669,44.82074130571804L156.33333333333334,43.260138956216664L157.5,60.42684595108032L158.66666666666666,52.62379362839919L159.83333333333331,51.3752955187284L161,55.432894087571356L162.16666666666669,51.99954457356379L163.33333333333334,47.94194600472083L164.5,46.06923941538883L165.66666666666666,42.01164084654587L166.83333333333334,40.138893682039686L168,57.92989030691293L169.16666666666666,51.68744033373318L170.33333333333331,32.647986174363346L171.5,47.31773752505961L172.66666666666669,59.490492656414325L173.83333333333334,50.1268379842318L175,37.01768898303691L176.16666666666666,43.260138956216664L177.33333333333331,28.278283365689784L178.5,47.62984176489022L179.66666666666669,41.07528755187988L180.83333333333334,38.578291332538306L182,32.335841359358554L183.16666666666666,32.023737119527944L184.33333333333334,29.83888571519116L185.5,41.38739179171047L186.66666666666666,54.184395977900564L187.83333333333331,39.51468520237848L189,34.52069276369534L190.16666666666669,38.8904361475431L191.33333333333334,40.76314273687509L192.5,41.38739179171047L193.66666666666666,33.89648428403414L194.83333333333331,36.08133568837091L196,48.566195059556215L197.16666666666669,24.532789036677425L198.33333333333334,30.775239009857177L199.5,41.38739179171047L200.66666666666666,27.34188949584959L201.83333333333334,36.7055847432063L203,44.82074130571804L204.16666666666666,44.82074130571804L205.33333333333331,39.82678944220909L206.5,42.323785661550666L207.66666666666669,41.07528755187988L208.83333333333334,30.463134770026567L210,38.266187092707696L211.16666666666666,27.96613855068499L212.33333333333331,27.34188949584959L213.5,21.099439522669854L214.66666666666669,19.850981988173253L215.83333333333334,35.45708663353551L217,47.00559271005482L218.16666666666666,40.138893682039686L219.33333333333334,35.45708663353551L220.5,9.550933446150546L221.66666666666666,24.532789036677425L222.83333333333331,30.15098995502177L224,25.469182906517602L225.16666666666669,14.544885309659513L226.33333333333334,32.335841359358554L227.5,8.926684391315144L228.66666666666666,20.475231043008634L229.83333333333331,27.029785256018997L231,29.83888571519116L232.16666666666669,22.035833392510032L233.33333333333334,11.735784850487327L234.5,18.290379638671855L235.66666666666666,25.469182906517602L236.83333333333334,27.65403431085438L238,21.099439522669854L239.16666666666666,32.96009041419396L240.33333333333331,23.28433150218082L241.5,13.296387199988725L242.66666666666669,17.041881529001067L243.83333333333334,8.614580151484553L245,26.093431961353005L246.16666666666666,15.169134364494896L247.33333333333331,19.538837173168456L248.5,12.672178720327505L249.66666666666669,8.614580151484553L250.83333333333334,14.857030124664286L252,6.741832986978363L253.16666666666666,24.532789036677425L254.33333333333334,19.538837173168456L255.5,-7.927918363717904" style="fill: none;" fill="none"></path></g><g><path stroke="rgb(0, 119, 187)" stroke-width="2px" d="M23.333333333333332,184.33935010689956L24.5,165.61202047494743L25.666666666666664,185.89997274398803L26.833333333333336,174.97569543471704L28,166.8605185846182L29.166666666666668,167.1726431120359L30.333333333333336,164.98777142011204L31.5,160.61806861143847L32.666666666666664,145.0119639660762L33.833333333333336,144.6998394386585L35,120.35430888836201L36.16666666666667,142.202863506904L37.333333333333336,148.13318895266607L38.5,142.202863506904L39.666666666666664,139.39376304773182L40.833333333333336,129.09373479329622L42,130.65433714279763L43.16666666666667,132.5270843073038L44.33333333333333,128.46948573846083L45.5,139.39376304773182L46.666666666666664,124.41190745720498L47.833333333333336,108.49365799683791L49,117.54520842918983L50.166666666666664,120.6664334157797L51.33333333333333,120.04218436094432L52.5,125.97250980670636L53.66666666666667,115.98460607968843L54.833333333333336,125.97250980670636L56,110.05428063392638L57.166666666666664,108.1815537570073L58.333333333333336,110.99065421617948L59.5,100.69060567415677L60.66666666666667,105.68457782525283L61.83333333333333,101.31485472899216L63,113.48763014793396L64.16666666666666,101.93910378382756L65.33333333333333,94.44817598856413L66.5,94.76030051598181L67.66666666666667,95.69665381064782L68.83333333333333,110.99065421617948L70,108.49365799683791L71.16666666666666,106.30880659250113L72.33333333333334,89.14209959763747L73.5,110.36640516134409L74.66666666666667,88.51785054280208L75.83333333333333,87.89360148796668L77,99.44212785207307L78.16666666666667,91.63907552939195L79.33333333333333,104.74820424299973L80.5,91.32695100197425L81.66666666666667,97.88150521498459L82.83333333333333,106.93305564733653L84,95.38452928323012L85.16666666666666,105.99668206508343L86.33333333333334,100.06637690690847L87.5,102.87547736608064L88.66666666666666,92.26332458422732L89.83333333333334,86.33299913846528L91,86.02087461104759L92.16666666666667,96.9451519203186L93.33333333333333,90.07845289230346L94.5,81.65115151478693L95.66666666666667,71.35112326035133L96.83333333333333,82.89964962445771L98,86.95722790571358L99.16666666666667,86.33299913846528L100.33333333333333,86.02087461104759L101.5,84.1481477341285L102.66666666666666,88.20572601538437L103.83333333333334,89.14209959763747L105,83.21177415187543L106.16666666666666,86.64512366588299L107.33333333333334,78.21782228836646L108.5,98.50575426981997L109.66666666666667,87.89360148796668L110.83333333333333,73.84809919210579L112,85.39662555621221L113.16666666666667,75.40872182919428L114.33333333333333,78.84205105561476L115.5,96.9451519203186L116.66666666666667,72.28749684260443L117.83333333333333,77.59357323353106L119,79.15417558303245L120.16666666666666,67.29354497909546L121.33333333333334,81.02692274753862L122.5,61.9874483005817L123.66666666666666,68.54202280117914L124.83333333333334,69.16627185601455L126,71.66324778776902L127.16666666666667,73.2238704248575L128.33333333333331,61.051095005915705L129.5,59.802596896244914L130.66666666666666,70.41476996568534L131.83333333333334,55.120789847740745L133,59.490492656414325L134.16666666666669,57.30564125207754L135.33333333333334,67.60564921892606L136.5,78.21782228836646L137.66666666666666,60.73899076608511L138.83333333333334,68.22989827376145L140,55.74503890257615L141.16666666666666,61.051095005915705L142.33333333333331,59.17834784140953L143.5,64.79654875975388L144.66666666666669,60.73899076608511L145.83333333333334,48.566195059556215L147,54.184395977900564L148.16666666666666,59.490492656414325L149.33333333333334,56.36924738223735L150.5,42.635889901381255L151.66666666666666,56.36924738223735L152.83333333333331,59.802596896244914L154,43.884388011052046L155.16666666666669,41.69953660671526L156.33333333333334,58.86624360157892L157.5,44.82074130571804L158.66666666666666,44.82074130571804L159.83333333333331,51.3752955187284L161,41.38739179171047L162.16666666666669,56.99349643707275L163.33333333333334,43.260138956216664L164.5,61.9874483005817L165.66666666666666,48.254090819725604L166.83333333333334,39.20254038737369L168,35.76919087336612L169.16666666666666,47.62984176489022L170.33333333333331,47.00559271005482L171.5,41.69953660671526L172.66666666666669,47.94194600472083L173.83333333333334,44.196492250882656L175,48.566195059556215L176.16666666666666,47.00559271005482L177.33333333333331,44.50863706588745L178.5,47.62984176489022L179.66666666666669,39.51468520237848L180.83333333333334,33.27223522919873L182,40.76314273687509L183.16666666666666,45.44499036055344L184.33333333333334,38.8904361475431L185.5,45.44499036055344L186.66666666666666,40.138893682039686L187.83333333333331,33.27223522919873L189,23.28433150218082L190.16666666666669,34.52069276369534L191.33333333333334,45.13288612072283L192.5,26.717640441014204L193.66666666666666,26.405536201183594L194.83333333333331,34.20858852386474L196,23.90853998184202L197.16666666666669,26.405536201183594L198.33333333333334,12.360033905322712L199.5,34.52069276369534L200.66666666666666,43.884388011052046L201.83333333333334,27.34188949584959L203,37.954042277702904L204.16666666666666,15.169134364494896L205.33333333333331,39.82678944220909L206.5,37.32979322286752L207.66666666666669,29.21463666035578L208.83333333333334,35.14494181853074L210,33.58433946902934L211.16666666666666,38.266187092707696L212.33333333333331,12.984282960158115L213.5,29.83888571519116L214.66666666666669,14.544885309659513L215.83333333333334,33.27223522919873L217,23.28433150218082L218.16666666666666,21.099439522669854L219.33333333333334,37.954042277702904L220.5,33.27223522919873L221.66666666666666,28.590387605520377L222.83333333333331,29.83888571519116L224,24.220684796846815L225.16666666666669,20.475231043008634L226.33333333333334,33.58433946902934L227.5,19.538837173168456L228.66666666666666,13.920636254824108L229.83333333333331,7.053977801983156L231,16.729736713996292L232.16666666666669,22.660082447345435L233.33333333333334,29.21463666035578L234.5,22.660082447345435L235.66666666666666,21.41158433767465L236.83333333333334,23.28433150218082L238,22.972186687176027L239.16666666666666,17.353985768831677L240.33333333333331,7.053977801983156L241.5,-1.6854683905381513L242.66666666666669,7.366082041813766L243.83333333333334,17.97823482366708L245,18.914588118333075L246.16666666666666,17.041881529001067L247.33333333333331,21.41158433767465L248.5,11.423680610656717L249.66666666666669,12.984282960158115L250.83333333333334,5.493334877307576L252,13.608532014993498L253.16666666666666,12.360033905322712L254.33333333333334,7.678186281644376L255.5,21.72368857750524" style="fill: none;" fill="none"></path></g><g><path stroke="rgb(255, 112, 67)" stroke-width="2px" d="M23.333333333333332,178.4090246611375L24.5,168.73324546153728L25.666666666666664,166.5483940572005L26.833333333333336,163.42716907061063L28,170.29386809862578L29.166666666666668,159.99381955660306L30.333333333333336,165.92414500236512L31.5,144.0755903838231L32.666666666666664,148.75743800750146L33.833333333333336,139.70588757514952L35,144.0755903838231L36.16666666666667,150.31804035700284L37.333333333333336,141.57861445206862L38.5,131.5907107250507L39.666666666666664,128.15736121104314L40.833333333333336,134.0876866568052L42,138.14526493806105L43.16666666666667,147.5089398978307L44.33333333333333,123.47553387495188L45.5,126.59675886154174L46.666666666666664,136.58466258855967L47.833333333333336,124.72401169703556L49,115.04823249743535L50.166666666666664,129.7179838481316L51.33333333333333,119.73005983352661L52.5,125.03613622445326L53.66666666666667,109.74215610650869L54.833333333333336,108.49365799683791L56,110.99065421617948L57.166666666666664,117.54520842918983L58.333333333333336,116.29673060710614L59.5,89.45422412505516L60.66666666666667,114.42398344259995L61.83333333333333,99.75425237949078L63,118.7937065388606L64.16666666666666,99.44212785207307L65.33333333333333,102.25122831124526L66.5,101.00273020157447L67.66666666666667,108.1815537570073L68.83333333333333,93.51180240631103L70,99.75425237949078L71.16666666666666,94.13605146114641L72.33333333333334,95.07240475581241L73.5,107.8694292295896L74.66666666666667,98.19362974240231L75.83333333333333,102.56335283866295L77,71.9753723151867L78.16666666666667,94.76030051598181L79.33333333333333,96.9451519203186L80.5,90.39057741972117L81.66666666666667,89.14209959763747L82.83333333333333,78.21782228836646L84,101.93910378382756L85.16666666666666,81.02692274753862L86.33333333333334,87.89360148796668L87.5,95.69665381064782L88.66666666666666,77.90569776094877L89.83333333333334,89.14209959763747L91,82.27540056962233L92.16666666666667,89.14209959763747L93.33333333333333,100.37848114673906L94.5,87.89360148796668L95.66666666666667,78.52994681578416L96.83333333333333,65.10869357475868L98,70.41476996568534L99.16666666666667,87.58147696054898L100.33333333333333,78.52994681578416L101.5,71.03899873293363L102.66666666666666,65.10869357475868L103.83333333333334,71.66324778776902L105,74.78447277435889L106.16666666666666,74.16022371952349L107.33333333333334,79.77842463786784L108.5,65.42079781458926L109.66666666666667,78.52994681578416L110.83333333333333,74.16022371952349L112,72.9117458974398L113.16666666666667,78.84205105561476L114.33333333333333,67.60564921892606L115.5,72.5996213700221L116.66666666666667,69.16627185601455L117.83333333333333,71.9753723151867L119,74.78447277435889L120.16666666666666,62.6116973554171L121.33333333333334,46.38134365521944L122.5,73.2238704248575L123.66666666666666,64.48444451992327L124.83333333333334,61.051095005915705L126,49.19044411439162L127.16666666666667,46.38134365521944L128.33333333333331,65.42079781458926L129.5,65.10869357475868L130.66666666666666,47.00559271005482L131.83333333333334,62.92384217042189L133,54.49654079290536L134.16666666666669,41.38739179171047L135.33333333333334,68.22989827376145L136.5,52.31168938856858L137.66666666666666,48.566195059556215L138.83333333333334,50.1268379842318L140,60.42684595108032L141.16666666666666,57.30564125207754L142.33333333333331,65.42079781458926L143.5,48.566195059556215L144.66666666666669,53.24804268323457L145.83333333333334,58.24199454674354L147,49.502588929396396L148.16666666666666,54.184395977900564L149.33333333333334,56.68139219724214L150.5,48.566195059556215L151.66666666666666,40.76314273687509L152.83333333333331,59.490492656414325L154,44.196492250882656L155.16666666666669,46.69348847022423L156.33333333333334,56.36924738223735L157.5,37.641938037872315L158.66666666666666,43.260138956216664L159.83333333333331,47.31773752505961L161,43.884388011052046L162.16666666666669,42.635889901381255L163.33333333333334,60.73899076608511L164.5,49.814693169227006L165.66666666666666,38.266187092707696L166.83333333333334,47.31773752505961L168,56.36924738223735L169.16666666666666,46.06923941538883L170.33333333333331,52.31168938856858L171.5,48.87833987456101L172.66666666666669,24.532789036677425L173.83333333333334,57.92989030691293L175,37.01768898303691L176.16666666666666,41.38739179171047L177.33333333333331,29.52674090018639L178.5,38.266187092707696L179.66666666666669,42.635889901381255L180.83333333333334,47.62984176489022L182,29.21463666035578L183.16666666666666,33.27223522919873L184.33333333333334,26.405536201183594L185.5,47.00559271005482L186.66666666666666,32.647986174363346L187.83333333333331,29.83888571519116L189,39.20254038737369L190.16666666666669,51.99954457356379L191.33333333333334,36.08133568837091L192.5,28.90253242052517L193.66666666666666,25.157038091512806L194.83333333333331,27.65403431085438L196,27.96613855068499L197.16666666666669,34.83283757870013L198.33333333333334,42.01164084654587L199.5,30.463134770026567L200.66666666666666,32.96009041419396L201.83333333333334,20.787335282839244L203,20.787335282839244L204.16666666666666,31.711632879697355L205.33333333333331,27.96613855068499L206.5,23.59643574201143L207.66666666666669,30.775239009857177L208.83333333333334,12.360033905322712L210,25.78128714634821L211.16666666666666,26.093431961353005L212.33333333333331,33.89648428403414L213.5,27.34188949584959L214.66666666666669,27.96613855068499L215.83333333333334,33.58433946902934L217,33.89648428403414L218.16666666666666,23.90853998184202L219.33333333333334,42.323785661550666L220.5,22.035833392510032L221.66666666666666,16.417632474165682L222.83333333333331,22.035833392510032L224,16.729736713996292L225.16666666666669,24.532789036677425L226.33333333333334,26.093431961353005L227.5,9.86307826115534L228.66666666666666,16.417632474165682L229.83333333333331,19.226732933337868L231,25.78128714634821L232.16666666666669,30.775239009857177L233.33333333333334,20.163086228003863L234.5,11.735784850487327L235.66666666666666,23.59643574201143L236.83333333333334,17.353985768831677L238,17.041881529001067L239.16666666666666,23.28433150218082L240.33333333333331,34.83283757870013L241.5,11.423680610656717L242.66666666666669,10.487286740816542L243.83333333333334,21.41158433767465L245,10.799431555821334L246.16666666666666,23.28433150218082L247.33333333333331,22.347937632340642L248.5,18.914588118333075L249.66666666666669,7.053977801983156L250.83333333333334,4.244877342810991L252,17.041881529001067L253.16666666666666,10.487286740816542L254.33333333333334,18.914588118333075L255.5,16.729736713996292" style="fill: none;" fill="none"></path></g></g></g></g></g></g><g transform="translate(50, 176)" clip-path="url(#clip_1)"><clipPath id="clip_1"><rect width="279" height="22"></rect></clipPath><g><g><line x1="0" y1="0" x2="0" y2="5" style="visibility: inherit;" fill="rgb(0, 0, 0)" stroke="rgb(204, 204, 204)" stroke-width="1px"></line><line x1="23.333333333333332" y1="0" x2="23.333333333333332" y2="5" style="visibility: inherit;" fill="rgb(0, 0, 0)" stroke="rgb(204, 204, 204)" stroke-width="1px"></line><line x1="46.666666666666664" y1="0" x2="46.666666666666664" y2="5" style="visibility: inherit;" fill="rgb(0, 0, 0)" stroke="rgb(204, 204, 204)" stroke-width="1px"></line><line x1="70" y1="0" x2="70" y2="5" style="visibility: inherit;" fill="rgb(0, 0, 0)" stroke="rgb(204, 204, 204)" stroke-width="1px"></line><line x1="93.33333333333333" y1="0" x2="93.33333333333333" y2="5" style="visibility: inherit;" fill="rgb(0, 0, 0)" stroke="rgb(204, 204, 204)" stroke-width="1px"></line><line x1="116.66666666666667" y1="0" x2="116.66666666666667" y2="5" style="visibility: inherit;" fill="rgb(0, 0, 0)" stroke="rgb(204, 204, 204)" stroke-width="1px"></line><line x1="140" y1="0" x2="140" y2="5" style="visibility: inherit;" fill="rgb(0, 0, 0)" stroke="rgb(204, 204, 204)" stroke-width="1px"></line><line x1="163.33333333333334" y1="0" x2="163.33333333333334" y2="5" style="visibility: inherit;" fill="rgb(0, 0, 0)" stroke="rgb(204, 204, 204)" stroke-width="1px"></line><line x1="186.66666666666666" y1="0" x2="186.66666666666666" y2="5" style="visibility: inherit;" fill="rgb(0, 0, 0)" stroke="rgb(204, 204, 204)" stroke-width="1px"></line><line x1="210" y1="0" x2="210" y2="5" style="visibility: inherit;" fill="rgb(0, 0, 0)" stroke="rgb(204, 204, 204)" stroke-width="1px"></line><line x1="233.33333333333334" y1="0" x2="233.33333333333334" y2="5" style="visibility: inherit;" fill="rgb(0, 0, 0)" stroke="rgb(204, 204, 204)" stroke-width="1px"></line><line x1="256.66666666666663" y1="0" x2="256.66666666666663" y2="5" style="visibility: inherit;" fill="rgb(0, 0, 0)" stroke="rgb(204, 204, 204)" stroke-width="1px"></line><line x1="280" y1="0" x2="280" y2="5" style="visibility: inherit;" fill="rgb(0, 0, 0)" stroke="rgb(204, 204, 204)" stroke-width="1px"></line></g><g transform="translate(0, 8)"><text x="0" y="0" dx="0em" dy="0.95em" style="text-anchor: middle; visibility: hidden; font-family: Roboto, sans-serif; font-size: 12px; font-weight: 200;" fill="rgb(33, 33, 33)" stroke="none" stroke-width="1px">-20</text><text x="23.333333333333332" y="0" dx="0em" dy="0.95em" style="text-anchor: middle; visibility: inherit; font-family: Roboto, sans-serif; font-size: 12px; font-weight: 200;" fill="rgb(33, 33, 33)" stroke="none" stroke-width="1px">0</text><text x="46.666666666666664" y="0" dx="0em" dy="0.95em" style="text-anchor: middle; visibility: hidden; font-family: Roboto, sans-serif; font-size: 12px; font-weight: 200;" fill="rgb(33, 33, 33)" stroke="none" stroke-width="1px">20</text><text x="70" y="0" dx="0em" dy="0.95em" style="text-anchor: middle; visibility: inherit; font-family: Roboto, sans-serif; font-size: 12px; font-weight: 200;" fill="rgb(33, 33, 33)" stroke="none" stroke-width="1px">40</text><text x="93.33333333333333" y="0" dx="0em" dy="0.95em" style="text-anchor: middle; visibility: hidden; font-family: Roboto, sans-serif; font-size: 12px; font-weight: 200;" fill="rgb(33, 33, 33)" stroke="none" stroke-width="1px">60</text><text x="116.66666666666667" y="0" dx="0em" dy="0.95em" style="text-anchor: middle; visibility: inherit; font-family: Roboto, sans-serif; font-size: 12px; font-weight: 200;" fill="rgb(33, 33, 33)" stroke="none" stroke-width="1px">80</text><text x="140" y="0" dx="0em" dy="0.95em" style="text-anchor: middle; visibility: hidden; font-family: Roboto, sans-serif; font-size: 12px; font-weight: 200;" fill="rgb(33, 33, 33)" stroke="none" stroke-width="1px">100</text><text x="163.33333333333334" y="0" dx="0em" dy="0.95em" style="text-anchor: middle; visibility: inherit; font-family: Roboto, sans-serif; font-size: 12px; font-weight: 200;" fill="rgb(33, 33, 33)" stroke="none" stroke-width="1px">120</text><text x="186.66666666666666" y="0" dx="0em" dy="0.95em" style="text-anchor: middle; visibility: hidden; font-family: Roboto, sans-serif; font-size: 12px; font-weight: 200;" fill="rgb(33, 33, 33)" stroke="none" stroke-width="1px">140</text><text x="210" y="0" dx="0em" dy="0.95em" style="text-anchor: middle; visibility: inherit; font-family: Roboto, sans-serif; font-size: 12px; font-weight: 200;" fill="rgb(33, 33, 33)" stroke="none" stroke-width="1px">160</text><text x="233.33333333333334" y="0" dx="0em" dy="0.95em" style="text-anchor: middle; visibility: hidden; font-family: Roboto, sans-serif; font-size: 12px; font-weight: 200;" fill="rgb(33, 33, 33)" stroke="none" stroke-width="1px">180</text><text x="256.66666666666663" y="0" dx="0em" dy="0.95em" style="text-anchor: middle; visibility: inherit; font-family: Roboto, sans-serif; font-size: 12px; font-weight: 200;" fill="rgb(33, 33, 33)" stroke="none" stroke-width="1px">200</text><text x="280" y="0" dx="0em" dy="0.95em" style="text-anchor: middle; visibility: hidden; font-family: Roboto, sans-serif; font-size: 12px; font-weight: 200;" fill="rgb(33, 33, 33)" stroke="none" stroke-width="1px">220</text></g><line x1="0" y1="0" x2="280" y2="0" fill="rgb(0, 0, 0)" stroke="rgb(204, 204, 204)" stroke-width="1px"></line></g></g></g></g></svg>