<svg viewBox="0 0 330 199.9921875" xmlns="http://www.w3.org/2000/svg"><g><g><g><g><g><line x1="50" y1="176.992" x2="45" y2="176.992" style="visibility: inherit;" fill="rgb(0, 0, 0)" stroke="rgb(204, 204, 204)" stroke-width="1px"></line><line x1="50" y1="164.34971428571427" x2="45" y2="164.34971428571427" style="visibility: inherit;" fill="rgb(0, 0, 0)" stroke="rgb(204, 204, 204)" stroke-width="1px"></line><line x1="50" y1="151.70742857142855" x2="45" y2="151.70742857142855" style="visibility: inherit;" fill="rgb(0, 0, 0)" stroke="rgb(204, 204, 204)" stroke-width="1px"></line><line x1="50" y1="139.06514285714286" x2="45" y2="139.06514285714286" style="visibility: inherit;" fill="rgb(0, 0, 0)" stroke="rgb(204, 204, 204)" stroke-width="1px"></line><line x1="50" y1="126.42285714285713" x2="45" y2="126.42285714285713" style="visibility: inherit;" fill="rgb(0, 0, 0)" stroke="rgb(204, 204, 204)" stroke-width="1px"></line><line x1="50" y1="113.7805714285714" x2="45" y2="113.7805714285714" style="visibility: inherit;" fill="rgb(0, 0, 0)" stroke="rgb(204, 204, 204)" stroke-width="1px"></line><line x1="50" y1="101.1382857142857" x2="45" y2="101.1382857142857" style="visibility: inherit;" fill="rgb(0, 0, 0)" stroke="rgb(204, 204, 204)" stroke-width="1px"></line><line x1="50" y1="88.496" x2="45" y2="88.496" style="visibility: inherit;" fill="rgb(0, 0, 0)" stroke="rgb(204, 204, 204)" stroke-width="1px"></line><line x1="50" y1="75.85371428571426" x2="45" y2="75.85371428571426" style="visibility: inherit;" fill="rgb(0, 0, 0)" stroke="rgb(204, 204, 204)" stroke-width="1px"></line><line x1="50" y1="63.21142857142858" x2="45" y2="63.21142857142858" style="visibility: inherit;" fill="rgb(0, 0, 0)" stroke="rgb(204, 204, 204)" stroke-width="1px"></line><line x1="50" y1="50.56914285714285" x2="45" y2="50.56914285714285" style="visibility: inherit;" fill="rgb(0, 0, 0)" stroke="rgb(204, 204, 204)" stroke-width="1px"></line><line x1="50" y1="37.92685714285712" x2="45" y2="37.92685714285712" style="visibility: inherit;" fill="rgb(0, 0, 0)" stroke="rgb(204, 204, 204)" stroke-width="1px"></line><line x1="50" y1="25.284571428571414" x2="45" y2="25.284571428571414" style="visibility: inherit;" fill="rgb(0, 0, 0)" stroke="rgb(204, 204, 204)" stroke-width="1px"></line><line x1="50" y1="12.642285714285688" x2="45" y2="12.642285714285688" style="visibility: inherit;" fill="rgb(0, 0, 0)" stroke="rgb(204, 204, 204)" stroke-width="1px"></line><line x1="50" y1="0" x2="45" y2="0" style="visibility: inherit;" fill="rgb(0, 0, 0)" stroke="rgb(204, 204, 204)" stroke-width="1px"></line></g><g transform="translate(40, 0)"><text x="0" y="176.992" dx="0em" dy="0.3em" style="text-anchor: end; visibility: hidden; font-family: Roboto, sans-serif; font-size: 12px; font-weight: 200;" fill="rgb(33, 33, 33)" stroke="none" stroke-width="1px">-0.2</text><text x="0" y="164.34971428571427" dx="0em" dy="0.3em" style="text-anchor: end; visibility: inherit; font-family: Roboto, sans-serif; font-size: 12px; font-weight: 200;" fill="rgb(33, 33, 33)" stroke="none" stroke-width="1px">-0.1</text><text x="0" y="151.70742857142855" dx="0em" dy="0.3em" style="text-anchor: end; visibility: hidden; font-family: Roboto, sans-serif; font-size: 12px; font-weight: 200;" fill="rgb(33, 33, 33)" stroke="none" stroke-width="1px">0</text><text x="0" y="139.06514285714286" dx="0em" dy="0.3em" style="text-anchor: end; visibility: inherit; font-family: Roboto, sans-serif; font-size: 12px; font-weight: 200;" fill="rgb(33, 33, 33)" stroke="none" stroke-width="1px">0.1</text><text x="0" y="126.42285714285713" dx="0em" dy="0.3em" style="text-anchor: end; visibility: hidden; font-family: Roboto, sans-serif; font-size: 12px; font-weight: 200;" fill="rgb(33, 33, 33)" stroke="none" stroke-width="1px">0.2</text><text x="0" y="113.7805714285714" dx="0em" dy="0.3em" style="text-anchor: end; visibility: inherit; font-family: Roboto, sans-serif; font-size: 12px; font-weight: 200;" fill="rgb(33, 33, 33)" stroke="none" stroke-width="1px">0.3</text><text x="0" y="101.1382857142857" dx="0em" dy="0.3em" style="text-anchor: end; visibility: hidden; font-family: Roboto, sans-serif; font-size: 12px; font-weight: 200;" fill="rgb(33, 33, 33)" stroke="none" stroke-width="1px">0.4</text><text x="0" y="88.496" dx="0em" dy="0.3em" style="text-anchor: end; visibility: inherit; font-family: Roboto, sans-serif; font-size: 12px; font-weight: 200;" fill="rgb(33, 33, 33)" stroke="none" stroke-width="1px">0.5</text><text x="0" y="75.85371428571426" dx="0em" dy="0.3em" style="text-anchor: end; visibility: hidden; font-family: Roboto, sans-serif; font-size: 12px; font-weight: 200;" fill="rgb(33, 33, 33)" stroke="none" stroke-width="1px">0.6</text><text x="0" y="63.21142857142858" dx="0em" dy="0.3em" style="text-anchor: end; visibility: inherit; font-family: Roboto, sans-serif; font-size: 12px; font-weight: 200;" fill="rgb(33, 33, 33)" stroke="none" stroke-width="1px">0.7</text><text x="0" y="50.56914285714285" dx="0em" dy="0.3em" style="text-anchor: end; visibility: hidden; font-family: Roboto, sans-serif; font-size: 12px; font-weight: 200;" fill="rgb(33, 33, 33)" stroke="none" stroke-width="1px">0.8</text><text x="0" y="37.92685714285712" dx="0em" dy="0.3em" style="text-anchor: end; visibility: inherit; font-family: Roboto, sans-serif; font-size: 12px; font-weight: 200;" fill="rgb(33, 33, 33)" stroke="none" stroke-width="1px">0.9</text><text x="0" y="25.284571428571414" dx="0em" dy="0.3em" style="text-anchor: end; visibility: hidden; font-family: Roboto, sans-serif; font-size: 12px; font-weight: 200;" fill="rgb(33, 33, 33)" stroke="none" stroke-width="1px">1</text><text x="0" y="12.642285714285688" dx="0em" dy="0.3em" style="text-anchor: end; visibility: inherit; font-family: Roboto, sans-serif; font-size: 12px; font-weight: 200;" fill="rgb(33, 33, 33)" stroke="none" stroke-width="1px">1.1</text><text x="0" y="0" dx="0em" dy="0.3em" style="text-anchor: end; visibility: hidden; font-family: Roboto, sans-serif; font-size: 12px; font-weight: 200;" fill="rgb(33, 33, 33)" stroke="none" stroke-width="1px">1.2</text></g><line x1="50" y1="0" x2="50" y2="176.992" fill="rgb(0, 0, 0)" stroke="rgb(204, 204, 204)" stroke-width="1px"></line></g></g><g transform="translate(50, 0)" clip-path="url(#clip_0)"><clipPath id="clip_0"><rect width="279" height="176"></rect></clipPath><g><g><g><line x1="0" y1="0" x2="0" y2="176.992" fill="rgb(0, 0, 0)" stroke="rgb(66, 66, 66)" stroke-width="1px" opacity="0.25"></line><line x1="23.333333333333332" y1="0" x2="23.333333333333332" y2="176.992" fill="rgb(0, 0, 0)" stroke="rgb(66, 66, 66)" stroke-width="1px" opacity="0.25"></line><line x1="46.666666666666664" y1="0" x2="46.666666666666664" y2="176.992" fill="rgb(0, 0, 0)" stroke="rgb(66, 66, 66)" stroke-width="1px" opacity="0.25"></line><line x1="70" y1="0" x2="70" y2="176.992" fill="rgb(0, 0, 0)" stroke="rgb(66, 66, 66)" stroke-width="1px" opacity="0.25"></line><line x1="93.33333333333333" y1="0" x2="93.33333333333333" y2="176.992" fill="rgb(0, 0, 0)" stroke="rgb(66, 66, 66)" stroke-width="1px" opacity="0.25"></line><line x1="116.66666666666667" y1="0" x2="116.66666666666667" y2="176.992" fill="rgb(0, 0, 0)" stroke="rgb(66, 66, 66)" stroke-width="1px" opacity="0.25"></line><line x1="140" y1="0" x2="140" y2="176.992" fill="rgb(0, 0, 0)" stroke="rgb(66, 66, 66)" stroke-width="1px" opacity="0.25"></line><line x1="163.33333333333334" y1="0" x2="163.33333333333334" y2="176.992" fill="rgb(0, 0, 0)" stroke="rgb(66, 66, 66)" stroke-width="1px" opacity="0.25"></line><line x1="186.66666666666666" y1="0" x2="186.66666666666666" y2="176.992" fill="rgb(0, 0, 0)" stroke="rgb(66, 66, 66)" stroke-width="1px" opacity="0.25"></line><line x1="210" y1="0" x2="210" y2="176.992" fill="rgb(0, 0, 0)" stroke="rgb(66, 66, 66)" stroke-width="1px" opacity="0.25"></line><line x1="233.33333333333334" y1="0" x2="233.33333333333334" y2="176.992" fill="rgb(0, 0, 0)" stroke="rgb(66, 66, 66)" stroke-width="1px" opacity="0.25"></line><line x1="256.66666666666663" y1="0" x2="256.66666666666663" y2="176.992" fill="rgb(0, 0, 0)" stroke="rgb(66, 66, 66)" stroke-width="1px" opacity="0.25"></line><line x1="280" y1="0" x2="280" y2="176.992" fill="rgb(0, 0, 0)" stroke="rgb(66, 66, 66)" stroke-width="1px" opacity="0.25"></line></g><g><line x1="0" y1="176.992" x2="280" y2="176.992" fill="rgb(0, 0, 0)" stroke="rgb(66, 66, 66)" stroke-width="1px" opacity="0.25"></line><line x1="0" y1="164.34971428571427" x2="280" y2="164.34971428571427" fill="rgb(0, 0, 0)" stroke="rgb(66, 66, 66)" stroke-width="1px" opacity="0.25"></line><line x1="0" y1="151.70742857142855" x2="280" y2="151.70742857142855" fill="rgb(0, 0, 0)" stroke="rgb(66, 66, 66)" stroke-width="1px" opacity="0.25"></line><line x1="0" y1="139.06514285714286" x2="280" y2="139.06514285714286" fill="rgb(0, 0, 0)" stroke="rgb(66, 66, 66)" stroke-width="1px" opacity="0.25"></line><line x1="0" y1="126.42285714285713" x2="280" y2="126.42285714285713" fill="rgb(0, 0, 0)" stroke="rgb(66, 66, 66)" stroke-width="1px" opacity="0.25"></line><line x1="0" y1="113.7805714285714" x2="280" y2="113.7805714285714" fill="rgb(0, 0, 0)" stroke="rgb(66, 66, 66)" stroke-width="1px" opacity="0.25"></line><line x1="0" y1="101.1382857142857" x2="280" y2="101.1382857142857" fill="rgb(0, 0, 0)" stroke="rgb(66, 66, 66)" stroke-width="1px" opacity="0.25"></line><line x1="0" y1="88.496" x2="280" y2="88.496" fill="rgb(0, 0, 0)" stroke="rgb(66, 66, 66)" stroke-width="1px" opacity="0.25"></line><line x1="0" y1="75.85371428571426" x2="280" y2="75.85371428571426" fill="rgb(0, 0, 0)" stroke="rgb(66, 66, 66)" stroke-width="1px" opacity="0.25"></line><line x1="0" y1="63.21142857142858" x2="280" y2="63.21142857142858" fill="rgb(0, 0, 0)" stroke="rgb(66, 66, 66)" stroke-width="1px" opacity="0.25"></line><line x1="0" y1="50.56914285714285" x2="280" y2="50.56914285714285" fill="rgb(0, 0, 0)" stroke="rgb(66, 66, 66)" stroke-width="1px" opacity="0.25"></line><line x1="0" y1="37.92685714285712" x2="280" y2="37.92685714285712" fill="rgb(0, 0, 0)" stroke="rgb(66, 66, 66)" stroke-width="1px" opacity="0.25"></line><line x1="0" y1="25.284571428571414" x2="280" y2="25.284571428571414" fill="rgb(0, 0, 0)" stroke="rgb(66, 66, 66)" stroke-width="1px" opacity="0.25"></line><line x1="0" y1="12.642285714285688" x2="280" y2="12.642285714285688" fill="rgb(0, 0, 0)" stroke="rgb(66, 66, 66)" stroke-width="1px" opacity="0.25"></line><line x1="0" y1="0" x2="280" y2="0" fill="rgb(0, 0, 0)" stroke="rgb(66, 66, 66)" stroke-width="1px" opacity="0.25"></line></g></g></g><g><g><line x1="0" y1="151.70742857142855" x2="280" y2="151.70742857142855" fill="rgb(0, 0, 0)" stroke="rgb(153, 153, 153)" stroke-width="1.5px"></line></g></g><g><g><line x1="23.333333333333332" y1="0" x2="23.333333333333332" y2="176.992" fill="rgb(0, 0, 0)" stroke="rgb(153, 153, 153)" stroke-width="1.5px"></line></g></g><g><g><g><g><g><path stroke="rgb(51, 187, 238)" stroke-width="2px" d="M23.333333333333332,1.7479029181344055L24.5,5.376692177840599L25.666666666666664,8.6736240377176L26.833333333333336,10.341076033928836L28,11.218511476743828L29.166666666666668,11.9078136121584L30.333333333333336,12.478140519269617L31.5,12.895727119073989L32.666666666666664,13.106814102765064L33.833333333333336,13.503886696085488L35,13.748562296501397L36.16666666666667,14.056177852261236L37.333333333333336,14.192282031454354L38.5,14.60923750416073L39.666666666666664,15.215099578478013L40.833333333333336,15.151937686479535L42,15.516521937347632L43.16666666666667,16.001440122601235L44.33333333333333,16.205546535964647L45.5,16.95568111912841L46.666666666666664,16.735266820617042L47.833333333333336,16.859565540928592L49,17.00290319108729L50.166666666666664,16.452535384637095L51.33333333333333,16.699305797714086L52.5,16.627948736893774L53.66666666666667,16.72368340545355L54.833333333333336,17.43634776162458L56,17.859322378539932L57.166666666666664,18.65882007656317L58.333333333333336,18.602679978598296L59.5,18.89834672637962L60.66666666666667,19.72296440847426L61.83333333333333,19.560383764327785L63,19.998161516122384L64.16666666666666,19.33843619599445L65.33333333333333,19.575567701163454L66.5,19.4745138049629L67.66666666666667,19.551109952895885L68.83333333333333,19.625828716196L70,20.247298120021433L71.16666666666666,20.257745612217388L72.33333333333334,20.535583516571837L73.5,20.507728530740813L74.66666666666667,20.648505179633762L75.83333333333333,21.28578542702513L77,21.32922381271783L78.16666666666667,21.214875410500607L79.33333333333333,20.783410237749596L80.5,21.713579425999907L81.66666666666667,21.46022800031655L82.83333333333333,22.133378464097444L84,21.842246613849596L85.16666666666666,21.478411142529865L86.33333333333334,21.508880194254694L87.5,21.7045507222309L88.66666666666666,22.643720418777512L89.83333333333334,22.72458355393111L91,22.325499299228756L92.16666666666667,23.135469285173443L93.33333333333333,23.61014216419143L94.5,23.228793347308113L95.66666666666667,24.365788473289648L96.83333333333333,23.908713025816002L98,24.067855134389585L99.16666666666667,24.9893095124749L100.33333333333333,24.44861024645154L101.5,25.467991765633897L102.66666666666666,25.696201974881518L103.83333333333334,25.363347806284217L105,26.017527557366723L106.16666666666666,26.976585174011785L107.33333333333334,26.88313034624142L108.5,27.090111868415537L109.66666666666667,27.146681210579185L110.83333333333333,26.837563659731998L112,26.68188805927303L113.16666666666667,26.185863824311557L114.33333333333333,27.516336494398594L115.5,28.452240421811783L116.66666666666667,28.025971583976084L117.83333333333333,28.050963822948606L119,28.034907333315605L120.16666666666666,28.012846075186417L121.33333333333334,27.668667070465848L122.5,28.471265872620084L123.66666666666666,29.504087121707848L124.83333333333334,29.81620938536429L126,29.915017270928033L127.16666666666667,30.37096490509831L128.33333333333331,29.968105684195805L129.5,29.72431339831046L130.66666666666666,30.30421145545094L131.83333333333334,31.084723844727893L133,30.081439036189423L134.16666666666669,30.12770756746122L135.33333333333334,29.7844080227286L136.5,30.948130015445553L137.66666666666666,31.583412567263807L138.83333333333334,32.13209682090637L140,31.885115322703037L141.16666666666666,32.253305566542274L142.33333333333331,32.66816858173358L143.5,32.00281155553428L144.66666666666669,32.87772620737276L145.83333333333334,32.68490202200929L147,32.35820756256209L148.16666666666666,32.02657798929331L149.33333333333334,33.38681098228795L150.5,33.34938706882571L151.66666666666666,32.99829630008973L152.83333333333331,33.368162216960926L154,34.81293080207423L155.16666666666669,34.13255344301036L156.33333333333334,33.37250572052597L157.5,33.374083205918744L158.66666666666666,33.21264808192441L159.83333333333331,33.08405397530121L161,33.41116211507837L162.16666666666669,34.7029038382827L163.33333333333334,33.71579803962033L164.5,34.30085477210593L165.66666666666666,34.98177007859996L166.83333333333334,35.482639840390284L168,36.29810007375495L169.16666666666666,36.9778859308976L170.33333333333331,36.82796681593252L171.5,37.09158787851738L172.66666666666669,37.15749419297868L173.83333333333334,36.75349591371899L175,37.479496977116725L176.16666666666666,36.71927651519284L177.33333333333331,37.42219263728255L178.5,36.84918650129739L179.66666666666669,37.04679151220246L180.83333333333334,36.97220741529964L182,38.166440768127714L183.16666666666666,36.901423518493814L184.33333333333334,36.598093242042836L185.5,36.60690620887576L186.66666666666666,36.910492931541455L187.83333333333331,36.33486208463025L189,36.90859914600695L190.16666666666669,36.90362732055094L191.33333333333334,36.59963254249448L192.5,36.48179587866788L193.66666666666666,36.21736805901315L194.83333333333331,36.848818054493584L196,37.81401369395888L197.16666666666669,37.80057818958524L198.33333333333334,38.780768147990976L199.5,38.05727825645728L200.66666666666666,37.84398027610511L201.83333333333334,38.64473824271994L203,38.56520808801827L204.16666666666666,39.49739807298221L205.33333333333331,39.49952125171341L206.5,39.27330175020408L207.66666666666669,39.36089186642406L208.83333333333334,39.13139027917798L210,39.299306639670384L211.16666666666666,39.33377818415451L212.33333333333331,39.074247103058624L213.5,39.93189667568403L214.66666666666669,39.91001189980214L215.83333333333334,39.982437846559385L217,40.65888421683368L218.16666666666666,40.17316475436517L219.33333333333334,40.524917754008094L220.5,40.44682460238218L221.66666666666666,40.45028099996341L222.83333333333331,39.84984619386321L224,40.81270023776743L225.16666666666669,40.19359086442297L226.33333333333334,40.80662086332366L227.5,40.6346367152075L228.66666666666666,41.214077160371886L229.83333333333331,40.921851222632164L231,40.84486153531967L232.16666666666669,41.36023207524018L233.33333333333334,41.04098181651163L234.5,41.63119516530282L235.66666666666666,41.36726148601816L236.83333333333334,41.27209305472297L238,41.64873805754344L239.16666666666666,42.06981629317037L240.33333333333331,41.73908543673857L241.5,41.59605916304412L242.66666666666669,42.77378052291629L243.83333333333334,42.78712133575292L245,42.05440607890886L246.16666666666666,41.74834019646118L247.33333333333331,41.838126795924985L248.5,41.04431265014758L249.66666666666669,42.189181829568696L250.83333333333334,42.09270013243972L252,42.39826103427164L253.16666666666666,41.478250775247865L254.33333333333334,42.8894155308051L255.5,44.18691152507835" style="fill: none;" fill="none"></path></g><g><path stroke="rgb(204, 51, 17)" stroke-width="2px" d="M23.333333333333332,116.8068087151391L24.5,123.94055135009117L25.666666666666664,128.02634682036836L26.833333333333336,131.07875326647803L28,133.38025868454247L29.166666666666668,135.43824575979008L30.333333333333336,136.75047208449914L31.5,137.7320318779901L32.666666666666664,138.39325581120238L33.833333333333336,138.79028994928714L35,139.0170327166712L36.16666666666667,139.46076049697137L37.333333333333336,139.78321801437144L38.5,140.08139087345424L39.666666666666664,140.18623816528626L40.833333333333336,140.37034763310973L42,140.74644977622023L43.16666666666667,140.69422434261676L44.33333333333333,141.2076386326555L45.5,141.51559597125643L46.666666666666664,141.27781559879506L47.833333333333336,141.5104319903779L49,141.9412826469424L50.166666666666664,141.9959056172154L51.33333333333333,142.03879891381922L52.5,142.28756200080605L53.66666666666667,142.8893450503222L54.833333333333336,142.66117077900407L56,143.20608122007692L57.166666666666664,143.577267637709L58.333333333333336,143.42559429715536L59.5,143.35297891813863L60.66666666666667,143.37374722974738L61.83333333333333,143.0062538982487L63,143.66033820844305L64.16666666666666,144.24225127568687L65.33333333333333,144.436050840167L66.5,144.56592649301277L67.66666666666667,145.26100838568325L68.83333333333333,145.28131869788297L70,144.75575763801186L71.16666666666666,145.2748791087334L72.33333333333334,144.958096804131L73.5,145.24805791759766L74.66666666666667,145.38694547932056L75.83333333333333,145.58679510667287L77,146.1274621938231L78.16666666666667,146.46029831463622L79.33333333333333,147.10402394321977L80.5,146.28638609156621L81.66666666666667,147.30501125091578L82.83333333333333,147.1852497039586L84,147.0589386603936L85.16666666666666,147.90103801659887L86.33333333333334,146.32643348929867L87.5,146.49714144958017L88.66666666666666,146.94731446639028L89.83333333333334,147.31902217164665L91,146.84218421465428L92.16666666666667,147.08577241391106L93.33333333333333,147.01122997634678L94.5,147.52076104538736L95.66666666666667,148.29482100414182L96.83333333333333,149.00974561819572L98,149.22113697286332L99.16666666666667,148.67244823099816L100.33333333333333,149.04868816568128L101.5,149.9643793703413L102.66666666666666,149.4345686281568L103.83333333333334,150.00304880835094L105,150.17237769739998L106.16666666666666,150.74784866040045L107.33333333333334,150.484503933816L108.5,150.93193235533477L109.66666666666667,151.58791552474864L110.83333333333333,151.49335059126008L112,151.74475255772177L113.16666666666667,152.56318693062315L114.33333333333333,152.3568943295628L115.5,151.80366211005662L116.66666666666667,153.000365030432L117.83333333333333,153.01273716467023L119,153.67864992226L120.16666666666666,153.6790269905515L121.33333333333334,154.1964169967184L122.5,153.94524736989283L123.66666666666666,154.70975378129242L124.83333333333334,154.36835449315947L126,155.0273444674125L127.16666666666667,154.46169027667193L128.33333333333331,154.0564089758606L129.5,154.07696305035418L130.66666666666666,154.88949065596722L131.83333333333334,155.17860258044857L133,155.05779101705758L134.16666666666669,155.7416119070406L135.33333333333334,155.5940478771217L136.5,155.14193812509785L137.66666666666666,155.66212205014133L138.83333333333334,155.42783584998207L140,155.65594003099298L141.16666666666666,156.48479506476832L142.33333333333331,156.62707010859828L143.5,156.72556423239203L144.66666666666669,157.69492426577128L145.83333333333334,158.07882278024164L147,157.90167439908728L148.16666666666666,157.21614205241596L149.33333333333334,157.40939278324225L150.5,157.4277111361763L151.66666666666666,157.0042575557333L152.83333333333331,158.1176847210604L154,158.46500677417302L155.16666666666669,158.03326037981006L156.33333333333334,158.37789068029034L157.5,157.58160038642197L158.66666666666666,158.76621507928436L159.83333333333331,158.0363754790235L161,158.90686079990235L162.16666666666669,158.58587748075175L163.33333333333334,159.9909185398481L164.5,159.9548612463034L165.66666666666666,160.00993788873893L166.83333333333334,160.04268132831214L168,160.8197157949268L169.16666666666666,160.58502770011094L170.33333333333331,160.62894943783903L171.5,161.08095854791537L172.66666666666669,161.6449677737404L173.83333333333334,162.37566530939293L175,161.22880686288428L176.16666666666666,160.85634229054236L177.33333333333331,161.5250683569391L178.5,160.98159485361538L179.66666666666669,161.0909684769417L180.83333333333334,161.48152241350527L182,160.8403061905735L183.16666666666666,161.2173903939335L184.33333333333334,161.27496197572145L185.5,160.48248650886634L186.66666666666666,161.2623794098702L187.83333333333331,161.84454148238768L189,162.6324221307798L190.16666666666669,162.1388178229685L191.33333333333334,161.91833880648687L192.5,161.11117626219792L193.66666666666666,162.32804754490223L194.83333333333331,162.13893380200008L196,162.78243574501275L197.16666666666669,161.91151940571953L198.33333333333334,161.36684984306083L199.5,162.37124398472062L200.66666666666666,163.0391279002454L201.83333333333334,162.71726187028017L203,162.99413504443058L204.16666666666666,162.98789331938403L205.33333333333331,163.8294588582746L206.5,163.42654199106371L207.66666666666669,163.23364040988523L208.83333333333334,163.34526250768803L210,163.97735569220927L211.16666666666666,164.10258872516073L212.33333333333331,163.75556889821615L213.5,163.929356036931L214.66666666666669,164.07980707081114L215.83333333333334,165.1691056894504L217,165.08886903994L218.16666666666666,166.29618548324873L219.33333333333334,167.06950414028015L220.5,166.9173419833283L221.66666666666666,166.76488859835268L222.83333333333331,164.92604376388363L224,164.5847550093765L225.16666666666669,165.4909976994501L226.33333333333334,165.41929602831897L227.5,165.8301601691928L228.66666666666666,165.13819110488893L229.83333333333331,165.31607533761436L231,166.5714739006996L232.16666666666669,166.60935477764673L233.33333333333334,166.1201967602686L234.5,166.46851066484462L235.66666666666666,165.38334220507218L236.83333333333334,166.23601852690945L238,166.90354358521392L239.16666666666666,165.83128671286704L240.33333333333331,165.46776455299803L241.5,166.23743758457493L242.66666666666669,167.66721530819888L243.83333333333334,166.88345853439628L245,166.20899390781744L246.16666666666666,165.5883455942714L247.33333333333331,166.45866176921388L248.5,166.8206524845156L249.66666666666669,167.49536976652612L250.83333333333334,168.65495303612852L252,168.54619542775947L253.16666666666666,168.4179819299977L254.33333333333334,167.93705108237444L255.5,168.42071514442412" style="fill: none;" fill="none"></path></g><g><path stroke="rgb(0, 119, 187)" stroke-width="2px" d="M23.333333333333332,11.303500190734862L24.5,11.680815981047488L25.666666666666664,12.150045838058496L26.833333333333336,13.112641102708684L28,13.552273298899847L29.166666666666668,14.009348308553035L30.333333333333336,14.513715680263743L31.5,14.445448256759851L32.666666666666664,14.78738099311408L33.833333333333336,15.444698335306015L35,15.675647207835343L36.16666666666667,16.01293863863787L37.333333333333336,16.05056189735739L38.5,16.44841975619996L39.666666666666664,16.485464362567217L40.833333333333336,17.11422086591442L42,17.535164324192802L43.16666666666667,17.192322530357185L44.33333333333333,17.671316808675243L45.5,17.73067752861582L46.666666666666664,18.009323256463745L47.833333333333336,18.61933429430522L49,18.874293401883442L50.166666666666664,19.09009493891546L51.33333333333333,19.253309734284556L52.5,19.08024716121978L53.66666666666667,19.65764588345629L54.833333333333336,19.00669997300044L56,19.878895633884337L57.166666666666664,20.384712632316425L58.333333333333336,20.645401741820017L59.5,20.50729597075485L60.66666666666667,21.206340735994456L61.83333333333333,20.586607191566923L63,21.19665245714112L64.16666666666666,21.589523681575272L65.33333333333333,21.821454605626723L66.5,22.1084635298226L67.66666666666667,22.241291952243603L68.83333333333333,22.727248980938278L70,22.972387113499742L71.16666666666666,23.073226814657136L72.33333333333334,22.851497143069004L73.5,23.03990699929652L74.66666666666667,22.796016583542173L75.83333333333333,22.85933495470689L77,23.150533149261484L78.16666666666667,24.295599241607203L79.33333333333333,23.72776747080767L80.5,23.64189719600231L81.66666666666667,24.33065772307871L82.83333333333333,24.77222600471989L84,24.812748003867874L85.16666666666666,24.583510417746677L86.33333333333334,25.43310087530415L87.5,25.81617922417467L88.66666666666666,26.247664213821846L89.83333333333334,25.95368368061937L91,26.844101550098806L92.16666666666667,26.961352859794754L93.33333333333333,27.17257323092201L94.5,28.086708443122166L95.66666666666667,27.32274174024202L96.83333333333333,27.446048574919985L98,27.87538355921067L99.16666666666667,28.381203293790552L100.33333333333333,27.998034274204368L101.5,28.206680474234176L102.66666666666666,29.00648448802299L103.83333333333334,28.706710287169795L105,29.376536285718252L106.16666666666666,29.36786769548142L107.33333333333334,29.642542963676437L108.5,29.919761065027515L109.66666666666667,29.13559296616057L110.83333333333333,29.38236171928901L112,30.647366628087426L113.16666666666667,30.68323742789352L114.33333333333333,31.411546286365184L115.5,31.856998365080834L116.66666666666667,32.04811093779762L117.83333333333333,31.50828469175483L119,32.1958371481697L120.16666666666666,32.72539020666565L121.33333333333334,33.190532345151546L122.5,33.379117600450286L123.66666666666666,33.76718387552548L124.83333333333334,33.90915588577061L126,34.339710105559035L127.16666666666667,34.54588267137202L128.33333333333331,34.906628465171494L129.5,34.084702283679654L130.66666666666666,34.01257289892048L131.83333333333334,34.9983461419576L133,35.068976022751286L134.16666666666669,33.76392985716361L135.33333333333334,34.450544241115274L136.5,34.41935962964751L137.66666666666666,35.04295039224252L138.83333333333334,36.03510926939876L140,35.8479267367404L141.16666666666666,35.68354767575918L142.33333333333331,36.29374117292113L143.5,35.46430744527752L144.66666666666669,36.01222469881673L145.83333333333334,36.383727836759164L147,37.85040905236676L148.16666666666666,38.405341079068464L149.33333333333334,39.144506015173526L150.5,38.88283418575556L151.66666666666666,39.193175944366985L152.83333333333331,39.39799341157782L154,39.362945142318466L155.16666666666669,39.13294777354067L156.33333333333334,38.32446546610019L157.5,38.609975152593634L158.66666666666666,38.503237148876885L159.83333333333331,38.30551955122365L161,38.37082483596314L162.16666666666669,40.21891442410858L163.33333333333334,41.3006980437866L164.5,41.776614007546364L165.66666666666666,40.89676436029477L166.83333333333334,40.531380866652064L168,40.727866152088744L169.16666666666666,40.44145353557436L170.33333333333331,40.516335716707694L171.5,41.6576370689973L172.66666666666669,42.55433714611814L173.83333333333334,42.18260359077147L175,42.0297480752872L176.16666666666666,42.66579062646157L177.33333333333331,42.707925761483956L178.5,42.2216804905687L179.66666666666669,42.3622597222369L180.83333333333334,42.53166975197356L182,43.75396081005515L183.16666666666666,43.93944330328947L184.33333333333334,43.383760404559304L185.5,44.98208694548999L186.66666666666666,44.264452679880335L187.83333333333331,42.5691715322882L189,42.247516279641665L190.16666666666669,42.869436317533015L191.33333333333334,42.953039491979396L192.5,42.247217967147215L193.66666666666666,42.18522782771264L194.83333333333331,43.24728129229146L196,42.98863091439552L197.16666666666669,43.25935597249596L198.33333333333334,44.12527688534695L199.5,44.21675902682498L200.66666666666666,44.81794596491L201.83333333333334,44.831786064533006L203,44.58230444980289L204.16666666666666,44.697840091974726L205.33333333333331,45.4582863023467L206.5,46.03291088423482L207.66666666666669,46.08892649389801L208.83333333333334,46.06377790659706L210,46.28478154945227L211.16666666666666,45.74737307145166L212.33333333333331,45.718901613649095L213.5,46.32990249555064L214.66666666666669,47.2174938258216L215.83333333333334,47.44066663055418L217,46.78487656546454L218.16666666666666,47.2666530866263L219.33333333333334,47.45790361541222L220.5,48.139411675429315L221.66666666666666,47.71726251766953L222.83333333333331,47.676543346412764L224,46.63582893372046L225.16666666666669,47.69890555038731L226.33333333333334,47.53705378936936L227.5,46.566132939013784L228.66666666666666,47.363973358967556L229.83333333333331,47.41739529881908L231,48.51286975517122L232.16666666666669,48.47949378390632L233.33333333333334,48.73359060006878L234.5,48.577251442560765L235.66666666666666,48.26593139499465L236.83333333333334,48.63425041120246L238,49.3808804502955L239.16666666666666,48.86912715486883L240.33333333333331,47.947980118081716L241.5,47.90239949554037L242.66666666666669,47.16701085461618L243.83333333333334,47.6051726944975L245,48.157856765022636L246.16666666666666,47.88883035343847L247.33333333333331,49.14911041353577L248.5,48.858278277932754L249.66666666666669,49.11380257575973L250.83333333333334,48.77520090013984L252,49.17013882948644L253.16666666666666,48.917919172085846L254.33333333333334,47.73095961580468L255.5,50.60299189366319" style="fill: none;" fill="none"></path></g><g><path stroke="rgb(255, 112, 67)" stroke-width="2px" d="M23.333333333333332,6.116364126477911L24.5,8.565488161291386L25.666666666666664,9.878298143848404L26.833333333333336,10.894427720370413L28,11.64042617571435L29.166666666666668,12.237574921183214L30.333333333333336,12.615599704348163L31.5,12.969280394544052L32.666666666666664,13.152144612243104L33.833333333333336,13.361379542170479L35,13.686256556575316L36.16666666666667,13.968885881844757L37.333333333333336,14.240883733922244L38.5,14.477192534239736L39.666666666666664,15.044923615833488L40.833333333333336,15.396094648445736L42,15.68738219992753L43.16666666666667,16.449816644166685L44.33333333333333,16.724365860580278L45.5,17.050263514594597L46.666666666666664,17.88354355473555L47.833333333333336,17.833107786894406L49,18.23037798558591L50.166666666666664,18.750183213824698L51.33333333333333,19.06405412290236L52.5,19.982562612849563L53.66666666666667,20.53153870788957L54.833333333333336,20.448936881414607L56,20.1962578123327L57.166666666666664,20.117797979511156L58.333333333333336,20.829771017548044L59.5,20.726589912061662L60.66666666666667,21.198452101221612L61.83333333333333,21.37195057914556L63,22.14974966470872L64.16666666666666,22.543552847887433L65.33333333333333,22.87922955735875L66.5,22.957525401898717L67.66666666666667,23.09558466850109L68.83333333333333,22.90903306774059L70,23.190250504932397L71.16666666666666,23.41723254205618L72.33333333333334,23.030785233914667L73.5,23.07858228058101L74.66666666666667,23.335691319800063L75.83333333333333,23.517023862369502L77,24.130784908526568L78.16666666666667,25.486964254276373L79.33333333333333,25.895717016272854L80.5,26.551547933615446L81.66666666666667,25.89608108277177L82.83333333333333,25.5099987763099L84,24.957836121646075L85.16666666666666,25.171359245706896L86.33333333333334,24.757437483241056L87.5,24.352101163563344L88.66666666666666,24.649470128941665L89.83333333333334,24.283185329230882L91,23.509894878917503L92.16666666666667,24.91392859289097L93.33333333333333,25.504371424991188L94.5,25.412117070387783L95.66666666666667,25.477538666239543L96.83333333333333,24.74580975500666L98,25.39555179342496L99.16666666666667,25.388716028709133L100.33333333333333,26.690012289671575L101.5,26.46864051284102L102.66666666666666,26.39960904002188L103.83333333333334,26.3665544386659L105,26.625938000070022L106.16666666666666,26.89103323297746L107.33333333333334,27.84163179815436L108.5,28.496905734362244L109.66666666666667,27.250571291177135L110.83333333333333,27.669695013606603L112,27.575210473042578L113.16666666666667,28.175352523275198L114.33333333333333,28.4395815707714L115.5,28.999842669683627L116.66666666666667,29.37509292971283L117.83333333333333,28.89800808239522L119,27.954659153723515L120.16666666666666,28.440065706423905L121.33333333333334,28.74165422073806L122.5,29.321359042125625L123.66666666666666,29.48830545976024L124.83333333333334,28.882847381734695L126,29.076775403789693L127.16666666666667,29.1670868967843L128.33333333333331,29.00325990381331L129.5,28.628212965254622L130.66666666666666,28.70910955885073L131.83333333333334,29.623141252910344L133,29.50854847539209L134.16666666666669,29.59585976771728L135.33333333333334,30.604113714263697L136.5,31.01761293430337L137.66666666666666,31.48414833690648L138.83333333333334,31.800595118411508L140,31.37587983454439L141.16666666666666,32.20627033138632L142.33333333333331,32.12385765683525L143.5,31.48160698912067L144.66666666666669,31.433863136801254L145.83333333333334,32.29665641640868L147,32.05365591409778L148.16666666666666,32.259248909634195L149.33333333333334,32.86854389032746L150.5,32.687913650219066L151.66666666666666,31.741407288729373L152.83333333333331,32.82465198889923L154,33.2355672118637L155.16666666666669,33.09829977481545L156.33333333333334,34.35253354487324L157.5,34.78020206683918L158.66666666666666,34.518654727804915L159.83333333333331,34.23320272121751L161,35.72810560097479L162.16666666666669,35.114813609412124L163.33333333333334,35.14572576428443L164.5,35.217442765459786L165.66666666666666,34.11213687662207L166.83333333333334,33.41904387534981L168,33.69100637074646L169.16666666666666,34.54714431393349L170.33333333333331,34.860644936770555L171.5,36.0491677326094L172.66666666666669,35.10762441570176L173.83333333333334,34.81475311360213L175,35.98287360931991L176.16666666666666,35.58258436958015L177.33333333333331,36.98290731621481L178.5,35.88398012232514L179.66666666666669,36.3051082343971L180.83333333333334,35.538147436300385L182,36.12362681561849L183.16666666666666,36.534043137471166L184.33333333333334,36.22845827318616L185.5,36.54433595089379L186.66666666666666,37.49546738757902L187.83333333333331,37.10647219966776L189,36.64282372561905L190.16666666666669,36.15088879703003L191.33333333333334,36.3368926004662L192.5,35.931500851984175L193.66666666666666,36.358517599072414L194.83333333333331,37.70078524979901L196,38.79907054301556L197.16666666666669,38.38948430502687L198.33333333333334,38.62174150170423L199.5,38.10995377128359L200.66666666666666,37.55166933231969L201.83333333333334,38.39207776429138L203,38.69238504227669L204.16666666666666,39.27639093191685L205.33333333333331,38.34806298224145L206.5,38.46001890746535L207.66666666666669,37.70688393424448L208.83333333333334,38.33039646957726L210,39.10467838511201L211.16666666666666,38.074970755803015L212.33333333333331,37.83503691874845L213.5,38.01953218782657L214.66666666666669,38.50558217062352L215.83333333333334,38.372059456880265L217,37.89588575696157L218.16666666666666,38.40090612622197L219.33333333333334,38.41701592827921L220.5,38.7042313035757L221.66666666666666,39.1716855652657L222.83333333333331,40.52659615415751L224,39.068770969166856L225.16666666666669,38.87318324408032L226.33333333333334,38.974160984154835L227.5,38.860885093540276L228.66666666666666,38.86237776534832L229.83333333333331,38.934512940685686L231,39.15720564136889L232.16666666666669,39.66487498198057L233.33333333333334,39.616115045689476L234.5,39.14808842460431L235.66666666666666,39.33427972276621L236.83333333333334,39.527557557519216L238,40.2527695412254L239.16666666666666,39.91154062291988L240.33333333333331,39.648443187402876L241.5,40.15949522294062L242.66666666666669,39.92310517841596L243.83333333333334,40.66116652599923L245,39.97114192086598L246.16666666666666,41.653300707438156L247.33333333333331,42.607286220513885L248.5,41.43463805823171L249.66666666666669,41.43688909453027L250.83333333333334,40.46738314838162L252,39.599401091443326L253.16666666666666,39.72747821808098L254.33333333333334,39.52165394930298L255.5,40.64894361894964" style="fill: none;" fill="none"></path></g></g></g></g><g opacity="0.2"><g><g><g><path stroke="rgb(51, 187, 238)" stroke-width="2px" d="M23.333333333333332,1.7479029181344055L24.5,7.55396573366437L25.666666666666664,11.838678623199462L26.833333333333336,12.301999581473208L28,12.364091190883087L29.166666666666668,12.861366614205481L30.333333333333336,13.293717121669221L31.5,13.504572390420082L32.666666666666664,13.418126402173712L33.833333333333336,14.093493220738004L35,14.113356507437564L36.16666666666667,14.515927155630923L37.333333333333336,14.395993896484374L38.5,15.233853854043128L39.666666666666664,16.123180521828772L40.833333333333336,15.0572393951416L42,16.063244033813476L43.16666666666667,16.72869427980695L44.33333333333333,16.51167506245203L45.5,18.080814428601933L46.666666666666664,16.404657460893894L47.833333333333336,17.046009531293585L49,17.21790683637345L50.166666666666664,15.626990194593144L51.33333333333333,17.06945966339111L52.5,16.5209134499686L53.66666666666667,16.86728516333444L54.833333333333336,18.5053432017735L56,18.49378391429355L57.166666666666664,19.858066181727814L58.333333333333336,18.518469850267675L59.5,19.34184678922379L60.66666666666667,20.959890833173468L61.83333333333333,19.316512809753416L63,20.654828124999998L64.16666666666666,18.34884823281424L65.33333333333333,19.931264955248142L66.5,19.32293296160016L67.66666666666667,19.666004174368716L68.83333333333333,19.737906860896516L70,21.17950222451346L71.16666666666666,20.273416850498744L72.33333333333334,20.95234037290299L73.5,20.465946052006313L74.66666666666667,20.85967015293665L75.83333333333333,22.241705798012873L77,21.394381391252782L78.16666666666667,21.043352807181215L79.33333333333333,20.136212478637695L80.5,23.10883320835657L81.66666666666667,21.080200861794594L82.83333333333333,23.143104159763883L84,21.405548838479163L85.16666666666666,20.932657935551237L86.33333333333334,21.55458377184186L87.5,21.998056514195035L88.66666666666666,24.05247496359689L89.83333333333334,22.845878256661557L91,21.726872917175292L92.16666666666667,24.350424264090396L93.33333333333333,24.322151482718326L94.5,22.656770121983122L95.66666666666667,26.07128116226196L96.83333333333333,23.223099854605532L98,24.306568297249935L99.16666666666667,26.37149107960291L100.33333333333333,23.637561347416472L101.5,26.997064044407438L102.66666666666666,26.03851728875296L103.83333333333334,24.86406655338831L105,26.998797183990476L106.16666666666666,28.415171598979402L107.33333333333334,26.74294810458591L108.5,27.400584151676725L109.66666666666667,27.23153522382464L110.83333333333333,26.373887333461212L112,26.448374658584594L113.16666666666667,25.441827471869324L114.33333333333333,29.512045499529147L115.5,29.85609631293161L116.66666666666667,27.386568327222538L117.83333333333333,28.08845218140738L119,28.010822598866056L120.16666666666666,27.979754187992643L121.33333333333334,27.15239856338501L122.5,29.675164075851438L123.66666666666666,31.053318995339534L124.83333333333334,30.284392780848908L126,30.06322909927368L127.16666666666667,31.05488635635376L128.33333333333331,29.363816852842046L129.5,29.35862496948242L130.66666666666666,31.174058541161678L131.83333333333334,32.255492428643365L133,28.576511823381686L134.16666666666669,30.197110364368985L135.33333333333334,29.26945870562961L136.5,32.693713004520966L137.66666666666666,32.53633639499118L138.83333333333334,32.955123201370235L140,31.514643075398038L141.16666666666666,32.805590932301115L142.33333333333331,33.29046310452051L143.5,31.00477601623535L144.66666666666669,34.19009818513052L145.83333333333334,32.39566574396405L147,31.86816587339129L148.16666666666666,31.529133629390167L149.33333333333334,35.42716047177996L150.5,33.29325119863238L151.66666666666666,32.47166014698572L152.83333333333331,33.922961092267705L154,36.98008367974417L155.16666666666669,33.111987404414585L156.33333333333334,32.232434136799405L157.5,33.37644943400791L158.66666666666666,32.970495395932865L159.83333333333331,32.89116281536646L161,33.901824324744084L162.16666666666669,36.64051642308917L163.33333333333334,32.235139341626834L164.5,35.178439870834346L165.66666666666666,36.00314303834097L166.83333333333334,36.23394448307581L168,37.521290423801965L169.16666666666666,37.99756471661158L170.33333333333331,36.603088143484925L171.5,37.48701947239466L172.66666666666669,37.256353664670655L173.83333333333334,36.14749849482944L175,38.568498572213315L176.16666666666666,35.578945822307034L177.33333333333331,38.47656682041712L178.5,35.98967729731967L179.66666666666669,37.343199028560086L180.83333333333334,36.860331269945405L182,39.95779079736981L183.16666666666666,35.003897644042965L184.33333333333334,36.14309782736642L185.5,36.620125659125186L186.66666666666666,37.36587301553998L187.83333333333331,35.47141581426349L189,37.769204738071984L190.16666666666669,36.896169582366944L191.33333333333334,36.143640375409795L192.5,36.30504088292803L193.66666666666666,35.82072632953098L194.83333333333331,37.795993047714234L196,39.26180715315682L197.16666666666669,37.78042493302481L198.33333333333334,40.251053085599615L199.5,36.97204341915674L200.66666666666666,37.52403330557687L201.83333333333334,39.84587519264221L203,38.44591285596575L204.16666666666666,40.895683050428104L205.33333333333331,39.50270601981027L206.5,38.93397249794006L207.66666666666669,39.49227704075403L208.83333333333334,38.78713789830889L210,39.551181180409024L211.16666666666666,39.38548550088065L212.33333333333331,38.684950481414795L213.5,41.21837103462219L214.66666666666669,39.87718473597934L215.83333333333334,40.09107676669529L217,41.67355377224512L218.16666666666666,39.44458556066241L219.33333333333334,41.05254725347247L220.5,40.329684874943325L221.66666666666666,40.455465596335266L222.83333333333331,38.94919398471286L224,42.256981303623746L225.16666666666669,39.26492680440631L226.33333333333334,41.726165861674716L227.5,40.37666049303326L228.66666666666666,42.08323782811846L229.83333333333331,40.48351231602259L231,40.72937700435092L232.16666666666669,42.133287885120936L233.33333333333334,40.56210642841883L234.5,42.51651518848963L235.66666666666666,40.97136096709115L236.83333333333334,41.12934040778024L238,42.21370556177411L239.16666666666666,42.7014336466108L240.33333333333331,41.242989152090885L241.5,41.38151975250244L242.66666666666669,44.54036256272452L243.83333333333334,42.80713255500793L245,40.95533319364276L246.16666666666666,41.28924137278965L247.33333333333331,41.97280669512067L248.5,39.853591431481505L249.66666666666669,43.90648559870038L250.83333333333334,41.94797758674621L252,42.856602387019564L253.16666666666666,40.09823538671221L254.33333333333334,45.006162664140966L255.5,46.133155516488216" style="fill: none;" fill="none"></path></g><g><path stroke="rgb(204, 51, 17)" stroke-width="2px" d="M23.333333333333332,116.8068087151391L24.5,128.2207969310624L25.666666666666664,131.94871047183443L26.833333333333336,134.66838324710298L28,136.38510415836743L29.166666666666668,138.28518276020458L30.333333333333336,138.62697672445432L31.5,139.16315547987392L32.666666666666664,139.3684326765537L33.833333333333336,139.37983937239648L35,139.35509032753535L36.16666666666667,140.1239374204363L37.333333333333336,140.26585141072954L38.5,140.52806601040703L39.666666666666664,140.34338585897854L40.833333333333336,140.64638198658398L42,141.31044383706364L43.16666666666667,140.61589945224353L44.33333333333333,141.97768185421398L45.5,141.97750383063723L46.666666666666664,140.92115808054376L47.833333333333336,141.85934892341066L49,142.58755012539453L50.166666666666664,142.0778394255638L51.33333333333333,142.1031385538578L52.5,142.66070557042528L53.66666666666667,143.7920180847985L54.833333333333336,142.3189097223282L56,144.0234463797467L57.166666666666664,144.13404705900805L58.333333333333336,143.1980843366214L59.5,143.2440558640616L60.66666666666667,143.40489969468115L61.83333333333333,142.45501392732348L63,144.64146464562415L64.16666666666666,145.11512086154733L65.33333333333333,144.72675018388884L66.5,144.7607399710757L67.66666666666667,146.30363122081755L68.83333333333333,145.31178416611465L70,143.96741604925904L71.16666666666666,146.0535613141911L72.33333333333334,144.4829233474561L73.5,145.68299958767207L74.66666666666667,145.59527682186874L75.83333333333333,145.8865695476702L77,146.9384628244979L78.16666666666667,146.95955249583722L79.33333333333333,148.06961238607337L80.5,145.05992931410242L81.66666666666667,148.83294898992776L82.83333333333333,147.00560738352365L84,146.86947209504672L85.16666666666666,149.16418705090453L86.33333333333334,143.9645266983509L87.5,146.75320339000226L88.66666666666666,147.6225739916052L89.83333333333334,147.87658372953106L91,146.1269272791658L92.16666666666667,147.4511547127962L93.33333333333333,146.89941632000037L94.5,148.28505764894825L95.66666666666667,149.45591094227348L96.83333333333333,150.08213253927656L98,149.53822400486467L99.16666666666667,147.84941511820043L100.33333333333333,149.61304806770596L101.5,151.33791617733132L102.66666666666666,148.63985251488003L103.83333333333334,150.8557690786421L105,150.4263710309735L106.16666666666666,151.6110551049012L107.33333333333334,150.0894868439393L108.5,151.60307498761293L109.66666666666667,152.57189027886943L110.83333333333333,151.35150319102723L112,152.12185550741424L113.16666666666667,153.79083848997524L114.33333333333333,152.04745542797232L115.5,150.97381378079737L116.66666666666667,154.79541941099507L117.83333333333333,153.0312953660275L119,154.67751905864478L120.16666666666666,153.67959259298868L121.33333333333334,154.97250200596875L122.5,153.56849292965444L123.66666666666666,155.85651339839185L124.83333333333334,153.85625556096008L126,156.015829428792L127.16666666666667,153.6132089905611L128.33333333333331,153.44848702464358L129.5,154.1077941620946L130.66666666666666,156.10828206438677L131.83333333333334,155.61227046717065L133,154.87657367197102L134.16666666666669,156.76734324201513L135.33333333333334,155.37270183224337L136.5,154.46377349706205L137.66666666666666,156.44239793770655L138.83333333333334,155.07640654974324L140,155.9980963025093L141.16666666666666,157.72807761543137L142.33333333333331,156.84048267434324L143.5,156.87330541808262L144.66666666666669,159.14896431584017L145.83333333333334,158.6546705519472L147,157.63595182735577L148.16666666666666,156.18784353240898L149.33333333333334,157.6992688794817L150.5,157.45518866557734L151.66666666666666,156.3690771850688L152.83333333333331,159.78782546905106L154,158.98598985384191L155.16666666666669,157.38564078826562L156.33333333333334,158.89483613101072L157.5,156.38716494561945L158.66666666666666,160.54313711857796L159.83333333333331,156.9416160786322L161,160.21258878122057L162.16666666666669,158.10440250202586L163.33333333333334,162.0984801284926L164.5,159.9007753059864L165.66666666666666,160.09255285239217L166.83333333333334,160.09179648767199L168,161.98526749484878L169.16666666666666,160.23299555788722L170.33333333333331,160.69483204443114L171.5,161.75897221302986L172.66666666666669,162.49098161247795L173.83333333333334,163.4717116128717L175,159.50851919312134L176.16666666666666,160.29764543202944L177.33333333333331,162.52815745653425L178.5,160.1663845986298L179.66666666666669,161.25502891193116L180.83333333333334,162.06735331835065L182,159.87848185617582L183.16666666666666,161.7830166989735L184.33333333333334,161.36131934840338L185.5,159.29377330858367L186.66666666666666,162.43221876137596L187.83333333333331,162.71778459116388L189,163.81424310336794L190.16666666666669,161.39841136125153L191.33333333333334,161.58762028176443L192.5,159.90043244576452L193.66666666666666,164.1533544689587L194.83333333333331,161.85526318764687L196,163.74768865953172L197.16666666666669,160.60514489677973L198.33333333333334,160.54984549907275L199.5,163.87783519721032L200.66666666666666,164.04095377353258L201.83333333333334,162.23446282533234L203,163.40944480565614L204.16666666666666,162.97853073181423L205.33333333333331,165.09180716661044L206.5,162.82216669024737L207.66666666666669,162.94428803811755L208.83333333333334,163.51269565439225L210,164.92549546899113L211.16666666666666,164.2904382745879L212.33333333333331,163.2350391577993L213.5,164.19003674500328L214.66666666666669,164.30548362163134L215.83333333333334,166.8030536174093L217,164.96851406567436L218.16666666666666,168.10716014821188L219.33333333333334,168.22948212582725L220.5,166.68909874790054L221.66666666666666,166.53620852088926L222.83333333333331,162.16777651218004L224,164.07282187761578L225.16666666666669,166.85036173456055L226.33333333333334,165.31174352162225L227.5,166.4464563805035L228.66666666666666,164.1002375084332L229.83333333333331,165.58290168670243L231,168.45457174532754L232.16666666666669,166.66617609306743L233.33333333333334,165.38645973420142L234.5,166.99098152170862L235.66666666666666,163.75558951541353L236.83333333333334,167.51503300966533L238,167.9048311726706L239.16666666666666,164.22290140434671L240.33333333333331,164.92248131319454L241.5,167.3919471319403L242.66666666666669,169.8118818936348L243.83333333333334,165.70782337369235L245,165.19729696794917L246.16666666666666,164.6573731239523L247.33333333333331,167.76413603162766L248.5,167.36363855746814L249.66666666666669,168.50744568954195L250.83333333333334,170.39432794053212L252,168.38305901520593L253.16666666666666,168.22566168335504L254.33333333333334,167.2156548109395L255.5,169.14621123749868" style="fill: none;" fill="none"></path></g><g><path stroke="rgb(0, 119, 187)" stroke-width="2px" d="M23.333333333333332,11.303500190734862L24.5,11.907205455235074L25.666666666666664,12.600506500789093L26.833333333333336,14.244653133937287L28,14.126257094246986L29.166666666666668,14.64164759390695L30.333333333333336,15.234969091687871L31.5,14.345913697923924L32.666666666666664,15.291665362221838L33.833333333333336,16.42073798206873L35,16.019975827353335L36.16666666666667,16.517040259769985L37.333333333333336,16.106873938969205L38.5,17.04442709950037L39.666666666666664,16.540987727573942L40.833333333333336,18.056912173134926L42,18.16640138244629L43.16666666666667,16.678146887098027L44.33333333333333,18.389735256195067L45.5,17.819713182721806L46.666666666666664,18.427276566641666L47.833333333333336,19.534330778394413L49,19.256727029527926L50.166666666666664,19.413794688088537L51.33333333333333,19.49813076727731L52.5,18.820654039655402L53.66666666666667,20.523742489406036L54.833333333333336,18.030282106672L56,21.18718832179477L57.166666666666664,21.143437850407192L58.333333333333336,21.036435319628026L59.5,20.300137341635562L60.66666666666667,22.254907800401952L61.83333333333333,19.657006919315887L63,22.111720329284665L64.16666666666666,22.17883050809588L65.33333333333333,22.169350988115575L66.5,22.538976913452146L67.66666666666667,22.440534585135318L68.83333333333333,23.456184522356295L70,23.340094311850404L71.16666666666666,23.22448636627197L72.33333333333334,22.518902635846807L73.5,23.322521783556247L74.66666666666667,22.430180959974003L75.83333333333333,22.95431251144409L77,23.587330441066193L78.16666666666667,26.013198380061553L79.33333333333333,22.876019814627504L80.5,23.513091783796025L81.66666666666667,25.36379851368494L82.83333333333333,25.434578427178522L84,24.87353100258963L85.16666666666666,24.239654038565494L86.33333333333334,26.707486561638973L87.5,26.390796747480106L88.66666666666666,26.894891698292327L89.83333333333334,25.51271288081577L91,28.179728354317806L92.16666666666667,27.13722982433863L93.33333333333333,27.489403787612915L94.5,29.457911261422296L95.66666666666667,26.17679168592181L96.83333333333333,27.631008826936984L98,28.5193860356467L99.16666666666667,29.139932895660397L100.33333333333333,27.423280744825078L101.5,28.519649774278903L102.66666666666666,30.206190508706232L103.83333333333334,28.25704898588998L105,30.381275283540987L106.16666666666666,29.354864810126163L107.33333333333334,30.054555865968968L108.5,30.33558821705408L109.66666666666667,27.959340817860195L110.83333333333333,29.752514848981573L112,32.54487399128504L113.16666666666667,30.737043627602716L114.33333333333333,32.5040095740727L115.5,32.5251764831543L116.66666666666667,32.33477979687281L117.83333333333333,30.698545322690677L119,33.227165832792L120.16666666666666,33.51971979440961L121.33333333333334,33.88824555288043L122.5,33.661995483398435L123.66666666666666,34.349283288138245L124.83333333333334,34.122113901138306L126,34.9855414352417L127.16666666666667,34.85514152009146L128.33333333333331,35.4477471558707L129.5,32.8518130114419L130.66666666666666,33.904378821781705L131.83333333333334,36.47700600651331L133,35.17492084394183L134.16666666666669,31.806360608782075L135.33333333333334,35.480465817042756L136.5,34.372582712445926L137.66666666666666,35.97833653613498L138.83333333333334,37.523347585133145L140,35.567152937752866L141.16666666666666,35.43697908428736L142.33333333333331,37.20903141866412L143.5,34.22015685381207L144.66666666666669,36.83410057912555L145.83333333333334,36.940982543672824L147,40.0504308757782L148.16666666666666,39.237739119121L149.33333333333334,40.253253419331145L150.5,38.490326441628596L151.66666666666666,39.658688582284114L152.83333333333331,39.705219612394046L154,39.31037273842947L155.16666666666669,38.78795172037396L156.33333333333334,37.11174200493949L157.5,39.0382396823338L158.66666666666666,38.34313014330182L159.83333333333331,38.00894315474374L161,38.46878276307242L162.16666666666669,42.991048806326724L163.33333333333334,42.92337347330365L164.5,42.49048795318603L165.66666666666666,39.57698988941736L166.83333333333334,39.98330562618799L168,41.02259408024378L169.16666666666666,40.011834610802794L170.33333333333331,40.62865898840768L171.5,43.36958909743173L172.66666666666669,43.899387261799404L173.83333333333334,41.625003257751466L175,41.800464802060795L176.16666666666666,43.619854453223084L177.33333333333331,42.77112846401758L178.5,41.4923125841958L179.66666666666669,42.5731285697392L180.83333333333334,42.78578479657855L182,45.587397397177554L183.16666666666666,44.217667043140956L184.33333333333334,42.55023605646405L185.5,47.379576756886074L186.66666666666666,43.188001281465795L187.83333333333331,40.0262498109L189,41.76503340067182L190.16666666666669,43.80231637437002L191.33333333333334,43.07844425364902L192.5,41.18848567989893L193.66666666666666,42.09224261856079L194.83333333333331,44.840361489159726L196,42.60065534755161L197.16666666666669,43.665443559646604L198.33333333333334,45.42415825462341L199.5,44.353982239042L200.66666666666666,45.7197263720376L201.83333333333334,44.852546213967464L203,44.20808202770777L204.16666666666666,44.87114355523245L205.33333333333331,46.59895561790466L206.5,46.89484775706699L207.66666666666669,46.17294990839276L208.83333333333334,46.02605502564566L210,46.61628701373508L211.16666666666666,44.94126035445077L212.33333333333331,45.67619442694528L213.5,47.24640381840296L214.66666666666669,48.548880821228025L215.83333333333334,47.77542583765302L217,45.80119146783011L218.16666666666666,47.98931786836896L219.33333333333334,47.74477940859113L220.5,49.16167376545496L221.66666666666666,47.08403878102984L222.83333333333331,47.615464589527676L224,45.074757314682L225.16666666666669,49.293520475387574L226.33333333333334,47.2942761478424L227.5,45.10975166348047L228.66666666666666,48.560733988898136L229.83333333333331,47.49752820859637L231,50.156081439699435L232.16666666666669,48.42942982700892L233.33333333333334,49.11473582431247L234.5,48.34274270629883L235.66666666666666,47.79895132364545L236.83333333333334,49.18672893551416L238,50.500825508935115L239.16666666666666,48.10149721172876L240.33333333333331,46.56625956290109L241.5,47.83402856172833L242.66666666666669,46.06392789322989L243.83333333333334,48.262415454319544L245,48.98688287081036L246.16666666666666,47.48529073606219L247.33333333333331,51.039530503681725L248.5,48.42203007452829L249.66666666666669,49.49708902250018L250.83333333333334,48.267298386710024L252,49.76254572350638L253.16666666666666,48.539589685985014L254.33333333333334,45.950520281382964L255.5,54.91104031045096" style="fill: none;" fill="none"></path></g><g><path stroke="rgb(255, 112, 67)" stroke-width="2px" d="M23.333333333333332,6.116364126477911L24.5,10.034962582179475L25.666666666666664,11.138595727103091L26.833333333333336,12.089396102360318L28,12.61440175901139L29.166666666666668,13.063646609715056L30.333333333333336,13.156181192670537L31.5,13.484950236184241L32.666666666666664,13.42183381380353L33.833333333333336,13.672069028036928L35,14.170625467572881L36.16666666666667,14.391291813441681L37.333333333333336,14.64799239185877L38.5,14.831192781175877L39.666666666666664,15.89585289164951L40.833333333333336,15.922603524344302L42,16.124190264020637L43.16666666666667,17.593274728502536L44.33333333333333,17.136147860390786L45.5,17.539080207279753L46.666666666666664,19.13341791588919L47.833333333333336,17.75745579474313L49,18.82627544021606L50.166666666666664,19.52988489859445L51.33333333333333,19.53485825565882L52.5,21.360321430751252L53.66666666666667,21.355001445770263L54.833333333333336,20.325034268515445L56,19.81723944146292L57.166666666666664,20.000108273642397L58.333333333333336,21.897730338505337L59.5,20.571818274361732L60.66666666666667,21.90624532863071L61.83333333333333,21.632198283604215L63,23.316448259626103L64.16666666666666,23.13425761250086L65.33333333333333,23.38274461637225L66.5,23.074969167981816L67.66666666666667,23.302673567635676L68.83333333333333,22.62920566722324L70,23.612076660156248L71.16666666666666,23.75770559746878L72.33333333333334,22.45111427198138L73.5,23.15027785055978L74.66666666666667,23.72135487856183L75.83333333333333,23.789022676195408L77,25.051426477704716L78.16666666666667,27.521233272824954L79.33333333333333,26.50884615925379L80.5,27.535294309616088L81.66666666666667,24.912880806514192L82.83333333333333,24.930875316619872L84,24.1295921396528L85.16666666666666,25.491643931797572L86.33333333333334,24.136554839542935L87.5,23.74409668404715L88.66666666666666,25.095523577008915L89.83333333333334,23.733758129664825L91,22.349959203447604L92.16666666666667,27.019979163851048L93.33333333333333,26.39003567314148L94.5,25.273735538482665L95.66666666666667,25.57567106001718L96.83333333333333,23.648216388157437L98,26.370164851052426L99.16666666666667,25.37846238163538L100.33333333333333,28.64195668111529L101.5,26.136582847595214L102.66666666666666,26.296061830793096L103.83333333333334,26.31697253663199L105,27.015013342176154L106.16666666666666,27.288676082338597L107.33333333333334,29.267529645919797L108.5,29.479816638674045L109.66666666666667,25.381069626399444L110.83333333333333,28.298380597250794L112,27.433483662196565L113.16666666666667,29.075565598624085L114.33333333333333,28.835925142015718L115.5,29.840234318052005L116.66666666666667,29.93796831975665L117.83333333333333,28.182380811418795L119,26.53963576071603L120.16666666666666,29.168175535474493L121.33333333333334,29.19403699220929L122.5,30.190916274206973L123.66666666666666,29.738725086212156L124.83333333333334,27.974660264696382L126,29.367667436872196L127.16666666666667,29.302554136276243L128.33333333333331,28.75751941435678L129.5,28.06564255741663L130.66666666666666,28.830454449244904L131.83333333333334,30.99418879399981L133,29.33665930911472L134.16666666666669,29.72682670620508L135.33333333333334,32.11649463408334L136.5,31.63786176436288L137.66666666666666,32.18395144081116L138.83333333333334,32.27526529066903L140,30.738806908743715L141.16666666666666,33.45185607664926L142.33333333333331,32.000238645008636L143.5,30.518230987548826L144.66666666666669,31.362247358322143L145.83333333333334,33.59084633581979L147,31.689155160631444L148.16666666666666,32.56763840293884L149.33333333333334,33.78248636136737L150.5,32.41696829005649L151.66666666666666,30.32164774649484L152.83333333333331,34.44951903915405L154,33.851940046310425L155.16666666666669,32.892398619243075L156.33333333333334,36.233884199959896L157.5,35.421704849788114L158.66666666666666,34.12633371925354L159.83333333333331,33.8050247113364L161,37.970459920610686L162.16666666666669,34.19487562206812L163.33333333333334,35.192093996592924L164.5,35.32501826722281L165.66666666666666,32.454178043365474L166.83333333333334,32.37940437344141L168,34.09895011384146L169.16666666666666,35.831351228713984L170.33333333333331,35.33089587102618L171.5,37.831951926367616L172.66666666666669,33.6953094403403L173.83333333333334,34.3754461604527L175,37.73505435289655L176.16666666666666,34.98215050997052L177.33333333333331,39.08339173616681L178.5,34.23558933149066L179.66666666666669,36.936800402505064L180.83333333333334,34.387706239155364L182,37.00184588459558L183.16666666666666,37.14966762025015L184.33333333333334,35.77008097675867L185.5,37.018152467455174L186.66666666666666,38.9221645426069L187.83333333333331,36.522979417800904L189,35.94735101454599L190.16666666666669,35.41298640414646L191.33333333333334,36.615898305620455L192.5,35.323413229261114L193.66666666666666,36.99904271970477L194.83333333333331,39.71418672588892L196,40.4464984828404L197.16666666666669,37.77510494804382L198.33333333333334,38.97012729672022L199.5,37.342272175652646L200.66666666666666,36.7142426738739L201.83333333333334,39.65269041224887L203,39.14284595925467L204.16666666666666,40.152399766377044L205.33333333333331,36.955571057728356L206.5,38.62795279530115L207.66666666666669,36.57718147441318L208.83333333333334,39.26566527257647L210,40.266101258414125L211.16666666666666,36.530409311839506L212.33333333333331,37.47513616316659L213.5,38.29627509144373L214.66666666666669,39.234657144818975L215.83333333333334,38.171775386265345L217,37.181625207083556L218.16666666666666,39.15843668011255L219.33333333333334,38.441180631365086L220.5,39.13505436652047L221.66666666666666,39.872866957800724L222.83333333333331,42.558962037495206L224,36.882033191680904L225.16666666666669,38.579801656450535L226.33333333333334,39.125627594266604L227.5,38.69097125761849L228.66666666666666,38.86461677306039L229.83333333333331,39.04271570369175L231,39.49124469239371L232.16666666666669,40.42637899289813L233.33333333333334,39.54297514125278L234.5,38.446048492976594L235.66666666666666,39.613566670009064L236.83333333333334,39.81747430964877L238,41.340587516784666L239.16666666666666,39.3996972454616L240.33333333333331,39.25379703412737L241.5,40.92607327624729L242.66666666666669,39.568520111628935L243.83333333333334,41.768258547374174L245,38.93610501316614L246.16666666666666,44.17653888729639L247.33333333333331,44.03826449012756L248.5,39.67566581480844L249.66666666666669,41.44026564897809L250.83333333333334,39.01312422915866L252,38.29742800603594L253.16666666666666,39.91959390803745L254.33333333333334,39.21291754613604L255.5,42.339878123419616" style="fill: none;" fill="none"></path></g></g></g></g></g><g><g><span fill="rgb(0, 0, 0)" stroke="none" stroke-width="1px">Alt + Scroll to Zoom</span></g></g></g><g transform="translate(50, 176)" clip-path="url(#clip_1)"><clipPath id="clip_1"><rect width="279" height="22"></rect></clipPath><g><g><line x1="0" y1="0" x2="0" y2="5" style="visibility: inherit;" fill="rgb(0, 0, 0)" stroke="rgb(204, 204, 204)" stroke-width="1px"></line><line x1="23.333333333333332" y1="0" x2="23.333333333333332" y2="5" style="visibility: inherit;" fill="rgb(0, 0, 0)" stroke="rgb(204, 204, 204)" stroke-width="1px"></line><line x1="46.666666666666664" y1="0" x2="46.666666666666664" y2="5" style="visibility: inherit;" fill="rgb(0, 0, 0)" stroke="rgb(204, 204, 204)" stroke-width="1px"></line><line x1="70" y1="0" x2="70" y2="5" style="visibility: inherit;" fill="rgb(0, 0, 0)" stroke="rgb(204, 204, 204)" stroke-width="1px"></line><line x1="93.33333333333333" y1="0" x2="93.33333333333333" y2="5" style="visibility: inherit;" fill="rgb(0, 0, 0)" stroke="rgb(204, 204, 204)" stroke-width="1px"></line><line x1="116.66666666666667" y1="0" x2="116.66666666666667" y2="5" style="visibility: inherit;" fill="rgb(0, 0, 0)" stroke="rgb(204, 204, 204)" stroke-width="1px"></line><line x1="140" y1="0" x2="140" y2="5" style="visibility: inherit;" fill="rgb(0, 0, 0)" stroke="rgb(204, 204, 204)" stroke-width="1px"></line><line x1="163.33333333333334" y1="0" x2="163.33333333333334" y2="5" style="visibility: inherit;" fill="rgb(0, 0, 0)" stroke="rgb(204, 204, 204)" stroke-width="1px"></line><line x1="186.66666666666666" y1="0" x2="186.66666666666666" y2="5" style="visibility: inherit;" fill="rgb(0, 0, 0)" stroke="rgb(204, 204, 204)" stroke-width="1px"></line><line x1="210" y1="0" x2="210" y2="5" style="visibility: inherit;" fill="rgb(0, 0, 0)" stroke="rgb(204, 204, 204)" stroke-width="1px"></line><line x1="233.33333333333334" y1="0" x2="233.33333333333334" y2="5" style="visibility: inherit;" fill="rgb(0, 0, 0)" stroke="rgb(204, 204, 204)" stroke-width="1px"></line><line x1="256.66666666666663" y1="0" x2="256.66666666666663" y2="5" style="visibility: inherit;" fill="rgb(0, 0, 0)" stroke="rgb(204, 204, 204)" stroke-width="1px"></line><line x1="280" y1="0" x2="280" y2="5" style="visibility: inherit;" fill="rgb(0, 0, 0)" stroke="rgb(204, 204, 204)" stroke-width="1px"></line></g><g transform="translate(0, 8)"><text x="0" y="0" dx="0em" dy="0.95em" style="text-anchor: middle; visibility: hidden; font-family: Roboto, sans-serif; font-size: 12px; font-weight: 200;" fill="rgb(33, 33, 33)" stroke="none" stroke-width="1px">-20</text><text x="23.333333333333332" y="0" dx="0em" dy="0.95em" style="text-anchor: middle; visibility: inherit; font-family: Roboto, sans-serif; font-size: 12px; font-weight: 200;" fill="rgb(33, 33, 33)" stroke="none" stroke-width="1px">0</text><text x="46.666666666666664" y="0" dx="0em" dy="0.95em" style="text-anchor: middle; visibility: hidden; font-family: Roboto, sans-serif; font-size: 12px; font-weight: 200;" fill="rgb(33, 33, 33)" stroke="none" stroke-width="1px">20</text><text x="70" y="0" dx="0em" dy="0.95em" style="text-anchor: middle; visibility: inherit; font-family: Roboto, sans-serif; font-size: 12px; font-weight: 200;" fill="rgb(33, 33, 33)" stroke="none" stroke-width="1px">40</text><text x="93.33333333333333" y="0" dx="0em" dy="0.95em" style="text-anchor: middle; visibility: hidden; font-family: Roboto, sans-serif; font-size: 12px; font-weight: 200;" fill="rgb(33, 33, 33)" stroke="none" stroke-width="1px">60</text><text x="116.66666666666667" y="0" dx="0em" dy="0.95em" style="text-anchor: middle; visibility: inherit; font-family: Roboto, sans-serif; font-size: 12px; font-weight: 200;" fill="rgb(33, 33, 33)" stroke="none" stroke-width="1px">80</text><text x="140" y="0" dx="0em" dy="0.95em" style="text-anchor: middle; visibility: hidden; font-family: Roboto, sans-serif; font-size: 12px; font-weight: 200;" fill="rgb(33, 33, 33)" stroke="none" stroke-width="1px">100</text><text x="163.33333333333334" y="0" dx="0em" dy="0.95em" style="text-anchor: middle; visibility: inherit; font-family: Roboto, sans-serif; font-size: 12px; font-weight: 200;" fill="rgb(33, 33, 33)" stroke="none" stroke-width="1px">120</text><text x="186.66666666666666" y="0" dx="0em" dy="0.95em" style="text-anchor: middle; visibility: hidden; font-family: Roboto, sans-serif; font-size: 12px; font-weight: 200;" fill="rgb(33, 33, 33)" stroke="none" stroke-width="1px">140</text><text x="210" y="0" dx="0em" dy="0.95em" style="text-anchor: middle; visibility: inherit; font-family: Roboto, sans-serif; font-size: 12px; font-weight: 200;" fill="rgb(33, 33, 33)" stroke="none" stroke-width="1px">160</text><text x="233.33333333333334" y="0" dx="0em" dy="0.95em" style="text-anchor: middle; visibility: hidden; font-family: Roboto, sans-serif; font-size: 12px; font-weight: 200;" fill="rgb(33, 33, 33)" stroke="none" stroke-width="1px">180</text><text x="256.66666666666663" y="0" dx="0em" dy="0.95em" style="text-anchor: middle; visibility: inherit; font-family: Roboto, sans-serif; font-size: 12px; font-weight: 200;" fill="rgb(33, 33, 33)" stroke="none" stroke-width="1px">200</text><text x="280" y="0" dx="0em" dy="0.95em" style="text-anchor: middle; visibility: hidden; font-family: Roboto, sans-serif; font-size: 12px; font-weight: 200;" fill="rgb(33, 33, 33)" stroke="none" stroke-width="1px">220</text></g><line x1="0" y1="0" x2="280" y2="0" fill="rgb(0, 0, 0)" stroke="rgb(204, 204, 204)" stroke-width="1px"></line></g></g></g></g></svg>