<svg viewBox="0 0 330 199.9921875" xmlns="http://www.w3.org/2000/svg"><g><g><g><g><g><line x1="50" y1="176.992" x2="45" y2="176.992" style="visibility: inherit;" fill="rgb(0, 0, 0)" stroke="rgb(204, 204, 204)" stroke-width="1px"></line><line x1="50" y1="157.3262222222222" x2="45" y2="157.3262222222222" style="visibility: inherit;" fill="rgb(0, 0, 0)" stroke="rgb(204, 204, 204)" stroke-width="1px"></line><line x1="50" y1="137.66044444444444" x2="45" y2="137.66044444444444" style="visibility: inherit;" fill="rgb(0, 0, 0)" stroke="rgb(204, 204, 204)" stroke-width="1px"></line><line x1="50" y1="117.99466666666666" x2="45" y2="117.99466666666666" style="visibility: inherit;" fill="rgb(0, 0, 0)" stroke="rgb(204, 204, 204)" stroke-width="1px"></line><line x1="50" y1="98.32888888888887" x2="45" y2="98.32888888888887" style="visibility: inherit;" fill="rgb(0, 0, 0)" stroke="rgb(204, 204, 204)" stroke-width="1px"></line><line x1="50" y1="78.6631111111111" x2="45" y2="78.6631111111111" style="visibility: inherit;" fill="rgb(0, 0, 0)" stroke="rgb(204, 204, 204)" stroke-width="1px"></line><line x1="50" y1="58.997333333333316" x2="45" y2="58.997333333333316" style="visibility: inherit;" fill="rgb(0, 0, 0)" stroke="rgb(204, 204, 204)" stroke-width="1px"></line><line x1="50" y1="39.33155555555555" x2="45" y2="39.33155555555555" style="visibility: inherit;" fill="rgb(0, 0, 0)" stroke="rgb(204, 204, 204)" stroke-width="1px"></line><line x1="50" y1="19.665777777777745" x2="45" y2="19.665777777777745" style="visibility: inherit;" fill="rgb(0, 0, 0)" stroke="rgb(204, 204, 204)" stroke-width="1px"></line><line x1="50" y1="0" x2="45" y2="0" style="visibility: inherit;" fill="rgb(0, 0, 0)" stroke="rgb(204, 204, 204)" stroke-width="1px"></line></g><g transform="translate(40, 0)"><text x="0" y="176.992" dx="0em" dy="0.3em" style="text-anchor: end; visibility: hidden; font-family: Roboto, sans-serif; font-size: 12px; font-weight: 200;" fill="rgb(33, 33, 33)" stroke="none" stroke-width="1px">-0.6</text><text x="0" y="157.3262222222222" dx="0em" dy="0.3em" style="text-anchor: end; visibility: inherit; font-family: Roboto, sans-serif; font-size: 12px; font-weight: 200;" fill="rgb(33, 33, 33)" stroke="none" stroke-width="1px">-0.4</text><text x="0" y="137.66044444444444" dx="0em" dy="0.3em" style="text-anchor: end; visibility: hidden; font-family: Roboto, sans-serif; font-size: 12px; font-weight: 200;" fill="rgb(33, 33, 33)" stroke="none" stroke-width="1px">-0.2</text><text x="0" y="117.99466666666666" dx="0em" dy="0.3em" style="text-anchor: end; visibility: inherit; font-family: Roboto, sans-serif; font-size: 12px; font-weight: 200;" fill="rgb(33, 33, 33)" stroke="none" stroke-width="1px">0</text><text x="0" y="98.32888888888887" dx="0em" dy="0.3em" style="text-anchor: end; visibility: hidden; font-family: Roboto, sans-serif; font-size: 12px; font-weight: 200;" fill="rgb(33, 33, 33)" stroke="none" stroke-width="1px">0.2</text><text x="0" y="78.6631111111111" dx="0em" dy="0.3em" style="text-anchor: end; visibility: inherit; font-family: Roboto, sans-serif; font-size: 12px; font-weight: 200;" fill="rgb(33, 33, 33)" stroke="none" stroke-width="1px">0.4</text><text x="0" y="58.997333333333316" dx="0em" dy="0.3em" style="text-anchor: end; visibility: hidden; font-family: Roboto, sans-serif; font-size: 12px; font-weight: 200;" fill="rgb(33, 33, 33)" stroke="none" stroke-width="1px">0.6</text><text x="0" y="39.33155555555555" dx="0em" dy="0.3em" style="text-anchor: end; visibility: inherit; font-family: Roboto, sans-serif; font-size: 12px; font-weight: 200;" fill="rgb(33, 33, 33)" stroke="none" stroke-width="1px">0.8</text><text x="0" y="19.665777777777745" dx="0em" dy="0.3em" style="text-anchor: end; visibility: hidden; font-family: Roboto, sans-serif; font-size: 12px; font-weight: 200;" fill="rgb(33, 33, 33)" stroke="none" stroke-width="1px">1</text><text x="0" y="0" dx="0em" dy="0.3em" style="text-anchor: end; visibility: hidden; font-family: Roboto, sans-serif; font-size: 12px; font-weight: 200;" fill="rgb(33, 33, 33)" stroke="none" stroke-width="1px">1.2</text></g><line x1="50" y1="0" x2="50" y2="176.992" fill="rgb(0, 0, 0)" stroke="rgb(204, 204, 204)" stroke-width="1px"></line></g></g><g transform="translate(50, 0)" clip-path="url(#clip_0)"><clipPath id="clip_0"><rect width="279" height="176"></rect></clipPath><g><g><g><line x1="0" y1="0" x2="0" y2="176.992" fill="rgb(0, 0, 0)" stroke="rgb(66, 66, 66)" stroke-width="1px" opacity="0.25"></line><line x1="23.333333333333332" y1="0" x2="23.333333333333332" y2="176.992" fill="rgb(0, 0, 0)" stroke="rgb(66, 66, 66)" stroke-width="1px" opacity="0.25"></line><line x1="46.666666666666664" y1="0" x2="46.666666666666664" y2="176.992" fill="rgb(0, 0, 0)" stroke="rgb(66, 66, 66)" stroke-width="1px" opacity="0.25"></line><line x1="70" y1="0" x2="70" y2="176.992" fill="rgb(0, 0, 0)" stroke="rgb(66, 66, 66)" stroke-width="1px" opacity="0.25"></line><line x1="93.33333333333333" y1="0" x2="93.33333333333333" y2="176.992" fill="rgb(0, 0, 0)" stroke="rgb(66, 66, 66)" stroke-width="1px" opacity="0.25"></line><line x1="116.66666666666667" y1="0" x2="116.66666666666667" y2="176.992" fill="rgb(0, 0, 0)" stroke="rgb(66, 66, 66)" stroke-width="1px" opacity="0.25"></line><line x1="140" y1="0" x2="140" y2="176.992" fill="rgb(0, 0, 0)" stroke="rgb(66, 66, 66)" stroke-width="1px" opacity="0.25"></line><line x1="163.33333333333334" y1="0" x2="163.33333333333334" y2="176.992" fill="rgb(0, 0, 0)" stroke="rgb(66, 66, 66)" stroke-width="1px" opacity="0.25"></line><line x1="186.66666666666666" y1="0" x2="186.66666666666666" y2="176.992" fill="rgb(0, 0, 0)" stroke="rgb(66, 66, 66)" stroke-width="1px" opacity="0.25"></line><line x1="210" y1="0" x2="210" y2="176.992" fill="rgb(0, 0, 0)" stroke="rgb(66, 66, 66)" stroke-width="1px" opacity="0.25"></line><line x1="233.33333333333334" y1="0" x2="233.33333333333334" y2="176.992" fill="rgb(0, 0, 0)" stroke="rgb(66, 66, 66)" stroke-width="1px" opacity="0.25"></line><line x1="256.66666666666663" y1="0" x2="256.66666666666663" y2="176.992" fill="rgb(0, 0, 0)" stroke="rgb(66, 66, 66)" stroke-width="1px" opacity="0.25"></line><line x1="280" y1="0" x2="280" y2="176.992" fill="rgb(0, 0, 0)" stroke="rgb(66, 66, 66)" stroke-width="1px" opacity="0.25"></line></g><g><line x1="0" y1="176.992" x2="280" y2="176.992" fill="rgb(0, 0, 0)" stroke="rgb(66, 66, 66)" stroke-width="1px" opacity="0.25"></line><line x1="0" y1="157.3262222222222" x2="280" y2="157.3262222222222" fill="rgb(0, 0, 0)" stroke="rgb(66, 66, 66)" stroke-width="1px" opacity="0.25"></line><line x1="0" y1="137.66044444444444" x2="280" y2="137.66044444444444" fill="rgb(0, 0, 0)" stroke="rgb(66, 66, 66)" stroke-width="1px" opacity="0.25"></line><line x1="0" y1="117.99466666666666" x2="280" y2="117.99466666666666" fill="rgb(0, 0, 0)" stroke="rgb(66, 66, 66)" stroke-width="1px" opacity="0.25"></line><line x1="0" y1="98.32888888888887" x2="280" y2="98.32888888888887" fill="rgb(0, 0, 0)" stroke="rgb(66, 66, 66)" stroke-width="1px" opacity="0.25"></line><line x1="0" y1="78.6631111111111" x2="280" y2="78.6631111111111" fill="rgb(0, 0, 0)" stroke="rgb(66, 66, 66)" stroke-width="1px" opacity="0.25"></line><line x1="0" y1="58.997333333333316" x2="280" y2="58.997333333333316" fill="rgb(0, 0, 0)" stroke="rgb(66, 66, 66)" stroke-width="1px" opacity="0.25"></line><line x1="0" y1="39.33155555555555" x2="280" y2="39.33155555555555" fill="rgb(0, 0, 0)" stroke="rgb(66, 66, 66)" stroke-width="1px" opacity="0.25"></line><line x1="0" y1="19.665777777777745" x2="280" y2="19.665777777777745" fill="rgb(0, 0, 0)" stroke="rgb(66, 66, 66)" stroke-width="1px" opacity="0.25"></line><line x1="0" y1="0" x2="280" y2="0" fill="rgb(0, 0, 0)" stroke="rgb(66, 66, 66)" stroke-width="1px" opacity="0.25"></line></g></g></g><g><g><line x1="0" y1="117.99466666666666" x2="280" y2="117.99466666666666" fill="rgb(0, 0, 0)" stroke="rgb(153, 153, 153)" stroke-width="1.5px"></line></g></g><g><g><line x1="23.333333333333332" y1="0" x2="23.333333333333332" y2="176.992" fill="rgb(0, 0, 0)" stroke="rgb(153, 153, 153)" stroke-width="1.5px"></line></g></g><g><g><g><g><g><path stroke="rgb(51, 187, 238)" stroke-width="2px" d="M23.333333333333332,26.56193934143911L24.5,57.36582036675344L25.666666666666664,77.77676840972033L26.833333333333336,89.56541329041374L28,96.3536613719295L29.166666666666668,100.48280738983723L30.333333333333336,103.351301351731L31.5,105.07948400094294L32.666666666666664,106.26943260676587L33.833333333333336,107.063882336316L35,107.53800039961293L36.16666666666667,108.01727457052384L37.333333333333336,108.33005685274641L38.5,108.49215806199972L39.666666666666664,108.80062785023597L40.833333333333336,109.1405006390014L42,109.28250429242024L43.16666666666667,109.5480946310064L44.33333333333333,109.65385009503807L45.5,110.08004075046291L46.666666666666664,110.23316910575944L47.833333333333336,110.45905074579692L49,110.75109944309074L50.166666666666664,110.81751485011239L51.33333333333333,111.38568574384864L52.5,112.22236280062427L53.66666666666667,113.01693353888732L54.833333333333336,113.37332295134767L56,114.53223386552924L57.166666666666664,114.3787510848951L58.333333333333336,115.16856163615535L59.5,115.50504365132555L60.66666666666667,115.91810438346708L61.83333333333333,116.20108815973799L63,116.64508984358456L64.16666666666666,116.87694689374571L65.33333333333333,117.82073853672874L66.5,117.87428348312187L67.66666666666667,118.52737812464747L68.83333333333333,118.58086194273085L70,118.81486686747449L71.16666666666666,119.87256670497997L72.33333333333334,119.53311335386057L73.5,119.4206832249228L74.66666666666667,118.91494394054504L75.83333333333333,120.02811461188212L77,120.41234574921268L78.16666666666667,121.5880000253213L79.33333333333333,121.98774574358494L80.5,122.49899678400311L81.66666666666667,123.62795156849533L82.83333333333333,122.87860833006613L84,122.6087635617686L85.16666666666666,123.13564882045306L86.33333333333334,123.62338224931315L87.5,123.8761415089249L88.66666666666666,125.05690315624446L89.83333333333334,123.88788511575002L91,125.61851928225812L92.16666666666667,125.22374903650606L93.33333333333333,125.71466485332897L94.5,125.48069531142117L95.66666666666667,125.94487198245699L96.83333333333333,126.60224439109535L98,126.84600391916071L99.16666666666667,127.85884734500297L100.33333333333333,129.272535144003L101.5,130.2232313811041L102.66666666666666,130.88705069474454L103.83333333333334,131.27133014244285L105,131.49297348183393L106.16666666666666,131.70811641374297L107.33333333333334,132.2998237632908L108.5,132.7248444060059L109.66666666666667,133.3496529330475L110.83333333333333,132.2488424526835L112,133.01977649165167L113.16666666666667,133.99241211839833L114.33333333333333,134.30280188358017L115.5,135.11907803072776L116.66666666666667,135.0816249184716L117.83333333333333,135.99735165962227L119,136.5145148870189L120.16666666666666,135.26229564131862L121.33333333333334,136.15589315165553L122.5,135.45494809401913L123.66666666666666,135.26026264837313L124.83333333333334,135.68316084315137L126,136.66754309800984L127.16666666666667,136.226563479753L128.33333333333331,136.45795789183146L129.5,136.87421768977686L130.66666666666666,137.42595957718822L131.83333333333334,137.4665470096474L133,139.09006694376367L134.16666666666669,139.19900073169805L135.33333333333334,138.90496964512946L136.5,139.6101378112476L137.66666666666666,139.431570597104L138.83333333333334,139.70991475604546L140,139.9958128685495L141.16666666666666,139.73196262463907L142.33333333333331,141.2497026946497L143.5,140.61441402579658L144.66666666666669,141.19279991785407L145.83333333333334,142.12775116504926L147,142.52706419788686L148.16666666666666,143.2510601772692L149.33333333333334,143.16742351569889L150.5,143.26276897949074L151.66666666666666,142.36588710362835L152.83333333333331,142.56227592965237L154,143.19831695587797L155.16666666666669,142.98976249870344L156.33333333333334,143.51508782691303L157.5,142.92228600523663L158.66666666666666,143.42679256375905L159.83333333333331,143.44522376285292L161,143.85836902359105L162.16666666666669,144.933869180056L163.33333333333334,144.77397171330668L164.5,145.0225895875679L165.66666666666666,146.10580415804304L166.83333333333334,145.95209081154402L168,144.7588970191479L169.16666666666666,145.03229131304954L170.33333333333331,144.89915188731194L171.5,144.5285497236788L172.66666666666669,144.97089300283895L173.83333333333334,146.10076739290685L175,145.82028576444384L176.16666666666666,145.70149759820114L177.33333333333331,145.6123631461111L178.5,145.58067900759394L179.66666666666669,145.60846396303822L180.83333333333334,144.29995087451263L182,145.32848392391648L183.16666666666666,145.7847325652891L184.33333333333334,145.35801538641772L185.5,146.82486648524315L186.66666666666666,146.80406355951135L187.83333333333331,146.50603843393137L189,146.66176233355728L190.16666666666669,147.0969784972328L191.33333333333334,147.9424533698037L192.5,147.8488795640897L193.66666666666666,148.52223399298907L194.83333333333331,149.00464501005126L196,149.43230355745118L197.16666666666669,149.36544142215652L198.33333333333334,149.3329608395966L199.5,149.93943327624433L200.66666666666666,150.24603622383376L201.83333333333334,149.5169008547243L203,150.5106213504234L204.16666666666666,149.58730417757718L205.33333333333331,150.2669964546054L206.5,149.29573657909765L207.66666666666669,150.93401158844472L208.83333333333334,150.59958923231454L210,151.04896715065243L211.16666666666666,151.12687115427627L212.33333333333331,151.44935288250377L213.5,151.25361644603635L214.66666666666669,151.33834724222845L215.83333333333334,149.8092717515396L217,150.3385852370759L218.16666666666666,150.65752835888134L219.33333333333334,150.81698185746816L220.5,151.68806780655683L221.66666666666666,151.5281579350124L222.83333333333331,150.97165989081734L224,151.64032537903657L225.16666666666669,151.96836123105183L226.33333333333334,151.24557887949857L227.5,151.71975762136302L228.66666666666666,152.26514457191075L229.83333333333331,151.29407468009884L231,150.8909567015224L232.16666666666669,151.6779068751632L233.33333333333334,152.34727494073104L234.5,152.64011238557612L235.66666666666666,152.76058563855665L236.83333333333334,152.47548264462046L238,152.5872811173814L239.16666666666666,152.85245018508405L240.33333333333331,152.40562911471085L241.5,152.0975314245828L242.66666666666669,152.4912075297612L243.83333333333334,153.1418368412786L245,153.30094026335345L246.16666666666666,153.98944031628133L247.33333333333331,152.97327388634776L248.5,153.0278073927048L249.66666666666669,153.3334477496369L250.83333333333334,154.80760633928782L252,156.03808789686153L253.16666666666666,155.70683697015053L254.33333333333334,155.79964536942248L255.5,156.12425824529782" style="fill: none;" fill="none"></path></g><g><path stroke="rgb(204, 51, 17)" stroke-width="2px" d="M23.333333333333332,7.500124203575953L24.5,8.470828891542205L25.666666666666664,9.001735954258681L26.833333333333336,9.3547928738064L28,9.74525070964104L29.166666666666668,10.004817596775935L30.333333333333336,10.323049330880607L31.5,10.452661842924268L32.666666666666664,11.106007715389943L33.833333333333336,11.398440889238596L35,11.939258938879565L36.16666666666667,12.779635126620876L37.333333333333336,12.950675672613409L38.5,13.314108660635593L39.666666666666664,14.016386405845017L40.833333333333336,14.948935654320065L42,15.307361938829747L43.16666666666667,16.498301553489046L44.33333333333333,17.325107556218377L45.5,17.559173647486706L46.666666666666664,18.161064436343587L47.833333333333336,19.274570488677856L49,19.10869549984336L50.166666666666664,18.753092813546832L51.33333333333333,19.233090221567274L52.5,20.133811117217178L53.66666666666667,20.858782539352525L54.833333333333336,21.207893910718084L56,21.704465404958736L57.166666666666664,21.537177823037414L58.333333333333336,21.682961386926902L59.5,22.156275301645927L60.66666666666667,22.21157057269321L61.83333333333333,22.223815090836993L63,22.889151018488338L64.16666666666666,23.921090857230844L65.33333333333333,23.529847431839098L66.5,23.88865865210314L67.66666666666667,24.803052029490892L68.83333333333333,25.62303173716562L70,25.658456339724964L71.16666666666666,25.92783640653757L72.33333333333334,25.682062106489248L73.5,25.857558961667667L74.66666666666667,25.555717301238175L75.83333333333333,25.692458382833394L77,26.759345282645885L78.16666666666667,27.255626167299692L79.33333333333333,28.69770856418572L80.5,28.440418397684965L81.66666666666667,27.22775611266109L82.83333333333333,27.066371592010928L84,27.178712574906854L85.16666666666666,27.546549459702106L86.33333333333334,28.61224672472125L87.5,28.20217287503918L88.66666666666666,28.055502937500403L89.83333333333334,27.947923363265883L91,28.12028558508804L92.16666666666667,29.59127798337033L93.33333333333333,29.41837031717604L94.5,29.523534846284345L95.66666666666667,30.93571175953318L96.83333333333333,30.49566158466411L98,30.622142825500053L99.16666666666667,31.709772816966844L100.33333333333333,32.22804337861259L101.5,33.09080085406506L102.66666666666666,32.222291975350004L103.83333333333334,32.80451904727729L105,33.218308323457116L106.16666666666666,34.714002322209446L107.33333333333334,33.55049003044451L108.5,33.628932339698174L109.66666666666667,33.73401319130465L110.83333333333333,34.69418331185039L112,35.627556284904145L113.16666666666667,35.766650867398376L114.33333333333333,37.203574423518575L115.5,36.5564660657526L116.66666666666667,36.89996439914257L117.83333333333333,36.61071536103298L119,37.45396862252729L120.16666666666666,37.98796830382982L121.33333333333334,37.60830028729397L122.5,37.82299429362271L123.66666666666666,37.7965471785567L124.83333333333334,38.11108832359657L126,37.74835545760464L127.16666666666667,38.86514882059007L128.33333333333331,39.20945722422861L129.5,39.24355016792138L130.66666666666666,39.67628216399543L131.83333333333334,39.65867931146895L133,40.64117443004135L134.16666666666669,39.92155498295225L135.33333333333334,39.217691786971855L136.5,40.702229967982525L137.66666666666666,41.0011515180481L138.83333333333334,41.025304226495905L140,41.44054728928158L141.16666666666666,42.40015577089425L142.33333333333331,40.32483185068284L143.5,40.87385258559892L144.66666666666669,40.95157631940879L145.83333333333334,41.736479460671966L147,41.99624992522655L148.16666666666666,42.51055058769749L149.33333333333334,42.3995521256389L150.5,43.29181763004168L151.66666666666666,43.10005772890389L152.83333333333331,44.05664569767561L154,45.25337330244527L155.16666666666669,46.22111525793269L156.33333333333334,46.48669943336812L157.5,47.303406171590446L158.66666666666666,47.486841673704866L159.83333333333331,46.05723200532832L161,46.45292097725163L162.16666666666669,45.90515514804734L163.33333333333334,46.75724295734851L164.5,46.05451492410459L165.66666666666666,46.81775848839152L166.83333333333334,47.449500180382984L168,48.27619991164572L169.16666666666666,47.30317681429021L170.33333333333331,48.0664437710862L171.5,47.98167203827291L172.66666666666669,47.96070406558798L173.83333333333334,47.69155365188399L175,48.05693113878257L176.16666666666666,47.97980449337558L177.33333333333331,49.010873858728125L178.5,48.88472930231775L179.66666666666669,49.94621556456869L180.83333333333334,49.91302130431059L182,49.94444586855776L183.16666666666666,50.14000080199472L184.33333333333334,50.556640772283664L185.5,50.12339400341942L186.66666666666666,50.62090329378545L187.83333333333331,50.6749149507518L189,51.24205026346389L190.16666666666669,52.411258455587415L191.33333333333334,51.76777964390231L192.5,51.77387521949092L193.66666666666666,51.812538300453376L194.83333333333331,51.54890807870816L196,53.01571391587926L197.16666666666669,54.42047553656978L198.33333333333334,53.523799231684414L199.5,53.247907450981025L200.66666666666666,53.28260040778343L201.83333333333334,53.03870699149622L203,52.76537082685913L204.16666666666666,52.88737433386708L205.33333333333331,54.11984721503242L206.5,54.70159648692756L207.66666666666669,55.067621440604896L208.83333333333334,54.55433605821396L210,55.294330869920515L211.16666666666666,54.41367761936103L212.33333333333331,54.56290875065646L213.5,54.55264638666503L214.66666666666669,54.51865692345679L215.83333333333334,54.9122813225345L217,56.13785796071292L218.16666666666666,56.22658949210565L219.33333333333334,55.87299340210815L220.5,55.60009615502761L221.66666666666666,57.041717278418325L222.83333333333331,56.10170260749899L224,56.07124057440744L225.16666666666669,57.11928326015145L226.33333333333334,55.84023767230793L227.5,56.90044402177395L228.66666666666666,57.47853829933892L229.83333333333331,57.03623261408755L231,57.437388228985164L232.16666666666669,56.42308659136246L233.33333333333334,57.094866410909454L234.5,57.679695934921185L235.66666666666666,58.00728618727174L236.83333333333334,57.06730265964561L238,56.74494401703506L239.16666666666666,57.01036606554193L240.33333333333331,56.449329163183116L241.5,57.16010573180677L242.66666666666669,57.03930580595959L243.83333333333334,59.25672187240022L245,58.96579314219147L246.16666666666666,59.02925240051264L247.33333333333331,58.88616413078813L248.5,58.63987837289901L249.66666666666669,59.25042229953352L250.83333333333334,59.76802210191522L252,59.9131135376723L253.16666666666666,60.19477234454075L254.33333333333334,59.387444721743876L255.5,60.017059031397" style="fill: none;" fill="none"></path></g><g><path stroke="rgb(0, 119, 187)" stroke-width="2px" d="M23.333333333333332,9.681359909057598L24.5,9.665205917835216L25.666666666666664,9.812379998723932L26.833333333333336,10.01666134724586L28,9.822776405022939L29.166666666666668,10.222732554441176L30.333333333333336,10.35877381418092L31.5,10.593463060734392L32.666666666666664,10.869969984730012L33.833333333333336,10.906234071963508L35,11.009026022614938L36.16666666666667,11.21957267913416L37.333333333333336,11.207128600275668L38.5,11.311866984411838L39.666666666666664,11.485503247656943L40.833333333333336,11.655949480472941L42,11.76393105440375L43.16666666666667,11.909610429549046L44.33333333333333,12.169933202768842L45.5,12.32297986784189L46.666666666666664,12.50518539494554L47.833333333333336,12.570314698376972L49,12.625530319194667L50.166666666666664,12.765665129671756L51.33333333333333,13.22960532030101L52.5,13.238996925038535L53.66666666666667,13.156573560809822L54.833333333333336,13.164767035804553L56,13.585893309015725L57.166666666666664,14.070724662912285L58.333333333333336,14.187035442006982L59.5,14.651473387195999L60.66666666666667,14.615009476132988L61.83333333333333,15.01869979972401L63,15.468660324547379L64.16666666666666,16.12214777481946L65.33333333333333,16.90298395391048L66.5,18.08822880083655L67.66666666666667,18.51755515272171L68.83333333333333,19.35241739348955L70,19.73894250107049L71.16666666666666,19.763357386877747L72.33333333333334,20.58194262246715L73.5,21.460278486213163L74.66666666666667,22.468847992067367L75.83333333333333,23.194116195544023L77,23.51802161298875L78.16666666666667,23.937946962519764L79.33333333333333,24.27553869219534L80.5,26.064546072149952L81.66666666666667,26.339467138971383L82.83333333333333,26.23454834453295L84,26.901351313629437L85.16666666666666,26.398380296708485L86.33333333333334,26.546814769957695L87.5,27.991016121717053L88.66666666666666,28.08623623332621L89.83333333333334,27.57795955971812L91,28.318188582798857L92.16666666666667,28.675993206696337L93.33333333333333,29.354382416344343L94.5,30.028026394997053L95.66666666666667,30.239805486537744L96.83333333333333,31.36015951720342L98,31.307899495518974L99.16666666666667,31.178861726170826L100.33333333333333,31.46524365033668L101.5,32.576228491532596L102.66666666666666,32.35568234519759L103.83333333333334,32.60224040424649L105,33.055392339607344L106.16666666666666,33.66618178234513L107.33333333333334,34.63548459786979L108.5,35.30587470376309L109.66666666666667,35.4051703691498L110.83333333333333,35.256891249742374L112,36.10534699502363L113.16666666666667,36.176082146785625L114.33333333333333,35.87692192838443L115.5,36.707790914734645L116.66666666666667,37.15417176504424L117.83333333333333,37.3970470841086L119,38.06714328495001L120.16666666666666,38.31741414784989L121.33333333333334,38.19911887012879L122.5,38.523454264531296L123.66666666666666,38.895461343424046L124.83333333333334,40.33303781493164L126,40.01018990239891L127.16666666666667,40.001388896002084L128.33333333333331,40.274785080494034L129.5,39.575799656321834L130.66666666666666,40.42299618647974L131.83333333333334,40.453220433835384L133,40.28798044170789L134.16666666666669,40.8261743311224L135.33333333333334,42.14593360944614L136.5,42.386601222915246L137.66666666666666,42.92261263380748L138.83333333333334,42.516115652336495L140,43.33170360804957L141.16666666666666,44.23995303708992L142.33333333333331,44.39644499357287L143.5,45.54723346826082L144.66666666666669,44.912664910142816L145.83333333333334,43.95972816056323L147,44.21773942327819L148.16666666666666,44.674807063814576L149.33333333333334,44.4272483834405L150.5,44.89705015667156L151.66666666666666,45.265219468036534L152.83333333333331,45.02715488189545L154,45.71687921131636L155.16666666666669,47.317976046093875L156.33333333333334,47.8776717183376L157.5,47.712467772518664L158.66666666666666,47.40917184986509L159.83333333333331,48.47609166565772L161,48.730845222325534L162.16666666666669,47.68423281181802L163.33333333333334,47.914588091869184L164.5,48.185092557812496L165.66666666666666,49.056263727809494L166.83333333333334,49.26452199426424L168,49.95207248263369L169.16666666666666,50.7159495206166L170.33333333333331,49.7917390786555L171.5,50.53022134822818L172.66666666666669,50.67393571378649L173.83333333333334,51.09915638837862L175,51.18170292090764L176.16666666666666,49.694305096898134L177.33333333333331,50.096351873582115L178.5,50.675882757890875L179.66666666666669,51.331392477457904L180.83333333333334,51.65853859418142L182,52.791855631450545L183.16666666666666,52.876656919061965L184.33333333333334,53.26213410301596L185.5,53.76270576206864L186.66666666666666,53.36595355961067L187.83333333333331,53.725993470011886L189,53.02821345905521L190.16666666666669,53.54791109545262L191.33333333333334,53.34622235519163L192.5,53.79746567867218L193.66666666666666,54.270385503004746L194.83333333333331,53.83382382270739L196,53.19540401966136L197.16666666666669,53.16742170010993L198.33333333333334,52.5966475531809L199.5,54.20830581519983L200.66666666666666,54.07073524862782L201.83333333333334,54.45670524795869L203,54.67490573544514L204.16666666666666,54.85995691698186L205.33333333333331,54.85956098422774L206.5,54.836730987254995L207.66666666666669,55.25306527582127L208.83333333333334,54.895432408646656L210,53.49974200829155L211.16666666666666,53.72439972344146L212.33333333333331,53.46038403114739L213.5,54.61364177961981L214.66666666666669,55.902046620201084L215.83333333333334,56.070417720757526L217,56.23260195598491L218.16666666666666,56.92256016362866L219.33333333333334,56.28656463346906L220.5,56.32243157717005L221.66666666666666,57.298709035396406L222.83333333333331,57.24351327074888L224,56.376590228854205L225.16666666666669,57.23397023965831L226.33333333333334,57.936412242265014L227.5,57.40542229703952L228.66666666666666,56.53688756706648L229.83333333333331,55.94854268216356L231,57.13852162243087L232.16666666666669,57.0547406501892L233.33333333333334,56.98799602144762L234.5,56.964601115354064L235.66666666666666,57.67002674994157L236.83333333333334,59.318332839041005L238,59.074264540138614L239.16666666666666,58.39924211065271L240.33333333333331,59.11515066062787L241.5,58.57810894182417L242.66666666666669,57.7762640722512L243.83333333333334,58.67827052373402L245,59.463058706638805L246.16666666666666,59.92458237491308L247.33333333333331,60.18537452633402L248.5,58.94975057571793L249.66666666666669,58.95270757835107L250.83333333333334,59.24119263308378L252,60.066580805832935L253.16666666666666,60.56730416171901L254.33333333333334,59.79224016525109L255.5,59.538230182626414" style="fill: none;" fill="none"></path></g><g><path stroke="rgb(255, 112, 67)" stroke-width="2px" d="M23.333333333333332,8.507031414455813L24.5,8.707941643608912L25.666666666666664,8.711452178237108L26.833333333333336,9.08874230530684L28,9.399788941765056L29.166666666666668,9.66065393666654L30.333333333333336,9.992803061096135L31.5,10.132424687569111L32.666666666666664,10.525523220753584L33.833333333333336,10.908829381625296L35,11.10724513288225L36.16666666666667,11.74492675011044L37.333333333333336,12.171955872292763L38.5,12.909867357205805L39.666666666666664,13.369121819626413L40.833333333333336,13.506401398439971L42,13.464796694692765L43.16666666666667,14.058643778678336L44.33333333333333,14.587425415673602L45.5,14.373768424704501L46.666666666666664,15.106834868202158L47.833333333333336,15.52168747886367L49,15.32144394070416L50.166666666666664,16.269316412105248L51.33333333333333,16.549447527771438L52.5,16.75610426821577L53.66666666666667,17.19657539205069L54.833333333333336,17.385013533661358L56,17.317196118755035L57.166666666666664,16.976349956910195L58.333333333333336,16.915067642544603L59.5,17.627986516458545L60.66666666666667,18.70581957093578L61.83333333333333,18.941110536093483L63,19.198841177906857L64.16666666666666,19.805330655568998L65.33333333333333,19.809745063731402L66.5,20.28901044477986L67.66666666666667,20.560035018251618L68.83333333333333,21.35717912409743L70,19.839233739042307L71.16666666666666,21.532218537341095L72.33333333333334,22.18157682096997L73.5,21.79883379257536L74.66666666666667,21.909059159647512L75.83333333333333,22.7709840905078L77,21.921972934131297L78.16666666666667,22.627719130876315L79.33333333333333,22.32515886389429L80.5,22.5216621425942L81.66666666666667,23.233362848931407L82.83333333333333,23.050345266900916L84,22.31117932225878L85.16666666666666,21.976365859719117L86.33333333333334,21.145456593247257L87.5,22.023279730637388L88.66666666666666,21.277982116878896L89.83333333333334,20.67428346169967L91,21.229255801998825L92.16666666666667,22.42604066305357L93.33333333333333,23.55346441332833L94.5,24.41163340890874L95.66666666666667,23.41220618873716L96.83333333333333,24.58548299431599L98,25.036292811556756L99.16666666666667,25.997546516961318L100.33333333333333,26.82587257451734L101.5,26.663908445206143L102.66666666666666,27.08543469903082L103.83333333333334,28.05582971505514L105,27.634190749802652L106.16666666666666,27.42057592932292L107.33333333333334,27.920808284695376L108.5,27.770868930778153L109.66666666666667,29.093578517551645L110.83333333333333,29.735433822414542L112,28.48987565803204L113.16666666666667,29.122700259948463L114.33333333333333,30.78175478858831L115.5,30.081680997474823L116.66666666666667,29.083683400714023L117.83333333333333,29.765156559729096L119,30.619850172952233L120.16666666666666,31.52487967995L121.33333333333334,31.18112136197933L122.5,31.883008739089732L123.66666666666666,31.89899642811231L124.83333333333334,31.531327924650302L126,32.2368315495764L127.16666666666667,32.164337916799624L128.33333333333331,32.109026246410885L129.5,32.968419860598814L130.66666666666666,33.68611733087277L131.83333333333334,32.0618391175822L133,33.200812635147585L134.16666666666669,33.5781825690002L135.33333333333334,32.93887133347708L136.5,33.75972617770398L137.66666666666666,33.50941746838521L138.83333333333334,34.77760922940351L140,35.471633135857836L141.16666666666666,36.091027764103416L142.33333333333331,36.66607384026542L143.5,36.62101681070358L144.66666666666669,35.09548767075238L145.83333333333334,35.21104830889945L147,35.94343767920429L148.16666666666666,35.57486990605567L149.33333333333334,36.39665963369011L150.5,36.45371841917077L151.66666666666666,37.616403384774756L152.83333333333331,37.57110131888976L154,37.873194831233896L155.16666666666669,38.68784094905025L156.33333333333334,38.90480200281706L157.5,39.32727605854583L158.66666666666666,39.616607846872L159.83333333333331,38.758557508772206L161,38.828122883660974L162.16666666666669,39.820669181975404L163.33333333333334,38.600453768503264L164.5,38.45434003945617L165.66666666666666,38.000168877002814L166.83333333333334,38.493070855332405L168,39.44132486183225L169.16666666666666,40.692748449509025L170.33333333333331,41.511412734883514L171.5,41.77172395793314L172.66666666666669,41.1059440428134L173.83333333333334,40.65262418156098L175,39.44393110565017L176.16666666666666,40.14180437694196L177.33333333333331,39.90907985211731L178.5,41.487874635259246L179.66666666666669,40.970326042803094L180.83333333333334,42.88823829146012L182,42.17368537311692L183.16666666666666,42.14024977274233L184.33333333333334,41.745846003171756L185.5,42.33702656018552L186.66666666666666,41.80029831755053L187.83333333333331,42.014304867147736L189,42.85351605932672L190.16666666666669,43.12505358506231L191.33333333333334,43.45604676734664L192.5,44.66632062641072L193.66666666666666,44.668753314278895L194.83333333333331,45.5828611229023L196,45.44606016696987L197.16666666666669,46.21881393679084L198.33333333333334,45.9026742874522L199.5,45.683104808219625L200.66666666666666,44.068434638624396L201.83333333333334,44.90847398236626L203,44.72552526551159L204.16666666666666,45.18344816644128L205.33333333333331,45.92708699687335L206.5,45.76601033622963L207.66666666666669,46.78444424376388L208.83333333333334,45.088874643165184L210,44.94998648591472L211.16666666666666,45.47881791685466L212.33333333333331,45.92812206343678L213.5,47.11042073324706L214.66666666666669,46.709793190324625L215.83333333333334,46.782499036600754L217,46.65649757785103L218.16666666666666,46.4848090997739L219.33333333333334,46.84258139636404L220.5,47.57618394006926L221.66666666666666,47.28897541776946L222.83333333333331,47.532138284702334L224,47.45172481499861L225.16666666666669,47.73243031000614L226.33333333333334,47.079742643401126L227.5,46.92163367884465L228.66666666666666,47.38961232900749L229.83333333333331,47.594785067167L231,47.40994748310346L232.16666666666669,48.581829785858844L233.33333333333334,49.1882268702505L234.5,48.29732095906774L235.66666666666666,48.465306798242715L236.83333333333334,48.95784511647546L238,50.063692747053366L239.16666666666666,49.904838482416466L240.33333333333331,48.428341945023725L241.5,48.73615085971238L242.66666666666669,48.19653724985318L243.83333333333334,48.05240674110316L245,49.18895832019154L246.16666666666666,49.37658446231282L247.33333333333331,50.05536127622734L248.5,50.85448201910011L249.66666666666669,49.404545782742325L250.83333333333334,49.310723465145756L252,50.01607442358005L253.16666666666666,50.35811679719407L254.33333333333334,50.09240348667213L255.5,50.12239375817829" style="fill: none;" fill="none"></path></g></g></g></g><g opacity="0.2"><g><g><g><path stroke="rgb(51, 187, 238)" stroke-width="2px" d="M23.333333333333332,26.56193934143911L24.5,75.84814898194203L25.666666666666664,97.37127853096855L26.833333333333336,103.4288596701092L28,105.21639806715646L29.166666666666668,106.19490282517009L30.333333333333336,107.45329361314242L31.5,107.59919089404741L32.666666666666664,108.02437566473746L33.833333333333336,108.24354759634865L35,108.24487727861934L36.16666666666667,108.73357763801681L37.333333333333336,108.79820898765986L38.5,108.73499230273563L39.666666666666664,109.2629699379338L40.833333333333336,109.65007011752658L42,109.49544968136149L43.16666666666667,109.94641270552741L44.33333333333333,109.81246718030505L45.5,110.71928777808613L46.666666666666664,110.46285324078136L47.833333333333336,110.7978657731215L49,111.18916672303939L50.166666666666664,110.91713717389106L51.33333333333333,112.23793804613747L52.5,113.47737481774223L53.66666666666667,114.20878761319318L54.833333333333336,113.90790652289652L56,116.27059916928077L57.166666666666664,114.14852699877154L58.333333333333336,116.35327720113594L59.5,116.00976660713219L60.66666666666667,116.53769543236824L61.83333333333333,116.62556380387478L63,117.31109235027266L64.16666666666666,117.22473246300882L65.33333333333333,119.23642598660123L66.5,117.95460090221454L67.66666666666667,119.50702008329827L68.83333333333333,118.66108766967719L70,119.16587425412071L71.16666666666666,121.4591164599657L72.33333333333334,119.02393332742649L73.5,119.25203803156482L74.66666666666667,118.15633501410979L75.83333333333333,121.6978706187142L77,120.98869245517253L78.16666666666667,123.35148143941825L79.33333333333333,122.58736432096693L80.5,123.26587334462005L81.66666666666667,125.32138374521995L82.83333333333333,121.75459347242779L84,122.20399640932345L85.16666666666666,123.92597670847839L86.33333333333334,124.3549823926025L87.5,124.25528039834234L88.66666666666666,126.82804562722312L89.83333333333334,122.13435805500876L91,128.2144705320199L92.16666666666667,124.63159366787804L93.33333333333333,126.45103857856327L94.5,125.12974099855953L95.66666666666667,126.64113698901069L96.83333333333333,127.5883030040529L98,127.21164321125876L99.16666666666667,129.37811248376633L100.33333333333333,131.393066842503L101.5,131.64927573675578L102.66666666666666,131.8827796652052L103.83333333333334,131.84774931399025L105,131.8254384909206L106.16666666666666,132.0308308116065L107.33333333333334,133.1873847876125L108.5,133.3623753700786L109.66666666666667,134.2868657236099L110.83333333333333,130.59762673213746L112,134.17617755010392L113.16666666666667,135.4513655585183L114.33333333333333,134.768386531353L115.5,136.34349225144916L116.66666666666667,135.0254452500873L117.83333333333333,137.3709417713483L119,137.2902597281138L120.16666666666666,133.38396677276822L121.33333333333334,137.49628941716085L122.5,134.40353050756454L123.66666666666666,134.96823447990417L124.83333333333334,136.31750813531875L126,138.1441164802975L127.16666666666667,135.56509405236773L128.33333333333331,136.80504950994913L129.5,137.49860738669503L130.66666666666666,138.25357240830527L131.83333333333334,137.52742815833622L133,141.52534684493807L134.16666666666669,139.36240141359963L135.33333333333334,138.46392301527658L136.5,140.6678900604248L137.66666666666666,139.16371977588864L138.83333333333334,140.12743099445765L140,140.4246600373056L141.16666666666666,139.33618725877338L142.33333333333331,143.52631279966565L143.5,139.66148102251688L144.66666666666669,142.06037875594032L145.83333333333334,143.53017803584206L147,143.1260337471432L148.16666666666666,144.3370541463428L149.33333333333334,143.04196852334337L150.5,143.40578717517852L151.66666666666666,141.02056428983477L152.83333333333331,142.85685916868843L154,144.15237849521637L155.16666666666669,142.67693081294166L156.33333333333334,144.30307581922742L157.5,142.03308327272202L158.66666666666666,144.18355240154264L159.83333333333331,143.47287056149375L161,144.47808691469828L162.16666666666669,146.54711941475338L163.33333333333334,144.53412551318274L164.5,145.3955163989597L165.66666666666666,147.7306260137558L166.83333333333334,145.7215207917955L168,142.96910633055367L169.16666666666666,145.442382753902L170.33333333333331,144.69944274870554L171.5,143.9726464782291L172.66666666666669,145.63440792157914L173.83333333333334,147.79557897800868L175,145.39956332174935L176.16666666666666,145.5233153488371L177.33333333333331,145.47866146797602L178.5,145.53315279981825L179.66666666666669,145.65014139620462L180.83333333333334,142.3371812417242L182,146.87128349802228L183.16666666666666,146.46910552734798L184.33333333333334,144.71793961811065L185.5,149.02514313348135L186.66666666666666,146.77285917091368L187.83333333333331,146.05900074556138L189,146.89534818299612L190.16666666666669,147.74980274274614L191.33333333333334,149.21066567866006L192.5,147.70851885551875L193.66666666666666,149.5322656363381L194.83333333333331,149.72826153564452L196,150.07379137855105L197.16666666666669,149.26514821921455L198.33333333333334,149.28423996575674L199.5,150.8491419312159L200.66666666666666,150.70594064521788L201.83333333333334,148.42319780106013L203,152.0012020939721L204.16666666666666,148.20232841830784L205.33333333333331,151.2865348701477L206.5,147.83884676583608L207.66666666666669,153.3914241024653L208.83333333333334,150.09795569811928L210,151.72303402815925L211.16666666666666,151.24372715971205L212.33333333333331,151.93307547484503L213.5,150.9600117913352L214.66666666666669,151.46544343651664L215.83333333333334,147.51565851550632L217,151.13255546538034L218.16666666666666,151.1359430415895L219.33333333333334,151.05616210534836L220.5,152.99469673018984L221.66666666666666,151.2882931276957L222.83333333333331,150.13691282452476L224,152.64332361136542L225.16666666666669,152.46041500907475L226.33333333333334,150.1614053521686L227.5,152.43102573415968L228.66666666666666,153.08322499773237L229.83333333333331,149.83746984238093L231,150.28627973365784L232.16666666666669,152.85833213562435L233.33333333333334,153.35132703908283L234.5,153.0793685528437L235.66666666666666,152.9412955180274L236.83333333333334,152.04782815371618L238,152.75497882652283L239.16666666666666,153.25020378663805L240.33333333333331,151.73539750915103L241.5,151.63538488939074L242.66666666666669,153.0817216875288L243.83333333333334,154.11778080855476L245,153.5395953964657L246.16666666666666,155.0221903956731L247.33333333333331,151.44902424144743L248.5,153.10960765224033L249.66666666666669,153.79190828503502L250.83333333333334,157.0188442237642L252,157.8838102332221L253.16666666666666,155.20996058008404L254.33333333333334,155.93885796833038L255.5,156.61117755911084" style="fill: none;" fill="none"></path></g><g><path stroke="rgb(204, 51, 17)" stroke-width="2px" d="M23.333333333333332,7.500124203575953L24.5,9.053251704321935L25.666666666666664,9.511406734466533L26.833333333333336,9.769987811194495L28,10.255032460106715L29.166666666666668,10.363892045762785L30.333333333333336,10.778125802357959L31.5,10.641638129764097L32.666666666666664,12.069565971374491L33.833333333333336,11.832670071072023L35,12.745580833435039L36.16666666666667,14.035626118130129L37.333333333333336,13.206678014543304L38.5,13.858546139611109L39.666666666666664,15.068977522532117L40.833333333333336,16.347101821051673L42,15.844849691602896L43.16666666666667,18.284408596038798L44.33333333333333,18.5651906047397L45.5,17.910251389821337L46.666666666666664,19.063867610507526L47.833333333333336,20.94479292678831L49,18.859886291503887L50.166666666666664,18.219692996554887L51.33333333333333,19.953082921981792L52.5,21.484888619528846L53.66666666666667,21.946237817552337L54.833333333333336,21.731560431798265L56,22.449322188907182L57.166666666666664,21.286246542612684L58.333333333333336,21.901636684417703L59.5,22.866246079550816L60.66666666666667,22.294513472663L61.83333333333333,22.242181867175617L63,23.887154881371362L64.16666666666666,25.46900058873491L65.33333333333333,22.942982299804665L66.5,24.426875479168338L67.66666666666667,26.174642090479505L68.83333333333333,26.853001295937403L70,25.711593243492946L71.16666666666666,26.331906506432396L72.33333333333334,25.31340065659414L73.5,26.1208042443593L74.66666666666667,25.10295481067232L75.83333333333333,25.897570005204923L77,28.35967563226486L78.16666666666667,28.000047494252488L79.33333333333333,30.860832159466188L80.5,28.054483147939013L81.66666666666667,25.40876268513994L82.83333333333333,26.824294811036832L84,27.347224049250258L85.16666666666666,28.098304786894033L86.33333333333334,30.210792622248302L87.5,27.587062100516395L88.66666666666666,27.83549803119234L89.83333333333334,27.786554001914098L91,28.378828917821213L92.16666666666667,31.79776658079357L93.33333333333333,29.159008817884633L94.5,29.6812816399468L95.66666666666667,33.05397712940638L96.83333333333333,29.83558632236055L98,30.811864686753996L99.16666666666667,33.34121780416698L100.33333333333333,33.00544922108118L101.5,34.38493706724376L102.66666666666666,30.91952865727739L103.83333333333334,33.677859655168305L105,33.83899223772682L106.16666666666666,36.957543320337905L107.33333333333334,31.805221592797142L108.5,33.74659580357868L109.66666666666667,33.891634468714365L110.83333333333333,36.13443849266897L112,37.02761574448476L113.16666666666667,35.97529274113972L114.33333333333333,39.35895975769888L115.5,35.58580352910358L116.66666666666667,37.41521189922754L117.83333333333333,36.1768418038686L119,38.71884851476879L120.16666666666666,38.788967825783594L121.33333333333334,37.03879826249013L122.5,38.145035303115826L123.66666666666666,37.75687650595768L124.83333333333334,38.58290004115633L126,37.204256158616786L127.16666666666667,40.54033886506821L128.33333333333331,39.72591982968647L129.5,39.29468958346046L130.66666666666666,40.325380158106455L131.83333333333334,39.63227503267921L133,42.11491710789997L134.16666666666669,38.84212581231857L135.33333333333334,38.161896993001285L136.5,42.929037239498534L137.66666666666666,41.4495338431464L138.83333333333334,41.06153328916759L140,42.06341188346012L141.16666666666666,43.83956849331323L142.33333333333331,37.211845970365715L143.5,41.697383687973L144.66666666666669,41.068161920123615L145.83333333333334,42.913834172566716L147,42.385905622058424L148.16666666666666,43.28200158140392L149.33333333333334,42.233054432551036L150.5,44.63021588664583L151.66666666666666,42.81241787719724L152.83333333333331,45.491527650833106L154,47.0484647095998L155.16666666666669,47.672728191163785L156.33333333333334,46.88507569652132L157.5,48.52846627892385L158.66666666666666,47.76199492687647L159.83333333333331,43.91281750276352L161,47.04645443513656L162.16666666666669,45.08350640424091L163.33333333333334,48.03537467130024L164.5,45.00042287423874L165.66666666666666,47.96262383482189L166.83333333333334,48.3971127183702L168,49.51624950853981L169.16666666666666,45.84364216825695L170.33333333333331,49.21134420628015L171.5,47.85451443905298L172.66666666666669,47.92925210656057L173.83333333333334,47.28782803132797L175,48.60499736913044L176.16666666666666,47.86411452526514L177.33333333333331,50.557477906756915L178.5,48.695512467702216L179.66666666666669,51.53844495794506L180.83333333333334,49.86322991392345L182,49.99158271492849L183.16666666666666,50.43333320215011L184.33333333333334,51.181600727717054L185.5,49.47352385012306L186.66666666666666,51.367167229334484L187.83333333333331,50.755932436201284L189,52.09275323253206L190.16666666666669,54.165070743772695L191.33333333333334,50.80256142637462L192.5,51.78301858287386L193.66666666666666,51.87053292189701L194.83333333333331,51.153462746090334L196,55.21592267163593L197.16666666666669,56.527617967605565L198.33333333333334,52.1787847743564L199.5,52.834069779925855L200.66666666666666,53.33463984298704L201.83333333333334,52.67286686706541L203,52.35536657990347L204.16666666666666,53.070379594378984L205.33333333333331,55.96855653678045L206.5,55.57422039477027L207.66666666666669,55.61665887112085L208.83333333333334,53.784407984627585L210,56.404323087480314L211.16666666666666,53.09269774352176L212.33333333333331,54.786755447599596L213.5,54.537252840677866L214.66666666666669,54.467672728644445L215.83333333333334,55.502717921151024L217,57.97622291798059L218.16666666666666,56.35968678919471L219.33333333333334,55.34259926711187L220.5,55.190750284406846L221.66666666666666,59.20414896350435L222.83333333333331,54.69168060111997L224,56.02554752477008L225.16666666666669,58.69134728876747L226.33333333333334,53.92166929054258L227.5,58.490753545973014L228.66666666666666,58.34567971568636L229.83333333333331,56.37277408621044L231,58.039121651331556L232.16666666666669,54.90163413492836L233.33333333333334,58.102536140229944L234.5,58.55694022093878L235.66666666666666,58.49867156579757L236.83333333333334,55.657327368206424L238,56.26140605311922L239.16666666666666,57.40849913830225L240.33333333333331,55.60777380964488L241.5,58.226270584742196L242.66666666666669,56.85810591718883L243.83333333333334,62.582845972061136L245,58.52940004687837L246.16666666666666,59.124441287994365L247.33333333333331,58.67153172620136L248.5,58.27044973606531L249.66666666666669,60.16623818948532L250.83333333333334,60.54442180548772L252,60.13075069130788L253.16666666666666,60.61726055484346L254.33333333333334,58.17645328754846L255.5,60.96148049587671" style="fill: none;" fill="none"></path></g><g><path stroke="rgb(0, 119, 187)" stroke-width="2px" d="M23.333333333333332,9.681359909057598L24.5,9.655513523101787L25.666666666666664,9.953667116377066L26.833333333333336,10.256896213107604L28,9.569640224456768L29.166666666666668,10.776015893300341L30.333333333333336,10.553314992268847L31.5,10.935642235226076L32.666666666666664,11.277763988918704L33.833333333333336,10.960082015143469L35,11.16228163316513L36.16666666666667,11.534246878306044L37.333333333333336,11.1885031140645L38.5,11.468769367217996L39.666666666666664,11.745753539615192L40.833333333333336,11.911498617807997L42,11.92585772111679L43.16666666666667,12.128092504289397L44.33333333333333,12.560377705044193L45.5,12.552535876380041L46.666666666666664,12.77848369301687L47.833333333333336,12.66800651041664L49,12.70835266028507L50.166666666666664,12.97586568535696L51.33333333333333,13.925512308756483L52.5,13.253084292093886L53.66666666666667,13.032938725365504L54.833333333333336,13.177057235717752L56,14.21758233091564L57.166666666666664,14.797971425798186L58.333333333333336,14.361501572079105L59.5,15.348130212571867L60.66666666666667,14.560313613891582L61.83333333333333,15.624235256195048L63,16.143601092444495L64.16666666666666,17.102378933376713L65.33333333333333,18.074238210466156L66.5,19.866096060223025L67.66666666666667,19.161544678158204L68.83333333333333,20.604710751851364L70,20.31873016166685L71.16666666666666,19.799979715559196L72.33333333333334,21.809820475260388L73.5,22.77778228145174L74.66666666666667,23.981702250586583L75.83333333333333,24.282018500645922L77,24.003879739125537L78.16666666666667,24.56783498679264L79.33333333333333,24.781926286697367L80.5,28.748057142045745L81.66666666666667,26.751848739200152L82.83333333333333,26.07717015287609L84,27.90155576727123L85.16666666666666,25.64392377132837L86.33333333333334,26.769466479831255L87.5,30.157318149354705L88.66666666666666,28.229066400739857L89.83333333333334,26.8155445493062L91,29.428532117419756L92.16666666666667,29.212700142542495L93.33333333333333,30.371966230816284L94.5,31.038492362976054L95.66666666666667,30.557474123848777L96.83333333333333,33.040690563201885L98,31.229509462992322L99.16666666666667,30.985305072148606L100.33333333333333,31.894816536585463L101.5,34.2427057533264L102.66666666666666,32.02486312569509L103.83333333333334,32.97207749281986L105,33.735120242648634L106.16666666666666,34.582365946451795L107.33333333333334,36.089438821156804L108.5,36.31145986260305L109.66666666666667,35.55411386722986L110.83333333333333,35.034472570631216L112,37.37803061294554L113.16666666666667,36.282184874428616L114.33333333333333,35.42818160078258L115.5,37.95409439425997L116.66666666666667,37.82374304050867L117.83333333333333,37.761360062705116L119,39.072287586212134L120.16666666666666,38.69282044219968L121.33333333333334,38.02167595354713L122.5,39.009957356135025L123.66666666666666,39.45347196176315L124.83333333333334,42.489402522193025L126,39.52591803359983L127.16666666666667,39.988187386406764L128.33333333333331,40.68487935723196L129.5,38.52732152006359L130.66666666666666,41.69379098171655L131.83333333333334,40.49855680486888L133,40.040120453516614L134.16666666666669,41.633465165244175L135.33333333333334,44.12557252693174L136.5,42.74760264311893L137.66666666666666,43.726629750145776L138.83333333333334,41.90637018012998L140,44.555085541619164L141.16666666666666,45.60232718065048L142.33333333333331,44.63118292829723L143.5,47.273416180292735L144.66666666666669,43.96081207296581L145.83333333333334,42.53032303619383L147,44.60475631735058L148.16666666666666,45.360408524619174L149.33333333333334,44.05591036287941L150.5,45.60175281651813L151.66666666666666,45.817473435084L152.83333333333331,44.670058002683824L154,46.75146570544771L155.16666666666669,49.71962129826013L156.33333333333334,48.7172152267032L157.5,47.46466185379026L158.66666666666666,46.95422796588472L159.83333333333331,50.076471389346636L161,49.112975557327246L162.16666666666669,46.11431419605676L163.33333333333334,48.26012101194591L164.5,48.59084925672741L165.66666666666666,50.36302048280502L166.83333333333334,49.5769093939463L168,50.98339821518789L169.16666666666666,51.86176507759092L170.33333333333331,48.40542341571382L171.5,51.63794475258718L172.66666666666669,50.88950726212393L173.83333333333334,51.736987400266834L175,51.305522719701116L176.16666666666666,47.4632083608839L177.33333333333331,50.69942203860811L178.5,51.54517908435396L179.66666666666669,52.31465705680845L180.83333333333334,52.14925776926673L182,54.49183118735416L183.16666666666666,53.003858850479105L184.33333333333334,53.84034987894691L185.5,54.513563250647614L186.66666666666666,52.77082525592378L187.83333333333331,54.26605333561365L189,51.98154344262014L190.16666666666669,54.327457550048806L191.33333333333334,53.04368924480013L192.5,54.474330663892935L193.66666666666666,54.97976523950363L194.83333333333331,53.17898130226133L196,52.237774315092274L197.16666666666669,53.12544822078279L198.33333333333334,51.74048633278738L199.5,56.6257932082282L200.66666666666666,53.86437939876978L201.83333333333334,55.03566024695499L203,55.002206466674785L204.16666666666666,55.137533689286954L205.33333333333331,54.858967085096545L206.5,54.80248599179584L207.66666666666669,55.877566708670706L208.83333333333334,54.35898310788471L210,51.4062064077589L211.16666666666666,54.06138629616628L212.33333333333331,53.06436049270628L213.5,56.34352840232847L214.66666666666669,57.834653881072974L215.83333333333334,56.322974371592174L217,56.475878308826005L218.16666666666666,57.957497475094236L219.33333333333334,55.33257133822969L220.5,56.376231992721536L221.66666666666666,58.763125222735916L222.83333333333331,57.160719623777574L224,55.07620566601221L225.16666666666669,58.520040255864444L226.33333333333334,58.99007524617512L227.5,56.60893737920124L228.66666666666666,55.23408547210691L229.83333333333331,55.066025354809206L231,58.9234900328318L232.16666666666669,56.929069191826684L233.33333333333334,56.8878790783352L234.5,56.9295087562137L235.66666666666666,58.72816520182289L236.83333333333334,61.79079197269014L238,58.70816209178499L239.16666666666666,57.38670846642385L240.33333333333331,60.189013485590586L241.5,57.772546363618616L242.66666666666669,56.57349676789175L243.83333333333334,60.03128020095823L245,60.640240980996L246.16666666666666,60.6168678773244L247.33333333333331,60.57656275346542L248.5,57.09631464979381L249.66666666666669,58.957143082300796L250.83333333333334,59.67392021518282L252,61.30466306495664L253.16666666666666,61.31838919554815L254.33333333333334,58.62964417054916L255.5,59.157215208689344" style="fill: none;" fill="none"></path></g><g><path stroke="rgb(255, 112, 67)" stroke-width="2px" d="M23.333333333333332,8.507031414455813L24.5,8.828487781100767L25.666666666666664,8.71482229148014L26.833333333333336,9.53243549474077L28,9.805891430324953L29.166666666666668,10.021524136013431L30.333333333333336,10.46778162341644L31.5,10.335994359334277L32.666666666666664,11.105267201741503L33.833333333333336,11.477994358486574L35,11.403069143507194L36.16666666666667,12.6979789407518L37.333333333333336,12.811105231391029L38.5,14.015288939158095L39.666666666666664,14.057463676876468L40.833333333333336,13.712223946465357L42,13.402407244788245L43.16666666666667,14.949263626946314L44.33333333333333,15.38051731660629L45.5,14.053302467346171L46.666666666666664,16.206394330342576L47.833333333333336,16.143952743954102L49,15.021082586924209L50.166666666666664,17.69111389075382L51.33333333333333,16.96964221021862L52.5,17.066088497585696L53.66666666666667,17.85728095075817L54.833333333333336,17.6676704567803L56,17.21547005886499L57.166666666666664,16.46508090252344L58.333333333333336,16.82314419131807L59.5,18.697364685482423L60.66666666666667,20.322569023980005L61.83333333333333,19.294046966976566L63,19.585437129550492L64.16666666666666,20.715064856423243L65.33333333333333,19.816366675906696L66.5,21.007908511903533L67.66666666666667,20.966571876949708L68.83333333333333,22.552895280202197L70,17.562315664503288L71.16666666666666,24.071695732752456L72.33333333333334,23.155614245944538L73.5,21.22471925014917L74.66666666666667,22.074397210227087L75.83333333333333,24.063871486663796L77,20.648456199645974L78.16666666666667,23.686338425954148L79.33333333333333,21.871318463431432L80.5,22.816417060640106L81.66666666666667,24.30091390842859L82.83333333333333,22.775818893856446L84,21.20243040529884L85.16666666666666,21.47414566591049L86.33333333333334,19.899092693540762L87.5,23.34001443672178L88.66666666666666,20.160035696241568L89.83333333333334,19.768735478930985L91,22.061714312447414L92.16666666666667,24.2212179546356L93.33333333333333,25.244600038740348L94.5,25.6988869022793L95.66666666666667,21.913065358479784L96.83333333333333,26.345398202684173L98,25.712507537417924L99.16666666666667,27.439427075068128L100.33333333333333,28.06836166085134L101.5,26.420962251239335L102.66666666666666,27.717724079767834L103.83333333333334,29.511422239091644L105,27.00173230192394L106.16666666666666,27.100153698603286L107.33333333333334,28.671156817754074L108.5,27.54595989990232L109.66666666666667,31.077642897711826L110.83333333333333,30.69821677970884L112,26.6215384114583L113.16666666666667,30.071937162823122L114.33333333333333,33.27033658154804L115.5,29.031570310804554L116.66666666666667,27.58668700557283L117.83333333333333,30.787366298251666L119,31.901890592786977L120.16666666666666,32.88242394044662L121.33333333333334,30.665483885023306L122.5,32.93583980475528L123.66666666666666,31.922977961646154L124.83333333333334,30.9798251694573L126,33.29508698696558L127.16666666666667,32.05559746763439L128.33333333333331,32.02605874082775L129.5,34.257510281880684L130.66666666666666,34.76266353628368L131.83333333333334,29.625421797646386L133,34.909272911495606L134.16666666666669,34.144237469779085L135.33333333333334,31.979904480192374L136.5,34.991008444044304L137.66666666666666,33.13395440440706L138.83333333333334,36.679896870930975L140,36.51266899553932L141.16666666666666,37.020119706471746L142.33333333333331,37.528642954508435L143.5,36.553431266360796L144.66666666666669,32.80719396082557L145.83333333333334,35.38438926612003L147,37.0420217346615L148.16666666666666,35.02201824633278L149.33333333333334,37.629344225141715L150.5,36.539306597391736L151.66666666666666,39.36043083318073L152.83333333333331,37.503148220062236L154,38.326335099750075L155.16666666666669,39.90981012577478L156.33333333333334,39.23024358346725L157.5,39.960987142139L158.66666666666666,40.050605529361285L159.83333333333331,37.471482001622505L161,38.932470945994034L162.16666666666669,41.30948862944706L163.33333333333334,36.77013064829506L164.5,38.235169445885525L165.66666666666666,37.31891213332279L166.83333333333334,39.23242382282678L168,40.863705871582006L169.16666666666666,42.56988383102415L170.33333333333331,42.73940916294519L171.5,42.162190792507566L172.66666666666669,40.10727417013378L173.83333333333334,39.97264438968233L175,37.630891491783956L176.16666666666666,41.18861428387958L177.33333333333331,39.55999306488035L178.5,43.85606680997211L179.66666666666669,40.19400315411884L180.83333333333334,45.765106664445646L182,41.10185599560205L183.16666666666666,42.0900963721805L184.33333333333334,41.1542403488159L185.5,43.22379739570616L186.66666666666666,40.995205953598L187.83333333333331,42.33531469154356L189,44.11233284759519L190.16666666666669,43.532359873665676L191.33333333333334,43.95253654077316L192.5,46.48173141500683L193.66666666666666,44.67240234608118L194.83333333333331,46.954022835837435L196,45.24085873307119L197.16666666666669,47.377944591522194L198.33333333333334,45.42846481344432L199.5,45.353750589370705L200.66666666666666,41.646429384231546L201.83333333333334,46.16853299797903L203,44.451102190229605L204.16666666666666,45.870332517835806L205.33333333333331,47.04254524252147L206.5,45.52439534526399L207.66666666666669,48.31209510506521L208.83333333333334,42.545520242267166L210,44.74165425003896L211.16666666666666,46.27206506326461L212.33333333333331,46.602078283309915L213.5,48.88386873796249L214.66666666666669,46.10885187594093L215.83333333333334,46.891557806014994L217,46.46749538972641L218.16666666666666,46.22727638265819L219.33333333333334,47.37923984124923L220.5,48.676587755627075L221.66666666666666,46.858162634319704L222.83333333333331,47.896882585101636L224,47.33110461044309L225.16666666666669,48.15348855251734L226.33333333333334,46.10071114349363L227.5,46.684470232009865L228.66666666666666,48.09158030425174L229.83333333333331,47.90254417440624L231,47.13269110700817L232.16666666666669,50.33965323999191L233.33333333333334,50.09782249683801L234.5,46.9609620922936L235.66666666666666,48.71728555700511L236.83333333333334,49.696652593824574L238,51.72246419292024L239.16666666666666,49.66655708546106L240.33333333333331,46.213597138934645L241.5,49.19786423174537L242.66666666666669,47.38711683506433L243.83333333333334,47.83621097797815L245,50.893785688824096L246.16666666666666,49.658023675494704L247.33333333333331,51.07352649709911L248.5,52.05316313340927L249.66666666666669,47.229641428205674L250.83333333333334,49.16998998875086L252,51.07410086123146L253.16666666666666,50.871180357615124L254.33333333333334,49.69383352088926L255.5,50.16737916543747" style="fill: none;" fill="none"></path></g></g></g></g></g></g><g transform="translate(50, 176)" clip-path="url(#clip_1)"><clipPath id="clip_1"><rect width="279" height="22"></rect></clipPath><g><g><line x1="0" y1="0" x2="0" y2="5" style="visibility: inherit;" fill="rgb(0, 0, 0)" stroke="rgb(204, 204, 204)" stroke-width="1px"></line><line x1="23.333333333333332" y1="0" x2="23.333333333333332" y2="5" style="visibility: inherit;" fill="rgb(0, 0, 0)" stroke="rgb(204, 204, 204)" stroke-width="1px"></line><line x1="46.666666666666664" y1="0" x2="46.666666666666664" y2="5" style="visibility: inherit;" fill="rgb(0, 0, 0)" stroke="rgb(204, 204, 204)" stroke-width="1px"></line><line x1="70" y1="0" x2="70" y2="5" style="visibility: inherit;" fill="rgb(0, 0, 0)" stroke="rgb(204, 204, 204)" stroke-width="1px"></line><line x1="93.33333333333333" y1="0" x2="93.33333333333333" y2="5" style="visibility: inherit;" fill="rgb(0, 0, 0)" stroke="rgb(204, 204, 204)" stroke-width="1px"></line><line x1="116.66666666666667" y1="0" x2="116.66666666666667" y2="5" style="visibility: inherit;" fill="rgb(0, 0, 0)" stroke="rgb(204, 204, 204)" stroke-width="1px"></line><line x1="140" y1="0" x2="140" y2="5" style="visibility: inherit;" fill="rgb(0, 0, 0)" stroke="rgb(204, 204, 204)" stroke-width="1px"></line><line x1="163.33333333333334" y1="0" x2="163.33333333333334" y2="5" style="visibility: inherit;" fill="rgb(0, 0, 0)" stroke="rgb(204, 204, 204)" stroke-width="1px"></line><line x1="186.66666666666666" y1="0" x2="186.66666666666666" y2="5" style="visibility: inherit;" fill="rgb(0, 0, 0)" stroke="rgb(204, 204, 204)" stroke-width="1px"></line><line x1="210" y1="0" x2="210" y2="5" style="visibility: inherit;" fill="rgb(0, 0, 0)" stroke="rgb(204, 204, 204)" stroke-width="1px"></line><line x1="233.33333333333334" y1="0" x2="233.33333333333334" y2="5" style="visibility: inherit;" fill="rgb(0, 0, 0)" stroke="rgb(204, 204, 204)" stroke-width="1px"></line><line x1="256.66666666666663" y1="0" x2="256.66666666666663" y2="5" style="visibility: inherit;" fill="rgb(0, 0, 0)" stroke="rgb(204, 204, 204)" stroke-width="1px"></line><line x1="280" y1="0" x2="280" y2="5" style="visibility: inherit;" fill="rgb(0, 0, 0)" stroke="rgb(204, 204, 204)" stroke-width="1px"></line></g><g transform="translate(0, 8)"><text x="0" y="0" dx="0em" dy="0.95em" style="text-anchor: middle; visibility: hidden; font-family: Roboto, sans-serif; font-size: 12px; font-weight: 200;" fill="rgb(33, 33, 33)" stroke="none" stroke-width="1px">-20</text><text x="23.333333333333332" y="0" dx="0em" dy="0.95em" style="text-anchor: middle; visibility: inherit; font-family: Roboto, sans-serif; font-size: 12px; font-weight: 200;" fill="rgb(33, 33, 33)" stroke="none" stroke-width="1px">0</text><text x="46.666666666666664" y="0" dx="0em" dy="0.95em" style="text-anchor: middle; visibility: hidden; font-family: Roboto, sans-serif; font-size: 12px; font-weight: 200;" fill="rgb(33, 33, 33)" stroke="none" stroke-width="1px">20</text><text x="70" y="0" dx="0em" dy="0.95em" style="text-anchor: middle; visibility: inherit; font-family: Roboto, sans-serif; font-size: 12px; font-weight: 200;" fill="rgb(33, 33, 33)" stroke="none" stroke-width="1px">40</text><text x="93.33333333333333" y="0" dx="0em" dy="0.95em" style="text-anchor: middle; visibility: hidden; font-family: Roboto, sans-serif; font-size: 12px; font-weight: 200;" fill="rgb(33, 33, 33)" stroke="none" stroke-width="1px">60</text><text x="116.66666666666667" y="0" dx="0em" dy="0.95em" style="text-anchor: middle; visibility: inherit; font-family: Roboto, sans-serif; font-size: 12px; font-weight: 200;" fill="rgb(33, 33, 33)" stroke="none" stroke-width="1px">80</text><text x="140" y="0" dx="0em" dy="0.95em" style="text-anchor: middle; visibility: hidden; font-family: Roboto, sans-serif; font-size: 12px; font-weight: 200;" fill="rgb(33, 33, 33)" stroke="none" stroke-width="1px">100</text><text x="163.33333333333334" y="0" dx="0em" dy="0.95em" style="text-anchor: middle; visibility: inherit; font-family: Roboto, sans-serif; font-size: 12px; font-weight: 200;" fill="rgb(33, 33, 33)" stroke="none" stroke-width="1px">120</text><text x="186.66666666666666" y="0" dx="0em" dy="0.95em" style="text-anchor: middle; visibility: hidden; font-family: Roboto, sans-serif; font-size: 12px; font-weight: 200;" fill="rgb(33, 33, 33)" stroke="none" stroke-width="1px">140</text><text x="210" y="0" dx="0em" dy="0.95em" style="text-anchor: middle; visibility: inherit; font-family: Roboto, sans-serif; font-size: 12px; font-weight: 200;" fill="rgb(33, 33, 33)" stroke="none" stroke-width="1px">160</text><text x="233.33333333333334" y="0" dx="0em" dy="0.95em" style="text-anchor: middle; visibility: hidden; font-family: Roboto, sans-serif; font-size: 12px; font-weight: 200;" fill="rgb(33, 33, 33)" stroke="none" stroke-width="1px">180</text><text x="256.66666666666663" y="0" dx="0em" dy="0.95em" style="text-anchor: middle; visibility: inherit; font-family: Roboto, sans-serif; font-size: 12px; font-weight: 200;" fill="rgb(33, 33, 33)" stroke="none" stroke-width="1px">200</text><text x="280" y="0" dx="0em" dy="0.95em" style="text-anchor: middle; visibility: hidden; font-family: Roboto, sans-serif; font-size: 12px; font-weight: 200;" fill="rgb(33, 33, 33)" stroke="none" stroke-width="1px">220</text></g><line x1="0" y1="0" x2="280" y2="0" fill="rgb(0, 0, 0)" stroke="rgb(204, 204, 204)" stroke-width="1px"></line></g></g></g></g></svg>