<svg viewBox="0 0 330 199.9921875" xmlns="http://www.w3.org/2000/svg"><g><g><g><g><g><line x1="50" y1="176.992" x2="45" y2="176.992" style="visibility: inherit;" fill="rgb(0, 0, 0)" stroke="rgb(204, 204, 204)" stroke-width="1px"></line><line x1="50" y1="154.868" x2="45" y2="154.868" style="visibility: inherit;" fill="rgb(0, 0, 0)" stroke="rgb(204, 204, 204)" stroke-width="1px"></line><line x1="50" y1="132.744" x2="45" y2="132.744" style="visibility: inherit;" fill="rgb(0, 0, 0)" stroke="rgb(204, 204, 204)" stroke-width="1px"></line><line x1="50" y1="110.61999999999999" x2="45" y2="110.61999999999999" style="visibility: inherit;" fill="rgb(0, 0, 0)" stroke="rgb(204, 204, 204)" stroke-width="1px"></line><line x1="50" y1="88.496" x2="45" y2="88.496" style="visibility: inherit;" fill="rgb(0, 0, 0)" stroke="rgb(204, 204, 204)" stroke-width="1px"></line><line x1="50" y1="66.372" x2="45" y2="66.372" style="visibility: inherit;" fill="rgb(0, 0, 0)" stroke="rgb(204, 204, 204)" stroke-width="1px"></line><line x1="50" y1="44.247999999999976" x2="45" y2="44.247999999999976" style="visibility: inherit;" fill="rgb(0, 0, 0)" stroke="rgb(204, 204, 204)" stroke-width="1px"></line><line x1="50" y1="22.12400000000002" x2="45" y2="22.12400000000002" style="visibility: inherit;" fill="rgb(0, 0, 0)" stroke="rgb(204, 204, 204)" stroke-width="1px"></line><line x1="50" y1="0" x2="45" y2="0" style="visibility: inherit;" fill="rgb(0, 0, 0)" stroke="rgb(204, 204, 204)" stroke-width="1px"></line></g><g transform="translate(40, 0)"><text x="0" y="176.992" dx="0em" dy="0.3em" style="text-anchor: end; visibility: hidden; font-family: Roboto, sans-serif; font-size: 12px; font-weight: 200;" fill="rgb(33, 33, 33)" stroke="none" stroke-width="1px">-0.4</text><text x="0" y="154.868" dx="0em" dy="0.3em" style="text-anchor: end; visibility: inherit; font-family: Roboto, sans-serif; font-size: 12px; font-weight: 200;" fill="rgb(33, 33, 33)" stroke="none" stroke-width="1px">-0.2</text><text x="0" y="132.744" dx="0em" dy="0.3em" style="text-anchor: end; visibility: hidden; font-family: Roboto, sans-serif; font-size: 12px; font-weight: 200;" fill="rgb(33, 33, 33)" stroke="none" stroke-width="1px">0</text><text x="0" y="110.61999999999999" dx="0em" dy="0.3em" style="text-anchor: end; visibility: inherit; font-family: Roboto, sans-serif; font-size: 12px; font-weight: 200;" fill="rgb(33, 33, 33)" stroke="none" stroke-width="1px">0.2</text><text x="0" y="88.496" dx="0em" dy="0.3em" style="text-anchor: end; visibility: hidden; font-family: Roboto, sans-serif; font-size: 12px; font-weight: 200;" fill="rgb(33, 33, 33)" stroke="none" stroke-width="1px">0.4</text><text x="0" y="66.372" dx="0em" dy="0.3em" style="text-anchor: end; visibility: inherit; font-family: Roboto, sans-serif; font-size: 12px; font-weight: 200;" fill="rgb(33, 33, 33)" stroke="none" stroke-width="1px">0.6</text><text x="0" y="44.247999999999976" dx="0em" dy="0.3em" style="text-anchor: end; visibility: hidden; font-family: Roboto, sans-serif; font-size: 12px; font-weight: 200;" fill="rgb(33, 33, 33)" stroke="none" stroke-width="1px">0.8</text><text x="0" y="22.12400000000002" dx="0em" dy="0.3em" style="text-anchor: end; visibility: inherit; font-family: Roboto, sans-serif; font-size: 12px; font-weight: 200;" fill="rgb(33, 33, 33)" stroke="none" stroke-width="1px">1</text><text x="0" y="0" dx="0em" dy="0.3em" style="text-anchor: end; visibility: hidden; font-family: Roboto, sans-serif; font-size: 12px; font-weight: 200;" fill="rgb(33, 33, 33)" stroke="none" stroke-width="1px">1.2</text></g><line x1="50" y1="0" x2="50" y2="176.992" fill="rgb(0, 0, 0)" stroke="rgb(204, 204, 204)" stroke-width="1px"></line></g></g><g transform="translate(50, 0)" clip-path="url(#clip_0)"><clipPath id="clip_0"><rect width="279" height="176"></rect></clipPath><g><g><g><line x1="0" y1="0" x2="0" y2="176.992" fill="rgb(0, 0, 0)" stroke="rgb(66, 66, 66)" stroke-width="1px" opacity="0.25"></line><line x1="23.333333333333332" y1="0" x2="23.333333333333332" y2="176.992" fill="rgb(0, 0, 0)" stroke="rgb(66, 66, 66)" stroke-width="1px" opacity="0.25"></line><line x1="46.666666666666664" y1="0" x2="46.666666666666664" y2="176.992" fill="rgb(0, 0, 0)" stroke="rgb(66, 66, 66)" stroke-width="1px" opacity="0.25"></line><line x1="70" y1="0" x2="70" y2="176.992" fill="rgb(0, 0, 0)" stroke="rgb(66, 66, 66)" stroke-width="1px" opacity="0.25"></line><line x1="93.33333333333333" y1="0" x2="93.33333333333333" y2="176.992" fill="rgb(0, 0, 0)" stroke="rgb(66, 66, 66)" stroke-width="1px" opacity="0.25"></line><line x1="116.66666666666667" y1="0" x2="116.66666666666667" y2="176.992" fill="rgb(0, 0, 0)" stroke="rgb(66, 66, 66)" stroke-width="1px" opacity="0.25"></line><line x1="140" y1="0" x2="140" y2="176.992" fill="rgb(0, 0, 0)" stroke="rgb(66, 66, 66)" stroke-width="1px" opacity="0.25"></line><line x1="163.33333333333334" y1="0" x2="163.33333333333334" y2="176.992" fill="rgb(0, 0, 0)" stroke="rgb(66, 66, 66)" stroke-width="1px" opacity="0.25"></line><line x1="186.66666666666666" y1="0" x2="186.66666666666666" y2="176.992" fill="rgb(0, 0, 0)" stroke="rgb(66, 66, 66)" stroke-width="1px" opacity="0.25"></line><line x1="210" y1="0" x2="210" y2="176.992" fill="rgb(0, 0, 0)" stroke="rgb(66, 66, 66)" stroke-width="1px" opacity="0.25"></line><line x1="233.33333333333334" y1="0" x2="233.33333333333334" y2="176.992" fill="rgb(0, 0, 0)" stroke="rgb(66, 66, 66)" stroke-width="1px" opacity="0.25"></line><line x1="256.66666666666663" y1="0" x2="256.66666666666663" y2="176.992" fill="rgb(0, 0, 0)" stroke="rgb(66, 66, 66)" stroke-width="1px" opacity="0.25"></line><line x1="280" y1="0" x2="280" y2="176.992" fill="rgb(0, 0, 0)" stroke="rgb(66, 66, 66)" stroke-width="1px" opacity="0.25"></line></g><g><line x1="0" y1="176.992" x2="280" y2="176.992" fill="rgb(0, 0, 0)" stroke="rgb(66, 66, 66)" stroke-width="1px" opacity="0.25"></line><line x1="0" y1="154.868" x2="280" y2="154.868" fill="rgb(0, 0, 0)" stroke="rgb(66, 66, 66)" stroke-width="1px" opacity="0.25"></line><line x1="0" y1="132.744" x2="280" y2="132.744" fill="rgb(0, 0, 0)" stroke="rgb(66, 66, 66)" stroke-width="1px" opacity="0.25"></line><line x1="0" y1="110.61999999999999" x2="280" y2="110.61999999999999" fill="rgb(0, 0, 0)" stroke="rgb(66, 66, 66)" stroke-width="1px" opacity="0.25"></line><line x1="0" y1="88.496" x2="280" y2="88.496" fill="rgb(0, 0, 0)" stroke="rgb(66, 66, 66)" stroke-width="1px" opacity="0.25"></line><line x1="0" y1="66.372" x2="280" y2="66.372" fill="rgb(0, 0, 0)" stroke="rgb(66, 66, 66)" stroke-width="1px" opacity="0.25"></line><line x1="0" y1="44.247999999999976" x2="280" y2="44.247999999999976" fill="rgb(0, 0, 0)" stroke="rgb(66, 66, 66)" stroke-width="1px" opacity="0.25"></line><line x1="0" y1="22.12400000000002" x2="280" y2="22.12400000000002" fill="rgb(0, 0, 0)" stroke="rgb(66, 66, 66)" stroke-width="1px" opacity="0.25"></line><line x1="0" y1="0" x2="280" y2="0" fill="rgb(0, 0, 0)" stroke="rgb(66, 66, 66)" stroke-width="1px" opacity="0.25"></line></g></g></g><g><g><line x1="0" y1="132.744" x2="280" y2="132.744" fill="rgb(0, 0, 0)" stroke="rgb(153, 153, 153)" stroke-width="1.5px"></line></g></g><g><g><line x1="23.333333333333332" y1="0" x2="23.333333333333332" y2="176.992" fill="rgb(0, 0, 0)" stroke="rgb(153, 153, 153)" stroke-width="1.5px"></line></g></g><g><g><g><g><g><path stroke="rgb(51, 187, 238)" stroke-width="2px" d="M23.333333333333332,23.057977618217485L24.5,71.21234344051778L25.666666666666664,92.39966766676247L26.833333333333336,102.84929196242416L28,109.06459079406143L29.166666666666668,113.13243051583785L30.333333333333336,116.25427230717803L31.5,118.2707901740318L32.666666666666664,119.52616544416729L33.833333333333336,120.32062586273231L35,120.97323470586338L36.16666666666667,121.39470140757315L37.333333333333336,121.90283070319094L38.5,122.25822633563463L39.666666666666664,122.41040368983658L40.833333333333336,122.889819371982L42,123.44469392064252L43.16666666666667,124.01673706039156L44.33333333333333,123.76929259739248L45.5,124.0676060265736L46.666666666666664,124.61237061033941L47.833333333333336,124.85656658530846L49,124.951109367912L50.166666666666664,125.42567996224855L51.33333333333333,126.13282999485304L52.5,126.25049385767956L53.66666666666667,127.14093810566547L54.833333333333336,127.08480120879777L56,126.76538125659742L57.166666666666664,127.21822347767745L58.333333333333336,127.300680593065L59.5,127.86567919624599L60.66666666666667,128.60471389148827L61.83333333333333,128.81348534681638L63,128.6232099925009L64.16666666666666,129.14655793125578L65.33333333333333,129.13718867511403L66.5,130.02367681206232L67.66666666666667,129.6124667975501L68.83333333333333,129.79540184631338L70,129.3296484209163L71.16666666666666,129.67835898536313L72.33333333333334,130.00857739952127L73.5,130.28373372759472L74.66666666666667,130.3562260884095L75.83333333333333,130.87575415898516L77,131.28155773910254L78.16666666666667,130.813034633199L79.33333333333333,130.90033821280247L80.5,130.64501332526564L81.66666666666667,131.69042270059592L82.83333333333333,132.63194385414073L84,132.43255849441178L85.16666666666666,132.92760768186375L86.33333333333334,132.92372389106535L87.5,133.25572404687614L88.66666666666666,133.49825161737067L89.83333333333334,133.35599397507895L91,134.23059808602096L92.16666666666667,134.28989936708606L93.33333333333333,134.24881630165248L94.5,134.31752985577356L95.66666666666667,134.71705009319825L96.83333333333333,134.3985922230896L98,134.51206828544832L99.16666666666667,134.47040131636737L100.33333333333333,134.37784180568474L101.5,135.41307332606803L102.66666666666666,135.87926150612645L103.83333333333334,136.5331016750551L105,136.53036206394535L106.16666666666666,136.386291688568L107.33333333333334,136.99330420729316L108.5,137.02622649072285L109.66666666666667,136.54017367011116L110.83333333333333,136.7469122225154L112,137.0340805001979L113.16666666666667,137.67185757002383L114.33333333333333,138.23010961951107L115.5,137.3466791110026L116.66666666666667,138.06441006093547L117.83333333333333,137.96409941223456L119,138.2324191049826L120.16666666666666,137.4643360387499L121.33333333333334,138.45823091148227L122.5,139.46882375308806L123.66666666666666,139.60377269718012L124.83333333333334,139.94934806626415L126,140.67971963302716L127.16666666666667,141.10445563878076L128.33333333333331,141.38123172492655L129.5,140.69206848756593L130.66666666666666,141.52432612807823L131.83333333333334,141.6592183185057L133,142.67799831867433L134.16666666666669,142.97891155365835L135.33333333333334,141.7625905766471L136.5,142.93290461450718L137.66666666666666,143.4110777287835L138.83333333333334,144.27315236698115L140,144.20129372767522L141.16666666666666,144.17998148714253L142.33333333333331,144.5389894596979L143.5,144.2832271548417L144.66666666666669,144.09379285543602L145.83333333333334,144.59444218811655L147,144.70394798560895L148.16666666666666,144.648148394942L149.33333333333334,145.79931664173589L150.5,145.88649491721858L151.66666666666666,146.60934251958412L152.83333333333331,145.52710548925566L154,146.07910493865114L155.16666666666669,147.64862276178897L156.33333333333334,146.44418769900977L157.5,146.80749982035744L158.66666666666666,146.6147478001868L159.83333333333331,145.50802812750072L161,146.13108832198935L162.16666666666669,147.58446138605214L163.33333333333334,147.7438621215864L164.5,148.99661427285935L165.66666666666666,148.99282647182145L166.83333333333334,149.15748056498524L168,149.0308674801788L169.16666666666666,149.24006240993748L170.33333333333331,148.91938634983308L171.5,149.6078710420585L172.66666666666669,149.3612796694789L173.83333333333334,149.73137609162055L175,150.64856590172124L176.16666666666666,150.3026108598499L177.33333333333331,148.29066240003039L178.5,148.63457219842869L179.66666666666669,149.56650327479718L180.83333333333334,151.0029284800999L182,150.44678757247405L183.16666666666666,150.83785349245713L184.33333333333334,151.0972732669821L185.5,150.91308339847984L186.66666666666666,151.2144329562775L187.83333333333331,152.80824812749574L189,151.85984386167257L190.16666666666669,152.96096377335388L191.33333333333334,152.52465641855238L192.5,152.72909135732078L193.66666666666666,152.8051833309473L194.83333333333331,152.80902077694782L196,152.87527261004476L197.16666666666669,152.68361613727586L198.33333333333334,153.3543444745122L199.5,153.5154645844685L200.66666666666666,153.7581054338209L201.83333333333334,153.18550657081556L203,152.81543822374317L204.16666666666666,153.37386444415074L205.33333333333331,153.43723773659124L206.5,154.32843904421838L207.66666666666669,154.2684911917574L208.83333333333334,154.45768340340416L210,153.82956569663978L211.16666666666666,154.60240759520707L212.33333333333331,155.63692159667596L213.5,155.1531710681378L214.66666666666669,154.4370178053772L215.83333333333334,154.02231411418887L217,154.6460434715603L218.16666666666666,154.15793290223206L219.33333333333334,154.4957177186103L220.5,154.7804436310346L221.66666666666666,155.33927694856015L222.83333333333331,155.60647764620117L224,156.18257608433325L225.16666666666669,156.79498831198072L226.33333333333334,156.8480710672227L227.5,156.15978700056596L228.66666666666666,156.31870411390616L229.83333333333331,156.1031962056789L231,156.6896668996473L232.16666666666669,157.33757944701074L233.33333333333334,157.00852470513559L234.5,157.077327437713L235.66666666666666,156.44141794089927L236.83333333333334,156.37066118765148L238,156.58210567953748L239.16666666666666,156.71789860867597L240.33333333333331,157.04041169559443L241.5,158.19275651008775L242.66666666666669,157.05162100784116L243.83333333333334,157.18989325075228L245,158.11763187518642L246.16666666666666,157.25828013591126L247.33333333333331,158.3051787286291L248.5,158.3178725771242L249.66666666666669,157.26718553613028L250.83333333333334,158.73945658997536L252,157.34727636952306L253.16666666666666,158.06866441473426L254.33333333333334,159.04119022036232L255.5,159.76345727944755" style="fill: none;" fill="none"></path></g><g><path stroke="rgb(204, 51, 17)" stroke-width="2px" d="M23.333333333333332,4.554681781768818L24.5,6.950648353338261L25.666666666666664,8.65948294125773L26.833333333333336,9.59512507516848L28,10.014136259106754L29.166666666666668,10.23711880254269L30.333333333333336,10.616404633619187L31.5,11.008955621133849L32.666666666666664,11.507062700639278L33.833333333333336,11.82893187237066L35,12.796286485658905L36.16666666666667,13.617072632403238L37.333333333333336,13.820257799998457L38.5,14.333155558044409L39.666666666666664,15.510929912467592L40.833333333333336,15.959647666260123L42,16.0012208997391L43.16666666666667,16.401139807697664L44.33333333333333,16.89562009707482L45.5,17.628913705504583L46.666666666666664,18.416551153064265L47.833333333333336,18.18806440282556L49,18.155937807194235L50.166666666666664,18.507380064992297L51.33333333333333,19.39486773847134L52.5,19.05278410717332L53.66666666666667,20.591054161320585L54.833333333333336,20.707501953640055L56,20.79871759602132L57.166666666666664,20.717827250507323L58.333333333333336,20.24212081017675L59.5,20.07943040601178L60.66666666666667,20.56383988790862L61.83333333333333,20.22830145940935L63,21.338162953154615L64.16666666666666,22.07553454555058L65.33333333333333,21.753700957768107L66.5,21.826570668391533L67.66666666666667,22.707601993814304L68.83333333333333,23.004713653541522L70,22.15935299422702L71.16666666666666,22.047021903713258L72.33333333333334,22.288337230680398L73.5,23.147124926810037L74.66666666666667,22.60979820146016L75.83333333333333,23.09932154557092L77,22.941354133105232L78.16666666666667,23.73077327442506L79.33333333333333,23.762411998560513L80.5,23.845494270212402L81.66666666666667,24.17900508168319L82.83333333333333,24.404269596690487L84,24.67362379653176L85.16666666666666,23.84375576423869L86.33333333333334,23.600445583005193L87.5,24.752575747192008L88.66666666666666,23.999209663498313L89.83333333333334,25.32465652500879L91,25.20113573152594L92.16666666666667,26.443559034435665L93.33333333333333,26.55990934463067L94.5,26.512015616582183L95.66666666666667,26.431249022392247L96.83333333333333,26.89441827587352L98,27.28640788548034L99.16666666666667,27.88655525832678L100.33333333333333,28.369292695553952L101.5,28.59221719610206L102.66666666666666,29.88337833430476L103.83333333333334,27.892429960978664L105,28.515075497968585L106.16666666666666,30.255535754503946L107.33333333333334,29.96772346228487L108.5,29.336563398278543L109.66666666666667,29.839131537673925L110.83333333333333,29.717551258896627L112,30.090732812318095L113.16666666666667,30.100000695939617L114.33333333333333,30.90787808174834L115.5,30.94728974491921L116.66666666666667,30.855988897362757L117.83333333333333,31.323247362637144L119,31.78392318202474L120.16666666666666,31.945597093876714L121.33333333333334,32.25621654614003L122.5,32.893721060038764L123.66666666666666,33.18925067963669L124.83333333333334,32.54018037079851L126,33.258722641081114L127.16666666666667,33.37730981193213L128.33333333333331,32.84939563571351L129.5,33.82855854794348L130.66666666666666,34.26818859375097L131.83333333333334,34.74755185397016L133,35.113428974434996L134.16666666666669,35.903981034067456L135.33333333333334,35.114273665587405L136.5,36.13968468618413L137.66666666666666,36.07185615329753L138.83333333333334,36.13786768415458L140,36.20248229977422L141.16666666666666,36.71860216911396L142.33333333333331,37.265161492775455L143.5,37.10419159752761L144.66666666666669,36.53751137279651L145.83333333333334,36.88409929394234L147,37.68936466345493L148.16666666666666,37.54444879427734L149.33333333333334,37.41333887619484L150.5,37.44875834547702L151.66666666666666,37.493261224861286L152.83333333333331,38.04589470851144L154,37.88048835756611L155.16666666666669,38.10480173837085L156.33333333333334,38.63711553637348L157.5,39.055136788846056L158.66666666666666,39.61309163923321L159.83333333333331,39.10008199102437L161,39.77881956710072L162.16666666666669,40.222529253421165L163.33333333333334,39.12578282524221L164.5,39.5895920759742L165.66666666666666,39.54933410643961L166.83333333333334,41.07729436216013L168,40.660228207548016L169.16666666666666,41.672431500315376L170.33333333333331,42.0352282031296L171.5,42.898799497694874L172.66666666666669,40.21106996808712L173.83333333333334,41.15484026271263L175,41.553544011677246L176.16666666666666,41.30313549037276L177.33333333333331,41.27064703948198L178.5,42.55529403223333L179.66666666666669,41.9735751368388L180.83333333333334,41.88591405888702L182,41.16996991656009L183.16666666666666,42.06587203763597L184.33333333333334,41.834454316846575L185.5,42.88450842709066L186.66666666666666,43.32508160940837L187.83333333333331,41.90607677536032L189,42.32226240118036L190.16666666666669,42.89902814230734L191.33333333333334,42.87491195498354L192.5,42.53996024366884L193.66666666666666,43.02335668142243L194.83333333333331,44.39266841215849L196,43.058057625645155L197.16666666666669,43.99713271219357L198.33333333333334,45.195552257626204L199.5,43.86927396874961L200.66666666666666,44.124494895203945L201.83333333333334,42.98465671886445L203,43.68015960720442L204.16666666666666,43.6372136905388L205.33333333333331,44.22788772035813L206.5,43.49588941493737L207.66666666666669,43.97929300269546L208.83333333333334,43.45310628686586L210,44.66479434758566L211.16666666666666,44.95778306654777L212.33333333333331,46.13947016637138L213.5,45.74645846376784L214.66666666666669,44.958082084333704L215.83333333333334,45.17139121141186L217,45.72591062797398L218.16666666666666,46.671263384039946L219.33333333333334,46.82627001725182L220.5,46.97042346750821L221.66666666666666,47.35102894813494L222.83333333333331,47.151428832809174L224,45.94012841174604L225.16666666666669,46.1418980362749L226.33333333333334,46.37580038477993L227.5,47.40604868665942L228.66666666666666,46.692802854249535L229.83333333333331,47.17820069982389L231,47.74144097071755L232.16666666666669,47.16213645647684L233.33333333333334,48.15044003037644L234.5,47.17838921906968L235.66666666666666,47.127238235821864L236.83333333333334,48.238111304110596L238,48.66783477677484L239.16666666666666,47.911928767618996L240.33333333333331,48.671358692418025L241.5,48.71594834037451L242.66666666666669,49.25460298993485L243.83333333333334,47.700467272247664L245,48.01623968875754L246.16666666666666,49.74465761835779L247.33333333333331,49.4436541621173L248.5,47.86611294996051L249.66666666666669,47.39736394183223L250.83333333333334,47.21026922865144L252,47.91938680994172L253.16666666666666,48.54754313494954L254.33333333333334,48.67931033302661L255.5,49.02477568164659" style="fill: none;" fill="none"></path></g><g><path stroke="rgb(0, 119, 187)" stroke-width="2px" d="M23.333333333333332,5.1134516348839L24.5,7.253616458714028L25.666666666666664,9.509938302351497L26.833333333333336,10.794268810934891L28,11.45698742858842L29.166666666666668,12.005863001782835L30.333333333333336,12.496951765730296L31.5,12.82743709337694L32.666666666666664,13.456596469989263L33.833333333333336,13.949249369253973L35,14.034000798414196L36.16666666666667,14.366206986577042L37.333333333333336,15.024382510041088L38.5,15.356509449779583L39.666666666666664,15.97748264255844L40.833333333333336,15.934980848867255L42,16.39622563512186L43.16666666666667,16.671440173204083L44.33333333333333,17.536455765028677L45.5,17.429319353494222L46.666666666666664,18.322121032304665L47.833333333333336,18.465947861455046L49,19.067207043117488L50.166666666666664,19.730121021070072L51.33333333333333,19.656037643071603L52.5,19.44703038818926L53.66666666666667,20.471775791320752L54.833333333333336,20.437882950851L56,21.641337162402227L57.166666666666664,21.81880483396637L58.333333333333336,21.60401479174999L59.5,22.102923175620678L60.66666666666667,22.167474852001135L61.83333333333333,21.827289914729167L63,22.35393806111285L64.16666666666666,22.81868872017686L65.33333333333333,22.17257080028156L66.5,22.560526359840555L67.66666666666667,22.664107325381945L68.83333333333333,24.02040555018702L70,24.407872083703634L71.16666666666666,24.38656950465604L72.33333333333334,25.201805942817092L73.5,25.383022402868402L74.66666666666667,25.35047540575267L75.83333333333333,26.021119559365633L77,25.79652283853532L78.16666666666667,25.6764893338787L79.33333333333333,27.12217692659104L80.5,27.278776945006946L81.66666666666667,26.611766605786492L82.83333333333333,26.790200323923173L84,25.863149290097365L85.16666666666666,26.46854756317956L86.33333333333334,28.432545517794072L87.5,27.6270337270923L88.66666666666666,27.783105581332944L89.83333333333334,26.817558522635377L91,26.651226523741297L92.16666666666667,27.86209755622408L93.33333333333333,28.745993017548695L94.5,29.587159459325324L95.66666666666667,29.705445304806634L96.83333333333333,30.856262993011242L98,31.410152818771227L99.16666666666667,31.97919477401497L100.33333333333333,32.49577668496564L101.5,32.32654966023323L102.66666666666666,32.45131701614117L103.83333333333334,32.86819896269831L105,33.23151947680112L106.16666666666666,33.578954705947616L107.33333333333334,34.47749588675139L108.5,33.20705181719565L109.66666666666667,33.05416667209689L110.83333333333333,33.32488103772775L112,33.21160520316109L113.16666666666667,33.83778659544553L114.33333333333333,34.71436410461765L115.5,34.388695929353844L116.66666666666667,35.286491654673455L117.83333333333333,35.46040009982541L119,34.96245843948817L120.16666666666666,35.47390907095609L121.33333333333334,35.94673962153639L122.5,36.04383495744256L123.66666666666666,36.97169645185579L124.83333333333334,37.65887166292258L126,36.86243890170327L127.16666666666667,36.558485861659484L128.33333333333331,36.58170357620743L129.5,36.72504547698512L130.66666666666666,37.86287720608244L131.83333333333334,37.97645992388446L133,39.00176979855368L134.16666666666669,39.025877887795374L135.33333333333334,39.93172129568458L136.5,41.77434054537416L137.66666666666666,40.01735100376487L138.83333333333334,41.24705734946655L140,40.547083629574345L141.16666666666666,40.60179201219438L142.33333333333331,39.968162705123184L143.5,40.873547434913974L144.66666666666669,40.096565977256205L145.83333333333334,40.68276809196515L147,40.1044941959193L148.16666666666666,41.1809298936731L149.33333333333334,41.27729714690486L150.5,41.46817891356252L151.66666666666666,42.12835419233384L152.83333333333331,42.97212403912391L154,43.187898942917855L155.16666666666669,43.07456610038895L156.33333333333334,42.780120405262785L157.5,43.12778121332295L158.66666666666666,43.02498940727689L159.83333333333331,42.891329501376035L161,43.42250871852961L162.16666666666669,43.64373845035988L163.33333333333334,43.81269287843202L164.5,42.340287006584965L165.66666666666666,42.741308644800284L166.83333333333334,43.681309007375766L168,42.98479153140148L169.16666666666666,42.71952769136286L170.33333333333331,43.174091821860394L171.5,43.92609086782404L172.66666666666669,44.37227398661772L173.83333333333334,44.67098897149561L175,44.45689926544666L176.16666666666666,45.34096178731825L177.33333333333331,45.45475028406088L178.5,46.03313082019392L179.66666666666669,44.78470657238901L180.83333333333334,44.956297654065715L182,46.12534978909089L183.16666666666666,45.97150833451029L184.33333333333334,45.47364465486572L185.5,46.35694497410993L186.66666666666666,46.6206256313356L187.83333333333331,45.87655779104427L189,47.02166104982493L190.16666666666669,46.731444778240885L191.33333333333334,47.062276912663684L192.5,47.192586569961506L193.66666666666666,47.70470417328868L194.83333333333331,48.81722416451096L196,47.3165751499326L197.16666666666669,46.832191235303334L198.33333333333334,46.86940910544365L199.5,47.983301278486074L200.66666666666666,47.5961387519206L201.83333333333334,47.1874132779697L203,48.76139169341679L204.16666666666666,49.7257015589616L205.33333333333331,49.123184124311294L206.5,49.48986130180386L207.66666666666669,49.26774671482103L208.83333333333334,49.295653915542694L210,49.94080036276482L211.16666666666666,49.07552797347247L212.33333333333331,49.328733673846365L213.5,49.15089149529677L214.66666666666669,48.55611938757264L215.83333333333334,50.01342977749444L217,49.556816805858254L218.16666666666666,50.33383164788416L219.33333333333334,51.294642797L220.5,51.990133632091776L221.66666666666666,51.05486301960232L222.83333333333331,51.38808582685997L224,50.84436887692577L225.16666666666669,50.91680866078834L226.33333333333334,51.773887749745256L227.5,50.63297220730413L228.66666666666666,51.95239868044632L229.83333333333331,51.6335962403761L231,51.993776431950714L232.16666666666669,52.744058135171414L233.33333333333334,51.52730669306498L234.5,51.23194456662406L235.66666666666666,52.657944325576246L236.83333333333334,51.95804537685513L238,52.95807480339885L239.16666666666666,53.25773108065535L240.33333333333331,52.9106040711189L241.5,52.407212248121766L242.66666666666669,51.769546008369375L243.83333333333334,52.23726862598721L245,52.52125958934582L246.16666666666666,52.108353984064784L247.33333333333331,52.03772957412418L248.5,52.7920275770665L249.66666666666669,53.30459109333997L250.83333333333334,53.70543729379085L252,54.03397833210414L253.16666666666666,54.610301085699696L254.33333333333334,54.90469999059984L255.5,54.33843507958023" style="fill: none;" fill="none"></path></g><g><path stroke="rgb(255, 112, 67)" stroke-width="2px" d="M23.333333333333332,-8.623032163143119L24.5,0.47354403281213814L25.666666666666664,5.910835516910181L26.833333333333336,8.195127596427442L28,9.319255967697119L29.166666666666668,10.105199560945184L30.333333333333336,10.608028143512112L31.5,11.046224682074861L32.666666666666664,11.594626074478969L33.833333333333336,12.239236452811133L35,12.707122753762205L36.16666666666667,13.146004382741697L37.333333333333336,13.768941653529327L38.5,14.289279714992018L39.666666666666664,14.557969090416547L40.833333333333336,14.881563195897819L42,15.045115120001105L43.16666666666667,15.502424304219693L44.33333333333333,15.949602721066404L45.5,16.17433166587385L46.666666666666664,16.464234942095473L47.833333333333336,16.85068567504819L49,17.11046717669471L50.166666666666664,17.253290190110796L51.33333333333333,17.820281563289033L52.5,17.93139686360741L53.66666666666667,18.139762285052985L54.833333333333336,18.714018239082822L56,18.8093754099659L57.166666666666664,19.201917610668687L58.333333333333336,19.77059228516614L59.5,19.803866339667362L60.66666666666667,20.807533717579865L61.83333333333333,20.62238987760997L63,21.342201602514283L64.16666666666666,21.502195196023184L65.33333333333333,21.20250955350337L66.5,21.933859761707485L67.66666666666667,21.40677725263974L68.83333333333333,22.184030316703634L70,21.974678503460574L71.16666666666666,21.68405670291913L72.33333333333334,22.749962013926307L73.5,23.12302368631041L74.66666666666667,23.130299624003204L75.83333333333333,23.54214664816877L77,23.53003934798208L78.16666666666667,22.498727969346543L79.33333333333333,22.83971767341246L80.5,24.122994589405586L81.66666666666667,24.823151760436918L82.83333333333333,24.610932692347056L84,23.320450586208263L85.16666666666666,24.509236534053475L86.33333333333334,24.2602286919201L87.5,24.167385373702306L88.66666666666666,24.007310093850272L89.83333333333334,24.474064705354266L91,25.143408880318624L92.16666666666667,25.739332734731136L93.33333333333333,26.79044844063958L94.5,26.324315926604527L95.66666666666667,26.546507298787258L96.83333333333333,27.051147654533303L98,27.259734978103577L99.16666666666667,27.841653671970338L100.33333333333333,27.897342912239065L101.5,27.800453747774505L102.66666666666666,27.97850346900542L103.83333333333334,28.74824562855673L105,28.829305087114058L106.16666666666666,28.931194866862707L107.33333333333334,29.951134707764865L108.5,30.285297436235023L109.66666666666667,28.745238783167395L110.83333333333333,28.89648973129187L112,29.253373679149117L113.16666666666667,29.398193535320733L114.33333333333333,29.084055034442404L115.5,30.721294703175825L116.66666666666667,31.499507440477714L117.83333333333333,31.256885853713836L119,31.497671536127363L120.16666666666666,31.54849199466684L121.33333333333334,32.39765272062291L122.5,32.90123086128988L123.66666666666666,32.6205813031814L124.83333333333334,33.21069596237071L126,32.315028699649126L127.16666666666667,31.848302383287404L128.33333333333331,32.633994845404445L129.5,32.88490900183568L130.66666666666666,33.015146983628554L131.83333333333334,34.074684959605406L133,34.67784129888718L134.16666666666669,35.106097017090946L135.33333333333334,35.54464768321599L136.5,35.07647305397561L137.66666666666666,34.71430776646357L138.83333333333334,34.65549177543297L140,35.31718690152154L141.16666666666666,35.41324127442352L142.33333333333331,35.918042749063446L143.5,36.368255945954495L144.66666666666669,36.27883162419423L145.83333333333334,35.951089295008316L147,36.168157502900705L148.16666666666666,35.82568385282226L149.33333333333334,36.944270454496554L150.5,37.30984428668639L151.66666666666666,36.8721576306857L152.83333333333331,37.96134063382372L154,36.76478986546648L155.16666666666669,37.51459917867929L156.33333333333334,37.99905562651603L157.5,37.568467633416965L158.66666666666666,37.53952788677855L159.83333333333331,38.44931873859788L161,38.256746178614065L162.16666666666669,37.934091332141726L163.33333333333334,38.08279952022086L164.5,37.56934473507795L165.66666666666666,37.92590376668686L166.83333333333334,38.56709576981969L168,40.215034623585396L169.16666666666666,38.857995770813375L170.33333333333331,40.003485003114555L171.5,40.55496633384277L172.66666666666669,40.225733160195624L173.83333333333334,40.215779995547464L175,40.71406844937013L176.16666666666666,41.241051481361396L177.33333333333331,40.709200278255466L178.5,39.27238896959613L179.66666666666669,39.730269203004745L180.83333333333334,40.28279588173478L182,41.49866972092777L183.16666666666666,40.696508181452714L184.33333333333334,41.1420494712114L185.5,40.99018542565821L186.66666666666666,42.495838260972015L187.83333333333331,42.027994790842264L189,41.390442427235904L190.16666666666669,41.551581825493614L191.33333333333334,42.97561980214048L192.5,43.04750632990797L193.66666666666666,43.64640147927642L194.83333333333331,43.97213299238228L196,43.64535358416761L197.16666666666669,42.79389807560281L198.33333333333334,41.92903741570851L199.5,43.06818777792776L200.66666666666666,43.39504797940925L201.83333333333334,43.627066840299825L203,44.8947867527776L204.16666666666666,44.244206027077006L205.33333333333331,43.78281167891404L206.5,44.29765778400172L207.66666666666669,44.7507935554604L208.83333333333334,43.86868927052142L210,44.06688905660225L211.16666666666666,43.46166176581331L212.33333333333331,44.029868260621704L213.5,44.01821580443365L214.66666666666669,43.18739978962885L215.83333333333334,43.480049593149126L217,42.823815741454666L218.16666666666666,43.43217937473957L219.33333333333334,44.89425795615022L220.5,44.497855864979655L221.66666666666666,44.562462161527776L222.83333333333331,43.599839364234626L224,43.87844568234922L225.16666666666669,44.035255094517716L226.33333333333334,43.934883610909864L227.5,43.5002599958573L228.66666666666666,44.56119088301622L229.83333333333331,45.4000791443918L231,45.98970210690104L232.16666666666669,46.76286250778916L233.33333333333334,46.12493522718477L234.5,45.764533345287596L235.66666666666666,46.15580624326801L236.83333333333334,45.59791670990428L238,45.421022649100074L239.16666666666666,45.81754567173162L240.33333333333331,46.39098249842548L241.5,47.24052869430674L242.66666666666669,46.965211999222596L243.83333333333334,46.78504162786303L245,46.8749095345372L246.16666666666666,47.48168183675014L247.33333333333331,46.49350714043741L248.5,46.278297143053805L249.66666666666669,46.54000278629766L250.83333333333334,47.478947919451656L252,47.30546090960708L253.16666666666666,47.282605477191254L254.33333333333334,47.13748708163336L255.5,47.09921032864233" style="fill: none;" fill="none"></path></g></g></g></g><g opacity="0.2"><g><g><g><path stroke="rgb(51, 187, 238)" stroke-width="2px" d="M23.333333333333332,23.057977618217485L24.5,100.10496293389797L25.666666666666664,112.73949892395734L26.833333333333336,115.13805013412237L28,117.17928494864701L29.166666666666668,118.75971727335452L30.333333333333336,120.7185560182631L31.5,121.21089258247613L32.666666666666664,121.37760012352466L33.833333333333336,121.50030699470639L35,121.94622885638475L36.16666666666667,122.0246078569591L37.333333333333336,122.66336551630496L38.5,122.79062352725863L39.666666666666664,122.63849084237218L40.833333333333336,123.60860477411747L42,124.27677093932031L43.16666666666667,124.87465652832388L44.33333333333333,123.39816359856724L45.5,124.51504890331626L46.666666666666664,125.42948760980367L47.833333333333336,125.22285251238941L49,125.09292167523503L50.166666666666664,126.13753023201227L51.33333333333333,127.19355001763999L52.5,126.4269891501367L53.66666666666667,128.4766021992415L54.833333333333336,127.0005959496796L56,126.28625162252783L57.166666666666664,127.89748655901849L58.333333333333336,127.42436623880266L59.5,128.71317698860167L60.66666666666667,129.71326584612578L61.83333333333333,129.12664251485467L63,128.33779696920513L64.16666666666666,129.93157982589304L65.33333333333333,129.12313479104637L66.5,131.35340900925547L67.66666666666667,128.9956517780721L68.83333333333333,130.06980441884696L70,128.63101828375457L71.16666666666666,130.20142483161388L72.33333333333334,130.50390502052008L73.5,130.6964682195857L74.66666666666667,130.46496462961287L75.83333333333333,131.65504626476763L77,131.89026310924066L78.16666666666667,130.11024997437L79.33333333333333,131.0312935822047L80.5,130.26202599396555L81.66666666666667,133.25853676357863L82.83333333333333,134.0442255844511L84,132.13348045481928L85.16666666666666,133.6701814630404L86.33333333333334,132.91789820486773L87.5,133.75372428059205L88.66666666666666,133.8620429731123L89.83333333333334,133.14260751164144L91,135.54250425243376L92.16666666666667,134.3788512886837L93.33333333333333,134.1871917035021L94.5,134.42060018695517L95.66666666666667,135.31633044933528L96.83333333333333,133.9209054179266L98,134.68228237898646L99.16666666666667,134.40790086274595L100.33333333333333,134.2390025396608L101.5,136.96592060664295L102.66666666666666,136.5785437762141L103.83333333333334,137.51386192844808L105,136.5262526472807L106.16666666666666,136.17018612550197L107.33333333333334,137.90382298538088L108.5,137.07560991586743L109.66666666666667,135.8110944391936L110.83333333333333,137.0570200511217L112,137.4648329167217L113.16666666666667,138.6285231747627L114.33333333333333,139.0674876937419L115.5,136.02153334823996L116.66666666666667,139.1410064858347L117.83333333333333,137.81363343918323L119,138.6348986441046L120.16666666666666,136.3122114394009L121.33333333333334,139.9490732205808L122.5,140.9847130154967L123.66666666666666,139.8061961133182L124.83333333333334,140.4677111198902L126,141.7752769831717L127.16666666666667,141.7415596474111L128.33333333333331,141.7963958541453L129.5,139.65832363152504L130.66666666666666,142.77271258884667L131.83333333333334,141.86155660414695L133,144.20616831892727L134.16666666666669,143.43028140613436L135.33333333333334,139.93810911113022L136.5,144.6883756712973L137.66666666666666,144.12833740019798L138.83333333333334,145.56626432427763L140,144.09350576871634L141.16666666666666,144.14801312634347L142.33333333333331,145.07750141853094L143.5,143.89958369755743L144.66666666666669,143.80964140632747L145.83333333333334,145.34541618713735L147,144.86820668184757L148.16666666666666,144.56444900894164L149.33333333333334,147.52606901192664L150.5,146.01726233044266L151.66666666666666,147.6936139231324L152.83333333333331,143.90374994376302L154,146.90710411274432L155.16666666666669,150.00289949649573L156.33333333333334,144.637535104841L157.5,147.35246800237894L158.66666666666666,146.32561976993082L159.83333333333331,143.8479486184716L161,147.06567861372233L162.16666666666669,149.76452098214625L163.33333333333334,147.98296322488784L164.5,150.87574249976873L165.66666666666666,148.98714477026462L166.83333333333334,149.40446170473098L168,148.84094785296915L169.16666666666666,149.55385480457542L170.33333333333331,148.43837225967644L171.5,150.64059808039664L172.66666666666669,148.99139261060952L173.83333333333334,150.286520724833L175,152.0243506168723L176.16666666666666,149.78367829704283L177.33333333333331,145.27273971030115L178.5,149.15043689602612L179.66666666666669,150.96439988934992L180.83333333333334,153.15756628805397L182,149.61257621103525L183.16666666666666,151.42445237243174L184.33333333333334,151.4864029287696L185.5,150.63679859572648L186.66666666666666,151.66645729297397L187.83333333333331,155.1989708843231L189,150.43723746293782L190.16666666666669,154.6126436408758L191.33333333333334,151.87019538635013L192.5,153.03574376547337L193.66666666666666,152.91932129138706L194.83333333333331,152.81477694594858L196,152.97465035969017L197.16666666666669,152.39613142812252L198.33333333333334,154.3604369803667L199.5,153.75714474940298L200.66666666666666,154.12206670784948L201.83333333333334,152.32660827630758L203,152.26033570313453L204.16666666666666,154.21150377476215L205.33333333333331,153.53229767525195L206.5,155.66524100565908L207.66666666666669,154.1785694130659L208.83333333333334,154.7414717208743L210,152.8873891364932L211.16666666666666,155.761670443058L212.33333333333331,157.18869259887933L213.5,154.42754527533054L214.66666666666669,153.36278791123627L215.83333333333334,153.4002585774064L217,155.58163750761747L218.16666666666666,153.4257670482397L219.33333333333334,155.0023949431777L220.5,155.20753249967098L221.66666666666666,156.17752692484854L222.83333333333331,156.0072786926627L224,157.04672374153137L225.16666666666669,157.7136066534519L226.33333333333334,156.92769520008562L227.5,155.12736090058087L228.66666666666666,156.55707978391646L229.83333333333331,155.779934343338L231,157.56937294059992L232.16666666666669,158.30944826805592L233.33333333333334,156.51494259232283L234.5,157.1805315365791L235.66666666666666,155.4875536956787L236.83333333333334,156.2645260577798L238,156.8992724173665L239.16666666666666,156.92158800238371L240.33333333333331,157.52418132597208L241.5,159.92127373182774L242.66666666666669,155.3399177544713L243.83333333333334,157.39730161511898L245,159.50923981183766L246.16666666666666,155.9692525269985L247.33333333333331,159.87552661770582L248.5,158.33691334986685L249.66666666666669,155.6911549746394L250.83333333333334,160.94786317074298L252,155.25900603884457L253.16666666666666,159.15074648255109L254.33333333333334,160.49997892880438L255.5,160.84685786807538" style="fill: none;" fill="none"></path></g><g><path stroke="rgb(204, 51, 17)" stroke-width="2px" d="M23.333333333333332,4.554681781768818L24.5,8.388228296279927L25.666666666666664,10.29996414566042L26.833333333333336,10.695440224647541L28,10.561197260856648L29.166666666666668,10.54558393383028L30.333333333333336,11.158789440631885L31.5,11.581298729419727L32.666666666666664,12.241673890590686L33.833333333333336,12.306870080471057L35,14.238544570446033L36.16666666666667,14.843785170555133L37.333333333333336,14.124372116565723L38.5,15.101497375011462L39.666666666666664,17.27620701456072L40.833333333333336,16.632407826423663L42,16.06356315755846L43.16666666666667,17.000916630268115L44.33333333333333,17.63726520204546L45.5,18.72878709220888L46.666666666666664,19.597964128494283L47.833333333333336,17.845341795921346L49,18.107748548030873L50.166666666666664,19.034539288520833L51.33333333333333,20.726092940807362L52.5,18.53966011905672L53.66666666666667,22.898455306530018L54.833333333333336,20.882173463344593L56,20.935540975570696L57.166666666666664,20.596491776943225L58.333333333333336,19.528561307430287L59.5,19.835394832134266L60.66666666666667,21.290454052925128L61.83333333333333,19.724993840694445L63,23.002955146074314L64.16666666666666,23.181591915130635L65.33333333333333,21.27095058107378L66.5,21.935875233650226L67.66666666666667,24.029148977041263L68.83333333333333,23.450381142139452L70,20.891312006950397L71.16666666666666,21.87852526807787L72.33333333333334,22.650310220956822L73.5,24.43530647063257L74.66666666666667,21.803808113575L75.83333333333333,23.833606561660783L77,22.70440301442148L78.16666666666667,24.91490198636057L79.33333333333333,23.80987008476259L80.5,23.970117677688616L81.66666666666667,24.679271298885364L82.83333333333333,24.742166369199772L84,25.077655096292514L85.16666666666666,22.598953715801258L86.33333333333334,23.23548031115534L87.5,26.480770993471165L88.66666666666666,22.869160537958162L89.83333333333334,27.31282681727411L91,25.015854541301746L92.16666666666667,28.307193988800066L93.33333333333333,26.73443480992319L94.5,26.440175024509447L95.66666666666667,26.31009913110735L96.83333333333333,27.589172156095522L98,27.874392299890538L99.16666666666667,28.786776317596452L100.33333333333333,29.09339885139467L101.5,28.926603946924228L102.66666666666666,31.820120041608828L103.83333333333334,24.90600740098955L105,29.449043803453463L106.16666666666666,32.86622613930704L107.33333333333334,29.536005023956317L108.5,28.389823302269L109.66666666666667,30.59298374676706L110.83333333333333,29.535180840730686L112,30.65050514245035L113.16666666666667,30.11390252137186L114.33333333333333,32.11969416046144L115.5,31.00640723967554L116.66666666666667,30.71903762602808L117.83333333333333,32.0241350605488L119,32.47493691110613L120.16666666666666,32.18810796165468L121.33333333333334,32.722145724535004L122.5,33.84997783088686L123.66666666666666,33.6325451090336L124.83333333333334,31.566574907541295L126,34.33653604650499L127.16666666666667,33.555190568208715L128.33333333333331,32.05752437138559L129.5,35.297302916288395L130.66666666666666,34.92763366246225L131.83333333333334,35.466596744298954L133,35.66224465513231L134.16666666666669,37.0898091235161L135.33333333333334,33.92971261286737L136.5,37.67780121707918L137.66666666666666,35.97011335396768L138.83333333333334,36.23688498044016L140,36.29940422320367L141.16666666666666,37.49278197312357L142.33333333333331,38.08500047826769L143.5,36.862736754655856L144.66666666666669,35.687491035699864L145.83333333333334,37.4039811756611L147,38.89726271772386L148.16666666666666,37.32707499051096L149.33333333333334,37.21667399907114L150.5,37.501887549400344L151.66666666666666,37.5600155439377L152.83333333333331,38.87484493398668L154,37.632378831148166L155.16666666666669,38.44127180957796L156.33333333333334,39.43558623337747L157.5,39.682168667554876L158.66666666666666,40.45002391481401L159.83333333333331,38.330567518711106L161,40.796925931215306L162.16666666666669,40.888093782901784L163.33333333333334,37.48066318297388L164.5,40.285305952072164L165.66666666666666,39.488947152137776L166.83333333333334,43.36923474574091L168,40.03462897562982L169.16666666666666,43.19073643946649L170.33333333333331,42.57942325735094L171.5,44.19415643954279L172.66666666666669,36.179475673675555L173.83333333333334,42.570495704650895L175,42.15159963512422L176.16666666666666,40.927522708416L177.33333333333331,41.22191436314584L178.5,44.48226452136041L179.66666666666669,41.100996793746965L180.83333333333334,41.7544224419594L182,40.09605370306971L183.16666666666666,43.409725219249744L184.33333333333334,41.487327735662475L185.5,44.45958959245684L186.66666666666666,43.985941382884995L187.83333333333331,39.7775695242882L189,42.946540839910526L190.16666666666669,43.76417675399782L191.33333333333334,42.8387376739979L192.5,42.03753267669679L193.66666666666666,43.74845133805277L194.83333333333331,46.44663600826265L196,41.056141445875184L197.16666666666669,45.40574534201624L198.33333333333334,46.99318157577516L199.5,41.87985653543474L200.66666666666666,44.50732628488542L201.83333333333334,41.27489945435526L203,44.72341393971445L204.16666666666666,43.572794815540334L205.33333333333331,45.11389876508714L206.5,42.3978919568062L207.66666666666669,44.70439838433268L208.83333333333334,42.66382621312143L210,46.48232643866541L211.16666666666666,45.39726614499094L212.33333333333331,47.91200081610681L213.5,45.156940909862534L214.66666666666669,43.775517515182514L215.83333333333334,45.49135490202905L217,46.55768975281717L218.16666666666666,48.089292518138905L219.33333333333334,47.05877996706964L220.5,47.18665364289286L221.66666666666666,47.92193716907503L222.83333333333331,46.852028659820576L224,44.12317778015139L225.16666666666669,46.444552473068256L226.33333333333334,46.726653907537475L227.5,48.9514211394787L228.66666666666666,45.622934105634705L229.83333333333331,47.90629746818544L231,48.58630137705805L232.16666666666669,46.29317968511583L233.33333333333334,49.63289539122583L234.5,45.72031300210954L235.66666666666666,47.05051176095011L236.83333333333334,49.90442090654375L238,49.31241998577119L239.16666666666666,46.77806975388528L240.33333333333331,49.810503579616565L241.5,48.78283281230928L242.66666666666669,50.06258496427537L243.83333333333334,45.369263695716874L245,48.48989831352235L246.16666666666666,52.33728451275827L247.33333333333331,48.992148977756514L248.5,45.49980113172533L249.66666666666669,46.694240429639834L250.83333333333334,46.92962715888025L252,48.98306318187716L253.16666666666666,49.48977762246133L254.33333333333334,48.87696113014223L255.5,49.54297370457651" style="fill: none;" fill="none"></path></g><g><path stroke="rgb(0, 119, 187)" stroke-width="2px" d="M23.333333333333332,5.1134516348839L24.5,8.537715353012103L25.666666666666664,11.676007272243519L26.833333333333336,12.304641489028949L28,12.322232855796832L29.166666666666668,12.76515551471712L30.333333333333336,13.199216555595417L31.5,13.309287873744983L32.666666666666664,14.384484342575092L33.833333333333336,14.680781508922596L35,14.160359252929707L36.16666666666667,14.862708417415638L37.333333333333336,16.00949673795702L38.5,15.854049188137074L39.666666666666664,16.90821250104906L40.833333333333336,15.871258133888263L42,17.087897631168385L43.16666666666667,17.084192103385945L44.33333333333333,18.833847376346608L45.5,17.268624528884907L46.666666666666664,19.661274587154406L47.833333333333336,18.681683372497577L49,19.969083944797536L50.166666666666664,20.724484135150927L51.33333333333333,19.54491310262682L52.5,19.1335203971863L53.66666666666667,22.00889127397539L54.833333333333336,20.387043742179888L56,23.44651737117769L57.166666666666664,22.085006243228932L58.333333333333336,21.28182979965212L59.5,22.851285652160662L60.66666666666667,22.264302358865756L61.83333333333333,21.317012533187885L63,23.143910258054753L64.16666666666666,23.515814696788805L65.33333333333333,21.203393930435197L66.5,23.14245969557764L67.66666666666667,22.819478773117083L68.83333333333333,26.05485288286211L70,24.989071883201618L71.16666666666666,24.354615636110324L72.33333333333334,26.424660599470158L73.5,25.654847092866916L74.66666666666667,25.301654910087603L75.83333333333333,27.0270857896805L77,25.459627757310887L78.16666666666667,25.4964390769005L79.33333333333333,29.290708315610903L80.5,27.513676972627657L81.66666666666667,25.6112510969639L82.83333333333333,27.05785090112688L84,24.472572739362736L85.16666666666666,27.376644972801227L86.33333333333334,31.37854244971277L87.5,26.41876604104044L88.66666666666666,28.017213362693806L89.83333333333334,25.369237934589403L91,26.40172852540018L92.16666666666667,29.67840410494806L93.33333333333333,30.07183620953562L94.5,30.84890912199022L95.66666666666667,29.88287407302858L96.83333333333333,32.58248952531817L98,32.24098755741121L99.16666666666667,32.832757706880585L100.33333333333333,33.27064955139162L101.5,32.07270912313463L102.66666666666666,32.63846805000307L103.83333333333334,33.49352188253405L105,33.77650024795534L106.16666666666666,34.10010754966738L107.33333333333334,35.8253076579571L108.5,31.301385712862032L109.66666666666667,32.824838954448715L110.83333333333333,33.73095258617403L112,33.04169145131113L113.16666666666667,34.77705868387224L114.33333333333333,36.0292303683758L115.5,33.90019366645815L116.66666666666667,36.633185242652914L117.83333333333333,35.72126276755335L119,34.21554594898225L120.16666666666666,36.241085018157975L121.33333333333334,36.655985447406785L122.5,36.18947796130182L123.66666666666666,38.36348869347574L124.83333333333334,38.689634479522724L126,35.66778975987436L127.16666666666667,36.1025563015938L128.33333333333331,36.61653014802935L129.5,36.94005832815172L130.66666666666666,39.56962479972841L131.83333333333334,38.14683400058748L133,40.53973461055757L134.16666666666669,39.062040021657964L135.33333333333334,41.2904864075184L136.5,44.53826941990854L137.66666666666666,37.38186669135096L138.83333333333334,43.09161686801912L140,39.49712304973604L141.16666666666666,40.68385458612444L142.33333333333331,39.01771874451639L143.5,42.23162452960016L144.66666666666669,38.931093790769594L145.83333333333334,41.56207126402857L147,39.23708335185053L148.16666666666666,42.79558344030382L149.33333333333334,41.42184802675249L150.5,41.754501563549056L151.66666666666666,43.11861711049082L152.83333333333331,44.23777880930902L154,43.5115612986088L155.16666666666669,42.90456683659555L156.33333333333334,42.33845186257364L157.5,43.64927242541315L158.66666666666666,42.87080169820787L159.83333333333331,42.690839642524736L161,44.219277544260045L162.16666666666669,43.97558304810526L163.33333333333334,44.06612452054026L164.5,40.13167819881441L165.66666666666666,43.34284110212328L166.83333333333334,45.09130955123903L168,41.94001531744005L169.16666666666666,42.32163193130495L170.33333333333331,43.85593801760675L171.5,45.0540894367695L172.66666666666669,45.04154866480829L173.83333333333334,45.1190614488125L175,44.13576470637323L176.16666666666666,46.6670555701256L177.33333333333331,45.62543302917482L178.5,46.90070162439348L179.66666666666669,42.912070200681704L180.83333333333334,45.21368427658083L182,47.878927991628665L183.16666666666666,45.7407461526394L184.33333333333334,44.72684913539888L185.5,47.68189545297624L186.66666666666666,47.016146617174165L187.83333333333331,44.76045603060724L189,48.739315937995926L190.16666666666669,46.296120370864884L191.33333333333334,47.558525114297886L192.5,47.38805105590822L193.66666666666666,48.472880578279515L194.83333333333331,50.48600415134432L196,45.065601628065124L197.16666666666669,46.10561536335947L198.33333333333334,46.92523591065409L199.5,49.65413953804971L200.66666666666666,47.01539496207239L201.83333333333334,46.57432506704332L203,51.12235931658746L204.16666666666666,51.17216635727884L205.33333333333331,48.21940797233583L206.5,50.03987706804277L207.66666666666669,48.93457483434679L208.83333333333334,49.33751471662523L210,50.908520033597966L211.16666666666666,47.77761938953402L212.33333333333331,49.70854222440721L213.5,48.884128227472324L214.66666666666669,47.6639612259865L215.83333333333334,52.19939536237718L217,48.87189734840395L218.16666666666666,51.49935391092302L219.33333333333334,52.73585952067377L220.5,53.0333698847294L221.66666666666666,49.651957100868245L222.83333333333331,51.88792003774645L224,50.02879345202447L225.16666666666669,51.0254683365822L226.33333333333334,53.05950638318063L227.5,48.92159889364244L228.66666666666666,53.93153839015962L229.83333333333331,51.155392580270785L231,52.534046719312684L232.16666666666669,53.869480690002455L233.33333333333334,49.70217952990534L234.5,50.78890137696268L235.66666666666666,54.796943964004534L236.83333333333334,50.90819695377351L238,54.45811894321443L239.16666666666666,53.70721549654009L240.33333333333331,52.38991355681421L241.5,51.65212451362611L242.66666666666669,50.81304664874079L243.83333333333334,52.938852552413955L245,52.94724603438379L246.16666666666666,51.48899557614328L247.33333333333331,51.931792959213276L248.5,53.92347458148004L249.66666666666669,54.07343636775018L250.83333333333334,54.30670659446718L252,54.52678988957407L253.16666666666666,55.47478521609308L254.33333333333334,55.34629834795L255.5,53.48903771305086" style="fill: none;" fill="none"></path></g><g><path stroke="rgb(255, 112, 67)" stroke-width="2px" d="M23.333333333333332,-8.623032163143119L24.5,5.931489750385304L25.666666666666664,11.130635341644306L26.833333333333336,10.881455081939716L28,10.786917969226856L29.166666666666668,11.192442490100879L30.333333333333336,11.327081061840076L31.5,11.685119441986103L32.666666666666664,12.403411606788655L33.833333333333336,13.196407739162463L35,13.404708510875722L36.16666666666667,13.801938451766986L37.333333333333336,14.701313561439534L38.5,15.068767410755177L39.666666666666664,14.960687319278735L40.833333333333336,15.366726130485553L42,15.290373796463031L43.16666666666667,16.188271969795245L44.33333333333333,16.620302223205584L45.5,16.511404541969316L46.666666666666664,16.899073957443257L47.833333333333336,17.430349058151265L49,17.500134300231952L50.166666666666664,17.467523018360158L51.33333333333333,18.670764593124407L52.5,18.098069340229053L53.66666666666667,18.45230988407137L54.833333333333336,19.575401288509386L56,18.952411078453082L57.166666666666664,19.790730694770833L58.333333333333336,20.623604108333605L59.5,19.853777414798756L60.66666666666667,22.31303466463091L61.83333333333333,20.344674130916616L63,22.421919158935566L64.16666666666666,21.742185582160968L65.33333333333333,20.75298109436037L66.5,23.03088506722452L67.66666666666667,20.616153491973897L68.83333333333333,23.349909910202044L70,21.660650784015672L71.16666666666666,21.248124002456684L72.33333333333334,24.34881997966768L73.5,23.682616194725053L74.66666666666667,23.141213530540483L75.83333333333333,24.159917184352892L77,23.51187839770319L78.16666666666667,20.95176090145113L79.33333333333333,23.351202229499837L80.5,26.04790996336939L81.66666666666667,25.87338751697542L82.83333333333333,24.292604090213793L84,21.384727427005785L85.16666666666666,26.292415455818194L86.33333333333334,23.886716928720492L87.5,24.028120396375673L88.66666666666666,23.767197174072283L89.83333333333334,25.17419662261011L91,26.147425142765062L92.16666666666667,26.63321851634981L93.33333333333333,28.3671219995022L94.5,25.62511715555193L95.66666666666667,26.879794357061403L96.83333333333333,27.80810818815233L98,27.572615963459032L99.16666666666667,28.71453171277048L100.33333333333333,27.980876772642155L101.5,27.65512000107767L102.66666666666666,28.24557805085184L103.83333333333334,29.9028588678837L105,28.950894274950045L106.16666666666666,29.08402953648569L107.33333333333334,31.481044469118135L108.5,30.78654152894022L109.66666666666667,26.435150803565996L110.83333333333333,29.123366153478642L112,29.788699600935L113.16666666666667,29.615423319578188L114.33333333333333,28.612847283124943L115.5,33.17715420627596L116.66666666666667,32.666826546430606L117.83333333333333,30.89295347356798L119,31.858850059747713L120.16666666666666,31.62472268247606L121.33333333333334,33.67139380955698L122.5,33.656598072290436L123.66666666666666,32.19960696601869L124.83333333333334,34.09586795115472L126,30.971527805566804L127.16666666666667,31.14821290874483L128.33333333333331,33.812533538579956L129.5,33.26128023648264L130.66666666666666,33.21050395631792L131.83333333333334,35.66399192357065L133,35.582575807809846L134.16666666666669,35.74848059439661L135.33333333333334,36.202473682403586L136.5,34.37421111011507L137.66666666666666,34.17105983519556L138.83333333333334,34.567267788887044L140,36.30972959065439L141.16666666666666,35.55732283377649L142.33333333333331,36.675244961023346L143.5,37.043575741291065L144.66666666666669,36.144695141553896L145.83333333333334,35.459475801229495L147,36.49375981473924L148.16666666666666,35.31197337770464L149.33333333333334,38.622150357007996L150.5,37.858205034971256L151.66666666666666,36.215627646684666L152.83333333333331,39.59511513853075L154,34.9699637129307L155.16666666666669,38.63931314849855L156.33333333333334,38.7257402982712L157.5,36.92258564376833L158.66666666666666,37.49611826682092L159.83333333333331,39.814005016326924L161,37.96788733863832L162.16666666666669,37.45010906243326L163.33333333333334,38.30586180233957L164.5,36.79916255736353L165.66666666666666,38.46074231410028L166.83333333333334,39.52888377451898L168,42.68694290423395L169.16666666666666,36.822437491655364L170.33333333333331,41.72171885156633L171.5,41.38218832993509L172.66666666666669,39.73188339972498L173.83333333333334,40.20085024857523L175,41.46150113010408L176.16666666666666,42.03152602934839L177.33333333333331,39.91142347359659L178.5,37.11717200660707L179.66666666666669,40.41708955311777L180.83333333333334,41.11158589982988L182,43.32248047971727L183.16666666666666,39.49326587224009L184.33333333333334,41.81036140584948L185.5,40.76238935732843L186.66666666666666,44.75431751394274L187.83333333333331,41.3262295856476L189,40.43411388182642L190.16666666666669,41.79329092288019L191.33333333333334,45.11167676711084L192.5,43.15533612155916L193.66666666666666,44.5447442033291L194.83333333333331,44.46073026204111L196,43.155184471845644L197.16666666666669,41.5167148127556L198.33333333333334,40.6317464258671L199.5,44.77691332125666L200.66666666666666,43.88533828163148L201.83333333333334,43.97509513163568L203,46.79636662149431L204.16666666666666,43.26833493852617L205.33333333333331,43.09072015666963L206.5,45.06992694163324L207.66666666666669,45.43049721264841L208.83333333333334,42.545532843112966L210,44.36418873572351L211.16666666666666,42.55382082962991L212.33333333333331,44.88217800283434L213.5,44.000737120151534L214.66666666666669,41.94117576742174L215.83333333333334,43.919024298429505L217,41.83946496391298L218.16666666666666,44.344724824667L219.33333333333334,47.08737582826616L220.5,43.90325272822382L221.66666666666666,44.659371606349964L222.83333333333331,42.15590516829492L224,44.29635515952112L225.16666666666669,44.27046921277048L226.33333333333334,43.78432638549806L227.5,42.84832457327845L228.66666666666666,46.15258721375467L229.83333333333331,46.65841153645517L231,46.87413655066492L232.16666666666669,47.92260310912134L233.33333333333334,45.16804430627825L234.5,45.22393052244188L235.66666666666666,46.74271559023859L236.83333333333334,44.76108240985872L238,45.15568155789377L239.16666666666666,46.412330205678956L240.33333333333331,47.25113773846628L241.5,48.51484798812868L242.66666666666669,46.55223695659639L243.83333333333334,46.51478607082369L245,47.00971139454843L246.16666666666666,48.391840290069595L247.33333333333331,45.01124509596826L248.5,45.9554821469784L249.66666666666669,46.9325612511635L250.83333333333334,48.8873656191826L252,47.04523039484026L253.16666666666666,47.248322328567525L254.33333333333334,46.91980948829653L255.5,47.04179519915582" style="fill: none;" fill="none"></path></g></g></g></g></g></g><g transform="translate(50, 176)" clip-path="url(#clip_1)"><clipPath id="clip_1"><rect width="279" height="22"></rect></clipPath><g><g><line x1="0" y1="0" x2="0" y2="5" style="visibility: inherit;" fill="rgb(0, 0, 0)" stroke="rgb(204, 204, 204)" stroke-width="1px"></line><line x1="23.333333333333332" y1="0" x2="23.333333333333332" y2="5" style="visibility: inherit;" fill="rgb(0, 0, 0)" stroke="rgb(204, 204, 204)" stroke-width="1px"></line><line x1="46.666666666666664" y1="0" x2="46.666666666666664" y2="5" style="visibility: inherit;" fill="rgb(0, 0, 0)" stroke="rgb(204, 204, 204)" stroke-width="1px"></line><line x1="70" y1="0" x2="70" y2="5" style="visibility: inherit;" fill="rgb(0, 0, 0)" stroke="rgb(204, 204, 204)" stroke-width="1px"></line><line x1="93.33333333333333" y1="0" x2="93.33333333333333" y2="5" style="visibility: inherit;" fill="rgb(0, 0, 0)" stroke="rgb(204, 204, 204)" stroke-width="1px"></line><line x1="116.66666666666667" y1="0" x2="116.66666666666667" y2="5" style="visibility: inherit;" fill="rgb(0, 0, 0)" stroke="rgb(204, 204, 204)" stroke-width="1px"></line><line x1="140" y1="0" x2="140" y2="5" style="visibility: inherit;" fill="rgb(0, 0, 0)" stroke="rgb(204, 204, 204)" stroke-width="1px"></line><line x1="163.33333333333334" y1="0" x2="163.33333333333334" y2="5" style="visibility: inherit;" fill="rgb(0, 0, 0)" stroke="rgb(204, 204, 204)" stroke-width="1px"></line><line x1="186.66666666666666" y1="0" x2="186.66666666666666" y2="5" style="visibility: inherit;" fill="rgb(0, 0, 0)" stroke="rgb(204, 204, 204)" stroke-width="1px"></line><line x1="210" y1="0" x2="210" y2="5" style="visibility: inherit;" fill="rgb(0, 0, 0)" stroke="rgb(204, 204, 204)" stroke-width="1px"></line><line x1="233.33333333333334" y1="0" x2="233.33333333333334" y2="5" style="visibility: inherit;" fill="rgb(0, 0, 0)" stroke="rgb(204, 204, 204)" stroke-width="1px"></line><line x1="256.66666666666663" y1="0" x2="256.66666666666663" y2="5" style="visibility: inherit;" fill="rgb(0, 0, 0)" stroke="rgb(204, 204, 204)" stroke-width="1px"></line><line x1="280" y1="0" x2="280" y2="5" style="visibility: inherit;" fill="rgb(0, 0, 0)" stroke="rgb(204, 204, 204)" stroke-width="1px"></line></g><g transform="translate(0, 8)"><text x="0" y="0" dx="0em" dy="0.95em" style="text-anchor: middle; visibility: hidden; font-family: Roboto, sans-serif; font-size: 12px; font-weight: 200;" fill="rgb(33, 33, 33)" stroke="none" stroke-width="1px">-20</text><text x="23.333333333333332" y="0" dx="0em" dy="0.95em" style="text-anchor: middle; visibility: inherit; font-family: Roboto, sans-serif; font-size: 12px; font-weight: 200;" fill="rgb(33, 33, 33)" stroke="none" stroke-width="1px">0</text><text x="46.666666666666664" y="0" dx="0em" dy="0.95em" style="text-anchor: middle; visibility: hidden; font-family: Roboto, sans-serif; font-size: 12px; font-weight: 200;" fill="rgb(33, 33, 33)" stroke="none" stroke-width="1px">20</text><text x="70" y="0" dx="0em" dy="0.95em" style="text-anchor: middle; visibility: inherit; font-family: Roboto, sans-serif; font-size: 12px; font-weight: 200;" fill="rgb(33, 33, 33)" stroke="none" stroke-width="1px">40</text><text x="93.33333333333333" y="0" dx="0em" dy="0.95em" style="text-anchor: middle; visibility: hidden; font-family: Roboto, sans-serif; font-size: 12px; font-weight: 200;" fill="rgb(33, 33, 33)" stroke="none" stroke-width="1px">60</text><text x="116.66666666666667" y="0" dx="0em" dy="0.95em" style="text-anchor: middle; visibility: inherit; font-family: Roboto, sans-serif; font-size: 12px; font-weight: 200;" fill="rgb(33, 33, 33)" stroke="none" stroke-width="1px">80</text><text x="140" y="0" dx="0em" dy="0.95em" style="text-anchor: middle; visibility: hidden; font-family: Roboto, sans-serif; font-size: 12px; font-weight: 200;" fill="rgb(33, 33, 33)" stroke="none" stroke-width="1px">100</text><text x="163.33333333333334" y="0" dx="0em" dy="0.95em" style="text-anchor: middle; visibility: inherit; font-family: Roboto, sans-serif; font-size: 12px; font-weight: 200;" fill="rgb(33, 33, 33)" stroke="none" stroke-width="1px">120</text><text x="186.66666666666666" y="0" dx="0em" dy="0.95em" style="text-anchor: middle; visibility: hidden; font-family: Roboto, sans-serif; font-size: 12px; font-weight: 200;" fill="rgb(33, 33, 33)" stroke="none" stroke-width="1px">140</text><text x="210" y="0" dx="0em" dy="0.95em" style="text-anchor: middle; visibility: inherit; font-family: Roboto, sans-serif; font-size: 12px; font-weight: 200;" fill="rgb(33, 33, 33)" stroke="none" stroke-width="1px">160</text><text x="233.33333333333334" y="0" dx="0em" dy="0.95em" style="text-anchor: middle; visibility: hidden; font-family: Roboto, sans-serif; font-size: 12px; font-weight: 200;" fill="rgb(33, 33, 33)" stroke="none" stroke-width="1px">180</text><text x="256.66666666666663" y="0" dx="0em" dy="0.95em" style="text-anchor: middle; visibility: inherit; font-family: Roboto, sans-serif; font-size: 12px; font-weight: 200;" fill="rgb(33, 33, 33)" stroke="none" stroke-width="1px">200</text><text x="280" y="0" dx="0em" dy="0.95em" style="text-anchor: middle; visibility: hidden; font-family: Roboto, sans-serif; font-size: 12px; font-weight: 200;" fill="rgb(33, 33, 33)" stroke="none" stroke-width="1px">220</text></g><line x1="0" y1="0" x2="280" y2="0" fill="rgb(0, 0, 0)" stroke="rgb(204, 204, 204)" stroke-width="1px"></line></g></g></g></g></svg>