<svg viewBox="0 0 330 199.9921875" xmlns="http://www.w3.org/2000/svg"><g><g><g><g><g><line x1="50" y1="176.992" x2="45" y2="176.992" style="visibility: inherit;" fill="rgb(0, 0, 0)" stroke="rgb(204, 204, 204)" stroke-width="1px"></line><line x1="50" y1="154.868" x2="45" y2="154.868" style="visibility: inherit;" fill="rgb(0, 0, 0)" stroke="rgb(204, 204, 204)" stroke-width="1px"></line><line x1="50" y1="132.744" x2="45" y2="132.744" style="visibility: inherit;" fill="rgb(0, 0, 0)" stroke="rgb(204, 204, 204)" stroke-width="1px"></line><line x1="50" y1="110.61999999999999" x2="45" y2="110.61999999999999" style="visibility: inherit;" fill="rgb(0, 0, 0)" stroke="rgb(204, 204, 204)" stroke-width="1px"></line><line x1="50" y1="88.496" x2="45" y2="88.496" style="visibility: inherit;" fill="rgb(0, 0, 0)" stroke="rgb(204, 204, 204)" stroke-width="1px"></line><line x1="50" y1="66.372" x2="45" y2="66.372" style="visibility: inherit;" fill="rgb(0, 0, 0)" stroke="rgb(204, 204, 204)" stroke-width="1px"></line><line x1="50" y1="44.247999999999976" x2="45" y2="44.247999999999976" style="visibility: inherit;" fill="rgb(0, 0, 0)" stroke="rgb(204, 204, 204)" stroke-width="1px"></line><line x1="50" y1="22.12400000000002" x2="45" y2="22.12400000000002" style="visibility: inherit;" fill="rgb(0, 0, 0)" stroke="rgb(204, 204, 204)" stroke-width="1px"></line><line x1="50" y1="0" x2="45" y2="0" style="visibility: inherit;" fill="rgb(0, 0, 0)" stroke="rgb(204, 204, 204)" stroke-width="1px"></line></g><g transform="translate(40, 0)"><text x="0" y="176.992" dx="0em" dy="0.3em" style="text-anchor: end; visibility: hidden; font-family: Roboto, sans-serif; font-size: 12px; font-weight: 200;" fill="rgb(33, 33, 33)" stroke="none" stroke-width="1px">-0.4</text><text x="0" y="154.868" dx="0em" dy="0.3em" style="text-anchor: end; visibility: inherit; font-family: Roboto, sans-serif; font-size: 12px; font-weight: 200;" fill="rgb(33, 33, 33)" stroke="none" stroke-width="1px">-0.2</text><text x="0" y="132.744" dx="0em" dy="0.3em" style="text-anchor: end; visibility: hidden; font-family: Roboto, sans-serif; font-size: 12px; font-weight: 200;" fill="rgb(33, 33, 33)" stroke="none" stroke-width="1px">0</text><text x="0" y="110.61999999999999" dx="0em" dy="0.3em" style="text-anchor: end; visibility: inherit; font-family: Roboto, sans-serif; font-size: 12px; font-weight: 200;" fill="rgb(33, 33, 33)" stroke="none" stroke-width="1px">0.2</text><text x="0" y="88.496" dx="0em" dy="0.3em" style="text-anchor: end; visibility: hidden; font-family: Roboto, sans-serif; font-size: 12px; font-weight: 200;" fill="rgb(33, 33, 33)" stroke="none" stroke-width="1px">0.4</text><text x="0" y="66.372" dx="0em" dy="0.3em" style="text-anchor: end; visibility: inherit; font-family: Roboto, sans-serif; font-size: 12px; font-weight: 200;" fill="rgb(33, 33, 33)" stroke="none" stroke-width="1px">0.6</text><text x="0" y="44.247999999999976" dx="0em" dy="0.3em" style="text-anchor: end; visibility: hidden; font-family: Roboto, sans-serif; font-size: 12px; font-weight: 200;" fill="rgb(33, 33, 33)" stroke="none" stroke-width="1px">0.8</text><text x="0" y="22.12400000000002" dx="0em" dy="0.3em" style="text-anchor: end; visibility: inherit; font-family: Roboto, sans-serif; font-size: 12px; font-weight: 200;" fill="rgb(33, 33, 33)" stroke="none" stroke-width="1px">1</text><text x="0" y="0" dx="0em" dy="0.3em" style="text-anchor: end; visibility: hidden; font-family: Roboto, sans-serif; font-size: 12px; font-weight: 200;" fill="rgb(33, 33, 33)" stroke="none" stroke-width="1px">1.2</text></g><line x1="50" y1="0" x2="50" y2="176.992" fill="rgb(0, 0, 0)" stroke="rgb(204, 204, 204)" stroke-width="1px"></line></g></g><g transform="translate(50, 0)" clip-path="url(#clip_0)"><clipPath id="clip_0"><rect width="279" height="176"></rect></clipPath><g><g><g><line x1="0" y1="0" x2="0" y2="176.992" fill="rgb(0, 0, 0)" stroke="rgb(66, 66, 66)" stroke-width="1px" opacity="0.25"></line><line x1="23.333333333333332" y1="0" x2="23.333333333333332" y2="176.992" fill="rgb(0, 0, 0)" stroke="rgb(66, 66, 66)" stroke-width="1px" opacity="0.25"></line><line x1="46.666666666666664" y1="0" x2="46.666666666666664" y2="176.992" fill="rgb(0, 0, 0)" stroke="rgb(66, 66, 66)" stroke-width="1px" opacity="0.25"></line><line x1="70" y1="0" x2="70" y2="176.992" fill="rgb(0, 0, 0)" stroke="rgb(66, 66, 66)" stroke-width="1px" opacity="0.25"></line><line x1="93.33333333333333" y1="0" x2="93.33333333333333" y2="176.992" fill="rgb(0, 0, 0)" stroke="rgb(66, 66, 66)" stroke-width="1px" opacity="0.25"></line><line x1="116.66666666666667" y1="0" x2="116.66666666666667" y2="176.992" fill="rgb(0, 0, 0)" stroke="rgb(66, 66, 66)" stroke-width="1px" opacity="0.25"></line><line x1="140" y1="0" x2="140" y2="176.992" fill="rgb(0, 0, 0)" stroke="rgb(66, 66, 66)" stroke-width="1px" opacity="0.25"></line><line x1="163.33333333333334" y1="0" x2="163.33333333333334" y2="176.992" fill="rgb(0, 0, 0)" stroke="rgb(66, 66, 66)" stroke-width="1px" opacity="0.25"></line><line x1="186.66666666666666" y1="0" x2="186.66666666666666" y2="176.992" fill="rgb(0, 0, 0)" stroke="rgb(66, 66, 66)" stroke-width="1px" opacity="0.25"></line><line x1="210" y1="0" x2="210" y2="176.992" fill="rgb(0, 0, 0)" stroke="rgb(66, 66, 66)" stroke-width="1px" opacity="0.25"></line><line x1="233.33333333333334" y1="0" x2="233.33333333333334" y2="176.992" fill="rgb(0, 0, 0)" stroke="rgb(66, 66, 66)" stroke-width="1px" opacity="0.25"></line><line x1="256.66666666666663" y1="0" x2="256.66666666666663" y2="176.992" fill="rgb(0, 0, 0)" stroke="rgb(66, 66, 66)" stroke-width="1px" opacity="0.25"></line><line x1="280" y1="0" x2="280" y2="176.992" fill="rgb(0, 0, 0)" stroke="rgb(66, 66, 66)" stroke-width="1px" opacity="0.25"></line></g><g><line x1="0" y1="176.992" x2="280" y2="176.992" fill="rgb(0, 0, 0)" stroke="rgb(66, 66, 66)" stroke-width="1px" opacity="0.25"></line><line x1="0" y1="154.868" x2="280" y2="154.868" fill="rgb(0, 0, 0)" stroke="rgb(66, 66, 66)" stroke-width="1px" opacity="0.25"></line><line x1="0" y1="132.744" x2="280" y2="132.744" fill="rgb(0, 0, 0)" stroke="rgb(66, 66, 66)" stroke-width="1px" opacity="0.25"></line><line x1="0" y1="110.61999999999999" x2="280" y2="110.61999999999999" fill="rgb(0, 0, 0)" stroke="rgb(66, 66, 66)" stroke-width="1px" opacity="0.25"></line><line x1="0" y1="88.496" x2="280" y2="88.496" fill="rgb(0, 0, 0)" stroke="rgb(66, 66, 66)" stroke-width="1px" opacity="0.25"></line><line x1="0" y1="66.372" x2="280" y2="66.372" fill="rgb(0, 0, 0)" stroke="rgb(66, 66, 66)" stroke-width="1px" opacity="0.25"></line><line x1="0" y1="44.247999999999976" x2="280" y2="44.247999999999976" fill="rgb(0, 0, 0)" stroke="rgb(66, 66, 66)" stroke-width="1px" opacity="0.25"></line><line x1="0" y1="22.12400000000002" x2="280" y2="22.12400000000002" fill="rgb(0, 0, 0)" stroke="rgb(66, 66, 66)" stroke-width="1px" opacity="0.25"></line><line x1="0" y1="0" x2="280" y2="0" fill="rgb(0, 0, 0)" stroke="rgb(66, 66, 66)" stroke-width="1px" opacity="0.25"></line></g></g></g><g><g><line x1="0" y1="132.744" x2="280" y2="132.744" fill="rgb(0, 0, 0)" stroke="rgb(153, 153, 153)" stroke-width="1.5px"></line></g></g><g><g><line x1="23.333333333333332" y1="0" x2="23.333333333333332" y2="176.992" fill="rgb(0, 0, 0)" stroke="rgb(153, 153, 153)" stroke-width="1.5px"></line></g></g><g><g><g><g><g><path stroke="rgb(51, 187, 238)" stroke-width="2px" d="M23.333333333333332,5.5795305457115365L24.5,6.340828591227551L25.666666666666664,7.172027466316633L26.833333333333336,8.498863889050812L28,9.312015353909636L29.166666666666668,10.020824974428873L30.333333333333336,10.62249709153272L31.5,11.040981880076313L32.666666666666664,11.65232091466385L33.833333333333336,12.286062030591358L35,13.144453890074457L36.16666666666667,13.772272548354797L37.333333333333336,14.746870986611627L38.5,15.53017277316637L39.666666666666664,17.294128713520752L40.833333333333336,17.704489659683517L42,18.15019472783328L43.16666666666667,18.968691499909312L44.33333333333333,19.60419481052859L45.5,20.03957733317172L46.666666666666664,20.81747724849144L47.833333333333336,21.08631002606751L49,21.078670950391448L50.166666666666664,21.203789542717914L51.33333333333333,21.38439826979196L52.5,22.55284923092939L53.66666666666667,23.113427456206605L54.833333333333336,23.137989933879805L56,23.791660856622308L57.166666666666664,25.397483214365334L58.333333333333336,25.154095073833005L59.5,25.60801226107054L60.66666666666667,25.98577097445823L61.83333333333333,26.68275921938675L63,27.337457138670015L64.16666666666666,26.859102336320134L65.33333333333333,27.647486374913743L66.5,28.17191154239539L67.66666666666667,28.4759828103043L68.83333333333333,28.8034026969314L70,29.325872501699383L71.16666666666666,30.45573358418971L72.33333333333334,29.8636247617587L73.5,31.108290320146214L74.66666666666667,31.54858052882249L75.83333333333333,31.662413084089096L77,31.84006129154591L78.16666666666667,32.41121262971866L79.33333333333333,34.33862975194848L80.5,33.74434342390295L81.66666666666667,32.663959412700635L82.83333333333333,33.056642090015764L84,33.76022952538443L85.16666666666666,33.701989980207124L86.33333333333334,33.66493898142946L87.5,32.854074486765384L88.66666666666666,33.53532188131415L89.83333333333334,34.95671589547416L91,36.02880350369235L92.16666666666667,37.499367234432896L93.33333333333333,37.391833726337055L94.5,37.65754076285991L95.66666666666667,37.26018372094532L96.83333333333333,38.33011619026601L98,38.67899084205115L99.16666666666667,38.58984789783169L100.33333333333333,39.20684639424332L101.5,39.84773099986463L102.66666666666666,40.21702294506877L103.83333333333334,40.31765548762231L105,39.95859827943173L106.16666666666666,41.37993645550923L107.33333333333334,42.93001155697178L108.5,42.591574017637186L109.66666666666667,42.63245917927813L110.83333333333333,43.06317941848989L112,43.96632328582142L113.16666666666667,42.66499305348596L114.33333333333333,42.44865624688267L115.5,43.554108332861645L116.66666666666667,42.67805323328328L117.83333333333333,42.259200033555956L119,43.74078543399007L120.16666666666666,43.8442439059629L121.33333333333334,43.770327438224214L122.5,44.16305576841168L123.66666666666666,44.42410662112315L124.83333333333334,45.454883004866126L126,47.086437493444734L127.16666666666667,47.705912892604644L128.33333333333331,47.32263311049027L129.5,46.948036250094674L130.66666666666666,46.3549170236469L131.83333333333334,48.27062896432164L133,47.927672616706374L134.16666666666669,48.683925029889416L135.33333333333334,49.584138509163665L136.5,49.617796114378805L137.66666666666666,49.939277778776685L138.83333333333334,49.79802047996053L140,49.444608742978154L141.16666666666666,50.80707078549026L142.33333333333331,49.69593552654244L143.5,49.3197150015906L144.66666666666669,50.06624987946006L145.83333333333334,50.233914223444756L147,49.99072424798745L148.16666666666666,50.441983098063105L149.33333333333334,50.609611328144815L150.5,51.639371116077875L151.66666666666666,51.31740228514432L152.83333333333331,51.76162187550401L154,51.04361995309553L155.16666666666669,52.09256395641545L156.33333333333334,52.703347334382414L157.5,52.23957078437652L158.66666666666666,53.4343405003348L159.83333333333331,52.713784586226865L161,52.24425861584898L162.16666666666669,54.48618943312024L163.33333333333334,54.609995416845415L164.5,54.66414519989819L165.66666666666666,54.9602761186381L166.83333333333334,55.19523078863739L168,54.89576271224571L169.16666666666666,54.5609402534041L170.33333333333331,55.00349255646904L171.5,55.48360696424029L172.66666666666669,56.23103445938217L173.83333333333334,57.208410871189784L175,56.613944355202904L176.16666666666666,56.31690893728326L177.33333333333331,55.676401337234914L178.5,57.26548944402263L179.66666666666669,57.09207416644408L180.83333333333334,57.3956937158508L182,57.4087667840721L183.16666666666666,57.64832874987135L184.33333333333334,56.92207394069201L185.5,56.98891457964041L186.66666666666666,57.98969748035108L187.83333333333331,58.38737067431829L189,58.38992324010503L190.16666666666669,59.384794689130615L191.33333333333334,59.2143700081538L192.5,59.1777544703502L193.66666666666666,60.00119405841939L194.83333333333331,60.770455887032206L196,60.29805119030038L197.16666666666669,60.3366174178622L198.33333333333334,60.56786012213838L199.5,60.45002497897988L200.66666666666666,61.2688589143899L201.83333333333334,60.593453413590574L203,61.39025958925773L204.16666666666666,61.41132116846019L205.33333333333331,61.85259669058188L206.5,61.73751771359838L207.66666666666669,59.75424742272614L208.83333333333334,59.750001390857214L210,60.78024634328053L211.16666666666666,60.74587492741682L212.33333333333331,61.78355344994987L213.5,60.8159590301521L214.66666666666669,61.12401431436581L215.83333333333334,61.42518523294473L217,61.349016905872496L218.16666666666666,62.55136667800453L219.33333333333334,61.46441832356757L220.5,61.575624957496544L221.66666666666666,61.548381500586665L222.83333333333331,62.90375060206938L224,63.27842219056061L225.16666666666669,63.28936739896163L226.33333333333334,63.53389270490663L227.5,63.32959814287576L228.66666666666666,63.22110768600315L229.83333333333331,63.078165679812514L231,63.79811408531671L232.16666666666669,63.51511143319609L233.33333333333334,63.26407570581914L234.5,63.80470003746318L235.66666666666666,63.47699669264774L236.83333333333334,63.32488321732892L238,63.08199442987093L239.16666666666666,63.883860875966846L240.33333333333331,64.21252926466623L241.5,63.045605520092025L242.66666666666669,63.7054379920021L243.83333333333334,65.99289204439253L245,65.7933609081312L246.16666666666666,64.41515004555009L247.33333333333331,65.12095377597583L248.5,65.3309448662363L249.66666666666669,65.30254428771511L250.83333333333334,66.04283997251615L252,66.0837953007819L253.16666666666666,66.23302983702432L254.33333333333334,66.09287267182594L255.5,66.46671567195848" style="fill: none;" fill="none"></path></g><g><path stroke="rgb(204, 51, 17)" stroke-width="2px" d="M23.333333333333332,40.57541844749453L24.5,84.74075703208894L25.666666666666664,101.77197345256928L26.833333333333336,109.78891039831136L28,114.48844857139126L29.166666666666668,117.18159256485276L30.333333333333336,118.91342656025493L31.5,120.13854769938659L32.666666666666664,120.74810987212504L33.833333333333336,121.22990840637982L35,121.75778352227343L36.16666666666667,122.29014028843125L37.333333333333336,122.65143811532782L38.5,123.33098578438778L39.666666666666664,123.72178799190279L40.833333333333336,124.88249116587737L42,125.92935355281675L43.16666666666667,126.50609788900684L44.33333333333333,126.96181461634173L45.5,127.79707120314353L46.666666666666664,128.61372412893698L47.833333333333336,128.67386454391087L49,129.0516039427129L50.166666666666664,129.59686957685688L51.33333333333333,130.44945578259694L52.5,131.1023919642241L53.66666666666667,130.8305579633637L54.833333333333336,131.60599612452268L56,131.96491846362963L57.166666666666664,132.76559273486296L58.333333333333336,132.5870198123015L59.5,132.94276947100644L60.66666666666667,133.01460139333219L61.83333333333333,133.99270292745004L63,134.5322202721417L64.16666666666666,134.9414339966979L65.33333333333333,134.29117878038383L66.5,134.6329608965076L67.66666666666667,134.33370919295825L68.83333333333333,134.40967652393408L70,134.5625057428157L71.16666666666666,135.63663248171494L72.33333333333334,136.4481107937419L73.5,137.08540940630888L74.66666666666667,134.8286111777058L75.83333333333333,136.44076103525268L77,136.90849140853192L78.16666666666667,137.82619013375023L79.33333333333333,137.96750745142876L80.5,138.1384020768202L81.66666666666667,138.74350105755008L82.83333333333333,139.15534929072066L84,139.5303384999115L85.16666666666666,138.89097464780616L86.33333333333334,139.02856601719034L87.5,139.57846734344963L88.66666666666666,139.29735045388932L89.83333333333334,140.78734675402418L91,141.3172358796655L92.16666666666667,139.48022956337078L93.33333333333333,141.04443191666337L94.5,140.69448230716543L95.66666666666667,141.10263479571913L96.83333333333333,142.20515025435313L98,143.13733481743589L99.16666666666667,142.72940851750764L100.33333333333333,143.56663223432773L101.5,144.3556114561753L102.66666666666666,144.31102554649095L103.83333333333334,143.5157953412293L105,142.6304010243153L106.16666666666666,142.8182105617842L107.33333333333334,143.75203201000218L108.5,144.32791710686877L109.66666666666667,144.8598385201585L110.83333333333333,145.54797720922775L112,145.95036593282074L113.16666666666667,146.67605395531564L114.33333333333333,146.39153151233143L115.5,146.64078291687454L116.66666666666667,147.03487090068512L117.83333333333333,147.03756620713145L119,146.7276009225492L120.16666666666666,146.99207579703594L121.33333333333334,146.72609701798834L122.5,148.2208132881074L123.66666666666666,148.5534223788827L124.83333333333334,149.14405222436483L126,148.83014413021024L127.16666666666667,149.51487304829368L128.33333333333331,149.77215517400984L129.5,149.1709033779817L130.66666666666666,150.1975289353202L131.83333333333334,150.61774756670417L133,149.5879336068417L134.16666666666669,149.72850742679748L135.33333333333334,150.22074856864162L136.5,150.85707697524276L137.66666666666666,151.5206398462632L138.83333333333334,151.7871317712652L140,151.65820872818156L141.16666666666666,152.38452058107092L142.33333333333331,153.48088659206886L143.5,153.32553142354405L144.66666666666669,154.68725424540943L145.83333333333334,153.54857169418875L147,152.97992363181913L148.16666666666666,154.72317065622332L149.33333333333334,154.29510937000467L150.5,152.5902486054966L151.66666666666666,152.91788889065202L152.83333333333331,151.42003740555535L154,153.02093577505642L155.16666666666669,154.15305985413488L156.33333333333334,155.39920027135906L157.5,155.68496213170943L158.66666666666666,156.3219034281317L159.83333333333331,158.04652883318326L161,156.57440705790077L162.16666666666669,156.1798614585993L163.33333333333334,156.726566409242L164.5,157.30987914474716L165.66666666666666,157.90760901086276L166.83333333333334,157.8121641713902L168,158.16325763822346L169.16666666666666,156.9670111937329L170.33333333333331,157.52817942754058L171.5,158.4491339662768L172.66666666666669,159.9113168361603L173.83333333333334,161.03404590489976L175,160.79197622167175L176.16666666666666,160.69375900985662L177.33333333333331,160.78409024296917L178.5,160.2532125198526L179.66666666666669,160.34520825393696L180.83333333333334,159.9889899118167L182,160.16811408287415L183.16666666666666,161.47889082015828L184.33333333333334,161.42890319703386L185.5,161.98957570775966L186.66666666666666,161.87753914308917L187.83333333333331,162.33258563070518L189,161.05884578660144L190.16666666666669,161.83549220139392L191.33333333333334,162.65739401573305L192.5,163.43823834735372L193.66666666666666,163.83695970424543L194.83333333333331,162.98389128055888L196,162.19123319901655L197.16666666666669,163.05387586244123L198.33333333333334,163.1176965064059L199.5,162.7408062631995L200.66666666666666,163.42871373228493L201.83333333333334,164.21909896772064L203,164.5483543015537L204.16666666666666,164.86625275842056L205.33333333333331,164.53248162774864L206.5,163.54192481925858L207.66666666666669,163.87315640870793L208.83333333333334,164.1584069085125L210,164.77849574551604L211.16666666666666,166.13303743124976L212.33333333333331,164.65006666169745L213.5,163.94419046689382L214.66666666666669,165.09485602966134L215.83333333333334,165.27416286544315L217,165.8162036157388L218.16666666666666,166.68563163437477L219.33333333333334,166.97737824901358L220.5,166.77390062070143L221.66666666666666,166.7547446383968L222.83333333333331,166.5904949519357L224,165.58947637623075L225.16666666666669,164.62889628387407L226.33333333333334,165.01250542064258L227.5,166.11222640392631L228.66666666666666,165.3217642114964L229.83333333333331,165.68803378510518L231,166.31414159598376L232.16666666666669,166.44961555408491L233.33333333333334,167.65573596443565L234.5,166.68414903057712L235.66666666666666,166.43670669644533L236.83333333333334,166.78477542534742L238,166.09226615066098L239.16666666666666,167.41123638183333L240.33333333333331,167.60889143041646L241.5,167.3098240055315L242.66666666666669,168.39813823218776L243.83333333333334,169.46946766788741L245,170.66176476950037L246.16666666666666,169.61689469534508L247.33333333333331,167.85644510873766L248.5,169.1644418634451L249.66666666666669,169.5839447676585L250.83333333333334,170.8254575968412L252,170.79849198903008L253.16666666666666,169.99156750119545L254.33333333333334,169.9860404034425L255.5,168.45226864251907" style="fill: none;" fill="none"></path></g><g><path stroke="rgb(0, 119, 187)" stroke-width="2px" d="M23.333333333333332,10.447486349582691L24.5,10.654990960299989L25.666666666666664,11.244328221807685L26.833333333333336,11.716205645520887L28,12.12767183273157L29.166666666666668,12.471509822824686L30.333333333333336,12.78176931895278L31.5,13.014992175587517L32.666666666666664,13.65162846672298L33.833333333333336,14.35232203425765L35,15.153978444904995L36.16666666666667,16.114306334465063L37.333333333333336,16.371058973374375L38.5,16.590195882368274L39.666666666666664,17.362807197174405L40.833333333333336,17.86309636048938L42,18.55988319310989L43.16666666666667,19.304041569676308L44.33333333333333,19.436931355957704L45.5,20.370734984867823L46.666666666666664,21.16960224875239L47.833333333333336,22.36040846405745L49,22.11619257510363L50.166666666666664,20.7866168374173L51.33333333333333,21.45866862890426L52.5,22.782266118358855L53.66666666666667,22.281061637018368L54.833333333333336,22.96754786911412L56,23.79653686430577L57.166666666666664,24.22927980073082L58.333333333333336,24.883518108267936L59.5,24.640553741131882L60.66666666666667,25.352985958165394L61.83333333333333,25.550122312511565L63,25.777541806772124L64.16666666666666,25.87588854285279L65.33333333333333,26.734989927769824L66.5,27.65168425013534L67.66666666666667,29.17791620371573L68.83333333333333,29.4034381853605L70,29.374742868201647L71.16666666666666,28.50237162429831L72.33333333333334,30.24293140804207L73.5,31.251372450117756L74.66666666666667,31.92990147125889L75.83333333333333,31.779319809595307L77,32.41204192144828L78.16666666666667,31.897777930243127L79.33333333333333,33.26750185986415L80.5,32.36199323293463L81.66666666666667,33.10759721406402L82.83333333333333,33.066634338284025L84,32.983704440441265L85.16666666666666,33.171812374119085L86.33333333333334,33.33544154625195L87.5,34.207887101633034L88.66666666666666,33.71970051468759L89.83333333333334,34.74826680348738L91,35.50888566745777L92.16666666666667,36.45586622684877L93.33333333333333,36.5954265374284L94.5,35.999228705641094L95.66666666666667,36.110418832919855L96.83333333333333,37.328652700890224L98,37.4347513664181L99.16666666666667,37.17715581262201L100.33333333333333,37.604123702645865L101.5,38.207922503447875L102.66666666666666,39.062345983777234L103.83333333333334,38.614572106333846L105,38.97829499738948L106.16666666666666,40.18607344265899L107.33333333333334,41.29548506386352L108.5,41.16188266124291L109.66666666666667,41.14689367307401L110.83333333333333,41.99092068784937L112,43.46110379343928L113.16666666666667,42.64575489653173L114.33333333333333,42.75607621710908L115.5,43.737858770235874L116.66666666666667,43.29053042346507L117.83333333333333,42.81083921021383L119,43.346295172227386L120.16666666666666,44.26790644837201L121.33333333333334,45.09962121181954L122.5,45.610038304026524L123.66666666666666,45.50342682972883L124.83333333333334,44.98236924690804L126,45.46620162998916L127.16666666666667,45.3800880091863L128.33333333333331,46.32211051863892L129.5,47.200289472213136L130.66666666666666,48.52221321465418L131.83333333333334,48.40318783985285L133,47.99652652742093L134.16666666666669,47.72761435137763L135.33333333333334,49.10840221335039L136.5,48.1803360792729L137.66666666666666,48.46743364801007L138.83333333333334,48.47328102449176L140,47.712258628580564L141.16666666666666,48.746599239667404L142.33333333333331,47.934728324604144L143.5,47.52849441406256L144.66666666666669,48.64121460087971L145.83333333333334,49.09067684163975L147,49.10992908004716L148.16666666666666,48.741433054088326L149.33333333333334,49.739121768259274L150.5,49.85577374550298L151.66666666666666,50.59440302436707L152.83333333333331,49.75432862807012L154,49.30619658031877L155.16666666666669,51.07949832853566L156.33333333333334,52.80259123058846L157.5,52.68290694229442L158.66666666666666,52.83600476270101L159.83333333333331,52.42138506043662L161,52.72550172069496L162.16666666666669,51.83903904053464L163.33333333333334,52.260692632847416L164.5,53.06959307719075L165.66666666666666,53.82494104328635L166.83333333333334,53.79354591059019L168,53.20680570902425L169.16666666666666,53.43976288555858L170.33333333333331,53.91686417683839L171.5,54.20080668902923L172.66666666666669,54.82687826676682L173.83333333333334,54.09464752804943L175,54.62583824007337L176.16666666666666,54.274667091039554L177.33333333333331,53.29143438710434L178.5,54.23386632817783L179.66666666666669,54.83033324380995L180.83333333333334,54.78923750255272L182,54.733469448743854L183.16666666666666,54.78651752520717L184.33333333333334,54.85404603234004L185.5,55.23019955734653L186.66666666666666,56.25669183085108L187.83333333333331,56.30934960940922L189,56.54369071266322L190.16666666666669,56.593772363884824L191.33333333333334,55.43458166383721L192.5,56.726773006194946L193.66666666666666,56.58669321741704L194.83333333333331,56.085255222213554L196,56.513205123932536L197.16666666666669,56.48105466815912L198.33333333333334,56.661752124721296L199.5,56.809699744853084L200.66666666666666,56.99869427194159L201.83333333333334,58.43492484573103L203,58.096003616449686L204.16666666666666,58.1025288076147L205.33333333333331,58.70755437544256L206.5,59.32787840048828L207.66666666666669,59.35775062046265L208.83333333333334,59.824195782529216L210,59.40892960426025L211.16666666666666,60.197175257520755L212.33333333333331,59.84370819501694L213.5,59.9622348825253L214.66666666666669,60.11849100027781L215.83333333333334,59.505625577988035L217,60.38400015233864L218.16666666666666,59.842783215850055L219.33333333333334,59.29783657084074L220.5,58.51786319700577L221.66666666666666,59.32036882390794L222.83333333333331,60.49473468593491L224,60.38465238134702L225.16666666666669,61.53017871413613L226.33333333333334,61.15931446152913L227.5,61.04921186455483L228.66666666666666,60.893320928242176L229.83333333333331,61.87721933888579L231,61.509577914137715L232.16666666666669,60.73897141660399L233.33333333333334,61.24103903616158L234.5,62.327215887669816L235.66666666666666,61.933641402795395L236.83333333333334,61.9782491232362L238,61.93465883797449L239.16666666666666,61.25498143531107L240.33333333333331,61.98552367802396L241.5,61.55143591434917L242.66666666666669,62.196063032431375L243.83333333333334,62.04456985404669L245,63.05006708971605L246.16666666666666,62.97938926868409L247.33333333333331,62.75464951007822L248.5,63.49033830776967L249.66666666666669,63.73230715794062L250.83333333333334,63.605766467444255L252,63.916332556934435L253.16666666666666,63.58011103432851L254.33333333333334,63.97686173711704L255.5,64.16942779428055" style="fill: none;" fill="none"></path></g><g><path stroke="rgb(255, 112, 67)" stroke-width="2px" d="M23.333333333333332,8.87717334651949L24.5,9.709969286859055L25.666666666666664,10.427815215315167L26.833333333333336,10.686861543858747L28,11.035481005491935L29.166666666666668,11.441656855587349L30.333333333333336,11.98352446063415L31.5,12.341175160023155L32.666666666666664,12.769256848418028L33.833333333333336,12.926233723174425L35,13.2872619827688L36.16666666666667,13.83458372962798L37.333333333333336,14.356092858766628L38.5,15.383801509968771L39.666666666666664,15.97181493092063L40.833333333333336,16.800971513942315L42,16.82076775544645L43.16666666666667,17.16858554538419L44.33333333333333,18.428864717006547L45.5,18.61586176521102L46.666666666666664,19.624296074830486L47.833333333333336,19.93716372511955L49,20.78747747814187L50.166666666666664,20.698106833485845L51.33333333333333,21.27796825157247L52.5,21.555183511605865L53.66666666666667,22.25380867899809L54.833333333333336,22.605933008170076L56,23.135199890680042L57.166666666666664,23.45822456104573L58.333333333333336,24.229938210324967L59.5,25.162705974807483L60.66666666666667,25.18929276235112L61.83333333333333,24.83845295820692L63,25.97998410428986L64.16666666666666,25.79222855983091L65.33333333333333,26.61119767239234L66.5,27.99511814432552L67.66666666666667,28.18485719730932L68.83333333333333,29.48788493608658L70,28.944085277068893L71.16666666666666,29.618609195263907L72.33333333333334,30.848116008083416L73.5,31.36452228400141L74.66666666666667,31.47771725053192L75.83333333333333,31.097014817038907L77,32.689471247613234L78.16666666666667,32.92324280058661L79.33333333333333,33.585423386411755L80.5,32.66159371975918L81.66666666666667,33.752386737231895L82.83333333333333,33.73628070147299L84,33.08997575835748L85.16666666666666,33.1289640975736L86.33333333333334,34.68111280789131L87.5,34.495218375004164L88.66666666666666,34.58354021336844L89.83333333333334,34.65945220352537L91,34.65431938205558L92.16666666666667,35.151343520941765L93.33333333333333,35.16707283009434L94.5,35.98576339724867L95.66666666666667,36.85330111705786L96.83333333333333,36.70150913989262L98,36.74514373476333L99.16666666666667,36.6464574362697L100.33333333333333,37.621238239494694L101.5,37.74442960837349L102.66666666666666,36.51850066873349L103.83333333333334,37.37561079447816L105,38.33916090465399L106.16666666666666,38.4337578372527L107.33333333333334,39.18637719094567L108.5,40.58236783382781L109.66666666666667,39.51415521462849L110.83333333333333,40.08007979974802L112,41.46346458412206L113.16666666666667,41.50409144254323L114.33333333333333,41.52684820239424L115.5,42.30284932423043L116.66666666666667,42.80527318516021L117.83333333333333,43.52212639698175L119,43.25457579508296L120.16666666666666,43.770957007353736L121.33333333333334,43.47878384501055L122.5,43.96326697162578L123.66666666666666,45.97688748495454L124.83333333333334,45.40708690305157L126,44.380266776535514L127.16666666666667,44.883608050235296L128.33333333333331,44.75084495404255L129.5,45.58121197196777L130.66666666666666,45.92178505271038L131.83333333333334,46.77101469245766L133,46.3040100802375L134.16666666666669,46.869975790917444L135.33333333333334,46.92348847252108L136.5,47.175005524384844L137.66666666666666,47.58502577471008L138.83333333333334,47.585476159234496L140,48.35820783241965L141.16666666666666,47.96312176203953L142.33333333333331,47.4381018194689L143.5,47.98372439591491L144.66666666666669,48.200425299551476L145.83333333333334,49.178125542108056L147,49.051699284233955L148.16666666666666,49.41962597637074L149.33333333333334,48.675014201430685L150.5,48.276242292754795L151.66666666666666,48.523447692032434L152.83333333333331,49.33360193001969L154,50.84277618791904L155.16666666666669,51.74458048964884L156.33333333333334,52.556725724705124L157.5,51.39109956045632L158.66666666666666,51.75325075743009L159.83333333333331,51.002583772023996L161,51.287895682239785L162.16666666666669,51.99033419260042L163.33333333333334,52.09526346722042L164.5,51.91868305668111L165.66666666666666,51.266682434087244L166.83333333333334,51.98140935478524L168,51.65641456171224L169.16666666666666,51.93315906512946L170.33333333333331,52.06299709036474L171.5,51.617215202632714L172.66666666666669,51.97138066348029L173.83333333333334,52.913676383928L175,53.215932332393834L176.16666666666666,52.65921597664198L177.33333333333331,53.92918386435889L178.5,54.460316809608855L179.66666666666669,55.005935757609784L180.83333333333334,54.49173825014388L182,54.81258188107464L183.16666666666666,54.066028197973075L184.33333333333334,54.25241377242157L185.5,54.87232440509645L186.66666666666666,53.96685535701662L187.83333333333331,55.86499453430505L189,55.0877245692082L190.16666666666669,55.67236367686199L191.33333333333334,55.74712356376412L192.5,55.92067867364742L193.66666666666666,55.68137393011009L194.83333333333331,56.33362768143029L196,55.96658103362092L197.16666666666669,55.40662076325039L198.33333333333334,56.1692531482388L199.5,56.43576185236032L200.66666666666666,56.17695562234914L201.83333333333334,56.533456700130685L203,56.95470602205061L204.16666666666666,58.24026664845147L205.33333333333331,57.18264418201443L206.5,57.25607442291258L207.66666666666669,55.917298171089186L208.83333333333334,56.53947379238969L210,58.13556113519411L211.16666666666666,59.185063156927455L212.33333333333331,58.09000338650039L213.5,58.32025285501653L214.66666666666669,58.38451879570111L215.83333333333334,57.410213879616414L217,58.993338308829856L218.16666666666666,58.43835197964833L219.33333333333334,59.398961249682465L220.5,58.84905208197425L221.66666666666666,59.47264305653089L222.83333333333331,58.21383352612206L224,58.414864088241764L225.16666666666669,59.63756441051034L226.33333333333334,60.56477667206686L227.5,59.90375243741371L228.66666666666666,60.25612396344006L229.83333333333331,60.13132495856558L231,59.57518848653004L232.16666666666669,60.2832161780081L233.33333333333334,60.240722222654945L234.5,61.00034147148663L235.66666666666666,60.947643399604175L236.83333333333334,60.59409463246347L238,60.79341346273234L239.16666666666666,60.24978649726755L240.33333333333331,59.899971424384404L241.5,59.766500649335086L242.66666666666669,59.70620913126591L243.83333333333334,60.69166273566796L245,61.691007134370295L246.16666666666666,63.31924191213385L247.33333333333331,62.33633836551154L248.5,62.38812199866558L249.66666666666669,62.96785029251448L250.83333333333334,63.70836508092327L252,63.15972437759068L253.16666666666666,62.43771708724396L254.33333333333334,62.48579351862369L255.5,63.906134950495336" style="fill: none;" fill="none"></path></g></g></g></g><g opacity="0.2"><g><g><g><path stroke="rgb(51, 187, 238)" stroke-width="2px" d="M23.333333333333332,5.5795305457115365L24.5,6.797607418537159L25.666666666666664,7.96997838640215L26.833333333333336,10.059223522186299L28,10.37366590642931L29.166666666666668,11.001363851070423L30.333333333333336,11.482897845745105L31.5,11.651136719226857L32.666666666666664,12.55392724418642L33.833333333333336,13.227093729019185L35,14.424256128311177L36.16666666666667,14.71058397436144L37.333333333333336,16.205586410999317L38.5,16.703590883255025L39.666666666666664,19.9379891600609L40.833333333333336,18.31974166059496L42,18.81856372261049L43.16666666666667,20.196228841781636L44.33333333333333,20.557352963924426L45.5,20.6926113214493L46.666666666666664,21.98428445959093L47.833333333333336,21.48955034637453L49,21.06721248769762L50.166666666666664,21.391465949058553L51.33333333333333,21.65531007671358L52.5,24.305520689725896L53.66666666666667,23.954293359756488L54.833333333333336,23.174833612680455L56,24.772166638612767L57.166666666666664,27.80621586346628L58.333333333333336,24.789012943744677L59.5,26.28888795161249L60.66666666666667,26.552408999443074L61.83333333333333,27.728241536855716L63,28.319503989458102L64.16666666666666,26.141570145130174L65.33333333333333,28.83006242060663L66.5,28.958549288749712L67.66666666666667,28.93208971047403L68.83333333333333,29.294532525777836L70,30.109577207803746L71.16666666666666,32.150525206565874L72.33333333333334,28.975461528539675L73.5,32.975288657188436L74.66666666666667,32.209015841722504L75.83333333333333,31.833161916971225L77,32.106533602714556L78.16666666666667,33.26793963694574L79.33333333333333,37.22975543522836L80.5,32.852913931846636L81.66666666666667,31.043383395910283L82.83333333333333,33.64566610598566L84,34.81561067843439L85.16666666666666,33.61463066244127L86.33333333333334,33.609362483263034L87.5,31.63777774477007L88.66666666666666,34.55719297313692L89.83333333333334,37.08880691671373L91,37.636934916019456L92.16666666666667,39.70521283054354L93.33333333333333,37.230533464193364L94.5,38.056101317644135L95.66666666666667,36.664148158073445L96.83333333333333,39.935014894247075L98,39.20230281972887L99.16666666666667,38.45613348150255L100.33333333333333,40.13234413886072L101.5,40.8090579082966L102.66666666666666,40.770960862875L103.83333333333334,40.46860430145266L105,39.42001246714594L106.16666666666666,43.51194371962549L107.33333333333334,45.255124209165594L108.5,42.08391770863535L109.66666666666667,42.693786921739594L110.83333333333333,43.70925977730753L112,45.321039086818715L113.16666666666667,40.712997704982776L114.33333333333333,42.124151036977786L115.5,45.21228646183015L116.66666666666667,41.36397058391573L117.83333333333333,41.630920233964936L119,45.96316353464128L120.16666666666666,43.999431613922134L121.33333333333334,43.65945273661615L122.5,44.752148263692874L123.66666666666666,44.81568290019037L124.83333333333334,47.001047580480595L126,49.53376922631266L127.16666666666667,48.63512599134447L128.33333333333331,46.74771343731882L129.5,46.38614095950128L130.66666666666666,45.46523818397524L131.83333333333334,51.144196875333805L133,47.413238095283525L134.16666666666669,49.81830364966394L135.33333333333334,50.93445872807504L136.5,49.66828252220156L137.66666666666666,50.421500275373475L138.83333333333334,49.58613453173639L140,48.9144911375046L141.16666666666666,52.85076384925844L142.33333333333331,48.02923263812067L143.5,48.755384214162845L144.66666666666669,51.186052196264285L145.83333333333334,50.48541073942186L147,49.6259392848015L148.16666666666666,51.11887137317659L149.33333333333334,50.86105367326738L150.5,53.184010797977464L151.66666666666666,50.83444903874399L152.83333333333331,52.42795126104357L154,49.96661706948282L155.16666666666669,53.66597996139528L156.33333333333334,53.61952240133287L157.5,51.54390595936777L158.66666666666666,55.22649507427217L159.83333333333331,51.63295071506502L161,51.53996966028215L162.16666666666669,57.84908565902712L163.33333333333334,54.79570439243318L164.5,54.745369874477404L165.66666666666666,55.404472496747985L166.83333333333334,55.54766279363634L168,54.44656059765818L169.16666666666666,54.0587065651417L170.33333333333331,55.667321011066456L171.5,56.20377857589723L172.66666666666669,57.352175702095046L173.83333333333334,58.67447548890115L175,55.72224458122255L176.16666666666666,55.87135581040384L177.33333333333331,54.715639937162415L178.5,59.6491216042042L179.66666666666669,56.83195125007631L180.83333333333334,57.851123039960875L182,57.428376386404054L183.16666666666666,58.00767169857027L184.33333333333334,55.832691726923L185.5,57.08917553806307L186.66666666666666,59.4908718314171L187.83333333333331,58.9838804652691L189,58.393752088785185L190.16666666666669,60.87710186266901L191.33333333333334,58.95873298668863L192.5,59.122831163644804L193.66666666666666,61.23635344052316L194.83333333333331,61.924348629951496L196,59.589444145202656L197.16666666666669,60.39446675920488L198.33333333333334,60.914724178552646L199.5,60.27327226424219L200.66666666666666,62.4971098175049L201.83333333333334,59.58034516239168L203,62.585468852758424L204.16666666666666,61.442913537263884L205.33333333333331,62.51450997376443L206.5,61.56489924812318L207.66666666666669,56.77934198641778L208.83333333333334,59.74363234305383L210,62.32561377191545L211.16666666666666,60.69431780362131L212.33333333333331,63.340071233749406L213.5,59.36456740045549L214.66666666666669,61.586097240686435L215.83333333333334,61.876941610813155L217,61.234764415264145L218.16666666666666,64.35489133620264L219.33333333333334,59.833995791912095L220.5,61.74243490839006L221.66666666666666,61.5075163152218L222.83333333333331,64.93680425429346L224,63.84042957329752L225.16666666666669,63.305785211563126L226.33333333333334,63.9006806638241L227.5,63.0231562998295L228.66666666666666,63.05837200069429L229.83333333333331,62.86375267052652L231,64.87803669357301L232.16666666666669,63.090607455015196L233.33333333333334,62.887522114753736L234.5,64.6156365349293L235.66666666666666,62.98544167542459L236.83333333333334,63.096713004350676L238,62.717661248683946L239.16666666666666,65.08666054511072L240.33333333333331,64.70553184771539L241.5,61.29521990323068L242.66666666666669,64.69518669986726L243.83333333333334,69.4240731229782L245,65.49406420373919L246.16666666666666,62.347833751678486L247.33333333333331,66.17965937161448L248.5,65.64593150162699L249.66666666666669,65.25994341993334L250.83333333333334,67.1532834997177L252,66.14522829318048L253.16666666666666,66.45688164138794L254.33333333333334,65.88263692402842L255.5,67.02748017215728" style="fill: none;" fill="none"></path></g><g><path stroke="rgb(204, 51, 17)" stroke-width="2px" d="M23.333333333333332,40.57541844749453L24.5,111.23996018284559L25.666666666666664,118.12194121623038L26.833333333333336,119.21682824650406L28,120.6241656101644L29.166666666666668,120.90718023964762L30.333333333333336,121.38997688302398L31.5,121.92478608140348L32.666666666666664,121.64709567555785L33.833333333333336,121.94532307901977L35,122.54480840766429L36.16666666666667,123.08577837565541L37.333333333333336,123.19220515558123L38.5,124.34897598335147L39.666666666666664,124.30753192985057L40.833333333333336,126.62272730903327L42,127.4992041361481L43.16666666666667,127.37106795796751L44.33333333333333,127.64532028348744L45.5,129.04987973758577L46.666666666666664,129.83865873043985L47.833333333333336,128.76407318742574L49,129.61820558311044L50.166666666666664,130.41476156888157L51.33333333333333,131.7283290313892L52.5,132.08179345219023L53.66666666666667,130.4228076576218L54.833333333333336,132.76915217578096L56,132.50330164167192L57.166666666666664,133.9666036991924L58.333333333333336,132.31916048767604L59.5,133.47639388828165L60.66666666666667,133.1223492682455L61.83333333333333,135.45985515856742L63,135.3414962659925L64.16666666666666,135.5552545729801L65.33333333333333,133.31579596597328L66.5,135.1456340675205L67.66666666666667,133.884831639301L68.83333333333333,134.52362752014398L70,134.79174957083166L71.16666666666666,137.24782258877158L72.33333333333334,137.6653282611966L73.5,138.04135732488334L74.66666666666667,131.44341383538767L75.83333333333333,138.8589858213216L77,137.61008696840702L78.16666666666667,139.20273822152615L79.33333333333333,138.1794834279418L80.5,138.3947440149039L81.66666666666667,139.65114952863752L82.83333333333333,139.7731216404736L84,140.09282231369613L85.16666666666666,137.93192886964977L86.33333333333334,139.2349530712664L87.5,140.40331933283804L88.66666666666666,138.87567511954902L89.83333333333334,143.022341204226L91,142.1120695681274L92.16666666666667,136.72472008892893L93.33333333333333,143.3907354466021L94.5,140.1695578929186L95.66666666666667,141.71486352854967L96.83333333333333,143.85892344230413L98,144.53561166206L99.16666666666667,142.11751906761526L100.33333333333333,144.8224678095579L101.5,145.53908028894662L102.66666666666666,144.2441466819644L103.83333333333334,142.32295003333687L105,141.30230954894424L106.16666666666666,143.09992486798762L107.33333333333334,145.15276418232918L108.5,145.19174475216866L109.66666666666667,145.6577206400931L110.83333333333333,146.5801852428317L112,146.55394901821018L113.16666666666667,147.76458598905802L114.33333333333333,145.96474784785508L115.5,147.01466002368926L116.66666666666667,147.62600287640095L117.83333333333333,147.04160916680098L119,146.2626529956758L120.16666666666666,147.38878810876608L121.33333333333334,146.32712884941697L122.5,150.46288769328592L123.66666666666666,149.05233601504563L124.83333333333334,150.02999699258802L126,148.35928198897838L127.16666666666667,150.54196642541885L128.33333333333331,150.1580783625841L129.5,148.26902568393945L130.66666666666666,151.73746727132797L131.83333333333334,151.24807551378012L133,148.04321266704798L134.16666666666669,149.93936815673112L135.33333333333334,150.95911028140782L136.5,151.81156958514453L137.66666666666666,152.51598415279386L138.83333333333334,152.18686965876816L140,151.4648241635561L141.16666666666666,153.47398836040497L142.33333333333331,155.1254356085658L143.5,153.0924986707568L144.66666666666669,156.72983847820757L145.83333333333334,151.8405478673577L147,152.12695153826473L148.16666666666666,157.3380411928296L149.33333333333334,153.65301744067668L150.5,150.0329574587345L151.66666666666666,153.40934931838513L152.83333333333331,149.17326017791032L154,155.42228332930802L155.16666666666669,155.85124597275257L156.33333333333334,157.26841089719534L157.5,156.113604922235L158.66666666666666,157.27731537276506L159.83333333333331,160.6334669407606L161,154.36622439497708L162.16666666666669,155.58804305964708L163.33333333333334,157.54662383520602L164.5,158.1848482480049L165.66666666666666,158.80420381003617L166.83333333333334,157.66899691218137L168,158.6898978384733L169.16666666666666,155.17264152699707L170.33333333333331,158.36993177825212L171.5,159.83056577438114L172.66666666666669,162.1045911409855L173.83333333333334,162.71813950800896L175,160.4288716968298L176.16666666666666,160.5464331921339L177.33333333333331,160.919587092638L178.5,159.45689593517778L179.66666666666669,160.48320185506344L180.83333333333334,159.45466239863634L182,160.43680033946038L183.16666666666666,163.4450559260845L184.33333333333334,161.3539217623472L185.5,162.83058447384835L186.66666666666666,161.70948429608345L187.83333333333331,163.0151553621292L189,159.1482360204458L190.16666666666669,163.00046182358264L191.33333333333334,163.89024673724174L192.5,164.60950484478474L193.66666666666666,164.435041739583L194.83333333333331,161.70428864502907L196,161.00224607670307L197.16666666666669,164.34783985757826L198.33333333333334,163.21342747235298L199.5,162.17547089838982L200.66666666666666,164.4605749359131L201.83333333333334,165.40467682087422L203,165.0422373023033L204.16666666666666,165.3431004437208L205.33333333333331,164.03182493174074L206.5,162.0560896065235L207.66666666666669,164.37000379288196L208.83333333333334,164.58628265821932L210,165.70862900102136L211.16666666666666,168.1648499598503L212.33333333333331,162.42561050736904L213.5,162.88537617468833L214.66666666666669,166.82085437381267L215.83333333333334,165.54312311911582L217,166.6292647411823L218.16666666666666,167.9897736623287L219.33333333333334,167.41499817097187L220.5,166.46868417823313L221.66666666666666,166.72601066493988L222.83333333333331,166.34412042224406L224,164.08794851267336L225.16666666666669,163.188026145339L226.33333333333334,165.58791912579537L227.5,167.76180787885187L228.66666666666666,164.13607092285156L229.83333333333331,166.2374381455183L231,167.25330331230163L232.16666666666669,166.65282649123668L233.33333333333334,169.46491657996177L234.5,165.22676862978935L235.66666666666666,166.06554319524764L236.83333333333334,167.3068785187006L238,165.05350223863124L239.16666666666666,169.3896917285919L240.33333333333331,167.90537400329112L241.5,166.8612228682041L242.66666666666669,170.03060957217215L243.83333333333334,171.07646182143688L245,172.45021042191982L246.16666666666666,168.04958958411217L247.33333333333331,165.21577072882653L248.5,171.12643699550628L249.66666666666669,170.2131991239786L250.83333333333334,172.68772684061526L252,170.7580435773134L253.16666666666666,168.7811807694435L254.33333333333334,169.97774975681304L255.5,166.15161100113392" style="fill: none;" fill="none"></path></g><g><path stroke="rgb(0, 119, 187)" stroke-width="2px" d="M23.333333333333332,10.447486349582691L24.5,10.779493726730365L25.666666666666664,11.81009199285509L26.833333333333336,12.271133495807666L28,12.664882086753865L29.166666666666668,12.947161544799824L30.333333333333336,13.225445362567921L31.5,13.355033339500446L32.666666666666664,14.590543335914631L33.833333333333336,15.392770320415515L35,16.349192096233388L36.16666666666667,17.549572106838244L37.333333333333336,16.755349589824696L38.5,16.918471933841722L39.666666666666664,18.520815993785877L40.833333333333336,18.61317726278307L42,19.604768585205097L43.16666666666667,20.420090192794817L44.33333333333333,19.636245790958423L45.5,21.771355074882525L46.666666666666664,22.36785933279993L47.833333333333336,24.14657860302927L49,21.74987356328966L50.166666666666664,18.792268980979937L51.33333333333333,22.46674153947832L52.5,24.767656708002107L53.66666666666667,21.529256197452565L54.833333333333336,23.997276163339635L56,25.04001959347727L57.166666666666664,24.878393966197986L58.333333333333336,25.864875352621098L59.5,24.276107238769548L60.66666666666667,26.421634198665636L61.83333333333333,25.845826829910298L63,26.118671038389223L64.16666666666666,26.023408644437808L65.33333333333333,28.023641991853733L66.5,29.026725725173968L67.66666666666667,31.467264125585572L68.83333333333333,29.741721157073993L70,29.331699892520923L71.16666666666666,27.19381475949289L72.33333333333334,32.853771082401295L73.5,32.76403401279451L74.66666666666667,32.94769500279428L75.83333333333333,31.55344731712343L77,33.36112508916857L78.16666666666667,31.126381943464295L79.33333333333333,35.32208775424959L80.5,31.00373029255869L81.66666666666667,34.22600318574907L82.83333333333333,33.00519002461435L84,32.85930959367754L85.16666666666666,33.453974274635335L86.33333333333334,33.58088530445101L87.5,35.51655543470385L88.66666666666666,32.98742063426973L89.83333333333334,36.291116236686726L91,36.64981396341326L92.16666666666667,37.876337065935154L93.33333333333333,36.804767003297826L94.5,35.10493195796015L95.66666666666667,36.27720402383806L96.83333333333333,39.156003502845785L98,37.59389936470987L99.16666666666667,36.79076248192789L100.33333333333333,38.2445755376816L101.5,39.1136207046509L102.66666666666666,40.34398120427134L103.83333333333334,37.94291129016878L105,39.52387933397295L106.16666666666666,41.9977411105633L107.33333333333334,42.95960249567034L108.5,40.961479057312026L109.66666666666667,41.12441019082071L110.83333333333333,43.256961210012456L112,45.66637845182421L113.16666666666667,41.422731551170365L114.33333333333333,42.92155819797517L115.5,45.21053259992601L116.66666666666667,42.61953790330889L117.83333333333333,42.091302390337006L119,44.14947911524774L120.16666666666666,45.6503233625889L121.33333333333334,46.34719335699083L122.5,46.375663942337056L123.66666666666666,45.34350961828233L124.83333333333334,44.20078287267687L126,46.19195020461084L127.16666666666667,45.250917577981966L128.33333333333331,47.735144282817856L129.5,48.51755790257456L130.66666666666666,50.50509882831575L131.83333333333334,48.22464977765085L133,47.38653455877306L134.16666666666669,47.324246087312716L135.33333333333334,51.179584006309526L136.5,46.78823687815668L137.66666666666666,48.898080001115815L138.83333333333334,48.48205208921434L140,46.57072503471376L141.16666666666666,50.2981101562977L142.33333333333331,46.716921952009216L143.5,46.91914354825022L144.66666666666669,50.31029488110544L145.83333333333334,49.76487020277979L147,49.13880743765833L148.16666666666666,48.18868901515009L149.33333333333334,51.2356548395157L150.5,50.03075171136858L151.66666666666666,51.70234694266321L152.83333333333331,48.494217033624665L154,48.6339985086918L155.16666666666669,53.73945095086099L156.33333333333334,55.38723058366777L157.5,52.50338050985338L158.66666666666666,53.065651493310945L159.83333333333331,51.799455507040044L161,53.181676711082474L162.16666666666669,50.509345020294205L163.33333333333334,52.89317302131654L164.5,54.282943743705765L165.66666666666666,54.95796299242975L166.83333333333334,53.74645321154596L168,52.326695406675356L169.16666666666666,53.78919865036013L170.33333333333331,54.6325161137581L171.5,54.626720457315464L172.66666666666669,55.765985633373276L173.83333333333334,52.99630141997339L175,55.4226243081093L176.16666666666666,53.74791036748888L177.33333333333331,51.81658533120157L178.5,55.64751423978807L179.66666666666669,55.72503361725809L180.83333333333334,54.72759389066698L182,54.64981736803056L183.16666666666666,54.86608963990213L184.33333333333334,54.95533879303934L185.5,55.79442984485628L186.66666666666666,57.796430241107956L187.83333333333331,56.388336277246495L189,56.895202367544194L190.16666666666669,56.668894840717336L191.33333333333334,53.69579561376573L192.5,58.66506001973154L193.66666666666666,56.37657353425028L194.83333333333331,55.33309822940828L196,57.15512997651102L197.16666666666669,56.432828984499L198.33333333333334,56.93279830956461L199.5,57.03162117505075L200.66666666666666,57.282186062574404L201.83333333333334,60.58927070641519L203,57.58762177252771L204.16666666666666,58.11231659436228L205.33333333333331,59.61509272718431L206.5,60.258364438056965L207.66666666666669,59.40255895042421L208.83333333333334,60.52386352562906L210,58.78603033685686L211.16666666666666,61.37954373741152L212.33333333333331,59.31350760126116L213.5,60.140024913787855L214.66666666666669,60.3528751769066L215.83333333333334,58.58632744455339L217,61.70156201386453L218.16666666666666,59.03095781111719L219.33333333333334,58.480416603326816L220.5,57.34790313625337L221.66666666666666,60.52412726426126L222.83333333333331,62.25628347897531L224,60.219528924465195L225.16666666666669,63.248468213319796L226.33333333333334,60.60301808261873L227.5,60.88405796909334L228.66666666666666,60.65948452377321L229.83333333333331,63.353066954851165L231,60.9581157770157L232.16666666666669,59.58306167030336L233.33333333333334,61.994140465497985L234.5,63.95648116493227L235.66666666666666,61.34327967548372L236.83333333333334,62.045160703897494L238,61.86927341008188L239.16666666666666,60.23546533131601L240.33333333333331,63.081337042093296L241.5,60.90030426883699L242.66666666666669,63.16300370955469L243.83333333333334,61.81733008646967L245,64.55831294322016L246.16666666666666,62.87337253713609L247.33333333333331,62.41753987216951L248.5,64.5938715043068L249.66666666666669,64.09526043319704L250.83333333333334,63.41595543169977L252,64.38218169116975L253.16666666666666,63.07577875041963L254.33333333333334,64.57198779129983L255.5,64.45827688002588" style="fill: none;" fill="none"></path></g><g><path stroke="rgb(255, 112, 67)" stroke-width="2px" d="M23.333333333333332,8.87717334651949L24.5,10.209646851062793L25.666666666666664,11.116947306633014L26.833333333333336,10.991500026226063L28,11.490638574600238L29.166666666666668,12.003544279575367L30.333333333333336,12.758403805732746L31.5,12.862633313179035L32.666666666666664,13.400594188213367L33.833333333333336,13.159326087474842L35,13.82552987241747L36.16666666666667,14.652587849140186L37.333333333333336,15.136653734684009L38.5,16.923351098537463L39.666666666666664,16.85314387464525L40.833333333333336,18.044121603012105L42,16.85045374059679L43.16666666666667,17.690223919391652L44.33333333333333,20.319091483593006L45.5,18.896340245246908L46.666666666666664,21.136892234325426L47.833333333333336,20.406454905509968L49,22.06293131971361L50.166666666666664,20.564051925182362L51.33333333333333,22.147756257295626L52.5,21.971005219459553L53.66666666666667,23.30174464249613L54.833333333333336,23.13411896133425L56,23.92909972691538L57.166666666666664,23.94276138806345L58.333333333333336,25.38750842833521L59.5,26.561857435941715L60.66666666666667,25.22917294049265L61.83333333333333,24.31219327712061L63,27.692280774354952L64.16666666666666,25.51059524798395L65.33333333333333,27.839651328563708L66.5,30.070998839378376L67.66666666666667,28.469465775728242L68.83333333333333,31.442426539897937L70,28.128385789632816L71.16666666666666,30.630395071744935L72.33333333333334,32.69237622642519L73.5,32.13913169765474L74.66666666666667,31.64750970029833L75.83333333333333,30.525961166858693L77,35.07815589332582L78.16666666666667,33.27390013003351L79.33333333333333,34.5786942651272L80.5,31.27584921979906L81.66666666666667,35.38857626342775L82.83333333333333,33.7121216478348L84,32.120518343687074L85.16666666666666,33.18744660639765L86.33333333333334,37.00933587336542L87.5,34.21637672567369L88.66666666666666,34.71602297091486L89.83333333333334,34.77332018876078L91,34.64662014985086L92.16666666666667,35.89687972927095L93.33333333333333,35.19066679382326L94.5,37.213799247980134L95.66666666666667,38.15460769677164L96.83333333333333,36.47382117414476L98,36.81059562706949L99.16666666666667,36.49842798852922L100.33333333333333,39.08340944433214L101.5,37.92921666169168L102.66666666666666,34.679607259273546L103.83333333333334,38.66127598309519L105,39.7844860699177L106.16666666666666,38.57565323615076L107.33333333333334,40.31530622148516L108.5,42.676353798151034L109.66666666666667,37.91183628582956L110.83333333333333,40.92896667742731L112,43.538541760683074L113.16666666666667,41.565031730175036L114.33333333333333,41.56098334217073L115.5,43.466851006984726L116.66666666666667,43.55890897655489L117.83333333333333,44.59740621471407L119,42.85324989223482L120.16666666666666,44.5455288257599L121.33333333333334,43.04052410149576L122.5,44.68999166154863L123.66666666666666,48.99731825494768L124.83333333333334,44.55238603019716L126,42.84003658676149L127.16666666666667,45.63861996078493L128.33333333333331,44.551700309753436L129.5,46.82676249885561L130.66666666666666,46.43264467382433L131.83333333333334,48.044859152078644L133,45.60350316190721L134.16666666666669,47.71892435693743L135.33333333333334,47.00375749492647L136.5,47.5522811021805L137.66666666666666,48.200056150198L138.83333333333334,47.58615173602106L140,49.51730534219743L141.16666666666666,47.37049265646936L142.33333333333331,46.65057190561296L143.5,48.802158260583894L144.66666666666669,48.52547665500643L145.83333333333334,50.64467590594293L147,48.86205989742281L148.16666666666666,49.971516014575975L149.33333333333334,47.55809653902055L150.5,47.67808442974092L151.66666666666666,48.89425579094888L152.83333333333331,50.548833287000676L154,53.10653757476808L155.16666666666669,53.09728694224359L156.33333333333334,53.7749435772896L157.5,49.642660314083116L158.66666666666666,52.29647755289079L159.83333333333331,49.87658329391481L161,51.71586354756357L162.16666666666669,53.04399195814134L163.33333333333334,52.252657379150406L164.5,51.65381244087221L165.66666666666666,50.288681500196475L166.83333333333334,53.05349973583223L168,51.168922372102756L169.16666666666666,52.348275820255296L170.33333333333331,52.25775412821771L171.5,50.94854237103464L172.66666666666669,52.502628854751606L173.83333333333334,54.327119964599625L175,53.66931625509264L176.16666666666666,51.82414144301416L177.33333333333331,55.834135695934314L178.5,55.25701622748377L179.66666666666669,55.82436417961122L180.83333333333334,53.720441988945026L182,55.29384732747079L183.16666666666666,52.94619767332079L184.33333333333334,54.53199213409425L185.5,55.802190354108824L186.66666666666666,52.608651784896864L187.83333333333331,58.712203300237675L189,53.921819621562975L190.16666666666669,56.549322338342684L191.33333333333334,55.85926339411737L192.5,56.18101133847238L193.66666666666666,55.32241681480409L194.83333333333331,57.31200830841066L196,55.41601106190683L197.16666666666669,54.56668035769464L198.33333333333334,57.31320172572138L199.5,56.83552490854265L200.66666666666666,55.78874627733232L201.83333333333334,57.068208316802995L203,57.58658000493051L204.16666666666666,60.168607588052765L205.33333333333331,55.59621048235895L206.5,57.36621978425981L207.66666666666669,53.90913379335405L208.83333333333334,57.472737224340456L210,60.52969214940073L211.16666666666666,60.759316189527524L212.33333333333331,56.44741373085977L213.5,58.66562705779077L214.66666666666669,58.480917706728L215.83333333333334,55.948756505489364L217,61.36802495265009L218.16666666666666,57.6058724858761L219.33333333333334,60.839875154733676L220.5,58.024188330411924L221.66666666666666,60.40802951836588L222.83333333333331,56.32561923050882L224,58.716409931421296L225.16666666666669,61.471614893913284L226.33333333333334,61.95559506440164L227.5,58.912216085433975L228.66666666666666,60.78468125247957L229.83333333333331,59.94412645125391L231,58.74098377847673L232.16666666666669,61.34525771522524L233.33333333333334,60.17698128962518L234.5,62.13977034473421L235.66666666666666,60.86859629178049L236.83333333333334,60.06377148175241L238,61.09239170813562L239.16666666666666,59.43434604907038L240.33333333333331,59.37524881505968L241.5,59.56629448676111L242.66666666666669,59.61577185416223L243.83333333333334,62.169843142271056L245,63.190023732423796L246.16666666666666,65.76159407877924L247.33333333333331,60.86198304557802L248.5,62.4657974483967L249.66666666666669,63.83744273328783L250.83333333333334,64.81913726353648L252,62.3367633225918L253.16666666666666,61.354706151723875L254.33333333333334,62.5579081656933L255.5,66.03664709830285" style="fill: none;" fill="none"></path></g></g></g></g></g></g><g transform="translate(50, 176)" clip-path="url(#clip_1)"><clipPath id="clip_1"><rect width="279" height="22"></rect></clipPath><g><g><line x1="0" y1="0" x2="0" y2="5" style="visibility: inherit;" fill="rgb(0, 0, 0)" stroke="rgb(204, 204, 204)" stroke-width="1px"></line><line x1="23.333333333333332" y1="0" x2="23.333333333333332" y2="5" style="visibility: inherit;" fill="rgb(0, 0, 0)" stroke="rgb(204, 204, 204)" stroke-width="1px"></line><line x1="46.666666666666664" y1="0" x2="46.666666666666664" y2="5" style="visibility: inherit;" fill="rgb(0, 0, 0)" stroke="rgb(204, 204, 204)" stroke-width="1px"></line><line x1="70" y1="0" x2="70" y2="5" style="visibility: inherit;" fill="rgb(0, 0, 0)" stroke="rgb(204, 204, 204)" stroke-width="1px"></line><line x1="93.33333333333333" y1="0" x2="93.33333333333333" y2="5" style="visibility: inherit;" fill="rgb(0, 0, 0)" stroke="rgb(204, 204, 204)" stroke-width="1px"></line><line x1="116.66666666666667" y1="0" x2="116.66666666666667" y2="5" style="visibility: inherit;" fill="rgb(0, 0, 0)" stroke="rgb(204, 204, 204)" stroke-width="1px"></line><line x1="140" y1="0" x2="140" y2="5" style="visibility: inherit;" fill="rgb(0, 0, 0)" stroke="rgb(204, 204, 204)" stroke-width="1px"></line><line x1="163.33333333333334" y1="0" x2="163.33333333333334" y2="5" style="visibility: inherit;" fill="rgb(0, 0, 0)" stroke="rgb(204, 204, 204)" stroke-width="1px"></line><line x1="186.66666666666666" y1="0" x2="186.66666666666666" y2="5" style="visibility: inherit;" fill="rgb(0, 0, 0)" stroke="rgb(204, 204, 204)" stroke-width="1px"></line><line x1="210" y1="0" x2="210" y2="5" style="visibility: inherit;" fill="rgb(0, 0, 0)" stroke="rgb(204, 204, 204)" stroke-width="1px"></line><line x1="233.33333333333334" y1="0" x2="233.33333333333334" y2="5" style="visibility: inherit;" fill="rgb(0, 0, 0)" stroke="rgb(204, 204, 204)" stroke-width="1px"></line><line x1="256.66666666666663" y1="0" x2="256.66666666666663" y2="5" style="visibility: inherit;" fill="rgb(0, 0, 0)" stroke="rgb(204, 204, 204)" stroke-width="1px"></line><line x1="280" y1="0" x2="280" y2="5" style="visibility: inherit;" fill="rgb(0, 0, 0)" stroke="rgb(204, 204, 204)" stroke-width="1px"></line></g><g transform="translate(0, 8)"><text x="0" y="0" dx="0em" dy="0.95em" style="text-anchor: middle; visibility: hidden; font-family: Roboto, sans-serif; font-size: 12px; font-weight: 200;" fill="rgb(33, 33, 33)" stroke="none" stroke-width="1px">-20</text><text x="23.333333333333332" y="0" dx="0em" dy="0.95em" style="text-anchor: middle; visibility: inherit; font-family: Roboto, sans-serif; font-size: 12px; font-weight: 200;" fill="rgb(33, 33, 33)" stroke="none" stroke-width="1px">0</text><text x="46.666666666666664" y="0" dx="0em" dy="0.95em" style="text-anchor: middle; visibility: hidden; font-family: Roboto, sans-serif; font-size: 12px; font-weight: 200;" fill="rgb(33, 33, 33)" stroke="none" stroke-width="1px">20</text><text x="70" y="0" dx="0em" dy="0.95em" style="text-anchor: middle; visibility: inherit; font-family: Roboto, sans-serif; font-size: 12px; font-weight: 200;" fill="rgb(33, 33, 33)" stroke="none" stroke-width="1px">40</text><text x="93.33333333333333" y="0" dx="0em" dy="0.95em" style="text-anchor: middle; visibility: hidden; font-family: Roboto, sans-serif; font-size: 12px; font-weight: 200;" fill="rgb(33, 33, 33)" stroke="none" stroke-width="1px">60</text><text x="116.66666666666667" y="0" dx="0em" dy="0.95em" style="text-anchor: middle; visibility: inherit; font-family: Roboto, sans-serif; font-size: 12px; font-weight: 200;" fill="rgb(33, 33, 33)" stroke="none" stroke-width="1px">80</text><text x="140" y="0" dx="0em" dy="0.95em" style="text-anchor: middle; visibility: hidden; font-family: Roboto, sans-serif; font-size: 12px; font-weight: 200;" fill="rgb(33, 33, 33)" stroke="none" stroke-width="1px">100</text><text x="163.33333333333334" y="0" dx="0em" dy="0.95em" style="text-anchor: middle; visibility: inherit; font-family: Roboto, sans-serif; font-size: 12px; font-weight: 200;" fill="rgb(33, 33, 33)" stroke="none" stroke-width="1px">120</text><text x="186.66666666666666" y="0" dx="0em" dy="0.95em" style="text-anchor: middle; visibility: hidden; font-family: Roboto, sans-serif; font-size: 12px; font-weight: 200;" fill="rgb(33, 33, 33)" stroke="none" stroke-width="1px">140</text><text x="210" y="0" dx="0em" dy="0.95em" style="text-anchor: middle; visibility: inherit; font-family: Roboto, sans-serif; font-size: 12px; font-weight: 200;" fill="rgb(33, 33, 33)" stroke="none" stroke-width="1px">160</text><text x="233.33333333333334" y="0" dx="0em" dy="0.95em" style="text-anchor: middle; visibility: hidden; font-family: Roboto, sans-serif; font-size: 12px; font-weight: 200;" fill="rgb(33, 33, 33)" stroke="none" stroke-width="1px">180</text><text x="256.66666666666663" y="0" dx="0em" dy="0.95em" style="text-anchor: middle; visibility: inherit; font-family: Roboto, sans-serif; font-size: 12px; font-weight: 200;" fill="rgb(33, 33, 33)" stroke="none" stroke-width="1px">200</text><text x="280" y="0" dx="0em" dy="0.95em" style="text-anchor: middle; visibility: hidden; font-family: Roboto, sans-serif; font-size: 12px; font-weight: 200;" fill="rgb(33, 33, 33)" stroke="none" stroke-width="1px">220</text></g><line x1="0" y1="0" x2="280" y2="0" fill="rgb(0, 0, 0)" stroke="rgb(204, 204, 204)" stroke-width="1px"></line></g></g></g></g></svg>