<svg viewBox="0 0 330 199.9921875" xmlns="http://www.w3.org/2000/svg"><g><g><g><g><g><line x1="50" y1="176.992" x2="45" y2="176.992" style="visibility: inherit;" fill="rgb(0, 0, 0)" stroke="rgb(204, 204, 204)" stroke-width="1px"></line><line x1="50" y1="164.34971428571427" x2="45" y2="164.34971428571427" style="visibility: inherit;" fill="rgb(0, 0, 0)" stroke="rgb(204, 204, 204)" stroke-width="1px"></line><line x1="50" y1="151.70742857142855" x2="45" y2="151.70742857142855" style="visibility: inherit;" fill="rgb(0, 0, 0)" stroke="rgb(204, 204, 204)" stroke-width="1px"></line><line x1="50" y1="139.06514285714286" x2="45" y2="139.06514285714286" style="visibility: inherit;" fill="rgb(0, 0, 0)" stroke="rgb(204, 204, 204)" stroke-width="1px"></line><line x1="50" y1="126.42285714285713" x2="45" y2="126.42285714285713" style="visibility: inherit;" fill="rgb(0, 0, 0)" stroke="rgb(204, 204, 204)" stroke-width="1px"></line><line x1="50" y1="113.7805714285714" x2="45" y2="113.7805714285714" style="visibility: inherit;" fill="rgb(0, 0, 0)" stroke="rgb(204, 204, 204)" stroke-width="1px"></line><line x1="50" y1="101.1382857142857" x2="45" y2="101.1382857142857" style="visibility: inherit;" fill="rgb(0, 0, 0)" stroke="rgb(204, 204, 204)" stroke-width="1px"></line><line x1="50" y1="88.496" x2="45" y2="88.496" style="visibility: inherit;" fill="rgb(0, 0, 0)" stroke="rgb(204, 204, 204)" stroke-width="1px"></line><line x1="50" y1="75.85371428571426" x2="45" y2="75.85371428571426" style="visibility: inherit;" fill="rgb(0, 0, 0)" stroke="rgb(204, 204, 204)" stroke-width="1px"></line><line x1="50" y1="63.21142857142858" x2="45" y2="63.21142857142858" style="visibility: inherit;" fill="rgb(0, 0, 0)" stroke="rgb(204, 204, 204)" stroke-width="1px"></line><line x1="50" y1="50.56914285714285" x2="45" y2="50.56914285714285" style="visibility: inherit;" fill="rgb(0, 0, 0)" stroke="rgb(204, 204, 204)" stroke-width="1px"></line><line x1="50" y1="37.92685714285712" x2="45" y2="37.92685714285712" style="visibility: inherit;" fill="rgb(0, 0, 0)" stroke="rgb(204, 204, 204)" stroke-width="1px"></line><line x1="50" y1="25.284571428571414" x2="45" y2="25.284571428571414" style="visibility: inherit;" fill="rgb(0, 0, 0)" stroke="rgb(204, 204, 204)" stroke-width="1px"></line><line x1="50" y1="12.642285714285688" x2="45" y2="12.642285714285688" style="visibility: inherit;" fill="rgb(0, 0, 0)" stroke="rgb(204, 204, 204)" stroke-width="1px"></line><line x1="50" y1="0" x2="45" y2="0" style="visibility: inherit;" fill="rgb(0, 0, 0)" stroke="rgb(204, 204, 204)" stroke-width="1px"></line></g><g transform="translate(40, 0)"><text x="0" y="176.992" dx="0em" dy="0.3em" style="text-anchor: end; visibility: hidden; font-family: Roboto, sans-serif; font-size: 12px; font-weight: 200;" fill="rgb(33, 33, 33)" stroke="none" stroke-width="1px">-0.2</text><text x="0" y="164.34971428571427" dx="0em" dy="0.3em" style="text-anchor: end; visibility: inherit; font-family: Roboto, sans-serif; font-size: 12px; font-weight: 200;" fill="rgb(33, 33, 33)" stroke="none" stroke-width="1px">-0.1</text><text x="0" y="151.70742857142855" dx="0em" dy="0.3em" style="text-anchor: end; visibility: hidden; font-family: Roboto, sans-serif; font-size: 12px; font-weight: 200;" fill="rgb(33, 33, 33)" stroke="none" stroke-width="1px">0</text><text x="0" y="139.06514285714286" dx="0em" dy="0.3em" style="text-anchor: end; visibility: inherit; font-family: Roboto, sans-serif; font-size: 12px; font-weight: 200;" fill="rgb(33, 33, 33)" stroke="none" stroke-width="1px">0.1</text><text x="0" y="126.42285714285713" dx="0em" dy="0.3em" style="text-anchor: end; visibility: hidden; font-family: Roboto, sans-serif; font-size: 12px; font-weight: 200;" fill="rgb(33, 33, 33)" stroke="none" stroke-width="1px">0.2</text><text x="0" y="113.7805714285714" dx="0em" dy="0.3em" style="text-anchor: end; visibility: inherit; font-family: Roboto, sans-serif; font-size: 12px; font-weight: 200;" fill="rgb(33, 33, 33)" stroke="none" stroke-width="1px">0.3</text><text x="0" y="101.1382857142857" dx="0em" dy="0.3em" style="text-anchor: end; visibility: hidden; font-family: Roboto, sans-serif; font-size: 12px; font-weight: 200;" fill="rgb(33, 33, 33)" stroke="none" stroke-width="1px">0.4</text><text x="0" y="88.496" dx="0em" dy="0.3em" style="text-anchor: end; visibility: inherit; font-family: Roboto, sans-serif; font-size: 12px; font-weight: 200;" fill="rgb(33, 33, 33)" stroke="none" stroke-width="1px">0.5</text><text x="0" y="75.85371428571426" dx="0em" dy="0.3em" style="text-anchor: end; visibility: hidden; font-family: Roboto, sans-serif; font-size: 12px; font-weight: 200;" fill="rgb(33, 33, 33)" stroke="none" stroke-width="1px">0.6</text><text x="0" y="63.21142857142858" dx="0em" dy="0.3em" style="text-anchor: end; visibility: inherit; font-family: Roboto, sans-serif; font-size: 12px; font-weight: 200;" fill="rgb(33, 33, 33)" stroke="none" stroke-width="1px">0.7</text><text x="0" y="50.56914285714285" dx="0em" dy="0.3em" style="text-anchor: end; visibility: hidden; font-family: Roboto, sans-serif; font-size: 12px; font-weight: 200;" fill="rgb(33, 33, 33)" stroke="none" stroke-width="1px">0.8</text><text x="0" y="37.92685714285712" dx="0em" dy="0.3em" style="text-anchor: end; visibility: inherit; font-family: Roboto, sans-serif; font-size: 12px; font-weight: 200;" fill="rgb(33, 33, 33)" stroke="none" stroke-width="1px">0.9</text><text x="0" y="25.284571428571414" dx="0em" dy="0.3em" style="text-anchor: end; visibility: hidden; font-family: Roboto, sans-serif; font-size: 12px; font-weight: 200;" fill="rgb(33, 33, 33)" stroke="none" stroke-width="1px">1</text><text x="0" y="12.642285714285688" dx="0em" dy="0.3em" style="text-anchor: end; visibility: inherit; font-family: Roboto, sans-serif; font-size: 12px; font-weight: 200;" fill="rgb(33, 33, 33)" stroke="none" stroke-width="1px">1.1</text><text x="0" y="0" dx="0em" dy="0.3em" style="text-anchor: end; visibility: hidden; font-family: Roboto, sans-serif; font-size: 12px; font-weight: 200;" fill="rgb(33, 33, 33)" stroke="none" stroke-width="1px">1.2</text></g><line x1="50" y1="0" x2="50" y2="176.992" fill="rgb(0, 0, 0)" stroke="rgb(204, 204, 204)" stroke-width="1px"></line></g></g><g transform="translate(50, 0)" clip-path="url(#clip_0)"><clipPath id="clip_0"><rect width="279" height="176"></rect></clipPath><g><g><g><line x1="0" y1="0" x2="0" y2="176.992" fill="rgb(0, 0, 0)" stroke="rgb(66, 66, 66)" stroke-width="1px" opacity="0.25"></line><line x1="23.333333333333332" y1="0" x2="23.333333333333332" y2="176.992" fill="rgb(0, 0, 0)" stroke="rgb(66, 66, 66)" stroke-width="1px" opacity="0.25"></line><line x1="46.666666666666664" y1="0" x2="46.666666666666664" y2="176.992" fill="rgb(0, 0, 0)" stroke="rgb(66, 66, 66)" stroke-width="1px" opacity="0.25"></line><line x1="70" y1="0" x2="70" y2="176.992" fill="rgb(0, 0, 0)" stroke="rgb(66, 66, 66)" stroke-width="1px" opacity="0.25"></line><line x1="93.33333333333333" y1="0" x2="93.33333333333333" y2="176.992" fill="rgb(0, 0, 0)" stroke="rgb(66, 66, 66)" stroke-width="1px" opacity="0.25"></line><line x1="116.66666666666667" y1="0" x2="116.66666666666667" y2="176.992" fill="rgb(0, 0, 0)" stroke="rgb(66, 66, 66)" stroke-width="1px" opacity="0.25"></line><line x1="140" y1="0" x2="140" y2="176.992" fill="rgb(0, 0, 0)" stroke="rgb(66, 66, 66)" stroke-width="1px" opacity="0.25"></line><line x1="163.33333333333334" y1="0" x2="163.33333333333334" y2="176.992" fill="rgb(0, 0, 0)" stroke="rgb(66, 66, 66)" stroke-width="1px" opacity="0.25"></line><line x1="186.66666666666666" y1="0" x2="186.66666666666666" y2="176.992" fill="rgb(0, 0, 0)" stroke="rgb(66, 66, 66)" stroke-width="1px" opacity="0.25"></line><line x1="210" y1="0" x2="210" y2="176.992" fill="rgb(0, 0, 0)" stroke="rgb(66, 66, 66)" stroke-width="1px" opacity="0.25"></line><line x1="233.33333333333334" y1="0" x2="233.33333333333334" y2="176.992" fill="rgb(0, 0, 0)" stroke="rgb(66, 66, 66)" stroke-width="1px" opacity="0.25"></line><line x1="256.66666666666663" y1="0" x2="256.66666666666663" y2="176.992" fill="rgb(0, 0, 0)" stroke="rgb(66, 66, 66)" stroke-width="1px" opacity="0.25"></line><line x1="280" y1="0" x2="280" y2="176.992" fill="rgb(0, 0, 0)" stroke="rgb(66, 66, 66)" stroke-width="1px" opacity="0.25"></line></g><g><line x1="0" y1="176.992" x2="280" y2="176.992" fill="rgb(0, 0, 0)" stroke="rgb(66, 66, 66)" stroke-width="1px" opacity="0.25"></line><line x1="0" y1="164.34971428571427" x2="280" y2="164.34971428571427" fill="rgb(0, 0, 0)" stroke="rgb(66, 66, 66)" stroke-width="1px" opacity="0.25"></line><line x1="0" y1="151.70742857142855" x2="280" y2="151.70742857142855" fill="rgb(0, 0, 0)" stroke="rgb(66, 66, 66)" stroke-width="1px" opacity="0.25"></line><line x1="0" y1="139.06514285714286" x2="280" y2="139.06514285714286" fill="rgb(0, 0, 0)" stroke="rgb(66, 66, 66)" stroke-width="1px" opacity="0.25"></line><line x1="0" y1="126.42285714285713" x2="280" y2="126.42285714285713" fill="rgb(0, 0, 0)" stroke="rgb(66, 66, 66)" stroke-width="1px" opacity="0.25"></line><line x1="0" y1="113.7805714285714" x2="280" y2="113.7805714285714" fill="rgb(0, 0, 0)" stroke="rgb(66, 66, 66)" stroke-width="1px" opacity="0.25"></line><line x1="0" y1="101.1382857142857" x2="280" y2="101.1382857142857" fill="rgb(0, 0, 0)" stroke="rgb(66, 66, 66)" stroke-width="1px" opacity="0.25"></line><line x1="0" y1="88.496" x2="280" y2="88.496" fill="rgb(0, 0, 0)" stroke="rgb(66, 66, 66)" stroke-width="1px" opacity="0.25"></line><line x1="0" y1="75.85371428571426" x2="280" y2="75.85371428571426" fill="rgb(0, 0, 0)" stroke="rgb(66, 66, 66)" stroke-width="1px" opacity="0.25"></line><line x1="0" y1="63.21142857142858" x2="280" y2="63.21142857142858" fill="rgb(0, 0, 0)" stroke="rgb(66, 66, 66)" stroke-width="1px" opacity="0.25"></line><line x1="0" y1="50.56914285714285" x2="280" y2="50.56914285714285" fill="rgb(0, 0, 0)" stroke="rgb(66, 66, 66)" stroke-width="1px" opacity="0.25"></line><line x1="0" y1="37.92685714285712" x2="280" y2="37.92685714285712" fill="rgb(0, 0, 0)" stroke="rgb(66, 66, 66)" stroke-width="1px" opacity="0.25"></line><line x1="0" y1="25.284571428571414" x2="280" y2="25.284571428571414" fill="rgb(0, 0, 0)" stroke="rgb(66, 66, 66)" stroke-width="1px" opacity="0.25"></line><line x1="0" y1="12.642285714285688" x2="280" y2="12.642285714285688" fill="rgb(0, 0, 0)" stroke="rgb(66, 66, 66)" stroke-width="1px" opacity="0.25"></line><line x1="0" y1="0" x2="280" y2="0" fill="rgb(0, 0, 0)" stroke="rgb(66, 66, 66)" stroke-width="1px" opacity="0.25"></line></g></g></g><g><g><line x1="0" y1="151.70742857142855" x2="280" y2="151.70742857142855" fill="rgb(0, 0, 0)" stroke="rgb(153, 153, 153)" stroke-width="1.5px"></line></g></g><g><g><line x1="23.333333333333332" y1="0" x2="23.333333333333332" y2="176.992" fill="rgb(0, 0, 0)" stroke="rgb(153, 153, 153)" stroke-width="1.5px"></line></g></g><g><g><g><g><g><path stroke="rgb(51, 187, 238)" stroke-width="2px" d="M23.333333333333332,9.031082923344206L24.5,10.01065529952729L25.666666666666664,11.151819874310307L26.833333333333336,11.94502718190386L28,12.318615904922934L29.166666666666668,12.755763393518794L30.333333333333336,12.899097036354327L31.5,13.13859427276819L32.666666666666664,13.38836228721475L33.833333333333336,13.539701567743927L35,13.91046798352157L36.16666666666667,14.209389751051775L37.333333333333336,14.66552602286821L38.5,14.949305599060647L39.666666666666664,15.004616001604541L40.833333333333336,15.179738124100897L42,15.074627401408465L43.16666666666667,15.49058241660265L44.33333333333333,15.284094996678391L45.5,15.897542261868374L46.666666666666664,16.375687707746366L47.833333333333336,16.671273258708016L49,17.229186387312872L50.166666666666664,17.820274553145605L51.33333333333333,17.832600984757498L52.5,17.563441526894113L53.66666666666667,17.896015013253525L54.833333333333336,19.185749566772753L56,19.12638036982616L57.166666666666664,19.585297544846895L58.333333333333336,19.235005411552603L59.5,19.420432112789427L60.66666666666667,19.62072629056991L61.83333333333333,19.778007050036155L63,20.059253165433365L64.16666666666666,19.781013578955L65.33333333333333,20.290036468655828L66.5,20.40798176583906L67.66666666666667,20.45934380880697L68.83333333333333,19.96417879068218L70,20.568957393476992L71.16666666666666,20.609086836923357L72.33333333333334,20.78784495019322L73.5,20.464672341982013L74.66666666666667,20.05355062543108L75.83333333333333,20.211871625006946L77,20.77855549368471L78.16666666666667,20.52410798034817L79.33333333333333,21.789388783761662L80.5,20.502988377799255L81.66666666666667,20.94090970475613L82.83333333333333,21.694584083833455L84,21.380795270376595L85.16666666666666,20.703246128464112L86.33333333333334,20.944555176991408L87.5,21.365473446945547L88.66666666666666,21.193986943141116L89.83333333333334,22.147912317949515L91,22.068685427661123L92.16666666666667,24.001259760036536L93.33333333333333,23.209358514538923L94.5,23.625184135779374L95.66666666666667,24.000544626277883L96.83333333333333,23.438421228324987L98,23.640632850651183L99.16666666666667,23.47059946812475L100.33333333333333,23.429302621287114L101.5,24.148231286124986L102.66666666666666,24.250563238271337L103.83333333333334,25.152556206425395L105,24.347467244145065L106.16666666666666,24.508749951415194L107.33333333333334,24.767494279974738L108.5,25.546475206879073L109.66666666666667,26.12869707056037L110.83333333333333,26.728241289756166L112,26.609129988959047L113.16666666666667,26.16757913146312L114.33333333333333,27.270713649924524L115.5,27.91261352222575L116.66666666666667,26.69201921393011L117.83333333333333,26.987342061957925L119,26.910918673737427L120.16666666666666,27.86231918519947L121.33333333333334,27.364535766730558L122.5,28.329743439343062L123.66666666666666,28.637633205242242L124.83333333333334,29.416960536308896L126,29.538670500666303L127.16666666666667,30.259432531657637L128.33333333333331,30.386317649749305L129.5,31.18888438083031L130.66666666666666,31.055660217361034L131.83333333333334,31.325310522724433L133,30.391533441930545L134.16666666666669,30.959776166167124L135.33333333333334,30.021263905702654L136.5,30.66898513109772L137.66666666666666,31.336957768940113L138.83333333333334,31.51065786808577L140,31.453569351806742L141.16666666666666,31.5548326866543L142.33333333333331,31.847650542342727L143.5,31.409577753362335L144.66666666666669,31.211080277919866L145.83333333333334,31.073610513074104L147,31.711370224230656L148.16666666666666,32.61997815249578L149.33333333333334,33.4422010961222L150.5,33.86380699680642L151.66666666666666,34.31919219804898L152.83333333333331,34.60996269137492L154,34.013394892133796L155.16666666666669,34.172755687024136L156.33333333333334,34.293998516541L157.5,34.10130559817969L158.66666666666666,35.4497225865297L159.83333333333331,35.63565936586522L161,35.31423795328554L162.16666666666669,35.67230647392793L163.33333333333334,34.61268113330608L164.5,34.319479805995094L165.66666666666666,35.037003014212274L166.83333333333334,34.65723047881109L168,35.02671838165137L169.16666666666666,35.71473418080268L170.33333333333331,35.17853670773524L171.5,36.30417665339479L172.66666666666669,36.708214259357796L173.83333333333334,35.618874282390784L175,34.92724370668074L176.16666666666666,35.46465721077253L177.33333333333331,36.54485805218024L178.5,36.885034315909834L179.66666666666669,35.95529001736311L180.83333333333334,35.93703760894167L182,35.960140096078774L183.16666666666666,36.2829676282911L184.33333333333334,35.621198506051805L185.5,35.57044243464654L186.66666666666666,36.902604231082115L187.83333333333331,36.40724905456635L189,36.127958119023475L190.16666666666669,36.289936281718546L191.33333333333334,36.515830646006044L192.5,36.47039735055093L193.66666666666666,35.74771436204302L194.83333333333331,36.83490591857818L196,37.58559385523278L197.16666666666669,37.828503089720485L198.33333333333334,38.7125630786335L199.5,38.67024918751212L200.66666666666666,38.79273835037611L201.83333333333334,39.77284168521782L203,39.459737414368156L204.16666666666666,38.98120473761363L205.33333333333331,39.94935442629969L206.5,40.38162827380436L207.66666666666669,40.2284300076481L208.83333333333334,39.90492140147869L210,40.078748207555904L211.16666666666666,39.83485504189105L212.33333333333331,39.83779219416276L213.5,38.656477236271314L214.66666666666669,39.6335688958443L215.83333333333334,39.40096517217106L217,40.2508357480693L218.16666666666666,39.2014840593806L219.33333333333334,40.58198641951506L220.5,39.177371079919475L221.66666666666666,39.83022899658887L222.83333333333331,40.03933714596533L224,40.32617692278514L225.16666666666669,38.196638266882594L226.33333333333334,40.552618537304156L227.5,41.300819750835345L228.66666666666666,41.370381844550266L229.83333333333331,40.558260004252126L231,40.1413403105216L232.16666666666669,40.92026950973388L233.33333333333334,40.84662524779761L234.5,40.00325035194742L235.66666666666666,39.272610524475L236.83333333333334,39.16437314070428L238,40.299260637613834L239.16666666666666,40.466987899052164L240.33333333333331,41.13972609688806L241.5,41.72408875468609L242.66666666666669,42.358880957867974L243.83333333333334,41.6170706560632L245,42.30440280776144L246.16666666666666,42.152645572487344L247.33333333333331,42.62253466753678L248.5,43.03222010384933L249.66666666666669,43.40939128940833L250.83333333333334,42.39368397735417L252,41.93131120897022L253.16666666666666,41.287794213196925L254.33333333333334,42.60665932701218L255.5,42.16876949157999" style="fill: none;" fill="none"></path></g><g><path stroke="rgb(204, 51, 17)" stroke-width="2px" d="M23.333333333333332,18.764605812617706L24.5,70.17303686620507L25.666666666666664,97.37208122252862L26.833333333333336,111.5826627100611L28,120.10242694870519L29.166666666666668,125.93829714787256L30.333333333333336,129.8071663030663L31.5,132.2265624304631L32.666666666666664,133.92394145775108L33.833333333333336,135.80478439793484L35,136.77074560011826L36.16666666666667,137.58687318646585L37.333333333333336,138.12832154055846L38.5,138.47777019828382L39.666666666666664,138.7673629653004L40.833333333333336,138.95062784550768L42,139.16024604876162L43.16666666666667,139.24203436179036L44.33333333333333,139.54132122289346L45.5,139.72293136811527L46.666666666666664,139.958747488619L47.833333333333336,140.20602570593212L49,140.46029488386432L50.166666666666664,140.77748153975503L51.33333333333333,141.24719543531685L52.5,141.1619346624182L53.66666666666667,141.50638250049633L54.833333333333336,141.9484171291744L56,142.26360152785486L57.166666666666664,142.0752191373193L58.333333333333336,142.29336109926328L59.5,142.62364775050457L60.66666666666667,142.698461624865L61.83333333333333,143.4363456409449L63,142.92183194541062L64.16666666666666,143.52212154517971L65.33333333333333,143.24108639911094L66.5,143.5426768211383L67.66666666666667,143.50285226158914L68.83333333333333,144.39810418015017L70,145.057608391716L71.16666666666666,144.69519949445973L72.33333333333334,145.02311290004266L73.5,144.70548225800673L74.66666666666667,145.28024945868893L75.83333333333333,145.82639962440297L77,146.54624081219825L78.16666666666667,146.04529124480823L79.33333333333333,145.56250354146675L80.5,145.1179432490841L81.66666666666667,145.48660807020866L82.83333333333333,145.87407005723983L84,145.73954326289416L85.16666666666666,146.2852333767851L86.33333333333334,147.15706162771448L87.5,146.65869169713244L88.66666666666666,147.2072822799993L89.83333333333334,146.89308268890875L91,147.09334890606632L92.16666666666667,147.13749520648074L93.33333333333333,148.57618863586688L94.5,148.3617835247148L95.66666666666667,148.30839168325664L96.83333333333333,148.80430584074531L98,148.88169587462147L99.16666666666667,148.91457683760012L100.33333333333333,149.34249529771685L101.5,150.1912946556598L102.66666666666666,150.03826455695227L103.83333333333334,149.96501605224404L105,150.31903526428812L106.16666666666666,150.698736099954L107.33333333333334,149.52630505878318L108.5,150.90923928365376L109.66666666666667,150.3290012379245L110.83333333333333,150.61283671538823L112,149.99699928586273L113.16666666666667,150.8173363123835L114.33333333333333,150.65954781673895L115.5,151.15285263107683L116.66666666666667,151.52328205362025L117.83333333333333,152.92461318025713L119,153.0036687046852L120.16666666666666,152.98794829678334L121.33333333333334,152.97237706441587L122.5,153.23703945441787L123.66666666666666,152.96347651430472L124.83333333333334,153.64634829545662L126,153.4637910688098L127.16666666666667,153.24873792023342L128.33333333333331,153.88253366647803L129.5,154.14402530651304L130.66666666666666,153.80965302163796L131.83333333333334,154.69741079053628L133,154.79072624742767L134.16666666666669,154.448014295873L135.33333333333334,154.2957864741869L136.5,154.94948485489837L137.66666666666666,154.89573136970066L138.83333333333334,155.71517298674638L140,155.724438522816L141.16666666666666,155.3791883518357L142.33333333333331,155.2870369585856L143.5,154.68820632779875L144.66666666666669,154.87109664882757L145.83333333333334,155.55333507221664L147,156.04528709416735L148.16666666666666,156.6598120700666L149.33333333333334,157.0364663419744L150.5,156.4419310969297L151.66666666666666,157.09163845423362L152.83333333333331,157.94226776033852L154,158.64303430650875L155.16666666666669,158.77963743075958L156.33333333333334,159.42686824347686L157.5,158.6995821441163L158.66666666666666,158.498543712475L159.83333333333331,158.46470592264845L161,158.76844251666714L162.16666666666669,158.6785478376727L163.33333333333334,159.46877980430182L164.5,159.14777545428515L165.66666666666666,160.0711114686231L166.83333333333334,160.66449716717258L168,159.60716022656626L169.16666666666666,159.72756163809288L170.33333333333331,160.29255705140585L171.5,160.80189743039085L172.66666666666669,160.07602890970665L173.83333333333334,160.17530682289984L175,159.6554780379693L176.16666666666666,160.22568306850638L177.33333333333331,161.1126392370792L178.5,160.74802096006803L179.66666666666669,160.82405628339797L180.83333333333334,161.75073292490623L182,162.68599958415155L183.16666666666666,163.0208838898925L184.33333333333334,162.6846527263583L185.5,162.04396101250163L186.66666666666666,161.10313169382758L187.83333333333331,161.32093412638324L189,161.8234780148543L190.16666666666669,162.48677161557282L191.33333333333334,161.93575212652993L192.5,162.6289504436055L193.66666666666666,162.7091497470702L194.83333333333331,162.51214612314664L196,161.8417374199245L197.16666666666669,162.38873237085423L198.33333333333334,162.98686470116255L199.5,162.9662841139551L200.66666666666666,163.4683997851526L201.83333333333334,163.6810420811364L203,162.92062174471891L204.16666666666666,162.46638186863214L205.33333333333331,162.87590673695806L206.5,162.85068559847866L207.66666666666669,162.48002721087096L208.83333333333334,163.06437286111262L210,162.9061598576953L211.16666666666666,163.15179737463805L212.33333333333331,164.30379499765337L213.5,165.3725723468684L214.66666666666669,165.51572878868888L215.83333333333334,164.779512790568L217,164.36965148416343L218.16666666666666,163.56995101443212L219.33333333333334,164.26082093183223L220.5,165.86063968050152L221.66666666666666,166.10002976547113L222.83333333333331,165.92915625109077L224,166.64087807320237L225.16666666666669,168.00873619311773L226.33333333333334,166.82726077700005L227.5,166.83787486152855L228.66666666666666,167.03351270425918L229.83333333333331,166.00070071653658L231,165.5342200488882L232.16666666666669,166.163956394758L233.33333333333334,166.74409929688005L234.5,166.41377542931232L235.66666666666666,166.23001401703422L236.83333333333334,166.11384603338075L238,166.13092957042323L239.16666666666666,165.98559650581788L240.33333333333331,166.86363635565553L241.5,167.65896277099677L242.66666666666669,168.100838742577L243.83333333333334,168.37647920802155L245,167.78798619915113L246.16666666666666,167.93011769828752L247.33333333333331,166.82673035012897L248.5,167.80824475737853L249.66666666666669,168.03026885108872L250.83333333333334,168.57629228921027L252,168.99011120786585L253.16666666666666,167.50433574633956L254.33333333333334,168.39984701945792L255.5,170.06618345145571" style="fill: none;" fill="none"></path></g><g><path stroke="rgb(0, 119, 187)" stroke-width="2px" d="M23.333333333333332,10.27739113289969L24.5,11.718901723384857L25.666666666666664,12.361798279509225L26.833333333333336,13.111695189698384L28,13.553901267245235L29.166666666666668,13.966801336398365L30.333333333333336,14.075554951878777L31.5,14.418461463737211L32.666666666666664,14.819230694151365L33.833333333333336,15.122138612114492L35,16.100403653318168L36.16666666666667,16.3407833378262L37.333333333333336,16.12450209150772L38.5,16.28033132947665L39.666666666666664,16.48550181156848L40.833333333333336,16.86825499194132L42,17.102184930468795L43.16666666666667,17.544349594887006L44.33333333333333,17.702767345975982L45.5,18.262768377750913L46.666666666666664,18.49824364870699L47.833333333333336,18.918507381163835L49,19.33513983283615L50.166666666666664,19.372744802637236L51.33333333333333,19.57697738514276L52.5,19.292598808057026L53.66666666666667,19.351554425959105L54.833333333333336,19.488281823139687L56,20.665138364479382L57.166666666666664,21.344715378266226L58.333333333333336,21.20440952581897L59.5,21.78010315070446L60.66666666666667,21.448178173357125L61.83333333333333,21.68707649987444L63,21.193391737777493L64.16666666666666,21.47473534071696L65.33333333333333,22.107227174618163L66.5,22.932998181354833L67.66666666666667,22.586691463932112L68.83333333333333,22.553535564437283L70,22.587209601628825L71.16666666666666,22.783482920713567L72.33333333333334,22.861363602591847L73.5,22.270676428664714L74.66666666666667,22.743016917908122L75.83333333333333,23.137480795911085L77,22.789792681765977L78.16666666666667,22.91845179031074L79.33333333333333,22.416441049242437L80.5,22.604371807281353L81.66666666666667,23.300074021479826L82.83333333333333,22.569011566816425L84,23.18467756517811L85.16666666666666,23.039217155954173L86.33333333333334,23.17963023929487L87.5,22.923471390254782L88.66666666666666,23.208468372090625L89.83333333333334,23.700064228341287L91,23.815956774527432L92.16666666666667,23.898374804113818L93.33333333333333,24.375950282902508L94.5,24.828117402887102L95.66666666666667,26.119860119815403L96.83333333333333,25.857201234787684L98,25.7341240159537L99.16666666666667,25.32860299495167L100.33333333333333,25.96847721477846L101.5,25.61229688991095L102.66666666666666,25.498718950553357L103.83333333333334,25.862419330384487L105,26.29368008998658L106.16666666666666,26.083590639898905L107.33333333333334,26.31691175131868L108.5,25.41423558838887L109.66666666666667,26.0173369365948L110.83333333333333,27.106112656516018L112,27.040197501245167L113.16666666666667,27.36703110178208L114.33333333333333,26.762402689803704L115.5,26.47964243654895L116.66666666666667,27.202749089989837L117.83333333333333,27.502688111700024L119,27.642147299131498L120.16666666666666,28.31185909481093L121.33333333333334,28.569265911380473L122.5,28.894826640050763L123.66666666666666,28.43490670616354L124.83333333333334,28.59283041612802L126,28.883441471613732L127.16666666666667,29.60438908874827L128.33333333333331,30.536128986347453L129.5,29.915884469488784L130.66666666666666,29.728752670480226L131.83333333333334,30.403626405667747L133,30.45312440940145L134.16666666666669,30.137871165656048L135.33333333333334,30.258191637512674L136.5,29.666259903183704L137.66666666666666,30.489210783088023L138.83333333333334,30.366502054264433L140,31.094346871596738L141.16666666666666,31.157120608026226L142.33333333333331,30.6173720663974L143.5,30.57614827384373L144.66666666666669,29.951557810763582L145.83333333333334,31.294302661529656L147,31.98788928778343L148.16666666666666,32.055074362029025L149.33333333333334,32.43270259592921L150.5,33.016957348028185L151.66666666666666,32.16778275341268L152.83333333333331,31.880219330414125L154,32.79206903677737L155.16666666666669,33.416727060930114L156.33333333333334,32.55058790565161L157.5,32.98251559565102L158.66666666666666,33.59496442472547L159.83333333333331,33.37385047730145L161,34.32587429874483L162.16666666666669,33.47176062682817L163.33333333333334,33.77394036744735L164.5,33.295910673780874L165.66666666666666,33.842021656256506L166.83333333333334,34.87574821278292L168,35.542640264274254L169.16666666666666,34.769852936793335L170.33333333333331,35.08629228695654L171.5,35.33552270962421L172.66666666666669,35.116285029822905L173.83333333333334,35.51730758133107L175,35.917761794129454L176.16666666666666,35.128504197144174L177.33333333333331,35.515129420185566L178.5,35.5876225566567L179.66666666666669,36.128405918485015L180.83333333333334,37.011462301962936L182,37.05522733997901L183.16666666666666,36.66426088911227L184.33333333333334,37.021269376790116L185.5,36.91390021576957L186.66666666666666,37.53607326806386L187.83333333333331,37.69671333721161L189,38.75624373610033L190.16666666666669,38.66299141018261L191.33333333333334,37.88196675282607L192.5,38.30743194988898L193.66666666666666,38.539749229268274L194.83333333333331,37.857281792461215L196,38.198178430095346L197.16666666666669,38.86331257410945L198.33333333333334,40.2033070047623L199.5,39.54919072577174L200.66666666666666,38.75280599669873L201.83333333333334,39.28165798298105L203,39.05092331119016L204.16666666666666,39.3507377467849L205.33333333333331,39.52061639674123L206.5,39.01212881141162L207.66666666666669,38.661832965732295L208.83333333333334,38.58753360163524L210,38.838793374612905L211.16666666666666,38.53297094664273L212.33333333333331,39.78271158529783L213.5,39.21801631416783L214.66666666666669,40.19996303753286L215.83333333333334,39.74214898482529L217,40.54950028599753L218.16666666666666,41.368587855575896L219.33333333333334,40.19257926908807L220.5,39.759351319910586L221.66666666666666,40.04484412673289L222.83333333333331,40.211838610504536L224,40.0470457939098L225.16666666666669,40.83879587288691L226.33333333333334,40.268301585861586L227.5,41.246985918906724L228.66666666666666,41.689767215428354L229.83333333333331,41.98834454632852L231,42.87897337818772L232.16666666666669,42.665855110526444L233.33333333333334,41.5770441545727L234.5,41.154268159700905L235.66666666666666,41.304198023942064L236.83333333333334,41.71096782995536L238,41.56538075126997L239.16666666666666,42.06005294591405L240.33333333333331,43.0848020149806L241.5,44.30863149356478L242.66666666666669,44.03709936307961L243.83333333333334,43.7877612239443L245,43.242191707620094L246.16666666666666,43.632559677020424L247.33333333333331,42.95413929578833L248.5,43.72146546267457L249.66666666666669,43.81535790287506L250.83333333333334,44.59937085940955L252,44.71203451014382L253.16666666666666,44.887638945243836L254.33333333333334,45.503943212008025L255.5,44.96607906534915" style="fill: none;" fill="none"></path></g><g><path stroke="rgb(255, 112, 67)" stroke-width="2px" d="M23.333333333333332,8.12065716498239L24.5,9.845912846769597L25.666666666666664,11.246335188217833L26.833333333333336,12.119416041356184L28,12.437252010304256L29.166666666666668,12.951841805969643L30.333333333333336,13.144663698430628L31.5,13.60151392061764L32.666666666666664,13.848070409836335L33.833333333333336,13.859179519277253L35,14.032541001957336L36.16666666666667,14.0288822763119L37.333333333333336,14.22612803686553L38.5,14.713556628636452L39.666666666666664,15.475661929363747L40.833333333333336,15.734085184426657L42,15.596917063948725L43.16666666666667,15.77006450006906L44.33333333333333,16.13453135465365L45.5,16.65136844604383L46.666666666666664,16.786139403205635L47.833333333333336,16.70797716073735L49,16.785626374775777L50.166666666666664,17.138497389132237L51.33333333333333,17.415475586161982L52.5,17.4770826724946L53.66666666666667,18.022463120541985L54.833333333333336,18.06311697962692L56,18.29530525628119L57.166666666666664,18.434383063316798L58.333333333333336,18.597198488824237L59.5,19.988557472853053L60.66666666666667,19.18810276998633L61.83333333333333,19.747876516766386L63,19.499862596862478L64.16666666666666,19.95686339914362L65.33333333333333,20.438612618621963L66.5,20.86083358030062L67.66666666666667,21.188338502312295L68.83333333333333,22.17911370669827L70,21.729222070616824L71.16666666666666,21.796329990536464L72.33333333333334,22.5642420935339L73.5,22.45432526643367L74.66666666666667,22.478866155520524L75.83333333333333,22.435730954295934L77,23.6068494684867L78.16666666666667,23.307560935357774L79.33333333333333,22.584505383793143L80.5,22.89460187333607L81.66666666666667,23.899497387390674L82.83333333333333,24.683410638160016L84,23.988280995059952L85.16666666666666,24.28137448474906L86.33333333333334,24.524946602688654L87.5,24.379096544812768L88.66666666666666,24.67272651056693L89.83333333333334,24.440510492826917L91,24.502785706794114L92.16666666666667,24.613183830125926L93.33333333333333,23.88127424918636L94.5,24.78343385841949L95.66666666666667,25.51144451893525L96.83333333333333,26.664881526664416L98,27.034694306776217L99.16666666666667,26.504613400864354L100.33333333333333,26.310045777836386L101.5,26.670440038309152L102.66666666666666,27.109739194319864L103.83333333333334,27.55384552105185L105,27.862890296029537L106.16666666666666,27.663047767095264L107.33333333333334,27.098741147396158L108.5,27.44814426446133L109.66666666666667,27.85073731801955L110.83333333333333,27.38693849556985L112,27.52146893753443L113.16666666666667,26.973588025488876L114.33333333333333,28.338712554651398L115.5,28.462858582464722L116.66666666666667,28.419242532574728L117.83333333333333,28.86968025966585L119,29.137091504536947L120.16666666666666,29.32017456149205L121.33333333333334,30.943401879577987L122.5,30.313683806252836L123.66666666666666,30.66153206937877L124.83333333333334,30.563837019751404L126,31.038439221171778L127.16666666666667,31.48233289730526L128.33333333333331,31.886183932893495L129.5,31.992272797175062L130.66666666666666,33.1461944938655L131.83333333333334,31.865053117304942L133,32.23005256958428L134.16666666666669,33.40238752123403L135.33333333333334,31.743356476123672L136.5,32.16947702000386L137.66666666666666,32.29451583410748L138.83333333333334,33.31492004570463L140,32.57559100022287L141.16666666666666,32.43332174207535L142.33333333333331,32.09341473016429L143.5,33.309942682812036L144.66666666666669,34.06806291018943L145.83333333333334,33.20570073701071L147,33.75358555876176L148.16666666666666,33.88147722277362L149.33333333333334,33.85507986644439L150.5,34.15455530468456L151.66666666666666,34.75560146305804L152.83333333333331,33.99283822191179L154,35.40209412283127L155.16666666666669,35.07270863477923L156.33333333333334,34.623229554363455L157.5,35.121479677503324L158.66666666666666,36.01780830287039L159.83333333333331,36.00988955696114L161,36.44714014374002L162.16666666666669,35.83752235125431L163.33333333333334,35.44476292476015L164.5,35.7507992920047L165.66666666666666,36.016460404823185L166.83333333333334,36.01255915392208L168,35.26308453530019L169.16666666666666,35.580255253585435L170.33333333333331,35.42509323208551L171.5,35.94195565696369L172.66666666666669,36.82921160719962L173.83333333333334,35.22886005943436L175,36.639502698171064L176.16666666666666,36.67752485247983L177.33333333333331,37.41733949764774L178.5,37.483355629152435L179.66666666666669,37.31227883202899L180.83333333333334,36.99179067186753L182,37.896080810286065L183.16666666666666,37.7143080430782L184.33333333333334,39.102137448614776L185.5,37.7744931795309L186.66666666666666,37.72035347389806L187.83333333333331,37.745105454939946L189,37.81981174937387L190.16666666666669,37.076168539514285L191.33333333333334,38.32024884459043L192.5,38.59330878900176L193.66666666666666,38.78876324995482L194.83333333333331,38.5684715763985L196,39.114044573908295L197.16666666666669,38.41795287077057L198.33333333333334,37.65929133284007L199.5,37.81755046858397L200.66666666666666,38.29131902223487L201.83333333333334,39.201581129353045L203,39.545581978502064L204.16666666666666,39.75789626166442L205.33333333333331,39.54203578360126L206.5,40.05957736408602L207.66666666666669,40.34598002353673L208.83333333333334,41.47321255374255L210,40.01113512872468L211.16666666666666,39.69167628880883L212.33333333333331,39.64064149432846L213.5,39.53445874597538L214.66666666666669,39.53751264785812L215.83333333333334,39.34236086521286L217,39.23405003146117L218.16666666666666,39.88555247730741L219.33333333333334,39.232220768175026L220.5,39.97729694618247L221.66666666666666,40.86137715855857L222.83333333333331,40.98687646886734L224,41.657070942159386L225.16666666666669,41.36078964312853L226.33333333333334,40.388652160140346L227.5,42.12697494618272L228.66666666666666,42.451014092269325L229.83333333333331,41.6702225427116L231,40.42335092097347L232.16666666666669,40.012768184812394L233.33333333333334,40.60136682617499L234.5,41.769629092287026L235.66666666666666,41.68468752617298L236.83333333333334,41.99090909086857L238,42.307777291221576L239.16666666666666,41.07649166334205L240.33333333333331,40.776644667870414L241.5,42.13233129687703L242.66666666666669,42.811477704321646L243.83333333333334,42.226473370552654L245,42.75358176435778L246.16666666666666,42.122401180785246L247.33333333333331,42.35310992037649L248.5,42.21601721107598L249.66666666666669,42.60361421938067L250.83333333333334,43.89627814542845L252,43.87777002904173L253.16666666666666,43.39908218463957L254.33333333333334,43.22643452567107L255.5,43.09857594781578" style="fill: none;" fill="none"></path></g></g></g></g><g opacity="0.2"><g><g><g><path stroke="rgb(51, 187, 238)" stroke-width="2px" d="M23.333333333333332,9.031082923344206L24.5,10.598398725237157L25.666666666666664,12.247337866101935L26.833333333333336,12.877838975633885L28,12.806373341696597L29.166666666666668,13.360495743342804L30.333333333333336,13.104066438947394L31.5,13.487783542633055L32.666666666666664,13.756721593584324L33.833333333333336,13.764422761644626L35,14.463254783085416L36.16666666666667,14.656145683288573L37.333333333333336,15.348241066523958L38.5,15.374419009617398L39.666666666666664,15.087516590118407L40.833333333333336,15.442297798156737L42,14.917005796704961L43.16666666666667,16.11440932846069L44.33333333333333,14.97439532307215L45.5,16.81765708814347L46.666666666666664,17.092879653930662L47.833333333333336,17.11464185878208L49,18.066045065198615L50.166666666666664,18.706899799891875L51.33333333333333,17.851090544564368L52.5,17.159703487941194L53.66666666666667,18.394874391828253L54.833333333333336,21.120349417005254L56,19.037326629093716L57.166666666666664,20.273673053741454L58.333333333333336,18.709567327771857L59.5,19.698572127750943L60.66666666666667,19.921167533329555L61.83333333333333,20.013928177969788L63,20.48112232644217L64.16666666666666,19.36365420641217L65.33333333333333,21.05357079533167L66.5,20.584899710518958L67.66666666666667,20.536386872972752L68.83333333333333,19.221431265149786L70,21.47612529645646L71.16666666666666,20.669281002044677L72.33333333333334,21.05598211996896L73.5,19.979913429805208L74.66666666666667,19.43686805071149L75.83333333333333,20.449353124346043L77,21.62858129664829L78.16666666666667,20.142436710357664L79.33333333333333,23.68730998883929L80.5,18.573387768881656L81.66666666666667,21.597791695186068L82.83333333333333,22.825095652444027L84,20.91011205019269L85.16666666666666,19.686922415597085L86.33333333333334,21.306518749782015L87.5,21.99685085187638L88.66666666666666,20.9367571874346L89.83333333333334,23.57880038016183L91,21.949845092228482L92.16666666666667,26.900121258599423L93.33333333333333,22.021506646292544L94.5,24.24892256764002L95.66666666666667,24.563585362025666L96.83333333333333,22.595236131395602L98,23.943950284140442L99.16666666666667,23.215549394335056L100.33333333333333,23.367357351030613L101.5,25.226624283381867L102.66666666666666,24.404061166490816L103.83333333333334,26.505545658656526L105,23.139833800724578L106.16666666666666,24.750674012320374L107.33333333333334,25.15561077281406L108.5,26.714946597235535L109.66666666666667,27.00202986608233L110.83333333333333,27.627557618549893L112,26.43046303776331L113.16666666666667,25.505252845219204L114.33333333333333,28.925415427616667L115.5,28.87546333067758L116.66666666666667,24.861127751486634L117.83333333333333,27.43032633399963L119,26.796283591406677L120.16666666666666,29.289419952392578L121.33333333333334,26.61786063902719L122.5,29.777554948261805L123.66666666666666,29.099467854091095L124.83333333333334,30.585951532908844L126,29.721235447202396L127.16666666666667,31.34057557814462L128.33333333333331,30.576645326886844L129.5,32.39273447745187L130.66666666666666,30.855823972157072L131.83333333333334,31.729785980769563L133,28.990867820739744L134.16666666666669,31.81214025252206L135.33333333333334,28.613495515005923L136.5,31.640566969190314L137.66666666666666,32.33891672570364L138.83333333333334,31.771208016804287L140,31.367936577388214L141.16666666666666,31.7067276889256L142.33333333333331,32.28687732587542L143.5,30.752468569891786L144.66666666666669,30.913334064756107L145.83333333333334,30.867405865805484L147,32.668009790965485L148.16666666666666,33.98289004489353L149.33333333333334,34.6755355115618L150.5,34.49621584783282L151.66666666666666,35.002269999912805L152.83333333333331,35.04611843136377L154,33.11854319327218L155.16666666666669,34.41179687935965L156.33333333333334,34.47586276081629L157.5,33.812266220637724L158.66666666666666,37.472348069054746L159.83333333333331,35.914564534868504L161,34.832105834415984L162.16666666666669,36.20940925489153L163.33333333333334,33.023243122373295L164.5,33.87967781502859L165.66666666666666,36.113287826538084L166.83333333333334,34.08757167570932L168,35.58095023591177L169.16666666666666,36.74675787952967L170.33333333333331,34.374240498134064L171.5,37.992636571884155L172.66666666666669,37.31427066830225L173.83333333333334,33.9848643169403L175,33.889797843115666L176.16666666666666,36.27077746691022L177.33333333333331,38.16515931429181L178.5,37.395298711504246L179.66666666666669,34.56067356954303L180.83333333333334,35.909658996309545L182,35.994793826784395L183.16666666666666,36.767208926609584L184.33333333333334,34.62854482269287L185.5,35.49430832753863L186.66666666666666,38.90084692573547L187.83333333333331,35.664216289792726L189,35.709021715709135L190.16666666666669,36.5329035257612L191.33333333333334,36.85467219243731L192.5,36.40224740736825L193.66666666666666,34.663689879281186L194.83333333333331,38.46569325338091L196,38.71162576021466L197.16666666666669,38.192866941452024L198.33333333333334,40.03865306200299L199.5,38.606778350830076L200.66666666666666,38.97647209467206L201.83333333333334,41.24299668748038L203,38.99008100809369L204.16666666666666,38.26340572248187L205.33333333333331,41.40157895932879L206.5,41.03003904506137L207.66666666666669,39.99863260841369L208.83333333333334,39.41965849222455L210,40.33948841667175L211.16666666666666,39.4690152933938L212.33333333333331,39.84219792257037L213.5,36.88450479943411L214.66666666666669,41.099206385203765L215.83333333333334,39.052059586661194L217,41.52564161191668L218.16666666666666,37.627456526347565L219.33333333333334,42.6527399597168L220.5,37.07044807052612L221.66666666666666,40.80951587159293L222.83333333333331,40.35299937003L224,40.756436588014864L225.16666666666669,35.00233028302874L226.33333333333334,44.08658894293649L227.5,42.42312157113211L228.66666666666666,41.47472498512268L229.83333333333331,39.34007724380493L231,39.51596076992578L232.16666666666669,42.088663308552334L233.33333333333334,40.736158854893276L234.5,38.73818800817217L235.66666666666666,38.17665078326633L236.83333333333334,39.002017065048214L238,42.001591882978154L239.16666666666666,40.71857879120962L240.33333333333331,42.14883339364187L241.5,42.600632741383144L242.66666666666669,43.31106926264081L243.83333333333334,40.50435520335605L245,43.335401035308834L246.16666666666666,41.925009719576146L247.33333333333331,43.3273683101109L248.5,43.64674825831821L249.66666666666669,43.97514806774683L250.83333333333334,40.87012300927298L252,41.23775205639429L253.16666666666666,40.32251871953692L254.33333333333334,44.58495699773516L255.5,41.51193473843164" style="fill: none;" fill="none"></path></g><g><path stroke="rgb(204, 51, 17)" stroke-width="2px" d="M23.333333333333332,18.764605812617706L24.5,101.01809549835748L25.666666666666664,123.4831638045992L26.833333333333336,128.2943065393993L28,131.22583113867896L29.166666666666668,134.0114065465927L30.333333333333336,135.33971109689983L31.5,135.75406521041052L32.666666666666664,136.42724582409858L33.833333333333336,138.5976169631481L35,138.21092620638436L36.16666666666667,138.80662323570252L37.333333333333336,138.9387261488778L38.5,139.00125857857293L39.666666666666664,139.20141171039853L40.833333333333336,139.22539591322627L42,139.47458465024403L43.16666666666667,139.36469606528962L44.33333333333333,139.99020592120715L45.5,139.99532998606136L46.666666666666664,140.3124587366581L47.833333333333336,140.57693489510672L49,140.84169363066127L50.166666666666664,141.25325776621273L51.33333333333333,141.9517629401343L52.5,141.0340438666684L53.66666666666667,142.02305337626592L54.833333333333336,142.61146839356422L56,142.7363778355462L57.166666666666664,141.79264565563201L58.333333333333336,142.620573969841L59.5,143.11907766165052L60.66666666666667,142.81068242747443L61.83333333333333,144.54317161221164L63,142.1500614242213L64.16666666666666,144.42255592935425L65.33333333333333,142.81953368435586L66.5,143.99506245137962L67.66666666666667,143.44311542248724L68.83333333333333,145.7409820549999L70,146.0468647077424L71.16666666666666,144.1515861490113L72.33333333333334,145.51498300818034L73.5,144.2290362950904L74.66666666666667,146.1424002595629L75.83333333333333,146.64562487288882L77,147.62600259382384L78.16666666666667,145.29386689375127L79.33333333333333,144.83832198647087L80.5,144.45110281051907L81.66666666666667,146.03960530189104L82.83333333333333,146.45526303778377L84,145.53775307137624L85.16666666666666,147.10376854762006L86.33333333333334,148.46480400410718L87.5,145.91113680125986L88.66666666666666,148.03016815429925L89.83333333333334,146.42178330227304L91,147.39374823180265L92.16666666666667,147.2037146571023L93.33333333333333,150.73422877994602L94.5,148.0401758579867L95.66666666666667,148.2283039210694L96.83333333333333,149.54817707697833L98,148.99778092543568L99.16666666666667,148.9638982820681L100.33333333333333,149.98437298789193L101.5,151.46449369257422L102.66666666666666,149.80871940889102L103.83333333333334,149.85514329518165L105,150.8500640823543L106.16666666666666,151.26828735345282L107.33333333333334,147.76765849702699L108.5,152.98364062095965L109.66666666666667,149.4586441693306L110.83333333333333,151.03858993158383L112,149.07324314157452L113.16666666666667,152.04784185216468L114.33333333333333,150.42286507327213L115.5,151.89280985258358L116.66666666666667,152.07892618743543L117.83333333333333,155.0266098702124L119,153.1222519913273L120.16666666666666,152.96436768493055L121.33333333333334,152.94902021586466L122.5,153.63403303942084L123.66666666666666,152.553132104135L124.83333333333334,154.67065596718447L126,153.18995522883958L127.16666666666667,152.92615819736886L128.33333333333331,154.83322728584494L129.5,154.53626276656559L130.66666666666666,153.30809459432533L131.83333333333334,156.02904744388374L133,154.93069943276473L134.16666666666669,153.93394636854103L135.33333333333334,154.0674447416578L136.5,155.93003242596558L137.66666666666666,154.81510114190405L138.83333333333334,156.94433541231496L140,155.7383368269205L141.16666666666666,154.86131309536523L142.33333333333331,155.14880986871037L143.5,153.78996038161856L144.66666666666669,155.1454321303708L145.83333333333334,156.57669270730017L147,156.78321512709346L148.16666666666666,157.58159953391552L149.33333333333334,157.6014477498361L150.5,155.55012822936263L151.66666666666666,158.06619949018955L152.83333333333331,159.2182117194959L154,159.69418412576402L155.16666666666669,158.98454211713585L156.33333333333334,160.39771446255273L157.5,157.6086529950755L158.66666666666666,158.19698606501308L159.83333333333331,158.4139492379086L161,159.22404740769522L162.16666666666669,158.543705819181L163.33333333333334,160.65412775424548L164.5,158.6662689292601L165.66666666666666,161.45611549013L166.83333333333334,161.55457571499687L168,158.02115481565679L169.16666666666666,159.9081637553828L170.33333333333331,161.14005017137526L171.5,161.5659079988684L172.66666666666669,158.98722612868036L173.83333333333334,160.3242236926896L175,158.8757348605735L176.16666666666666,161.08099061431201L177.33333333333331,162.44307348993846L178.5,160.2010935445513L179.66666666666669,160.93810926839282L180.83333333333334,163.1407478871686L182,164.08889957301957L183.16666666666666,163.5232103485039L184.33333333333334,162.18030598105702L185.5,161.0829234417166L186.66666666666666,159.69188771581648L187.83333333333331,161.64763777521677L189,162.57729384756087L190.16666666666669,163.4817120166506L191.33333333333334,161.10922289296556L192.5,163.66874791921887L193.66666666666666,162.82944870226723L194.83333333333331,162.21664068726128L196,160.8361243650913L197.16666666666669,163.20922479724882L198.33333333333334,163.88406319662502L199.5,162.93541323314395L200.66666666666666,164.22157329194886L201.83333333333334,164.00000552511213L203,161.77999124009267L204.16666666666666,161.78502205450192L205.33333333333331,163.49019403944698L206.5,162.8128538907596L207.66666666666669,161.92403962945937L208.83333333333334,163.9408913364751L210,162.66884035256928L211.16666666666666,163.5202536500522L212.33333333333331,166.0317914321763L213.5,166.975738370691L214.66666666666669,165.73046345141952L215.83333333333334,163.67518879338672L217,163.75485952455657L218.16666666666666,162.37040030983513L219.33333333333334,165.29712580793245L220.5,168.2603678035055L221.66666666666666,166.45911489292553L222.83333333333331,165.67284597952025L224,167.70846080636977L225.16666666666669,170.06052337299073L226.33333333333334,165.0550476528236L227.5,166.8537959883213L228.66666666666666,167.32696946835517L229.83333333333331,164.45148273495263L231,164.8344990474156L232.16666666666669,167.10856091356277L233.33333333333334,167.6143136500631L234.5,165.91828962796075L235.66666666666666,165.95437189861704L236.83333333333334,165.93959405790056L238,166.1565548759869L239.16666666666666,165.76759690890992L240.33333333333331,168.18069613041195L241.5,168.85195239400863L242.66666666666669,168.76365269994736L243.83333333333334,168.7899399061884L245,166.9052466858455L246.16666666666666,168.14331494699206L247.33333333333331,165.1716493278912L248.5,169.28051636825288L249.66666666666669,168.363304991654L250.83333333333334,169.3953274463926L252,169.6108395858492L253.16666666666666,165.27567255405015L254.33333333333334,169.74311392913546L255.5,172.56568809945242" style="fill: none;" fill="none"></path></g><g><path stroke="rgb(0, 119, 187)" stroke-width="2px" d="M23.333333333333332,10.27739113289969L24.5,12.583808077675942L25.666666666666664,12.97897897338867L26.833333333333336,13.993573956080843L28,14.131245522090364L29.166666666666668,14.537990776062012L30.333333333333336,14.231074362073613L31.5,14.91842244992936L32.666666666666664,15.410287463596891L33.833333333333336,15.571921568189337L35,17.55892842320032L36.16666666666667,16.7000447289603L37.333333333333336,15.800786417824867L38.5,16.51376990073068L39.666666666666664,16.793016364506315L40.833333333333336,17.442114815303253L42,17.45298084694998L43.16666666666667,18.20748432595389L44.33333333333333,17.940369839259553L45.5,19.10271873910086L46.666666666666664,18.851443641117644L47.833333333333336,19.548889150891974L49,19.960080284663604L50.166666666666664,19.4291518118722L51.33333333333333,19.883324807303286L52.5,18.86603215517316L53.66666666666667,19.43998770196097L54.833333333333336,19.693372709001803L56,22.430422092437745L57.166666666666664,22.36408052335467L58.333333333333336,20.993950793675015L59.5,22.643643473488947L60.66666666666667,20.950290746961308L61.83333333333333,22.04542397253854L63,20.452864615849087L64.16666666666666,21.896750737871432L65.33333333333333,23.055964915684292L66.5,24.171654683794284L67.66666666666667,22.067231389726903L68.83333333333333,22.503801715305876L70,22.63772065734863L71.16666666666666,23.077892899104523L72.33333333333334,22.978184625353123L73.5,21.384645668029783L74.66666666666667,23.45152765165057L75.83333333333333,23.729176612854L77,22.268260510580873L78.16666666666667,23.111440453120636L79.33333333333333,21.66342493765695L80.5,22.886267944335938L81.66666666666667,24.343627342769075L82.83333333333333,21.47241788482666L84,24.108176562717983L85.16666666666666,22.82102654211862L86.33333333333334,23.39024986430576L87.5,22.539233116694856L88.66666666666666,23.63596384484427L89.83333333333334,24.437458012717105L91,23.989795593806672L92.16666666666667,24.02200184849329L93.33333333333333,25.092313501085545L94.5,25.506368082863947L95.66666666666667,28.05747419520786L96.83333333333333,25.46321290724618L98,25.549508187702724L99.16666666666667,24.720321463448666L100.33333333333333,26.92828854451861L101.5,25.07802640260968L102.66666666666666,25.328352041516972L103.83333333333334,26.407969900131224L105,26.940571229389736L106.16666666666666,25.768456464767453L107.33333333333334,26.666893418448304L108.5,24.06022134399414L109.66666666666667,26.921988958903718L110.83333333333333,28.739276236397885L112,26.941324768338873L113.16666666666667,27.85728150258746L114.33333333333333,25.855460071836188L115.5,26.05550205666678L116.66666666666667,28.287409070151185L117.83333333333333,27.952596644265316L119,27.85133608027866L120.16666666666666,29.316426788330077L121.33333333333334,28.95537613623483L122.5,29.383167733056208L123.66666666666666,27.74502680533273L124.83333333333334,28.829715981074738L126,29.319358054842258L127.16666666666667,30.685810514450072L128.33333333333331,31.93373883274622L129.5,28.985517694200777L130.66666666666666,29.448054971967412L131.83333333333334,31.415937008449006L133,30.52737141500201L134.16666666666669,29.66499130003793L135.33333333333334,30.438672345297668L136.5,28.77836230169024L137.66666666666666,31.723637102944515L138.83333333333334,30.18243896102905L140,32.186114097595215L141.16666666666666,31.251281212670467L142.33333333333331,29.807749253954196L143.5,30.514312585013247L144.66666666666669,29.014672116143366L145.83333333333334,33.30841993767874L147,33.028269227164124L148.16666666666666,32.1558519733974L149.33333333333334,32.999144946779516L150.5,33.89333947617666L151.66666666666666,30.894020861489437L152.83333333333331,31.448874195916314L154,34.1598435963222L155.16666666666669,34.35371409715924L156.33333333333334,31.251379172733852L157.5,33.63040713065011L158.66666666666666,34.51363766833713L159.83333333333331,33.04217955616541L161,35.75391003090994L162.16666666666669,32.19059011895315L163.33333333333334,34.2272099783761L164.5,32.57886613328116L165.66666666666666,34.66118812997L166.83333333333334,36.42633804757254L168,36.542978341511315L169.16666666666666,33.610671945571895L170.33333333333331,35.560951312201354L171.5,35.709368343625734L172.66666666666669,34.78742851012094L173.83333333333334,36.11884140859332L175,36.518443113327024L176.16666666666666,33.94461780166626L177.33333333333331,36.095067254747654L178.5,35.69636226136343L179.66666666666669,36.93958096122741L180.83333333333334,38.33604687717981L182,37.12087489700317L183.16666666666666,36.077811212812136L184.33333333333334,37.556782108306884L185.5,36.7528464742388L186.66666666666666,38.4693328465053L187.83333333333331,37.937673440933224L189,40.34553933443341L190.16666666666669,38.52311292130606L191.33333333333334,36.7104297667912L192.5,38.945629745483394L193.66666666666666,38.88822514833722L194.83333333333331,36.83358063725061L196,38.709523386546536L197.16666666666669,39.86101379013061L198.33333333333334,42.21329865074158L199.5,38.56801630728585L200.66666666666666,37.55822890308924L201.83333333333334,40.07493596240451L203,38.70482130350385L204.16666666666666,39.800459400177L205.33333333333331,39.77543437167575L206.5,38.24939743341718L207.66666666666669,38.13638919721331L208.83333333333334,38.47608455548968L210,39.215683034079404L211.16666666666666,38.0742373046875L212.33333333333331,41.65732254328046L213.5,38.370973407472874L214.66666666666669,41.67288312258039L215.83333333333334,39.055427905763885L217,41.760527237755916L218.16666666666666,42.59721920994348L219.33333333333334,38.42856638935633L220.5,39.10950939614432L221.66666666666666,40.47308333696637L222.83333333333331,40.46233033616202L224,39.79985656901767L225.16666666666669,42.02642099135263L226.33333333333334,39.412560155323575L227.5,42.71501241847446L228.66666666666666,42.35393916021075L229.83333333333331,42.43621054267883L231,44.214916625976564L232.16666666666669,42.346177709034514L233.33333333333334,39.94382772064209L234.5,40.52010416739328L235.66666666666666,41.529092820303774L236.83333333333334,42.32112253897531L238,41.34700013324191L239.16666666666666,42.80206123788016L240.33333333333331,44.62192561858041L241.5,46.144375711441036L242.66666666666669,43.629801167351864L243.83333333333334,43.41375401524134L245,42.42383743313379L246.16666666666666,44.21811163112094L247.33333333333331,41.93650872394016L248.5,44.87245471300397L249.66666666666669,43.956196563175745L250.83333333333334,45.77539029421124L252,44.881029986245295L253.16666666666666,45.151045597893855L254.33333333333334,46.428399612154266L255.5,44.1592828453609" style="fill: none;" fill="none"></path></g><g><path stroke="rgb(255, 112, 67)" stroke-width="2px" d="M23.333333333333332,8.12065716498239L24.5,10.881066255841924L25.666666666666664,12.59074063600812L26.833333333333336,13.146159124646855L28,12.852218651362824L29.166666666666668,13.663704745701382L30.333333333333336,13.420402089800143L31.5,14.267605930328369L32.666666666666664,14.211693340301514L33.833333333333336,13.875675252096988L35,14.29101085008893L36.16666666666667,14.023414098467136L37.333333333333336,14.521352636064792L38.5,15.443744592939092L39.666666666666664,16.617924054282046L40.833333333333336,16.121537806919644L42,15.391222928183414L43.16666666666667,16.02974169213431L44.33333333333333,16.681176113673615L45.5,17.42657684217179L46.666666666666664,16.988288447788786L47.833333333333336,16.59073636899674L49,16.90209866278512L50.166666666666664,17.66779973057337L51.33333333333333,17.830940913064126L52.5,17.569493039267396L53.66666666666667,18.84053239713395L54.833333333333336,18.124097705841063L56,18.643587457384374L57.166666666666664,18.642999697004033L58.333333333333336,18.84142157309396L59.5,22.075595672062466L60.66666666666667,17.987420811244416L61.83333333333333,20.58753709684098L63,19.127841727665494L64.16666666666666,20.642364590781067L65.33333333333333,21.16123644038608L66.5,21.494165018899086L67.66666666666667,21.679595883505677L68.83333333333333,23.66527650996616L70,21.05438461739676L71.16666666666666,21.89699187033517L72.33333333333334,23.716110247475765L73.5,22.289450025830938L74.66666666666667,22.515677489144466L75.83333333333333,22.37102815246582L77,25.363527239663263L78.16666666666667,22.85862813568115L79.33333333333333,21.499922056470584L80.5,23.359746607644222L81.66666666666667,25.406840658460332L82.83333333333333,25.85928051430838L84,22.945586530412935L85.16666666666666,24.721014719281865L86.33333333333334,24.890304779597688L87.5,24.160321457999085L88.66666666666666,25.113171459197996L89.83333333333334,24.09218646621704L91,24.59619852774484L92.16666666666667,24.77878101512363L93.33333333333333,22.7834098777771L94.5,26.136673272269107L95.66666666666667,26.603460509708952L96.83333333333333,28.395037038258145L98,27.589413476943967L99.16666666666667,25.709492041996548L100.33333333333333,26.018194343294407L101.5,27.211031429018284L102.66666666666666,27.768687928336L103.83333333333334,28.220005011149812L105,28.32645745849609L106.16666666666666,27.363283973693846L107.33333333333334,26.25228121784754L108.5,27.972248940059114L109.66666666666667,28.454626898356842L110.83333333333333,26.69124026189532L112,27.723264600481297L113.16666666666667,26.151766657420563L114.33333333333333,30.386399348395205L115.5,28.64907762418475L116.66666666666667,28.35381845773969L117.83333333333333,29.545336850302554L119,29.538208371843602L120.16666666666666,29.594799146924686L121.33333333333334,33.37824285670688L122.5,29.369106696265078L123.66666666666666,31.18330446406772L124.83333333333334,30.417294445310308L126,31.75034252330234L127.16666666666667,32.14817341150555L128.33333333333331,32.491960486275815L129.5,32.15140609359741L130.66666666666666,34.877077038901184L131.83333333333334,29.943341052464078L133,32.77755174800327L134.16666666666669,35.16088994870867L135.33333333333334,29.25480990845816L136.5,32.80865783582415L137.66666666666666,32.48207405526297L138.83333333333334,34.84552636310031L140,31.4665974320003L141.16666666666666,32.21991785485403L142.33333333333331,31.583554212297702L143.5,35.1347346117837L144.66666666666669,35.20524325125558L145.83333333333334,31.91215747724261L147,34.575412791388366L148.16666666666666,34.07331471879141L149.33333333333334,33.815483831950594L150.5,34.603768462044854L151.66666666666666,35.657170700618195L152.83333333333331,32.84869336019244L154,37.51597797421045L155.16666666666669,34.578630402701236L156.33333333333334,33.9490109337398L157.5,35.868854862213134L158.66666666666666,37.36230124092102L159.83333333333331,35.998011438097265L161,37.10301602390833L162.16666666666669,34.923095662525725L163.33333333333334,34.85562378501892L164.5,36.209853842871524L165.66666666666666,36.4149520740509L166.83333333333334,36.00670727757044L168,34.138872607367375L169.16666666666666,36.05601133101327L170.33333333333331,35.19235019983563L171.5,36.717249294281004L172.66666666666669,38.16009553255353L173.83333333333334,32.82833273778643L175,38.755466656276155L176.16666666666666,36.73455808394296L177.33333333333331,38.5270614653996L178.5,37.58237982640948L179.66666666666669,37.05566363634381L180.83333333333334,36.511058431625365L182,39.25251601791382L183.16666666666666,37.441648892266414L184.33333333333334,41.183881556919644L185.5,35.78302677590506L186.66666666666666,37.639143915448855L187.83333333333331,37.78223342650277L189,37.931871191024776L190.16666666666669,35.96070372472491L191.33333333333334,40.186369302204675L192.5,39.00289870561871L193.66666666666666,39.08194494138446L194.83333333333331,38.23803406606402L196,39.93240407017298L197.16666666666669,37.37381531606402L198.33333333333334,36.5212990259443L199.5,38.054939172199795L200.66666666666666,39.00197185271127L201.83333333333334,40.56697429003034L203,40.06158325222559L204.16666666666666,40.0763676864079L205.33333333333331,39.218245066506526L206.5,40.83588973481314L207.66666666666669,40.77558401271274L208.83333333333334,43.16406134905133L210,37.818018991197846L211.16666666666666,39.21248802893503L212.33333333333331,39.56408930260794L213.5,39.375184623445776L214.66666666666669,39.54209350068228L215.83333333333334,39.049633191244936L217,39.07158378083365L218.16666666666666,40.86280614607675L219.33333333333334,38.25222320447649L220.5,41.094911213193605L221.66666666666666,42.18749747712271L222.83333333333331,41.17512543433053L224,42.662362652097414L225.16666666666669,40.91636769458225L226.33333333333334,38.93044593565805L227.5,44.73445912524631L228.66666666666666,42.937072811399176L229.83333333333331,40.49903521837506L231,38.553043488366264L232.16666666666669,39.39689408057077L233.33333333333334,41.4842647882189L234.5,43.522022491455076L235.66666666666666,41.55727517700195L236.83333333333334,42.450241437911984L238,42.7830795917511L239.16666666666666,39.22956322152273L240.33333333333331,40.326874174663L241.5,44.16586124038696L242.66666666666669,43.830197315488526L243.83333333333334,41.3489668698992L245,43.54424435506549L246.16666666666666,41.17563030542645L247.33333333333331,42.69917302976336L248.5,42.010378147125245L249.66666666666669,43.185009731837674L250.83333333333334,45.83527403450012L252,43.850007854461666L253.16666666666666,42.681050418036314L254.33333333333334,42.96746303721836L255.5,42.90678808103289" style="fill: none;" fill="none"></path></g></g></g></g></g><g><g><span fill="rgb(0, 0, 0)" stroke="none" stroke-width="1px">Alt + Scroll to Zoom</span></g></g></g><g transform="translate(50, 176)" clip-path="url(#clip_1)"><clipPath id="clip_1"><rect width="279" height="22"></rect></clipPath><g><g><line x1="0" y1="0" x2="0" y2="5" style="visibility: inherit;" fill="rgb(0, 0, 0)" stroke="rgb(204, 204, 204)" stroke-width="1px"></line><line x1="23.333333333333332" y1="0" x2="23.333333333333332" y2="5" style="visibility: inherit;" fill="rgb(0, 0, 0)" stroke="rgb(204, 204, 204)" stroke-width="1px"></line><line x1="46.666666666666664" y1="0" x2="46.666666666666664" y2="5" style="visibility: inherit;" fill="rgb(0, 0, 0)" stroke="rgb(204, 204, 204)" stroke-width="1px"></line><line x1="70" y1="0" x2="70" y2="5" style="visibility: inherit;" fill="rgb(0, 0, 0)" stroke="rgb(204, 204, 204)" stroke-width="1px"></line><line x1="93.33333333333333" y1="0" x2="93.33333333333333" y2="5" style="visibility: inherit;" fill="rgb(0, 0, 0)" stroke="rgb(204, 204, 204)" stroke-width="1px"></line><line x1="116.66666666666667" y1="0" x2="116.66666666666667" y2="5" style="visibility: inherit;" fill="rgb(0, 0, 0)" stroke="rgb(204, 204, 204)" stroke-width="1px"></line><line x1="140" y1="0" x2="140" y2="5" style="visibility: inherit;" fill="rgb(0, 0, 0)" stroke="rgb(204, 204, 204)" stroke-width="1px"></line><line x1="163.33333333333334" y1="0" x2="163.33333333333334" y2="5" style="visibility: inherit;" fill="rgb(0, 0, 0)" stroke="rgb(204, 204, 204)" stroke-width="1px"></line><line x1="186.66666666666666" y1="0" x2="186.66666666666666" y2="5" style="visibility: inherit;" fill="rgb(0, 0, 0)" stroke="rgb(204, 204, 204)" stroke-width="1px"></line><line x1="210" y1="0" x2="210" y2="5" style="visibility: inherit;" fill="rgb(0, 0, 0)" stroke="rgb(204, 204, 204)" stroke-width="1px"></line><line x1="233.33333333333334" y1="0" x2="233.33333333333334" y2="5" style="visibility: inherit;" fill="rgb(0, 0, 0)" stroke="rgb(204, 204, 204)" stroke-width="1px"></line><line x1="256.66666666666663" y1="0" x2="256.66666666666663" y2="5" style="visibility: inherit;" fill="rgb(0, 0, 0)" stroke="rgb(204, 204, 204)" stroke-width="1px"></line><line x1="280" y1="0" x2="280" y2="5" style="visibility: inherit;" fill="rgb(0, 0, 0)" stroke="rgb(204, 204, 204)" stroke-width="1px"></line></g><g transform="translate(0, 8)"><text x="0" y="0" dx="0em" dy="0.95em" style="text-anchor: middle; visibility: hidden; font-family: Roboto, sans-serif; font-size: 12px; font-weight: 200;" fill="rgb(33, 33, 33)" stroke="none" stroke-width="1px">-20</text><text x="23.333333333333332" y="0" dx="0em" dy="0.95em" style="text-anchor: middle; visibility: inherit; font-family: Roboto, sans-serif; font-size: 12px; font-weight: 200;" fill="rgb(33, 33, 33)" stroke="none" stroke-width="1px">0</text><text x="46.666666666666664" y="0" dx="0em" dy="0.95em" style="text-anchor: middle; visibility: hidden; font-family: Roboto, sans-serif; font-size: 12px; font-weight: 200;" fill="rgb(33, 33, 33)" stroke="none" stroke-width="1px">20</text><text x="70" y="0" dx="0em" dy="0.95em" style="text-anchor: middle; visibility: inherit; font-family: Roboto, sans-serif; font-size: 12px; font-weight: 200;" fill="rgb(33, 33, 33)" stroke="none" stroke-width="1px">40</text><text x="93.33333333333333" y="0" dx="0em" dy="0.95em" style="text-anchor: middle; visibility: hidden; font-family: Roboto, sans-serif; font-size: 12px; font-weight: 200;" fill="rgb(33, 33, 33)" stroke="none" stroke-width="1px">60</text><text x="116.66666666666667" y="0" dx="0em" dy="0.95em" style="text-anchor: middle; visibility: inherit; font-family: Roboto, sans-serif; font-size: 12px; font-weight: 200;" fill="rgb(33, 33, 33)" stroke="none" stroke-width="1px">80</text><text x="140" y="0" dx="0em" dy="0.95em" style="text-anchor: middle; visibility: hidden; font-family: Roboto, sans-serif; font-size: 12px; font-weight: 200;" fill="rgb(33, 33, 33)" stroke="none" stroke-width="1px">100</text><text x="163.33333333333334" y="0" dx="0em" dy="0.95em" style="text-anchor: middle; visibility: inherit; font-family: Roboto, sans-serif; font-size: 12px; font-weight: 200;" fill="rgb(33, 33, 33)" stroke="none" stroke-width="1px">120</text><text x="186.66666666666666" y="0" dx="0em" dy="0.95em" style="text-anchor: middle; visibility: hidden; font-family: Roboto, sans-serif; font-size: 12px; font-weight: 200;" fill="rgb(33, 33, 33)" stroke="none" stroke-width="1px">140</text><text x="210" y="0" dx="0em" dy="0.95em" style="text-anchor: middle; visibility: inherit; font-family: Roboto, sans-serif; font-size: 12px; font-weight: 200;" fill="rgb(33, 33, 33)" stroke="none" stroke-width="1px">160</text><text x="233.33333333333334" y="0" dx="0em" dy="0.95em" style="text-anchor: middle; visibility: hidden; font-family: Roboto, sans-serif; font-size: 12px; font-weight: 200;" fill="rgb(33, 33, 33)" stroke="none" stroke-width="1px">180</text><text x="256.66666666666663" y="0" dx="0em" dy="0.95em" style="text-anchor: middle; visibility: inherit; font-family: Roboto, sans-serif; font-size: 12px; font-weight: 200;" fill="rgb(33, 33, 33)" stroke="none" stroke-width="1px">200</text><text x="280" y="0" dx="0em" dy="0.95em" style="text-anchor: middle; visibility: hidden; font-family: Roboto, sans-serif; font-size: 12px; font-weight: 200;" fill="rgb(33, 33, 33)" stroke="none" stroke-width="1px">220</text></g><line x1="0" y1="0" x2="280" y2="0" fill="rgb(0, 0, 0)" stroke="rgb(204, 204, 204)" stroke-width="1px"></line></g></g></g></g></svg>