<svg viewBox="0 0 330 199.9921875" xmlns="http://www.w3.org/2000/svg"><g><g><g><g><g><line x1="50" y1="176.992" x2="45" y2="176.992" style="visibility: inherit;" fill="rgb(0, 0, 0)" stroke="rgb(204, 204, 204)" stroke-width="1px"></line><line x1="50" y1="154.868" x2="45" y2="154.868" style="visibility: inherit;" fill="rgb(0, 0, 0)" stroke="rgb(204, 204, 204)" stroke-width="1px"></line><line x1="50" y1="132.744" x2="45" y2="132.744" style="visibility: inherit;" fill="rgb(0, 0, 0)" stroke="rgb(204, 204, 204)" stroke-width="1px"></line><line x1="50" y1="110.61999999999999" x2="45" y2="110.61999999999999" style="visibility: inherit;" fill="rgb(0, 0, 0)" stroke="rgb(204, 204, 204)" stroke-width="1px"></line><line x1="50" y1="88.496" x2="45" y2="88.496" style="visibility: inherit;" fill="rgb(0, 0, 0)" stroke="rgb(204, 204, 204)" stroke-width="1px"></line><line x1="50" y1="66.372" x2="45" y2="66.372" style="visibility: inherit;" fill="rgb(0, 0, 0)" stroke="rgb(204, 204, 204)" stroke-width="1px"></line><line x1="50" y1="44.247999999999976" x2="45" y2="44.247999999999976" style="visibility: inherit;" fill="rgb(0, 0, 0)" stroke="rgb(204, 204, 204)" stroke-width="1px"></line><line x1="50" y1="22.12400000000002" x2="45" y2="22.12400000000002" style="visibility: inherit;" fill="rgb(0, 0, 0)" stroke="rgb(204, 204, 204)" stroke-width="1px"></line><line x1="50" y1="0" x2="45" y2="0" style="visibility: inherit;" fill="rgb(0, 0, 0)" stroke="rgb(204, 204, 204)" stroke-width="1px"></line></g><g transform="translate(40, 0)"><text x="0" y="176.992" dx="0em" dy="0.3em" style="text-anchor: end; visibility: hidden; font-family: Roboto, sans-serif; font-size: 12px; font-weight: 200;" fill="rgb(33, 33, 33)" stroke="none" stroke-width="1px">-0.4</text><text x="0" y="154.868" dx="0em" dy="0.3em" style="text-anchor: end; visibility: inherit; font-family: Roboto, sans-serif; font-size: 12px; font-weight: 200;" fill="rgb(33, 33, 33)" stroke="none" stroke-width="1px">-0.2</text><text x="0" y="132.744" dx="0em" dy="0.3em" style="text-anchor: end; visibility: hidden; font-family: Roboto, sans-serif; font-size: 12px; font-weight: 200;" fill="rgb(33, 33, 33)" stroke="none" stroke-width="1px">0</text><text x="0" y="110.61999999999999" dx="0em" dy="0.3em" style="text-anchor: end; visibility: inherit; font-family: Roboto, sans-serif; font-size: 12px; font-weight: 200;" fill="rgb(33, 33, 33)" stroke="none" stroke-width="1px">0.2</text><text x="0" y="88.496" dx="0em" dy="0.3em" style="text-anchor: end; visibility: hidden; font-family: Roboto, sans-serif; font-size: 12px; font-weight: 200;" fill="rgb(33, 33, 33)" stroke="none" stroke-width="1px">0.4</text><text x="0" y="66.372" dx="0em" dy="0.3em" style="text-anchor: end; visibility: inherit; font-family: Roboto, sans-serif; font-size: 12px; font-weight: 200;" fill="rgb(33, 33, 33)" stroke="none" stroke-width="1px">0.6</text><text x="0" y="44.247999999999976" dx="0em" dy="0.3em" style="text-anchor: end; visibility: hidden; font-family: Roboto, sans-serif; font-size: 12px; font-weight: 200;" fill="rgb(33, 33, 33)" stroke="none" stroke-width="1px">0.8</text><text x="0" y="22.12400000000002" dx="0em" dy="0.3em" style="text-anchor: end; visibility: inherit; font-family: Roboto, sans-serif; font-size: 12px; font-weight: 200;" fill="rgb(33, 33, 33)" stroke="none" stroke-width="1px">1</text><text x="0" y="0" dx="0em" dy="0.3em" style="text-anchor: end; visibility: hidden; font-family: Roboto, sans-serif; font-size: 12px; font-weight: 200;" fill="rgb(33, 33, 33)" stroke="none" stroke-width="1px">1.2</text></g><line x1="50" y1="0" x2="50" y2="176.992" fill="rgb(0, 0, 0)" stroke="rgb(204, 204, 204)" stroke-width="1px"></line></g></g><g transform="translate(50, 0)" clip-path="url(#clip_0)"><clipPath id="clip_0"><rect width="279" height="176"></rect></clipPath><g><g><g><line x1="0" y1="0" x2="0" y2="176.992" fill="rgb(0, 0, 0)" stroke="rgb(66, 66, 66)" stroke-width="1px" opacity="0.25"></line><line x1="23.333333333333332" y1="0" x2="23.333333333333332" y2="176.992" fill="rgb(0, 0, 0)" stroke="rgb(66, 66, 66)" stroke-width="1px" opacity="0.25"></line><line x1="46.666666666666664" y1="0" x2="46.666666666666664" y2="176.992" fill="rgb(0, 0, 0)" stroke="rgb(66, 66, 66)" stroke-width="1px" opacity="0.25"></line><line x1="70" y1="0" x2="70" y2="176.992" fill="rgb(0, 0, 0)" stroke="rgb(66, 66, 66)" stroke-width="1px" opacity="0.25"></line><line x1="93.33333333333333" y1="0" x2="93.33333333333333" y2="176.992" fill="rgb(0, 0, 0)" stroke="rgb(66, 66, 66)" stroke-width="1px" opacity="0.25"></line><line x1="116.66666666666667" y1="0" x2="116.66666666666667" y2="176.992" fill="rgb(0, 0, 0)" stroke="rgb(66, 66, 66)" stroke-width="1px" opacity="0.25"></line><line x1="140" y1="0" x2="140" y2="176.992" fill="rgb(0, 0, 0)" stroke="rgb(66, 66, 66)" stroke-width="1px" opacity="0.25"></line><line x1="163.33333333333334" y1="0" x2="163.33333333333334" y2="176.992" fill="rgb(0, 0, 0)" stroke="rgb(66, 66, 66)" stroke-width="1px" opacity="0.25"></line><line x1="186.66666666666666" y1="0" x2="186.66666666666666" y2="176.992" fill="rgb(0, 0, 0)" stroke="rgb(66, 66, 66)" stroke-width="1px" opacity="0.25"></line><line x1="210" y1="0" x2="210" y2="176.992" fill="rgb(0, 0, 0)" stroke="rgb(66, 66, 66)" stroke-width="1px" opacity="0.25"></line><line x1="233.33333333333334" y1="0" x2="233.33333333333334" y2="176.992" fill="rgb(0, 0, 0)" stroke="rgb(66, 66, 66)" stroke-width="1px" opacity="0.25"></line><line x1="256.66666666666663" y1="0" x2="256.66666666666663" y2="176.992" fill="rgb(0, 0, 0)" stroke="rgb(66, 66, 66)" stroke-width="1px" opacity="0.25"></line><line x1="280" y1="0" x2="280" y2="176.992" fill="rgb(0, 0, 0)" stroke="rgb(66, 66, 66)" stroke-width="1px" opacity="0.25"></line></g><g><line x1="0" y1="176.992" x2="280" y2="176.992" fill="rgb(0, 0, 0)" stroke="rgb(66, 66, 66)" stroke-width="1px" opacity="0.25"></line><line x1="0" y1="154.868" x2="280" y2="154.868" fill="rgb(0, 0, 0)" stroke="rgb(66, 66, 66)" stroke-width="1px" opacity="0.25"></line><line x1="0" y1="132.744" x2="280" y2="132.744" fill="rgb(0, 0, 0)" stroke="rgb(66, 66, 66)" stroke-width="1px" opacity="0.25"></line><line x1="0" y1="110.61999999999999" x2="280" y2="110.61999999999999" fill="rgb(0, 0, 0)" stroke="rgb(66, 66, 66)" stroke-width="1px" opacity="0.25"></line><line x1="0" y1="88.496" x2="280" y2="88.496" fill="rgb(0, 0, 0)" stroke="rgb(66, 66, 66)" stroke-width="1px" opacity="0.25"></line><line x1="0" y1="66.372" x2="280" y2="66.372" fill="rgb(0, 0, 0)" stroke="rgb(66, 66, 66)" stroke-width="1px" opacity="0.25"></line><line x1="0" y1="44.247999999999976" x2="280" y2="44.247999999999976" fill="rgb(0, 0, 0)" stroke="rgb(66, 66, 66)" stroke-width="1px" opacity="0.25"></line><line x1="0" y1="22.12400000000002" x2="280" y2="22.12400000000002" fill="rgb(0, 0, 0)" stroke="rgb(66, 66, 66)" stroke-width="1px" opacity="0.25"></line><line x1="0" y1="0" x2="280" y2="0" fill="rgb(0, 0, 0)" stroke="rgb(66, 66, 66)" stroke-width="1px" opacity="0.25"></line></g></g></g><g><g><line x1="0" y1="132.744" x2="280" y2="132.744" fill="rgb(0, 0, 0)" stroke="rgb(153, 153, 153)" stroke-width="1.5px"></line></g></g><g><g><line x1="23.333333333333332" y1="0" x2="23.333333333333332" y2="176.992" fill="rgb(0, 0, 0)" stroke="rgb(153, 153, 153)" stroke-width="1.5px"></line></g></g><g><g><g><g><g><path stroke="rgb(51, 187, 238)" stroke-width="2px" d="M23.333333333333332,9.160995675563832L24.5,9.421989777624626L25.666666666666664,9.89723821461929L26.833333333333336,10.299535231013538L28,10.665519058521749L29.166666666666668,10.97657409279734L30.333333333333336,11.143427690906178L31.5,11.339293752842336L32.666666666666664,11.645200650119353L33.833333333333336,11.861519711231137L35,11.969533293545656L36.16666666666667,12.37015475986864L37.333333333333336,13.140692203673296L38.5,13.159722972132304L39.666666666666664,13.244279900922354L40.833333333333336,13.567243680862715L42,13.90602332989307L43.16666666666667,14.161010466127026L44.33333333333333,14.730839933148737L45.5,15.219507129833476L46.666666666666664,15.48161637085622L47.833333333333336,15.922975954677877L49,16.308966295954843L50.166666666666664,16.75310652063612L51.33333333333333,17.61132026084683L52.5,17.601295399638545L53.66666666666667,17.7605762133829L54.833333333333336,17.99775123065695L56,17.784473043309593L57.166666666666664,17.768937984958267L58.333333333333336,17.45395438642408L59.5,17.40738312676708L60.66666666666667,18.018099326037657L61.83333333333333,18.304864133410273L63,18.713507119273192L64.16666666666666,18.895796516638676L65.33333333333333,19.40114206392084L66.5,20.118324098475565L67.66666666666667,19.89097993755225L68.83333333333333,20.056216590147855L70,20.092451642960555L71.16666666666666,20.331792870619008L72.33333333333334,20.228253409604953L73.5,19.889884614826673L74.66666666666667,20.204202489433428L75.83333333333333,19.819388504324852L77,20.266693456462978L78.16666666666667,20.93687695913147L79.33333333333333,21.252565185721803L80.5,21.327621050749492L81.66666666666667,22.156767985010745L82.83333333333333,22.511399478045917L84,22.03868210797694L85.16666666666666,22.434853834755778L86.33333333333334,22.837520110492704L87.5,22.577805483844664L88.66666666666666,23.11428270522771L89.83333333333334,24.501137722730924L91,24.28782244381918L92.16666666666667,24.555095727167256L93.33333333333333,24.990064361024956L94.5,24.785575866752303L95.66666666666667,26.10630847991314L96.83333333333333,26.480806712131546L98,26.349991250026736L99.16666666666667,26.847541431515523L100.33333333333333,27.08263976197786L101.5,25.929918350442314L102.66666666666666,27.17035296405797L103.83333333333334,26.329876863369023L105,27.697294165354176L106.16666666666666,27.55605591024233L107.33333333333334,29.29448801124853L108.5,29.037355375890513L109.66666666666667,29.121941236474875L110.83333333333333,29.991195048319543L112,30.611388221256277L113.16666666666667,30.2254533614113L114.33333333333333,29.662800241410363L115.5,30.086439820921182L116.66666666666667,30.35911692151771L117.83333333333333,30.911473925741593L119,30.646406288142234L120.16666666666666,30.156782517048878L121.33333333333334,31.713387948377825L122.5,31.22109224502081L123.66666666666666,31.68724166178603L124.83333333333334,32.31949975275932L126,32.72009084200825L127.16666666666667,31.810373629045266L128.33333333333331,32.57335945050225L129.5,32.82820142851058L130.66666666666666,32.66337277294271L131.83333333333334,33.91730179439229L133,34.576857494749056L134.16666666666669,34.842459636448304L135.33333333333334,35.92878309206872L136.5,36.18754066880169L137.66666666666666,37.18280012101904L138.83333333333334,37.216238202494246L140,37.604216443301354L141.16666666666666,36.644683229780846L142.33333333333331,37.08905158330005L143.5,37.62078530588746L144.66666666666669,37.75080669912695L145.83333333333334,37.963466018968816L147,38.59423536032079L148.16666666666666,38.261056288633576L149.33333333333334,37.56964816803566L150.5,38.37249774748582L151.66666666666666,38.37444846147594L152.83333333333331,38.49318565994681L154,37.65149406627525L155.16666666666669,38.05692333013836L156.33333333333334,38.113029317659304L157.5,38.74526356027256L158.66666666666666,38.606188900838674L159.83333333333331,38.53049010880613L161,38.76982679738894L162.16666666666669,38.96606576675352L163.33333333333334,39.126313266337995L164.5,39.664643319452466L165.66666666666666,40.00771977339068L166.83333333333334,40.02327031046081L168,39.985014271294624L169.16666666666666,40.291609980890506L170.33333333333331,40.3235721955236L171.5,40.48899787063219L172.66666666666669,42.02428375417482L173.83333333333334,42.27678026837402L175,42.044931437601434L176.16666666666666,42.701073236817L177.33333333333331,42.34416080648533L178.5,42.185438021843645L179.66666666666669,42.31561648522913L180.83333333333334,43.21128958661022L182,42.33800297674334L183.16666666666666,42.29487664766787L184.33333333333334,41.45773026802348L185.5,42.06287040730838L186.66666666666666,42.763729831913246L187.83333333333331,43.51045325130175L189,44.28233460680215L190.16666666666669,43.77650878448232L191.33333333333334,43.57713466569745L192.5,43.6532912932692L193.66666666666666,44.152457474020586L194.83333333333331,43.48779204041213L196,44.62143555311231L197.16666666666669,45.17913880255144L198.33333333333334,44.53991376496744L199.5,44.759322179039664L200.66666666666666,44.342593951249356L201.83333333333334,44.171610032191396L203,44.38713066937359L204.16666666666666,44.74553697715899L205.33333333333331,44.31739608470618L206.5,44.66460224890721L207.66666666666669,44.53601303172119L208.83333333333334,45.24717427306181L210,45.32616591732981L211.16666666666666,45.99808607278637L212.33333333333331,44.92291983529552L213.5,44.92150587332619L214.66666666666669,45.58182123582588L215.83333333333334,45.23313079701081L217,45.95384840132125L218.16666666666666,46.15586107049781L219.33333333333334,45.145160485091196L220.5,46.37064757403277L221.66666666666666,46.12660707660044L222.83333333333331,45.91829123332218L224,46.47571752601934L225.16666666666669,45.89015273183626L226.33333333333334,47.250498677408935L227.5,46.63734835366977L228.66666666666666,47.00680807779179L229.83333333333331,47.780491506850375L231,47.32410076949338L232.16666666666669,47.75577244299259L233.33333333333334,48.3189320246792L234.5,47.73224188816644L235.66666666666666,48.173537787604936L236.83333333333334,46.39551192722834L238,46.430351139415016L239.16666666666666,47.53071578923979L240.33333333333331,47.29569225382878L241.5,48.813565117884124L242.66666666666669,49.53339481432943L243.83333333333334,48.371446230981995L245,48.2289246992673L246.16666666666666,49.16499018514188L247.33333333333331,48.30267295277138L248.5,49.128463906359805L249.66666666666669,49.26268248705395L250.83333333333334,49.05191695358947L252,48.85991330863593L253.16666666666666,49.281197697744126L254.33333333333334,47.874907278409815L255.5,48.23668758937787" style="fill: none;" fill="none"></path></g><g><path stroke="rgb(204, 51, 17)" stroke-width="2px" d="M23.333333333333332,102.12552723312378L24.5,106.9918037636727L25.666666666666664,109.9900105635986L26.833333333333336,112.8954276028556L28,115.37147127731006L29.166666666666668,117.44669527385194L30.333333333333336,119.15265650851534L31.5,120.30048174670974L32.666666666666664,121.11529723131633L33.833333333333336,121.70363642336643L35,122.24840699805056L36.16666666666667,122.5483536419613L37.333333333333336,122.9142191055566L38.5,123.19862025529848L39.666666666666664,123.7028920197224L40.833333333333336,124.08018464847311L42,124.35094419282436L43.16666666666667,124.41701246101007L44.33333333333333,125.07426967138889L45.5,125.06392575902414L46.666666666666664,124.90549857379042L47.833333333333336,125.43585086241502L49,125.76903774607928L50.166666666666664,125.98078549750171L51.33333333333333,126.39316440725601L52.5,126.20632877975726L53.66666666666667,126.66168905325168L54.833333333333336,127.46800096789639L56,128.3931272829261L57.166666666666664,128.27859693971234L58.333333333333336,128.9270429503381L59.5,129.49398062964133L60.66666666666667,129.56759821953256L61.83333333333333,130.3180731700305L63,130.78993046352318L64.16666666666666,131.6504555854878L65.33333333333333,131.65932152203183L66.5,131.5503881069174L67.66666666666667,132.18815145157996L68.83333333333333,132.68906560545972L70,133.41197596071117L71.16666666666666,134.12052422935463L72.33333333333334,133.9241444082256L73.5,134.60757454921497L74.66666666666667,135.0356373283902L75.83333333333333,135.50286053906254L77,135.1127383895452L78.16666666666667,135.03791938715023L79.33333333333333,135.46815749980397L80.5,135.19882598762524L81.66666666666667,135.73592247573285L82.83333333333333,135.2127177623048L84,135.30451408599242L85.16666666666666,135.75840672543944L86.33333333333334,135.51284592744574L87.5,135.9350170080834L88.66666666666666,136.45138295293305L89.83333333333334,136.40771494979532L91,136.30058998711925L92.16666666666667,137.15193468814508L93.33333333333333,137.50488404718885L94.5,137.1236282820931L95.66666666666667,137.79043033796734L96.83333333333333,137.33925194885842L98,138.27201858015366L99.16666666666667,139.32512925402824L100.33333333333333,138.24756679059567L101.5,138.3831604022831L102.66666666666666,139.32387725369037L103.83333333333334,139.49445723421513L105,140.78263609148945L106.16666666666666,140.24329947858382L107.33333333333334,141.22776975229579L108.5,141.7011521818113L109.66666666666667,141.58665641227196L110.83333333333333,142.0320036767413L112,141.9170171746069L113.16666666666667,141.83434251308762L114.33333333333333,142.33156086859896L115.5,142.1166993611681L116.66666666666667,141.61100478739903L117.83333333333333,141.68638067559817L119,142.9435841254736L120.16666666666666,142.34224511998562L121.33333333333334,142.69213326378863L122.5,141.70182625061395L123.66666666666666,142.75167263085913L124.83333333333334,143.35386086941523L126,144.00452146593787L127.16666666666667,144.83889312958752L128.33333333333331,144.37975113512297L129.5,144.6091787144972L130.66666666666666,143.9917073819061L131.83333333333334,144.6460710385811L133,145.2687672328336L134.16666666666669,145.45004531001945L135.33333333333334,145.69336929876744L136.5,145.11683456608736L137.66666666666666,145.52276333549668L138.83333333333334,145.57550965282348L140,146.09522490316053L141.16666666666666,146.09672500276216L142.33333333333331,146.14719144171266L143.5,146.12839284236307L144.66666666666669,146.89845619398994L145.83333333333334,147.58108190020707L147,147.98479902956953L148.16666666666666,148.51714971476835L149.33333333333334,149.04409803360724L150.5,148.85248642090573L151.66666666666666,149.74510388636358L152.83333333333331,148.93272270011764L154,148.00833116319095L155.16666666666669,147.96212630142162L156.33333333333334,148.36184458557003L157.5,148.96997402834435L158.66666666666666,149.3760714048358L159.83333333333331,149.0169209008105L161,149.37891996027753L162.16666666666669,149.89940036128596L163.33333333333334,149.21276270810745L164.5,149.73360124051558L165.66666666666666,148.9617245119571L166.83333333333334,149.5236404273128L168,150.21064388756844L169.16666666666666,149.69539389861163L170.33333333333331,150.13099960439524L171.5,150.19933074491692L172.66666666666669,150.25950124975128L173.83333333333334,151.11384540624667L175,152.49540673663168L176.16666666666666,152.00874798408717L177.33333333333331,150.99690912525395L178.5,151.5935583783182L179.66666666666669,151.9002758213635L180.83333333333334,151.15401705374452L182,150.98469989804107L183.16666666666666,150.48555064978407L184.33333333333334,151.4521555477274L185.5,152.14333970507934L186.66666666666666,151.65638979456995L187.83333333333331,152.22965113662582L189,151.99229305111706L190.16666666666669,153.14644896435345L191.33333333333334,154.24831102373366L192.5,154.0382138421426L193.66666666666666,152.29254450499354L194.83333333333331,152.25058445939624L196,153.20646141806367L197.16666666666669,153.53267460307552L198.33333333333334,153.3030481447999L199.5,153.67376167141344L200.66666666666666,155.34965734552708L201.83333333333334,154.6948255535803L203,153.8533380543257L204.16666666666666,153.73552617375046L205.33333333333331,153.72190153586857L206.5,154.44826521768567L207.66666666666669,154.08541757315635L208.83333333333334,154.37366122237583L210,155.070576293157L211.16666666666666,154.95906629338648L212.33333333333331,155.92926169497244L213.5,155.59150342237038L214.66666666666669,155.07356013290334L215.83333333333334,155.39632995848802L217,155.0109622583446L218.16666666666666,155.43381542415958L219.33333333333334,155.6495008283111L220.5,156.40850893359496L221.66666666666666,155.68767180512614L222.83333333333331,154.98580798820416L224,155.92372168285704L225.16666666666669,156.27778209149275L226.33333333333334,156.93855950579305L227.5,156.42729824221885L228.66666666666666,155.04268652983163L229.83333333333331,156.67719658651143L231,155.83870606371278L232.16666666666669,155.39842242398566L233.33333333333334,155.5762650007886L234.5,155.7887983104278L235.66666666666666,156.48585923506553L236.83333333333334,154.87713253205857L238,155.2008953386655L239.16666666666666,155.93040530191126L240.33333333333331,156.8223971177474L241.5,157.48721578889703L242.66666666666669,157.63106580012806L243.83333333333334,156.90480697125057L245,157.15703565446054L246.16666666666666,156.144273399374L247.33333333333331,156.55259264267747L248.5,156.9472149829463L249.66666666666669,157.32091555082775L250.83333333333334,158.38435353791698L252,158.10535754520882L253.16666666666666,157.53335851392262L254.33333333333334,158.33195616207786L255.5,158.81959592603604" style="fill: none;" fill="none"></path></g><g><path stroke="rgb(0, 119, 187)" stroke-width="2px" d="M23.333333333333332,8.77159877204897L24.5,9.86811686092617L25.666666666666664,11.061763765539434L26.833333333333336,11.41860306990671L28,11.742692066290616L29.166666666666668,11.995176277349435L30.333333333333336,12.326163736011756L31.5,12.230276721061744L32.666666666666664,12.581493732870694L33.833333333333336,12.80832787342654L35,12.891179310031522L36.16666666666667,13.103615234305865L37.333333333333336,13.441962776874824L38.5,14.00093546320021L39.666666666666664,14.200735087685022L40.833333333333336,15.19608694229756L42,15.634827241031566L43.16666666666667,15.661183640323621L44.33333333333333,16.27503845841309L45.5,17.402948816220693L46.666666666666664,17.61564725871959L47.833333333333336,17.989065703700614L49,18.713181845229286L50.166666666666664,19.592703646160622L51.33333333333333,19.67725805068373L52.5,20.112511571675384L53.66666666666667,20.34841812138111L54.833333333333336,20.673708714570726L56,20.830894016059048L57.166666666666664,20.71886655798001L58.333333333333336,21.70610630164447L59.5,21.850735238534494L60.66666666666667,22.907197831237475L61.83333333333333,23.15917389204286L63,22.913999913686933L64.16666666666666,23.47577750708811L65.33333333333333,23.24494884611659L66.5,23.466080375881482L67.66666666666667,23.701910109885322L68.83333333333333,23.369836223949804L70,24.422941601757334L71.16666666666666,23.593632144912842L72.33333333333334,24.397092880567286L73.5,23.849314798451154L74.66666666666667,23.39992950249811L75.83333333333333,23.0498000196304L77,24.1500391520248L78.16666666666667,25.20991017718228L79.33333333333333,24.57091233202022L80.5,25.714684262548403L81.66666666666667,26.460525977874138L82.83333333333333,26.62916696430753L84,26.61047707305851L85.16666666666666,27.231275846973748L86.33333333333334,27.092373815641107L87.5,28.189481879011414L88.66666666666666,28.16937930637335L89.83333333333334,28.439080293117417L91,27.222325867711483L92.16666666666667,28.46327904466337L93.33333333333333,28.604617401716396L94.5,28.823911294053374L95.66666666666667,29.666582366985295L96.83333333333333,29.642550364328777L98,30.025743524642806L99.16666666666667,30.212907388551233L100.33333333333333,30.075666762651927L101.5,30.32070642603752L102.66666666666666,31.218414767678485L103.83333333333334,31.845321005020065L105,32.28715676593393L106.16666666666666,31.946076075456222L107.33333333333334,32.986585216749695L108.5,33.884799095385674L109.66666666666667,33.237710617872125L110.83333333333333,33.65714654293779L112,33.862208119053385L113.16666666666667,33.304227080809326L114.33333333333333,35.60720456351474L115.5,35.88302947286151L116.66666666666667,36.192391204949516L117.83333333333333,36.216834928677265L119,36.68498127928127L120.16666666666666,36.47293367389886L121.33333333333334,37.67995093882112L122.5,38.00461836907881L123.66666666666666,38.60249849098695L124.83333333333334,38.911345676623434L126,39.007507692934645L127.16666666666667,39.3623513074646L128.33333333333331,37.85150661167677L129.5,38.70499098416076L130.66666666666666,39.24276711304134L131.83333333333334,38.27158908328498L133,39.13904385982208L134.16666666666669,38.48216900988967L135.33333333333334,39.3643201767239L136.5,40.66798442437846L137.66666666666666,40.82783101040483L138.83333333333334,42.05360844930624L140,41.59674156771075L141.16666666666666,42.15976741815787L142.33333333333331,42.182241195447325L143.5,40.660294530252884L144.66666666666669,40.77173793030993L145.83333333333334,42.0695802996708L147,42.50302811525782L148.16666666666666,42.247224040022616L149.33333333333334,41.96001292142338L150.5,41.63746863752047L151.66666666666666,42.2387896447506L152.83333333333331,40.9439761723713L154,42.24127374882913L155.16666666666669,43.38656547982343L156.33333333333334,43.22699709018977L157.5,42.77533549748009L158.66666666666666,43.37338898359624L159.83333333333331,43.54237409564789L161,43.043931204729894L162.16666666666669,42.05670016933298L163.33333333333334,43.36905821338187L164.5,43.408684346383154L165.66666666666666,42.99809832326493L166.83333333333334,43.39835207657769L168,44.19025345929117L169.16666666666666,44.55008248414784L170.33333333333331,45.770977056158706L171.5,46.127264266665634L172.66666666666669,46.365487801561294L173.83333333333334,45.60301511030766L175,46.8122066826664L176.16666666666666,47.159781528749626L177.33333333333331,46.8801857889882L178.5,47.731667388367136L179.66666666666669,47.40061032548395L180.83333333333334,46.703430951302344L182,46.809725840106665L183.16666666666666,46.970474193677326L184.33333333333334,47.49513188644947L185.5,47.12659025562228L186.66666666666666,47.6451229085232L187.83333333333331,48.42469505878122L189,47.76639834658997L190.16666666666669,47.313954308704716L191.33333333333334,47.64350339319481L192.5,47.720815059197975L193.66666666666666,47.209051991470446L194.83333333333331,47.925611255364295L196,47.896617857191956L197.16666666666669,48.69259703477265L198.33333333333334,50.03231975612662L199.5,49.85107904811873L200.66666666666666,49.76381086013423L201.83333333333334,49.909667991147664L203,49.23353497237339L204.16666666666666,49.649459022917576L205.33333333333331,48.97767419028179L206.5,50.03582080855308L207.66666666666669,50.48688031548463L208.83333333333334,49.29373232489945L210,50.14478595389199L211.16666666666666,49.04428102534573L212.33333333333331,49.52719536767937L213.5,50.35753695966328L214.66666666666669,50.05744463597251L215.83333333333334,49.51748886686871L217,50.37799461387577L218.16666666666666,50.772155426734585L219.33333333333334,51.00893675217264L220.5,50.53858334437154L221.66666666666666,50.72456539434875L222.83333333333331,51.10434780203513L224,49.625561920280525L225.16666666666669,51.14115768410878L226.33333333333334,51.83444990536043L227.5,52.35429606101793L228.66666666666666,52.00006326674154L229.83333333333331,52.39594751557546L231,52.55653495631718L232.16666666666669,52.09192062484086L233.33333333333334,52.12537373091496L234.5,52.387444251309155L235.66666666666666,53.004506956631126L236.83333333333334,54.15364651969322L238,53.05270099203139L239.16666666666666,53.07695740781039L240.33333333333331,53.00993426095134L241.5,53.53446126858406L242.66666666666669,52.621004685497326L243.83333333333334,53.12927516704564L245,53.76337008203128L246.16666666666666,52.76288100326693L247.33333333333331,52.669527493123056L248.5,52.99424847648373L249.66666666666669,53.359303254496034L250.83333333333334,52.81221495555101L252,52.5171112848655L253.16666666666666,52.89756881445263L254.33333333333334,54.17260350171098L255.5,53.50117712854963" style="fill: none;" fill="none"></path></g><g><path stroke="rgb(255, 112, 67)" stroke-width="2px" d="M23.333333333333332,10.133690124988576L24.5,10.680453276872655L25.666666666666664,10.82318499148624L26.833333333333336,10.86544726203645L28,11.002703884914636L29.166666666666668,11.252683159268784L30.333333333333336,11.74414975689465L31.5,12.09410946159592L32.666666666666664,12.635840235764782L33.833333333333336,12.850260357188148L35,13.203687849096415L36.16666666666667,14.13541542535545L37.333333333333336,14.896507137919427L38.5,14.99850597957246L39.666666666666664,15.905545137330616L40.833333333333336,16.22560802144582L42,16.85595356363968L43.16666666666667,17.48848379346915L44.33333333333333,17.7532011435625L45.5,17.929592139620535L46.666666666666664,17.857495350481145L47.833333333333336,18.592404091115093L49,19.371664459172322L50.166666666666664,19.130558228316833L51.33333333333333,19.435839881490867L52.5,20.002495492848894L53.66666666666667,19.883128920403113L54.833333333333336,20.172314275091054L56,20.3490377119719L57.166666666666664,20.174110905428776L58.333333333333336,20.72462983058259L59.5,21.577599940130582L60.66666666666667,21.740405625005113L61.83333333333333,22.24459203380056L63,23.05711109600728L64.16666666666666,23.342669939472795L65.33333333333333,22.987374577012957L66.5,23.5311588868111L67.66666666666667,23.144514935717442L68.83333333333333,23.52271954066377L70,24.005510974930427L71.16666666666666,24.509961390479795L72.33333333333334,24.551390612223425L73.5,24.04933791882559L74.66666666666667,24.95943674158237L75.83333333333333,25.819793363190822L77,25.62171081157009L78.16666666666667,26.01500214355565L79.33333333333333,26.474962250914686L80.5,26.29113110916854L81.66666666666667,26.590676983793287L82.83333333333333,27.19739735410374L84,26.876531997094574L85.16666666666666,26.362412532168097L86.33333333333334,27.357943772410472L87.5,27.099551974830007L88.66666666666666,26.385686383281186L89.83333333333334,26.841326614972427L91,27.199154589245637L92.16666666666667,27.68671800007222L93.33333333333333,26.63479825857754L94.5,27.74830120217492L95.66666666666667,27.126697320387887L96.83333333333333,28.577110486749493L98,26.253246185829433L99.16666666666667,27.143808783656468L100.33333333333333,28.11090451438792L101.5,28.5097335103486L102.66666666666666,29.595542246158963L103.83333333333334,29.8452823413706L105,29.55272594206904L106.16666666666666,31.004441001471132L107.33333333333334,31.413109840998793L108.5,31.997821885949218L109.66666666666667,30.274935545185713L110.83333333333333,31.278149505746075L112,32.13754744699701L113.16666666666667,31.661252029103654L114.33333333333333,31.968570214463842L115.5,31.92425225860688L116.66666666666667,33.13602249612103L117.83333333333333,33.10070856145436L119,33.958787877007794L120.16666666666666,33.94130277371674L121.33333333333334,34.58180568976564L122.5,35.77581932627775L123.66666666666666,35.26502000391254L124.83333333333334,36.158648770307124L126,35.95929063356797L127.16666666666667,35.90658887990044L128.33333333333331,36.94663283624486L129.5,36.09017031034372L130.66666666666666,35.79247671423282L131.83333333333334,37.300706474268004L133,36.732521650578704L134.16666666666669,36.69085124584802L135.33333333333334,36.68555291622143L136.5,38.00292379942691L137.66666666666666,37.66104253448935L138.83333333333334,37.697485175692414L140,38.46468140979013L141.16666666666666,38.74806217667701L142.33333333333331,39.09892566736483L143.5,39.298962788533835L144.66666666666669,39.539355372972274L145.83333333333334,40.450685284940576L147,39.61886074171556L148.16666666666666,39.60304596020036L149.33333333333334,39.737634868677006L150.5,39.37300751079054L151.66666666666666,39.008636821537806L152.83333333333331,39.525673761719204L154,39.91151242906675L155.16666666666669,39.763656618302L156.33333333333334,40.724989484706484L157.5,40.2260072359556L158.66666666666666,41.02873679511031L159.83333333333331,41.08677336387804L161,40.47638775270564L162.16666666666669,40.213465445622106L163.33333333333334,40.64887343212621L164.5,41.17487752473745L165.66666666666666,41.936214093043766L166.83333333333334,42.18784847726488L168,43.236236727273834L169.16666666666666,42.42979568731567L170.33333333333331,42.080450952695514L171.5,43.08972802496354L172.66666666666669,42.1154022781396L173.83333333333334,42.96102187168267L175,42.965198779271034L176.16666666666666,43.97410253305794L177.33333333333331,43.281776868078495L178.5,41.5017740496L179.66666666666669,42.022652561283124L180.83333333333334,42.25618203578948L182,41.93675097819902L183.16666666666666,42.47870772297822L184.33333333333334,44.08582295245912L185.5,42.82808092691292L186.66666666666666,42.99859654732819L187.83333333333331,43.82476296951936L189,45.051079493919396L190.16666666666669,43.7239401134964L191.33333333333334,44.29463755242323L192.5,44.66590374736965L193.66666666666666,45.394722514420636L194.83333333333331,45.216782755154306L196,45.032648534451674L197.16666666666669,44.596543099781705L198.33333333333334,45.33534069160275L199.5,44.26107770654947L200.66666666666666,45.314150105889986L201.83333333333334,45.296750791988565L203,45.747249848533755L204.16666666666666,46.165728195577294L205.33333333333331,45.390149280684874L206.5,46.371091843019514L207.66666666666669,46.10661059888041L208.83333333333334,47.20410368280314L210,48.063985077933665L211.16666666666666,47.48817312178384L212.33333333333331,47.05933926554546L213.5,46.27740742723955L214.66666666666669,46.771136971335494L215.83333333333334,47.326144494164524L217,47.655997331207104L218.16666666666666,47.38520592321463L219.33333333333334,46.75589787510341L220.5,47.366713131209046L221.66666666666666,46.916517148554234L222.83333333333331,47.39127657788985L224,47.849498187983016L225.16666666666669,47.9476234123969L226.33333333333334,47.172040064302905L227.5,47.91207318790427L228.66666666666666,47.149868603370635L229.83333333333331,47.036890923012514L231,46.488514504426256L232.16666666666669,47.631580114932994L233.33333333333334,47.496670132596584L234.5,48.066272402929826L235.66666666666666,47.606595359139185L236.83333333333334,48.14829977110181L238,47.57199828011486L239.16666666666666,48.41644873356041L240.33333333333331,49.122790249295335L241.5,49.65633680359563L242.66666666666669,49.379070360374676L243.83333333333334,50.13690604679124L245,49.565883082439484L246.16666666666666,49.86674673083426L247.33333333333331,49.23171385967134L248.5,48.323881493922485L249.66666666666669,49.32607244961048L250.83333333333334,49.11530940060965L252,49.63120810902805L253.16666666666666,49.10920843799524L254.33333333333334,49.27094388947258L255.5,50.48636355543953" style="fill: none;" fill="none"></path></g></g></g></g><g opacity="0.2"><g><g><g><path stroke="rgb(51, 187, 238)" stroke-width="2px" d="M23.333333333333332,9.160995675563832L24.5,9.578586238861103L25.666666666666664,10.353476714134235L26.833333333333336,10.77263652229311L28,11.14334754371645L29.166666666666668,11.406875185012836L30.333333333333336,11.382031005859394L31.5,11.624868351459522L32.666666666666664,12.096353904247303L33.833333333333336,12.182728306293507L35,12.130573991775531L36.16666666666667,12.96890679502489L37.333333333333336,14.293982430934925L38.5,13.188231841564198L39.666666666666664,13.371015900611896L40.833333333333336,14.051461571693439L42,14.414049443244952L43.16666666666667,14.543426429271717L44.33333333333333,15.585497325897236L45.5,15.952463258743306L46.666666666666664,15.874765857696552L47.833333333333336,16.58500080728533L49,16.887944187164326L50.166666666666664,17.419311596393605L51.33333333333333,18.898634771347066L52.5,17.586258150577564L53.66666666666667,17.9994970264435L54.833333333333336,18.353513392448445L56,17.464555958747884L57.166666666666664,17.74563540601732L58.333333333333336,16.981479093074817L59.5,17.337526246547718L60.66666666666667,18.934173552036302L61.83333333333333,18.735011323928852L63,19.32647158050539L64.16666666666666,19.169230607986467L65.33333333333333,20.15916037702562L66.5,21.194097143650072L67.66666666666667,19.54996369743349L68.83333333333333,20.304071568489093L70,20.14680422210695L71.16666666666666,20.690804711818714L72.33333333333334,20.07294421815874L73.5,19.382331422805805L74.66666666666667,20.67567930126192L75.83333333333333,19.24216752672197L77,20.937650884628315L78.16666666666667,21.942152213096637L79.33333333333333,21.726097525596636L80.5,21.440204848289508L81.66666666666667,23.400488386392613L82.83333333333333,23.043346717596073L84,21.329606052875537L85.16666666666666,23.029111424922963L86.33333333333334,23.441519524097462L87.5,22.18823354387285L88.66666666666666,23.918998537302034L89.83333333333334,26.58142024898531L91,23.96784952545168L92.16666666666667,24.956005652189273L93.33333333333333,25.642517311811467L94.5,24.478843125343342L95.66666666666667,28.087407399654406L96.83333333333333,27.042554060459157L98,26.153768056869524L99.16666666666667,27.59386670374872L100.33333333333333,27.435287257671373L101.5,24.200836233139057L102.66666666666666,29.031004884481447L103.83333333333334,25.069162712335604L105,29.74842011833193L106.16666666666666,27.34419852757456L107.33333333333334,31.90213616275789L108.5,28.65165642285349L109.66666666666667,29.248820027351396L110.83333333333333,31.295075766086597L112,31.54167798066141L113.16666666666667,29.64655107164385L114.33333333333333,28.818820561409016L115.5,30.72189919018747L116.66666666666667,30.768132572412508L117.83333333333333,31.740009432077425L119,30.248804831743257L120.16666666666666,29.4223468604088L121.33333333333334,34.04829609537126L122.5,30.482648689985293L123.66666666666666,32.38646578693392L124.83333333333334,33.267886889219305L126,33.32097747588159L127.16666666666667,30.445797809600847L128.33333333333331,33.71783818268778L129.5,33.21046439552309L130.66666666666666,32.416129789590855L131.83333333333334,35.79819532656671L133,35.56619104528429L134.16666666666669,35.24086284899713L135.33333333333334,37.55826827549936L136.5,36.57567703390123L137.66666666666666,38.67568929934503L138.83333333333334,37.26639532470705L140,38.18618380451204L141.16666666666666,35.205383409500136L142.33333333333331,37.75560411357881L143.5,38.418385889768615L144.66666666666669,37.94583878898622L145.83333333333334,38.28245499873163L147,39.540389372348805L148.16666666666666,37.76128768110277L149.33333333333334,36.532535987138765L150.5,39.57677211666109L151.66666666666666,38.37737453246118L152.83333333333331,38.67129145765306L154,36.388956675767915L155.16666666666669,38.66506722593309L156.33333333333334,38.197188298940674L157.5,39.693614924192445L158.66666666666666,38.39757691168787L159.83333333333331,38.41694192075731L161,39.12883183026315L162.16666666666669,39.26042422080042L163.33333333333334,39.36668451571466L164.5,40.47213839912416L165.66666666666666,40.52233445429804L166.83333333333334,40.046596116066L168,39.92763021254541L169.16666666666666,40.75150354528429L170.33333333333331,40.37151551747324L171.5,40.73713638329507L172.66666666666669,44.32721257948877L173.83333333333334,42.65552503967287L175,41.697158191442504L176.16666666666666,43.68528593564035L177.33333333333331,41.80879216098787L178.5,41.94735384488108L179.66666666666669,42.51088418030741L180.83333333333334,44.55479923868181L182,41.02807306194307L183.16666666666666,42.23018715405466L184.33333333333334,40.20201069855692L185.5,42.97058061623575L186.66666666666666,43.81501896882059L187.83333333333331,44.630538380384465L189,45.44015664005281L190.16666666666669,43.01777005100252L191.33333333333334,43.27807348752024L192.5,43.767526234626786L193.66666666666666,44.901206745147725L194.83333333333331,42.49079388999941L196,46.32190082216265L197.16666666666669,46.01569367671014L198.33333333333334,43.581076208591476L199.5,45.08843480014803L200.66666666666666,43.71750160956385L201.83333333333334,43.91513415360453L203,44.71041162514688L204.16666666666666,45.28314643883707L205.33333333333331,43.67518474602701L206.5,45.185411495208754L207.66666666666669,44.34312920594217L208.83333333333334,46.31391613507272L210,45.44465338373186L211.16666666666666,47.005966305971164L212.33333333333331,43.31017047905924L213.5,44.91938493037225L214.66666666666669,46.57229427957537L215.83333333333334,44.71009513878824L217,47.03492480778696L218.16666666666666,46.45888007426264L219.33333333333334,43.629109606981295L220.5,48.20887820744516L221.66666666666666,45.76054633045198L222.83333333333331,45.60581746840479L224,47.31185696506502L225.16666666666669,45.011805540561696L226.33333333333334,49.29101759576799L227.5,45.717622868061085L228.66666666666666,47.56099766397478L229.83333333333331,48.94101665043833L231,46.63951466345789L232.16666666666669,48.403279953241366L233.33333333333334,49.163671397209185L234.5,46.85220668339731L235.66666666666666,48.83548163676264L236.83333333333334,43.72847313666345L238,46.482609957695026L239.16666666666666,49.18126276397707L240.33333333333331,46.94315695071222L241.5,51.09037441396715L242.66666666666669,50.61313935899736L243.83333333333334,46.628523355960866L245,48.01514240169527L246.16666666666666,50.5690884139538L247.33333333333331,47.00919710421564L248.5,50.36715033674242L249.66666666666669,49.46401035809519L250.83333333333334,48.73576865339281L252,48.571907841205615L253.16666666666666,49.91312428140642L254.33333333333334,45.765471649408354L255.5,48.779358055830016" style="fill: none;" fill="none"></path></g><g><path stroke="rgb(204, 51, 17)" stroke-width="2px" d="M23.333333333333332,102.12552723312378L24.5,109.91156968200207L25.666666666666664,112.86828909152746L26.833333333333336,116.31219804102182L28,118.60419389867782L29.166666666666668,120.31747714170812L30.333333333333336,121.59220836946368L31.5,121.9740219631195L32.666666666666664,122.3169918013513L33.833333333333336,122.57725155615806L35,123.06062183105945L36.16666666666667,122.99664131143689L37.333333333333336,123.46182268673181L38.5,123.62466480845212L39.666666666666664,124.45870691382885L40.833333333333336,124.64585749560594L42,124.75696893298625L43.16666666666667,124.51609808856249L44.33333333333333,126.06005536043644L45.5,125.04841083595156L46.666666666666664,124.6678664844632L47.833333333333336,126.23136184388399L49,126.26881149338185L50.166666666666664,126.29840461628139L51.33333333333333,127.01172984087466L52.5,125.92607613527774L53.66666666666667,127.34472829835116L54.833333333333336,128.67746760198474L56,129.78081590329856L57.166666666666664,128.10680148819088L58.333333333333336,129.89971175124495L59.5,130.34438703579454L60.66666666666667,129.67802459558098L61.83333333333333,131.44378554202243L63,131.49771638348327L64.16666666666666,132.9412432462452L65.33333333333333,131.6726204267107L66.5,131.38698798525706L67.66666666666667,133.14479646502156L68.83333333333333,133.4404368346054L70,134.49634149213878L71.16666666666666,135.18334663146734L72.33333333333334,133.62957467667385L73.5,135.63271976040303L74.66666666666667,135.67773149704186L75.83333333333333,136.2036953549981L77,134.52755516530573L78.16666666666667,134.92569088356197L79.33333333333333,136.11351466877014L80.5,134.7948287193626L81.66666666666667,136.54156720788777L82.83333333333333,134.42791069216653L84,135.44220857152342L85.16666666666666,136.4392456846088L86.33333333333334,135.14450473045557L87.5,136.5682736290395L88.66666666666666,137.22593187020718L89.83333333333334,136.34221294508873L91,136.13990254310517L92.16666666666667,138.42895173968373L93.33333333333333,138.0343080857545L94.5,136.55174463444948L95.66666666666667,138.79063342177867L96.83333333333333,136.66248436519504L98,139.6711685270965L99.16666666666667,140.90479526484012L100.33333333333333,136.6312230954468L101.5,138.5865508198142L102.66666666666666,140.73495253080128L103.83333333333334,139.7503272050023L105,142.71490437740087L106.16666666666666,139.43429455922544L107.33333333333334,142.70447516286373L108.5,142.4112258260846L109.66666666666667,141.41491275796292L110.83333333333333,142.70002457344532L112,141.7445374214053L113.16666666666667,141.7103305208087L114.33333333333333,143.07738840186596L115.5,141.79440710002183L116.66666666666667,140.8524629267454L117.83333333333333,141.79944450789688L119,144.82938930028675L120.16666666666666,141.4402366117537L121.33333333333334,143.21696547949313L122.5,140.2163657308519L123.66666666666666,144.32644220122694L124.83333333333334,144.25714322724937L126,144.98051236072183L127.16666666666667,146.09045062506198L128.33333333333331,143.69103814342617L129.5,144.95332008355854L130.66666666666666,143.06550038301944L131.83333333333334,145.62761652359364L133,146.20281152421236L134.16666666666669,145.72196242579818L135.33333333333334,146.05835528188942L136.5,144.25203246706724L137.66666666666666,146.13165648961066L138.83333333333334,145.65462912881372L140,146.87479777866602L141.16666666666666,146.09897515216468L142.33333333333331,146.2228911001384L143.5,146.10019494333864L144.66666666666669,148.0535512214303L145.83333333333334,148.60502045953274L147,148.59037472361325L148.16666666666666,149.31567574256658L149.33333333333334,149.8345205118656L150.5,148.56506900185346L151.66666666666666,151.08403008455036L152.83333333333331,147.7141509207487L154,146.62174385780096L155.16666666666669,147.8928190087676L156.33333333333334,148.96142201179265L157.5,149.88216819250582L158.66666666666666,149.985217469573L159.83333333333331,148.4781951447725L161,149.92191854947805L162.16666666666669,150.68012096279858L163.33333333333334,148.18280622833967L164.5,150.51485903912783L165.66666666666666,147.80390941911935L166.83333333333334,150.36651430034635L168,151.2411490779519L169.16666666666666,148.9225189151764L170.33333333333331,150.78440816307068L171.5,150.30182745569942L172.66666666666669,150.34975700700284L173.83333333333334,152.39536164098976L175,154.5677487322092L176.16666666666666,151.27875985527038L177.33333333333331,149.47915083700417L178.5,152.48853225791453L179.66666666666669,152.3603519859314L180.83333333333334,150.0346289023161L182,150.73072416448593L183.16666666666666,149.7368267773986L184.33333333333334,152.90206289464234L185.5,153.18011594110726L186.66666666666666,150.92596492880583L187.83333333333331,153.0895431497097L189,151.63625592285393L190.16666666666669,154.877682834208L191.33333333333334,155.90110411280392L192.5,153.723068069756L193.66666666666666,149.67404049926995L194.83333333333331,152.18764439100028L196,154.6402768560648L197.16666666666669,154.0219943805933L198.33333333333334,152.95860845738648L199.5,154.22983196133373L200.66666666666666,157.86350085669756L201.83333333333334,153.7125778656602L203,152.59110680544376L204.16666666666666,153.5588083528876L205.33333333333331,153.70146457904576L206.5,155.53781074041126L207.66666666666669,153.54114610636233L208.83333333333334,154.80602669620512L210,156.1159488993287L211.16666666666666,154.7918012937307L212.33333333333331,157.38455479735134L213.5,155.0848660134673L214.66666666666669,154.2966451987028L215.83333333333334,155.88048469686507L217,154.43291070812938L218.16666666666666,156.06809517288207L219.33333333333334,155.97302893453835L220.5,157.54702109152078L221.66666666666666,154.60641611242295L222.83333333333331,153.9330122628212L224,157.33059222483635L225.16666666666669,156.80887270444632L226.33333333333334,157.9297256272435L227.5,155.66040634685754L228.66666666666666,152.96576896125077L229.83333333333331,159.1289616715312L231,154.5809702795148L232.16666666666669,154.73799696439505L233.33333333333334,155.843028865993L234.5,156.1075982748866L235.66666666666666,157.53145062202213L236.83333333333334,152.4640424775481L238,155.68653954857587L239.16666666666666,157.02467024677992L240.33333333333331,158.1603848415017L241.5,158.4844437956214L242.66666666666669,157.84684081697463L243.83333333333334,155.81541872793434L245,157.5353786792755L246.16666666666666,154.62513001674412L247.33333333333331,157.16507150763272L248.5,157.53914849334956L249.66666666666669,157.88146640264986L250.83333333333334,159.97951051855085L252,157.68686355614662L253.16666666666666,156.6753599669933L254.33333333333334,159.5298526343107L255.5,159.5510555719733" style="fill: none;" fill="none"></path></g><g><path stroke="rgb(0, 119, 187)" stroke-width="2px" d="M23.333333333333332,8.77159877204897L24.5,10.526027714252491L25.666666666666664,12.20766479396822L26.833333333333336,11.83824609184267L28,12.165822659969349L29.166666666666668,12.344452835559864L30.333333333333336,12.79948109769823L31.5,12.090472532749194L32.666666666666664,13.099470604896565L33.833333333333336,13.145150135993976L35,13.014705008506795L36.16666666666667,13.421113053798694L37.333333333333336,13.94837932729723L38.5,14.838299407005328L39.666666666666664,14.500199667453785L40.833333333333336,16.68841272497179L42,16.292752028942125L43.16666666666667,15.700711547374745L44.33333333333333,17.19572717094423L45.5,19.094711257457753L46.666666666666664,17.934683257579824L47.833333333333336,18.54918108367922L49,19.79934176111223L50.166666666666664,20.911975928783434L51.33333333333333,19.804089056491872L52.5,20.76538999700548L53.66666666666667,20.70227734231951L54.833333333333336,21.1616441049576L56,21.066671823501604L57.166666666666664,20.550825432777422L58.333333333333336,23.18696558976175L59.5,22.06767861509325L60.66666666666667,24.49189159417154L61.83333333333333,23.53713796520235L63,22.54623895668985L64.16666666666666,24.3184438827038L65.33333333333333,22.89870585823061L66.5,23.797777668476122L67.66666666666667,24.055654709577578L68.83333333333333,22.87172539615633L70,26.00259966635706L71.16666666666666,22.349667960643785L72.33333333333334,25.60228398346903L73.5,23.02764767551424L74.66666666666667,22.72585155868532L75.83333333333333,22.524605795383472L77,25.800397850513477L78.16666666666667,26.799716714859027L79.33333333333333,23.612415564298647L80.5,27.430342158317583L81.66666666666667,27.579288550853747L82.83333333333333,26.882128443956393L84,26.58244223618509L85.16666666666666,28.162474007844942L86.33333333333334,26.884020768642443L87.5,29.835143974065797L88.66666666666666,28.139225447416322L89.83333333333334,28.843631773233433L91,25.39719422960283L92.16666666666667,30.324708810091035L93.33333333333333,28.81662493729593L94.5,29.15285213255884L95.66666666666667,30.930588976383227L96.83333333333333,29.606502360343953L98,30.60053326511385L99.16666666666667,30.49365318441393L100.33333333333333,29.869805823802967L101.5,30.688265921115892L102.66666666666666,32.56497728013994L103.83333333333334,32.785680361032504L105,32.949910407304785L106.16666666666666,31.43445503973963L107.33333333333334,34.54734892868998L108.5,35.23211991333963L109.66666666666667,32.26707790160181L110.83333333333333,34.286300430536286L112,34.169800483226794L113.16666666666667,32.46725552344324L114.33333333333333,39.06167078757288L115.5,36.29676683688165L116.66666666666667,36.65643380308153L117.83333333333333,36.25350051426889L119,37.38720080518724L120.16666666666666,36.15486226582529L121.33333333333334,39.49047683620454L122.5,38.49161951446535L123.66666666666666,39.499318673849125L124.83333333333334,39.37461645507814L126,39.15175071740152L127.16666666666667,39.89461672925951L128.33333333333331,35.58523956799509L129.5,39.98521754288675L130.66666666666666,40.049431306362166L131.83333333333334,36.81482203865053L133,40.440226024627705L134.16666666666669,37.49685673499109L135.33333333333334,40.687546926975266L136.5,42.62348079586031L137.66666666666666,41.06760088944437L138.83333333333334,43.8922746076584L140,40.91144124531748L141.16666666666666,43.0043061938286L142.33333333333331,42.21595186138155L143.5,38.37737453246118L144.66666666666669,40.93890303039552L145.83333333333334,44.0163438537121L147,43.15319983863832L148.16666666666666,41.863517927169816L149.33333333333334,41.52919624352457L150.5,41.15365221166613L151.66666666666666,43.1407711555958L152.83333333333331,39.00175596380235L154,44.18722011351587L155.16666666666669,45.10450307631494L156.33333333333334,42.987644505739226L157.5,42.097843108415624L158.66666666666666,44.27046921277048L159.83333333333331,43.795851763725295L161,42.29626686835291L162.16666666666669,40.57585361623766L163.33333333333334,45.3375952794552L164.5,43.468123545885106L165.66666666666666,42.382219288587585L166.83333333333334,43.998732706546804L168,45.37810553336145L169.16666666666666,45.08982602143289L170.33333333333331,47.60231891417505L171.5,46.661695082426085L172.66666666666669,46.722823103904744L173.83333333333334,44.459306073427214L175,48.62599404120447L176.16666666666666,47.68114379787447L177.33333333333331,46.4607921793461L178.5,49.00888978743555L179.66666666666669,46.904024731159225L180.83333333333334,45.65766189002992L182,46.96916817331316L183.16666666666666,47.21159672403337L184.33333333333334,48.2821184256077L185.5,46.573777809381504L186.66666666666666,48.42292188787462L187.83333333333331,49.59405328416826L189,46.77895327830316L190.16666666666669,46.63528825187685L191.33333333333334,48.1378270199299L192.5,47.83678255820276L193.66666666666666,46.441407389879245L194.83333333333331,49.00045015120508L196,47.853127759933486L197.16666666666669,49.88656580114366L198.33333333333334,52.04190383815767L199.5,49.57921798610689L200.66666666666666,49.63290857815744L201.83333333333334,50.128453687667864L203,48.21933544421198L204.16666666666666,50.27334509873392L205.33333333333331,47.96999694132806L206.5,51.623040735960025L207.66666666666669,51.163469575881976L208.83333333333334,47.5040103390217L210,51.421366397380844L211.16666666666666,47.39352363252642L212.33333333333331,50.251566881179826L213.5,51.6030493476391L214.66666666666669,49.607306150436415L215.83333333333334,48.707555213212984L217,51.66875323438646L218.16666666666666,51.363396646022814L219.33333333333334,51.36410874032976L220.5,49.83305323266985L221.66666666666666,51.00353846931459L222.83333333333331,51.6740214135647L224,47.40738309764864L225.16666666666669,53.414551329851164L226.33333333333334,52.874388237237945L227.5,53.13406529450418L228.66666666666666,51.468714075326936L229.83333333333331,52.989773888826385L231,52.79741611742975L232.16666666666669,51.394999127626434L233.33333333333334,52.17555339002611L234.5,52.780550031900425L235.66666666666666,53.930101014614124L236.83333333333334,55.877355864286436L238,51.40128270053865L239.16666666666666,53.1133420314789L240.33333333333331,52.90939954066278L241.5,54.32125178003313L242.66666666666669,51.25081981086733L243.83333333333334,53.891680889368075L245,54.71451245450975L246.16666666666666,51.26214738512041L247.33333333333331,52.5294972279072L248.5,53.48132995152475L249.66666666666669,53.90688542151453L250.83333333333334,51.9915825071335L252,52.07445577883722L253.16666666666666,53.46825510883333L254.33333333333334,56.08515553259851L255.5,52.49403756880762" style="fill: none;" fill="none"></path></g><g><path stroke="rgb(255, 112, 67)" stroke-width="2px" d="M23.333333333333332,10.133690124988576L24.5,11.008511168003102L25.666666666666664,10.960207437515278L26.833333333333336,10.91514769220354L28,11.181906131744404L29.166666666666668,11.598494488239307L30.333333333333336,12.44695485496523L31.5,12.60435407066347L32.666666666666664,13.434787901878376L33.833333333333336,13.168649248123188L35,13.730623525619526L36.16666666666667,15.527936369419116L37.333333333333336,16.035659610271473L38.5,15.151304415702839L39.666666666666664,17.265037683486955L40.833333333333336,16.70547661447527L42,17.801205135822315L43.16666666666667,18.437118538856524L44.33333333333333,18.150236841678637L45.5,18.194162510871905L46.666666666666664,17.749354120731372L47.833333333333336,19.69474301958086L49,20.54053962612154L50.166666666666664,18.76890173816683L51.33333333333333,19.893760191440602L52.5,20.85247649335863L53.66666666666667,19.704079367160816L54.833333333333336,20.606091863155385L56,20.614122704505938L57.166666666666664,19.91172079229357L58.333333333333336,21.550408035755176L59.5,22.857054934740084L60.66666666666667,21.984614132881184L61.83333333333333,23.000871610879916L63,24.275889654397982L64.16666666666666,23.771008197307605L65.33333333333333,22.454431538820284L66.5,24.34683534646036L67.66666666666667,22.564549011230486L68.83333333333333,24.090026446819323L70,24.729698125362415L71.16666666666666,25.266637013196963L72.33333333333334,24.613534444808977L73.5,23.296258878946322L74.66666666666667,26.324584975481052L75.83333333333333,27.1103282954693L77,25.32458698415758L78.16666666666667,26.604939141511935L79.33333333333333,27.16490241193773L80.5,26.015384396553056L81.66666666666667,27.039995795726796L82.83333333333333,28.10747790956499L84,26.395233961582203L85.16666666666666,25.59123333477976L86.33333333333334,28.851240632772463L87.5,26.71196427845957L88.66666666666666,25.314887995958347L89.83333333333334,27.52478696250917L91,27.735896550655383L92.16666666666667,28.418063116312045L93.33333333333333,25.05691864633562L94.5,29.418555617570895L95.66666666666667,26.194291497707386L96.83333333333333,30.752730236291903L98,22.767449734449404L99.16666666666667,28.479652680397052L100.33333333333333,29.561548110485095L101.5,29.107977004289644L102.66666666666666,31.224255349874515L103.83333333333334,30.219892484188097L105,29.11389134311678L106.16666666666666,33.18201359057428L107.33333333333334,32.02611310029032L108.5,32.87488995337488L109.66666666666667,27.69060603404047L110.83333333333333,32.782970446586624L112,33.42664435887338L113.16666666666667,30.94680890226366L114.33333333333333,32.429547492504135L115.5,31.85777532482149L116.66666666666667,34.95367785239221L117.83333333333333,33.04773765945436L119,35.245906850338L120.16666666666666,33.91507511878015L121.33333333333334,35.54256006383898L122.5,37.56683978104593L123.66666666666666,34.49882102036478L124.83333333333334,37.499091919899L126,35.660253428459185L127.16666666666667,35.8275362493992L128.33333333333331,38.50669877076151L129.5,34.805476521492025L130.66666666666666,35.34593632006647L131.83333333333334,39.56305111432077L133,35.8802444150448L134.16666666666669,36.628345638752L135.33333333333334,36.67760542178156L136.5,39.97898012423517L137.66666666666666,37.14822063708307L138.83333333333334,37.752149137496964L140,39.615475760936754L141.16666666666666,39.173133327007314L142.33333333333331,39.625220903396624L143.5,39.59901847028734L144.66666666666669,39.89994424962999L145.83333333333334,41.81768015289308L147,38.37112392687799L148.16666666666666,39.57932378792764L149.33333333333334,39.93951823139192L150.5,38.82606647396089L151.66666666666666,38.46208078765871L152.83333333333331,40.301229171991366L154,40.49027043008806L155.16666666666669,39.54187290215494L156.33333333333334,42.16698878431322L157.5,39.477533862829226L158.66666666666666,42.23283113384249L159.83333333333331,41.17382821702959L161,39.560809335947056L162.16666666666669,39.819081984996814L163.33333333333334,41.30198541188242L164.5,41.96388366365434L165.66666666666666,43.07821894550325L166.83333333333334,42.565300053596516L168,44.80881910228731L169.16666666666666,41.22013412737848L170.33333333333331,41.556433850765245L171.5,44.60364363336565L172.66666666666669,40.653913657903686L173.83333333333334,44.22945126199724L175,42.97146414065363L176.16666666666666,45.48745816373827L177.33333333333331,42.2432883706093L178.5,38.83176982188227L179.66666666666669,42.80397032880785L180.83333333333334,42.606476247549075L182,41.4576043918133L183.16666666666666,43.291642840147034L184.33333333333334,46.49649579668047L185.5,40.94146788859369L186.66666666666666,43.254369977951065L187.83333333333331,45.06401260280611L189,46.8905542805195L190.16666666666669,41.73323104286196L191.33333333333334,45.15068371081354L192.5,45.22280303978922L193.66666666666666,46.487950664997115L194.83333333333331,44.94987311625482L196,44.75644720339777L197.16666666666669,43.94238494777681L198.33333333333334,46.44353707933428L199.5,42.64968322896959L200.66666666666666,46.89375870490076L201.83333333333334,45.27065182113649L203,46.42299843335153L204.16666666666666,46.79344571614267L205.33333333333331,44.22678090834619L206.5,47.84250568652155L207.66666666666669,45.70988873267176L208.83333333333334,48.85034330868723L210,49.353807170629516L211.16666666666666,46.62445518755914L212.33333333333331,46.416088481187835L213.5,45.10450966978075L214.66666666666669,47.51173128747942L215.83333333333334,48.15865577840807L217,48.15077658677103L218.16666666666666,46.979018811225906L219.33333333333334,45.811935802936574L220.5,48.282936015367525L221.66666666666666,46.241223174572006L222.83333333333331,48.10341572189333L224,48.53683060312273L225.16666666666669,48.09481124901773L226.33333333333334,46.00866504216196L227.5,49.022122873306294L228.66666666666666,46.00656172657015L229.83333333333331,46.86742440247537L231,45.665949876546875L232.16666666666669,49.346178530693074L233.33333333333334,47.29430515909197L234.5,48.920675808429735L235.66666666666666,46.91707979345323L236.83333333333334,48.96085638904573L238,46.70754604363443L239.16666666666666,49.683124413728734L240.33333333333331,50.182302522897736L241.5,50.45665663504602L242.66666666666669,48.963170695543305L243.83333333333334,51.27365957641603L245,48.70934863591196L246.16666666666666,50.31804220342638L247.33333333333331,48.279164552927035L248.5,46.96213294529917L249.66666666666669,50.82935888314249L250.83333333333334,48.7991648271084L252,50.40505617165567L253.16666666666666,48.32620893144609L254.33333333333334,49.51354706668855L255.5,52.30949305438997" style="fill: none;" fill="none"></path></g></g></g></g></g></g><g transform="translate(50, 176)" clip-path="url(#clip_1)"><clipPath id="clip_1"><rect width="279" height="22"></rect></clipPath><g><g><line x1="0" y1="0" x2="0" y2="5" style="visibility: inherit;" fill="rgb(0, 0, 0)" stroke="rgb(204, 204, 204)" stroke-width="1px"></line><line x1="23.333333333333332" y1="0" x2="23.333333333333332" y2="5" style="visibility: inherit;" fill="rgb(0, 0, 0)" stroke="rgb(204, 204, 204)" stroke-width="1px"></line><line x1="46.666666666666664" y1="0" x2="46.666666666666664" y2="5" style="visibility: inherit;" fill="rgb(0, 0, 0)" stroke="rgb(204, 204, 204)" stroke-width="1px"></line><line x1="70" y1="0" x2="70" y2="5" style="visibility: inherit;" fill="rgb(0, 0, 0)" stroke="rgb(204, 204, 204)" stroke-width="1px"></line><line x1="93.33333333333333" y1="0" x2="93.33333333333333" y2="5" style="visibility: inherit;" fill="rgb(0, 0, 0)" stroke="rgb(204, 204, 204)" stroke-width="1px"></line><line x1="116.66666666666667" y1="0" x2="116.66666666666667" y2="5" style="visibility: inherit;" fill="rgb(0, 0, 0)" stroke="rgb(204, 204, 204)" stroke-width="1px"></line><line x1="140" y1="0" x2="140" y2="5" style="visibility: inherit;" fill="rgb(0, 0, 0)" stroke="rgb(204, 204, 204)" stroke-width="1px"></line><line x1="163.33333333333334" y1="0" x2="163.33333333333334" y2="5" style="visibility: inherit;" fill="rgb(0, 0, 0)" stroke="rgb(204, 204, 204)" stroke-width="1px"></line><line x1="186.66666666666666" y1="0" x2="186.66666666666666" y2="5" style="visibility: inherit;" fill="rgb(0, 0, 0)" stroke="rgb(204, 204, 204)" stroke-width="1px"></line><line x1="210" y1="0" x2="210" y2="5" style="visibility: inherit;" fill="rgb(0, 0, 0)" stroke="rgb(204, 204, 204)" stroke-width="1px"></line><line x1="233.33333333333334" y1="0" x2="233.33333333333334" y2="5" style="visibility: inherit;" fill="rgb(0, 0, 0)" stroke="rgb(204, 204, 204)" stroke-width="1px"></line><line x1="256.66666666666663" y1="0" x2="256.66666666666663" y2="5" style="visibility: inherit;" fill="rgb(0, 0, 0)" stroke="rgb(204, 204, 204)" stroke-width="1px"></line><line x1="280" y1="0" x2="280" y2="5" style="visibility: inherit;" fill="rgb(0, 0, 0)" stroke="rgb(204, 204, 204)" stroke-width="1px"></line></g><g transform="translate(0, 8)"><text x="0" y="0" dx="0em" dy="0.95em" style="text-anchor: middle; visibility: hidden; font-family: Roboto, sans-serif; font-size: 12px; font-weight: 200;" fill="rgb(33, 33, 33)" stroke="none" stroke-width="1px">-20</text><text x="23.333333333333332" y="0" dx="0em" dy="0.95em" style="text-anchor: middle; visibility: inherit; font-family: Roboto, sans-serif; font-size: 12px; font-weight: 200;" fill="rgb(33, 33, 33)" stroke="none" stroke-width="1px">0</text><text x="46.666666666666664" y="0" dx="0em" dy="0.95em" style="text-anchor: middle; visibility: hidden; font-family: Roboto, sans-serif; font-size: 12px; font-weight: 200;" fill="rgb(33, 33, 33)" stroke="none" stroke-width="1px">20</text><text x="70" y="0" dx="0em" dy="0.95em" style="text-anchor: middle; visibility: inherit; font-family: Roboto, sans-serif; font-size: 12px; font-weight: 200;" fill="rgb(33, 33, 33)" stroke="none" stroke-width="1px">40</text><text x="93.33333333333333" y="0" dx="0em" dy="0.95em" style="text-anchor: middle; visibility: hidden; font-family: Roboto, sans-serif; font-size: 12px; font-weight: 200;" fill="rgb(33, 33, 33)" stroke="none" stroke-width="1px">60</text><text x="116.66666666666667" y="0" dx="0em" dy="0.95em" style="text-anchor: middle; visibility: inherit; font-family: Roboto, sans-serif; font-size: 12px; font-weight: 200;" fill="rgb(33, 33, 33)" stroke="none" stroke-width="1px">80</text><text x="140" y="0" dx="0em" dy="0.95em" style="text-anchor: middle; visibility: hidden; font-family: Roboto, sans-serif; font-size: 12px; font-weight: 200;" fill="rgb(33, 33, 33)" stroke="none" stroke-width="1px">100</text><text x="163.33333333333334" y="0" dx="0em" dy="0.95em" style="text-anchor: middle; visibility: inherit; font-family: Roboto, sans-serif; font-size: 12px; font-weight: 200;" fill="rgb(33, 33, 33)" stroke="none" stroke-width="1px">120</text><text x="186.66666666666666" y="0" dx="0em" dy="0.95em" style="text-anchor: middle; visibility: hidden; font-family: Roboto, sans-serif; font-size: 12px; font-weight: 200;" fill="rgb(33, 33, 33)" stroke="none" stroke-width="1px">140</text><text x="210" y="0" dx="0em" dy="0.95em" style="text-anchor: middle; visibility: inherit; font-family: Roboto, sans-serif; font-size: 12px; font-weight: 200;" fill="rgb(33, 33, 33)" stroke="none" stroke-width="1px">160</text><text x="233.33333333333334" y="0" dx="0em" dy="0.95em" style="text-anchor: middle; visibility: hidden; font-family: Roboto, sans-serif; font-size: 12px; font-weight: 200;" fill="rgb(33, 33, 33)" stroke="none" stroke-width="1px">180</text><text x="256.66666666666663" y="0" dx="0em" dy="0.95em" style="text-anchor: middle; visibility: inherit; font-family: Roboto, sans-serif; font-size: 12px; font-weight: 200;" fill="rgb(33, 33, 33)" stroke="none" stroke-width="1px">200</text><text x="280" y="0" dx="0em" dy="0.95em" style="text-anchor: middle; visibility: hidden; font-family: Roboto, sans-serif; font-size: 12px; font-weight: 200;" fill="rgb(33, 33, 33)" stroke="none" stroke-width="1px">220</text></g><line x1="0" y1="0" x2="280" y2="0" fill="rgb(0, 0, 0)" stroke="rgb(204, 204, 204)" stroke-width="1px"></line></g></g></g></g></svg>