<svg viewBox="0 0 330 199.9921875" xmlns="http://www.w3.org/2000/svg"><g><g><g><g><g><line x1="40" y1="176.992" x2="35" y2="176.992" style="visibility: inherit;" fill="rgb(0, 0, 0)" stroke="rgb(204, 204, 204)" stroke-width="1px"></line><line x1="40" y1="154.868" x2="35" y2="154.868" style="visibility: inherit;" fill="rgb(0, 0, 0)" stroke="rgb(204, 204, 204)" stroke-width="1px"></line><line x1="40" y1="132.744" x2="35" y2="132.744" style="visibility: inherit;" fill="rgb(0, 0, 0)" stroke="rgb(204, 204, 204)" stroke-width="1px"></line><line x1="40" y1="110.61999999999999" x2="35" y2="110.61999999999999" style="visibility: inherit;" fill="rgb(0, 0, 0)" stroke="rgb(204, 204, 204)" stroke-width="1px"></line><line x1="40" y1="88.496" x2="35" y2="88.496" style="visibility: inherit;" fill="rgb(0, 0, 0)" stroke="rgb(204, 204, 204)" stroke-width="1px"></line><line x1="40" y1="66.372" x2="35" y2="66.372" style="visibility: inherit;" fill="rgb(0, 0, 0)" stroke="rgb(204, 204, 204)" stroke-width="1px"></line><line x1="40" y1="44.247999999999976" x2="35" y2="44.247999999999976" style="visibility: inherit;" fill="rgb(0, 0, 0)" stroke="rgb(204, 204, 204)" stroke-width="1px"></line><line x1="40" y1="22.12400000000002" x2="35" y2="22.12400000000002" style="visibility: inherit;" fill="rgb(0, 0, 0)" stroke="rgb(204, 204, 204)" stroke-width="1px"></line><line x1="40" y1="0" x2="35" y2="0" style="visibility: inherit;" fill="rgb(0, 0, 0)" stroke="rgb(204, 204, 204)" stroke-width="1px"></line></g><g transform="translate(30, 0)"><text x="0" y="176.992" dx="0em" dy="0.3em" style="text-anchor: end; visibility: hidden; font-family: Roboto, sans-serif; font-size: 12px; font-weight: 200;" fill="rgb(33, 33, 33)" stroke="none" stroke-width="1px">0.3</text><text x="0" y="154.868" dx="0em" dy="0.3em" style="text-anchor: end; visibility: inherit; font-family: Roboto, sans-serif; font-size: 12px; font-weight: 200;" fill="rgb(33, 33, 33)" stroke="none" stroke-width="1px">0.4</text><text x="0" y="132.744" dx="0em" dy="0.3em" style="text-anchor: end; visibility: hidden; font-family: Roboto, sans-serif; font-size: 12px; font-weight: 200;" fill="rgb(33, 33, 33)" stroke="none" stroke-width="1px">0.5</text><text x="0" y="110.61999999999999" dx="0em" dy="0.3em" style="text-anchor: end; visibility: inherit; font-family: Roboto, sans-serif; font-size: 12px; font-weight: 200;" fill="rgb(33, 33, 33)" stroke="none" stroke-width="1px">0.6</text><text x="0" y="88.496" dx="0em" dy="0.3em" style="text-anchor: end; visibility: hidden; font-family: Roboto, sans-serif; font-size: 12px; font-weight: 200;" fill="rgb(33, 33, 33)" stroke="none" stroke-width="1px">0.7</text><text x="0" y="66.372" dx="0em" dy="0.3em" style="text-anchor: end; visibility: inherit; font-family: Roboto, sans-serif; font-size: 12px; font-weight: 200;" fill="rgb(33, 33, 33)" stroke="none" stroke-width="1px">0.8</text><text x="0" y="44.247999999999976" dx="0em" dy="0.3em" style="text-anchor: end; visibility: hidden; font-family: Roboto, sans-serif; font-size: 12px; font-weight: 200;" fill="rgb(33, 33, 33)" stroke="none" stroke-width="1px">0.9</text><text x="0" y="22.12400000000002" dx="0em" dy="0.3em" style="text-anchor: end; visibility: inherit; font-family: Roboto, sans-serif; font-size: 12px; font-weight: 200;" fill="rgb(33, 33, 33)" stroke="none" stroke-width="1px">1</text><text x="0" y="0" dx="0em" dy="0.3em" style="text-anchor: end; visibility: hidden; font-family: Roboto, sans-serif; font-size: 12px; font-weight: 200;" fill="rgb(33, 33, 33)" stroke="none" stroke-width="1px">1.1</text></g><line x1="40" y1="0" x2="40" y2="176.992" fill="rgb(0, 0, 0)" stroke="rgb(204, 204, 204)" stroke-width="1px"></line></g></g><g transform="translate(40, 0)" clip-path="url(#clip_0)"><clipPath id="clip_0"><rect width="289" height="176"></rect></clipPath><g><g><g><line x1="0" y1="0" x2="0" y2="176.992" fill="rgb(0, 0, 0)" stroke="rgb(66, 66, 66)" stroke-width="1px" opacity="0.25"></line><line x1="24.166666666666664" y1="0" x2="24.166666666666664" y2="176.992" fill="rgb(0, 0, 0)" stroke="rgb(66, 66, 66)" stroke-width="1px" opacity="0.25"></line><line x1="48.33333333333333" y1="0" x2="48.33333333333333" y2="176.992" fill="rgb(0, 0, 0)" stroke="rgb(66, 66, 66)" stroke-width="1px" opacity="0.25"></line><line x1="72.5" y1="0" x2="72.5" y2="176.992" fill="rgb(0, 0, 0)" stroke="rgb(66, 66, 66)" stroke-width="1px" opacity="0.25"></line><line x1="96.66666666666666" y1="0" x2="96.66666666666666" y2="176.992" fill="rgb(0, 0, 0)" stroke="rgb(66, 66, 66)" stroke-width="1px" opacity="0.25"></line><line x1="120.83333333333334" y1="0" x2="120.83333333333334" y2="176.992" fill="rgb(0, 0, 0)" stroke="rgb(66, 66, 66)" stroke-width="1px" opacity="0.25"></line><line x1="145" y1="0" x2="145" y2="176.992" fill="rgb(0, 0, 0)" stroke="rgb(66, 66, 66)" stroke-width="1px" opacity="0.25"></line><line x1="169.16666666666669" y1="0" x2="169.16666666666669" y2="176.992" fill="rgb(0, 0, 0)" stroke="rgb(66, 66, 66)" stroke-width="1px" opacity="0.25"></line><line x1="193.33333333333331" y1="0" x2="193.33333333333331" y2="176.992" fill="rgb(0, 0, 0)" stroke="rgb(66, 66, 66)" stroke-width="1px" opacity="0.25"></line><line x1="217.5" y1="0" x2="217.5" y2="176.992" fill="rgb(0, 0, 0)" stroke="rgb(66, 66, 66)" stroke-width="1px" opacity="0.25"></line><line x1="241.66666666666669" y1="0" x2="241.66666666666669" y2="176.992" fill="rgb(0, 0, 0)" stroke="rgb(66, 66, 66)" stroke-width="1px" opacity="0.25"></line><line x1="265.8333333333333" y1="0" x2="265.8333333333333" y2="176.992" fill="rgb(0, 0, 0)" stroke="rgb(66, 66, 66)" stroke-width="1px" opacity="0.25"></line><line x1="290" y1="0" x2="290" y2="176.992" fill="rgb(0, 0, 0)" stroke="rgb(66, 66, 66)" stroke-width="1px" opacity="0.25"></line></g><g><line x1="0" y1="176.992" x2="290" y2="176.992" fill="rgb(0, 0, 0)" stroke="rgb(66, 66, 66)" stroke-width="1px" opacity="0.25"></line><line x1="0" y1="154.868" x2="290" y2="154.868" fill="rgb(0, 0, 0)" stroke="rgb(66, 66, 66)" stroke-width="1px" opacity="0.25"></line><line x1="0" y1="132.744" x2="290" y2="132.744" fill="rgb(0, 0, 0)" stroke="rgb(66, 66, 66)" stroke-width="1px" opacity="0.25"></line><line x1="0" y1="110.61999999999999" x2="290" y2="110.61999999999999" fill="rgb(0, 0, 0)" stroke="rgb(66, 66, 66)" stroke-width="1px" opacity="0.25"></line><line x1="0" y1="88.496" x2="290" y2="88.496" fill="rgb(0, 0, 0)" stroke="rgb(66, 66, 66)" stroke-width="1px" opacity="0.25"></line><line x1="0" y1="66.372" x2="290" y2="66.372" fill="rgb(0, 0, 0)" stroke="rgb(66, 66, 66)" stroke-width="1px" opacity="0.25"></line><line x1="0" y1="44.247999999999976" x2="290" y2="44.247999999999976" fill="rgb(0, 0, 0)" stroke="rgb(66, 66, 66)" stroke-width="1px" opacity="0.25"></line><line x1="0" y1="22.12400000000002" x2="290" y2="22.12400000000002" fill="rgb(0, 0, 0)" stroke="rgb(66, 66, 66)" stroke-width="1px" opacity="0.25"></line><line x1="0" y1="0" x2="290" y2="0" fill="rgb(0, 0, 0)" stroke="rgb(66, 66, 66)" stroke-width="1px" opacity="0.25"></line></g></g></g><g><g><line x1="0" y1="243.36399999999998" x2="290" y2="243.36399999999998" fill="rgb(0, 0, 0)" stroke="rgb(153, 153, 153)" stroke-width="1.5px"></line></g></g><g><g><line x1="24.166666666666664" y1="0" x2="24.166666666666664" y2="176.992" fill="rgb(0, 0, 0)" stroke="rgb(153, 153, 153)" stroke-width="1.5px"></line></g></g><g><g><g><g><g><path stroke="rgb(51, 187, 238)" stroke-width="2px" d="M24.166666666666664,168.87241455578803L25.375,170.26913314276933L26.583333333333332,168.79640602391103L27.791666666666668,163.69634767049112L29,163.67971747474996L30.208333333333336,167.73374060150303L31.416666666666668,168.50887563518526L32.625,172.59651136432993L33.833333333333336,166.57671273679617L35.041666666666664,166.00168597539655L36.25,165.35985169773969L37.458333333333336,163.78178067972124L38.666666666666664,169.1026139210319L39.875,172.2906627761671L41.083333333333336,174.20189243289857L42.29166666666667,171.17535020294562L43.5,172.9361710418472L44.708333333333336,173.99247277499956L45.916666666666664,168.368512477917L47.125,167.67615073694148L48.33333333333333,166.06885721952247L49.541666666666664,160.93292119644642L50.75,166.19452651589592L51.958333333333336,162.49820338180734L53.166666666666664,162.96212538450416L54.375,163.83641202233056L55.583333333333336,167.6386167185695L56.791666666666664,171.11180166782682L58,169.91808238867463L59.208333333333336,167.11608421834282L60.41666666666667,164.24302166432594L61.625,165.2008816388619L62.833333333333336,162.20000045876685L64.04166666666667,166.65676601660297L65.25,165.45726162581758L66.45833333333333,168.31315598670938L67.66666666666667,165.8551623495114L68.875,164.08240218131866L70.08333333333333,160.93297965674356L71.29166666666666,161.7250231996917L72.5,158.92262164614402L73.70833333333333,158.1350779741658L74.91666666666667,160.94018208556423L76.125,159.34561423792067L77.33333333333333,159.8787066891129L78.54166666666666,156.92093184619188L79.75,154.84830030865686L80.95833333333333,153.30675475428944L82.16666666666667,148.50826648185014L83.375,147.7149373042839L84.58333333333334,151.41046736944662L85.79166666666667,150.3501577325131L87,151.20380247241798L88.20833333333333,157.37735004749078L89.41666666666667,152.4404541798929L90.625,153.35188023651273L91.83333333333333,151.81296944725852L93.04166666666667,144.63233161618814L94.25,143.8995432254463L95.45833333333333,136.90461220159438L96.66666666666666,138.96494758218716L97.875,137.2214851290356L99.08333333333333,137.96320481109447L100.29166666666667,137.8123033565511L101.5,138.0197291157144L102.70833333333334,131.58892394441946L103.91666666666667,131.60400705620398L105.125,125.95169619214977L106.33333333333333,125.53997071783809L107.54166666666667,123.80310227380433L108.75,121.27115332271002L109.95833333333333,116.77231763315999L111.16666666666667,117.35064917021275L112.375,112.33425399320889L113.58333333333333,111.11221140356997L114.79166666666666,108.59119133322324L116,104.99281286778975L117.20833333333333,105.21751884364443L118.41666666666667,99.98894832992173L119.625,100.12943369769822L120.83333333333334,100.80965818214281L122.04166666666667,103.30355402126229L123.25,99.13853606838174L124.45833333333333,93.36189234587067L125.66666666666667,85.72437854068586L126.875,83.82356466980642L128.08333333333334,81.78918172638336L129.29166666666669,87.42177394423913L130.5,80.37250770837086L131.70833333333334,78.52668102196465L132.91666666666666,78.0151182738996L134.125,75.0264809380565L135.33333333333334,76.21296485544406L136.54166666666666,73.05128899131513L137.75,68.47258906060632L138.95833333333334,63.937569310845014L140.16666666666666,60.91859082909889L141.375,58.80923710816183L142.58333333333331,56.947696886593576L143.79166666666666,55.83077275365264L145,52.47891858688397L146.20833333333334,56.72510008172634L147.41666666666666,56.29314265973832L148.625,52.75634053053538L149.83333333333334,45.568831785667406L151.04166666666669,43.34209296197205L152.25,42.00604966775481L153.45833333333334,42.09831831211987L154.66666666666666,41.2597848778435L155.875,38.670898394052315L157.08333333333331,36.521633239998884L158.29166666666666,38.21174046646029L159.5,35.94817185155433L160.70833333333334,39.95342478184627L161.91666666666666,36.993182440785915L163.125,37.004836827485754L164.33333333333334,36.41589619572699L165.54166666666666,35.16863192100371L166.75,34.12230672428037L167.95833333333334,32.89857834246772L169.16666666666669,31.568408049601388L170.375,29.280477989207554L171.58333333333334,28.205686584860615L172.79166666666666,27.560811742252433L174,28.663714721361597L175.20833333333331,28.133595256042383L176.41666666666666,27.517556944961473L177.625,28.637761842987064L178.83333333333334,27.224123633349578L180.04166666666666,27.269840603235153L181.25,26.701337521387792L182.45833333333334,26.062269040390056L183.66666666666666,25.082894688012722L184.875,24.495270076586326L186.08333333333334,23.84472867784113L187.29166666666669,24.348303734262057L188.5,24.650448768114636L189.70833333333334,23.93783589275811L190.91666666666666,23.510268167544197L192.125,23.551694164305232L193.33333333333331,23.87451639425117L194.54166666666666,23.17430983655071L195.75,22.754185901930395L196.95833333333334,23.39601143682627L198.16666666666666,23.48314012587447L199.375,24.131350603082044L200.58333333333334,23.626376993738575L201.79166666666666,25.409159251357913L203,27.074756594935504L204.20833333333334,28.074115001082077L205.41666666666669,33.44119615499955L206.625,32.191945369009865L207.83333333333334,33.23019468875212L209.04166666666666,29.383650077029962L210.25,31.8431841454535L211.45833333333331,30.93517153139291L212.66666666666666,30.688330594845887L213.875,31.732092560475L215.08333333333334,33.848182899299225L216.29166666666666,32.734104047479036L217.5,31.469723472608198L218.70833333333334,29.817200506790325L219.91666666666666,31.209414507641682L221.125,31.746776276263194L222.33333333333334,29.38749892520462L223.54166666666669,29.163793767354246L224.75,27.53974278796989L225.95833333333334,25.96937893656064L227.16666666666666,24.729193993825717L228.375,23.687116396295433L229.58333333333331,23.061869837777284L230.79166666666666,22.68672190266634L232,23.355533037267875L233.20833333333334,22.862919822360713L234.41666666666666,22.56735189341645L235.625,22.68797776793918L236.83333333333334,23.356286556431563L238.04166666666666,24.35320509330566L239.25,24.95135621543008L240.45833333333334,25.310246888704768L241.66666666666669,24.929648028890895L242.875,25.893155240559945L244.08333333333334,26.173292935671995L245.29166666666666,26.043408920849902L246.5,25.66751188006732L247.70833333333331,24.250107128040398L248.91666666666666,23.69763090871355L250.125,23.664111809006858L251.33333333333334,23.048067085404117L252.54166666666666,22.678440251242456L253.75,22.456664150745496L254.95833333333334,22.62156512233661L256.1666666666667,23.316438969070003L257.375,24.62726317277803L258.58333333333337,26.605618947787594L259.7916666666667,31.964165259244158L261,31.305726831556633L262.2083333333333,29.420835890270045L263.4166666666667,27.098034797940734L264.625,25.40638751065375" style="fill: none;" fill="none"></path></g><g><path stroke="rgb(204, 51, 17)" stroke-width="2px" d="M24.166666666666664,166.63767141008375L25.375,168.96553160080313L26.583333333333332,167.77784783002792L27.791666666666668,167.2538696958624L29,168.92514597930088L30.208333333333336,169.2155700680707L31.416666666666668,170.30054679522425L32.625,175.47760940245573L33.833333333333336,174.9156344745308L35.041666666666664,172.78342045611228L36.25,168.2228112960936L37.458333333333336,167.8859887842849L38.666666666666664,167.0876525201483L39.875,170.18771973127537L41.083333333333336,167.27649843080977L42.29166666666667,166.12674336831154L43.5,166.9271833365466L44.708333333333336,163.83140047688127L45.916666666666664,160.78219283466018L47.125,159.54874222263516L48.33333333333333,164.47018564491512L49.541666666666664,165.33719136265955L50.75,163.17566926181817L51.958333333333336,163.07063646399226L53.166666666666664,166.58322421465607L54.375,163.62533436570044L55.583333333333336,171.08756817849542L56.791666666666664,169.0096415631987L58,167.16695292733402L59.208333333333336,165.76337348258173L60.41666666666667,165.8151260285579L61.625,167.93194150358815L62.833333333333336,165.6264335647578L64.04166666666667,164.24312887191883L65.25,161.0294156228743L66.45833333333333,162.08085142104568L67.66666666666667,162.7117128930077L68.875,163.9841296726735L70.08333333333333,161.76791604930364L71.29166666666666,164.31175146079482L72.5,161.666522493103L73.70833333333333,159.18548785513383L74.91666666666667,158.59076433165632L76.125,154.95629990371538L77.33333333333333,160.22478177058903L78.54166666666666,153.85094658146807L79.75,153.60224241366953L80.95833333333333,152.2611533854122L82.16666666666667,153.24429975983722L83.375,152.04638779313325L84.58333333333334,149.24187682726787L85.79166666666667,151.13476719305353L87,147.2050739451664L88.20833333333333,149.31675220001068L89.41666666666667,147.60409547140685L90.625,148.06633459369252L91.83333333333333,150.42944185290335L93.04166666666667,149.46357579070076L94.25,141.73286490019345L95.45833333333333,141.56393256945717L96.66666666666666,141.46257317101544L97.875,139.31599110872494L99.08333333333333,135.04838082722986L100.29166666666667,135.16951170795062L101.5,127.79303235130843L102.70833333333334,119.791545154651L103.91666666666667,128.1011740902424L105.125,125.04185766535758L106.33333333333333,119.9286401344166L107.54166666666667,114.47698183550985L108.75,115.37751442784403L109.95833333333333,115.32190071946579L111.16666666666667,113.79869933499215L112.375,104.54172336095166L113.58333333333333,106.1387263923263L114.79166666666666,104.41523379891966L116,102.78520497909696L117.20833333333333,95.25192706041044L118.41666666666667,93.11569336431329L119.625,93.62174766321837L120.83333333333334,90.05181930277266L122.04166666666667,84.33426797860572L123.25,81.20170381599492L124.45833333333333,82.59979299443856L125.66666666666667,82.24677997394737L126.875,83.82277195298872L128.08333333333334,79.404973041178L129.29166666666669,74.66853254563881L130.5,76.8920957156615L131.70833333333334,76.73640045822837L132.91666666666666,75.45111677621114L134.125,70.80638562721198L135.33333333333334,68.61548020159117L136.54166666666666,65.81110378677197L137.75,63.53254467410177L138.95833333333334,62.76134247027833L140.16666666666666,60.80878798853751L141.375,60.82912182705043L142.58333333333331,57.56369445414805L143.79166666666666,54.71053813473857L145,55.97830538721367L146.20833333333334,53.163371430799295L147.41666666666666,48.79271136994658L148.625,47.66014849288165L149.83333333333334,52.93993812965691L151.04166666666669,51.936284340043905L152.25,46.864597862708564L153.45833333333334,45.609380492870805L154.66666666666666,46.644049862304215L155.875,45.47705169262818L157.08333333333331,42.691091642369855L158.29166666666666,44.59510992011427L159.5,45.14158762298228L160.70833333333334,41.595913304914234L161.91666666666666,37.382742290848014L163.125,34.55687305051895L164.33333333333334,32.26541824254282L165.54166666666666,33.870211676650555L166.75,33.04528794577916L167.95833333333334,33.742200234813716L169.16666666666669,32.074581185009L170.375,29.584181870452145L171.58333333333334,28.685875545496696L172.79166666666666,32.616385954090916L174,31.99502588035405L175.20833333333331,31.622209836111914L176.41666666666666,29.908692324892574L177.625,27.986681922492902L178.83333333333334,27.42940894483179L180.04166666666666,27.69097842201382L181.25,26.954020212655017L182.45833333333334,26.511845287039733L183.66666666666666,28.630268112012626L184.875,29.30538854321771L186.08333333333334,30.604360697608772L187.29166666666669,30.787810726464762L188.5,31.791780639446326L189.70833333333334,32.69212921912469L190.91666666666666,31.146571943706245L192.125,30.815170842233904L193.33333333333331,29.424468928565755L194.54166666666666,29.78190903314959L195.75,27.612645315557785L196.95833333333334,27.800920244449426L198.16666666666666,26.42405204233769L199.375,26.193864384849313L200.58333333333334,25.16185189468832L201.79166666666666,25.138577664370366L203,24.230713230511547L204.20833333333334,24.281927833974986L205.41666666666669,24.312656596053028L206.625,25.522960380857246L207.83333333333334,26.8450706407458L209.04166666666666,29.128169956125646L210.25,31.093962809132243L211.45833333333331,30.7836053614895L212.66666666666666,30.895357524793177L213.875,30.06850892710734L215.08333333333334,30.46629966416388L216.29166666666666,30.109040842619127L217.5,29.000790928796867L218.70833333333334,28.633807612392854L219.91666666666666,27.81768435877174L221.125,29.115804923162525L222.33333333333334,27.21298284956555L223.54166666666669,26.667222869186052L224.75,27.531628133743062L225.95833333333334,26.858410039692576L227.16666666666666,28.2422736998257L228.375,26.986830747452817L229.58333333333331,25.935598344139727L230.79166666666666,26.79469206159859L232,25.820315132627186L233.20833333333334,28.215350019365115L234.41666666666666,27.864576434844498L235.625,27.952078916021467L236.83333333333334,28.004580404727616L238.04166666666666,27.440148034172612L239.25,26.803521979950307L240.45833333333334,26.123579715527526L241.66666666666669,26.013580988763216L242.875,26.245548384594013L244.08333333333334,25.49082892642442L245.29166666666666,26.229863779080077L246.5,25.779384795005424L247.70833333333331,26.998925289234723L248.91666666666666,28.624549481440297L250.125,29.003990732984935L251.33333333333334,28.635727494905694L252.54166666666666,27.222903024500773L253.75,27.269108237925895L254.95833333333334,26.104964838423587L256.1666666666667,27.49223994717491L257.375,28.32460501242574L258.58333333333337,29.4199573153549L259.7916666666667,28.587340812438367L261,28.08777091068843L262.2083333333333,27.788028969638482L263.4166666666667,27.01225054122983L264.625,26.546783484184623" style="fill: none;" fill="none"></path></g><g><path stroke="rgb(0, 119, 187)" stroke-width="2px" d="M24.166666666666664,170.36224771523476L25.375,169.89667485290764L26.583333333333332,174.69492241695949L27.791666666666668,172.70380352829923L29,169.4265805591536L30.208333333333336,170.44426161259403L31.416666666666668,171.02360728854327L32.625,169.2392628016627L33.833333333333336,170.29502972901088L35.041666666666664,166.72473440505794L36.25,165.49357607332868L37.458333333333336,167.74390984879298L38.666666666666664,171.1794624832716L39.875,169.65952159691545L41.083333333333336,173.81612999627447L42.29166666666667,164.38682582466336L43.5,166.7773992251102L44.708333333333336,169.9994656454221L45.916666666666664,168.0586964248453L47.125,171.06599067828282L48.33333333333333,166.6128682334582L49.541666666666664,168.70858087407436L50.75,167.88021054658728L51.958333333333336,168.87303011840396L53.166666666666664,167.97888409299298L54.375,162.67492913679445L55.583333333333336,165.15392584162112L56.791666666666664,162.4697921072987L58,163.54101095933163L59.208333333333336,162.99187522689684L60.41666666666667,170.40952204709478L61.625,174.86010950951177L62.833333333333336,170.37926752821417L64.04166666666667,168.28669575722867L65.25,166.43521945898513L66.45833333333333,167.4100975077616L67.66666666666667,165.90926053184492L68.875,165.60469161823082L70.08333333333333,168.69958059148493L71.29166666666666,167.27888365324665L72.5,167.02239875577578L73.70833333333333,166.5705411853922L74.91666666666667,164.8095934834243L76.125,169.7123522266156L77.33333333333333,168.1845132679547L78.54166666666666,167.86374315667567L79.75,165.2875506721034L80.95833333333333,163.14590191762971L82.16666666666667,160.66904613740283L83.375,158.8849660373963L84.58333333333334,158.41045124118318L85.79166666666667,160.50947278119213L87,164.74854938670592L88.20833333333333,164.61029830038888L89.41666666666667,163.63344775293015L90.625,158.57784322088614L91.83333333333333,159.12007744694753L93.04166666666667,160.04135124636306L94.25,157.0185185807262L95.45833333333333,161.16414634435878L96.66666666666666,161.26779258480968L97.875,160.73404706530152L99.08333333333333,158.92396659414993L100.29166666666667,150.68672705827365L101.5,150.51184417220477L102.70833333333334,154.28047801773863L103.91666666666667,154.15792790733047L105.125,149.01897037373942L106.33333333333333,146.23356248547412L107.54166666666667,146.648081538354L108.75,143.91712928857484L109.95833333333333,145.85415488399315L111.16666666666667,145.82450371368677L112.375,142.2311160662171L113.58333333333333,140.07508347773532L114.79166666666666,136.0997695124148L116,139.37593922696107L117.20833333333333,138.36197737418172L118.41666666666667,141.3291972077999L119.625,138.93800153629263L120.83333333333334,137.2053175014989L122.04166666666667,131.99417687155824L123.25,132.1451254443766L124.45833333333333,126.87230048883207L125.66666666666667,131.75369402697234L126.875,128.42523615495296L128.08333333333334,120.17086743683775L129.29166666666669,115.51621283785796L130.5,110.93562556190669L131.70833333333334,111.1669342404567L132.91666666666666,101.77079777667299L134.125,101.49650999763833L135.33333333333334,99.54413753888146L136.54166666666666,96.58491954706392L137.75,100.47074948309827L138.95833333333334,97.43885334548337L140.16666666666666,93.83191587157833L141.375,91.36978675534598L142.58333333333331,85.12504845014973L143.79166666666666,81.37820546703196L145,82.40772735317145L146.20833333333334,74.38441870960948L147.41666666666666,76.42366078215454L148.625,73.77363981112012L149.83333333333334,76.35516007495029L151.04166666666669,74.92440591435492L152.25,70.78832574198759L153.45833333333334,65.62497795156308L154.66666666666666,65.50663559620185L155.875,63.64783039164901L157.08333333333331,59.2549195929072L158.29166666666666,55.427306586104734L159.5,56.40836645803337L160.70833333333334,55.5071744965165L161.91666666666666,52.88069289638097L163.125,52.49667046385705L164.33333333333334,51.670323740563994L165.54166666666666,49.08874928336273L166.75,50.81743755982479L167.95833333333334,48.874984206808556L169.16666666666669,44.72985115087805L170.375,44.62649909766186L171.58333333333334,45.75635439328947L172.79166666666666,45.54036767499806L174,44.516875748355126L175.20833333333331,48.07431343882023L176.41666666666666,47.52707636609516L177.625,42.72923991889266L178.83333333333334,39.25460478679245L180.04166666666666,41.043384647321105L181.25,41.222757942742966L182.45833333333334,40.436482024328036L183.66666666666666,37.878950050053696L184.875,38.13223065682515L186.08333333333334,38.284199020888L187.29166666666669,38.67334667121504L188.5,39.80073515707935L189.70833333333334,36.90156866592578L190.91666666666666,36.35393529879099L192.125,41.09078274585636L193.33333333333331,42.44305805464883L194.54166666666666,41.16866209147156L195.75,37.722324826561106L196.95833333333334,35.952489099504156L198.16666666666666,34.29465439949129L199.375,33.2999535794836L200.58333333333334,31.213305202804897L201.79166666666666,29.961316176797705L203,30.401984013978122L204.20833333333334,30.07045145250763L205.41666666666669,30.765431811293418L206.625,34.75801960923695L207.83333333333334,35.6637391285564L209.04166666666666,33.227504521254595L210.25,33.55356354820962L211.45833333333331,31.365471184040537L212.66666666666666,30.648543754545077L213.875,28.728559412173787L215.08333333333334,31.15216311465047L216.29166666666666,30.520558912911053L217.5,32.823296078871515L218.70833333333334,30.03341080676961L219.91666666666666,29.551340896293215L221.125,28.96413759289068L222.33333333333334,29.505710231744562L223.54166666666669,29.830653815056895L224.75,30.32358659693362L225.95833333333334,28.831551749496235L227.16666666666666,29.42615872570786L228.375,28.5910616586501L229.58333333333331,28.68593140742153L230.79166666666666,27.55099200389964L232,26.572061729897147L233.20833333333334,26.28267019738499L234.41666666666666,27.002935173545765L235.625,27.13712752735285L236.83333333333334,26.919676307747757L238.04166666666666,27.08717220787408L239.25,26.889703116060513L240.45833333333334,26.47325502908303L241.66666666666669,26.81931944067521L242.875,26.133058191962505L244.08333333333334,26.615201338402894L245.29166666666666,25.41465406682045L246.5,27.37602011610241L247.70833333333331,26.765045229108164L248.91666666666666,26.696426928800946L250.125,27.251189212395342L251.33333333333334,28.17997457155796L252.54166666666666,29.631145682723623L253.75,30.501848349423L254.95833333333334,32.81206974077868L256.1666666666667,30.92057489958196L257.375,32.16940577520603L258.58333333333337,29.045143360791673L259.7916666666667,28.362452439700395L261,26.46300472759891L262.2083333333333,27.409097248790793L263.4166666666667,28.27471939339525L264.625,28.19816469115192" style="fill: none;" fill="none"></path></g><g><path stroke="rgb(255, 112, 67)" stroke-width="2px" d="M24.166666666666664,166.63767141008375L25.375,167.10324427241085L26.583333333333332,171.42641412313614L27.791666666666668,175.04535987465871L29,168.8140038246518L30.208333333333336,171.33890286169324L31.416666666666668,171.24353782428807L32.625,173.61250843977757L33.833333333333336,167.78417376131713L35.041666666666664,169.42123529172494L36.25,169.2009076551712L37.458333333333336,165.78444584568928L38.666666666666664,165.82782609717682L39.875,167.3448168896646L41.083333333333336,162.29212216118245L42.29166666666667,166.11718473877548L43.5,170.49764844515062L44.708333333333336,166.8675251701223L45.916666666666664,166.17960848345487L47.125,171.4284530275254L48.33333333333333,170.4060152096625L49.541666666666664,169.7925668738012L50.75,171.21231695012744L51.958333333333336,164.31699859411597L53.166666666666664,163.7554329645091L54.375,165.50426458970486L55.583333333333336,162.08406024013507L56.791666666666664,166.58720452308722L58,167.20332476867802L59.208333333333336,165.48722988640978L60.41666666666667,168.629103962249L61.625,170.8121947966348L62.833333333333336,169.44035200839554L64.04166666666667,168.3192797369508L65.25,165.56087257294593L66.45833333333333,165.3956588423183L67.66666666666667,162.3168669050851L68.875,158.68179459435132L70.08333333333333,154.4149874260636L71.29166666666666,150.3650699697366L72.5,155.08631075832608L73.70833333333333,154.04549428740341L74.91666666666667,149.84540745885215L76.125,151.19891894034373L77.33333333333333,147.24356499313623L78.54166666666666,148.44594693319732L79.75,151.25314252048946L80.95833333333333,147.87202976795123L82.16666666666667,147.92912853973039L83.375,145.87762137955514L84.58333333333334,148.22231402876375L85.79166666666667,143.9677688871403L87,137.54148086237853L88.20833333333333,134.281641311308L89.41666666666667,134.41150136650822L90.625,131.5097537181201L91.83333333333333,127.98090533775144L93.04166666666667,127.94936273275643L94.25,130.31416758748807L95.45833333333333,130.54118661015582L96.66666666666666,128.88959823242033L97.875,123.42915100221148L99.08333333333333,121.94068245542236L100.29166666666667,114.79030733244525L101.5,116.75737625356264L102.70833333333334,114.9579512873396L103.91666666666667,108.21693557648092L105.125,105.96012594130175L106.33333333333333,105.49994005586231L107.54166666666667,98.37060126591638L108.75,97.6685922998483L109.95833333333333,100.22705323910087L111.16666666666667,102.65602969832044L112.375,101.43171588684811L113.58333333333333,96.22763339639718L114.79166666666666,92.50925063834794L116,91.76805414296511L117.20833333333333,87.15180867405728L118.41666666666667,89.14952222816942L119.625,86.77255077796458L120.83333333333334,91.60366190274523L122.04166666666667,98.9718227811811L123.25,93.55983100543963L124.45833333333333,91.20653583566276L125.66666666666667,87.4108256786819L126.875,81.25983864470454L128.08333333333334,80.25094611132226L129.29166666666669,75.47407774484205L130.5,72.9059233568433L131.70833333333334,70.76910273503799L132.91666666666666,71.57277151040758L134.125,73.24683930318666L135.33333333333334,75.14517987452219L136.54166666666666,71.81469001375598L137.75,67.73062967407085L138.95833333333334,66.47205999781714L140.16666666666666,63.63115176883951L141.375,61.62864019956358L142.58333333333331,66.08849398912291L143.79166666666666,61.31525101517021L145,60.23909974736201L146.20833333333334,55.42188141499896L147.41666666666666,52.53155041558111L148.625,56.16074591516591L149.83333333333334,54.46470227512801L151.04166666666669,55.53283723955801L152.25,54.68389033354194L153.45833333333334,53.28062229426425L154.66666666666666,54.22645598726105L155.875,53.3041283183851L157.08333333333331,52.1547984532808L158.29166666666666,47.5916395944294L159.5,43.36391111967185L160.70833333333334,44.40286834271679L161.91666666666666,50.091670143889985L163.125,55.29275101592992L164.33333333333334,56.327633115928506L165.54166666666666,53.075001436138855L166.75,48.73968937315026L167.95833333333334,45.5425741463511L169.16666666666669,41.83650521893552L170.375,40.8047303900436L171.58333333333334,38.99379896515101L172.79166666666666,37.90724011021549L174,39.04310458859022L175.20833333333331,40.61851789651048L176.41666666666666,39.77597136469918L177.625,37.482643654276366L178.83333333333334,38.19241345124809L180.04166666666666,35.34064237864834L181.25,38.09907393865597L182.45833333333334,36.774471830539774L183.66666666666666,36.87361046133805L184.875,35.7412271122597L186.08333333333334,37.4455301579274L187.29166666666669,34.8925124026559L188.5,33.95663501327171L189.70833333333334,33.39510857964119L190.91666666666666,36.63379230213502L192.125,39.172930524637344L193.33333333333331,40.398446826249376L194.54166666666666,38.4520621949852L195.75,36.68829815244798L196.95833333333334,36.225972990704285L198.16666666666666,35.05467799799008L199.375,32.862067842914826L200.58333333333334,31.248535117980342L201.79166666666666,29.684487494013634L203,28.448092287744206L204.20833333333334,29.792016312435365L205.41666666666669,29.704470831581993L206.625,32.631609861963426L207.83333333333334,32.600093488856224L209.04166666666666,31.985250401213218L210.25,30.12651666395332L211.45833333333331,29.309243053486725L212.66666666666666,31.50057329943823L213.875,29.537743770998983L215.08333333333334,28.06207942204613L216.29166666666666,28.070580708342426L217.5,28.373642837236908L218.70833333333334,29.449380010241608L219.91666666666666,30.69075557782311L221.125,29.945747758925318L222.33333333333334,28.30688181480189L223.54166666666669,30.005256660559304L224.75,31.32224819990309L225.95833333333334,33.00634301917738L227.16666666666666,33.12290001507393L228.375,32.0009676850545L229.58333333333331,31.029841655153497L230.79166666666666,29.553271416317507L232,27.77342937734788L233.20833333333334,26.40755752207676L234.41666666666666,28.269728821145556L235.625,27.89720371591272L236.83333333333334,28.865549905557746L238.04166666666666,27.95672973467067L239.25,26.21957110458113L240.45833333333334,26.66710908597407L241.66666666666669,26.637665242920487L242.875,26.322032305198995L244.08333333333334,26.430619174455444L245.29166666666666,25.899838032230683L246.5,25.58136934689575L247.70833333333331,25.986221399473514L248.91666666666666,27.718960515694267L250.125,26.97080946886326L251.33333333333334,31.28937967622152L252.54166666666666,30.602888849853706L253.75,31.978794145369093L254.95833333333334,29.228743014778818L256.1666666666667,28.17464560020336L257.375,26.946253887679372L258.58333333333337,26.209218860165L259.7916666666667,26.95886437121375L261,27.110685045953655L262.2083333333333,26.605844187018892L263.4166666666667,27.79276755633215L264.625,27.908993588914065" style="fill: none;" fill="none"></path></g></g></g></g><g opacity="0.2"><g><g><g><path stroke="rgb(51, 187, 238)" stroke-width="2px" d="M24.166666666666664,168.87241455578803L25.375,171.1071642949581L26.583333333333332,167.38258798980712L27.791666666666668,157.69867904686927L29,163.65800509119032L30.208333333333336,173.34191403412817L31.416666666666668,169.6173311355114L32.625,178.55632349872587L33.833333333333336,157.69867904686927L35.041666666666664,165.14783825063705L36.25,164.40292167091368L37.458333333333336,161.42326194548605L38.666666666666664,177.06649033927917L41.083333333333336,177.06649033927917L42.29166666666667,166.63767141008375L43.5,175.57665717983244L44.708333333333336,175.57665717983244L45.916666666666664,159.93342878603934L47.125,166.63767141008375L48.33333333333333,163.65800509119032L49.541666666666664,153.22918616199493L50.75,174.08683061385153L51.958333333333336,156.9537624671459L53.166666666666664,163.65800509119032L54.375,165.14783825063705L55.583333333333336,173.34191403412817L56.791666666666664,176.3215737595558L58,168.1275045695305L59.208333333333336,162.91308851146698L60.41666666666667,159.93342878603934L61.625,166.63767141008375L62.833333333333336,157.69867904686927L64.04166666666667,173.34191403412817L65.25,163.65800509119032L66.45833333333333,172.59699745440483L67.66666666666667,162.16817193174361L68.875,161.42326194548605L70.08333333333333,156.20884588742254L71.29166666666666,162.91308851146698L72.5,154.71901932144164L73.70833333333333,156.9537624671459L74.91666666666667,165.14783825063705L76.125,156.9537624671459L77.33333333333333,160.6783453657627L78.54166666666666,152.48426958227157L79.75,151.7393530025482L80.95833333333333,150.99443642282486L82.16666666666667,141.3105340733528L83.375,146.52494353795052L84.58333333333334,156.9537624671459L85.79166666666667,148.7596932771206L87,152.48426958227157L88.20833333333333,166.63767141008375L89.41666666666667,145.0351103785038L90.625,154.71901932144164L91.83333333333333,149.50460326337813L93.04166666666667,133.86137486958503L94.25,142.80036063933372L95.45833333333333,126.41221566581726L96.66666666666666,142.05545065307615L97.875,134.6062914493084L99.08333333333333,139.07578433418274L100.29166666666667,137.585951174736L101.5,138.33086775445938L102.70833333333334,121.9427161874771L103.91666666666667,131.62663172388076L105.125,117.47322989606856L106.33333333333333,124.92238250637054L107.54166666666667,121.19779960775375L108.75,117.47322989606856L109.95833333333333,110.02406409883498L111.16666666666667,118.21814647579193L112.375,104.80966122770309L113.58333333333333,109.27914751911163L114.79166666666666,104.80966122770309L116,99.59524516963958L117.20833333333333,105.55457780742644L118.41666666666667,92.14609255933762L119.625,100.34016174936293L120.83333333333334,101.82999490880965L122.04166666666667,107.04439777994155L123.25,92.89100913906097L124.45833333333333,84.69692676210403L125.66666666666667,74.26810783290863L126.875,80.97234386348724L128.08333333333334,78.73760731124878L129.29166666666669,95.8706622710228L130.5,69.79860835456847L131.70833333333334,75.75794099235534L132.91666666666666,77.24777415180206L134.125,70.54352493429184L135.33333333333334,77.99269073152541L136.54166666666666,68.30877519512177L137.75,61.60453916454317L138.95833333333334,57.13503968620302L140.16666666666666,56.39012310647966L141.375,55.645206526756304L142.58333333333331,54.1553865542412L143.79166666666666,54.1553865542412L145,47.45113733673097L146.20833333333334,63.09437232398989L147.41666666666666,55.645206526756304L148.625,47.45113733673097L149.83333333333334,34.787568668365495L151.04166666666669,40.001984726429L152.25,40.001984726429L153.45833333333334,42.23672127866747L154.66666666666666,40.001984726429L155.875,34.787568668365495L157.08333333333331,33.29773550891878L158.29166666666666,40.74690130615236L159.5,32.552818929195425L160.70833333333334,45.961304177284255L161.91666666666666,32.552818929195425L163.125,37.02231840753557L164.33333333333334,35.532485248088854L165.54166666666666,33.29773550891878L166.75,32.552818929195425L167.95833333333334,31.062985769748707L169.16666666666669,29.57315261030199L170.375,25.848582898616808L171.58333333333334,26.593499478340167L172.79166666666666,26.593499478340167L174,30.318069190025348L175.20833333333331,27.338416058063526L176.41666666666666,26.593499478340167L177.625,30.318069190025348L178.83333333333334,25.103666318893453L180.04166666666666,27.338416058063526L181.25,25.848582898616808L182.45833333333334,25.103666318893453L183.66666666666666,23.613833159446735L184.875,23.613833159446735L186.08333333333334,22.868916579723376L187.29166666666669,25.103666318893453L188.5,25.103666318893453L189.70833333333334,22.868916579723376L190.91666666666666,22.868916579723376L192.125,23.613833159446735L193.33333333333331,24.358749739170094L194.54166666666666,22.12400000000002L195.75,22.12400000000002L196.95833333333334,24.358749739170094L198.16666666666666,23.613833159446735L199.375,25.103666318893453L200.58333333333334,22.868916579723376L201.79166666666666,28.083332637786885L203,29.57315261030199L204.20833333333334,29.57315261030199L205.41666666666669,41.49181788587572L206.625,30.318069190025348L207.83333333333334,34.787568668365495L209.04166666666666,23.613833159446735L210.25,35.532485248088854L211.45833333333331,29.57315261030199L212.66666666666666,30.318069190025348L213.875,33.29773550891878L215.08333333333334,37.02231840753557L216.29166666666666,31.062985769748707L217.5,29.57315261030199L218.70833333333334,27.338416058063526L219.91666666666666,33.29773550891878L221.125,32.552818929195425L222.33333333333334,25.848582898616808L223.54166666666669,28.82823603057863L224.75,25.103666318893453L225.95833333333334,23.613833159446735L227.16666666666666,22.868916579723376L228.375,22.12400000000002L229.58333333333331,22.12400000000002L230.79166666666666,22.12400000000002L232,24.358749739170094L233.20833333333334,22.12400000000002L234.41666666666666,22.12400000000002L235.625,22.868916579723376L236.83333333333334,24.358749739170094L238.04166666666666,25.848582898616808L239.25,25.848582898616808L240.45833333333334,25.848582898616808L241.66666666666669,24.358749739170094L242.875,27.338416058063526L244.08333333333334,26.593499478340167L245.29166666666666,25.848582898616808L246.5,25.103666318893453L247.70833333333331,22.12400000000002L248.91666666666666,22.868916579723376L250.125,23.613833159446735L251.33333333333334,22.12400000000002L252.54166666666666,22.12400000000002L253.75,22.12400000000002L254.95833333333334,22.868916579723376L256.1666666666667,24.358749739170094L257.375,26.593499478340167L258.58333333333337,29.57315261030199L259.7916666666667,40.001984726429L261,30.318069190025348L262.2083333333333,26.593499478340167L263.4166666666667,23.613833159446735L264.625,22.868916579723376" style="fill: none;" fill="none"></path></g><g><path stroke="rgb(204, 51, 17)" stroke-width="2px" d="M24.166666666666664,166.63767141008375L25.375,170.36224771523476L26.583333333333332,166.63767141008375L27.791666666666668,166.63767141008375L29,171.1071642949581L30.208333333333336,169.6173311355114L31.416666666666668,171.85208087468146L32.625,183.02581638360022L33.833333333333336,174.08683061385153L35.041666666666664,169.6173311355114L36.25,161.42326194548605L37.458333333333336,167.38258798980712L38.666666666666664,165.89275483036042L39.875,174.8317471935749L41.083333333333336,162.91308851146698L42.29166666666667,164.40292167091368L43.5,168.1275045695305L44.708333333333336,159.18851220631598L45.916666666666664,156.20884588742254L47.125,157.69867904686927L48.33333333333333,171.85208087468146L49.541666666666664,166.63767141008375L50.75,159.93342878603934L51.958333333333336,162.91308851146698L53.166666666666664,171.85208087468146L54.375,159.18851220631598L55.583333333333336,182.28089980387688L56.791666666666664,165.89275483036042L58,164.40292167091368L59.208333333333336,163.65800509119032L60.41666666666667,165.89275483036042L61.625,171.1071642949581L62.833333333333336,162.16817193174361L64.04166666666667,162.16817193174361L65.25,156.20884588742254L66.45833333333333,163.65800509119032L67.66666666666667,163.65800509119032L68.875,165.89275483036042L70.08333333333333,158.44359562659264L71.29166666666666,168.1275045695305L72.5,157.69867904686927L73.70833333333333,155.463935901165L74.91666666666667,157.69867904686927L76.125,149.50460326337813L77.33333333333333,168.1275045695305L78.54166666666666,144.29019379878042L79.75,153.22918616199493L80.95833333333333,150.2495198431015L82.16666666666667,154.71901932144164L83.375,150.2495198431015L84.58333333333334,145.0351103785038L85.79166666666667,153.9741027417183L87,141.3105340733528L88.20833333333333,152.48426958227157L89.41666666666667,145.0351103785038L90.625,148.7596932771206L91.83333333333333,153.9741027417183L93.04166666666667,148.01477669739722L94.25,130.13679856443403L95.45833333333333,141.3105340733528L96.66666666666666,141.3105340733528L97.875,136.0961180152893L99.08333333333333,128.64696540498733L100.29166666666667,135.35120802903174L101.5,116.72831331634521L102.70833333333334,107.78931435966491L103.91666666666667,140.56561749362945L105.125,120.45288302803039L106.33333333333333,112.25881383800505L107.54166666666667,106.2994943871498L108.75,116.72831331634521L109.95833333333333,115.23848015689849L111.16666666666667,111.5138972582817L112.375,90.6562593998909L113.58333333333333,108.53423093938827L114.79166666666666,101.82999490880965L116,100.34016174936293L117.20833333333333,83.95201018238068L118.41666666666667,89.91134282016753L119.625,94.38082911157608L120.83333333333334,84.69692676210403L122.04166666666667,75.75794099235534L123.25,76.5028575720787L124.45833333333333,84.69692676210403L125.66666666666667,81.71726044321059L126.875,86.18675992155075L128.08333333333334,72.77827467346191L129.29166666666669,67.56387180233001L130.5,80.2274404706955L131.70833333333334,76.5028575720787L132.91666666666666,73.52319125318527L134.125,63.83928890371324L135.33333333333334,65.32912206315996L136.54166666666666,61.60453916454317L137.75,60.11470600509645L138.95833333333334,61.60453916454317L140.16666666666666,57.879956265926374L141.375,60.85962258481981L142.58333333333331,52.66555339479448L143.79166666666666,50.43080365562441L145,57.879956265926374L146.20833333333334,48.94097049617769L147.41666666666666,42.23672127866747L148.625,45.961304177284255L149.83333333333334,60.85962258481981L151.04166666666669,50.43080365562441L152.25,39.25706814670564L153.45833333333334,43.726554438114185L154.66666666666666,48.19605391645433L155.875,43.726554438114185L157.08333333333331,38.51215156698229L158.29166666666666,47.45113733673097L159.5,45.961304177284255L160.70833333333334,36.27740182781221L161.91666666666666,31.062985769748707L163.125,30.318069190025348L164.33333333333334,28.82823603057863L165.54166666666666,36.27740182781221L166.75,31.807902349472062L167.95833333333334,34.787568668365495L169.16666666666669,29.57315261030199L170.375,25.848582898616808L171.58333333333334,27.338416058063526L172.79166666666666,38.51215156698229L174,31.062985769748707L175.20833333333331,31.062985769748707L176.41666666666666,27.338416058063526L177.625,25.103666318893453L178.83333333333334,26.593499478340167L180.04166666666666,28.083332637786885L181.25,25.848582898616808L182.45833333333334,25.848582898616808L183.66666666666666,31.807902349472062L184.875,30.318069190025348L186.08333333333334,32.552818929195425L187.29166666666669,31.062985769748707L188.5,33.29773550891878L189.70833333333334,34.042652088642136L190.91666666666666,28.82823603057863L192.125,30.318069190025348L193.33333333333331,27.338416058063526L194.54166666666666,30.318069190025348L195.75,24.358749739170094L196.95833333333334,28.083332637786885L198.16666666666666,24.358749739170094L199.375,25.848582898616808L200.58333333333334,23.613833159446735L201.79166666666666,25.103666318893453L203,22.868916579723376L204.20833333333334,24.358749739170094L205.41666666666669,24.358749739170094L206.625,27.338416058063526L207.83333333333334,28.82823603057863L209.04166666666666,32.552818929195425L210.25,34.042652088642136L211.45833333333331,30.318069190025348L212.66666666666666,31.062985769748707L213.875,28.82823603057863L215.08333333333334,31.062985769748707L216.29166666666666,29.57315261030199L217.5,27.338416058063526L218.70833333333334,28.083332637786885L219.91666666666666,26.593499478340167L221.125,31.062985769748707L222.33333333333334,24.358749739170094L223.54166666666669,25.848582898616808L224.75,28.82823603057863L225.95833333333334,25.848582898616808L227.16666666666666,30.318069190025348L228.375,25.103666318893453L229.58333333333331,24.358749739170094L230.79166666666666,28.083332637786885L232,24.358749739170094L233.20833333333334,31.807902349472062L234.41666666666666,27.338416058063526L235.625,28.083332637786885L236.83333333333334,28.083332637786885L238.04166666666666,26.593499478340167L239.25,25.848582898616808L240.45833333333334,25.103666318893453L241.66666666666669,25.848582898616808L242.875,26.593499478340167L244.08333333333334,24.358749739170094L245.29166666666666,27.338416058063526L246.5,25.103666318893453L247.70833333333331,28.82823603057863L248.91666666666666,31.062985769748707L250.125,29.57315261030199L251.33333333333334,28.083332637786885L252.54166666666666,25.103666318893453L253.75,27.338416058063526L254.95833333333334,24.358749739170094L256.1666666666667,29.57315261030199L257.375,29.57315261030199L258.58333333333337,31.062985769748707L259.7916666666667,27.338416058063526L261,27.338416058063526L262.2083333333333,27.338416058063526L263.4166666666667,25.848582898616808L264.625,25.848582898616808" style="fill: none;" fill="none"></path></g><g><path stroke="rgb(0, 119, 187)" stroke-width="2px" d="M24.166666666666664,170.36224771523476L25.375,169.6173311355114L26.583333333333332,179.30124007844924L27.791666666666668,170.36224771523476L29,165.14783825063705L30.208333333333336,171.85208087468146L31.416666666666668,171.85208087468146L32.625,166.63767141008375L33.833333333333336,171.85208087468146L35.041666666666664,161.42326194548605L36.25,163.65800509119032L37.458333333333336,171.1071642949581L38.666666666666664,176.3215737595558L39.875,167.38258798980712L41.083333333333336,180.0461566581726L42.29166666666667,150.2495198431015L43.5,170.36224771523476L44.708333333333336,174.8317471935749L45.916666666666664,165.14783825063705L47.125,175.57665717983244L48.33333333333333,159.93342878603934L49.541666666666664,171.85208087468146L50.75,166.63767141008375L51.958333333333336,170.36224771523476L53.166666666666664,166.63767141008375L54.375,154.71901932144164L55.583333333333336,168.87241455578803L56.791666666666664,158.44359562659264L58,165.14783825063705L59.208333333333336,162.16817193174361L60.41666666666667,181.5359898176193L61.625,181.5359898176193L62.833333333333336,163.65800509119032L64.04166666666667,165.14783825063705L65.25,163.65800509119032L66.45833333333333,168.87241455578803L67.66666666666667,163.65800509119032L68.875,165.14783825063705L70.08333333333333,173.34191403412817L71.29166666666666,165.14783825063705L72.5,166.63767141008375L73.70833333333333,165.89275483036042L74.91666666666667,162.16817193174361L76.125,177.06649033927917L77.33333333333333,165.89275483036042L78.54166666666666,167.38258798980712L79.75,161.42326194548605L80.95833333333333,159.93342878603934L82.16666666666667,156.9537624671459L83.375,156.20884588742254L84.58333333333334,157.69867904686927L85.79166666666667,163.65800509119032L87,171.1071642949581L88.20833333333333,164.40292167091368L89.41666666666667,162.16817193174361L90.625,150.99443642282486L91.83333333333333,159.93342878603934L93.04166666666667,161.42326194548605L94.25,152.48426958227157L95.45833333333333,167.38258798980712L96.66666666666666,161.42326194548605L97.875,159.93342878603934L99.08333333333333,156.20884588742254L100.29166666666667,138.33086775445938L101.5,150.2495198431015L102.70833333333334,159.93342878603934L103.91666666666667,153.9741027417183L105.125,141.3105340733528L106.33333333333333,142.05545065307615L107.54166666666667,147.26986011767386L108.75,139.82070091390608L109.95833333333333,148.7596932771206L111.16666666666667,145.78002695822715L112.375,136.84103459501264L113.58333333333333,136.84103459501264L114.79166666666666,130.13679856443403L116,144.29019379878042L117.20833333333333,136.84103459501264L118.41666666666667,145.78002695822715L119.625,135.35120802903174L120.83333333333334,134.6062914493084L122.04166666666667,124.17746592664717L123.25,132.37154830360413L124.45833333333333,118.96306305551528L125.66666666666667,139.07578433418274L126.875,123.43254934692382L128.08333333333334,107.78931435966491L129.29166666666669,108.53423093938827L130.5,104.06474464797974L131.70833333333334,111.5138972582817L132.91666666666666,87.67659308099746L134.125,101.0850783290863L135.33333333333334,96.61557885074615L136.54166666666666,92.14609255933762L137.75,106.2994943871498L138.95833333333334,92.89100913906097L140.16666666666666,88.42150966072082L141.375,87.67659308099746L142.58333333333331,75.75794099235534L143.79166666666666,75.75794099235534L145,83.95201018238068L146.20833333333334,62.34945574426653L147.41666666666666,79.48252389097213L148.625,69.79860835456847L149.83333333333334,80.2274404706955L151.04166666666669,72.77827467346191L152.25,64.5842054834366L153.45833333333334,57.879956265926374L154.66666666666666,65.32912206315996L155.875,60.85962258481981L157.08333333333331,52.66555339479448L158.29166666666666,49.68588707590105L159.5,57.879956265926374L160.70833333333334,54.1553865542412L161.91666666666666,48.94097049617769L163.125,51.92063681507112L164.33333333333334,50.43080365562441L165.54166666666666,45.2163875975609L166.75,53.41046997451784L167.95833333333334,45.961304177284255L169.16666666666669,38.51215156698229L170.375,44.471471017837544L171.58333333333334,47.45113733673097L172.79166666666666,45.2163875975609L174,42.981637858390826L175.20833333333331,53.41046997451784L176.41666666666666,46.706220757007614L177.625,35.532485248088854L178.83333333333334,34.042652088642136L180.04166666666666,43.726554438114185L181.25,41.49181788587572L182.45833333333334,39.25706814670564L183.66666666666666,34.042652088642136L184.875,38.51215156698229L186.08333333333334,38.51215156698229L187.29166666666669,39.25706814670564L188.5,41.49181788587572L189.70833333333334,32.552818929195425L190.91666666666666,35.532485248088854L192.125,48.19605391645433L193.33333333333331,44.471471017837544L194.54166666666666,39.25706814670564L195.75,32.552818929195425L196.95833333333334,33.29773550891878L198.16666666666666,31.807902349472062L199.375,31.807902349472062L200.58333333333334,28.083332637786885L201.79166666666666,28.083332637786885L203,31.062985769748707L204.20833333333334,29.57315261030199L205.41666666666669,31.807902349472062L206.625,40.74690130615236L207.83333333333334,37.02231840753557L209.04166666666666,29.57315261030199L210.25,34.042652088642136L211.45833333333331,28.083332637786885L212.66666666666666,29.57315261030199L213.875,25.848582898616808L215.08333333333334,34.787568668365495L216.29166666666666,29.57315261030199L217.5,36.27740182781221L218.70833333333334,25.848582898616808L219.91666666666666,28.82823603057863L221.125,28.083332637786885L222.33333333333334,30.318069190025348L223.54166666666669,30.318069190025348L224.75,31.062985769748707L225.95833333333334,26.593499478340167L227.16666666666666,30.318069190025348L228.375,27.338416058063526L229.58333333333331,28.82823603057863L230.79166666666666,25.848582898616808L232,25.103666318893453L233.20833333333334,25.848582898616808L234.41666666666666,28.083332637786885L235.625,27.338416058063526L236.83333333333334,26.593499478340167L238.04166666666666,27.338416058063526L239.25,26.593499478340167L240.45833333333334,25.848582898616808L241.66666666666669,27.338416058063526L242.875,25.103666318893453L244.08333333333334,27.338416058063526L245.29166666666666,23.613833159446735L246.5,30.318069190025348L247.70833333333331,25.848582898616808L248.91666666666666,26.593499478340167L250.125,28.083332637786885L251.33333333333334,29.57315261030199L252.54166666666666,31.807902349472062L253.75,31.807902349472062L254.95833333333334,36.27740182781221L256.1666666666667,28.083332637786885L257.375,34.042652088642136L258.58333333333337,24.358749739170094L259.7916666666667,27.338416058063526L261,23.613833159446735L262.2083333333333,28.82823603057863L263.4166666666667,29.57315261030199L264.625,28.083332637786885" style="fill: none;" fill="none"></path></g><g><path stroke="rgb(255, 112, 67)" stroke-width="2px" d="M24.166666666666664,166.63767141008375L25.375,167.38258798980712L26.583333333333332,175.57665717983244L27.791666666666668,179.30124007844924L29,160.6783453657627L30.208333333333336,174.8317471935749L31.416666666666668,171.1071642949581L32.625,177.06649033927917L33.833333333333336,159.18851220631598L35.041666666666664,171.85208087468146L36.25,168.87241455578803L37.458333333333336,160.6783453657627L38.666666666666664,165.89275483036042L39.875,169.6173311355114L41.083333333333336,154.71901932144164L42.29166666666667,171.85208087468146L43.5,177.06649033927917L44.708333333333336,161.42326194548605L45.916666666666664,165.14783825063705L47.125,179.30124007844924L48.33333333333333,168.87241455578803L49.541666666666664,168.87241455578803L50.75,173.34191403412817L51.958333333333336,153.9741027417183L53.166666666666664,162.91308851146698L54.375,168.1275045695305L55.583333333333336,156.9537624671459L56.791666666666664,173.34191403412817L58,168.1275045695305L59.208333333333336,162.91308851146698L60.41666666666667,173.34191403412817L61.625,174.08683061385153L62.833333333333336,167.38258798980712L64.04166666666667,166.63767141008375L65.25,161.42326194548605L66.45833333333333,165.14783825063705L67.66666666666667,157.69867904686927L68.875,153.22918616199493L70.08333333333333,148.01477669739722L71.29166666666666,144.29019379878042L72.5,162.16817193174361L73.70833333333333,152.48426958227157L74.91666666666667,143.54527721905708L76.125,153.22918616199493L77.33333333333333,141.3105340733528L78.54166666666666,150.2495198431015L79.75,155.463935901165L80.95833333333333,142.80036063933372L82.16666666666667,148.01477669739722L83.375,142.80036063933372L84.58333333333334,151.7393530025482L85.79166666666667,137.585951174736L87,127.90204882526398L88.20833333333333,129.3918819847107L89.41666666666667,134.6062914493084L90.625,127.15713224554061L91.83333333333333,122.68763276720047L93.04166666666667,127.90204882526398L94.25,133.86137486958503L95.45833333333333,130.8817151441574L96.66666666666666,126.41221566581726L97.875,115.23848015689849L99.08333333333333,119.70797963523864L100.29166666666667,104.06474464797974L101.5,119.70797963523864L102.70833333333334,112.25881383800505L103.91666666666667,98.10541201019286L105.125,102.57491148853302L106.33333333333333,104.80966122770309L107.54166666666667,87.67659308099746L108.75,96.61557885074615L109.95833333333333,104.06474464797974L111.16666666666667,106.2994943871498L112.375,99.59524516963958L113.58333333333333,88.42150966072082L114.79166666666666,86.9316765012741L116,90.6562593998909L117.20833333333333,80.2274404706955L118.41666666666667,92.14609255933762L119.625,83.20709360265731L120.83333333333334,98.85032858991623L122.04166666666667,110.02406409883498L123.25,85.4418433418274L124.45833333333333,87.67659308099746L125.66666666666667,81.71726044321059L126.875,72.03335809373856L128.08333333333334,78.73760731124878L129.29166666666669,68.30877519512177L130.5,69.05369177484512L131.70833333333334,67.56387180233001L132.91666666666666,72.77827467346191L134.125,75.75794099235534L135.33333333333334,77.99269073152541L136.54166666666666,66.81895522260666L137.75,61.60453916454317L138.95833333333334,64.5842054834366L140.16666666666666,59.36978942537309L141.375,58.62487284564973L142.58333333333331,72.77827467346191L143.79166666666666,54.1553865542412L145,58.62487284564973L146.20833333333334,48.19605391645433L147.41666666666666,48.19605391645433L148.625,61.60453916454317L149.83333333333334,51.92063681507112L151.04166666666669,57.13503968620302L152.25,53.41046997451784L153.45833333333334,51.17572023534777L154.66666666666666,55.645206526756304L155.875,51.92063681507112L157.08333333333331,50.43080365562441L158.29166666666666,40.74690130615236L159.5,37.02231840753557L160.70833333333334,45.961304177284255L161.91666666666666,58.62487284564973L163.125,63.09437232398989L164.33333333333334,57.879956265926374L165.54166666666666,48.19605391645433L166.75,42.23672127866747L167.95833333333334,40.74690130615236L169.16666666666669,36.27740182781221L170.375,39.25706814670564L171.58333333333334,36.27740182781221L172.79166666666666,36.27740182781221L174,40.74690130615236L175.20833333333331,42.981637858390826L176.41666666666666,38.51215156698229L177.625,34.042652088642136L178.83333333333334,39.25706814670564L180.04166666666666,31.062985769748707L181.25,42.23672127866747L182.45833333333334,34.787568668365495L183.66666666666666,37.02231840753557L184.875,34.042652088642136L186.08333333333334,40.001984726429L187.29166666666669,31.062985769748707L188.5,32.552818929195425L189.70833333333334,32.552818929195425L190.91666666666666,41.49181788587572L192.125,42.981637858390826L193.33333333333331,42.23672127866747L194.54166666666666,35.532485248088854L195.75,34.042652088642136L196.95833333333334,35.532485248088854L198.16666666666666,33.29773550891878L199.375,29.57315261030199L200.58333333333334,28.82823603057863L201.79166666666666,27.338416058063526L203,26.593499478340167L204.20833333333334,31.807902349472062L205.41666666666669,29.57315261030199L206.625,37.02231840753557L207.83333333333334,32.552818929195425L209.04166666666666,31.062985769748707L210.25,27.338416058063526L211.45833333333331,28.083332637786885L212.66666666666666,34.787568668365495L213.875,26.593499478340167L215.08333333333334,25.848582898616808L216.29166666666666,28.083332637786885L217.5,28.82823603057863L218.70833333333334,31.062985769748707L219.91666666666666,32.552818929195425L221.125,28.82823603057863L222.33333333333334,25.848582898616808L223.54166666666669,32.552818929195425L224.75,33.29773550891878L225.95833333333334,35.532485248088854L227.16666666666666,33.29773550891878L228.375,30.318069190025348L229.58333333333331,29.57315261030199L230.79166666666666,27.338416058063526L232,25.103666318893453L233.20833333333334,24.358749739170094L234.41666666666666,31.062985769748707L235.625,27.338416058063526L236.83333333333334,30.318069190025348L238.04166666666666,26.593499478340167L239.25,23.613833159446735L240.45833333333334,27.338416058063526L241.66666666666669,26.593499478340167L242.875,25.848582898616808L244.08333333333334,26.593499478340167L245.29166666666666,25.103666318893453L246.5,25.103666318893453L247.70833333333331,26.593499478340167L248.91666666666666,30.318069190025348L250.125,25.848582898616808L251.33333333333334,37.76723498725893L252.54166666666666,29.57315261030199L253.75,34.042652088642136L254.95833333333334,25.103666318893453L256.1666666666667,26.593499478340167L257.375,25.103666318893453L258.58333333333337,25.103666318893453L259.7916666666667,28.083332637786885L261,27.338416058063526L262.2083333333333,25.848582898616808L263.4166666666667,29.57315261030199L264.625,28.083332637786885" style="fill: none;" fill="none"></path></g></g></g></g></g></g><g transform="translate(40, 176)" clip-path="url(#clip_1)"><clipPath id="clip_1"><rect width="289" height="22"></rect></clipPath><g><g><line x1="0" y1="0" x2="0" y2="5" style="visibility: inherit;" fill="rgb(0, 0, 0)" stroke="rgb(204, 204, 204)" stroke-width="1px"></line><line x1="24.166666666666664" y1="0" x2="24.166666666666664" y2="5" style="visibility: inherit;" fill="rgb(0, 0, 0)" stroke="rgb(204, 204, 204)" stroke-width="1px"></line><line x1="48.33333333333333" y1="0" x2="48.33333333333333" y2="5" style="visibility: inherit;" fill="rgb(0, 0, 0)" stroke="rgb(204, 204, 204)" stroke-width="1px"></line><line x1="72.5" y1="0" x2="72.5" y2="5" style="visibility: inherit;" fill="rgb(0, 0, 0)" stroke="rgb(204, 204, 204)" stroke-width="1px"></line><line x1="96.66666666666666" y1="0" x2="96.66666666666666" y2="5" style="visibility: inherit;" fill="rgb(0, 0, 0)" stroke="rgb(204, 204, 204)" stroke-width="1px"></line><line x1="120.83333333333334" y1="0" x2="120.83333333333334" y2="5" style="visibility: inherit;" fill="rgb(0, 0, 0)" stroke="rgb(204, 204, 204)" stroke-width="1px"></line><line x1="145" y1="0" x2="145" y2="5" style="visibility: inherit;" fill="rgb(0, 0, 0)" stroke="rgb(204, 204, 204)" stroke-width="1px"></line><line x1="169.16666666666669" y1="0" x2="169.16666666666669" y2="5" style="visibility: inherit;" fill="rgb(0, 0, 0)" stroke="rgb(204, 204, 204)" stroke-width="1px"></line><line x1="193.33333333333331" y1="0" x2="193.33333333333331" y2="5" style="visibility: inherit;" fill="rgb(0, 0, 0)" stroke="rgb(204, 204, 204)" stroke-width="1px"></line><line x1="217.5" y1="0" x2="217.5" y2="5" style="visibility: inherit;" fill="rgb(0, 0, 0)" stroke="rgb(204, 204, 204)" stroke-width="1px"></line><line x1="241.66666666666669" y1="0" x2="241.66666666666669" y2="5" style="visibility: inherit;" fill="rgb(0, 0, 0)" stroke="rgb(204, 204, 204)" stroke-width="1px"></line><line x1="265.8333333333333" y1="0" x2="265.8333333333333" y2="5" style="visibility: inherit;" fill="rgb(0, 0, 0)" stroke="rgb(204, 204, 204)" stroke-width="1px"></line><line x1="290" y1="0" x2="290" y2="5" style="visibility: inherit;" fill="rgb(0, 0, 0)" stroke="rgb(204, 204, 204)" stroke-width="1px"></line></g><g transform="translate(0, 8)"><text x="0" y="0" dx="0em" dy="0.95em" style="text-anchor: middle; visibility: hidden; font-family: Roboto, sans-serif; font-size: 12px; font-weight: 200;" fill="rgb(33, 33, 33)" stroke="none" stroke-width="1px">-20</text><text x="24.166666666666664" y="0" dx="0em" dy="0.95em" style="text-anchor: middle; visibility: inherit; font-family: Roboto, sans-serif; font-size: 12px; font-weight: 200;" fill="rgb(33, 33, 33)" stroke="none" stroke-width="1px">0</text><text x="48.33333333333333" y="0" dx="0em" dy="0.95em" style="text-anchor: middle; visibility: hidden; font-family: Roboto, sans-serif; font-size: 12px; font-weight: 200;" fill="rgb(33, 33, 33)" stroke="none" stroke-width="1px">20</text><text x="72.5" y="0" dx="0em" dy="0.95em" style="text-anchor: middle; visibility: inherit; font-family: Roboto, sans-serif; font-size: 12px; font-weight: 200;" fill="rgb(33, 33, 33)" stroke="none" stroke-width="1px">40</text><text x="96.66666666666666" y="0" dx="0em" dy="0.95em" style="text-anchor: middle; visibility: hidden; font-family: Roboto, sans-serif; font-size: 12px; font-weight: 200;" fill="rgb(33, 33, 33)" stroke="none" stroke-width="1px">60</text><text x="120.83333333333334" y="0" dx="0em" dy="0.95em" style="text-anchor: middle; visibility: inherit; font-family: Roboto, sans-serif; font-size: 12px; font-weight: 200;" fill="rgb(33, 33, 33)" stroke="none" stroke-width="1px">80</text><text x="145" y="0" dx="0em" dy="0.95em" style="text-anchor: middle; visibility: hidden; font-family: Roboto, sans-serif; font-size: 12px; font-weight: 200;" fill="rgb(33, 33, 33)" stroke="none" stroke-width="1px">100</text><text x="169.16666666666669" y="0" dx="0em" dy="0.95em" style="text-anchor: middle; visibility: inherit; font-family: Roboto, sans-serif; font-size: 12px; font-weight: 200;" fill="rgb(33, 33, 33)" stroke="none" stroke-width="1px">120</text><text x="193.33333333333331" y="0" dx="0em" dy="0.95em" style="text-anchor: middle; visibility: hidden; font-family: Roboto, sans-serif; font-size: 12px; font-weight: 200;" fill="rgb(33, 33, 33)" stroke="none" stroke-width="1px">140</text><text x="217.5" y="0" dx="0em" dy="0.95em" style="text-anchor: middle; visibility: inherit; font-family: Roboto, sans-serif; font-size: 12px; font-weight: 200;" fill="rgb(33, 33, 33)" stroke="none" stroke-width="1px">160</text><text x="241.66666666666669" y="0" dx="0em" dy="0.95em" style="text-anchor: middle; visibility: hidden; font-family: Roboto, sans-serif; font-size: 12px; font-weight: 200;" fill="rgb(33, 33, 33)" stroke="none" stroke-width="1px">180</text><text x="265.8333333333333" y="0" dx="0em" dy="0.95em" style="text-anchor: middle; visibility: inherit; font-family: Roboto, sans-serif; font-size: 12px; font-weight: 200;" fill="rgb(33, 33, 33)" stroke="none" stroke-width="1px">200</text><text x="290" y="0" dx="0em" dy="0.95em" style="text-anchor: middle; visibility: hidden; font-family: Roboto, sans-serif; font-size: 12px; font-weight: 200;" fill="rgb(33, 33, 33)" stroke="none" stroke-width="1px">220</text></g><line x1="0" y1="0" x2="290" y2="0" fill="rgb(0, 0, 0)" stroke="rgb(204, 204, 204)" stroke-width="1px"></line></g></g></g></g></svg>