<svg viewBox="0 0 330 199.9921875" xmlns="http://www.w3.org/2000/svg"><g><g><g><g><g><line x1="40" y1="176.992" x2="35" y2="176.992" style="visibility: inherit;" fill="rgb(0, 0, 0)" stroke="rgb(204, 204, 204)" stroke-width="1px"></line><line x1="40" y1="157.3262222222222" x2="35" y2="157.3262222222222" style="visibility: inherit;" fill="rgb(0, 0, 0)" stroke="rgb(204, 204, 204)" stroke-width="1px"></line><line x1="40" y1="137.66044444444444" x2="35" y2="137.66044444444444" style="visibility: inherit;" fill="rgb(0, 0, 0)" stroke="rgb(204, 204, 204)" stroke-width="1px"></line><line x1="40" y1="117.99466666666667" x2="35" y2="117.99466666666667" style="visibility: inherit;" fill="rgb(0, 0, 0)" stroke="rgb(204, 204, 204)" stroke-width="1px"></line><line x1="40" y1="98.32888888888888" x2="35" y2="98.32888888888888" style="visibility: inherit;" fill="rgb(0, 0, 0)" stroke="rgb(204, 204, 204)" stroke-width="1px"></line><line x1="40" y1="78.66311111111114" x2="35" y2="78.66311111111114" style="visibility: inherit;" fill="rgb(0, 0, 0)" stroke="rgb(204, 204, 204)" stroke-width="1px"></line><line x1="40" y1="58.99733333333334" x2="35" y2="58.99733333333334" style="visibility: inherit;" fill="rgb(0, 0, 0)" stroke="rgb(204, 204, 204)" stroke-width="1px"></line><line x1="40" y1="39.33155555555559" x2="35" y2="39.33155555555559" style="visibility: inherit;" fill="rgb(0, 0, 0)" stroke="rgb(204, 204, 204)" stroke-width="1px"></line><line x1="40" y1="19.665777777777784" x2="35" y2="19.665777777777784" style="visibility: inherit;" fill="rgb(0, 0, 0)" stroke="rgb(204, 204, 204)" stroke-width="1px"></line><line x1="40" y1="0" x2="35" y2="0" style="visibility: inherit;" fill="rgb(0, 0, 0)" stroke="rgb(204, 204, 204)" stroke-width="1px"></line></g><g transform="translate(30, 0)"><text x="0" y="176.992" dx="0em" dy="0.3em" style="text-anchor: end; visibility: hidden; font-family: Roboto, sans-serif; font-size: 12px; font-weight: 200;" fill="rgb(33, 33, 33)" stroke="none" stroke-width="1px">0.2</text><text x="0" y="157.3262222222222" dx="0em" dy="0.3em" style="text-anchor: end; visibility: inherit; font-family: Roboto, sans-serif; font-size: 12px; font-weight: 200;" fill="rgb(33, 33, 33)" stroke="none" stroke-width="1px">0.3</text><text x="0" y="137.66044444444444" dx="0em" dy="0.3em" style="text-anchor: end; visibility: hidden; font-family: Roboto, sans-serif; font-size: 12px; font-weight: 200;" fill="rgb(33, 33, 33)" stroke="none" stroke-width="1px">0.4</text><text x="0" y="117.99466666666667" dx="0em" dy="0.3em" style="text-anchor: end; visibility: inherit; font-family: Roboto, sans-serif; font-size: 12px; font-weight: 200;" fill="rgb(33, 33, 33)" stroke="none" stroke-width="1px">0.5</text><text x="0" y="98.32888888888888" dx="0em" dy="0.3em" style="text-anchor: end; visibility: hidden; font-family: Roboto, sans-serif; font-size: 12px; font-weight: 200;" fill="rgb(33, 33, 33)" stroke="none" stroke-width="1px">0.6</text><text x="0" y="78.66311111111114" dx="0em" dy="0.3em" style="text-anchor: end; visibility: inherit; font-family: Roboto, sans-serif; font-size: 12px; font-weight: 200;" fill="rgb(33, 33, 33)" stroke="none" stroke-width="1px">0.7</text><text x="0" y="58.99733333333334" dx="0em" dy="0.3em" style="text-anchor: end; visibility: hidden; font-family: Roboto, sans-serif; font-size: 12px; font-weight: 200;" fill="rgb(33, 33, 33)" stroke="none" stroke-width="1px">0.8</text><text x="0" y="39.33155555555559" dx="0em" dy="0.3em" style="text-anchor: end; visibility: inherit; font-family: Roboto, sans-serif; font-size: 12px; font-weight: 200;" fill="rgb(33, 33, 33)" stroke="none" stroke-width="1px">0.9</text><text x="0" y="19.665777777777784" dx="0em" dy="0.3em" style="text-anchor: end; visibility: hidden; font-family: Roboto, sans-serif; font-size: 12px; font-weight: 200;" fill="rgb(33, 33, 33)" stroke="none" stroke-width="1px">1</text><text x="0" y="0" dx="0em" dy="0.3em" style="text-anchor: end; visibility: hidden; font-family: Roboto, sans-serif; font-size: 12px; font-weight: 200;" fill="rgb(33, 33, 33)" stroke="none" stroke-width="1px">1.1</text></g><line x1="40" y1="0" x2="40" y2="176.992" fill="rgb(0, 0, 0)" stroke="rgb(204, 204, 204)" stroke-width="1px"></line></g></g><g transform="translate(40, 0)" clip-path="url(#clip_0)"><clipPath id="clip_0"><rect width="289" height="176"></rect></clipPath><g><g><g><line x1="0" y1="0" x2="0" y2="176.992" fill="rgb(0, 0, 0)" stroke="rgb(66, 66, 66)" stroke-width="1px" opacity="0.25"></line><line x1="24.166666666666664" y1="0" x2="24.166666666666664" y2="176.992" fill="rgb(0, 0, 0)" stroke="rgb(66, 66, 66)" stroke-width="1px" opacity="0.25"></line><line x1="48.33333333333333" y1="0" x2="48.33333333333333" y2="176.992" fill="rgb(0, 0, 0)" stroke="rgb(66, 66, 66)" stroke-width="1px" opacity="0.25"></line><line x1="72.5" y1="0" x2="72.5" y2="176.992" fill="rgb(0, 0, 0)" stroke="rgb(66, 66, 66)" stroke-width="1px" opacity="0.25"></line><line x1="96.66666666666666" y1="0" x2="96.66666666666666" y2="176.992" fill="rgb(0, 0, 0)" stroke="rgb(66, 66, 66)" stroke-width="1px" opacity="0.25"></line><line x1="120.83333333333334" y1="0" x2="120.83333333333334" y2="176.992" fill="rgb(0, 0, 0)" stroke="rgb(66, 66, 66)" stroke-width="1px" opacity="0.25"></line><line x1="145" y1="0" x2="145" y2="176.992" fill="rgb(0, 0, 0)" stroke="rgb(66, 66, 66)" stroke-width="1px" opacity="0.25"></line><line x1="169.16666666666669" y1="0" x2="169.16666666666669" y2="176.992" fill="rgb(0, 0, 0)" stroke="rgb(66, 66, 66)" stroke-width="1px" opacity="0.25"></line><line x1="193.33333333333331" y1="0" x2="193.33333333333331" y2="176.992" fill="rgb(0, 0, 0)" stroke="rgb(66, 66, 66)" stroke-width="1px" opacity="0.25"></line><line x1="217.5" y1="0" x2="217.5" y2="176.992" fill="rgb(0, 0, 0)" stroke="rgb(66, 66, 66)" stroke-width="1px" opacity="0.25"></line><line x1="241.66666666666669" y1="0" x2="241.66666666666669" y2="176.992" fill="rgb(0, 0, 0)" stroke="rgb(66, 66, 66)" stroke-width="1px" opacity="0.25"></line><line x1="265.8333333333333" y1="0" x2="265.8333333333333" y2="176.992" fill="rgb(0, 0, 0)" stroke="rgb(66, 66, 66)" stroke-width="1px" opacity="0.25"></line><line x1="290" y1="0" x2="290" y2="176.992" fill="rgb(0, 0, 0)" stroke="rgb(66, 66, 66)" stroke-width="1px" opacity="0.25"></line></g><g><line x1="0" y1="176.992" x2="290" y2="176.992" fill="rgb(0, 0, 0)" stroke="rgb(66, 66, 66)" stroke-width="1px" opacity="0.25"></line><line x1="0" y1="157.3262222222222" x2="290" y2="157.3262222222222" fill="rgb(0, 0, 0)" stroke="rgb(66, 66, 66)" stroke-width="1px" opacity="0.25"></line><line x1="0" y1="137.66044444444444" x2="290" y2="137.66044444444444" fill="rgb(0, 0, 0)" stroke="rgb(66, 66, 66)" stroke-width="1px" opacity="0.25"></line><line x1="0" y1="117.99466666666667" x2="290" y2="117.99466666666667" fill="rgb(0, 0, 0)" stroke="rgb(66, 66, 66)" stroke-width="1px" opacity="0.25"></line><line x1="0" y1="98.32888888888888" x2="290" y2="98.32888888888888" fill="rgb(0, 0, 0)" stroke="rgb(66, 66, 66)" stroke-width="1px" opacity="0.25"></line><line x1="0" y1="78.66311111111114" x2="290" y2="78.66311111111114" fill="rgb(0, 0, 0)" stroke="rgb(66, 66, 66)" stroke-width="1px" opacity="0.25"></line><line x1="0" y1="58.99733333333334" x2="290" y2="58.99733333333334" fill="rgb(0, 0, 0)" stroke="rgb(66, 66, 66)" stroke-width="1px" opacity="0.25"></line><line x1="0" y1="39.33155555555559" x2="290" y2="39.33155555555559" fill="rgb(0, 0, 0)" stroke="rgb(66, 66, 66)" stroke-width="1px" opacity="0.25"></line><line x1="0" y1="19.665777777777784" x2="290" y2="19.665777777777784" fill="rgb(0, 0, 0)" stroke="rgb(66, 66, 66)" stroke-width="1px" opacity="0.25"></line><line x1="0" y1="0" x2="290" y2="0" fill="rgb(0, 0, 0)" stroke="rgb(66, 66, 66)" stroke-width="1px" opacity="0.25"></line></g></g></g><g><g><line x1="0" y1="216.32355555555557" x2="290" y2="216.32355555555557" fill="rgb(0, 0, 0)" stroke="rgb(153, 153, 153)" stroke-width="1.5px"></line></g></g><g><g><line x1="24.166666666666664" y1="0" x2="24.166666666666664" y2="176.992" fill="rgb(0, 0, 0)" stroke="rgb(153, 153, 153)" stroke-width="1.5px"></line></g></g><g><g><g><g><g><path stroke="rgb(51, 187, 238)" stroke-width="2px" d="M24.166666666666664,159.37888006973265L25.375,154.8266157455709L26.583333333333332,153.4330654422561L27.791666666666668,149.7753066467709L29,149.34557729685565L30.208333333333336,149.9436337014642L31.416666666666668,147.5592265453326L32.625,149.40463455583887L33.833333333333336,147.2811756245452L35.041666666666664,147.35323167646925L36.25,148.72530123759296L37.458333333333336,148.4836044559673L38.666666666666664,151.78659171868685L39.875,150.84988928356736L41.083333333333336,153.20315515492658L42.29166666666667,153.819606774547L43.5,150.48071182266258L44.708333333333336,154.04034063723878L45.916666666666664,152.73250909209162L47.125,150.62351895358438L48.33333333333333,148.56357910466397L49.541666666666664,146.79791868749507L50.75,146.26825995093404L51.958333333333336,145.4207464193381L53.166666666666664,147.56083833968322L54.375,150.43404767879395L55.583333333333336,151.3633916472266L56.791666666666664,150.06698402691597L58,155.11603810178664L59.208333333333336,155.4968788314286L60.41666666666667,150.95792116141L61.625,147.1751122913641L62.833333333333336,147.81887646860199L64.04166666666667,147.9402757193359L65.25,146.15910298159918L66.45833333333333,142.17695016103966L67.66666666666667,140.31737695496145L68.875,146.08796596821807L70.08333333333333,145.8422925016956L71.29166666666666,148.60833759349052L72.5,146.55994013506867L73.70833333333333,147.44977314451194L74.91666666666667,145.0702237815991L76.125,149.2045332718357L77.33333333333333,151.15540050877198L78.54166666666666,151.001624708991L79.75,151.7039369141965L80.95833333333333,152.91990192235906L82.16666666666667,153.9143401555888L83.375,153.18670695377693L84.58333333333334,149.57181863686858L85.79166666666667,150.8460532709005L87,153.19974707705313L88.20833333333333,151.69851653761893L89.41666666666667,153.18150892473224L90.625,150.3632775044965L91.83333333333333,148.6723386523557L93.04166666666667,145.53890385864594L94.25,145.7777144648458L95.45833333333333,153.07219296088007L96.66666666666666,149.2382533571452L97.875,147.7324649355992L99.08333333333333,146.82899188267163L100.29166666666667,149.20035721837863L101.5,150.09345796311064L102.70833333333334,152.48333066402904L103.91666666666667,149.41465209138346L105.125,150.48689411525964L106.33333333333333,154.30854772539493L107.54166666666667,149.71520698750814L108.75,149.8726493678962L109.95833333333333,147.0536679730089L111.16666666666667,148.54058518754272L112.375,151.02189088633952L113.58333333333333,146.1540575139984L114.79166666666666,142.96850060659105L116,146.6192032243842L117.20833333333333,146.4258940842887L118.41666666666667,150.81251079342803L119.625,148.94187862571502L120.83333333333334,144.641193273621L122.04166666666667,141.00134514898025L123.25,140.14173007158283L124.45833333333333,134.32878349125295L125.66666666666667,132.4301685687881L126.875,137.91247329093105L128.08333333333334,135.904676245982L129.29166666666669,134.43514113500984L130.5,130.90483012930912L131.70833333333334,119.25172068280331L132.91666666666666,111.2004181015155L134.125,109.81280183255505L135.33333333333334,113.21797738037274L136.54166666666666,104.93158452528309L137.75,98.6354526704989L138.95833333333334,98.30093883744067L140.16666666666666,104.98656578591711L141.375,96.28471306045137L142.58333333333331,84.97184386189882L143.79166666666666,73.94637937791676L145,77.92545575531042L146.20833333333334,77.66431398697263L147.41666666666666,78.83192506770034L148.625,81.38650162587275L149.83333333333334,76.03291700115163L151.04166666666669,62.491265698195335L152.25,53.30683800303722L153.45833333333334,48.85561829932669L154.66666666666666,48.03890107552293L155.875,50.99203602105296L157.08333333333331,48.26131479517439L158.29166666666666,42.64999832314277L159.5,42.99123294808216L160.70833333333334,41.87167758131541L161.91666666666666,34.3136138016308L163.125,30.57335321885823L164.33333333333334,28.32919686919471L165.54166666666666,25.128688460974054L166.75,23.20838341604163L167.95833333333334,22.05620038908219L169.16666666666669,21.894609029598683L170.375,22.857091127292893L171.58333333333334,25.023731067299135L172.79166666666666,22.880549751490626L174,21.594640962005485L175.20833333333331,21.61767337335267L176.41666666666666,20.836915135122748L177.625,20.368460192184774L178.83333333333334,20.087387226422L180.04166666666666,20.448461903656483L181.25,20.13538825330503L182.45833333333334,19.94754406309415L183.66666666666666,19.834837548967617L184.875,19.767213640491693L186.08333333333334,20.256357752098303L187.29166666666669,20.020125762370085L188.5,20.67296425357142L189.70833333333334,20.270089663253962L190.91666666666666,20.028364909063498L192.125,20.148189284895306L193.33333333333331,20.220083910394386L194.54166666666666,19.99836145734776L195.75,19.865327985519762L196.95833333333334,19.78550790242299L198.16666666666666,19.73761585256489L199.375,19.708880622650053L200.58333333333334,19.691639484701128L201.79166666666666,19.681294801931784L203,19.939947220616297L204.20833333333334,20.095138671826998L205.41666666666669,19.923394314207314L206.625,19.820347699635477L207.83333333333334,19.75851973089241L209.04166666666666,19.721422949646556L210.25,19.699164880899065L211.45833333333331,19.685810039650555L212.66666666666666,19.677797134901475L213.875,19.672989392052L215.08333333333334,19.67010474634234L216.29166666666666,19.668373958916543L217.5,19.667335486461024L218.70833333333334,19.66671240298775L219.91666666666666,19.66633855290378L221.125,19.666114242853382L222.33333333333334,19.665979656823122L223.54166666666669,19.665898905205015L224.75,19.665850454234143L225.95833333333334,19.66582138365162L227.16666666666666,19.665803941302112L228.375,19.930652704238465L229.58333333333331,19.824702733654195L230.79166666666666,20.290851207995768L232,21.36511797763899L233.20833333333334,20.95024112604062L234.41666666666666,20.96617424342766L235.625,20.975734113859854L236.83333333333334,20.981470036119205L238.04166666666666,20.72005236112874L239.25,20.298342527788332L240.45833333333334,20.04531662778412L241.66666666666669,19.893501087781594L242.875,19.802411763780068L244.08333333333334,19.747758169379154L245.29166666666666,20.244684469430787L246.5,20.01312179276958L247.70833333333331,19.874184186772865L248.91666666666666,20.05568085152094L250.125,19.899719622023664L251.33333333333334,19.806142884325315L252.54166666666666,19.749996841706288L253.75,19.7163092161349L254.95833333333334,19.960955869138157L256.1666666666667,19.842884632594004L257.375,19.772041890667516L258.58333333333337,19.729536245511643L259.7916666666667,19.968892086764182L261,19.847646363169655L262.2083333333333,20.03975815735898L263.4166666666667,19.89016600552651L264.625,19.800410714427017" style="fill: none;" fill="none"></path></g><g><path stroke="rgb(204, 51, 17)" stroke-width="2px" d="M24.166666666666664,136.8658691037496L25.375,148.03960681049028L26.583333333333332,148.41966591616173L27.791666666666668,146.4572671318732L29,145.74351240448854L30.208333333333336,152.29804544936624L31.416666666666668,152.21459402423474L32.625,153.51296303026515L33.833333333333336,151.8698876958221L35.041666666666664,147.96353149928854L36.25,147.7614764561756L37.458333333333336,150.82595557989086L38.666666666666664,151.86475140449727L39.875,150.36662668448085L41.083333333333336,146.81866770923148L42.29166666666667,144.1610923332034L43.5,142.83193108455694L44.708333333333336,144.68343729597515L45.916666666666664,150.03222188218447L47.125,145.03035712305604L48.33333333333333,143.88340823719764L49.541666666666664,143.98984080782216L50.75,147.4968942697301L51.958333333333336,146.42278516526554L53.166666666666664,143.92430543479637L54.375,143.74952054334398L55.583333333333336,144.17436645379814L56.791666666666664,145.48871128576081L58,145.74759901650356L59.208333333333336,141.9300469790947L60.41666666666667,141.75838806026624L61.625,140.86081497526573L62.833333333333336,138.2033995863781L64.04166666666667,138.9926812133276L65.25,133.37449485137307L66.45833333333333,132.1224546002922L67.66666666666667,130.57665276795302L68.875,129.3843124453425L70.08333333333333,127.87433291214462L71.29166666666666,124.84947370912126L72.5,123.82913353122721L73.70833333333333,125.60066013693299L74.91666666666667,122.42583547808013L76.125,119.19664454139527L77.33333333333333,115.93483383787431L78.54166666666666,110.7994413643143L79.75,110.63165270361243L80.95833333333333,108.41211036906587L82.16666666666667,101.78320509006359L83.375,98.0707211510676L84.58333333333334,95.3135123309945L85.79166666666667,95.24833772035352L87,93.62008227257655L88.20833333333333,92.1134105472195L89.41666666666667,90.67968905531376L90.625,86.90600933704965L91.83333333333333,83.58236459270756L93.04166666666667,85.29620225426166L94.25,80.49760651626646L95.45833333333333,80.53190058527665L96.66666666666666,80.28761779833668L97.875,78.5518927560962L99.08333333333333,76.71588004571363L100.29166666666667,71.37652945463356L101.5,66.84862764694188L102.70833333333334,56.98069208566944L103.91666666666667,56.88682908383306L105.125,51.26847217615025L106.33333333333333,48.16231725988669L107.54166666666667,44.97432816839811L108.75,49.94786996181633L109.95833333333333,50.8131212110986L111.16666666666667,46.29995131077916L112.375,44.386627055625745L113.58333333333333,43.2386325025337L114.79166666666666,43.07955422737064L116,39.01122352576838L117.20833333333333,38.68909424288889L118.41666666666667,36.64180676342537L119.625,36.47287118913162L120.83333333333334,33.987776789440616L122.04166666666667,31.967001692933874L123.25,31.01939586337588L124.45833333333333,27.802244770867066L125.66666666666667,26.66653180040002L126.875,24.66080787638935L128.08333333333334,24.251951207021236L129.29166666666669,24.27149643374643L130.5,23.753505113089393L131.70833333333334,24.237288005733408L132.91666666666666,23.997839284627677L134.125,24.119029280310286L135.33333333333334,23.66202482102769L136.54166666666666,23.65268137380422L137.75,24.441648301821594L138.95833333333334,22.796159320550146L140.16666666666666,23.662880530209897L141.375,22.858617114275273L142.58333333333331,22.11119983636845L143.79166666666666,22.722186383008687L145,24.148210535690346L146.20833333333334,24.474111259294002L147.41666666666666,24.139933236764044L148.625,24.469144879938163L149.83333333333334,22.54779803907404L151.04166666666669,21.659849162901637L152.25,21.656798293890326L153.45833333333334,21.125249315791383L154.66666666666666,20.54146070058598L155.875,20.191187531462713L157.08333333333331,19.981023629988755L158.29166666666666,20.11978451745045L159.5,20.73275950661961L160.70833333333334,20.57082604342899L161.91666666666666,20.473665965514584L163.125,20.680229147112016L164.33333333333334,20.804167056070504L165.54166666666666,21.673107486483847L166.75,23.25390396942938L167.95833333333334,23.672668091191316L169.16666666666669,22.864489650864172L170.375,23.174160271706114L171.58333333333334,24.154535640562738L172.79166666666666,23.153610180486996L174,22.55305490444157L175.20833333333331,22.192721738814306L176.41666666666666,21.711662611091846L177.625,21.95274559115056L178.83333333333334,21.832536150839704L180.04166666666666,21.230692029961034L181.25,20.869585557433822L182.45833333333334,20.38806244557144L183.66666666666666,20.099148578453963L184.875,21.514955628259994L186.08333333333334,23.15901285449507L187.29166666666669,25.99946178865869L188.5,25.320002782728885L189.70833333333334,25.177186607517108L190.91666666666666,24.032059989005717L192.125,23.609843246244992L193.33333333333331,22.561935515550257L194.54166666666666,22.72776856217168L195.75,21.767831476760225L196.95833333333334,21.191869225513358L198.16666666666666,20.581432646419113L199.375,20.480029927308664L200.58333333333334,20.154329067496317L201.79166666666666,19.958908551608932L203,19.841656242076482L204.20833333333334,19.771304856356995L205.41666666666669,19.729094024925338L206.625,19.703767526066322L207.83333333333334,19.68857162675093L209.04166666666666,19.6794540871617L210.25,19.673983563408118L211.45833333333331,19.67070124915598L212.66666666666666,19.933591088950813L213.875,19.826465764481615L215.08333333333334,19.762190569800115L216.29166666666666,19.723625452991207L217.5,19.9653456112519L218.70833333333334,19.845518477862285L219.91666666666666,20.30334065452066L221.125,20.57803396051567L222.33333333333334,21.00770917245875L223.54166666666669,23.649242666052594L224.75,23.909871309165247L225.95833333333334,22.212233896610297L227.16666666666666,22.782806819153773L228.375,22.065713659295536L229.58333333333331,21.10573930668847L230.79166666666666,20.529754695124208L232,20.7138823848778L233.20833333333334,20.559499770383894L234.41666666666666,20.202010973341455L235.625,19.98751769511599L236.83333333333334,19.85882172818072L238.04166666666666,19.78160414801956L239.25,19.73527359992285L240.45833333333334,19.70747527106482L241.66666666666669,19.690796273750028L242.875,19.94564810370718L244.08333333333334,20.628277658373694L245.29166666666666,21.567573847865766L246.5,22.396010789907063L247.70833333333331,21.568776813401453L248.91666666666666,23.72102402227208L250.125,22.893503209512613L251.33333333333334,22.661849950203024L252.54166666666666,23.847149447660875L253.75,24.29347460647628L254.95833333333334,24.56126970176555L256.1666666666667,27.105675125367075L257.375,24.92429387136958L258.58333333333337,24.674902032355455L259.7916666666667,23.46583001556264L261,21.945809120448725L262.2083333333333,21.56351504007253L263.4166666666667,21.334138591846777L264.625,21.196512722911358" style="fill: none;" fill="none"></path></g><g><path stroke="rgb(0, 119, 187)" stroke-width="2px" d="M24.166666666666664,158.05458392800224L25.375,155.98537486958503L26.583333333333332,151.97364003139936L27.791666666666668,149.2908690492055L29,146.48653474640903L30.208333333333336,153.84059622202395L31.416666666666668,149.03505238518866L32.625,149.2025124078358L33.833333333333336,147.42828097262986L35.041666666666664,153.56995073735075L36.25,152.9779254525359L37.458333333333336,155.54389285192434L38.666666666666664,158.67112514719332L39.875,154.1832488078874L41.083333333333336,150.96280723111755L42.29166666666667,151.41591502578896L43.5,155.13144841574206L44.708333333333336,152.85730637906718L45.916666666666664,145.66571555731056L47.125,147.4430194908254L48.33333333333333,147.97963252919152L49.541666666666664,148.30159281825362L50.75,150.6136544954698L51.958333333333336,147.2333958042523L53.166666666666664,149.44300585331203L54.375,150.239048501974L55.583333333333336,148.86265907046737L56.791666666666664,148.30168570414028L58,150.34883349389085L59.208333333333336,150.51768453740044L60.41666666666667,147.70554793004354L61.625,149.4614317582005L62.833333333333336,146.54207803944053L64.04166666666667,148.7633497477359L65.25,149.03667814472888L66.45833333333333,146.2872259824034L67.66666666666667,145.1672731631283L68.875,145.0250175903148L70.08333333333333,147.05853573411068L71.29166666666666,150.66237733144652L72.5,148.58693931851542L73.70833333333333,146.5471011707449L74.91666666666667,147.44206976574787L76.125,148.7736262634168L77.33333333333333,149.3077009334969L78.54166666666666,148.03899270967722L79.75,149.1317800295846L80.95833333333333,146.07942791326124L82.16666666666667,149.015478065118L83.375,146.0096467346255L84.58333333333334,143.9412887079982L85.79166666666667,141.9056962069877L87,142.0086368481179L88.20833333333333,140.7461050910641L89.41666666666667,140.25344526517893L90.625,139.16327402895286L91.83333333333333,139.0388873995664L93.04166666666667,140.023692335319L94.25,140.34971606842436L95.45833333333333,136.0427281150907L96.66666666666666,134.25311302812898L97.875,134.76849700168506L99.08333333333333,129.78054750758378L100.29166666666667,128.90664929354833L101.5,129.7066065068575L102.70833333333334,125.68397864164638L103.91666666666667,123.00554269417361L105.125,125.37136486219441L106.33333333333333,120.96396217242325L107.54166666666667,113.28719990867178L108.75,110.80001168850275L109.95833333333333,109.30769875640136L111.16666666666667,108.67717022548658L112.375,107.5042801105863L113.58333333333333,107.3302598096515L114.79166666666666,100.60437629781211L116,94.71483159228592L117.20833333333333,95.41884773382071L118.41666666666667,95.5763981903955L119.625,96.20064692103256L120.83333333333334,91.2780162811799L122.04166666666667,86.47042798753255L123.25,87.55875874784859L124.45833333333333,85.82802883761025L125.66666666666667,83.73015397808291L126.875,79.55797755055961L128.08333333333334,78.9086862924682L129.29166666666669,80.63798536438203L130.5,80.88098712249207L131.70833333333334,77.84847743720512L132.91666666666666,77.88298622445548L134.125,74.19566698864736L135.33333333333334,66.68609556892764L136.54166666666666,66.68295491029241L137.75,62.44332755026072L138.95833333333334,60.69412881927996L140.16666666666666,60.43918726572976L141.375,60.286222333599625L142.58333333333331,59.66472491762942L143.79166666666666,56.643234184586476L145,53.77090283137632L146.20833333333334,51.517790251444886L147.41666666666666,47.78218964837131L148.625,47.6597031132958L149.83333333333334,47.32135196390439L151.04166666666669,43.1454575377651L152.25,39.84534319704331L153.45833333333334,36.2761192225337L154.66666666666666,32.545429467751426L155.875,32.16103021330468L157.08333333333331,29.016943837516518L158.29166666666666,26.60077355535145L159.5,26.21050361074996L160.70833333333334,25.976341643989034L161.91666666666666,25.57098992427319L163.125,23.473764294021123L164.33333333333334,22.21542891586989L165.54166666666666,21.725286917325203L166.75,21.166342489852322L167.95833333333334,21.095835061714673L169.16666666666669,20.52381214813994L170.375,20.445457628341167L171.58333333333334,20.133585688115826L172.79166666666666,20.21132175232666L174,20.257963390853217L175.20833333333331,20.02108914562305L176.41666666666666,19.87896459848496L177.625,19.79368987020209L178.83333333333334,19.742525033232344L180.04166666666666,19.71182613105055L181.25,19.69340678974143L182.45833333333334,19.682355184956005L183.66666666666666,19.67572422208474L184.875,21.79061947113059L186.08333333333334,22.26497893551987L187.29166666666669,22.814453842499535L188.5,22.614420329995177L189.70833333333334,21.699822537454295L190.91666666666666,21.415923090275854L192.125,21.24558342196881L193.33333333333331,20.61366116429243L194.54166666666666,20.234507809686566L195.75,20.007015796923053L196.95833333333334,20.135379817611007L198.16666666666666,20.212398230023823L199.375,19.993750049125392L200.58333333333334,19.86256114058635L201.79166666666666,19.783847795462947L203,19.7366197883889L204.20833333333334,19.708282984144454L205.41666666666669,19.69128090159781L206.625,19.681079652069776L207.83333333333334,19.674958902352987L209.04166666666666,19.671286452522903L210.25,19.669082982624865L211.45833333333331,19.667760900686044L212.66666666666666,19.931826879868833L213.875,19.825407239032405L215.08333333333334,19.76155545453057L216.29166666666666,19.988103612175568L217.5,19.859173278416456L218.70833333333334,19.78181507816101L219.91666666666666,19.735400158007725L221.125,19.707551205915752L222.33333333333334,19.690841834660574L223.54166666666669,19.680816211907434L224.75,19.67480083825558L225.95833333333334,19.671191614064487L227.16666666666666,20.198744536241954L228.375,20.250417061202402L229.58333333333331,21.87057594625514L230.79166666666666,23.107530505632855L232,21.9956886428369L233.20833333333334,22.123161210197594L234.41666666666666,23.788795432003727L235.625,25.053035193433438L236.83333333333334,24.752146825593744L238.04166666666666,24.306754576543874L239.25,23.774659998767834L240.45833333333334,22.131107110371836L241.66666666666669,21.409834605680288L242.875,20.977071102865377L244.08333333333334,20.452553772830353L245.29166666666666,20.13784337480933L246.5,19.949017135996716L247.70833333333331,19.835721392709175L248.91666666666666,19.76774394673663L250.125,19.726957479153125L251.33333333333334,19.702485598602994L252.54166666666666,19.687802470272914L253.75,19.67899259327486L254.95833333333334,19.67370666707605L256.1666666666667,19.670535111356763L257.375,19.93349140627124L258.58333333333337,19.826405954873888L259.7916666666667,19.76215468403545L261,19.723603921532355L262.2083333333333,19.700473464030555L263.4166666666667,19.686595189529427L264.625,19.678268224828777" style="fill: none;" fill="none"></path></g><g><path stroke="rgb(255, 112, 67)" stroke-width="2px" d="M24.166666666666664,150.77096100934347L25.375,150.3571184650527L26.583333333333332,148.2034510717327L27.791666666666668,147.861895669225L29,145.67734510167338L30.208333333333336,145.86975634985748L31.416666666666668,146.52426651193812L32.625,145.5581269368981L33.833333333333336,150.87515232719355L35.041666666666664,150.56675179160106L36.25,150.38290927511446L37.458333333333336,148.41497472120543L38.666666666666664,149.35860167875643L39.875,149.6589215257829L41.083333333333336,148.51404599018798L42.29166666666667,145.9729298412435L43.5,145.24342888922428L44.708333333333336,144.54092356774183L45.916666666666664,148.35746725091954L47.125,147.46882000985883L48.33333333333333,148.52484034717264L49.541666666666664,147.30440106598593L50.75,146.30728645804217L51.958333333333336,146.50360418305783L53.166666666666664,145.2970966603163L54.375,147.7515058150468L55.583333333333336,141.2783730229136L56.791666666666664,141.89710254597756L58,144.12235295384497L59.208333333333336,142.01433428847372L60.41666666666667,140.21980720489626L61.625,139.1430911070915L62.833333333333336,136.11333067865246L64.04166666666667,134.82519064170808L65.25,137.49547432650792L66.45833333333333,137.243632234807L67.66666666666667,134.17907779595504L68.875,139.49153730364958L70.08333333333333,138.44127002134968L71.29166666666666,141.51913416658235L72.5,138.59839122572234L73.70833333333333,132.07848403886862L74.91666666666667,132.13942581075943L76.125,132.17599087388265L77.33333333333333,135.37623596354908L78.54166666666666,137.03152378877346L79.75,135.90582500133746L80.95833333333333,130.72780353560512L82.16666666666667,120.73466009652277L83.375,120.56567002379025L84.58333333333334,124.96687817337008L85.79166666666667,117.54296410764086L87,122.62353616697578L88.20833333333333,120.10984264032771L89.41666666666667,119.13134498103302L90.625,117.48480947207189L91.83333333333333,118.3509004207752L93.04166666666667,120.72456724407651L94.25,119.23532051493672L95.45833333333333,115.95803942233806L96.66666666666666,111.34308317200485L97.875,109.63354164650258L99.08333333333333,105.95922913642721L100.29166666666667,110.37611765034727L101.5,110.11279924689241L102.70833333333334,108.10079829508366L103.91666666666667,110.60162223215686L105.125,108.92381054293449L106.33333333333333,105.53339047428635L107.54166666666667,106.41258525621758L108.75,105.35095144398663L109.95833333333333,105.24368961334022L111.16666666666667,100.94158955010185L112.375,99.41976173685639L113.58333333333333,93.20948517067423L114.79166666666666,95.04535833754585L116,87.93625553631385L117.20833333333333,88.17339604877128L118.41666666666667,86.46166575782316L119.625,87.28864218167685L120.83333333333334,85.93081343756648L122.04166666666667,81.40809168294193L123.25,77.63502171678286L124.45833333333333,80.1386411586301L125.66666666666667,80.84623982738701L126.875,77.82762906014206L128.08333333333334,77.6056179698716L129.29166666666669,75.88325594563283L130.5,73.790406506392L131.70833333333334,73.85898829589114L132.91666666666666,70.98669054647053L134.125,68.73359344012596L135.33333333333334,70.82490045613152L136.54166666666666,66.25279101949461L137.75,65.8932537239404L138.95833333333334,66.20724980330009L140.16666666666666,68.77937581734382L141.375,70.58751065411616L142.58333333333331,64.78606099655497L143.79166666666666,64.74835648183054L145,64.4608745446498L146.20833333333334,60.31550164583693L147.41666666666666,63.65517624147623L148.625,64.33468485712939L149.83333333333334,62.888375428098705L151.04166666666669,60.96115754598276L152.25,59.80482681671321L153.45833333333334,60.170460603849L154.66666666666666,57.74125328135645L155.875,56.54858811620698L157.08333333333331,57.68700361553991L158.29166666666666,58.89976668314501L159.5,60.422002208746335L160.70833333333334,58.15703747264091L161.91666666666666,56.53319940263158L163.125,57.412911159048576L164.33333333333334,52.908417563010005L165.54166666666666,54.44346437023737L166.75,51.12674948972328L167.95833333333334,48.871861333068736L169.16666666666669,43.54604470257157L170.375,41.67484617731686L171.58333333333334,38.698117152428274L172.79166666666666,35.322924367418636L174,33.297808696412815L175.20833333333331,32.61245775050152L176.41666666666666,31.40666949791646L177.625,29.888618861327178L178.83333333333334,28.183210794335377L180.04166666666666,27.42482518248636L181.25,28.55894918545348L182.45833333333334,28.974564358887648L183.66666666666666,28.164496549563797L184.875,27.678455863969518L186.08333333333334,26.592258456261504L187.29166666666669,25.675680783290588L188.5,23.801438037777636L189.70833333333334,24.26604776054636L190.91666666666666,24.015095137515456L192.125,23.069945878658604L193.33333333333331,23.29743400838279L194.54166666666666,23.16906765787118L195.75,23.09204784756425L196.95833333333334,22.251258276341822L198.16666666666666,22.541362218646654L199.375,22.98028381237558L200.58333333333334,24.038209764964414L201.79166666666666,23.34867388347409L203,23.46467081127206L204.20833333333334,22.209972826220422L205.41666666666669,21.98687249188161L206.625,21.05843460624009L207.83333333333334,20.766231103201253L209.04166666666666,20.85576822972404L210.25,20.379772048945565L211.45833333333331,20.094174340478435L212.66666666666666,19.922815715398183L213.875,20.614578225388268L215.08333333333334,20.764776503036234L216.29166666666666,20.590036241278966L217.5,20.485192084224575L218.70833333333334,20.157426361645864L219.91666666666666,20.755344613136863L221.125,21.378954792377563L222.33333333333334,25.72600463642646L223.54166666666669,26.480219944433163L224.75,24.54902076280926L225.95833333333334,24.449738167219255L227.16666666666666,24.919882377870614L228.375,22.8182405378335L229.58333333333331,22.08697389050337L230.79166666666666,22.177932358797495L232,21.967648211427836L233.20833333333334,21.311759266313913L234.41666666666666,21.183085127591625L235.625,21.10588064435824L236.83333333333334,20.529839497726062L238.04166666666666,20.71393326643893L239.25,20.294671070974488L240.45833333333334,20.043113753695806L241.66666666666669,19.892179363328584L242.875,20.59619641414652L244.08333333333334,32.67239862580455L245.29166666666666,31.70749325144437L246.5,29.804253885097836L247.70833333333331,28.927169493636036L248.91666666666666,27.871200402066787L250.125,26.443045950773755L251.33333333333334,25.851012508344052L252.54166666666666,25.230933214540123L253.75,23.004871039835184L254.95833333333334,22.19895219170438L256.1666666666667,21.45054165447984L257.375,21.001495332145087L258.58333333333337,20.467208310398167L259.7916666666667,20.146636097350054L261,21.01372968290548L262.2083333333333,20.739408149200504L263.4166666666667,20.83967445732356L264.625,20.634975013851356" style="fill: none;" fill="none"></path></g></g></g></g><g opacity="0.2"><g><g><g><path stroke="rgb(51, 187, 238)" stroke-width="2px" d="M24.166666666666664,159.37888006973265L25.375,152.09525715107387L26.583333333333332,152.09525715107387L27.791666666666668,145.4737823032803L29,148.78452265760635L30.208333333333336,150.77096100934347L31.416666666666668,144.14948616154987L32.625,152.09525715107387L33.833333333333336,144.14948616154987L35.041666666666664,147.46022651587592L36.25,150.77096100934347L37.458333333333336,148.12237458674113L38.666666666666664,156.73028778627184L39.875,149.44667072847153L41.083333333333336,156.73028778627184L42.29166666666667,154.74384943453472L43.5,145.4737823032803L44.708333333333336,159.37888006973265L45.916666666666664,150.77096100934347L47.125,147.46022651587592L48.33333333333333,145.4737823032803L49.541666666666664,144.14948616154987L50.75,145.4737823032803L51.958333333333336,144.14948616154987L53.166666666666664,150.77096100934347L54.375,154.74384943453472L55.583333333333336,152.75740522193908L56.791666666666664,148.12237458674113L58,162.6896145632002L59.208333333333336,156.06813971540663L60.41666666666667,144.14948616154987L61.625,141.50089973894757L62.833333333333336,148.78452265760635L64.04166666666667,148.12237458674113L65.25,143.48734395154318L66.45833333333333,136.20372103288437L67.66666666666667,137.5280171746148L68.875,154.74384943453472L70.08333333333333,145.4737823032803L71.29166666666666,152.75740522193908L72.5,143.48734395154318L73.70833333333333,148.78452265760635L74.91666666666667,141.50089973894757L76.125,155.4059975053999L77.33333333333333,154.0817013636695L78.54166666666666,150.77096100934347L79.75,152.75740522193908L80.95833333333333,154.74384943453472L82.16666666666667,155.4059975053999L83.375,152.09525715107387L84.58333333333334,144.14948616154987L85.79166666666667,152.75740522193908L87,156.73028778627184L88.20833333333333,149.44667072847153L89.41666666666667,155.4059975053999L90.625,146.1359303741455L91.83333333333333,146.1359303741455L93.04166666666667,140.83875166808235L94.25,146.1359303741455L95.45833333333333,164.01391070493062L96.66666666666666,143.48734395154318L97.875,145.4737823032803L99.08333333333333,145.4737823032803L100.29166666666667,152.75740522193908L101.5,151.43310908020868L102.70833333333334,156.06813971540663L103.91666666666667,144.8116342324151L105.125,152.09525715107387L106.33333333333333,160.04102814059786L107.54166666666667,142.82519588067797L108.75,150.10881293847825L109.95833333333333,142.82519588067797L111.16666666666667,150.77096100934347L112.375,154.74384943453472L113.58333333333333,138.8523074554867L114.79166666666666,138.19016524548002L116,152.09525715107387L117.20833333333333,146.1359303741455L118.41666666666667,157.39243585713703L119.625,146.1359303741455L120.83333333333334,138.19016524548002L122.04166666666667,135.5415729620192L123.25,138.8523074554867L124.45833333333333,125.60936362075805L125.66666666666667,129.5822461850908L126.875,146.1359303741455L128.08333333333334,132.89298067855833L129.29166666666669,132.23083846855164L130.5,125.60936362075805L131.70833333333334,101.77205651304457L132.91666666666666,99.12346422958373L134.125,107.73137742911445L135.33333333333334,118.32574070209928L136.54166666666666,92.50199524264865L137.75,89.19125488832263L138.95833333333334,97.79916808785333L140.16666666666666,115.01500620863173L141.375,83.23193397225275L142.58333333333331,68.00254006406995L143.79166666666666,57.40818265194364L145,83.89407032140096L146.20833333333334,77.27260133446588L147.41666666666666,80.58334168879192L148.625,85.21836646313139L149.83333333333334,68.00254006406995L151.04166666666669,42.17878874376085L152.25,39.530196460300026L153.45833333333334,42.17878874376085L154.66666666666666,46.81382523981731L155.875,55.421738439348005L157.08333333333331,44.16523295635648L158.29166666666666,34.23302361509537L159.5,43.503084885491276L160.70833333333334,40.19234453116523L161.91666666666666,22.976518132103823L163.125,24.962962344699438L164.33333333333334,24.962962344699438L165.54166666666666,20.327925848642998L166.75,20.327925848642998L167.95833333333334,20.327925848642998L169.16666666666669,21.65222199037342L170.375,24.30081427383425L171.58333333333334,28.2736909773085L172.79166666666666,19.665777777777784L174,19.665777777777784L175.20833333333331,21.65222199037342L176.41666666666666,19.665777777777784L177.625,19.665777777777784L178.83333333333334,19.665777777777784L180.04166666666666,20.99007391950821L181.25,19.665777777777784L182.45833333333334,19.665777777777784L183.66666666666666,19.665777777777784L184.875,19.665777777777784L186.08333333333334,20.99007391950821L187.29166666666669,19.665777777777784L188.5,21.65222199037342L189.70833333333334,19.665777777777784L190.91666666666666,19.665777777777784L192.125,20.327925848642998L193.33333333333331,20.327925848642998L194.54166666666666,19.665777777777784L195.75,19.665777777777784L196.95833333333334,19.665777777777784L198.16666666666666,19.665777777777784L199.375,19.665777777777784L200.58333333333334,19.665777777777784L201.79166666666666,19.665777777777784L203,20.327925848642998L204.20833333333334,20.327925848642998L205.41666666666669,19.665777777777784L206.625,19.665777777777784L207.83333333333334,19.665777777777784L209.04166666666666,19.665777777777784L210.25,19.665777777777784L211.45833333333331,19.665777777777784L212.66666666666666,19.665777777777784L213.875,19.665777777777784L215.08333333333334,19.665777777777784L216.29166666666666,19.665777777777784L217.5,19.665777777777784L218.70833333333334,19.665777777777784L219.91666666666666,19.665777777777784L221.125,19.665777777777784L222.33333333333334,19.665777777777784L223.54166666666669,19.665777777777784L224.75,19.665777777777784L225.95833333333334,19.665777777777784L227.16666666666666,19.665777777777784L228.375,20.327925848642998L229.58333333333331,19.665777777777784L230.79166666666666,20.99007391950821L232,22.976518132103823L233.20833333333334,20.327925848642998L234.41666666666666,20.99007391950821L235.625,20.99007391950821L236.83333333333334,20.99007391950821L238.04166666666666,20.327925848642998L239.25,19.665777777777784L240.45833333333334,19.665777777777784L241.66666666666669,19.665777777777784L242.875,19.665777777777784L244.08333333333334,19.665777777777784L245.29166666666666,20.99007391950821L246.5,19.665777777777784L247.70833333333331,19.665777777777784L248.91666666666666,20.327925848642998L250.125,19.665777777777784L251.33333333333334,19.665777777777784L252.54166666666666,19.665777777777784L253.75,19.665777777777784L254.95833333333334,20.327925848642998L256.1666666666667,19.665777777777784L257.375,19.665777777777784L258.58333333333337,19.665777777777784L259.7916666666667,20.327925848642998L261,19.665777777777784L262.2083333333333,20.327925848642998L263.4166666666667,19.665777777777784L264.625,19.665777777777784" style="fill: none;" fill="none"></path></g><g><path stroke="rgb(204, 51, 17)" stroke-width="2px" d="M24.166666666666664,136.8658691037496L25.375,154.74384943453472L26.583333333333332,148.78452265760635L27.791666666666668,144.14948616154987L29,144.8116342324151L30.208333333333336,161.3653242823283L31.416666666666668,152.09525715107387L32.625,155.4059975053999L33.833333333333336,149.44667072847153L35.041666666666664,142.16304780981278L36.25,147.46022651587592L37.458333333333336,155.4059975053999L38.666666666666664,153.4195532928043L39.875,148.12237458674113L41.083333333333336,141.50089973894757L42.29166666666667,140.17660359721714L43.5,140.83875166808235L44.708333333333336,147.46022651587592L45.916666666666664,158.05458392800224L47.125,137.5280171746148L48.33333333333333,142.16304780981278L49.541666666666664,144.14948616154987L50.75,152.75740522193908L51.958333333333336,144.8116342324151L53.166666666666664,140.17660359721714L54.375,143.48734395154318L55.583333333333336,144.8116342324151L56.791666666666664,147.46022651587592L58,146.1359303741455L59.208333333333336,136.20372103288437L60.41666666666667,141.50089973894757L61.625,139.51445552635192L62.833333333333336,134.21727682028876L64.04166666666667,140.17660359721714L65.25,124.94721554989283L66.45833333333333,130.24439425595602L67.66666666666667,128.2579500433604L68.875,127.59580197249518L70.08333333333333,125.60936362075805L71.29166666666666,120.3121849146949L72.5,122.29862326643203L73.70833333333333,128.2579500433604L74.91666666666667,117.66359849209256L76.125,114.35285813776653L77.33333333333333,111.04211778344049L78.54166666666666,103.096352654775L79.75,110.3799697125753L80.95833333333333,105.0827968673706L82.16666666666667,91.83984717178346L83.375,92.50199524264865L84.58333333333334,91.17769910091825L85.79166666666667,95.1505758043925L87,91.17769910091825L88.20833333333333,89.85340295918785L89.41666666666667,88.52910681745742L90.625,81.24548975965713L91.83333333333333,78.59689747619629L93.04166666666667,87.86695874659222L94.25,73.29971290927463L95.45833333333333,80.58334168879192L96.66666666666666,79.9211936179267L97.875,75.94830519273546L99.08333333333333,73.96186098013985L100.29166666666667,63.36750356801351L101.5,60.05677493540447L102.70833333333334,42.17878874376085L103.91666666666667,56.74603458107843L105.125,42.84093681462606L106.33333333333333,43.503084885491276L107.54166666666667,40.19234453116523L108.75,57.40818265194364L109.95833333333333,52.11099808502197L111.16666666666667,39.530196460300026L112.375,41.51664067289566L113.58333333333333,41.51664067289566L114.79166666666666,42.84093681462606L116,32.90872747336494L117.20833333333333,38.20590031856962L118.41666666666667,33.570875544230155L119.625,36.219467827690984L120.83333333333334,30.260135189904116L122.04166666666667,28.93583904817371L123.25,29.597987119038905L124.45833333333333,22.976518132103823L125.66666666666667,24.962962344699438L126.875,21.65222199037342L128.08333333333334,23.638666202969034L129.29166666666669,24.30081427383425L130.5,22.976518132103823L131.70833333333334,24.962962344699438L132.91666666666666,23.638666202969034L134.125,24.30081427383425L135.33333333333334,22.976518132103823L136.54166666666666,23.638666202969034L137.75,25.625098693847676L138.95833333333334,20.327925848642998L140.16666666666666,24.962962344699438L141.375,21.65222199037342L142.58333333333331,20.99007391950821L143.79166666666666,23.638666202969034L145,26.287246764712865L146.20833333333334,24.962962344699438L147.41666666666666,23.638666202969034L148.625,24.962962344699438L149.83333333333334,19.665777777777784L151.04166666666669,20.327925848642998L152.25,21.65222199037342L153.45833333333334,20.327925848642998L154.66666666666666,19.665777777777784L155.875,19.665777777777784L157.08333333333331,19.665777777777784L158.29166666666666,20.327925848642998L159.5,21.65222199037342L160.70833333333334,20.327925848642998L161.91666666666666,20.327925848642998L163.125,20.99007391950821L164.33333333333334,20.99007391950821L165.54166666666666,22.976518132103823L166.75,25.625098693847676L167.95833333333334,24.30081427383425L169.16666666666669,21.65222199037342L170.375,23.638666202969034L171.58333333333334,25.625098693847676L172.79166666666666,21.65222199037342L174,21.65222199037342L175.20833333333331,21.65222199037342L176.41666666666666,20.99007391950821L177.625,22.314370061238613L178.83333333333334,21.65222199037342L180.04166666666666,20.327925848642998L181.25,20.327925848642998L182.45833333333334,19.665777777777784L183.66666666666666,19.665777777777784L184.875,23.638666202969034L186.08333333333334,25.625098693847676L187.29166666666669,30.260135189904116L188.5,24.30081427383425L189.70833333333334,24.962962344699438L190.91666666666666,22.314370061238613L192.125,22.976518132103823L193.33333333333331,20.99007391950821L194.54166666666666,22.976518132103823L195.75,20.327925848642998L196.95833333333334,20.327925848642998L198.16666666666666,19.665777777777784L199.375,20.327925848642998L200.58333333333334,19.665777777777784L201.79166666666666,19.665777777777784L203,19.665777777777784L204.20833333333334,19.665777777777784L205.41666666666669,19.665777777777784L206.625,19.665777777777784L207.83333333333334,19.665777777777784L209.04166666666666,19.665777777777784L210.25,19.665777777777784L211.45833333333331,19.665777777777784L212.66666666666666,20.327925848642998L213.875,19.665777777777784L215.08333333333334,19.665777777777784L216.29166666666666,19.665777777777784L217.5,20.327925848642998L218.70833333333334,19.665777777777784L219.91666666666666,20.99007391950821L221.125,20.99007391950821L222.33333333333334,21.65222199037342L223.54166666666669,27.61154290644329L224.75,24.30081427383425L225.95833333333334,19.665777777777784L227.16666666666666,23.638666202969034L228.375,20.99007391950821L229.58333333333331,19.665777777777784L230.79166666666666,19.665777777777784L232,20.99007391950821L233.20833333333334,20.327925848642998L234.41666666666666,19.665777777777784L235.625,19.665777777777784L236.83333333333334,19.665777777777784L238.04166666666666,19.665777777777784L239.25,19.665777777777784L240.45833333333334,19.665777777777784L241.66666666666669,19.665777777777784L242.875,20.327925848642998L244.08333333333334,21.65222199037342L245.29166666666666,22.976518132103823L246.5,23.638666202969034L247.70833333333331,20.327925848642998L248.91666666666666,26.94939483557808L250.125,21.65222199037342L251.33333333333334,22.314370061238613L252.54166666666666,25.625098693847676L253.75,24.962962344699438L254.95833333333334,24.962962344699438L256.1666666666667,30.922283260769326L257.375,21.65222199037342L258.58333333333337,24.30081427383425L259.7916666666667,21.65222199037342L261,19.665777777777784L262.2083333333333,20.99007391950821L263.4166666666667,20.99007391950821L264.625,20.99007391950821" style="fill: none;" fill="none"></path></g><g><path stroke="rgb(0, 119, 187)" stroke-width="2px" d="M24.166666666666664,158.05458392800224L25.375,154.74384943453472L26.583333333333332,148.12237458674113L27.791666666666668,146.1359303741455L29,142.82519588067797L30.208333333333336,164.01391070493062L31.416666666666668,142.16304780981278L32.625,149.44667072847153L33.833333333333336,144.8116342324151L35.041666666666664,162.6896145632002L36.25,152.09525715107387L37.458333333333336,159.37888006973265L38.666666666666664,163.3517626340654L39.875,147.46022651587592L41.083333333333336,146.1359303741455L42.29166666666667,152.09525715107387L43.5,160.70317621146307L44.708333333333336,149.44667072847153L45.916666666666664,134.87942489115397L47.125,150.10881293847825L48.33333333333333,148.78452265760635L49.541666666666664,148.78452265760635L50.75,154.0817013636695L51.958333333333336,142.16304780981278L53.166666666666664,152.75740522193908L54.375,151.43310908020868L55.583333333333336,146.7980784450107L56.791666666666664,147.46022651587592L58,153.4195532928043L59.208333333333336,150.77096100934347L60.41666666666667,143.48734395154318L61.625,152.09525715107387L62.833333333333336,142.16304780981278L64.04166666666667,152.09525715107387L65.25,149.44667072847153L66.45833333333333,142.16304780981278L67.66666666666667,143.48734395154318L68.875,144.8116342324151L70.08333333333333,150.10881293847825L71.29166666666666,156.06813971540663L72.5,145.4737823032803L73.70833333333333,143.48734395154318L74.91666666666667,148.78452265760635L76.125,150.77096100934347L77.33333333333333,150.10881293847825L78.54166666666666,146.1359303741455L79.75,150.77096100934347L80.95833333333333,141.50089973894757L82.16666666666667,153.4195532928043L83.375,141.50089973894757L84.58333333333334,140.83875166808235L85.79166666666667,138.8523074554867L87,142.16304780981278L88.20833333333333,138.8523074554867L89.41666666666667,139.51445552635192L90.625,137.5280171746148L91.83333333333333,138.8523074554867L93.04166666666667,141.50089973894757L94.25,140.83875166808235L95.45833333333333,129.5822461850908L96.66666666666666,131.56869039768642L97.875,135.5415729620192L99.08333333333333,122.29862326643203L100.29166666666667,127.59580197249518L101.5,130.90654232682124L102.70833333333334,119.65003684382968L103.91666666666667,118.98788877296447L105.125,128.92009811422562L106.33333333333333,114.35285813776653L107.54166666666667,101.77205651304457L108.75,107.06922935824925L109.95833333333333,107.06922935824925L111.16666666666667,107.73137742911445L112.375,105.74494493823582L113.58333333333333,107.06922935824925L114.79166666666666,90.51555103005303L116,85.8805145339966L117.20833333333333,96.47487194612293L118.41666666666667,95.81272387525772L119.625,97.13702001698815L120.83333333333334,83.89407032140096L122.04166666666667,79.25904554706152L123.25,89.19125488832263L124.45833333333333,83.23193397225275L125.66666666666667,80.58334168879192L126.875,73.29971290927463L128.08333333333334,77.93474940533109L129.29166666666669,83.23193397225275L130.5,81.24548975965713L131.70833333333334,73.29971290927463L132.91666666666666,77.93474940533109L134.125,68.66468813493516L135.33333333333334,55.421738439348005L136.54166666666666,66.67824392233955L137.75,56.08388651021322L138.95833333333334,58.07033072280883L140.16666666666666,60.05677493540447L141.375,60.05677493540447L142.58333333333331,58.73247879367405L143.79166666666666,52.11099808502197L145,49.46240580156114L146.20833333333334,48.13812138154771L147.41666666666666,42.17878874376085L148.625,47.47597331068253L149.83333333333334,46.81382523981731L151.04166666666669,36.88161589855619L152.25,34.89517168596058L153.45833333333334,30.922283260769326L154.66666666666666,26.94939483557808L155.875,31.58443133163454L157.08333333333331,24.30081427383425L158.29166666666666,22.976518132103823L159.5,25.625098693847676L160.70833333333334,25.625098693847676L161.91666666666666,24.962962344699438L163.125,20.327925848642998L164.33333333333334,20.327925848642998L165.54166666666666,20.99007391950821L166.75,20.327925848642998L167.95833333333334,20.99007391950821L169.16666666666669,19.665777777777784L170.375,20.327925848642998L171.58333333333334,19.665777777777784L172.79166666666666,20.327925848642998L174,20.327925848642998L175.20833333333331,19.665777777777784L176.41666666666666,19.665777777777784L177.625,19.665777777777784L178.83333333333334,19.665777777777784L180.04166666666666,19.665777777777784L181.25,19.665777777777784L182.45833333333334,19.665777777777784L183.66666666666666,19.665777777777784L184.875,24.962962344699438L186.08333333333334,22.976518132103823L187.29166666666669,23.638666202969034L188.5,22.314370061238613L189.70833333333334,20.327925848642998L190.91666666666666,20.99007391950821L192.125,20.99007391950821L193.33333333333331,19.665777777777784L194.54166666666666,19.665777777777784L195.75,19.665777777777784L196.95833333333334,20.327925848642998L198.16666666666666,20.327925848642998L199.375,19.665777777777784L200.58333333333334,19.665777777777784L201.79166666666666,19.665777777777784L203,19.665777777777784L204.20833333333334,19.665777777777784L205.41666666666669,19.665777777777784L206.625,19.665777777777784L207.83333333333334,19.665777777777784L209.04166666666666,19.665777777777784L210.25,19.665777777777784L211.45833333333331,19.665777777777784L212.66666666666666,20.327925848642998L213.875,19.665777777777784L215.08333333333334,19.665777777777784L216.29166666666666,20.327925848642998L217.5,19.665777777777784L218.70833333333334,19.665777777777784L219.91666666666666,19.665777777777784L221.125,19.665777777777784L222.33333333333334,19.665777777777784L223.54166666666669,19.665777777777784L224.75,19.665777777777784L225.95833333333334,19.665777777777784L227.16666666666666,20.99007391950821L228.375,20.327925848642998L229.58333333333331,24.30081427383425L230.79166666666666,24.962962344699438L232,20.327925848642998L233.20833333333334,22.314370061238613L234.41666666666666,26.287246764712865L235.625,26.94939483557808L236.83333333333334,24.30081427383425L238.04166666666666,23.638666202969034L239.25,22.976518132103823L240.45833333333334,19.665777777777784L241.66666666666669,20.327925848642998L242.875,20.327925848642998L244.08333333333334,19.665777777777784L245.29166666666666,19.665777777777784L246.5,19.665777777777784L247.70833333333331,19.665777777777784L248.91666666666666,19.665777777777784L250.125,19.665777777777784L251.33333333333334,19.665777777777784L252.54166666666666,19.665777777777784L253.75,19.665777777777784L254.95833333333334,19.665777777777784L256.1666666666667,19.665777777777784L257.375,20.327925848642998L258.58333333333337,19.665777777777784L259.7916666666667,19.665777777777784L261,19.665777777777784L262.2083333333333,19.665777777777784L263.4166666666667,19.665777777777784L264.625,19.665777777777784" style="fill: none;" fill="none"></path></g><g><path stroke="rgb(255, 112, 67)" stroke-width="2px" d="M24.166666666666664,150.77096100934347L25.375,150.10881293847825L26.583333333333332,146.1359303741455L27.791666666666668,147.46022651587592L29,142.82519588067797L30.208333333333336,146.1359303741455L31.416666666666668,147.46022651587592L32.625,144.14948616154987L33.833333333333336,158.71673199886746L35.041666666666664,150.10881293847825L36.25,150.10881293847825L37.458333333333336,145.4737823032803L38.666666666666664,150.77096100934347L39.875,150.10881293847825L41.083333333333336,146.7980784450107L42.29166666666667,142.16304780981278L43.5,144.14948616154987L44.708333333333336,143.48734395154318L45.916666666666664,154.0817013636695L47.125,146.1359303741455L48.33333333333333,150.10881293847825L49.541666666666664,145.4737823032803L50.75,144.8116342324151L51.958333333333336,146.7980784450107L53.166666666666664,143.48734395154318L54.375,151.43310908020868L55.583333333333336,131.56869039768642L56.791666666666664,142.82519588067797L58,147.46022651587592L59.208333333333336,138.8523074554867L60.41666666666667,137.5280171746148L61.625,137.5280171746148L62.833333333333336,131.56869039768642L64.04166666666667,132.89298067855833L65.25,141.50089973894757L66.45833333333333,136.8658691037496L67.66666666666667,129.5822461850908L68.875,147.46022651587592L70.08333333333333,136.8658691037496L71.29166666666666,146.1359303741455L72.5,134.21727682028876L73.70833333333333,122.29862326643203L74.91666666666667,132.23083846855164L76.125,132.23083846855164L77.33333333333333,140.17660359721714L78.54166666666666,139.51445552635192L79.75,134.21727682028876L80.95833333333333,122.96077133729725L82.16666666666667,105.74494493823582L83.375,120.3121849146949L84.58333333333334,131.56869039768642L85.79166666666667,106.40709300910102L87,130.24439425595602L88.20833333333333,116.33930235036215L89.41666666666667,117.66359849209256L90.625,115.01500620863173L91.83333333333333,119.65003684382968L93.04166666666667,124.28506747902765L94.25,117.00145042122736L95.45833333333333,111.04211778344049L96.66666666666666,104.4206487965054L97.875,107.06922935824925L99.08333333333333,100.44776037131416L100.29166666666667,117.00145042122736L101.5,109.71782164171009L102.70833333333334,105.0827968673706L103.91666666666667,114.35285813776653L105.125,106.40709300910102L106.33333333333333,100.44776037131416L107.54166666666667,107.73137742911445L108.75,103.75850072564019L109.95833333333333,105.0827968673706L111.16666666666667,94.48843945524429L112.375,97.13702001698815L113.58333333333333,83.89407032140096L114.79166666666666,97.79916808785333L116,77.27260133446588L117.20833333333333,88.52910681745742L118.41666666666667,83.89407032140096L119.625,88.52910681745742L120.83333333333334,83.89407032140096L122.04166666666667,74.62400905100506L123.25,71.97541676754423L124.45833333333333,83.89407032140096L125.66666666666667,81.90763783052235L126.875,73.29971290927463L128.08333333333334,77.27260133446588L129.29166666666669,73.29971290927463L130.5,70.6511323475308L131.70833333333334,73.96186098013985L132.91666666666666,66.67824392233955L134.125,65.35394778060913L135.33333333333334,73.96186098013985L136.54166666666666,59.394626864539255L137.75,65.35394778060913L138.95833333333334,66.67824392233955L140.16666666666666,72.63756483840942L141.375,73.29971290927463L142.58333333333331,56.08388651021322L143.79166666666666,64.69179970974393L145,64.02965163887872L146.20833333333334,54.097442297617604L147.41666666666666,68.66468813493516L148.625,65.35394778060913L149.83333333333334,60.71891128455268L151.04166666666669,58.07033072280883L152.25,58.07033072280883L153.45833333333334,60.71891128455268L154.66666666666666,54.097442297617604L155.875,54.75959036848282L157.08333333333331,59.394626864539255L158.29166666666666,60.71891128455268L159.5,62.705355497148304L160.70833333333334,54.75959036848282L161.91666666666666,54.097442297617604L163.125,58.73247879367405L164.33333333333334,46.1516771689521L165.54166666666666,56.74603458107843L166.75,46.1516771689521L167.95833333333334,45.48952909808689L169.16666666666669,35.55731975682577L170.375,38.86804838943483L171.58333333333334,34.23302361509537L172.79166666666666,30.260135189904116L174,30.260135189904116L175.20833333333331,31.58443133163454L176.41666666666666,29.597987119038905L177.625,27.61154290644329L178.83333333333334,25.625098693847676L180.04166666666666,26.287246764712865L181.25,30.260135189904116L182.45833333333334,29.597987119038905L183.66666666666666,26.94939483557808L184.875,26.94939483557808L186.08333333333334,24.962962344699438L187.29166666666669,24.30081427383425L188.5,20.99007391950821L189.70833333333334,24.962962344699438L190.91666666666666,23.638666202969034L192.125,21.65222199037342L193.33333333333331,23.638666202969034L194.54166666666666,22.976518132103823L195.75,22.976518132103823L196.95833333333334,20.99007391950821L198.16666666666666,22.976518132103823L199.375,23.638666202969034L200.58333333333334,25.625098693847676L201.79166666666666,22.314370061238613L203,23.638666202969034L204.20833333333334,20.327925848642998L205.41666666666669,21.65222199037342L206.625,19.665777777777784L207.83333333333334,20.327925848642998L209.04166666666666,20.99007391950821L210.25,19.665777777777784L211.45833333333331,19.665777777777784L212.66666666666666,19.665777777777784L213.875,21.65222199037342L215.08333333333334,20.99007391950821L216.29166666666666,20.327925848642998L217.5,20.327925848642998L218.70833333333334,19.665777777777784L219.91666666666666,21.65222199037342L221.125,22.314370061238613L222.33333333333334,32.246579402499734L223.54166666666669,27.61154290644329L224.75,21.65222199037342L225.95833333333334,24.30081427383425L227.16666666666666,25.625098693847676L228.375,19.665777777777784L229.58333333333331,20.99007391950821L230.79166666666666,22.314370061238613L232,21.65222199037342L233.20833333333334,20.327925848642998L234.41666666666666,20.99007391950821L235.625,20.99007391950821L236.83333333333334,19.665777777777784L238.04166666666666,20.99007391950821L239.25,19.665777777777784L240.45833333333334,19.665777777777784L241.66666666666669,19.665777777777784L242.875,21.65222199037342L244.08333333333334,50.78670194329157L245.29166666666666,30.260135189904116L246.5,26.94939483557808L247.70833333333331,27.61154290644329L248.91666666666666,26.287246764712865L250.125,24.30081427383425L251.33333333333334,24.962962344699438L252.54166666666666,24.30081427383425L253.75,19.665777777777784L254.95833333333334,20.99007391950821L256.1666666666667,20.327925848642998L257.375,20.327925848642998L258.58333333333337,19.665777777777784L259.7916666666667,19.665777777777784L261,22.314370061238613L262.2083333333333,20.327925848642998L263.4166666666667,20.99007391950821L264.625,20.327925848642998" style="fill: none;" fill="none"></path></g></g></g></g></g></g><g transform="translate(40, 176)" clip-path="url(#clip_1)"><clipPath id="clip_1"><rect width="289" height="22"></rect></clipPath><g><g><line x1="0" y1="0" x2="0" y2="5" style="visibility: inherit;" fill="rgb(0, 0, 0)" stroke="rgb(204, 204, 204)" stroke-width="1px"></line><line x1="24.166666666666664" y1="0" x2="24.166666666666664" y2="5" style="visibility: inherit;" fill="rgb(0, 0, 0)" stroke="rgb(204, 204, 204)" stroke-width="1px"></line><line x1="48.33333333333333" y1="0" x2="48.33333333333333" y2="5" style="visibility: inherit;" fill="rgb(0, 0, 0)" stroke="rgb(204, 204, 204)" stroke-width="1px"></line><line x1="72.5" y1="0" x2="72.5" y2="5" style="visibility: inherit;" fill="rgb(0, 0, 0)" stroke="rgb(204, 204, 204)" stroke-width="1px"></line><line x1="96.66666666666666" y1="0" x2="96.66666666666666" y2="5" style="visibility: inherit;" fill="rgb(0, 0, 0)" stroke="rgb(204, 204, 204)" stroke-width="1px"></line><line x1="120.83333333333334" y1="0" x2="120.83333333333334" y2="5" style="visibility: inherit;" fill="rgb(0, 0, 0)" stroke="rgb(204, 204, 204)" stroke-width="1px"></line><line x1="145" y1="0" x2="145" y2="5" style="visibility: inherit;" fill="rgb(0, 0, 0)" stroke="rgb(204, 204, 204)" stroke-width="1px"></line><line x1="169.16666666666669" y1="0" x2="169.16666666666669" y2="5" style="visibility: inherit;" fill="rgb(0, 0, 0)" stroke="rgb(204, 204, 204)" stroke-width="1px"></line><line x1="193.33333333333331" y1="0" x2="193.33333333333331" y2="5" style="visibility: inherit;" fill="rgb(0, 0, 0)" stroke="rgb(204, 204, 204)" stroke-width="1px"></line><line x1="217.5" y1="0" x2="217.5" y2="5" style="visibility: inherit;" fill="rgb(0, 0, 0)" stroke="rgb(204, 204, 204)" stroke-width="1px"></line><line x1="241.66666666666669" y1="0" x2="241.66666666666669" y2="5" style="visibility: inherit;" fill="rgb(0, 0, 0)" stroke="rgb(204, 204, 204)" stroke-width="1px"></line><line x1="265.8333333333333" y1="0" x2="265.8333333333333" y2="5" style="visibility: inherit;" fill="rgb(0, 0, 0)" stroke="rgb(204, 204, 204)" stroke-width="1px"></line><line x1="290" y1="0" x2="290" y2="5" style="visibility: inherit;" fill="rgb(0, 0, 0)" stroke="rgb(204, 204, 204)" stroke-width="1px"></line></g><g transform="translate(0, 8)"><text x="0" y="0" dx="0em" dy="0.95em" style="text-anchor: middle; visibility: hidden; font-family: Roboto, sans-serif; font-size: 12px; font-weight: 200;" fill="rgb(33, 33, 33)" stroke="none" stroke-width="1px">-20</text><text x="24.166666666666664" y="0" dx="0em" dy="0.95em" style="text-anchor: middle; visibility: inherit; font-family: Roboto, sans-serif; font-size: 12px; font-weight: 200;" fill="rgb(33, 33, 33)" stroke="none" stroke-width="1px">0</text><text x="48.33333333333333" y="0" dx="0em" dy="0.95em" style="text-anchor: middle; visibility: hidden; font-family: Roboto, sans-serif; font-size: 12px; font-weight: 200;" fill="rgb(33, 33, 33)" stroke="none" stroke-width="1px">20</text><text x="72.5" y="0" dx="0em" dy="0.95em" style="text-anchor: middle; visibility: inherit; font-family: Roboto, sans-serif; font-size: 12px; font-weight: 200;" fill="rgb(33, 33, 33)" stroke="none" stroke-width="1px">40</text><text x="96.66666666666666" y="0" dx="0em" dy="0.95em" style="text-anchor: middle; visibility: hidden; font-family: Roboto, sans-serif; font-size: 12px; font-weight: 200;" fill="rgb(33, 33, 33)" stroke="none" stroke-width="1px">60</text><text x="120.83333333333334" y="0" dx="0em" dy="0.95em" style="text-anchor: middle; visibility: inherit; font-family: Roboto, sans-serif; font-size: 12px; font-weight: 200;" fill="rgb(33, 33, 33)" stroke="none" stroke-width="1px">80</text><text x="145" y="0" dx="0em" dy="0.95em" style="text-anchor: middle; visibility: hidden; font-family: Roboto, sans-serif; font-size: 12px; font-weight: 200;" fill="rgb(33, 33, 33)" stroke="none" stroke-width="1px">100</text><text x="169.16666666666669" y="0" dx="0em" dy="0.95em" style="text-anchor: middle; visibility: inherit; font-family: Roboto, sans-serif; font-size: 12px; font-weight: 200;" fill="rgb(33, 33, 33)" stroke="none" stroke-width="1px">120</text><text x="193.33333333333331" y="0" dx="0em" dy="0.95em" style="text-anchor: middle; visibility: hidden; font-family: Roboto, sans-serif; font-size: 12px; font-weight: 200;" fill="rgb(33, 33, 33)" stroke="none" stroke-width="1px">140</text><text x="217.5" y="0" dx="0em" dy="0.95em" style="text-anchor: middle; visibility: inherit; font-family: Roboto, sans-serif; font-size: 12px; font-weight: 200;" fill="rgb(33, 33, 33)" stroke="none" stroke-width="1px">160</text><text x="241.66666666666669" y="0" dx="0em" dy="0.95em" style="text-anchor: middle; visibility: hidden; font-family: Roboto, sans-serif; font-size: 12px; font-weight: 200;" fill="rgb(33, 33, 33)" stroke="none" stroke-width="1px">180</text><text x="265.8333333333333" y="0" dx="0em" dy="0.95em" style="text-anchor: middle; visibility: inherit; font-family: Roboto, sans-serif; font-size: 12px; font-weight: 200;" fill="rgb(33, 33, 33)" stroke="none" stroke-width="1px">200</text><text x="290" y="0" dx="0em" dy="0.95em" style="text-anchor: middle; visibility: hidden; font-family: Roboto, sans-serif; font-size: 12px; font-weight: 200;" fill="rgb(33, 33, 33)" stroke="none" stroke-width="1px">220</text></g><line x1="0" y1="0" x2="290" y2="0" fill="rgb(0, 0, 0)" stroke="rgb(204, 204, 204)" stroke-width="1px"></line></g></g></g></g></svg>