<svg viewBox="0 0 330 199.9921875" xmlns="http://www.w3.org/2000/svg"><g><g><g><g><g><line x1="50" y1="176.992" x2="45" y2="176.992" style="visibility: inherit;" fill="rgb(0, 0, 0)" stroke="rgb(204, 204, 204)" stroke-width="1px"></line><line x1="50" y1="160.9018181818182" x2="45" y2="160.9018181818182" style="visibility: inherit;" fill="rgb(0, 0, 0)" stroke="rgb(204, 204, 204)" stroke-width="1px"></line><line x1="50" y1="144.81163636363635" x2="45" y2="144.81163636363635" style="visibility: inherit;" fill="rgb(0, 0, 0)" stroke="rgb(204, 204, 204)" stroke-width="1px"></line><line x1="50" y1="128.72145454545455" x2="45" y2="128.72145454545455" style="visibility: inherit;" fill="rgb(0, 0, 0)" stroke="rgb(204, 204, 204)" stroke-width="1px"></line><line x1="50" y1="112.63127272727272" x2="45" y2="112.63127272727272" style="visibility: inherit;" fill="rgb(0, 0, 0)" stroke="rgb(204, 204, 204)" stroke-width="1px"></line><line x1="50" y1="96.5410909090909" x2="45" y2="96.5410909090909" style="visibility: inherit;" fill="rgb(0, 0, 0)" stroke="rgb(204, 204, 204)" stroke-width="1px"></line><line x1="50" y1="80.4509090909091" x2="45" y2="80.4509090909091" style="visibility: inherit;" fill="rgb(0, 0, 0)" stroke="rgb(204, 204, 204)" stroke-width="1px"></line><line x1="50" y1="64.36072727272727" x2="45" y2="64.36072727272727" style="visibility: inherit;" fill="rgb(0, 0, 0)" stroke="rgb(204, 204, 204)" stroke-width="1px"></line><line x1="50" y1="48.27054545454547" x2="45" y2="48.27054545454547" style="visibility: inherit;" fill="rgb(0, 0, 0)" stroke="rgb(204, 204, 204)" stroke-width="1px"></line><line x1="50" y1="32.180363636363644" x2="45" y2="32.180363636363644" style="visibility: inherit;" fill="rgb(0, 0, 0)" stroke="rgb(204, 204, 204)" stroke-width="1px"></line><line x1="50" y1="16.090181818181822" x2="45" y2="16.090181818181822" style="visibility: inherit;" fill="rgb(0, 0, 0)" stroke="rgb(204, 204, 204)" stroke-width="1px"></line><line x1="50" y1="0" x2="45" y2="0" style="visibility: inherit;" fill="rgb(0, 0, 0)" stroke="rgb(204, 204, 204)" stroke-width="1px"></line></g><g transform="translate(40, 0)"><text x="0" y="176.992" dx="0em" dy="0.3em" style="text-anchor: end; visibility: hidden; font-family: Roboto, sans-serif; font-size: 12px; font-weight: 200;" fill="rgb(33, 33, 33)" stroke="none" stroke-width="1px">0.3</text><text x="0" y="160.9018181818182" dx="0em" dy="0.3em" style="text-anchor: end; visibility: inherit; font-family: Roboto, sans-serif; font-size: 12px; font-weight: 200;" fill="rgb(33, 33, 33)" stroke="none" stroke-width="1px">0.35</text><text x="0" y="144.81163636363635" dx="0em" dy="0.3em" style="text-anchor: end; visibility: hidden; font-family: Roboto, sans-serif; font-size: 12px; font-weight: 200;" fill="rgb(33, 33, 33)" stroke="none" stroke-width="1px">0.4</text><text x="0" y="128.72145454545455" dx="0em" dy="0.3em" style="text-anchor: end; visibility: inherit; font-family: Roboto, sans-serif; font-size: 12px; font-weight: 200;" fill="rgb(33, 33, 33)" stroke="none" stroke-width="1px">0.45</text><text x="0" y="112.63127272727272" dx="0em" dy="0.3em" style="text-anchor: end; visibility: hidden; font-family: Roboto, sans-serif; font-size: 12px; font-weight: 200;" fill="rgb(33, 33, 33)" stroke="none" stroke-width="1px">0.5</text><text x="0" y="96.5410909090909" dx="0em" dy="0.3em" style="text-anchor: end; visibility: inherit; font-family: Roboto, sans-serif; font-size: 12px; font-weight: 200;" fill="rgb(33, 33, 33)" stroke="none" stroke-width="1px">0.55</text><text x="0" y="80.4509090909091" dx="0em" dy="0.3em" style="text-anchor: end; visibility: hidden; font-family: Roboto, sans-serif; font-size: 12px; font-weight: 200;" fill="rgb(33, 33, 33)" stroke="none" stroke-width="1px">0.6</text><text x="0" y="64.36072727272727" dx="0em" dy="0.3em" style="text-anchor: end; visibility: inherit; font-family: Roboto, sans-serif; font-size: 12px; font-weight: 200;" fill="rgb(33, 33, 33)" stroke="none" stroke-width="1px">0.65</text><text x="0" y="48.27054545454547" dx="0em" dy="0.3em" style="text-anchor: end; visibility: hidden; font-family: Roboto, sans-serif; font-size: 12px; font-weight: 200;" fill="rgb(33, 33, 33)" stroke="none" stroke-width="1px">0.7</text><text x="0" y="32.180363636363644" dx="0em" dy="0.3em" style="text-anchor: end; visibility: inherit; font-family: Roboto, sans-serif; font-size: 12px; font-weight: 200;" fill="rgb(33, 33, 33)" stroke="none" stroke-width="1px">0.75</text><text x="0" y="16.090181818181822" dx="0em" dy="0.3em" style="text-anchor: end; visibility: hidden; font-family: Roboto, sans-serif; font-size: 12px; font-weight: 200;" fill="rgb(33, 33, 33)" stroke="none" stroke-width="1px">0.8</text><text x="0" y="0" dx="0em" dy="0.3em" style="text-anchor: end; visibility: hidden; font-family: Roboto, sans-serif; font-size: 12px; font-weight: 200;" fill="rgb(33, 33, 33)" stroke="none" stroke-width="1px">0.85</text></g><line x1="50" y1="0" x2="50" y2="176.992" fill="rgb(0, 0, 0)" stroke="rgb(204, 204, 204)" stroke-width="1px"></line></g></g><g transform="translate(50, 0)" clip-path="url(#clip_0)"><clipPath id="clip_0"><rect width="279" height="176"></rect></clipPath><g><g><g><line x1="0" y1="0" x2="0" y2="176.992" fill="rgb(0, 0, 0)" stroke="rgb(66, 66, 66)" stroke-width="1px" opacity="0.25"></line><line x1="23.333333333333332" y1="0" x2="23.333333333333332" y2="176.992" fill="rgb(0, 0, 0)" stroke="rgb(66, 66, 66)" stroke-width="1px" opacity="0.25"></line><line x1="46.666666666666664" y1="0" x2="46.666666666666664" y2="176.992" fill="rgb(0, 0, 0)" stroke="rgb(66, 66, 66)" stroke-width="1px" opacity="0.25"></line><line x1="70" y1="0" x2="70" y2="176.992" fill="rgb(0, 0, 0)" stroke="rgb(66, 66, 66)" stroke-width="1px" opacity="0.25"></line><line x1="93.33333333333333" y1="0" x2="93.33333333333333" y2="176.992" fill="rgb(0, 0, 0)" stroke="rgb(66, 66, 66)" stroke-width="1px" opacity="0.25"></line><line x1="116.66666666666667" y1="0" x2="116.66666666666667" y2="176.992" fill="rgb(0, 0, 0)" stroke="rgb(66, 66, 66)" stroke-width="1px" opacity="0.25"></line><line x1="140" y1="0" x2="140" y2="176.992" fill="rgb(0, 0, 0)" stroke="rgb(66, 66, 66)" stroke-width="1px" opacity="0.25"></line><line x1="163.33333333333334" y1="0" x2="163.33333333333334" y2="176.992" fill="rgb(0, 0, 0)" stroke="rgb(66, 66, 66)" stroke-width="1px" opacity="0.25"></line><line x1="186.66666666666666" y1="0" x2="186.66666666666666" y2="176.992" fill="rgb(0, 0, 0)" stroke="rgb(66, 66, 66)" stroke-width="1px" opacity="0.25"></line><line x1="210" y1="0" x2="210" y2="176.992" fill="rgb(0, 0, 0)" stroke="rgb(66, 66, 66)" stroke-width="1px" opacity="0.25"></line><line x1="233.33333333333334" y1="0" x2="233.33333333333334" y2="176.992" fill="rgb(0, 0, 0)" stroke="rgb(66, 66, 66)" stroke-width="1px" opacity="0.25"></line><line x1="256.66666666666663" y1="0" x2="256.66666666666663" y2="176.992" fill="rgb(0, 0, 0)" stroke="rgb(66, 66, 66)" stroke-width="1px" opacity="0.25"></line><line x1="280" y1="0" x2="280" y2="176.992" fill="rgb(0, 0, 0)" stroke="rgb(66, 66, 66)" stroke-width="1px" opacity="0.25"></line></g><g><line x1="0" y1="176.992" x2="280" y2="176.992" fill="rgb(0, 0, 0)" stroke="rgb(66, 66, 66)" stroke-width="1px" opacity="0.25"></line><line x1="0" y1="160.9018181818182" x2="280" y2="160.9018181818182" fill="rgb(0, 0, 0)" stroke="rgb(66, 66, 66)" stroke-width="1px" opacity="0.25"></line><line x1="0" y1="144.81163636363635" x2="280" y2="144.81163636363635" fill="rgb(0, 0, 0)" stroke="rgb(66, 66, 66)" stroke-width="1px" opacity="0.25"></line><line x1="0" y1="128.72145454545455" x2="280" y2="128.72145454545455" fill="rgb(0, 0, 0)" stroke="rgb(66, 66, 66)" stroke-width="1px" opacity="0.25"></line><line x1="0" y1="112.63127272727272" x2="280" y2="112.63127272727272" fill="rgb(0, 0, 0)" stroke="rgb(66, 66, 66)" stroke-width="1px" opacity="0.25"></line><line x1="0" y1="96.5410909090909" x2="280" y2="96.5410909090909" fill="rgb(0, 0, 0)" stroke="rgb(66, 66, 66)" stroke-width="1px" opacity="0.25"></line><line x1="0" y1="80.4509090909091" x2="280" y2="80.4509090909091" fill="rgb(0, 0, 0)" stroke="rgb(66, 66, 66)" stroke-width="1px" opacity="0.25"></line><line x1="0" y1="64.36072727272727" x2="280" y2="64.36072727272727" fill="rgb(0, 0, 0)" stroke="rgb(66, 66, 66)" stroke-width="1px" opacity="0.25"></line><line x1="0" y1="48.27054545454547" x2="280" y2="48.27054545454547" fill="rgb(0, 0, 0)" stroke="rgb(66, 66, 66)" stroke-width="1px" opacity="0.25"></line><line x1="0" y1="32.180363636363644" x2="280" y2="32.180363636363644" fill="rgb(0, 0, 0)" stroke="rgb(66, 66, 66)" stroke-width="1px" opacity="0.25"></line><line x1="0" y1="16.090181818181822" x2="280" y2="16.090181818181822" fill="rgb(0, 0, 0)" stroke="rgb(66, 66, 66)" stroke-width="1px" opacity="0.25"></line><line x1="0" y1="0" x2="280" y2="0" fill="rgb(0, 0, 0)" stroke="rgb(66, 66, 66)" stroke-width="1px" opacity="0.25"></line></g></g></g><g><g><line x1="0" y1="273.5330909090909" x2="280" y2="273.5330909090909" fill="rgb(0, 0, 0)" stroke="rgb(153, 153, 153)" stroke-width="1.5px"></line></g></g><g><g><line x1="23.333333333333332" y1="0" x2="23.333333333333332" y2="176.992" fill="rgb(0, 0, 0)" stroke="rgb(153, 153, 153)" stroke-width="1.5px"></line></g></g><g><g><g><g><g><path stroke="rgb(51, 187, 238)" stroke-width="2px" d="M23.333333333333332,156.5135832894065L24.5,167.34872754586826L25.666666666666664,166.24309813436815L26.833333333333336,166.25325934301338L28,169.54808704804978L29.166666666666668,162.260663298236L30.333333333333336,166.13805371517358L31.5,169.71626017096943L32.666666666666664,170.073059426851L33.833333333333336,170.2848237236703L35,166.93119071825643L36.16666666666667,166.66421685672L37.333333333333336,168.67426900149027L38.5,164.67367170206595L39.666666666666664,167.0450256060739L40.833333333333336,159.7965655752185L42,156.74923664601855L43.16666666666667,156.6549657292235L44.33333333333333,160.49929726537272L45.5,151.97021135015444L46.666666666666664,150.75369520525288L47.833333333333336,153.05768076436482L49,149.23914717041384L50.166666666666664,149.54849085987237L51.33333333333333,142.7995879324965L52.5,137.01663145864583L53.66666666666667,136.58070906298616L54.833333333333336,140.65321100046472L56,142.22990205915065L57.166666666666664,140.57547968754525L58.333333333333336,134.8153674284524L59.5,131.792702770302L60.66666666666667,130.84591619080615L61.83333333333333,130.7112502944821L63,130.1970447416856L64.16666666666666,128.58830720838972L65.33333333333333,136.72457945720126L66.5,139.00591054067974L67.66666666666667,134.3070288677333L68.83333333333333,125.85342940525913L70,124.6819199921249L71.16666666666666,122.6787963141574L72.33333333333334,119.7433019036081L73.5,113.21454298296382L74.66666666666667,115.36496409982736L75.83333333333333,117.08862277985034L77,120.28984803798073L78.16666666666667,120.4769591526599L79.33333333333333,121.45603784151812L80.5,118.14283480080361L81.66666666666667,120.4889692404234L82.83333333333333,114.52875540620846L84,111.8194391257338L85.16666666666666,111.06066137749471L86.33333333333334,112.77242094245915L87.5,104.69796197959043L88.66666666666666,110.68842150760204L89.83333333333334,113.8492912143872L91,111.8451666206665L92.16666666666667,108.4756618143298L93.33333333333333,107.75417696059048L94.5,104.7208499882217L95.66666666666667,101.16722976471698L96.83333333333333,100.76868167069762L98,99.22933478422344L99.16666666666667,98.30572665233893L100.33333333333333,102.08562187341687L101.5,97.85247652814724L102.66666666666666,93.1455592708812L103.83333333333334,87.72097285639633L105,91.83411550566352L106.16666666666666,88.23432462732832L107.33333333333334,82.60720969255689L108.5,84.86521118956868L109.66666666666667,79.71892960985939L110.83333333333333,81.39861909986672L112,85.87368087403804L113.16666666666667,89.42552228618594L114.33333333333333,82.02171025780886L115.5,75.84579900069916L116.66666666666667,77.34111669428714L117.83333333333333,77.37149529039819L119,72.62226401023192L120.16666666666666,74.9735896899859L121.33333333333334,69.88330261992195L122.5,65.52891234782098L123.66666666666666,67.250338284769L124.83333333333334,70.88362223466645L126,67.42932214673029L127.16666666666667,71.42441856186409L128.33333333333331,72.95466439090265L129.5,69.10535345049287L130.66666666666666,66.36236087622615L131.83333333333334,62.54953528156176L133,58.96162956709715L134.16666666666669,63.74337462635559L135.33333333333334,63.578579591764644L136.5,57.8454321131354L137.66666666666666,63.94046817402027L138.83333333333334,61.09639966023827L140,62.423800622115046L141.16666666666666,62.7868351892203L142.33333333333331,65.60509198960865L143.5,63.82879798967471L144.66666666666669,59.29578118194404L145.83333333333334,59.60980549505509L147,59.36481407290086L148.16666666666666,59.651225229629205L149.33333333333334,54.18880146579153L150.5,56.97902367538446L151.66666666666666,52.15207452322385L152.83333333333331,57.49061154992732L154,54.19265128803301L155.16666666666669,53.51409316095899L156.33333333333334,52.240146264672894L157.5,49.74215408681776L158.66666666666666,50.41038883020898L159.83333333333331,49.51111164618116L161,52.872191753555654L162.16666666666669,47.087539310001375L163.33333333333334,45.35037188395229L164.5,39.97401900051077L165.66666666666666,42.38247772832049L166.83333333333334,39.493500537194286L168,36.459896192455936L169.16666666666666,39.84059803346676L170.33333333333331,34.934530650136L171.5,38.058566688033075L172.66666666666669,41.66661235085475L173.83333333333334,41.664409698443414L175,42.09649411701749L176.16666666666666,45.822992848328845L177.33333333333331,43.724831986907006L178.5,42.46593547005393L179.66666666666669,39.9769811922552L180.83333333333334,44.55128509347148L182,39.49456692622227L183.16666666666666,31.25966390562237L184.33333333333334,30.65278219347108L185.5,28.988435136117726L186.66666666666666,28.423232911726558L187.83333333333331,31.5513596572588L189,36.462070102327594L190.16666666666669,37.67487232928542L191.33333333333334,33.2016892176063L192.5,25.31691490274508L193.66666666666666,30.55437319951502L194.83333333333331,21.99490125180682L196,27.260954651286056L197.16666666666669,21.752474162952907L198.33333333333334,27.115498397973745L199.5,27.73287687886105L200.66666666666666,22.902439519539655L201.83333333333334,23.47141751171712L203,20.778969909274124L204.16666666666666,25.66458382572474L205.33333333333331,19.061027627532674L206.5,22.03338239655468L207.66666666666669,17.315712780051545L208.83333333333334,21.853005508107714L210,25.442193164983138L211.16666666666666,22.39484131125463L212.33333333333331,19.266212168954947L213.5,19.122651051262014L214.66666666666669,17.73630402298024L215.83333333333334,15.604277775948603L217,15.191874047771329L218.16666666666666,13.210807770781472L219.33333333333334,10.721949974525034L220.5,13.129289386958911L221.66666666666666,22.374993542398162L222.83333333333331,17.087273457536735L224,10.447393326453017L225.16666666666669,12.097743378073986L226.33333333333334,15.254975786754283L227.5,18.88293927204588L228.66666666666666,16.72566493540882L229.83333333333331,13.264270283322233L231,17.255109959965846L232.16666666666669,17.04918537822335L233.33333333333334,11.2913524989067L234.5,13.904336911608734L235.66666666666666,10.704661449000525L236.83333333333334,13.985720619289356L238,7.286251265838535L239.16666666666666,6.300404051517528L240.33333333333331,4.842083702883166L241.5,5.267309523765133L242.66666666666669,6.822663046356875L243.83333333333334,6.022251119828517L245,6.84222199397404L246.16666666666666,3.4335581006702656L247.33333333333331,6.589224212541718L248.5,1.9815414017482478L249.66666666666669,-2.950098334832183L250.83333333333334,0.5920003011359319L252,4.884289532821114L253.16666666666666,6.592851051790503L254.33333333333334,3.2839355353600967L255.5,1.2985862255018132" style="fill: none;" fill="none"></path></g><g><path stroke="rgb(204, 51, 17)" stroke-width="2px" d="M23.333333333333332,170.59926902458884L24.5,165.85889678404544L25.666666666666664,167.72464026133693L26.833333333333336,164.564255669553L28,163.89216067049267L29.166666666666668,157.1593599223859L30.333333333333336,161.79837425484243L31.5,165.81968067886882L32.666666666666664,164.2484372596675L33.833333333333336,158.95546487769593L35,157.54017158997772L36.16666666666667,159.73474944819114L37.333333333333336,160.6144620004283L38.5,161.1415536170633L39.666666666666664,168.82890451102452L40.833333333333336,157.83199720606686L42,156.0041080449651L43.16666666666667,157.07481890413186L44.33333333333333,156.85031097763255L45.5,161.04982970741094L46.666666666666664,152.7340662398001L47.833333333333336,154.6793046732232L49,159.31370297293006L50.166666666666664,150.3923123185907L51.33333333333333,155.4412711213775L52.5,151.96953981246037L53.66666666666667,152.05353708532402L54.833333333333336,152.53734167019434L56,149.36037870947354L57.166666666666664,146.15398336470082L58.333333333333336,139.896089772603L59.5,131.3738914951345L60.66666666666667,131.89484752585582L61.83333333333333,136.97488353899223L63,138.7226870013084L64.16666666666666,138.47115101599508L65.33333333333333,139.62044746457673L66.5,136.4093750607003L67.66666666666667,140.11700593263103L68.83333333333333,139.74114838690156L70,141.24925790125934L71.16666666666666,138.25347335323326L72.33333333333334,137.75621681958L73.5,132.25699845072518L74.66666666666667,124.19000899169353L75.83333333333333,133.21878845735236L77,129.96794744424048L78.16666666666667,121.94976636841949L79.33333333333333,123.20653419101936L80.5,123.96059488456844L81.66666666666667,125.27983948454164L82.83333333333333,124.77117205065335L84,123.16575356025649L85.16666666666666,117.86845003820355L86.33333333333334,114.25666191495422L87.5,117.72385949888285L88.66666666666666,118.93736602919726L89.83333333333334,115.764823529594L91,123.82962475171813L92.16666666666667,127.36828745492953L93.33333333333333,123.42380477276231L94.5,117.58987475569164L95.66666666666667,122.7576254372718L96.83333333333333,128.02530589632414L98,126.41845189772435L99.16666666666667,120.68688106073154L100.33333333333333,123.74901720025395L101.5,119.95202842609275L102.66666666666666,118.10724117161689L103.83333333333334,113.9665305849836L105,114.94934847697228L106.16666666666666,115.97244138598806L107.33333333333334,117.45310915143924L108.5,113.14064536285618L109.66666666666667,107.08591900953942L110.83333333333333,104.75330122761198L112,104.65394858851808L113.16666666666667,99.82687856722885L114.33333333333333,104.29853105241335L115.5,108.28173673738839L116.66666666666667,108.93803994448827L117.83333333333333,108.03160383868561L119,112.68860662305778L120.16666666666666,112.4489738959316L121.33333333333334,105.37069809932206L122.5,111.5254691894605L123.66666666666666,109.15065537564806L124.83333333333334,108.59257910740229L126,106.52410930637143L127.16666666666667,105.28302742575289L128.33333333333331,103.67156627734002L129.5,105.3051256484175L130.66666666666666,100.2175848031685L131.83333333333334,106.26657499786235L133,98.19401835271022L134.16666666666669,94.21729638566067L135.33333333333334,91.39785719541008L136.5,91.43981772134318L137.66666666666666,92.33180605694477L138.83333333333334,95.90083345605518L140,95.44181383539625L141.16666666666666,97.33343211310522L142.33333333333331,103.23586918996007L143.5,108.51095163995814L144.66666666666669,109.94238090607182L145.83333333333334,102.56653194774019L147,99.00783459278298L148.16666666666666,97.30601451743294L149.33333333333334,92.81768206445257L150.5,92.29171264276866L151.66666666666666,90.24250694967489L152.83333333333331,91.61341959394377L154,95.03639556823371L155.16666666666669,86.25504624707926L156.33333333333334,91.38796555009418L157.5,93.16749910184049L158.66666666666666,95.53543726295092L159.83333333333331,97.82301217965889L161,98.76215111966278L162.16666666666669,94.55817604583218L163.33333333333334,92.46919701155468L164.5,92.08262161102992L165.66666666666666,87.95002228052734L166.83333333333334,85.90386869224663L168,92.04407103723632L169.16666666666666,89.6605159763346L170.33333333333331,88.66378894981442L171.5,93.26661718175613L172.66666666666669,87.7936076029213L173.83333333333334,87.54364392576646L175,86.96025970945269L176.16666666666666,86.61022917966442L177.33333333333331,85.09999283172885L178.5,82.46022698288407L179.66666666666669,84.34361555374412L180.83333333333334,83.7400246561767L182,86.84511819780315L183.16666666666666,75.70600169454968L184.33333333333334,71.62296785272284L185.5,75.24082401552218L186.66666666666666,76.5447256931601L187.83333333333331,80.79431477990973L189,74.67595570393883L190.16666666666669,77.50602273627266L191.33333333333334,80.93768699575638L192.5,82.56327954142579L193.66666666666666,83.10522905880657L194.83333333333331,89.06466922710969L196,82.23860443238398L197.16666666666669,77.27615353550682L198.33333333333334,75.59890102744313L199.5,75.89275988027093L200.66666666666666,74.76886483430158L201.83333333333334,79.7287982645946L203,81.83794630272872L204.16666666666666,82.67002911558829L205.33333333333331,79.70203072313717L206.5,73.15377324983355L207.66666666666669,68.35800674580967L208.83333333333334,69.81460694360398L210,65.48769494203019L211.16666666666666,68.95923188137802L212.33333333333331,71.04215404498669L213.5,68.39125325296413L214.66666666666669,68.10093080781319L215.83333333333334,75.29463183868071L217,69.64252189911798L218.16666666666666,73.18574442331756L219.33333333333334,66.21016707219235L220.5,74.59357960732909L221.66666666666666,70.95551460039044L222.83333333333331,71.8065176663733L224,72.75052551598385L225.16666666666669,66.81584007543728L226.33333333333334,67.58908891131794L227.5,61.985361744950815L228.66666666666666,63.823989892984336L229.83333333333331,65.36057279182529L231,69.31635692887936L232.16666666666669,71.68982741111179L233.33333333333334,67.04623323255575L234.5,71.19456521335937L235.66666666666666,65.01545954621744L236.83333333333334,67.37567261382777L238,69.22520646441481L239.16666666666666,66.86767869460016L240.33333333333331,65.4531620327114L241.5,65.9046700656407L242.66666666666669,67.90919892548172L243.83333333333334,69.5453222514072L245,60.99207169890006L246.16666666666666,62.36120384531217L247.33333333333331,56.68160065524307L248.5,58.47470318905537L249.66666666666669,68.21867723736345L250.83333333333334,70.59782125857797L252,69.42487161118152L253.16666666666666,59.61958328470208L254.33333333333334,68.90560529475145L255.5,64.94229395271869" style="fill: none;" fill="none"></path></g><g><path stroke="rgb(0, 119, 187)" stroke-width="2px" d="M23.333333333333332,165.18169389932805L24.5,169.24487524327364L25.666666666666664,162.19650433566176L26.833333333333336,168.0498201438603L28,165.39599392543863L29.166666666666668,163.03299984948046L30.333333333333336,161.24190608303215L31.5,161.08150691558507L32.666666666666664,156.17101276389536L33.833333333333336,159.79721145489452L35,168.04862060624134L36.16666666666667,171.67721084865147L37.333333333333336,165.6038275648824L38.5,166.7360794084159L39.666666666666664,169.58291182280252L40.833333333333336,164.35370519278092L42,161.2171255132706L43.16666666666667,165.83726415892028L44.33333333333333,166.87531733992762L45.5,164.46415960405557L46.666666666666664,163.01752138344816L47.833333333333336,169.08413852370063L49,167.5231483463404L50.166666666666664,171.35404699382534L51.33333333333333,167.58488084631418L52.5,157.52207420036697L53.66666666666667,157.98549033032643L54.833333333333336,159.130352257095L56,161.98429597556333L57.166666666666664,163.6966615336494L58.333333333333336,161.69024198985377L59.5,162.65342065647704L60.66666666666667,157.16364721355356L61.83333333333333,166.43854645769395L63,163.76877917454638L64.16666666666666,167.801193186218L65.33333333333333,162.85274318684827L66.5,163.78432347529935L67.66666666666667,160.00921920868817L68.83333333333333,154.27691240550078L70,160.37244904800409L71.16666666666666,155.79506450841453L72.33333333333334,155.6490660107483L73.5,159.89552317693673L74.66666666666667,158.10934121171812L75.83333333333333,158.77125607289733L77,163.93586726378805L78.16666666666667,165.30100993807642L79.33333333333333,167.42031357270992L80.5,161.3240012554541L81.66666666666667,163.30048432303414L82.83333333333333,157.98529168564073L84,158.69682635721082L85.16666666666666,162.59099140412442L86.33333333333334,155.82597573042094L87.5,159.13486082416244L88.66666666666666,153.7522973824468L89.83333333333334,155.29021775525175L91,162.71405629304977L92.16666666666667,161.534085121655L93.33333333333333,164.72675267280775L94.5,154.94040244153072L95.66666666666667,149.93540432280633L96.83333333333333,142.59834918756138L98,150.33147287840376L99.16666666666667,156.70496729679436L100.33333333333333,153.1611694498706L101.5,144.96721427382084L102.66666666666666,146.98532965612821L103.83333333333334,147.76279287549175L105,149.5294888371725L106.16666666666666,154.05675065814955L107.33333333333334,154.6060777006315L108.5,150.1682154882877L109.66666666666667,144.03825391691285L110.83333333333333,141.6604911679522L112,139.80042750855495L113.16666666666667,139.11779532293747L114.33333333333333,130.90691550358804L115.5,123.37995922424979L116.66666666666667,128.83210834233353L117.83333333333333,133.40361584324634L119,131.37905806976283L120.16666666666666,128.86410921180843L121.33333333333334,128.2219480808792L122.5,130.87049347246773L123.66666666666666,129.85918464729568L124.83333333333334,131.41942940229671L126,137.1230385293286L127.16666666666667,134.47752370145392L128.33333333333331,124.65551212292756L129.5,123.52976361364469L130.66666666666666,122.85431450807494L131.83333333333334,118.98180080076449L133,117.9585106064408L134.16666666666669,121.67858891765864L135.33333333333334,123.91063590438934L136.5,122.21602586248002L137.66666666666666,115.13158336943891L138.83333333333334,112.6145419136977L140,122.37285795600228L141.16666666666666,113.92546459548969L142.33333333333331,117.09173509718194L143.5,118.99149739819731L144.66666666666669,111.89664826080669L145.83333333333334,114.57422726630956L147,112.28012825182007L148.16666666666666,110.03685682308468L149.33333333333334,113.45835240367634L150.5,112.04400934426106L151.66666666666666,111.19540350861189L152.83333333333331,111.11964601724321L154,118.87548819420267L155.16666666666669,114.42747879853509L156.33333333333334,117.82634962903006L157.5,105.99669515145258L158.66666666666666,102.79954888269728L159.83333333333331,104.34850920161101L161,106.14469741300097L162.16666666666669,108.08922235987664L163.33333333333334,110.55615152186637L164.5,113.76992922294536L165.66666666666666,112.23095543582244L166.83333333333334,110.87416515352783L168,108.32646694406763L169.16666666666666,103.76400594824541L170.33333333333331,106.66080748102331L171.5,106.23185835058574L172.66666666666669,114.20919539032305L173.83333333333334,113.79472933011333L175,104.87794100216512L176.16666666666666,107.32916851337515L177.33333333333331,104.03243890987169L178.5,102.0544011477696L179.66666666666669,97.40033808273799L180.83333333333334,95.04130625373992L182,98.393345594174L183.16666666666666,106.03883965630908L184.33333333333334,108.02570770586152L185.5,104.01695641534265L186.66666666666666,102.9119236710939L187.83333333333331,102.24890402454464L189,106.18515233682372L190.16666666666669,105.07965324402427L191.33333333333334,103.116135758282L192.5,106.27208536704526L193.66666666666666,101.23116664436598L194.83333333333331,96.90639738069584L196,98.21218224028493L197.16666666666669,95.52841274826808L198.33333333333334,93.05133903301625L199.5,90.69828278382339L200.66666666666666,96.65434353226578L201.83333333333334,95.89391988112263L203,92.83723730270808L204.16666666666666,89.70300972559679L205.33333333333331,86.08884913924655L206.5,89.12122490768678L207.66666666666669,87.03999627856318L208.83333333333334,90.55871753892191L210,88.33589786732506L211.16666666666666,94.37010056232506L212.33333333333331,93.22316374149216L213.5,80.8330470508257L214.66666666666669,77.73303713663445L215.83333333333334,84.10773770611952L217,85.3321219876854L218.16666666666666,83.89972250652059L219.33333333333334,87.80774892805121L220.5,91.01936912861476L221.66666666666666,80.81098831316186L222.83333333333331,72.51892977378577L224,71.44434874034789L225.16666666666669,69.93278810024343L226.33333333333334,75.52693419409712L227.5,77.14979781032592L228.66666666666666,74.22286956227197L229.83333333333331,73.33352463348135L231,73.23332368622785L232.16666666666669,73.6066091278966L233.33333333333334,74.69738474054301L234.5,76.65206813819343L235.66666666666666,79.12509620684628L236.83333333333334,79.30869501797541L238,75.08480187684081L239.16666666666666,75.15089437988864L240.33333333333331,73.02352750400964L241.5,74.34753576621083L242.66666666666669,72.9749183458238L243.83333333333334,76.91880633142449L245,79.28513912278493L246.16666666666666,76.80429237980998L247.33333333333331,72.28194226387897L248.5,70.4353442143621L249.66666666666669,66.7269493245268L250.83333333333334,72.30321289860457L252,70.88151260521832L253.16666666666666,66.12783833899881L254.33333333333334,75.41099438745468L255.5,77.5136399363613" style="fill: none;" fill="none"></path></g><g><path stroke="rgb(255, 112, 67)" stroke-width="2px" d="M23.333333333333332,146.76195765443282L24.5,154.88831434826417L25.666666666666664,159.03441592553727L26.833333333333336,162.35739064927023L28,165.46216309473627L29.166666666666668,165.79910163093888L30.333333333333336,166.88269011082778L31.5,167.51309808956665L32.666666666666664,158.6903265320565L33.833333333333336,153.4539142243639L35,152.9423055452698L36.16666666666667,151.33347633797663L37.333333333333336,153.40822888937186L38.5,161.1575296382555L39.666666666666664,157.99825145968998L40.833333333333336,160.00538648655277L42,153.84016320351222L43.16666666666667,157.94379007218294L44.33333333333333,156.93824007488303L45.5,154.60126570330064L46.666666666666664,151.03206201248574L47.833333333333336,155.8251696710789L49,149.5994034737363L50.166666666666664,152.79849656854825L51.33333333333333,149.95047073206L52.5,153.87594048119536L53.66666666666667,157.0980309523627L54.833333333333336,159.89809567682983L56,158.54429022304203L57.166666666666664,155.99838668286978L58.333333333333336,151.00360021510048L59.5,150.60716118934477L60.66666666666667,155.136760295771L61.83333333333333,156.1208955314427L63,153.6775383686983L64.16666666666666,155.67876837766485L65.33333333333333,151.67864188979405L66.5,148.41175398965467L67.66666666666667,153.81951577170776L68.83333333333333,143.19519200261675L70,145.05530427485593L71.16666666666666,149.20520987265238L72.33333333333334,149.09472100537437L73.5,148.16161566483612L74.66666666666667,146.73494427668305L75.83333333333333,145.01212942379036L77,143.1116284920493L78.16666666666667,142.4047339430808L79.33333333333333,140.68037918362975L80.5,144.84663461206807L81.66666666666667,145.17936165519302L82.83333333333333,145.8124000548908L84,144.02519688079843L85.16666666666666,152.92120169824048L86.33333333333334,151.32431610075813L87.5,151.23299676231142L88.66666666666666,146.41074288521114L89.83333333333334,146.11782661907722L91,148.10910307330306L92.16666666666667,148.00365091577584L93.33333333333333,145.33994739733254L94.5,142.44150725620398L95.66666666666667,142.43606721161035L96.83333333333333,142.86620919487504L98,141.3906703447504L99.16666666666667,143.53918526862336L100.33333333333333,140.06083578511422L101.5,140.14085230891476L102.66666666666666,138.8886441931325L103.83333333333334,129.46921063184072L105,127.2847947390343L106.16666666666666,131.17500965120425L107.33333333333334,136.54298066865223L108.5,132.82927095498553L109.66666666666667,133.63488719693152L110.83333333333333,136.28528315600514L112,131.37443825353296L113.16666666666667,128.86133732207048L114.33333333333333,131.68753302720336L115.5,126.88216413616846L116.66666666666667,128.33299906555783L117.83333333333333,125.30284976920196L119,121.75113998750331L120.16666666666666,124.38757255631698L121.33333333333334,117.30132340578284L122.5,113.91638593550405L123.66666666666666,115.78606987112796L124.83333333333334,113.00723381471114L126,112.20674420090278L127.16666666666667,116.92731488047153L128.33333333333331,116.72581905426503L129.5,118.33854176242629L130.66666666666666,118.87276937730219L131.83333333333334,124.82758024030066L133,120.1657602400999L134.16666666666669,116.50186005613604L135.33333333333334,111.26967787561166L136.5,116.36507508529687L137.66666666666666,118.9889074010871L138.83333333333334,114.92893633268662L140,115.09338591557322L141.16666666666666,116.05886384914861L142.33333333333331,118.80518065939818L143.5,117.85253852162103L144.66666666666669,114.24711500500696L145.83333333333334,110.35023685495507L147,106.71189193486137L148.16666666666666,104.962290992826L149.33333333333334,107.81318451779254L150.5,101.28901411477266L151.66666666666666,107.34283859484569L152.83333333333331,104.47404696877487L154,108.82045229722618L155.16666666666669,103.19358514009886L156.33333333333334,105.88514898611456L157.5,105.33305724361965L158.66666666666666,102.40136613799751L159.83333333333331,103.67619354477024L161,104.00768397881303L162.16666666666669,100.30592414905092L163.33333333333334,91.58378577327733L164.5,97.61905133595903L165.66666666666666,102.97383471365148L166.83333333333334,107.92032494415211L168,105.68735079840046L169.16666666666666,98.27988984305395L170.33333333333331,102.93693180788756L171.5,100.5302848665374L172.66666666666669,94.75224427391524L173.83333333333334,84.78433744042559L175,89.63872824606023L176.16666666666666,86.48368626154549L177.33333333333331,86.3242851109201L178.5,98.79740336635673L179.66666666666669,105.41446613577529L180.83333333333334,101.1499934432283L182,96.8576934600132L183.16666666666666,103.81723418194831L184.33333333333334,104.95912038116163L185.5,100.44338765283584L186.66666666666666,91.66626387554825L187.83333333333331,89.0004256693009L189,93.03519320342711L190.16666666666669,93.28903134619509L191.33333333333334,89.97408615168901L192.5,88.41852504500622L193.66666666666666,89.21881242107997L194.83333333333331,87.53195479661993L196,83.91940416181873L197.16666666666669,92.15361034904218L198.33333333333334,85.82558547323036L199.5,87.66304867801443L200.66666666666666,89.19893261090581L201.83333333333334,85.78640287043198L203,84.60569704618942L204.16666666666666,89.09813799949765L205.33333333333331,84.4257080735245L206.5,79.88863375025373L207.66666666666669,84.53428365424935L208.83333333333334,81.25398945635466L210,81.45284298772215L211.16666666666666,75.07107262862628L212.33333333333331,78.17649890110599L213.5,85.67402512246845L214.66666666666669,90.17254085528594L215.83333333333334,87.23737983710177L217,80.70882478835838L218.16666666666666,82.42596221698697L219.33333333333334,84.75646270422673L220.5,81.82070289636194L221.66666666666666,80.92605903168479L222.83333333333331,79.08905468281591L224,75.81982969578688L225.16666666666669,71.69126465346511L226.33333333333334,66.18028355792603L227.5,69.37478505091552L228.66666666666666,67.39083185652146L229.83333333333331,78.76921888569686L231,73.89430417743196L232.16666666666669,71.40276136249389L233.33333333333334,70.34124168355194L234.5,69.70432987618678L235.66666666666666,65.42152870157986L236.83333333333334,66.31909607698262L238,67.29104251224514L239.16666666666666,70.04124042350696L240.33333333333331,70.3911411402015L241.5,73.20150995794678L242.66666666666669,69.68686680074019L243.83333333333334,70.17851696654145L245,67.43966499587617L246.16666666666666,68.830195883623L247.33333333333331,70.96473244633373L248.5,65.74436423364719L249.66666666666669,60.87852693834838L250.83333333333334,61.85967097896031L252,67.21581584116035L253.16666666666666,69.12929240081439L254.33333333333334,78.07867884458577L255.5,69.14592772495324" style="fill: none;" fill="none"></path></g></g></g></g><g opacity="0.2"><g><g><g><path stroke="rgb(51, 187, 238)" stroke-width="2px" d="M23.333333333333332,156.5135832894065L24.5,173.84981409974532L25.666666666666664,165.18169389932805L26.833333333333336,166.2652089243802L28,173.84981409974532L29.166666666666668,152.1795327796936L30.333333333333336,171.682784049641L31.5,174.93331953430175L32.666666666666664,170.59926902458884L33.833333333333336,170.59926902458884L35,161.9311584146673L36.16666666666667,166.2652089243802L37.333333333333336,171.682784049641L38.5,158.6806133395108L39.666666666666664,170.59926902458884L40.833333333333336,148.92898770453712L42,152.1795327796936L43.16666666666667,156.5135832894065L44.33333333333333,166.2652089243802L45.5,139.17736206956343L46.666666666666664,148.92898770453712L47.833333333333336,156.5135832894065L49,143.51142216977203L50.166666666666664,150.01250272958927L51.33333333333333,132.67628150974622L52.5,128.34222140953756L53.66666666666667,135.92682658490267L54.833333333333336,146.76195765443282L56,144.5949371948242L57.166666666666664,138.09384704451125L58.333333333333336,126.17520094992896L59.5,127.25870638448542L60.66666666666667,129.4257364345897L61.83333333333333,130.5092514596419L63,129.4257364345897L64.16666666666666,126.17520094992896L65.33333333333333,148.92898770453712L66.5,142.4279071447199L67.66666666666667,127.25870638448542L68.83333333333333,113.1730302397988L70,122.9246558747725L71.16666666666666,119.67411079961605L72.33333333333334,115.3400602899031L73.5,103.42140460482511L74.66666666666667,118.59059577456388L75.83333333333333,119.67411079961605L77,125.09168592487683L78.16666666666667,120.75762582466818L79.33333333333333,122.9246558747725L80.5,113.1730302397988L81.66666666666667,124.00817089982466L82.83333333333333,105.58843465492942L84,107.75546470503373L85.16666666666666,109.92249475513806L86.33333333333334,115.3400602899031L87.5,92.58627353529496L88.66666666666666,119.67411079961605L89.83333333333334,118.59059577456388L91,108.8389797300859L92.16666666666667,103.42140460482511L93.33333333333333,106.67194967998157L94.5,100.17085952966863L95.66666666666667,95.83679942946L96.83333333333333,100.17085952966863L98,96.92031445451217L99.16666666666667,96.92031445451217L100.33333333333333,107.75546470503373L101.5,91.5027585102428L102.66666666666666,86.08518338498203L103.83333333333334,79.58409323466908L105,98.00382947956433L106.16666666666666,82.83463830982555L107.33333333333334,74.16653729039973L108.5,88.25221343508633L109.66666666666667,71.9995072402954L110.83333333333333,83.9181533348777L112,92.58627353529496L113.16666666666667,94.75328440440784L114.33333333333333,70.91599221524326L115.5,66.58193211503462L116.66666666666667,79.58409323466908L117.83333333333333,77.41706318456477L119,65.49841708998245L120.16666666666666,78.50057820961692L121.33333333333334,62.24787201482601L122.5,58.997326939669534L123.66666666666666,69.8324771901911L124.83333333333334,76.3335481595126L126,62.24787201482601L127.16666666666667,77.41706318456477L128.33333333333331,75.25003313446045L129.5,63.33138703987815L130.66666666666666,62.24787201482601L131.83333333333334,56.830296889565204L133,53.57977099540016L134.16666666666669,70.91599221524326L135.33333333333334,63.33138703987815L136.5,49.24571089519154L137.66666666666666,73.08302226534757L138.83333333333334,56.830296889565204L140,64.41490206493032L141.16666666666666,63.33138703987815L142.33333333333331,69.8324771901911L143.5,61.16435698977384L144.66666666666669,52.49625597034802L145.83333333333334,60.08084196472168L147,58.997326939669534L148.16666666666666,60.08084196472168L149.33333333333334,45.99516582003507L150.5,61.16435698977384L151.66666666666666,44.911650794982904L152.83333333333331,65.49841708998245L154,49.24571089519154L155.16666666666669,52.49625597034802L156.33333333333334,50.32922592024371L157.5,45.99516582003507L158.66666666666666,51.41274094529585L159.83333333333331,48.16219587013938L161,57.91381191461737L162.16666666666669,38.41056064466998L163.33333333333334,42.744620744878596L164.5,31.909489675348468L165.66666666666666,45.99516582003507L166.83333333333334,35.16003475050494L168,31.909489675348468L169.16666666666666,44.911650794982904L170.33333333333331,27.57542957513983L171.5,42.744620744878596L172.66666666666669,47.078680845087234L173.83333333333334,41.66110571982644L175,42.744620744878596L176.16666666666666,51.41274094529585L177.33333333333331,40.57759069477429L178.5,40.57759069477429L179.66666666666669,36.243549775557085L180.83333333333334,51.41274094529585L182,31.909489675348468L183.16666666666666,18.907309374722573L184.33333333333334,29.742459625244138L185.5,26.491914550087685L186.66666666666666,27.57542957513983L187.83333333333331,36.243549775557085L189,43.82813576993076L190.16666666666669,39.49407566972212L191.33333333333334,26.491914550087685L192.5,13.489753430453245L193.66666666666666,38.41056064466998L194.83333333333331,9.155693330244608L196,35.16003475050494L197.16666666666669,13.489753430453245L198.33333333333334,35.16003475050494L199.5,28.658944600191994L200.66666666666666,15.656783480557554L201.83333333333334,24.324884499983355L203,16.740298505609697L204.16666666666666,32.99300470040061L205.33333333333331,9.155693330244608L206.5,26.491914550087685L207.66666666666669,10.239208355296771L208.83333333333334,28.658944600191994L210,30.825974650296303L211.16666666666666,17.823813530661845L212.33333333333331,14.57326845550539L213.5,18.907309374722573L214.66666666666669,15.656783480557554L215.83333333333334,12.40623840540108L217,14.57326845550539L218.16666666666666,10.239208355296771L219.33333333333334,6.988663280140298L220.5,16.740298505609697L221.66666666666666,36.243549775557085L222.83333333333331,9.155693330244608L224,0.48757312982735096L225.16666666666669,14.57326845550539L226.33333333333334,19.990824399774738L227.5,24.324884499983355L228.66666666666666,13.489753430453245L229.83333333333331,8.072178305192462L231,23.24136947493121L232.16666666666669,16.740298505609697L233.33333333333334,2.65460317993166L234.5,17.823813530661845L235.66666666666666,5.905148255088133L236.83333333333334,18.907309374722573L238,-2.762952764337688L239.16666666666666,4.821633230035989L240.33333333333331,2.65460317993166L241.5,5.905148255088133L242.66666666666669,9.155693330244608L243.83333333333334,4.821633230035989L245,8.072178305192462L246.16666666666666,-1.6794377392855235L247.33333333333331,11.322723380348917L248.5,-4.929982814442017L249.66666666666669,-10.3475579397028L250.83333333333334,5.905148255088133L252,11.322723380348917L253.16666666666666,9.155693330244608L254.33333333333334,-1.6794377392855235" style="fill: none;" fill="none"></path></g><g><path stroke="rgb(204, 51, 17)" stroke-width="2px" d="M23.333333333333332,170.59926902458884L24.5,163.01467343971945L25.666666666666664,169.51575399953668L26.833333333333336,160.84764338961514L28,163.01467343971945L29.166666666666668,147.84547267948497L30.333333333333336,168.43223897448453L31.5,171.682784049641L32.666666666666664,161.9311584146673L33.833333333333336,151.09601775464142L35,155.43006826435433L36.16666666666667,163.01467343971945L37.333333333333336,161.9311584146673L38.5,161.9311584146673L39.666666666666664,180.35089465956253L40.833333333333336,141.34439211966773L42,153.26304780474575L43.16666666666667,158.6806133395108L44.33333333333333,156.5135832894065L45.5,167.34872394943235L46.666666666666664,140.26087709461558L47.833333333333336,157.59709831445866L49,166.2652089243802L50.166666666666664,137.0103320194591L51.33333333333333,163.01467343971945L52.5,146.76195765443282L53.66666666666667,152.1795327796936L54.833333333333336,153.26304780474575L56,144.5949371948242L57.166666666666664,141.34439211966773L58.333333333333336,130.5092514596419L59.5,118.59059577456388L60.66666666666667,132.67628150974622L61.83333333333333,144.5949371948242L63,141.34439211966773L64.16666666666666,138.09384704451125L65.33333333333333,141.34439211966773L66.5,131.59276648469404L67.66666666666667,145.67845221987636L68.83333333333333,139.17736206956343L70,143.51142216977203L71.16666666666666,133.75979653479834L72.33333333333334,137.0103320194591L73.5,124.00817089982466L74.66666666666667,112.08952480524236L75.83333333333333,146.76195765443282L77,125.09168592487683L78.16666666666667,109.92249475513806L79.33333333333333,125.09168592487683L80.5,125.09168592487683L81.66666666666667,127.25870638448542L82.83333333333333,124.00817089982466L84,120.75762582466818L85.16666666666666,109.92249475513806L86.33333333333334,108.8389797300859L87.5,122.9246558747725L88.66666666666666,120.75762582466818L89.83333333333334,111.0060097801902L91,135.92682658490267L92.16666666666667,132.67628150974622L93.33333333333333,117.50708074951172L94.5,108.8389797300859L95.66666666666667,130.5092514596419L96.83333333333333,135.92682658490267L98,124.00817089982466L99.16666666666667,112.08952480524236L100.33333333333333,128.34222140953756L101.5,114.25654526485094L102.66666666666666,115.3400602899031L103.83333333333334,107.75546470503373L105,116.42357531495527L106.16666666666666,117.50708074951172L107.33333333333334,119.67411079961605L108.5,106.67194967998157L109.66666666666667,98.00382947956433L110.83333333333333,101.25437455472078L112,104.50491962987728L113.16666666666667,92.58627353529496L114.33333333333333,111.0060097801902L115.5,114.25654526485094L116.66666666666667,109.92249475513806L117.83333333333333,106.67194967998157L119,119.67411079961605L120.16666666666666,112.08952480524236L121.33333333333334,94.75328440440784L122.5,120.75762582466818L123.66666666666666,105.58843465492942L124.83333333333334,107.75546470503373L126,103.42140460482511L127.16666666666667,103.42140460482511L128.33333333333331,101.25437455472078L129.5,107.75546470503373L130.66666666666666,92.58627353529496L131.83333333333334,115.3400602899031L133,86.08518338498203L134.16666666666669,88.25221343508633L135.33333333333334,87.16869841003418L136.5,91.5027585102428L137.66666666666666,93.66978856034711L138.83333333333334,101.25437455472078L140,94.75328440440784L141.16666666666666,100.17085952966863L142.33333333333331,112.08952480524236L143.5,116.42357531495527L144.66666666666669,112.08952480524236L145.83333333333334,91.5027585102428L147,93.66978856034711L148.16666666666666,94.75328440440784L149.33333333333334,86.08518338498203L150.5,91.5027585102428L151.66666666666666,87.16869841003418L152.83333333333331,93.66978856034711L154,100.17085952966863L155.16666666666669,73.08302226534757L156.33333333333334,99.08734450461647L157.5,95.83679942946L158.66666666666666,99.08734450461647L159.83333333333331,101.25437455472078L161,100.17085952966863L162.16666666666669,88.25221343508633L163.33333333333334,89.3357284601385L164.5,91.5027585102428L165.66666666666666,81.75112328477339L166.83333333333334,82.83463830982555L168,101.25437455472078L169.16666666666666,86.08518338498203L170.33333333333331,87.16869841003418L171.5,100.17085952966863L172.66666666666669,79.58409323466908L173.83333333333334,87.16869841003418L175,86.08518338498203L176.16666666666666,86.08518338498203L177.33333333333331,82.83463830982555L178.5,78.50057820961692L179.66666666666669,87.16869841003418L180.83333333333334,82.83463830982555L182,91.5027585102428L183.16666666666666,58.997326939669534L184.33333333333334,65.49841708998245L185.5,80.66760825972123L186.66666666666666,78.50057820961692L187.83333333333331,87.16869841003418L189,65.49841708998245L190.16666666666669,81.75112328477339L191.33333333333334,86.08518338498203L192.5,85.00166835992987L193.66666666666666,83.9181533348777L194.83333333333331,98.00382947956433L196,71.9995072402954L197.16666666666669,69.8324771901911L198.33333333333334,73.08302226534757L199.5,76.3335481595126L200.66666666666666,73.08302226534757L201.83333333333334,87.16869841003418L203,85.00166835992987L204.16666666666666,83.9181533348777L205.33333333333331,75.25003313446045L206.5,63.33138703987815L207.66666666666669,61.16435698977384L208.83333333333334,71.9995072402954L210,58.997326939669534L211.16666666666666,74.16653729039973L212.33333333333331,74.16653729039973L213.5,64.41490206493032L214.66666666666669,67.66544714008678L215.83333333333334,86.08518338498203L217,61.16435698977384L218.16666666666666,78.50057820961692L219.33333333333334,55.74680104550449L220.5,87.16869841003418L221.66666666666666,65.49841708998245L222.83333333333331,73.08302226534757L224,74.16653729039973L225.16666666666669,57.91381191461737L226.33333333333334,68.74896216513893L227.5,53.57977099540016L228.66666666666666,66.58193211503462L229.83333333333331,67.66544714008678L231,75.25003313446045L232.16666666666669,75.25003313446045L233.33333333333334,60.08084196472168L234.5,77.41706318456477L235.66666666666666,55.74680104550449L236.83333333333334,70.91599221524326L238,71.9995072402954L239.16666666666666,63.33138703987815L240.33333333333331,63.33138703987815L241.5,66.58193211503462L242.66666666666669,70.91599221524326L243.83333333333334,71.9995072402954L245,48.16219587013938L246.16666666666666,64.41490206493032L247.33333333333331,48.16219587013938L248.5,61.16435698977384L249.66666666666669,82.83463830982555L250.83333333333334,74.16653729039973L252,67.66544714008678L253.16666666666666,44.911650794982904L254.33333333333334,82.83463830982555L255.5,58.997326939669534" style="fill: none;" fill="none"></path></g><g><path stroke="rgb(0, 119, 187)" stroke-width="2px" d="M23.333333333333332,165.18169389932805L24.5,171.682784049641L25.666666666666664,155.43006826435433L26.833333333333336,174.93331953430175L28,161.9311584146673L29.166666666666668,159.764128364563L30.333333333333336,158.6806133395108L31.5,160.84764338961514L32.666666666666664,148.92898770453712L33.833333333333336,165.18169389932805L35,180.35089465956253L36.16666666666667,177.10034958440608L37.333333333333336,156.5135832894065L38.5,168.43223897448453L39.666666666666664,173.84981409974532L40.833333333333336,156.5135832894065L42,156.5135832894065L43.16666666666667,172.76629907469314L44.33333333333333,168.43223897448453L45.5,160.84764338961514L46.666666666666664,160.84764338961514L47.833333333333336,178.1838646094582L49,165.18169389932805L50.166666666666664,177.10034958440608L51.33333333333333,161.9311584146673L52.5,142.4279071447199L53.66666666666667,158.6806133395108L54.833333333333336,160.84764338961514L56,166.2652089243802L57.166666666666664,166.2652089243802L58.333333333333336,158.6806133395108L59.5,164.0981884647716L60.66666666666667,148.92898770453712L61.83333333333333,180.35089465956253L63,159.764128364563L64.16666666666666,173.84981409974532L65.33333333333333,155.43006826435433L66.5,165.18169389932805L67.66666666666667,154.3465628297979L68.83333333333333,145.67845221987636L70,169.51575399953668L71.16666666666666,148.92898770453712L72.33333333333334,155.43006826435433L73.5,166.2652089243802L74.66666666666667,155.43006826435433L75.83333333333333,159.764128364563L77,171.682784049641L78.16666666666667,167.34872394943235L79.33333333333333,170.59926902458884L80.5,152.1795327796936L81.66666666666667,166.2652089243802L82.83333333333333,150.01250272958927L84,159.764128364563L85.16666666666666,168.43223897448453L86.33333333333334,145.67845221987636L87.5,164.0981884647716L88.66666666666666,145.67845221987636L89.83333333333334,157.59709831445866L91,173.84981409974532L92.16666666666667,159.764128364563L93.33333333333333,169.51575399953668L94.5,140.26087709461558L95.66666666666667,142.4279071447199L96.83333333333333,131.59276648469404L98,161.9311584146673L99.16666666666667,166.2652089243802L100.33333333333333,147.84547267948497L101.5,132.67628150974622L102.66666666666666,150.01250272958927L103.83333333333334,148.92898770453712L105,152.1795327796936L106.16666666666666,160.84764338961514L107.33333333333334,155.43006826435433L108.5,143.51142216977203L109.66666666666667,134.84331155985052L110.83333333333333,138.09384704451125L112,137.0103320194591L113.16666666666667,138.09384704451125L114.33333333333333,118.59059577456388L115.5,112.08952480524236L116.66666666666667,137.0103320194591L117.83333333333333,140.26087709461558L119,128.34222140953756L120.16666666666666,125.09168592487683L121.33333333333334,127.25870638448542L122.5,134.84331155985052L123.66666666666666,128.34222140953756L124.83333333333334,133.75979653479834L126,145.67845221987636L127.16666666666667,130.5092514596419L128.33333333333331,109.92249475513806L129.5,121.84114084972033L130.66666666666666,121.84114084972033L131.83333333333334,113.1730302397988L133,116.42357531495527L134.16666666666669,127.25870638448542L135.33333333333334,127.25870638448542L136.5,119.67411079961605L137.66666666666666,104.50491962987728L138.83333333333334,108.8389797300859L140,137.0103320194591L141.16666666666666,101.25437455472078L142.33333333333331,121.84114084972033L143.5,121.84114084972033L144.66666666666669,101.25437455472078L145.83333333333334,118.59059577456388L147,108.8389797300859L148.16666666666666,106.67194967998157L149.33333333333334,118.59059577456388L150.5,109.92249475513806L151.66666666666666,109.92249475513806L152.83333333333331,111.0060097801902L154,130.5092514596419L155.16666666666669,107.75546470503373L156.33333333333334,122.9246558747725L157.5,88.25221343508633L158.66666666666666,98.00382947956433L159.83333333333331,106.67194967998157L161,108.8389797300859L162.16666666666669,111.0060097801902L163.33333333333334,114.25654526485094L164.5,118.59059577456388L165.66666666666666,109.92249475513806L166.83333333333334,108.8389797300859L168,104.50491962987728L169.16666666666666,96.92031445451217L170.33333333333331,111.0060097801902L171.5,105.58843465492942L172.66666666666669,126.17520094992896L173.83333333333334,113.1730302397988L175,91.5027585102428L176.16666666666666,111.0060097801902L177.33333333333331,99.08734450461647L178.5,99.08734450461647L179.66666666666669,90.41924348519065L180.83333333333334,91.5027585102428L182,103.42140460482511L183.16666666666666,117.50708074951172L184.33333333333334,111.0060097801902L185.5,98.00382947956433L186.66666666666666,101.25437455472078L187.83333333333331,101.25437455472078L189,112.08952480524236L190.16666666666669,103.42140460482511L191.33333333333334,100.17085952966863L192.5,111.0060097801902L193.66666666666666,93.66978856034711L194.83333333333331,90.41924348519065L196,100.17085952966863L197.16666666666669,91.5027585102428L198.33333333333334,89.3357284601385L199.5,87.16869841003418L200.66666666666666,105.58843465492942L201.83333333333334,94.75328440440784L203,88.25221343508633L204.16666666666666,85.00166835992987L205.33333333333331,80.66760825972123L206.5,93.66978856034711L207.66666666666669,83.9181533348777L208.83333333333334,95.83679942946L210,85.00166835992987L211.16666666666666,103.42140460482511L212.33333333333331,91.5027585102428L213.5,62.24787201482601L214.66666666666669,73.08302226534757L215.83333333333334,93.66978856034711L217,87.16869841003418L218.16666666666666,81.75112328477339L219.33333333333334,93.66978856034711L220.5,95.83679942946L221.66666666666666,65.49841708998245L222.83333333333331,60.08084196472168L224,69.8324771901911L225.16666666666669,67.66544714008678L226.33333333333334,83.9181533348777L227.5,79.58409323466908L228.66666666666666,69.8324771901911L229.83333333333331,71.9995072402954L231,73.08302226534757L232.16666666666669,74.16653729039973L233.33333333333334,76.3335481595126L234.5,79.58409323466908L235.66666666666666,82.83463830982555L236.83333333333334,79.58409323466908L238,68.74896216513893L239.16666666666666,75.25003313446045L240.33333333333331,69.8324771901911L241.5,76.3335481595126L242.66666666666669,70.91599221524326L243.83333333333334,82.83463830982555L245,82.83463830982555L246.16666666666666,73.08302226534757L247.33333333333331,65.49841708998245L248.5,67.66544714008678L249.66666666666669,61.16435698977384L250.83333333333334,80.66760825972123L252,68.74896216513893L253.16666666666666,58.997326939669534L254.33333333333334,89.3357284601385L255.5,80.66760825972123" style="fill: none;" fill="none"></path></g><g><path stroke="rgb(255, 112, 67)" stroke-width="2px" d="M23.333333333333332,146.76195765443282L24.5,159.764128364563L25.666666666666664,163.01467343971945L26.833333333333336,166.2652089243802L28,169.51575399953668L29.166666666666668,166.2652089243802L30.333333333333336,168.43223897448453L31.5,168.43223897448453L32.666666666666664,145.67845221987636L33.833333333333336,145.67845221987636L35,152.1795327796936L36.16666666666667,148.92898770453712L37.333333333333336,156.5135832894065L38.5,172.76629907469314L39.666666666666664,153.26304780474575L40.833333333333336,163.01467343971945L42,144.5949371948242L43.16666666666667,164.0981884647716L44.33333333333333,155.43006826435433L45.5,151.09601775464142L46.666666666666664,145.67845221987636L47.833333333333336,163.01467343971945L49,140.26087709461558L50.166666666666664,157.59709831445866L51.33333333333333,145.67845221987636L52.5,159.764128364563L53.66666666666667,161.9311584146673L54.833333333333336,164.0981884647716L56,156.5135832894065L57.166666666666664,152.1795327796936L58.333333333333336,143.51142216977203L59.5,150.01250272958927L60.66666666666667,161.9311584146673L61.83333333333333,157.59709831445866L63,150.01250272958927L64.16666666666666,158.6806133395108L65.33333333333333,145.67845221987636L66.5,143.51142216977203L67.66666666666667,161.9311584146673L68.83333333333333,127.25870638448542L70,147.84547267948497L71.16666666666666,155.43006826435433L72.33333333333334,148.92898770453712L73.5,146.76195765443282L74.66666666666667,144.5949371948242L75.83333333333333,142.4279071447199L77,140.26087709461558L78.16666666666667,141.34439211966773L79.33333333333333,138.09384704451125L80.5,151.09601775464142L81.66666666666667,145.67845221987636L82.83333333333333,146.76195765443282L84,141.34439211966773L85.16666666666666,166.2652089243802L86.33333333333334,148.92898770453712L87.5,151.09601775464142L88.66666666666666,139.17736206956343L89.83333333333334,145.67845221987636L91,151.09601775464142L92.16666666666667,147.84547267948497L93.33333333333333,141.34439211966773L94.5,138.09384704451125L95.66666666666667,142.4279071447199L96.83333333333333,143.51142216977203L98,139.17736206956343L99.16666666666667,146.76195765443282L100.33333333333333,134.84331155985052L101.5,140.26087709461558L102.66666666666666,137.0103320194591L103.83333333333334,115.3400602899031L105,124.00817089982466L106.16666666666666,137.0103320194591L107.33333333333334,144.5949371948242L108.5,127.25870638448542L109.66666666666667,134.84331155985052L110.83333333333333,140.26087709461558L112,124.00817089982466L113.16666666666667,125.09168592487683L114.33333333333333,135.92682658490267L115.5,119.67411079961605L116.66666666666667,130.5092514596419L117.83333333333333,120.75762582466818L119,116.42357531495527L120.16666666666666,128.34222140953756L121.33333333333334,106.67194967998157L122.5,108.8389797300859L123.66666666666666,118.59059577456388L124.83333333333334,108.8389797300859L126,111.0060097801902L127.16666666666667,124.00817089982466L128.33333333333331,116.42357531495527L129.5,120.75762582466818L130.66666666666666,119.67411079961605L131.83333333333334,133.75979653479834L133,113.1730302397988L134.16666666666669,111.0060097801902L135.33333333333334,103.42140460482511L136.5,124.00817089982466L137.66666666666666,122.9246558747725L138.83333333333334,108.8389797300859L140,115.3400602899031L141.16666666666666,117.50708074951172L142.33333333333331,122.9246558747725L143.5,116.42357531495527L144.66666666666669,108.8389797300859L145.83333333333334,104.50491962987728L147,101.25437455472078L148.16666666666666,102.33788957977295L149.33333333333334,112.08952480524236L150.5,91.5027585102428L151.66666666666666,116.42357531495527L152.83333333333331,100.17085952966863L154,115.3400602899031L155.16666666666669,94.75328440440784L156.33333333333334,109.92249475513806L157.5,104.50491962987728L158.66666666666666,98.00382947956433L159.83333333333331,105.58843465492942L161,104.50491962987728L162.16666666666669,94.75328440440784L163.33333333333334,78.50057820961692L164.5,106.67194967998157L165.66666666666666,111.0060097801902L166.83333333333334,115.3400602899031L168,102.33788957977295L169.16666666666666,87.16869841003418L170.33333333333331,109.92249475513806L171.5,96.92031445451217L172.66666666666669,86.08518338498203L173.83333333333334,69.8324771901911L175,96.92031445451217L176.16666666666666,81.75112328477339L177.33333333333331,86.08518338498203L178.5,117.50708074951172L179.66666666666669,115.3400602899031L180.83333333333334,94.75328440440784L182,90.41924348519065L183.16666666666666,114.25654526485094L184.33333333333334,106.67194967998157L185.5,93.66978856034711L186.66666666666666,78.50057820961692L187.83333333333331,85.00166835992987L189,99.08734450461647L190.16666666666669,93.66978856034711L191.33333333333334,85.00166835992987L192.5,86.08518338498203L193.66666666666666,90.41924348519065L194.83333333333331,85.00166835992987L196,78.50057820961692L197.16666666666669,104.50491962987728L198.33333333333334,76.3335481595126L199.5,90.41924348519065L200.66666666666666,91.5027585102428L201.83333333333334,80.66760825972123L203,82.83463830982555L204.16666666666666,95.83679942946L205.33333333333331,77.41706318456477L206.5,73.08302226534757L207.66666666666669,91.5027585102428L208.83333333333334,76.3335481595126L210,81.75112328477339L211.16666666666666,65.49841708998245L212.33333333333331,82.83463830982555L213.5,96.92031445451217L214.66666666666669,96.92031445451217L215.83333333333334,82.83463830982555L217,70.91599221524326L218.16666666666666,85.00166835992987L219.33333333333334,88.25221343508633L220.5,77.41706318456477L221.66666666666666,79.58409323466908L222.83333333333331,76.3335481595126L224,70.91599221524326L225.16666666666669,65.49841708998245L226.33333333333334,57.91381191461737L227.5,74.16653729039973L228.66666666666666,64.41490206493032L229.83333333333331,95.83679942946L231,66.58193211503462L232.16666666666669,67.66544714008678L233.33333333333334,68.74896216513893L234.5,68.74896216513893L235.66666666666666,58.997326939669534L236.83333333333334,67.66544714008678L238,68.74896216513893L239.16666666666666,74.16653729039973L240.33333333333331,70.91599221524326L241.5,77.41706318456477L242.66666666666669,64.41490206493032L243.83333333333334,70.91599221524326L245,63.33138703987815L246.16666666666666,70.91599221524326L247.33333333333331,74.16653729039973L248.5,57.91381191461737L249.66666666666669,53.57977099540016L250.83333333333334,63.33138703987815L252,75.25003313446045L253.16666666666666,71.9995072402954L254.33333333333334,91.5027585102428L255.5,55.74680104550449" style="fill: none;" fill="none"></path></g></g></g></g></g></g><g transform="translate(50, 176)" clip-path="url(#clip_1)"><clipPath id="clip_1"><rect width="279" height="22"></rect></clipPath><g><g><line x1="0" y1="0" x2="0" y2="5" style="visibility: inherit;" fill="rgb(0, 0, 0)" stroke="rgb(204, 204, 204)" stroke-width="1px"></line><line x1="23.333333333333332" y1="0" x2="23.333333333333332" y2="5" style="visibility: inherit;" fill="rgb(0, 0, 0)" stroke="rgb(204, 204, 204)" stroke-width="1px"></line><line x1="46.666666666666664" y1="0" x2="46.666666666666664" y2="5" style="visibility: inherit;" fill="rgb(0, 0, 0)" stroke="rgb(204, 204, 204)" stroke-width="1px"></line><line x1="70" y1="0" x2="70" y2="5" style="visibility: inherit;" fill="rgb(0, 0, 0)" stroke="rgb(204, 204, 204)" stroke-width="1px"></line><line x1="93.33333333333333" y1="0" x2="93.33333333333333" y2="5" style="visibility: inherit;" fill="rgb(0, 0, 0)" stroke="rgb(204, 204, 204)" stroke-width="1px"></line><line x1="116.66666666666667" y1="0" x2="116.66666666666667" y2="5" style="visibility: inherit;" fill="rgb(0, 0, 0)" stroke="rgb(204, 204, 204)" stroke-width="1px"></line><line x1="140" y1="0" x2="140" y2="5" style="visibility: inherit;" fill="rgb(0, 0, 0)" stroke="rgb(204, 204, 204)" stroke-width="1px"></line><line x1="163.33333333333334" y1="0" x2="163.33333333333334" y2="5" style="visibility: inherit;" fill="rgb(0, 0, 0)" stroke="rgb(204, 204, 204)" stroke-width="1px"></line><line x1="186.66666666666666" y1="0" x2="186.66666666666666" y2="5" style="visibility: inherit;" fill="rgb(0, 0, 0)" stroke="rgb(204, 204, 204)" stroke-width="1px"></line><line x1="210" y1="0" x2="210" y2="5" style="visibility: inherit;" fill="rgb(0, 0, 0)" stroke="rgb(204, 204, 204)" stroke-width="1px"></line><line x1="233.33333333333334" y1="0" x2="233.33333333333334" y2="5" style="visibility: inherit;" fill="rgb(0, 0, 0)" stroke="rgb(204, 204, 204)" stroke-width="1px"></line><line x1="256.66666666666663" y1="0" x2="256.66666666666663" y2="5" style="visibility: inherit;" fill="rgb(0, 0, 0)" stroke="rgb(204, 204, 204)" stroke-width="1px"></line><line x1="280" y1="0" x2="280" y2="5" style="visibility: inherit;" fill="rgb(0, 0, 0)" stroke="rgb(204, 204, 204)" stroke-width="1px"></line></g><g transform="translate(0, 8)"><text x="0" y="0" dx="0em" dy="0.95em" style="text-anchor: middle; visibility: hidden; font-family: Roboto, sans-serif; font-size: 12px; font-weight: 200;" fill="rgb(33, 33, 33)" stroke="none" stroke-width="1px">-20</text><text x="23.333333333333332" y="0" dx="0em" dy="0.95em" style="text-anchor: middle; visibility: inherit; font-family: Roboto, sans-serif; font-size: 12px; font-weight: 200;" fill="rgb(33, 33, 33)" stroke="none" stroke-width="1px">0</text><text x="46.666666666666664" y="0" dx="0em" dy="0.95em" style="text-anchor: middle; visibility: hidden; font-family: Roboto, sans-serif; font-size: 12px; font-weight: 200;" fill="rgb(33, 33, 33)" stroke="none" stroke-width="1px">20</text><text x="70" y="0" dx="0em" dy="0.95em" style="text-anchor: middle; visibility: inherit; font-family: Roboto, sans-serif; font-size: 12px; font-weight: 200;" fill="rgb(33, 33, 33)" stroke="none" stroke-width="1px">40</text><text x="93.33333333333333" y="0" dx="0em" dy="0.95em" style="text-anchor: middle; visibility: hidden; font-family: Roboto, sans-serif; font-size: 12px; font-weight: 200;" fill="rgb(33, 33, 33)" stroke="none" stroke-width="1px">60</text><text x="116.66666666666667" y="0" dx="0em" dy="0.95em" style="text-anchor: middle; visibility: inherit; font-family: Roboto, sans-serif; font-size: 12px; font-weight: 200;" fill="rgb(33, 33, 33)" stroke="none" stroke-width="1px">80</text><text x="140" y="0" dx="0em" dy="0.95em" style="text-anchor: middle; visibility: hidden; font-family: Roboto, sans-serif; font-size: 12px; font-weight: 200;" fill="rgb(33, 33, 33)" stroke="none" stroke-width="1px">100</text><text x="163.33333333333334" y="0" dx="0em" dy="0.95em" style="text-anchor: middle; visibility: inherit; font-family: Roboto, sans-serif; font-size: 12px; font-weight: 200;" fill="rgb(33, 33, 33)" stroke="none" stroke-width="1px">120</text><text x="186.66666666666666" y="0" dx="0em" dy="0.95em" style="text-anchor: middle; visibility: hidden; font-family: Roboto, sans-serif; font-size: 12px; font-weight: 200;" fill="rgb(33, 33, 33)" stroke="none" stroke-width="1px">140</text><text x="210" y="0" dx="0em" dy="0.95em" style="text-anchor: middle; visibility: inherit; font-family: Roboto, sans-serif; font-size: 12px; font-weight: 200;" fill="rgb(33, 33, 33)" stroke="none" stroke-width="1px">160</text><text x="233.33333333333334" y="0" dx="0em" dy="0.95em" style="text-anchor: middle; visibility: hidden; font-family: Roboto, sans-serif; font-size: 12px; font-weight: 200;" fill="rgb(33, 33, 33)" stroke="none" stroke-width="1px">180</text><text x="256.66666666666663" y="0" dx="0em" dy="0.95em" style="text-anchor: middle; visibility: inherit; font-family: Roboto, sans-serif; font-size: 12px; font-weight: 200;" fill="rgb(33, 33, 33)" stroke="none" stroke-width="1px">200</text><text x="280" y="0" dx="0em" dy="0.95em" style="text-anchor: middle; visibility: hidden; font-family: Roboto, sans-serif; font-size: 12px; font-weight: 200;" fill="rgb(33, 33, 33)" stroke="none" stroke-width="1px">220</text></g><line x1="0" y1="0" x2="280" y2="0" fill="rgb(0, 0, 0)" stroke="rgb(204, 204, 204)" stroke-width="1px"></line></g></g></g></g></svg>