<svg viewBox="0 0 330 199.9921875" xmlns="http://www.w3.org/2000/svg"><g><g><g><g><g><line x1="50" y1="176.992" x2="45" y2="176.992" style="visibility: inherit;" fill="rgb(0, 0, 0)" stroke="rgb(204, 204, 204)" stroke-width="1px"></line><line x1="50" y1="163.37723076923078" x2="45" y2="163.37723076923078" style="visibility: inherit;" fill="rgb(0, 0, 0)" stroke="rgb(204, 204, 204)" stroke-width="1px"></line><line x1="50" y1="149.76246153846154" x2="45" y2="149.76246153846154" style="visibility: inherit;" fill="rgb(0, 0, 0)" stroke="rgb(204, 204, 204)" stroke-width="1px"></line><line x1="50" y1="136.1476923076923" x2="45" y2="136.1476923076923" style="visibility: inherit;" fill="rgb(0, 0, 0)" stroke="rgb(204, 204, 204)" stroke-width="1px"></line><line x1="50" y1="122.53292307692307" x2="45" y2="122.53292307692307" style="visibility: inherit;" fill="rgb(0, 0, 0)" stroke="rgb(204, 204, 204)" stroke-width="1px"></line><line x1="50" y1="108.91815384615383" x2="45" y2="108.91815384615383" style="visibility: inherit;" fill="rgb(0, 0, 0)" stroke="rgb(204, 204, 204)" stroke-width="1px"></line><line x1="50" y1="95.3033846153846" x2="45" y2="95.3033846153846" style="visibility: inherit;" fill="rgb(0, 0, 0)" stroke="rgb(204, 204, 204)" stroke-width="1px"></line><line x1="50" y1="81.68861538461536" x2="45" y2="81.68861538461536" style="visibility: inherit;" fill="rgb(0, 0, 0)" stroke="rgb(204, 204, 204)" stroke-width="1px"></line><line x1="50" y1="68.07384615384612" x2="45" y2="68.07384615384612" style="visibility: inherit;" fill="rgb(0, 0, 0)" stroke="rgb(204, 204, 204)" stroke-width="1px"></line><line x1="50" y1="54.45907692307692" x2="45" y2="54.45907692307692" style="visibility: inherit;" fill="rgb(0, 0, 0)" stroke="rgb(204, 204, 204)" stroke-width="1px"></line><line x1="50" y1="40.844307692307666" x2="45" y2="40.844307692307666" style="visibility: inherit;" fill="rgb(0, 0, 0)" stroke="rgb(204, 204, 204)" stroke-width="1px"></line><line x1="50" y1="27.22953846153842" x2="45" y2="27.22953846153842" style="visibility: inherit;" fill="rgb(0, 0, 0)" stroke="rgb(204, 204, 204)" stroke-width="1px"></line><line x1="50" y1="13.614769230769221" x2="45" y2="13.614769230769221" style="visibility: inherit;" fill="rgb(0, 0, 0)" stroke="rgb(204, 204, 204)" stroke-width="1px"></line><line x1="50" y1="0" x2="45" y2="0" style="visibility: inherit;" fill="rgb(0, 0, 0)" stroke="rgb(204, 204, 204)" stroke-width="1px"></line></g><g transform="translate(40, 0)"><text x="0" y="176.992" dx="0em" dy="0.3em" style="text-anchor: end; visibility: hidden; font-family: Roboto, sans-serif; font-size: 12px; font-weight: 200;" fill="rgb(33, 33, 33)" stroke="none" stroke-width="1px">-1.2</text><text x="0" y="163.37723076923078" dx="0em" dy="0.3em" style="text-anchor: end; visibility: inherit; font-family: Roboto, sans-serif; font-size: 12px; font-weight: 200;" fill="rgb(33, 33, 33)" stroke="none" stroke-width="1px">-1</text><text x="0" y="149.76246153846154" dx="0em" dy="0.3em" style="text-anchor: end; visibility: hidden; font-family: Roboto, sans-serif; font-size: 12px; font-weight: 200;" fill="rgb(33, 33, 33)" stroke="none" stroke-width="1px">-0.8</text><text x="0" y="136.1476923076923" dx="0em" dy="0.3em" style="text-anchor: end; visibility: inherit; font-family: Roboto, sans-serif; font-size: 12px; font-weight: 200;" fill="rgb(33, 33, 33)" stroke="none" stroke-width="1px">-0.6</text><text x="0" y="122.53292307692307" dx="0em" dy="0.3em" style="text-anchor: end; visibility: hidden; font-family: Roboto, sans-serif; font-size: 12px; font-weight: 200;" fill="rgb(33, 33, 33)" stroke="none" stroke-width="1px">-0.4</text><text x="0" y="108.91815384615383" dx="0em" dy="0.3em" style="text-anchor: end; visibility: inherit; font-family: Roboto, sans-serif; font-size: 12px; font-weight: 200;" fill="rgb(33, 33, 33)" stroke="none" stroke-width="1px">-0.2</text><text x="0" y="95.3033846153846" dx="0em" dy="0.3em" style="text-anchor: end; visibility: hidden; font-family: Roboto, sans-serif; font-size: 12px; font-weight: 200;" fill="rgb(33, 33, 33)" stroke="none" stroke-width="1px">0</text><text x="0" y="81.68861538461536" dx="0em" dy="0.3em" style="text-anchor: end; visibility: inherit; font-family: Roboto, sans-serif; font-size: 12px; font-weight: 200;" fill="rgb(33, 33, 33)" stroke="none" stroke-width="1px">0.2</text><text x="0" y="68.07384615384612" dx="0em" dy="0.3em" style="text-anchor: end; visibility: hidden; font-family: Roboto, sans-serif; font-size: 12px; font-weight: 200;" fill="rgb(33, 33, 33)" stroke="none" stroke-width="1px">0.4</text><text x="0" y="54.45907692307692" dx="0em" dy="0.3em" style="text-anchor: end; visibility: inherit; font-family: Roboto, sans-serif; font-size: 12px; font-weight: 200;" fill="rgb(33, 33, 33)" stroke="none" stroke-width="1px">0.6</text><text x="0" y="40.844307692307666" dx="0em" dy="0.3em" style="text-anchor: end; visibility: hidden; font-family: Roboto, sans-serif; font-size: 12px; font-weight: 200;" fill="rgb(33, 33, 33)" stroke="none" stroke-width="1px">0.8</text><text x="0" y="27.22953846153842" dx="0em" dy="0.3em" style="text-anchor: end; visibility: inherit; font-family: Roboto, sans-serif; font-size: 12px; font-weight: 200;" fill="rgb(33, 33, 33)" stroke="none" stroke-width="1px">1</text><text x="0" y="13.614769230769221" dx="0em" dy="0.3em" style="text-anchor: end; visibility: hidden; font-family: Roboto, sans-serif; font-size: 12px; font-weight: 200;" fill="rgb(33, 33, 33)" stroke="none" stroke-width="1px">1.2</text><text x="0" y="0" dx="0em" dy="0.3em" style="text-anchor: end; visibility: hidden; font-family: Roboto, sans-serif; font-size: 12px; font-weight: 200;" fill="rgb(33, 33, 33)" stroke="none" stroke-width="1px">1.4</text></g><line x1="50" y1="0" x2="50" y2="176.992" fill="rgb(0, 0, 0)" stroke="rgb(204, 204, 204)" stroke-width="1px"></line></g></g><g transform="translate(50, 0)" clip-path="url(#clip_0)"><clipPath id="clip_0"><rect width="279" height="176"></rect></clipPath><g><g><g><line x1="0" y1="0" x2="0" y2="176.992" fill="rgb(0, 0, 0)" stroke="rgb(66, 66, 66)" stroke-width="1px" opacity="0.25"></line><line x1="23.333333333333332" y1="0" x2="23.333333333333332" y2="176.992" fill="rgb(0, 0, 0)" stroke="rgb(66, 66, 66)" stroke-width="1px" opacity="0.25"></line><line x1="46.666666666666664" y1="0" x2="46.666666666666664" y2="176.992" fill="rgb(0, 0, 0)" stroke="rgb(66, 66, 66)" stroke-width="1px" opacity="0.25"></line><line x1="70" y1="0" x2="70" y2="176.992" fill="rgb(0, 0, 0)" stroke="rgb(66, 66, 66)" stroke-width="1px" opacity="0.25"></line><line x1="93.33333333333333" y1="0" x2="93.33333333333333" y2="176.992" fill="rgb(0, 0, 0)" stroke="rgb(66, 66, 66)" stroke-width="1px" opacity="0.25"></line><line x1="116.66666666666667" y1="0" x2="116.66666666666667" y2="176.992" fill="rgb(0, 0, 0)" stroke="rgb(66, 66, 66)" stroke-width="1px" opacity="0.25"></line><line x1="140" y1="0" x2="140" y2="176.992" fill="rgb(0, 0, 0)" stroke="rgb(66, 66, 66)" stroke-width="1px" opacity="0.25"></line><line x1="163.33333333333334" y1="0" x2="163.33333333333334" y2="176.992" fill="rgb(0, 0, 0)" stroke="rgb(66, 66, 66)" stroke-width="1px" opacity="0.25"></line><line x1="186.66666666666666" y1="0" x2="186.66666666666666" y2="176.992" fill="rgb(0, 0, 0)" stroke="rgb(66, 66, 66)" stroke-width="1px" opacity="0.25"></line><line x1="210" y1="0" x2="210" y2="176.992" fill="rgb(0, 0, 0)" stroke="rgb(66, 66, 66)" stroke-width="1px" opacity="0.25"></line><line x1="233.33333333333334" y1="0" x2="233.33333333333334" y2="176.992" fill="rgb(0, 0, 0)" stroke="rgb(66, 66, 66)" stroke-width="1px" opacity="0.25"></line><line x1="256.66666666666663" y1="0" x2="256.66666666666663" y2="176.992" fill="rgb(0, 0, 0)" stroke="rgb(66, 66, 66)" stroke-width="1px" opacity="0.25"></line><line x1="280" y1="0" x2="280" y2="176.992" fill="rgb(0, 0, 0)" stroke="rgb(66, 66, 66)" stroke-width="1px" opacity="0.25"></line></g><g><line x1="0" y1="176.992" x2="280" y2="176.992" fill="rgb(0, 0, 0)" stroke="rgb(66, 66, 66)" stroke-width="1px" opacity="0.25"></line><line x1="0" y1="163.37723076923078" x2="280" y2="163.37723076923078" fill="rgb(0, 0, 0)" stroke="rgb(66, 66, 66)" stroke-width="1px" opacity="0.25"></line><line x1="0" y1="149.76246153846154" x2="280" y2="149.76246153846154" fill="rgb(0, 0, 0)" stroke="rgb(66, 66, 66)" stroke-width="1px" opacity="0.25"></line><line x1="0" y1="136.1476923076923" x2="280" y2="136.1476923076923" fill="rgb(0, 0, 0)" stroke="rgb(66, 66, 66)" stroke-width="1px" opacity="0.25"></line><line x1="0" y1="122.53292307692307" x2="280" y2="122.53292307692307" fill="rgb(0, 0, 0)" stroke="rgb(66, 66, 66)" stroke-width="1px" opacity="0.25"></line><line x1="0" y1="108.91815384615383" x2="280" y2="108.91815384615383" fill="rgb(0, 0, 0)" stroke="rgb(66, 66, 66)" stroke-width="1px" opacity="0.25"></line><line x1="0" y1="95.3033846153846" x2="280" y2="95.3033846153846" fill="rgb(0, 0, 0)" stroke="rgb(66, 66, 66)" stroke-width="1px" opacity="0.25"></line><line x1="0" y1="81.68861538461536" x2="280" y2="81.68861538461536" fill="rgb(0, 0, 0)" stroke="rgb(66, 66, 66)" stroke-width="1px" opacity="0.25"></line><line x1="0" y1="68.07384615384612" x2="280" y2="68.07384615384612" fill="rgb(0, 0, 0)" stroke="rgb(66, 66, 66)" stroke-width="1px" opacity="0.25"></line><line x1="0" y1="54.45907692307692" x2="280" y2="54.45907692307692" fill="rgb(0, 0, 0)" stroke="rgb(66, 66, 66)" stroke-width="1px" opacity="0.25"></line><line x1="0" y1="40.844307692307666" x2="280" y2="40.844307692307666" fill="rgb(0, 0, 0)" stroke="rgb(66, 66, 66)" stroke-width="1px" opacity="0.25"></line><line x1="0" y1="27.22953846153842" x2="280" y2="27.22953846153842" fill="rgb(0, 0, 0)" stroke="rgb(66, 66, 66)" stroke-width="1px" opacity="0.25"></line><line x1="0" y1="13.614769230769221" x2="280" y2="13.614769230769221" fill="rgb(0, 0, 0)" stroke="rgb(66, 66, 66)" stroke-width="1px" opacity="0.25"></line><line x1="0" y1="0" x2="280" y2="0" fill="rgb(0, 0, 0)" stroke="rgb(66, 66, 66)" stroke-width="1px" opacity="0.25"></line></g></g></g><g><g><line x1="0" y1="95.3033846153846" x2="280" y2="95.3033846153846" fill="rgb(0, 0, 0)" stroke="rgb(153, 153, 153)" stroke-width="1.5px"></line></g></g><g><g><line x1="23.333333333333332" y1="0" x2="23.333333333333332" y2="176.992" fill="rgb(0, 0, 0)" stroke="rgb(153, 153, 153)" stroke-width="1.5px"></line></g></g><g><g><g><g><g><path stroke="rgb(51, 187, 238)" stroke-width="2px" d="M23.333333333333332,28.240168670067387L24.5,36.04937573948269L25.666666666666664,43.41793320849849L26.833333333333336,52.30872219171673L28,59.35717635357615L29.166666666666668,63.50654106728092L30.333333333333336,67.21024311035156L31.5,68.81760082467373L32.666666666666664,71.78327306295586L33.833333333333336,73.10410417573995L35,74.69422005144806L36.16666666666667,75.81646508970277L37.333333333333336,76.5533257461492L38.5,76.75940504583684L39.666666666666664,75.73947546425L40.833333333333336,76.6730289300931L42,76.9116248488608L43.16666666666667,76.49685778832075L44.33333333333333,77.28387323254246L45.5,78.75896314288235L46.666666666666664,80.17517559690037L47.833333333333336,81.34354085884694L49,82.54330618254164L50.166666666666664,82.74275102384749L51.33333333333333,81.97296802476878L52.5,81.56908448905777L53.66666666666667,81.57310155023364L54.833333333333336,82.65855067926472L56,82.28436743833808L57.166666666666664,82.35493126922215L58.333333333333336,83.14357938509148L59.5,83.42069878660315L60.66666666666667,83.23997840497536L61.83333333333333,83.45816254750927L63,84.47278289064364L64.16666666666666,85.90670989204993L65.33333333333333,86.73062673652224L66.5,85.45155830388343L67.66666666666667,86.1260802252474L68.83333333333333,86.18706444030245L70,85.87976373196865L71.16666666666666,86.19653255849819L72.33333333333334,86.10698059088736L73.5,85.81700451612204L74.66666666666667,85.69501027649403L75.83333333333333,85.85512504182076L77,85.81878209482552L78.16666666666667,86.29555230022454L79.33333333333333,86.58245635832145L80.5,86.89935924786965L81.66666666666667,86.98810666444636L82.83333333333333,86.81242288098447L84,86.6208581263054L85.16666666666666,86.74992660424618L86.33333333333334,86.88565778336881L87.5,87.18958883547862L88.66666666666666,87.7305029774855L89.83333333333334,88.28715768909716L91,88.75217079664537L92.16666666666667,88.81272800963865L93.33333333333333,88.3920860611836L94.5,88.45760474446332L95.66666666666667,88.37174235357408L96.83333333333333,87.98390967564964L98,88.14420680186353L99.16666666666667,87.87673089046278L100.33333333333333,88.34451194932963L101.5,88.30759545029025L102.66666666666666,84.99611112560063L103.83333333333334,86.10832738130091L105,87.1348239104612L106.16666666666666,87.93622949557222L107.33333333333334,88.55244116288576L108.5,89.22423998841138L109.66666666666667,89.96424619786849L110.83333333333333,90.32435101287356L112,89.99400547845285L113.16666666666667,88.98970902534474L114.33333333333333,82.624836430556L115.5,81.58013734763601L116.66666666666667,83.55535715691428L117.83333333333333,85.80364279961326L119,86.99938427155779L120.16666666666666,87.8854165689525L121.33333333333334,88.4512850461671L122.5,88.87191448556045L123.66666666666666,89.40515005601486L124.83333333333334,89.74038093542389L126,90.34915298005953L127.16666666666667,91.30785277871406L128.33333333333331,92.8022004090394L129.5,93.61526441195373L130.66666666666666,94.05685299853175L131.83333333333334,94.43737071322566L133,95.53977464394808L134.16666666666669,96.8210221627022L135.33333333333334,97.65474583057372L136.5,98.82352327934478L137.66666666666666,100.09065092491484L138.83333333333334,101.88475515649496L140,102.5647335262533L141.16666666666666,103.50367611931958L142.33333333333331,104.86576641350047L143.5,105.65835818763594L144.66666666666669,108.09800162574155L145.83333333333334,110.23835559028961L147,112.70304991420302L148.16666666666666,115.25662253386538L149.33333333333334,116.99000842007484L150.5,119.46393901637808L151.66666666666666,121.54905583765277L152.83333333333331,123.77367854477635L154,124.5723956898165L155.16666666666669,125.29506971841894L156.33333333333334,127.46164712855081L157.5,129.39569428175741L158.66666666666666,131.33711190338624L159.83333333333331,132.994535352927L161,135.3821899645145L162.16666666666669,136.82522515829527L163.33333333333334,137.93001295142247L164.5,139.74449833605078L165.66666666666666,139.8042242485881L166.83333333333334,141.2437125028436L168,142.08319343745728L169.16666666666666,143.56218096808112L170.33333333333331,144.53171386907545L171.5,145.44718064741292L172.66666666666669,146.76962065850952L173.83333333333334,147.91989463191507L175,148.90866632984813L176.16666666666666,149.60468516572786L177.33333333333331,150.08358283335158L178.5,150.9849211997621L179.66666666666669,151.81491809308724L180.83333333333334,152.56611343103123L182,152.2793930730559L183.16666666666666,153.18296652773248L184.33333333333334,153.47562359251697L185.5,153.85766918666158L186.66666666666666,154.28319923585514L187.83333333333331,154.8561007767238L189,155.30246280878657L190.16666666666669,155.82638890447268L191.33333333333334,156.60353363758904L192.5,157.02733177805936L193.66666666666666,157.59308842148275L194.83333333333331,157.70698826025657L196,158.04991335128616L197.16666666666669,158.179796076192L198.33333333333334,158.42220286021856L199.5,158.90269886597713L200.66666666666666,159.1288174495043L201.83333333333334,159.5330297094393L203,159.86551222656828L204.16666666666666,160.00485796765483L205.33333333333331,160.350009739089L206.5,160.69324836441663L207.66666666666669,160.77273332874142L208.83333333333334,160.62694889276676L210,160.29579834208985L211.16666666666666,160.6459683928835L212.33333333333331,160.79396281573827L213.5,161.01426360898452L214.66666666666669,161.24191909279645L215.83333333333334,161.39582337539787L217,161.54195239585826L218.16666666666666,161.58792664410723L219.33333333333334,161.63003710541483L220.5,161.4587166632733L221.66666666666666,161.56499690951463L222.83333333333331,161.2916080818801L224,158.6723904714519L225.16666666666669,158.86612667929916L226.33333333333334,158.89726441066506L227.5,158.31939785456177L228.66666666666666,158.3607259027489L229.83333333333331,158.97929983068366L231,159.6497851004835L232.16666666666669,160.54846969732813L233.33333333333334,161.0664515243013L234.5,161.55577463291291L235.66666666666666,161.91899225096734L236.83333333333334,161.90670090648155L238,162.08663408788354L239.16666666666666,162.11497089791115L240.33333333333331,162.02154358986598L241.5,162.19363654045992L242.66666666666669,162.3320125585838L243.83333333333334,162.4434911046036L245,162.51375895572855L246.16666666666666,162.5349228252663L247.33333333333331,162.52822621372857L248.5,162.6607209858407L249.66666666666669,162.61720690503498L250.83333333333334,162.18797111696836L252,162.34003602752543L253.16666666666666,162.41428533692493L254.33333333333334,162.5063403365004L255.5,162.52643198938756" style="fill: none;" fill="none"></path></g><g><path stroke="rgb(204, 51, 17)" stroke-width="2px" d="M23.333333333333332,20.878119800567585L24.5,19.47912836984484L25.666666666666664,19.456025362502814L26.833333333333336,19.810319499793618L28,20.020093852718258L29.166666666666668,19.616704659374587L30.333333333333336,19.759163460951587L31.5,19.691598364016677L32.666666666666664,19.921548085785457L33.833333333333336,20.149545462917484L35,20.228107467575285L36.16666666666667,19.990874714333305L37.333333333333336,19.857947216851635L38.5,20.045772075601654L39.666666666666664,20.017822424881054L40.833333333333336,20.647583241071164L42,20.664428272604916L43.16666666666667,20.584791543107755L44.33333333333333,20.204479243159238L45.5,20.43242403590539L46.666666666666664,20.338499290817605L47.833333333333336,20.469631503017926L49,20.485138549632335L50.166666666666664,20.76711240777362L51.33333333333333,20.93450730878913L52.5,20.930373427528835L53.66666666666667,20.79591653364806L54.833333333333336,20.841178165358087L56,20.60458016714129L57.166666666666664,20.96850306953727L58.333333333333336,21.199009837268267L59.5,21.372305911340625L60.66666666666667,21.627908111105743L61.83333333333333,21.783817544165093L63,22.19362883627368L64.16666666666666,22.760101684578945L65.33333333333333,22.377568754093463L66.5,22.74653606478145L67.66666666666667,23.05689293848235L68.83333333333333,23.522864773604674L70,24.366848547644683L71.16666666666666,24.59240991593149L72.33333333333334,24.76950995213123L73.5,25.894567153583765L74.66666666666667,26.76153340929409L75.83333333333333,27.23352121677665L77,26.723157628564206L78.16666666666667,27.8043848348368L79.33333333333333,29.174932408254147L80.5,30.180785711146665L81.66666666666667,31.014475787008376L82.83333333333333,31.91160917045687L84,33.365915955932174L85.16666666666666,34.47927960285735L86.33333333333334,35.84722928374426L87.5,37.21447365323374L88.66666666666666,38.56567988585155L89.83333333333334,39.727998870783445L91,41.99884358041186L92.16666666666667,42.47235807783838L93.33333333333333,43.04043943635898L94.5,44.94082103938125L95.66666666666667,45.64310591614679L96.83333333333333,48.23213573373723L98,49.965033849781214L99.16666666666667,53.178556839233664L100.33333333333333,54.58096244609532L101.5,57.09961958731427L102.66666666666666,58.44193837408092L103.83333333333334,60.74184477493683L105,60.55169329819665L106.16666666666666,61.52279518377077L107.33333333333334,63.83555009372545L108.5,65.58132115006154L109.66666666666667,65.73668988919816L110.83333333333333,66.64589655011953L112,67.81034857316511L113.16666666666667,68.94045155658358L114.33333333333333,70.20527256353013L115.5,70.93868476981338L116.66666666666667,72.6595158693531L117.83333333333333,74.66573269014634L119,75.72635008575458L120.16666666666666,77.59916293703648L121.33333333333334,78.34515582740157L122.5,79.4987774455153L123.66666666666666,80.8090791119449L124.83333333333334,81.8032642789926L126,82.29408881726997L127.16666666666667,82.55724286994419L128.33333333333331,82.52364360724508L129.5,83.59150856265013L130.66666666666666,83.99329372492552L131.83333333333334,84.27682227880614L133,84.01913222185333L134.16666666666669,84.8198095391467L135.33333333333334,84.99212132840512L136.5,86.17369830426576L137.66666666666666,87.092539662965L138.83333333333334,87.16364094347136L140,86.01883657623755L141.16666666666666,86.02157205085504L142.33333333333331,85.78905806292163L143.5,85.36567479626667L144.66666666666669,86.97328495259849L145.83333333333334,87.59433512971995L147,88.28664404934028L148.16666666666666,88.90207535651369L149.33333333333334,89.44634338786398L150.5,89.67612348970474L151.66666666666666,89.93894746585676L152.83333333333331,90.12680827629926L154,89.89860504840735L155.16666666666669,90.05879908503478L156.33333333333334,90.15603720770156L157.5,90.14559745177506L158.66666666666666,90.02368197636393L159.83333333333331,89.53555983518254L161,88.23670909716853L162.16666666666669,87.2501260575607L163.33333333333334,88.04525722788851L164.5,87.41114623861498L165.66666666666666,87.53860109562912L166.83333333333334,88.06024919955274L168,88.58719805603964L169.16666666666666,88.2318295725908L170.33333333333331,88.44868037514979L171.5,88.36561578929708L172.66666666666669,88.02421479138948L173.83333333333334,88.79785161877038L175,89.0155616454953L176.16666666666666,89.3932385360936L177.33333333333331,89.74881225297183L178.5,89.2520820083239L179.66666666666669,87.69656666869308L180.83333333333334,85.03152363776381L182,85.6943361532898L183.16666666666666,85.9265901566668L184.33333333333334,86.01433053137801L185.5,86.52405957104666L186.66666666666666,87.46369866294161L187.83333333333331,87.72683874194826L189,88.73429146696101L190.16666666666669,89.09295869675628L191.33333333333334,89.61714081193462L192.5,89.63084765022852L193.66666666666666,89.75235337913594L194.83333333333331,89.90630552403894L196,90.1113802406797L197.16666666666669,90.1999118275024L198.33333333333334,90.1890130956499L199.5,90.2496176547796L200.66666666666666,90.2730358953131L201.83333333333334,90.29836024602874L203,90.2401665389098L204.16666666666666,90.2368027873399L205.33333333333331,90.14936304231747L206.5,90.1236236280292L207.66666666666669,89.98930384850853L208.83333333333334,90.0622182114072L210,89.86775363327224L211.16666666666666,89.88483054234021L212.33333333333331,89.21858729905836L213.5,89.0594259650186L214.66666666666669,88.46442462814946L215.83333333333334,86.5170792652214L217,86.45977369080678L218.16666666666666,87.59380239427779L219.33333333333334,86.5127563590843L220.5,87.35762563276795L221.66666666666666,88.2828948930257L222.83333333333331,89.01392020939493L224,89.01481508625432L225.16666666666669,89.34722102817364L226.33333333333334,89.6522194888363L227.5,89.87537906113863L228.66666666666666,89.94504065201963L229.83333333333331,90.00100219698028L231,89.95486817989102L232.16666666666669,89.85668576710478L233.33333333333334,89.81809170051983L234.5,89.70162574975097L235.66666666666666,88.97684339186101L236.83333333333334,88.0379396282357L238,86.07124370236116L239.16666666666666,87.2077458172862L240.33333333333331,86.07535921256961L241.5,86.76191523953212L242.66666666666669,87.27670286475104L243.83333333333334,86.22961885040368L245,85.0240526909396L246.16666666666666,83.81853060930298L247.33333333333331,83.53390802857383L248.5,85.67929729192913L249.66666666666669,85.92341453395395L250.83333333333334,86.77637210279401L252,87.8521582010902L253.16666666666666,87.9559470243056L254.33333333333334,88.37893889151164L255.5,88.52555347197053" style="fill: none;" fill="none"></path></g><g><path stroke="rgb(0, 119, 187)" stroke-width="2px" d="M23.333333333333332,18.896265992678092L24.5,19.0893175995533L25.666666666666664,20.041151668776145L26.833333333333336,20.492031951680975L28,20.618948536359234L29.166666666666668,19.729334478690806L30.333333333333336,20.246734961931345L31.5,20.319767774255656L32.666666666666664,20.659890288700772L33.833333333333336,20.320734502208833L35,20.355282224324224L36.16666666666667,19.956801678702696L37.333333333333336,19.80458309476027L38.5,20.345471022109468L39.666666666666664,20.604060607366737L40.833333333333336,20.66856341181988L42,20.502038169562653L43.16666666666667,20.5212007185752L44.33333333333333,21.034259440591512L45.5,20.742007572946427L46.666666666666664,20.776123427119092L47.833333333333336,20.68987834794605L49,20.95669510429413L50.166666666666664,21.09644418983941L51.33333333333333,21.041311489606066L52.5,21.08414987319138L53.66666666666667,21.101663155035286L54.833333333333336,21.07784449422962L56,20.950157014527658L57.166666666666664,20.769535755324387L58.333333333333336,20.92931627208055L59.5,21.039246302054757L60.66666666666667,21.033636195788027L61.83333333333333,20.772802791542567L63,20.76708010364141L64.16666666666666,20.915715753349474L65.33333333333333,20.86643517093358L66.5,20.755284753153063L67.66666666666667,20.913578975084793L68.83333333333333,20.838162498311128L70,21.160666515335116L71.16666666666666,20.916395255857125L72.33333333333334,20.882410755564653L73.5,20.972813003037036L74.66666666666667,21.048461813412676L75.83333333333333,20.753801925816546L77,20.980186892098793L78.16666666666667,21.330258037578027L79.33333333333333,21.3401093074572L80.5,21.777246528597775L81.66666666666667,22.07254082299693L82.83333333333333,22.295009032067863L84,21.998344420939794L85.16666666666666,22.14267808400276L86.33333333333334,22.098415230059057L87.5,22.46890994219723L88.66666666666666,22.761901706965997L89.83333333333334,22.41653299852598L91,22.41848491142028L92.16666666666667,22.979431162212414L93.33333333333333,23.918329258428347L94.5,24.047552704546188L95.66666666666667,25.585767074763474L96.83333333333333,26.7446354657584L98,27.92430073159408L99.16666666666667,29.503714683845924L100.33333333333333,30.345103166034544L101.5,30.92947008877804L102.66666666666666,32.50799888570654L103.83333333333334,34.078045714034516L105,35.73265339706038L106.16666666666666,37.402650124161966L107.33333333333334,38.2477358468149L108.5,39.121351519028316L109.66666666666667,40.41176847977637L110.83333333333333,43.531588325508544L112,46.73968563913682L113.16666666666667,47.028244632852946L114.33333333333333,46.4479931788723L115.5,46.82646901781577L116.66666666666667,49.691220000401735L117.83333333333333,51.11862073678984L119,51.95055377341499L120.16666666666666,52.937313578605405L121.33333333333334,54.67927314413495L122.5,55.68810326542478L123.66666666666666,56.25459037258728L124.83333333333334,56.82691184167885L126,58.0299887916669L127.16666666666667,58.48961708698602L128.33333333333331,59.17747715620678L129.5,59.580224688945485L130.66666666666666,61.49254707911554L131.83333333333334,61.873722981426454L133,63.17201770544663L134.16666666666669,63.485867522617475L135.33333333333334,64.44841016461957L136.5,64.77363688222839L137.66666666666666,65.5906564349741L138.83333333333334,65.22765421536397L140,66.56494674745191L141.16666666666666,68.67172241685704L142.33333333333331,70.30802933549373L143.5,70.7456752442476L144.66666666666669,71.06869220791704L145.83333333333334,72.42063309085178L147,75.29743916319401L148.16666666666666,77.10057871414224L149.33333333333334,79.79980065452364L150.5,81.01386326286013L151.66666666666666,82.90602563185993L152.83333333333331,84.96417171270184L154,85.92581274843806L155.16666666666669,86.79100851263988L156.33333333333334,87.88675458144179L157.5,89.55658710465954L158.66666666666666,90.24349667237155L159.83333333333331,91.34253730514112L161,92.22186614482953L162.16666666666669,92.35203712390827L163.33333333333334,93.1318632066555L164.5,93.33873663057544L165.66666666666666,93.6425746234204L166.83333333333334,93.83704687752581L168,94.0891573295196L169.16666666666666,94.08264820243394L170.33333333333331,94.31569078812561L171.5,94.4340276765733L172.66666666666669,94.48774501367447L173.83333333333334,94.67031788609738L175,94.86324196949421L176.16666666666666,95.04619347665209L177.33333333333331,95.24686395703097L178.5,94.04075907282389L179.66666666666669,93.16945900919649L180.83333333333334,93.15510416238581L182,93.14152698317582L183.16666666666666,93.77676199021172L184.33333333333334,93.77330319232438L185.5,94.07374571061273L186.66666666666666,94.66875547445314L187.83333333333331,94.99841286019313L189,95.26933443820099L190.16666666666669,95.32995250192758L191.33333333333334,95.41322594331808L192.5,95.47849062104335L193.66666666666666,95.64321566942427L194.83333333333331,95.75650040556201L196,95.8033496628063L197.16666666666669,95.85652569754188L198.33333333333334,95.90295439047925L199.5,95.91042111036369L200.66666666666666,95.84917448273045L201.83333333333334,95.90802057679143L203,95.88785897769807L204.16666666666666,95.92560661632903L205.33333333333331,95.91553416178967L206.5,95.91458409068147L207.66666666666669,95.89740290137854L208.83333333333334,95.76372152238578L210,95.70702707986847L211.16666666666666,95.66903285539223L212.33333333333331,95.74745615192786L213.5,95.80786902411946L214.66666666666669,95.88635164911936L215.83333333333334,95.92069017131791L217,95.99751353592214L218.16666666666666,95.92256079139524L219.33333333333334,95.68766178976192L220.5,95.69721863726926L221.66666666666666,93.64660686148038L222.83333333333331,92.45777274717861L224,93.54893749537692L225.16666666666669,93.71325190560181L226.33333333333334,89.55624811692698L227.5,89.2174378457178L228.66666666666666,89.90369360207693L229.83333333333331,90.7310318868918L231,91.57199345499697L232.16666666666669,92.8784726648498L233.33333333333334,93.62844552017721L234.5,94.30946057032062L235.66666666666666,94.99431325007525L236.83333333333334,95.4422999415093L238,95.61889400244867L239.16666666666666,95.8077824939996L240.33333333333331,95.94559702602636L241.5,95.9672004544941L242.66666666666669,95.95672591057327L243.83333333333334,95.96648656077375L245,95.98048570364688L246.16666666666666,95.98466887086433L247.33333333333331,96.03774403509424L248.5,95.99702718022513L249.66666666666669,95.97326224656544L250.83333333333334,96.01895860923591L252,96.14109290718042L253.16666666666666,96.12190241038479L254.33333333333334,96.10918898911282L255.5,96.11514669656252" style="fill: none;" fill="none"></path></g><g><path stroke="rgb(255, 112, 67)" stroke-width="2px" d="M23.333333333333332,19.20446690075211L24.5,19.534409001533763L25.666666666666664,19.6482011459626L26.833333333333336,19.972446349812845L28,19.897125980839846L29.166666666666668,19.882171666518648L30.333333333333336,20.084968579825393L31.5,20.3641817578693L32.666666666666664,19.893930512951204L33.833333333333336,19.908524337536914L35,19.730941045263844L36.16666666666667,19.7660406821189L37.333333333333336,19.65372587742735L38.5,19.847748336549355L39.666666666666664,19.941633693181604L40.833333333333336,20.320288603820583L42,20.328344808860177L43.16666666666667,20.332521897647613L44.33333333333333,20.04513143185816L45.5,19.962269159687484L46.666666666666664,20.031168932603332L47.833333333333336,20.07622780994379L49,20.20253313890075L50.166666666666664,20.34325251435122L51.33333333333333,20.676773792364443L52.5,20.42993828520954L53.66666666666667,20.67309918649025L54.833333333333336,20.900197902438723L56,20.70174743855489L57.166666666666664,20.82637500306555L58.333333333333336,20.99296179444863L59.5,21.34317181138465L60.66666666666667,21.731971403267053L61.83333333333333,21.55831784393349L63,21.647857564518343L64.16666666666666,21.673782532259846L65.33333333333333,22.18133909388936L66.5,21.50722579199342L67.66666666666667,21.289679525309516L68.83333333333333,21.633475552465445L70,21.972502154448758L71.16666666666666,22.612795885145143L72.33333333333334,23.017947865418495L73.5,22.792288673130443L74.66666666666667,22.977200074859773L75.83333333333333,22.19138038410493L77,22.70581012017761L78.16666666666667,23.037297177812786L79.33333333333333,24.440506026409672L80.5,25.188167090888445L81.66666666666667,24.570808459533083L82.83333333333333,25.664235200845077L84,25.245922307475773L85.16666666666666,25.70830131586366L86.33333333333334,26.72151892956632L87.5,27.521954354190676L88.66666666666666,27.912083540037607L89.83333333333334,27.626915678479936L91,28.085033663715013L92.16666666666667,28.867331091185108L93.33333333333333,30.137733275377578L94.5,30.891921225320836L95.66666666666667,32.27608543876824L96.83333333333333,30.902204542668116L98,31.887908557287037L99.16666666666667,33.02018829990191L100.33333333333333,32.873468321162875L101.5,32.89152580735038L102.66666666666666,33.90811661766874L103.83333333333334,34.937600551855446L105,35.76117746121677L106.16666666666666,34.98120633218235L107.33333333333334,37.305459448535686L108.5,37.83578769932677L109.66666666666667,39.04301917633293L110.83333333333333,39.96682237281589L112,42.179384068525955L113.16666666666667,42.7761427227975L114.33333333333333,43.56335504068675L115.5,43.621883821026465L116.66666666666667,44.218618305193814L117.83333333333333,45.933862866027376L119,47.922018451451414L120.16666666666666,47.37926652876364L121.33333333333334,48.45446190283744L122.5,49.42035509333914L123.66666666666666,50.381729364831976L124.83333333333334,51.529368724175434L126,52.294808211715676L127.16666666666667,53.41102617247524L128.33333333333331,53.59720474509234L129.5,54.67408654105563L130.66666666666666,55.03765172861662L131.83333333333334,56.82354578235993L133,57.24077993975521L134.16666666666669,58.58259586578136L135.33333333333334,57.59092744310444L136.5,56.90171570406174L137.66666666666666,58.621147663204304L138.83333333333334,59.02528417880121L140,59.72057691702849L141.16666666666666,60.78932737160686L142.33333333333331,58.92426779952991L143.5,58.37717484257381L144.66666666666669,60.31254798492051L145.83333333333334,61.6642585175676L147,63.338917681640645L148.16666666666666,63.8029824407844L149.33333333333334,64.94715431177124L150.5,65.63925193937996L151.66666666666666,63.79014718877211L152.83333333333331,62.54818529560298L154,63.09346099947952L155.16666666666669,63.55050674286795L156.33333333333334,65.40664743138782L157.5,65.11439718997049L158.66666666666666,67.43590125135199L159.83333333333331,66.30182809564103L161,67.7765921957952L162.16666666666669,69.20890307854327L163.33333333333334,72.07709993880312L164.5,73.90326356476689L165.66666666666666,75.83482452986601L166.83333333333334,77.57047594145145L168,79.16518638124542L169.16666666666666,80.05202412141846L170.33333333333331,81.04956742886L171.5,81.88170213843252L172.66666666666669,83.23825280984514L173.83333333333334,83.88545170693193L175,83.58281559248508L176.16666666666666,83.29949897807957L177.33333333333331,83.90375515094334L178.5,84.9112646381388L179.66666666666669,85.42700767365734L180.83333333333334,86.38203535338333L182,87.93416946071716L183.16666666666666,88.42906149224791L184.33333333333334,89.19788558118552L185.5,89.47775280932515L186.66666666666666,89.43156221242825L187.83333333333331,89.84729352720565L189,90.50228635538532L190.16666666666669,90.9889636374583L191.33333333333334,91.29628490332232L192.5,90.62623458811917L193.66666666666666,89.89832022138589L194.83333333333331,90.4558648246169L196,90.58101293534003L197.16666666666669,91.56629973053266L198.33333333333334,91.84211942368623L199.5,92.49979956492844L200.66666666666666,92.73465547962456L201.83333333333334,92.8384224564759L203,93.45802688695679L204.16666666666666,93.80639788124927L205.33333333333331,93.66246801824641L206.5,93.38671599048949L207.66666666666669,93.30714451378928L208.83333333333334,93.53002064297681L210,93.6453141346744L211.16666666666666,93.79527849535218L212.33333333333331,92.98837478863135L213.5,92.17415291397671L214.66666666666669,88.58445232844888L215.83333333333334,88.12968209572526L217,89.82862491634194L218.16666666666666,89.95824865401853L219.33333333333334,89.76722758333952L220.5,91.56109184304105L221.66666666666666,92.24499505742052L222.83333333333331,92.50569584509205L224,92.65547994364321L225.16666666666669,92.92644486084959L226.33333333333334,93.2103954674904L227.5,93.41174020938212L228.66666666666666,93.85375557729084L229.83333333333331,93.47467117604211L231,93.99511259397714L232.16666666666669,94.13828803952704L233.33333333333334,94.36699463998181L234.5,93.77036496857026L235.66666666666666,80.83567797561143L236.83333333333334,82.92772842938693L238,84.27379880736922L239.16666666666666,85.97826518263015L240.33333333333331,86.9574437549154L241.5,88.6229827602887L242.66666666666669,89.66267308561615L243.83333333333334,90.2801977230622L245,91.9173401355756L246.16666666666666,92.57511388609852L247.33333333333331,93.38797993934917L248.5,93.57796941659723L249.66666666666669,94.17807421818392L250.83333333333334,94.53676558217003L252,94.26097386519896L253.16666666666666,94.46862732531757L254.33333333333334,94.49722921560992L255.5,94.62843251931723" style="fill: none;" fill="none"></path></g></g></g></g><g opacity="0.2"><g><g><g><path stroke="rgb(51, 187, 238)" stroke-width="2px" d="M23.333333333333332,28.240168670067387L24.5,40.73489998113189L25.666666666666664,50.49174837875364L26.833333333333336,62.76429003598139L28,68.55963810729978L29.166666666666668,69.24660623763157L30.333333333333336,72.50659629117524L31.5,71.16114380278951L32.666666666666664,76.15706356224645L33.833333333333336,75.06538444328305L35,77.06497163105008L36.16666666666667,77.493725439145L37.333333333333336,77.65621075292734L38.5,77.06812026456684L39.666666666666664,74.2107799808062L40.833333333333336,78.07270071462483L42,77.26941776121578L43.16666666666667,75.87481250682244L44.33333333333333,78.46427650499342L45.5,80.97146317933154L46.666666666666664,82.29941660947064L47.833333333333336,83.09605030621013L49,84.3429304808103L50.166666666666664,83.04191592319194L51.33333333333333,80.81829899743884L52.5,80.96326090787005L53.66666666666667,81.57912713171885L54.833333333333336,84.28672270639125L56,81.7230929216238L57.166666666666664,82.4607769765487L58.333333333333336,84.32655129737118L59.5,83.83637783373317L60.66666666666667,82.96889785410806L61.83333333333333,83.78543874568203L63,85.99471336174011L64.16666666666666,88.05760035718403L65.33333333333333,87.96650199048334L66.5,83.5329556667988L67.66666666666667,87.13786310353645L68.83333333333333,86.27854076268122L70,85.41881267008412L71.16666666666666,86.67168579791141L72.33333333333334,85.97265263953575L73.5,85.38204040409967L74.66666666666667,85.51201891708374L75.83333333333333,86.09529718978587L77,85.76426767433605L78.16666666666667,87.0107076082963L79.33333333333333,87.01281244545716L80.5,87.37471358218559L81.66666666666667,87.1212277893103L82.83333333333333,86.54889720579293L84,86.33351099428762L85.16666666666666,86.943529321157L86.33333333333334,87.08925455205255L87.5,87.645485413643L88.66666666666666,88.54187419049555L89.83333333333334,89.12213975651446L91,89.44969045796759L92.16666666666667,88.90356382912856L93.33333333333333,87.76112313850108L94.5,88.55588276938289L95.66666666666667,88.24294876724022L96.83333333333333,87.402160658763L98,88.38465249118435L99.16666666666667,87.47551702336163L100.33333333333333,89.04618353762991L101.5,88.25222070173115L102.66666666666666,80.02888463856623L103.83333333333334,87.77665176485134L105,88.6745687042016L106.16666666666666,89.13833787323877L107.33333333333334,89.47675866385606L108.5,90.23193822669982L109.66666666666667,91.07425551205414L110.83333333333333,90.86450823538118L112,89.49848717682177L113.16666666666667,87.48326434568257L114.33333333333333,73.0775275383729L115.5,80.01308872325602L116.66666666666667,86.5181868708317L117.83333333333333,89.17607126366174L119,88.79299647947457L120.16666666666666,89.21446501504457L121.33333333333334,89.30008776198899L122.5,89.50285864465052L123.66666666666666,90.2050034116965L124.83333333333334,90.24322725453742L126,91.26231104701299L127.16666666666667,92.74590247669585L128.33333333333331,95.0437218545274L129.5,94.83486041632521L130.66666666666666,94.71923587839878L131.83333333333334,95.00814728526655L133,97.19338054003164L134.16666666666669,98.74289344083344L135.33333333333334,98.90533133238095L136.5,100.57668945250143L137.66666666666666,101.99134239326989L138.83333333333334,104.57591150386516L140,103.58470108089078L141.16666666666666,104.91209000891905L142.33333333333331,106.90890185477183L143.5,106.8472458488391L144.66666666666669,111.75746678289998L145.83333333333334,113.4488865371117L147,116.40009140007311L148.16666666666666,119.08698146335894L149.33333333333334,119.59008724938904L150.5,123.17483491083291L151.66666666666666,124.67673106956481L152.83333333333331,127.11061260546171L154,125.77047140737679L155.16666666666669,126.37908076132261L156.33333333333334,130.71151324374858L157.5,132.29676501156732L158.66666666666666,134.2492383358295L159.83333333333331,135.4806705272381L161,138.96367188189578L162.16666666666669,138.98977794896638L163.33333333333334,139.58719464111329L164.5,142.4662264129932L165.66666666666666,139.89381311739407L166.83333333333334,143.40294488422686L168,143.34241483937777L169.16666666666666,145.78066226401694L170.33333333333331,145.98601322056695L171.5,146.8203808149191L172.66666666666669,148.75328067515446L173.83333333333334,149.6453055920234L175,150.3918238767477L176.16666666666666,150.64871341954742L177.33333333333331,150.80192933478722L178.5,152.3369287493779L179.66666666666669,153.05991343307494L180.83333333333334,153.6929064379472L182,151.8493125360929L183.16666666666666,154.5383267097473L184.33333333333334,153.91460918969375L185.5,154.4307375778785L186.66666666666666,154.92149430964542L187.83333333333331,155.71545308802678L189,155.97200585688077L190.16666666666669,156.6122780480018L191.33333333333334,157.7692507372636L192.5,157.6630289887648L193.66666666666666,158.4417233866178L194.83333333333331,157.87783801841735L196,158.5643009878305L197.16666666666669,158.37462016355073L198.33333333333334,158.7858130362584L199.5,159.623442874615L200.66666666666666,159.46799532479506L201.83333333333334,160.13934809934173L203,160.3642360022618L204.16666666666666,160.21387657928466L205.33333333333331,160.86773739624022L206.5,161.20810630240805L207.66666666666669,160.89196077522865L208.83333333333334,160.40827223880476L210,159.79907251607455L211.16666666666666,161.17122346907394L212.33333333333331,161.01595445002042L213.5,161.34471479885394L214.66666666666669,161.58340231851432L215.83333333333334,161.62667979929998L217,161.7611459265489L218.16666666666666,161.65688801648065L219.33333333333334,161.6932027973762L220.5,161.20173600006103L221.66666666666666,161.72441727887664L222.83333333333331,160.88152484042828L224,154.7435640558096L225.16666666666669,159.15673099107008L226.33333333333334,158.9439710077139L227.5,157.45259802040687L228.66666666666666,158.42271797502957L229.83333333333331,159.90716072258581L231,160.65551300518328L232.16666666666669,161.896496592595L233.33333333333334,161.8434242647611L234.5,162.28975929583035L235.66666666666666,162.46381867804894L236.83333333333334,161.8882638897529L238,162.3565338599865L239.16666666666666,162.1574761129526L240.33333333333331,161.88140262779822L241.5,162.45177596635085L242.66666666666669,162.53957658576965L243.83333333333334,162.61070892363327L245,162.619160732416L246.16666666666666,162.56666862957292L247.33333333333331,162.51818129642194L248.5,162.8594631440089L249.66666666666669,162.55193578382637L250.83333333333334,161.54411743486844L252,162.56813339336102L253.16666666666666,162.5256593010242L254.33333333333334,162.64442283586354L255.5,162.5565694687183" style="fill: none;" fill="none"></path></g><g><path stroke="rgb(204, 51, 17)" stroke-width="2px" d="M23.333333333333332,20.878119800567585L24.5,18.6397335114112L25.666666666666664,19.433846475454438L26.833333333333336,20.226969405247583L28,20.293975247896597L29.166666666666668,19.058672184870762L30.333333333333336,19.962881826547434L31.5,19.593087804060684L32.666666666666664,20.26067925996043L33.833333333333336,20.488094996232224L35,20.34523792296185L36.16666666666667,19.63631659463732L37.333333333333336,19.658990001971862L38.5,20.327141395275373L39.666666666666664,19.975930802565323L40.833333333333336,21.59178030923693L42,20.6896886916527L43.16666666666667,20.465356668618966L44.33333333333333,19.634068729987483L45.5,20.774320389967667L46.666666666666664,20.19761732424219L47.833333333333336,20.666325506357005L49,20.508398813394358L50.166666666666664,21.190069854736286L51.33333333333333,21.18559847054111L52.5,20.924172623267513L53.66666666666667,20.594231536865195L54.833333333333336,20.909070543435863L56,20.249683387756306L57.166666666666664,21.514387221996564L58.333333333333336,21.54476991242625L59.5,21.632249987968997L60.66666666666667,22.011311380239594L61.83333333333333,22.01768168258663L63,22.808345756824156L64.16666666666666,23.609810942429736L65.33333333333333,21.803769364283607L66.5,23.29998702738832L67.66666666666667,23.522428247305022L68.83333333333333,24.22182252473094L70,25.632824207012433L71.16666666666666,24.930751968090313L72.33333333333334,25.035160006303023L73.5,27.582152955275284L74.66666666666667,28.0619827926342L75.83333333333333,27.941502927926827L77,25.95761224629326L78.16666666666667,29.42622564418496L79.33333333333333,31.230753768333987L80.5,31.6895656654651L81.66666666666667,32.26501090079085L82.83333333333333,33.25730924562304L84,35.54737613413881L85.16666666666666,36.149325073242146L86.33333333333334,37.899153805072466L87.5,39.26534020746668L88.66666666666666,40.59248923477756L89.83333333333334,41.4714773481809L91,45.40511064485401L92.16666666666667,43.182629823978104L93.33333333333333,43.892561474139846L94.5,47.79139344391454L95.66666666666667,46.69653323129506L96.83333333333333,52.11568046012289L98,52.56438102384713L99.16666666666667,57.998841323412364L100.33333333333333,56.68457085638777L101.5,60.877605299142665L102.66666666666666,60.4554165542309L103.83333333333334,64.19170437622068L105,60.266466083086435L106.16666666666666,62.9794480121319L107.33333333333334,67.30468245865747L108.5,68.1999777345657L109.66666666666667,65.96974299790308L110.83333333333333,68.00970654150154L112,69.55702660773349L113.16666666666667,70.63560603171128L114.33333333333333,72.10250407394994L115.5,72.03880307923829L116.66666666666667,75.24076251866266L117.83333333333333,77.67505792133623L119,77.31727617916692L120.16666666666666,80.40838221395931L121.33333333333334,79.46414516294918L122.5,81.22920987268594L123.66666666666666,82.77453161158928L124.83333333333334,83.29454202956417L126,83.030325624686L127.16666666666667,82.95197394895551L128.33333333333331,82.47324471319637L129.5,85.19330599575775L130.66666666666666,84.59597146833858L131.83333333333334,84.70211510962704L133,83.63259713642412L134.16666666666669,86.02082551508683L135.33333333333334,85.2505890122927L136.5,87.94606376805672L137.66666666666666,88.47080170101384L138.83333333333334,87.27029286423095L140,84.3016300253868L141.16666666666666,86.02567526278126L142.33333333333331,85.44028708102152L143.5,84.73059989628423L144.66666666666669,89.38470018709621L145.83333333333334,88.52591039540216L147,89.32510742877078L148.16666666666666,89.8252223172738L149.33333333333334,90.26274543488941L150.5,90.02079364246589L151.66666666666666,90.3331834300848L152.83333333333331,90.408599491963L154,89.5563002065695L155.16666666666669,90.2990901399759L156.33333333333334,90.30189439170175L157.5,90.1299378178853L158.66666666666666,89.84080876324725L159.83333333333331,88.80337662341043L161,86.2884329901475L162.16666666666669,85.77025149814898L163.33333333333334,89.23795398338022L164.5,86.45997975470468L165.66666666666666,87.7297833811503L166.83333333333334,88.84272135543823L168,89.37762134076998L169.16666666666666,87.69877684741753L170.33333333333331,88.77395657898828L171.5,88.24101891051805L172.66666666666669,87.51211329452806L173.83333333333334,89.9583068598417L175,89.34212668558267L176.16666666666666,89.95975387199107L177.33333333333331,90.28217282828916L178.5,88.50698664135199L179.66666666666669,85.36329365924686L180.83333333333334,81.0339590913699L182,86.68855492657879L183.16666666666666,86.27497116173228L184.33333333333334,86.14594109344482L185.5,87.28865313054963L186.66666666666666,88.87315730078402L187.83333333333331,88.12154886045822L189,90.24547055448016L190.16666666666669,89.63095954144916L191.33333333333334,90.40341398470217L192.5,89.65140790766935L193.66666666666666,89.93461197249705L194.83333333333331,90.13723374139344L196,90.4189923156408L197.16666666666669,90.33270920773651L198.33333333333334,90.1726649978711L199.5,90.34052449347422L200.66666666666666,90.30816325611335L201.83333333333334,90.33634677210219L203,90.15287597823142L204.16666666666666,90.23175715998501L205.33333333333331,90.01820342478383L206.5,90.08501450659678L207.66666666666669,89.78782417922753L208.83333333333334,90.17158975575519L210,89.57605676606983L211.16666666666666,89.91044590594217L212.33333333333331,88.21922243413556L213.5,88.82068396395903L214.66666666666669,87.5719226228457L215.83333333333334,83.59606122082928L217,86.3738153291849L218.16666666666666,89.29484544948428L219.33333333333334,84.89118730629406L220.5,88.62492954329342L221.66666666666666,89.67079878341234L222.83333333333331,90.11045818394881L224,89.01615740154338L225.16666666666669,89.84582994105264L226.33333333333334,90.10971717983026L227.5,90.21011841959219L228.66666666666666,90.04953303834107L229.83333333333331,90.0849445144213L231,89.8856671542571L232.16666666666669,89.70941214792543L233.33333333333334,89.7602006006424L234.5,89.52692682359768L235.66666666666666,87.88966985502609L236.83333333333334,86.62958398279774L238,83.12119981354931L239.16666666666666,88.91249898967374L240.33333333333331,84.37677930549472L241.5,87.79174927997589L242.66666666666669,88.04888430257942L243.83333333333334,84.65899282888263L245,83.21570345174348L246.16666666666666,82.01024748684809L247.33333333333331,83.10697415748008L248.5,88.89738118696212L249.66666666666669,86.28959039699113L250.83333333333334,88.0558084560541L252,89.46583734853449L253.16666666666666,88.11163025912869L254.33333333333334,89.01342669232073L255.5,88.74547534265882" style="fill: none;" fill="none"></path></g><g><path stroke="rgb(0, 119, 187)" stroke-width="2px" d="M23.333333333333332,18.896265992678092L24.5,19.205148563678403L25.666666666666664,20.954912375230027L26.833333333333336,21.022267164377023L28,20.784650829315144L29.166666666666668,18.49867797587465L30.333333333333336,20.986625931372984L31.5,20.426250315739527L32.666666666666664,21.161504932110088L33.833333333333336,19.81712768584027L35,20.40679046220042L36.16666666666667,19.36124937380274L37.333333333333336,19.576752238933818L38.5,21.155743257375825L39.666666666666664,20.991641022902236L40.833333333333336,20.765272126124426L42,20.252320774078328L43.16666666666667,20.54993967672492L44.33333333333333,21.803769364283607L45.5,20.303656484457125L46.666666666666664,20.827295337383525L47.833333333333336,20.560513567117503L49,21.3569149709848L50.166666666666664,21.306066162696226L51.33333333333333,20.958612831115683L52.5,21.148407265883193L53.66666666666667,21.12793303298946L54.833333333333336,21.042116539588314L56,20.758625912592933L57.166666666666664,20.498603966346128L58.333333333333336,21.168986994229805L59.5,21.204141325143624L60.66666666666667,21.025221037057687L61.83333333333333,20.38155270385738L63,20.758496072035538L64.16666666666666,21.138669224078797L65.33333333333333,20.792514298072202L66.5,20.58855912751414L67.66666666666667,21.1510203071007L68.83333333333333,20.725037783402634L70,21.64442254022448L71.16666666666666,20.54998836693393L72.33333333333334,20.831434005150395L73.5,21.108416374206502L74.66666666666667,21.161935028956457L75.83333333333333,20.31181209446831L77,21.31976434150105L78.16666666666667,21.85536475577717L79.33333333333333,21.35488621227555L80.5,22.432952360299875L81.66666666666667,22.515482264592066L82.83333333333333,22.628711345672567L84,21.553347504248958L85.16666666666666,22.359178578596815L86.33333333333334,22.0320209491436L87.5,23.02465201040412L88.66666666666666,23.2013893541189L89.83333333333334,21.898479935866103L91,22.421412780761678L92.16666666666667,23.82085053840046L93.33333333333333,25.326676402752177L94.5,24.241387873722925L95.66666666666667,27.89308863008936L96.83333333333333,28.482938052250756L98,29.69379863034759L99.16666666666667,31.872835612223668L100.33333333333333,31.607185889317407L101.5,31.806020472893312L102.66666666666666,34.875792081099256L103.83333333333334,36.4331159565265L105,38.214564921599134L106.16666666666666,39.90764521481438L107.33333333333334,39.515364430794314L108.5,40.431775027348415L109.66666666666667,42.34739392089841L110.83333333333333,48.2113180941068L112,51.55183160957921L113.16666666666667,47.46108312342716L114.33333333333333,45.57761599790132L115.5,47.39418277623102L116.66666666666667,53.98834647428072L117.83333333333333,53.259721841371956L119,53.19845332835269L120.16666666666666,54.41745328639102L121.33333333333334,57.292212492429286L122.5,57.20134844735951L123.66666666666666,57.10432103333104L124.83333333333334,57.68539404531625L126,59.83460421664897L127.16666666666667,59.17905952996472L128.33333333333331,60.209267260037926L129.5,60.18434598805353L130.66666666666666,64.3610306643706L131.83333333333334,62.44548683489284L133,65.1194597914769L134.16666666666669,63.95664224837375L135.33333333333334,65.89222412762273L136.5,65.26147695864162L137.66666666666666,66.81618576409265L138.83333333333334,64.68315088594875L140,68.57088554558385L141.16666666666666,71.83188592096475L142.33333333333331,72.76248971344873L143.5,71.40214410737843L144.66666666666669,71.55321765342123L145.83333333333334,74.44854441525385L147,79.61264827170739L148.16666666666666,79.80528804056459L149.33333333333334,83.84863356509575L150.5,82.83495717536485L151.66666666666666,85.74426918535966L152.83333333333331,88.0513908339647L154,87.36827430204242L155.16666666666669,88.08880215894258L156.33333333333334,89.5303736846447L157.5,92.06133588948614L158.66666666666666,91.27386102393955L159.83333333333331,92.99109825429547L161,93.54085940436214L162.16666666666669,92.54729359252634L163.33333333333334,94.30160233077633L164.5,93.64904676645534L165.66666666666666,94.09833161268783L166.83333333333334,94.12875525868397L168,94.46732300751025L169.16666666666666,94.07288451180548L170.33333333333331,94.66525466666312L171.5,94.61153300924482L172.66666666666669,94.56832101932626L173.83333333333334,94.94417719473172L175,95.15262809458947L176.16666666666666,95.32062073738894L177.33333333333331,95.54786967759922L178.5,92.23160174651328L179.66666666666669,91.8625089137554L180.83333333333334,93.13357189216978L182,93.12116121436082L183.16666666666666,94.72961450076562L184.33333333333334,93.76811499549332L185.5,94.52440948804524L186.66666666666666,95.5612701202138L187.83333333333331,95.49289893880314L189,95.67571680521276L190.16666666666669,95.42087959751743L191.33333333333334,95.53813610540386L192.5,95.57638763763124L193.66666666666666,95.89030324199564L194.83333333333331,95.92642750976863L196,95.87362354867274L197.16666666666669,95.93628974964525L198.33333333333334,95.9725974298853L199.5,95.92162119019031L200.66666666666666,95.75730454128062L201.83333333333334,95.99628971788286L203,95.85761657905806L204.16666666666666,95.98222807427553L205.33333333333331,95.9004254799806L206.5,95.91315898401919L207.66666666666669,95.87163111742413L208.83333333333334,95.56319945389662L210,95.62198541609254L211.16666666666666,95.61204151867788L212.33333333333331,95.8650910967313L213.5,95.89848833240681L214.66666666666669,96.00407558661927L215.83333333333334,95.97219795461571L217,96.11274858282849L218.16666666666666,95.8101316746049L219.33333333333334,95.33531328731186L220.5,95.71155390853032L221.66666666666666,90.57068919779702L222.83333333333331,90.67452157572598L224,95.18568461767438L225.16666666666669,93.95972352093916L226.33333333333334,83.32074243391476L227.5,88.70922243890394L228.66666666666666,90.93307723661569L229.83333333333331,91.97203931411413L231,92.83343580715471L232.16666666666669,94.83819147962903L233.33333333333334,94.7534048031683L234.5,95.33098314553578L235.66666666666666,96.02159226970717L236.83333333333334,96.1142799786604L238,95.88378509385768L239.16666666666666,96.09111523132599L240.33333333333331,96.15231882406655L241.5,95.9996055971957L242.66666666666669,95.941014094692L243.83333333333334,95.98112753607445L245,96.00148441795659L246.16666666666666,95.99094362169045L247.33333333333331,96.11735678143913L248.5,95.93595189792144L249.66666666666669,95.93761484607595L250.83333333333334,96.08750315324157L252,96.32429435409719L253.16666666666666,96.09311666519136L254.33333333333334,96.09011885720491L255.5,96.12408325773704" style="fill: none;" fill="none"></path></g><g><path stroke="rgb(255, 112, 67)" stroke-width="2px" d="M23.333333333333332,19.20446690075211L24.5,19.732374262002757L25.666666666666664,19.75744160461422L26.833333333333336,20.353758709540706L28,19.79878770710869L29.166666666666668,19.86148446625926L30.333333333333336,20.374971410604584L31.5,20.77127725190379L32.666666666666664,19.200401268298766L33.833333333333336,19.930194466224055L35,19.46617677424501L36.16666666666667,19.818499126727723L37.333333333333336,19.485620397714428L38.5,20.138401915036688L39.666666666666664,20.082351369417594L40.833333333333336,20.88800391299905L42,20.340425707303535L43.16666666666667,20.33878647026645L44.33333333333333,19.61408951421882L45.5,19.83798332537134L46.666666666666664,20.134514813349767L47.833333333333336,20.143814643272954L49,20.39198863865776L50.166666666666664,20.554329910571717L51.33333333333333,21.177053338857757L52.5,20.05968607711788L53.66666666666667,21.037839916229206L54.833333333333336,21.24084562771134L56,20.404071925530033L57.166666666666664,21.01331628095184L58.333333333333336,21.24284192628123L59.5,21.868486767108582L60.66666666666667,22.31517074467583L61.83333333333333,21.29783751737152L63,21.782167141547543L64.16666666666666,21.71266998320355L65.33333333333333,22.94267392848085L66.5,20.496055845407298L67.66666666666667,20.96336012649532L68.83333333333333,22.149169592050363L70,22.481042056743878L71.16666666666666,23.573236480419414L72.33333333333334,23.625675835536047L73.5,22.4537998847961L74.66666666666667,23.254567177405697L75.83333333333333,21.012650848095195L77,23.477454724238438L78.16666666666667,23.534527764246985L79.33333333333333,26.54531929925768L80.5,26.30965868759151L81.66666666666667,23.64477051250748L82.83333333333333,27.304375312805135L84,24.61845296742363L85.16666666666666,26.401869828444227L86.33333333333334,28.241345350118745L87.5,28.7226074911264L88.66666666666666,28.497277318807708L89.83333333333334,27.19916388614358L91,28.772210641567487L92.16666666666667,30.040777232390152L93.33333333333333,32.04333655166622L94.5,32.023203150235666L95.66666666666667,34.35233175893928L96.83333333333333,28.841383198517992L98,33.36646457921539L99.16666666666667,34.71860791382419L100.33333333333333,32.653388353054304L101.5,32.91861203663163L102.66666666666666,35.43300283314628L103.83333333333334,36.48182645313553L105,36.99654282525866L106.16666666666666,33.81124963863076L107.33333333333334,40.79183912306563L108.5,38.631280075513374L109.66666666666667,40.85386639184216L110.83333333333333,41.352527167540316L112,45.498226612091045L113.16666666666667,43.67128070420483L114.33333333333333,44.744173517520586L115.5,43.70967699153606L116.66666666666667,45.11372003144482L117.83333333333333,48.50672970727772L119,50.90425182958749L120.16666666666666,46.565138644731945L121.33333333333334,50.067254963948166L122.5,50.86919487909169L123.66666666666666,51.82379077207124L124.83333333333334,53.25082776319063L126,53.44296744302601L127.16666666666667,55.08535311361459L128.33333333333331,53.87647260401798L129.5,56.28940923500059L130.66666666666666,55.5829995099581L131.83333333333334,59.50238686297489L133,57.866631175848134L134.16666666666669,60.595319754820586L135.33333333333334,56.10342480908906L136.5,55.8678980954977L137.66666666666666,61.200295601918135L138.83333333333334,59.63148895219654L140,60.76351602436945L141.16666666666666,62.392453053474405L142.33333333333331,56.12667844141445L143.5,57.55653540713969L144.66666666666669,63.21560769844053L145.83333333333334,63.69182431653828L147,65.8509064277502L148.16666666666666,64.49907957950003L149.33333333333334,66.6634121182515L150.5,66.67739838079304L151.66666666666666,61.01649006286032L152.83333333333331,60.68524245584926L154,63.91137455529431L155.16666666666669,64.23607535795063L156.33333333333334,68.19085846416766L157.5,64.67602182784445L158.66666666666666,70.91815734342427L159.83333333333331,64.60071836207462L161,69.98873834602648L162.16666666666669,71.35736940266534L163.33333333333334,76.37939522919285L164.5,76.64250900371256L165.66666666666666,78.73216597751468L166.83333333333334,80.17395305882967L168,81.55725204093638L169.16666666666666,81.38228073167798L170.33333333333331,82.54588239002226L171.5,83.12990420279134L172.66666666666669,85.27307881696406L173.83333333333334,84.85625005256212L175,83.12886142081479L176.16666666666666,82.87452405647129L177.33333333333331,84.81013941023899L178.5,86.42252886893198L179.66666666666669,86.20062222693515L180.83333333333334,87.81457687297234L182,90.26237062171788L183.16666666666666,89.17139953954401L184.33333333333334,90.35112171459197L185.5,89.89755365153458L186.66666666666666,89.36227631708292L187.83333333333331,90.47089049937173L189,91.48477559765485L190.16666666666669,91.71897956056776L191.33333333333334,91.75726680211837L192.5,89.62115911531448L193.66666666666666,88.80644867128592L194.83333333333331,91.29218172946341L196,90.76873510142472L197.16666666666669,93.04422992332164L198.33333333333334,92.25584896341653L199.5,93.48631977679177L200.66666666666666,93.08693935166872L201.83333333333334,92.99407292175293L203,94.38743353267816L204.16666666666666,94.32895437268796L205.33333333333331,93.44657322374213L206.5,92.97308794885414L207.66666666666669,93.18778729873895L208.83333333333334,93.86433483675808L210,93.81825437222075L211.16666666666666,94.0202250363689L212.33333333333331,91.77801922855008L213.5,90.95282010199472L214.66666666666669,83.19990145015716L215.83333333333334,87.44752674663982L217,92.37703914726697L218.16666666666666,90.15268426053339L219.33333333333334,89.48069597732103L220.5,94.25188823259334L221.66666666666666,93.27084987898972L222.83333333333331,92.89674702659936L224,92.88015609146997L225.16666666666669,93.33289223665916L226.33333333333334,93.6363213774516L227.5,93.71375732221968L228.66666666666666,94.51677862915396L229.83333333333331,92.90604457416899L231,94.77577472087968L232.16666666666669,94.35305120785189L233.33333333333334,94.71005454066395L234.5,92.8754204614529L235.66666666666666,61.43364748617318L236.83333333333334,86.0658041100502L238,86.29290437434268L239.16666666666666,88.53496474552153L240.33333333333331,88.4262116133433L241.5,91.12129126834868L242.66666666666669,91.22220857360728L243.83333333333334,91.20648467923125L245,94.37305375434572L246.16666666666666,93.56177451188289L247.33333333333331,94.60727901922509L248.5,93.86295363246936L249.66666666666669,95.07823142056394L250.83333333333334,95.0748026281492L252,93.84728628974234L253.16666666666666,94.78010751549554L254.33333333333334,94.54013205104835L255.5,94.82523747487825" style="fill: none;" fill="none"></path></g></g></g></g></g></g><g transform="translate(50, 176)" clip-path="url(#clip_1)"><clipPath id="clip_1"><rect width="279" height="22"></rect></clipPath><g><g><line x1="0" y1="0" x2="0" y2="5" style="visibility: inherit;" fill="rgb(0, 0, 0)" stroke="rgb(204, 204, 204)" stroke-width="1px"></line><line x1="23.333333333333332" y1="0" x2="23.333333333333332" y2="5" style="visibility: inherit;" fill="rgb(0, 0, 0)" stroke="rgb(204, 204, 204)" stroke-width="1px"></line><line x1="46.666666666666664" y1="0" x2="46.666666666666664" y2="5" style="visibility: inherit;" fill="rgb(0, 0, 0)" stroke="rgb(204, 204, 204)" stroke-width="1px"></line><line x1="70" y1="0" x2="70" y2="5" style="visibility: inherit;" fill="rgb(0, 0, 0)" stroke="rgb(204, 204, 204)" stroke-width="1px"></line><line x1="93.33333333333333" y1="0" x2="93.33333333333333" y2="5" style="visibility: inherit;" fill="rgb(0, 0, 0)" stroke="rgb(204, 204, 204)" stroke-width="1px"></line><line x1="116.66666666666667" y1="0" x2="116.66666666666667" y2="5" style="visibility: inherit;" fill="rgb(0, 0, 0)" stroke="rgb(204, 204, 204)" stroke-width="1px"></line><line x1="140" y1="0" x2="140" y2="5" style="visibility: inherit;" fill="rgb(0, 0, 0)" stroke="rgb(204, 204, 204)" stroke-width="1px"></line><line x1="163.33333333333334" y1="0" x2="163.33333333333334" y2="5" style="visibility: inherit;" fill="rgb(0, 0, 0)" stroke="rgb(204, 204, 204)" stroke-width="1px"></line><line x1="186.66666666666666" y1="0" x2="186.66666666666666" y2="5" style="visibility: inherit;" fill="rgb(0, 0, 0)" stroke="rgb(204, 204, 204)" stroke-width="1px"></line><line x1="210" y1="0" x2="210" y2="5" style="visibility: inherit;" fill="rgb(0, 0, 0)" stroke="rgb(204, 204, 204)" stroke-width="1px"></line><line x1="233.33333333333334" y1="0" x2="233.33333333333334" y2="5" style="visibility: inherit;" fill="rgb(0, 0, 0)" stroke="rgb(204, 204, 204)" stroke-width="1px"></line><line x1="256.66666666666663" y1="0" x2="256.66666666666663" y2="5" style="visibility: inherit;" fill="rgb(0, 0, 0)" stroke="rgb(204, 204, 204)" stroke-width="1px"></line><line x1="280" y1="0" x2="280" y2="5" style="visibility: inherit;" fill="rgb(0, 0, 0)" stroke="rgb(204, 204, 204)" stroke-width="1px"></line></g><g transform="translate(0, 8)"><text x="0" y="0" dx="0em" dy="0.95em" style="text-anchor: middle; visibility: hidden; font-family: Roboto, sans-serif; font-size: 12px; font-weight: 200;" fill="rgb(33, 33, 33)" stroke="none" stroke-width="1px">-20</text><text x="23.333333333333332" y="0" dx="0em" dy="0.95em" style="text-anchor: middle; visibility: inherit; font-family: Roboto, sans-serif; font-size: 12px; font-weight: 200;" fill="rgb(33, 33, 33)" stroke="none" stroke-width="1px">0</text><text x="46.666666666666664" y="0" dx="0em" dy="0.95em" style="text-anchor: middle; visibility: hidden; font-family: Roboto, sans-serif; font-size: 12px; font-weight: 200;" fill="rgb(33, 33, 33)" stroke="none" stroke-width="1px">20</text><text x="70" y="0" dx="0em" dy="0.95em" style="text-anchor: middle; visibility: inherit; font-family: Roboto, sans-serif; font-size: 12px; font-weight: 200;" fill="rgb(33, 33, 33)" stroke="none" stroke-width="1px">40</text><text x="93.33333333333333" y="0" dx="0em" dy="0.95em" style="text-anchor: middle; visibility: hidden; font-family: Roboto, sans-serif; font-size: 12px; font-weight: 200;" fill="rgb(33, 33, 33)" stroke="none" stroke-width="1px">60</text><text x="116.66666666666667" y="0" dx="0em" dy="0.95em" style="text-anchor: middle; visibility: inherit; font-family: Roboto, sans-serif; font-size: 12px; font-weight: 200;" fill="rgb(33, 33, 33)" stroke="none" stroke-width="1px">80</text><text x="140" y="0" dx="0em" dy="0.95em" style="text-anchor: middle; visibility: hidden; font-family: Roboto, sans-serif; font-size: 12px; font-weight: 200;" fill="rgb(33, 33, 33)" stroke="none" stroke-width="1px">100</text><text x="163.33333333333334" y="0" dx="0em" dy="0.95em" style="text-anchor: middle; visibility: inherit; font-family: Roboto, sans-serif; font-size: 12px; font-weight: 200;" fill="rgb(33, 33, 33)" stroke="none" stroke-width="1px">120</text><text x="186.66666666666666" y="0" dx="0em" dy="0.95em" style="text-anchor: middle; visibility: hidden; font-family: Roboto, sans-serif; font-size: 12px; font-weight: 200;" fill="rgb(33, 33, 33)" stroke="none" stroke-width="1px">140</text><text x="210" y="0" dx="0em" dy="0.95em" style="text-anchor: middle; visibility: inherit; font-family: Roboto, sans-serif; font-size: 12px; font-weight: 200;" fill="rgb(33, 33, 33)" stroke="none" stroke-width="1px">160</text><text x="233.33333333333334" y="0" dx="0em" dy="0.95em" style="text-anchor: middle; visibility: hidden; font-family: Roboto, sans-serif; font-size: 12px; font-weight: 200;" fill="rgb(33, 33, 33)" stroke="none" stroke-width="1px">180</text><text x="256.66666666666663" y="0" dx="0em" dy="0.95em" style="text-anchor: middle; visibility: inherit; font-family: Roboto, sans-serif; font-size: 12px; font-weight: 200;" fill="rgb(33, 33, 33)" stroke="none" stroke-width="1px">200</text><text x="280" y="0" dx="0em" dy="0.95em" style="text-anchor: middle; visibility: hidden; font-family: Roboto, sans-serif; font-size: 12px; font-weight: 200;" fill="rgb(33, 33, 33)" stroke="none" stroke-width="1px">220</text></g><line x1="0" y1="0" x2="280" y2="0" fill="rgb(0, 0, 0)" stroke="rgb(204, 204, 204)" stroke-width="1px"></line></g></g></g></g></svg>