<svg viewBox="0 0 330 199.9921875" xmlns="http://www.w3.org/2000/svg"><g><g><g><g><g><line x1="50" y1="176.992" x2="45" y2="176.992" style="visibility: inherit;" fill="rgb(0, 0, 0)" stroke="rgb(204, 204, 204)" stroke-width="1px"></line><line x1="50" y1="164.34971428571427" x2="45" y2="164.34971428571427" style="visibility: inherit;" fill="rgb(0, 0, 0)" stroke="rgb(204, 204, 204)" stroke-width="1px"></line><line x1="50" y1="151.70742857142855" x2="45" y2="151.70742857142855" style="visibility: inherit;" fill="rgb(0, 0, 0)" stroke="rgb(204, 204, 204)" stroke-width="1px"></line><line x1="50" y1="139.06514285714286" x2="45" y2="139.06514285714286" style="visibility: inherit;" fill="rgb(0, 0, 0)" stroke="rgb(204, 204, 204)" stroke-width="1px"></line><line x1="50" y1="126.42285714285713" x2="45" y2="126.42285714285713" style="visibility: inherit;" fill="rgb(0, 0, 0)" stroke="rgb(204, 204, 204)" stroke-width="1px"></line><line x1="50" y1="113.7805714285714" x2="45" y2="113.7805714285714" style="visibility: inherit;" fill="rgb(0, 0, 0)" stroke="rgb(204, 204, 204)" stroke-width="1px"></line><line x1="50" y1="101.1382857142857" x2="45" y2="101.1382857142857" style="visibility: inherit;" fill="rgb(0, 0, 0)" stroke="rgb(204, 204, 204)" stroke-width="1px"></line><line x1="50" y1="88.496" x2="45" y2="88.496" style="visibility: inherit;" fill="rgb(0, 0, 0)" stroke="rgb(204, 204, 204)" stroke-width="1px"></line><line x1="50" y1="75.85371428571426" x2="45" y2="75.85371428571426" style="visibility: inherit;" fill="rgb(0, 0, 0)" stroke="rgb(204, 204, 204)" stroke-width="1px"></line><line x1="50" y1="63.21142857142858" x2="45" y2="63.21142857142858" style="visibility: inherit;" fill="rgb(0, 0, 0)" stroke="rgb(204, 204, 204)" stroke-width="1px"></line><line x1="50" y1="50.56914285714285" x2="45" y2="50.56914285714285" style="visibility: inherit;" fill="rgb(0, 0, 0)" stroke="rgb(204, 204, 204)" stroke-width="1px"></line><line x1="50" y1="37.92685714285712" x2="45" y2="37.92685714285712" style="visibility: inherit;" fill="rgb(0, 0, 0)" stroke="rgb(204, 204, 204)" stroke-width="1px"></line><line x1="50" y1="25.284571428571414" x2="45" y2="25.284571428571414" style="visibility: inherit;" fill="rgb(0, 0, 0)" stroke="rgb(204, 204, 204)" stroke-width="1px"></line><line x1="50" y1="12.642285714285688" x2="45" y2="12.642285714285688" style="visibility: inherit;" fill="rgb(0, 0, 0)" stroke="rgb(204, 204, 204)" stroke-width="1px"></line><line x1="50" y1="0" x2="45" y2="0" style="visibility: inherit;" fill="rgb(0, 0, 0)" stroke="rgb(204, 204, 204)" stroke-width="1px"></line></g><g transform="translate(40, 0)"><text x="0" y="176.992" dx="0em" dy="0.3em" style="text-anchor: end; visibility: hidden; font-family: Roboto, sans-serif; font-size: 12px; font-weight: 200;" fill="rgb(33, 33, 33)" stroke="none" stroke-width="1px">-0.2</text><text x="0" y="164.34971428571427" dx="0em" dy="0.3em" style="text-anchor: end; visibility: inherit; font-family: Roboto, sans-serif; font-size: 12px; font-weight: 200;" fill="rgb(33, 33, 33)" stroke="none" stroke-width="1px">-0.1</text><text x="0" y="151.70742857142855" dx="0em" dy="0.3em" style="text-anchor: end; visibility: hidden; font-family: Roboto, sans-serif; font-size: 12px; font-weight: 200;" fill="rgb(33, 33, 33)" stroke="none" stroke-width="1px">0</text><text x="0" y="139.06514285714286" dx="0em" dy="0.3em" style="text-anchor: end; visibility: inherit; font-family: Roboto, sans-serif; font-size: 12px; font-weight: 200;" fill="rgb(33, 33, 33)" stroke="none" stroke-width="1px">0.1</text><text x="0" y="126.42285714285713" dx="0em" dy="0.3em" style="text-anchor: end; visibility: hidden; font-family: Roboto, sans-serif; font-size: 12px; font-weight: 200;" fill="rgb(33, 33, 33)" stroke="none" stroke-width="1px">0.2</text><text x="0" y="113.7805714285714" dx="0em" dy="0.3em" style="text-anchor: end; visibility: inherit; font-family: Roboto, sans-serif; font-size: 12px; font-weight: 200;" fill="rgb(33, 33, 33)" stroke="none" stroke-width="1px">0.3</text><text x="0" y="101.1382857142857" dx="0em" dy="0.3em" style="text-anchor: end; visibility: hidden; font-family: Roboto, sans-serif; font-size: 12px; font-weight: 200;" fill="rgb(33, 33, 33)" stroke="none" stroke-width="1px">0.4</text><text x="0" y="88.496" dx="0em" dy="0.3em" style="text-anchor: end; visibility: inherit; font-family: Roboto, sans-serif; font-size: 12px; font-weight: 200;" fill="rgb(33, 33, 33)" stroke="none" stroke-width="1px">0.5</text><text x="0" y="75.85371428571426" dx="0em" dy="0.3em" style="text-anchor: end; visibility: hidden; font-family: Roboto, sans-serif; font-size: 12px; font-weight: 200;" fill="rgb(33, 33, 33)" stroke="none" stroke-width="1px">0.6</text><text x="0" y="63.21142857142858" dx="0em" dy="0.3em" style="text-anchor: end; visibility: inherit; font-family: Roboto, sans-serif; font-size: 12px; font-weight: 200;" fill="rgb(33, 33, 33)" stroke="none" stroke-width="1px">0.7</text><text x="0" y="50.56914285714285" dx="0em" dy="0.3em" style="text-anchor: end; visibility: hidden; font-family: Roboto, sans-serif; font-size: 12px; font-weight: 200;" fill="rgb(33, 33, 33)" stroke="none" stroke-width="1px">0.8</text><text x="0" y="37.92685714285712" dx="0em" dy="0.3em" style="text-anchor: end; visibility: inherit; font-family: Roboto, sans-serif; font-size: 12px; font-weight: 200;" fill="rgb(33, 33, 33)" stroke="none" stroke-width="1px">0.9</text><text x="0" y="25.284571428571414" dx="0em" dy="0.3em" style="text-anchor: end; visibility: hidden; font-family: Roboto, sans-serif; font-size: 12px; font-weight: 200;" fill="rgb(33, 33, 33)" stroke="none" stroke-width="1px">1</text><text x="0" y="12.642285714285688" dx="0em" dy="0.3em" style="text-anchor: end; visibility: inherit; font-family: Roboto, sans-serif; font-size: 12px; font-weight: 200;" fill="rgb(33, 33, 33)" stroke="none" stroke-width="1px">1.1</text><text x="0" y="0" dx="0em" dy="0.3em" style="text-anchor: end; visibility: hidden; font-family: Roboto, sans-serif; font-size: 12px; font-weight: 200;" fill="rgb(33, 33, 33)" stroke="none" stroke-width="1px">1.2</text></g><line x1="50" y1="0" x2="50" y2="176.992" fill="rgb(0, 0, 0)" stroke="rgb(204, 204, 204)" stroke-width="1px"></line></g></g><g transform="translate(50, 0)" clip-path="url(#clip_0)"><clipPath id="clip_0"><rect width="279" height="176"></rect></clipPath><g><g><g><line x1="0" y1="0" x2="0" y2="176.992" fill="rgb(0, 0, 0)" stroke="rgb(66, 66, 66)" stroke-width="1px" opacity="0.25"></line><line x1="23.333333333333332" y1="0" x2="23.333333333333332" y2="176.992" fill="rgb(0, 0, 0)" stroke="rgb(66, 66, 66)" stroke-width="1px" opacity="0.25"></line><line x1="46.666666666666664" y1="0" x2="46.666666666666664" y2="176.992" fill="rgb(0, 0, 0)" stroke="rgb(66, 66, 66)" stroke-width="1px" opacity="0.25"></line><line x1="70" y1="0" x2="70" y2="176.992" fill="rgb(0, 0, 0)" stroke="rgb(66, 66, 66)" stroke-width="1px" opacity="0.25"></line><line x1="93.33333333333333" y1="0" x2="93.33333333333333" y2="176.992" fill="rgb(0, 0, 0)" stroke="rgb(66, 66, 66)" stroke-width="1px" opacity="0.25"></line><line x1="116.66666666666667" y1="0" x2="116.66666666666667" y2="176.992" fill="rgb(0, 0, 0)" stroke="rgb(66, 66, 66)" stroke-width="1px" opacity="0.25"></line><line x1="140" y1="0" x2="140" y2="176.992" fill="rgb(0, 0, 0)" stroke="rgb(66, 66, 66)" stroke-width="1px" opacity="0.25"></line><line x1="163.33333333333334" y1="0" x2="163.33333333333334" y2="176.992" fill="rgb(0, 0, 0)" stroke="rgb(66, 66, 66)" stroke-width="1px" opacity="0.25"></line><line x1="186.66666666666666" y1="0" x2="186.66666666666666" y2="176.992" fill="rgb(0, 0, 0)" stroke="rgb(66, 66, 66)" stroke-width="1px" opacity="0.25"></line><line x1="210" y1="0" x2="210" y2="176.992" fill="rgb(0, 0, 0)" stroke="rgb(66, 66, 66)" stroke-width="1px" opacity="0.25"></line><line x1="233.33333333333334" y1="0" x2="233.33333333333334" y2="176.992" fill="rgb(0, 0, 0)" stroke="rgb(66, 66, 66)" stroke-width="1px" opacity="0.25"></line><line x1="256.66666666666663" y1="0" x2="256.66666666666663" y2="176.992" fill="rgb(0, 0, 0)" stroke="rgb(66, 66, 66)" stroke-width="1px" opacity="0.25"></line><line x1="280" y1="0" x2="280" y2="176.992" fill="rgb(0, 0, 0)" stroke="rgb(66, 66, 66)" stroke-width="1px" opacity="0.25"></line></g><g><line x1="0" y1="176.992" x2="280" y2="176.992" fill="rgb(0, 0, 0)" stroke="rgb(66, 66, 66)" stroke-width="1px" opacity="0.25"></line><line x1="0" y1="164.34971428571427" x2="280" y2="164.34971428571427" fill="rgb(0, 0, 0)" stroke="rgb(66, 66, 66)" stroke-width="1px" opacity="0.25"></line><line x1="0" y1="151.70742857142855" x2="280" y2="151.70742857142855" fill="rgb(0, 0, 0)" stroke="rgb(66, 66, 66)" stroke-width="1px" opacity="0.25"></line><line x1="0" y1="139.06514285714286" x2="280" y2="139.06514285714286" fill="rgb(0, 0, 0)" stroke="rgb(66, 66, 66)" stroke-width="1px" opacity="0.25"></line><line x1="0" y1="126.42285714285713" x2="280" y2="126.42285714285713" fill="rgb(0, 0, 0)" stroke="rgb(66, 66, 66)" stroke-width="1px" opacity="0.25"></line><line x1="0" y1="113.7805714285714" x2="280" y2="113.7805714285714" fill="rgb(0, 0, 0)" stroke="rgb(66, 66, 66)" stroke-width="1px" opacity="0.25"></line><line x1="0" y1="101.1382857142857" x2="280" y2="101.1382857142857" fill="rgb(0, 0, 0)" stroke="rgb(66, 66, 66)" stroke-width="1px" opacity="0.25"></line><line x1="0" y1="88.496" x2="280" y2="88.496" fill="rgb(0, 0, 0)" stroke="rgb(66, 66, 66)" stroke-width="1px" opacity="0.25"></line><line x1="0" y1="75.85371428571426" x2="280" y2="75.85371428571426" fill="rgb(0, 0, 0)" stroke="rgb(66, 66, 66)" stroke-width="1px" opacity="0.25"></line><line x1="0" y1="63.21142857142858" x2="280" y2="63.21142857142858" fill="rgb(0, 0, 0)" stroke="rgb(66, 66, 66)" stroke-width="1px" opacity="0.25"></line><line x1="0" y1="50.56914285714285" x2="280" y2="50.56914285714285" fill="rgb(0, 0, 0)" stroke="rgb(66, 66, 66)" stroke-width="1px" opacity="0.25"></line><line x1="0" y1="37.92685714285712" x2="280" y2="37.92685714285712" fill="rgb(0, 0, 0)" stroke="rgb(66, 66, 66)" stroke-width="1px" opacity="0.25"></line><line x1="0" y1="25.284571428571414" x2="280" y2="25.284571428571414" fill="rgb(0, 0, 0)" stroke="rgb(66, 66, 66)" stroke-width="1px" opacity="0.25"></line><line x1="0" y1="12.642285714285688" x2="280" y2="12.642285714285688" fill="rgb(0, 0, 0)" stroke="rgb(66, 66, 66)" stroke-width="1px" opacity="0.25"></line><line x1="0" y1="0" x2="280" y2="0" fill="rgb(0, 0, 0)" stroke="rgb(66, 66, 66)" stroke-width="1px" opacity="0.25"></line></g></g></g><g><g><line x1="0" y1="151.70742857142855" x2="280" y2="151.70742857142855" fill="rgb(0, 0, 0)" stroke="rgb(153, 153, 153)" stroke-width="1.5px"></line></g></g><g><g><line x1="23.333333333333332" y1="0" x2="23.333333333333332" y2="176.992" fill="rgb(0, 0, 0)" stroke="rgb(153, 153, 153)" stroke-width="1.5px"></line></g></g><g><g><g><g><g><path stroke="rgb(51, 187, 238)" stroke-width="2px" d="M23.333333333333332,11.840110347202849L24.5,8.62950694656372L25.666666666666664,9.82856426563762L26.833333333333336,10.00568238572112L28,9.982156162323601L29.166666666666668,11.397045521545069L30.333333333333336,11.551677724262985L31.5,11.40205290768902L32.666666666666664,11.61942211351023L33.833333333333336,12.530694802999504L35,13.086939264288688L36.16666666666667,13.01312134728726L37.333333333333336,13.046927249574424L38.5,13.205984646916592L39.666666666666664,12.976730863066443L40.833333333333336,13.163330632865208L42,13.522296624757342L43.16666666666667,14.120576487683381L44.33333333333333,14.103442551217263L45.5,14.8418462473782L46.666666666666664,14.85140196069206L47.833333333333336,15.049030994918661L49,14.943592922748321L50.166666666666664,15.316342370952263L51.33333333333333,15.731408431708962L52.5,16.290514048646067L53.66666666666667,16.893483409157554L54.833333333333336,16.43981442052449L56,16.49823004848082L57.166666666666664,16.701963663771902L58.333333333333336,17.39962430695204L59.5,17.924650483282235L60.66666666666667,18.626822436274953L61.83333333333333,18.81357603242329L63,19.135974066725094L64.16666666666666,19.070876681795266L65.33333333333333,18.20709096541011L66.5,17.45188880757328L67.66666666666667,18.058611006537806L68.83333333333333,19.579411009903694L70,19.99760562945354L71.16666666666666,20.52320844715635L72.33333333333334,20.647086848114732L73.5,22.040764135869814L74.66666666666667,22.64647198626713L75.83333333333333,22.9110323863307L77,23.17586691040243L78.16666666666667,23.057007139864965L79.33333333333333,23.14493515659214L80.5,22.962298455534768L81.66666666666667,24.39832428675468L82.83333333333333,25.372774707728066L84,26.909059157634253L85.16666666666666,27.092717327793483L86.33333333333334,26.53106594529459L87.5,28.13693363085444L88.66666666666666,27.38721110156025L89.83333333333334,26.875674800671707L91,27.460195625293547L92.16666666666667,27.747393829120767L93.33333333333333,28.56444670462058L94.5,28.886358927771134L95.66666666666667,30.732113630130716L96.83333333333333,31.473919211861386L98,32.909996703704614L99.16666666666667,34.521233603866L100.33333333333333,33.3146367917621L101.5,35.16780602383568L102.66666666666666,37.31251106093924L103.83333333333334,36.32391773079309L105,36.72331419405708L106.16666666666666,39.262755958974L107.33333333333334,41.81577029324065L108.5,39.63413895239442L109.66666666666667,41.24539786401653L110.83333333333333,39.88325066397089L112,40.483757933390585L113.16666666666667,40.368561133194575L114.33333333333333,41.37280503133537L115.5,44.20223077183553L116.66666666666667,44.39406823496062L117.83333333333333,45.1712240052464L119,46.96509635971694L120.16666666666666,47.496782919044996L121.33333333333334,48.96193965292062L122.5,47.23171217584661L123.66666666666666,48.24344276375121L124.83333333333334,48.1726065203069L126,48.781524125000644L127.16666666666667,49.25522454623713L128.33333333333331,48.91102647110252L129.5,49.95234099841031L130.66666666666666,52.7889503940509L131.83333333333334,55.55484068789451L133,56.29962077811495L134.16666666666669,56.76920652448613L135.33333333333334,56.56942849886789L136.5,58.891838686648946L137.66666666666666,54.87297622627596L138.83333333333334,54.397253149640605L140,54.382146880432906L141.16666666666666,56.52673360544567L142.33333333333331,55.54852840865925L143.5,56.02740173779635L144.66666666666669,57.18547917504562L145.83333333333334,57.82401517880316L147,58.33150687753686L148.16666666666666,60.08708883699748L149.33333333333334,60.7183868755671L150.5,60.35510164067752L151.66666666666666,63.62836687582496L152.83333333333331,59.567978038594L154,61.99519663782751L155.16666666666669,61.90461481606179L156.33333333333334,63.041209918886004L157.5,64.10062971098822L158.66666666666666,64.32713103595223L159.83333333333331,65.98426721900523L161,65.16261048606187L162.16666666666669,66.74304216215104L163.33333333333334,68.958000141324L164.5,71.69332275455932L165.66666666666666,73.70394934186609L166.83333333333334,73.52974247226794L168,73.9088728037866L169.16666666666666,71.37142972061076L170.33333333333331,73.30734594860354L171.5,73.01217830215077L172.66666666666669,72.26039274178852L173.83333333333334,71.19868659689458L175,70.81882465421215L176.16666666666666,66.59423636945775L177.33333333333331,70.79998273757258L178.5,72.95634255228563L179.66666666666669,74.32732987197369L180.83333333333334,73.15078041753846L182,75.14835860260874L183.16666666666666,81.23916822340475L184.33333333333334,81.55775967416822L185.5,81.05020007526161L186.66666666666666,83.17845577077779L187.83333333333331,84.43725191356879L189,81.39280643400377L190.16666666666669,79.4266621009331L191.33333333333334,81.64961980999833L192.5,84.56594227364852L193.66666666666666,83.67600592368531L194.83333333333331,87.3681015314407L196,85.5698115186438L197.16666666666669,88.14797603624733L198.33333333333334,84.19394095088049L199.5,84.91996656310816L200.66666666666666,87.23589068441203L201.83333333333334,87.5472695721288L203,89.33162811143481L204.16666666666666,87.58100697310563L205.33333333333331,91.05743663783632L206.5,90.87436906877446L207.66666666666669,93.41364745079703L208.83333333333334,90.8738747558786L210,90.61410738891664L211.16666666666666,91.7491511203835L212.33333333333331,93.24754407156134L213.5,93.35827562016111L214.66666666666669,92.9593680783519L215.83333333333334,93.54808449033038L217,94.58087384679484L218.16666666666666,94.82533630464584L219.33333333333334,97.11808517114332L220.5,97.30500871382444L221.66666666666666,91.87945182155202L222.83333333333331,95.66525947385381L224,98.91877109454484L225.16666666666669,98.67876544537957L226.33333333333334,95.42313599621204L227.5,93.23355250063337L228.66666666666666,96.48763343971761L229.83333333333331,97.76784538539864L231,93.3502742408653L232.16666666666669,94.46642861432161L233.33333333333334,98.1048235655787L234.5,97.5246075894793L235.66666666666666,98.27091646648579L236.83333333333334,97.23687950581134L238,101.90902705635067L239.16666666666666,104.30041612629043L240.33333333333331,103.86637501430138L241.5,103.52250042972341L242.66666666666669,103.58807061676436L243.83333333333334,104.96187444604956L245,105.4919871944961L246.16666666666666,106.67302121183053L247.33333333333331,104.04222676654665L248.5,106.68031141927247L249.66666666666669,107.22671610576836L250.83333333333334,103.87766109405969L252,101.70205466381233L253.16666666666666,102.78151950641073L254.33333333333334,102.84845347925015L255.5,105.7473567725215" style="fill: none;" fill="none"></path></g><g><path stroke="rgb(204, 51, 17)" stroke-width="2px" d="M23.333333333333332,6.627564949580598L24.5,7.717106916155125L25.666666666666664,6.760404639308024L26.833333333333336,9.0928474081985L28,9.880721181001L29.166666666666668,10.868675366096188L30.333333333333336,10.525616954126145L31.5,10.16455322023084L32.666666666666664,10.505272111446368L33.833333333333336,11.90560590974793L35,11.970634943336957L36.16666666666667,12.371668598123891L37.333333333333336,11.462123899973946L38.5,12.245289329686168L39.666666666666664,10.667540747403976L40.833333333333336,12.511646354328164L42,12.560207729149207L43.16666666666667,12.326803773090479L44.33333333333333,12.465211108868248L45.5,12.218278413045187L46.666666666666664,13.246249852946066L47.833333333333336,12.745589711328064L49,12.721736765471983L50.166666666666664,13.751232216835426L51.33333333333333,13.067669410551078L52.5,13.71316447097291L53.66666666666667,13.62543539110755L54.833333333333336,13.85229481099805L56,14.14543589200847L57.166666666666664,14.144244807603243L58.333333333333336,14.907600667980578L59.5,15.609953664345298L60.66666666666667,15.0148051655751L61.83333333333333,14.533611230176742L63,14.896591542057967L64.16666666666666,15.227754182495753L65.33333333333333,15.266424204029105L66.5,16.21826953624063L67.66666666666667,16.662938925668215L68.83333333333333,15.62156077134983L70,16.04185020477647L71.16666666666666,16.59996670642999L72.33333333333334,16.67097740874004L73.5,18.29100609666515L74.66666666666667,19.20979331786718L75.83333333333333,18.56522345139966L77,19.20988947530903L78.16666666666667,20.192864992972908L79.33333333333333,20.549113512433696L80.5,19.45426688500438L81.66666666666667,20.483537944292397L82.83333333333333,20.10095546005575L84,20.821871773479938L85.16666666666666,21.541718835442307L86.33333333333334,22.84592376015469L87.5,20.226254529442137L88.66666666666666,20.484805126810134L89.83333333333334,19.903649563861514L91,19.903386607867322L92.16666666666667,20.647134541493934L93.33333333333333,22.023395044398015L94.5,23.094425259932656L95.66666666666667,23.518227735043716L96.83333333333333,21.92151614542077L98,22.756743097897008L99.16666666666667,21.041058105660262L100.33333333333333,21.056877972527026L101.5,22.3599008810678L102.66666666666666,23.323371767741566L103.83333333333334,24.50644962292692L105,25.35005552782372L106.16666666666666,24.26045566646056L107.33333333333334,23.24219388916031L108.5,24.584678038840266L109.66666666666667,25.97696437912952L110.83333333333333,26.81800279620068L112,26.8613605424229L113.16666666666667,27.652536724056887L114.33333333333333,27.18390510753244L115.5,25.768713316420268L116.66666666666667,26.21063652332994L117.83333333333333,27.892268850839667L119,27.56391856104438L120.16666666666666,26.62235765060369L121.33333333333334,26.302550338653226L122.5,25.45292893017296L123.66666666666666,26.855785631658993L124.83333333333334,28.114502078698063L126,28.455415133588804L127.16666666666667,28.142052632617357L128.33333333333331,29.48689913317235L129.5,28.8727742407328L130.66666666666666,29.260948863200127L131.83333333333334,30.270282084948906L133,33.98277736014378L134.16666666666669,33.84425867791837L135.33333333333334,36.33472712654645L136.5,36.42632558344044L137.66666666666666,34.24884112436061L138.83333333333334,33.61419371935077L140,36.01969692302977L141.16666666666666,35.6501529263093L142.33333333333331,33.14160762449024L143.5,31.865646708613987L144.66666666666669,31.769257958269506L145.83333333333334,33.873150117979286L147,34.50448395441095L148.16666666666666,33.39398686301611L149.33333333333334,35.549547293263934L150.5,36.12264499550443L151.66666666666666,37.87127805325445L152.83333333333331,37.08065034537606L154,36.33598231374507L155.16666666666669,37.3232474972035L156.33333333333334,36.089124647526894L157.5,35.90157069120429L158.66666666666666,37.72690840462562L159.83333333333331,36.676788658607L161,37.128711331455705L162.16666666666669,37.32773317279658L163.33333333333334,38.59210048434027L164.5,38.4310567253881L165.66666666666666,37.91668656154338L166.83333333333334,39.50796221572588L168,37.58226770615323L169.16666666666666,38.222718179735274L170.33333333333331,39.20462321861037L171.5,37.87962961746294L172.66666666666669,40.22929617105152L173.83333333333334,40.13736230313401L175,38.826420281159315L176.16666666666666,40.33079733689103L177.33333333333331,41.3180490084753L178.5,42.92945594469699L179.66666666666669,42.05053056373592L180.83333333333334,42.34394201519552L182,43.58939026361297L183.16666666666666,46.49440292277261L184.33333333333334,49.19966769970849L185.5,48.93134132220894L186.66666666666666,46.20629961253049L187.83333333333331,45.444050525029986L189,45.47966022475136L190.16666666666669,45.21474755533508L191.33333333333334,43.517332636921566L192.5,42.285318691061434L193.66666666666666,42.769182406064914L194.83333333333331,42.30372216816115L196,43.91845411748165L197.16666666666669,44.92365606260414L198.33333333333334,48.14008948935167L199.5,49.85013319146605L200.66666666666666,47.316866412922145L201.83333333333334,46.74755902741898L203,48.19090641821269L204.16666666666666,46.25063935307257L205.33333333333331,48.63573497499836L206.5,50.46495931472836L207.66666666666669,50.793287387586666L208.83333333333334,49.15747555853294L210,52.6616611459064L211.16666666666666,48.809068721126245L212.33333333333331,47.59968755977622L213.5,49.35596297237608L214.66666666666669,49.78014642792202L215.83333333333334,47.66655485809599L217,51.08137321113968L218.16666666666666,50.887171677320296L219.33333333333334,55.210258098795045L220.5,50.816889904137874L221.66666666666666,50.65543664154454L222.83333333333331,49.96172265223714L224,50.304066847982035L225.16666666666669,53.31560719972288L226.33333333333334,52.55069694901028L227.5,56.00436314087221L228.66666666666666,55.67729785605479L229.83333333333331,54.89844045461711L231,51.927143213134556L232.16666666666669,51.01843689354411L233.33333333333334,53.82053559520676L234.5,53.43261001755495L235.66666666666666,56.76513077003266L236.83333333333334,55.13144613573002L238,51.58059148493098L239.16666666666666,54.93972749107804L240.33333333333331,56.868814347168424L241.5,58.897689043176534L242.66666666666669,55.838406036183365L243.83333333333334,53.43193101086581L245,58.908116680380736L246.16666666666666,57.17704004683319L247.33333333333331,59.25723752242799L248.5,58.694562728954494L249.66666666666669,53.756249912087576L250.83333333333334,51.216151294385625L252,51.26390806026175L253.16666666666666,55.990814170459664L254.33333333333334,53.32195191616828L255.5,55.37890641145459" style="fill: none;" fill="none"></path></g><g><path stroke="rgb(0, 119, 187)" stroke-width="2px" d="M29.166666666666668,-9.369889561749932L30.333333333333336,9.101537019011916L31.5,33.707857495729165L32.666666666666664,56.98285418316801L33.833333333333336,75.64476367572247L35,89.54587335564108L36.16666666666667,101.52086713151988L37.333333333333336,109.55390481922755L38.5,114.94900950043447L39.666666666666664,117.29616158815315L40.833333333333336,120.92597562390488L42,124.08675091261992L43.16666666666667,124.2925352077735L44.33333333333333,125.82661134690039L45.5,125.07030194021974L46.666666666666664,125.02149470867239L47.833333333333336,126.24692492842354L49,127.14500324071452L50.166666666666664,127.31386836843167L51.33333333333333,126.99962710599674L52.5,128.74405453395784L53.66666666666667,130.00838636594904L54.833333333333336,131.00725595322115L56,131.20694305885183L57.166666666666664,131.11827586860807L58.333333333333336,130.31118009393515L59.5,131.18628295685298L60.66666666666667,133.26368165881885L61.83333333333333,131.3653932077837L63,133.06226684931906L64.16666666666666,131.28952837283455L65.33333333333333,131.3336568863341L66.5,131.976116671145L67.66666666666667,131.77350135525967L68.83333333333333,133.36749545536443L70,133.33270787864862L71.16666666666666,133.7031646869752L72.33333333333334,134.92922725276938L73.5,134.97117492024734L74.66666666666667,135.24929373582296L75.83333333333333,135.42048054271186L77,134.69965066282154L78.16666666666667,135.50583286970567L79.33333333333333,135.4250156798999L80.5,136.52308235011037L81.66666666666667,136.6486835290189L82.83333333333333,137.55037617831124L84,137.4179366776335L85.16666666666666,137.4703543499514L86.33333333333334,138.12619749938318L87.5,138.16394145006117L88.66666666666666,139.24646446569267L89.83333333333334,139.12218306866075L91,138.57312507140247L92.16666666666667,139.16034327728516L93.33333333333333,138.84166585153235L94.5,139.37360284463784L95.66666666666667,139.59811263632906L96.83333333333333,139.9950583545761L98,139.37464162301654L99.16666666666667,139.38816773294502L100.33333333333333,139.7196559732315L101.5,139.9320380181321L102.66666666666666,140.0222605059193L103.83333333333334,139.9274050311048L105,140.1107825069376L106.16666666666666,140.09648410829504L107.33333333333334,139.9562768854722L108.5,140.3075217362725L109.66666666666667,140.4751537854687L110.83333333333333,141.23509165211496L112,141.3952677283933L113.16666666666667,141.5973333838033L114.33333333333333,142.06363785387728L115.5,143.0186733817199L116.66666666666667,142.58765811510403L117.83333333333333,142.71178419756941L119,143.12944409065958L120.16666666666666,143.476611882774L121.33333333333334,144.23265700602323L122.5,143.76516315492097L123.66666666666666,143.96949418091154L124.83333333333334,144.17750718993085L126,143.6548155541956L127.16666666666667,144.0530671225529L128.33333333333331,145.53663561429795L129.5,146.14455517960576L130.66666666666666,146.28246324900124L131.83333333333334,146.44102729585455L133,147.09903021353892L134.16666666666669,147.13502619877616L135.33333333333334,145.85381033195267L136.5,145.66735863118552L137.66666666666666,147.91748227988379L138.83333333333334,148.8898030728194L140,148.56902444607405L141.16666666666666,149.81403477508817L142.33333333333331,149.61309458259257L143.5,150.6268915763498L144.66666666666669,152.9063532301852L145.83333333333334,151.5476316411349L147,150.7879945087958L148.16666666666666,152.0909775998635L149.33333333333334,152.73878870030728L150.5,151.9701830838505L151.66666666666666,151.80818245943303L152.83333333333331,151.77968778886208L154,150.84336091366214L155.16666666666669,152.71998649804559L156.33333333333334,151.6173529809793L157.5,155.58833572867394L158.66666666666666,155.90466073045405L159.83333333333331,157.43197097678942L161,156.80425069910095L162.16666666666669,155.63296546215724L163.33333333333334,154.33216176734427L164.5,152.93740846893652L165.66666666666666,154.39718844883635L166.83333333333334,154.70455020109154L168,157.14588130368793L169.16666666666666,158.73889311036555L170.33333333333331,156.83081089635883L171.5,155.82662703840165L172.66666666666669,153.1254901221187L173.83333333333334,153.73736265256008L175,155.92913109681095L176.16666666666666,152.89497765847238L177.33333333333331,154.65438976938842L178.5,155.98121799557143L179.66666666666669,159.14793716221973L180.83333333333334,160.64937556935843L182,160.09270345224863L183.16666666666666,157.53753853972086L184.33333333333334,156.64057990465443L185.5,156.7639143376735L186.66666666666666,160.6405424902193L187.83333333333331,160.38743323791252L189,158.56613624232634L190.16666666666669,158.75550532049056L191.33333333333334,157.98088689115286L192.5,157.34218227784504L193.66666666666666,159.9129499309852L194.83333333333331,160.6297202193393L196,160.1654569355622L197.16666666666669,160.69172358693928L198.33333333333334,159.57224996672676L199.5,160.92801998301425L200.66666666666666,158.96075862216654L201.83333333333334,160.1771661865898L203,161.99332076326536L204.16666666666666,162.76702599341246L205.33333333333331,164.44771004004988L206.5,165.00555277970346L207.66666666666669,165.10430314911807L208.83333333333334,163.686273416674L210,164.74815294228716L211.16666666666666,163.94452360611902L212.33333333333331,163.2486913384712L213.5,168.54730748643885L214.66666666666669,169.06626465135034L215.83333333333334,167.40194572906879L217,166.86357339088943L218.16666666666666,166.86054972197482L219.33333333333334,166.8024163963361L220.5,166.61685912945052L221.66666666666666,168.3013731101711L222.83333333333331,171.37180561574624L224,173.20860045463212L225.16666666666669,174.00734552875633L226.33333333333334,170.66348935501603L227.5,170.63372941348024L228.66666666666666,171.93237079707168L229.83333333333331,172.02782377278777L231,172.6624435373543L232.16666666666669,170.4732361472299L233.33333333333334,170.760980473019L234.5,170.35643356484013L235.66666666666666,171.2609993651091L236.83333333333334,171.01439021818L238,171.9827241111424L239.16666666666666,173.86939193365563L240.33333333333331,175.55964517579002L241.5,173.29797115668796L242.66666666666669,172.95447135705948L243.83333333333334,171.11903037740706L245,171.01570982214844L246.16666666666666,172.70864263659482L247.33333333333331,174.28371887088534L248.5,174.9717369971386L249.66666666666669,176.37268082830548L250.83333333333334,173.91014757389738L252,174.2113465147124L253.16666666666666,176.5997963490413L254.33333333333334,172.26541966786627L255.5,172.35923154533123" style="fill: none;" fill="none"></path></g><g><path stroke="rgb(255, 112, 67)" stroke-width="2px" d="M23.333333333333332,11.36412993458338L24.5,9.580032280104495L25.666666666666664,7.915136029290723L26.833333333333336,6.907679811587849L28,6.512629949319886L29.166666666666668,7.0160706293873165L30.333333333333336,7.14107206229865L31.5,7.772221125873477L32.666666666666664,9.910898868205889L33.833333333333336,10.295898429507744L35,11.319784075396937L36.16666666666667,11.60821259624429L37.333333333333336,12.279982241127724L38.5,11.646862599900928L39.666666666666664,11.991763881745968L40.833333333333336,12.596895235008196L42,13.533489403529884L43.16666666666667,13.535661340988716L44.33333333333333,13.22129067475668L45.5,14.056096185995825L46.666666666666664,13.505551125301924L47.833333333333336,12.878104485800545L49,13.35949538699478L50.166666666666664,13.52454155781895L51.33333333333333,13.829677319142732L52.5,13.646742629681853L53.66666666666667,13.362166828906906L54.833333333333336,12.965094465407878L56,13.138603121828526L57.166666666666664,13.172858212893116L58.333333333333336,13.696033865060787L59.5,13.65952548777046L60.66666666666667,13.57829584603435L61.83333333333333,13.297064163599353L63,13.243465912704536L64.16666666666666,13.453403958836995L65.33333333333333,13.90443143318202L66.5,14.931655278562L67.66666666666667,13.985089516215895L68.83333333333333,14.751329955435033L70,14.829572518829853L71.16666666666666,14.80513681921726L72.33333333333334,15.143203967499884L73.5,14.828326828382385L74.66666666666667,14.764114255199724L75.83333333333333,14.846779887571502L77,14.279116329694856L78.16666666666667,14.968449202390847L79.33333333333333,15.224619568740213L80.5,14.708600483784927L81.66666666666667,14.491831059661637L82.83333333333333,14.998383222677639L84,15.505233517025095L85.16666666666666,14.367244965996536L86.33333333333334,15.151568056127797L87.5,15.443344103417267L88.66666666666666,15.555226997982675L89.83333333333334,15.16769544605169L91,15.106115318429662L92.16666666666667,15.0844610683684L93.33333333333333,15.243588870940497L94.5,15.699112490698703L95.66666666666667,15.377353940254867L96.83333333333333,14.904832312839773L98,15.605344750993838L99.16666666666667,15.43003091523254L100.33333333333333,16.166961573475128L101.5,16.25241271482829L102.66666666666666,16.117999345946718L103.83333333333334,17.115050673067447L105,17.251000394815993L106.16666666666666,17.171662534819603L107.33333333333334,16.434680189959124L108.5,17.266574438263984L109.66666666666667,17.268314997692638L110.83333333333333,17.07337289514354L112,17.345541175266213L113.16666666666667,18.41389064776052L114.33333333333333,18.405813937083348L115.5,19.334192743484298L116.66666666666667,19.075963224084784L117.83333333333333,19.62719398909476L119,20.992872982419936L120.16666666666666,21.305486251086982L121.33333333333334,22.156059977929665L122.5,23.65407374299645L123.66666666666666,22.734595531895806L124.83333333333334,22.79032128136545L126,23.14941215162306L127.16666666666667,21.839625472649328L128.33333333333331,21.709531285307303L129.5,22.38893815289825L130.66666666666666,22.18454588233082L131.83333333333334,22.66872639327265L133,23.01878839006689L134.16666666666669,25.354447439928283L135.33333333333334,26.601822522794848L136.5,26.26226693864289L137.66666666666666,24.0092422177599L138.83333333333334,24.552843088049926L140,25.338770878813477L141.16666666666666,25.846816923345227L142.33333333333331,25.756919749409413L143.5,26.42822651373431L144.66666666666669,25.606883535280886L145.83333333333334,26.87480891341359L147,25.747641628783693L148.16666666666666,27.048549092522045L149.33333333333334,26.72625616297172L150.5,28.900991090862508L151.66666666666666,27.390167452674252L152.83333333333331,29.687974070629714L154,28.517233827993593L155.16666666666669,29.880022922811953L156.33333333333334,28.81335769943564L157.5,28.140248063984224L158.66666666666666,29.4281435349804L159.83333333333331,30.706987717384553L161,31.377925637698265L162.16666666666669,33.816297441400174L163.33333333333334,36.39028710959805L164.5,31.53266825335124L165.66666666666666,30.77247383768753L166.83333333333334,29.863094467908805L168,30.24476283439693L169.16666666666666,34.23686502660076L170.33333333333331,32.51433740040346L171.5,32.60769311080045L172.66666666666669,34.66678487075709L173.83333333333334,36.92942805234142L175,35.22733536970004L176.16666666666666,36.83081265610261L177.33333333333331,38.638212992787864L178.5,34.986516219919366L179.66666666666669,34.70349193115727L180.83333333333334,35.670354692821725L182,36.83156541753456L183.16666666666666,34.753906121073875L184.33333333333334,34.6219182293765L185.5,35.86812515201622L186.66666666666666,38.47042922568762L187.83333333333331,40.26487523855066L189,39.67831660692783L190.16666666666669,38.501949534469205L191.33333333333334,40.35366158349627L192.5,39.19935481164387L193.66666666666666,38.603522135447356L194.83333333333331,40.93021567711628L196,40.57913969189251L197.16666666666669,38.128608616880236L198.33333333333334,40.9970617456199L199.5,42.515202569702105L200.66666666666666,41.29533210504495L201.83333333333334,42.24079958367954L203,43.50117916797591L204.16666666666666,40.313338846370975L205.33333333333331,43.7644454596824L206.5,44.724007204681676L207.66666666666669,43.34115485752057L208.83333333333334,45.14902870552796L210,46.27548098718047L211.16666666666666,48.698221418868165L212.33333333333331,45.09253283355528L213.5,41.662487020275655L214.66666666666669,40.544912310715375L215.83333333333334,42.97644620616188L217,44.4094839876044L218.16666666666666,42.54892856874499L219.33333333333334,41.935302249497205L220.5,42.74465163222569L221.66666666666666,45.36305379028773L222.83333333333331,46.35158235003062L224,47.32279820315715L225.16666666666669,48.068397623502115L226.33333333333334,50.52033364485847L227.5,48.756558577287215L228.66666666666666,50.56499080345938L229.83333333333331,46.596808903702126L231,47.55672373736722L232.16666666666669,49.353264069865226L233.33333333333334,48.811106656095845L234.5,50.2147982841892L235.66666666666666,51.6695047896925L236.83333333333334,50.675565555177116L238,51.9492927802847L239.16666666666666,50.861016906138154L240.33333333333331,48.9261912044739L241.5,50.348918608552935L242.66666666666669,51.71250499944749L243.83333333333334,51.182874055380495L245,51.67631332341296L246.16666666666666,50.54728402360188L247.33333333333331,50.72840049588285L248.5,53.2634356539532L249.66666666666669,53.39760749691208L250.83333333333334,52.441810684103935L252,50.43561693577887L253.16666666666666,50.79083110725063L254.33333333333334,47.57609585967597L255.5,51.37359913415274" style="fill: none;" fill="none"></path></g></g></g></g><g opacity="0.2"><g><g><g><path stroke="rgb(51, 187, 238)" stroke-width="2px" d="M23.333333333333332,11.840110347202849L24.5,6.703144906180239L25.666666666666664,10.979659291948582L26.833333333333336,10.213973294939304L28,9.951440325055792L29.166666666666668,13.354346865517737L30.333333333333336,11.77280424826486L31.5,11.183898488725927L32.666666666666664,11.939999470302034L33.833333333333336,13.883828543526771L35,13.916260859898161L36.16666666666667,12.902796185629702L37.333333333333336,13.09752572086878L38.5,13.444259132930208L39.666666666666664,12.633119666508268L40.833333333333336,13.443098682948518L42,14.060593710218145L43.16666666666667,15.017844378880094L44.33333333333333,14.077744256700779L45.5,15.949384298597051L46.666666666666664,14.865735006604863L47.833333333333336,15.345468043191078L49,14.785437896183561L50.166666666666664,15.875462127685546L51.33333333333333,16.354004572732094L52.5,17.12917008972168L53.66666666666667,17.797935907091404L54.833333333333336,15.75931163406372L56,16.585853436606264L57.166666666666664,17.007563974108006L58.333333333333336,18.446115040370394L59.5,18.712189643314908L60.66666666666667,19.680080281938817L61.83333333333333,19.093706413269043L63,19.619571104322148L64.16666666666666,18.9732306060791L65.33333333333333,16.911412404196597L66.5,16.319085577828528L67.66666666666667,18.968694301605222L68.83333333333333,21.860611009870244L70,20.624897557939793L71.16666666666666,21.31161267307825L72.33333333333334,20.83290444946289L73.5,24.131280066898892L74.66666666666667,23.555033761705662L75.83333333333333,23.307872986384798L77,23.573118696485235L78.16666666666667,22.87871748406546L79.33333333333333,23.276827181679867L80.5,22.688343403952455L81.66666666666667,26.552363033567143L82.83333333333333,26.834450339181085L84,29.21348583248682L85.16666666666666,27.368204583031794L86.33333333333334,25.68858887154715L87.5,30.545735159192752L88.66666666666666,26.262627307619358L89.83333333333334,26.10837034933908L91,28.3369768622262L92.16666666666667,28.17819113486154L93.33333333333333,29.79002601787021L94.5,29.369227262496945L95.66666666666667,33.50074568367004L96.83333333333333,32.586627584457396L98,35.06411294146945L99.16666666666667,36.938088954108096L100.33333333333333,31.504741573606207L101.5,37.94755987194605L102.66666666666666,40.529568616594574L103.83333333333334,34.84102773557391L105,37.32240888895306L106.16666666666666,43.07191860634939L107.33333333333334,45.64529179464068L108.5,36.36169194112506L109.66666666666667,43.66228623144967L110.83333333333333,37.840029863902494L112,41.38451883752005L113.16666666666667,40.19576593290057L114.33333333333333,42.87917087854657L115.5,48.446369382585786L116.66666666666667,44.68182442964825L117.83333333333333,46.33695766067505L119,49.655904891422814L120.16666666666666,48.294312758037016L121.33333333333334,51.15967475373404L122.5,44.636370960235595L123.66666666666666,49.76103864560809L124.83333333333334,48.06635215514047L126,49.69490053204127L127.16666666666667,49.96577517809186L128.33333333333331,48.3947293584006L129.5,51.514312789372035L130.66666666666666,57.043864487511776L131.83333333333334,59.703676128659914L133,57.41679091344561L134.16666666666669,57.473585144042964L135.33333333333334,56.26976146044049L136.5,62.375453968320556L137.66666666666666,48.84468253571646L138.83333333333334,53.683668534687584L140,54.35948747662134L141.16666666666666,59.743613692964814L142.33333333333331,54.08122061347961L143.5,56.745711731501984L144.66666666666669,58.92259533091953L145.83333333333334,58.78181918443951L147,59.092744425637385L148.16666666666666,62.72046177618844L149.33333333333334,61.665333933421536L150.5,59.81017378834314L151.66666666666666,68.53826472854614L152.83333333333331,53.47739478274753L154,65.63602453667777L155.16666666666669,61.768742083413265L156.33333333333334,64.74610257312229L157.5,65.68975939914158L158.66666666666666,64.66688302339826L159.83333333333331,68.46997149358477L161,63.930125386646814L162.16666666666669,69.11368967628479L163.33333333333334,72.28043711008344L164.5,75.79630667441232L165.66666666666666,76.71988922282627L166.83333333333334,73.26843216787066L168,74.47756830106464L169.16666666666666,67.56526509584698L170.33333333333331,76.21122029059273L171.5,72.56942683247158L172.66666666666669,71.13271440124511L173.83333333333334,69.60612737955366L175,70.2490317401886L176.16666666666666,60.257353942326134L177.33333333333331,77.10860228974478L178.5,76.19088227435519L179.66666666666669,76.38381085150583L180.83333333333334,71.38595623588562L182,78.14472588021414L183.16666666666666,90.37538265459878L184.33333333333334,82.03564685031344L185.5,80.28886067690168L186.66666666666666,86.37083931405203L187.83333333333331,86.3254461277553L189,76.82613821465628L190.16666666666669,76.47744560132708L191.33333333333334,84.98405637359619L192.5,88.94042596912384L193.66666666666666,82.3411013987405L194.83333333333331,92.90624494307382L196,82.8723764994485L197.16666666666669,92.01522281265258L198.33333333333334,78.2628883228302L199.5,86.00900498144966L200.66666666666666,90.70977686636789L201.83333333333334,88.01433790370395L203,92.0081659203938L204.16666666666666,84.95507526561191L205.33333333333331,96.27208113493236L206.5,90.59976771518163L207.66666666666669,97.22256502383095L208.83333333333334,87.06421571350097L210,90.22445633847371L211.16666666666666,93.45171671758379L212.33333333333331,95.49513349832806L213.5,93.52437294306073L214.66666666666669,92.36100676563807L215.83333333333334,94.43115910829816L217,96.13005788149151L218.16666666666666,95.19202999142236L219.33333333333334,100.55720847088949L220.5,97.58539402784619L221.66666666666666,83.7411164831434L222.83333333333331,101.34397095230646L224,103.79903852558135L225.16666666666669,98.31875697163171L226.33333333333334,90.53969182246071L227.5,89.94917725726538L228.66666666666666,101.36875484834398L229.83333333333331,99.68816330392019L231,86.72391752406527L232.16666666666669,96.14066017450604L233.33333333333334,103.56241599246434L234.5,96.65428362533025L235.66666666666666,99.39037978199548L236.83333333333334,95.6858240647997L238,108.91724838215963L239.16666666666666,107.88749973120007L240.33333333333331,103.21531334631783L241.5,103.00668855285645L242.66666666666669,103.68642589732579L243.83333333333334,107.02258018997736L245,106.28715631716592L246.16666666666666,108.4445722378322L247.33333333333331,100.09603509862082L248.5,110.6374383983612L249.66666666666669,108.04632313551221L250.83333333333334,98.85407857649666L252,98.43864501844133L253.16666666666666,104.40071677030835L254.33333333333334,102.94885443850927L255.5,110.0957117124285" style="fill: none;" fill="none"></path></g><g><path stroke="rgb(204, 51, 17)" stroke-width="2px" d="M23.333333333333332,6.627564949580598L24.5,8.370832096099853L25.666666666666664,5.841970453534796L26.833333333333336,11.835800104413702L28,10.909369178771971L29.166666666666668,12.235371667589451L30.333333333333336,10.035037936074378L31.5,9.63811882999964L32.666666666666664,11.007766294751837L33.833333333333336,13.9849383997236L35,12.067588685171938L36.16666666666667,12.97103667286463L37.333333333333336,10.100776673998142L38.5,13.41850317164829L39.666666666666664,8.30277245821271L40.833333333333336,15.276504158564972L42,12.633029241834356L43.16666666666667,11.97675710024152L44.33333333333333,12.67280102757044L45.5,11.847901939937044L46.666666666666664,14.788150636400486L47.833333333333336,11.99461597333634L49,12.68595781762259L50.166666666666664,15.29546319852555L51.33333333333333,12.042330059596466L52.5,14.681404308864044L53.66666666666667,13.49384199578421L54.833333333333336,14.192583592551088L56,14.585147243499755L57.166666666666664,14.142458181653693L58.333333333333336,16.052634205409454L59.5,16.663483019147588L60.66666666666667,14.122082488468717L61.83333333333333,13.81182036154611L63,15.441061994280124L64.16666666666666,15.724498134613036L65.33333333333333,15.32442923573084L66.5,17.646037525721955L67.66666666666667,17.329943007332922L68.83333333333333,14.05949354335239L70,16.672284354073646L71.16666666666666,17.437141458238866L72.33333333333334,16.77749346215384L73.5,20.721049127851202L74.66666666666667,20.587974149431492L75.83333333333333,17.598368651798793L77,20.17688851111276L78.16666666666667,21.66732826941354L79.33333333333333,21.08348629161289L80.5,17.811996943882534L81.66666666666667,22.027444533211828L82.83333333333333,19.52708173370361L84,21.9032462436131L85.16666666666666,22.621489428383967L86.33333333333334,24.802231147221157L87.5,16.296750683375762L88.66666666666666,20.872631022862027L89.83333333333334,19.031916219438816L91,19.902992173876072L92.16666666666667,21.762756441933753L93.33333333333333,24.087785798754002L94.5,24.7009705832345L95.66666666666667,24.1539314477103L96.83333333333333,19.526448760986327L98,24.009583526611326L99.16666666666667,18.467530617305208L100.33333333333333,21.080607772827147L101.5,24.314435243879032L102.66666666666666,24.768578097752165L103.83333333333334,26.281066405705044L105,26.615464385168885L106.16666666666666,22.6260558744158L107.33333333333334,21.71480122320993L108.5,26.598404263360163L109.66666666666667,28.065393889563417L110.83333333333333,28.07956042180743L112,26.92639716175623L113.16666666666667,28.83930099650791L114.33333333333333,26.48095768274579L115.5,23.645925629752018L116.66666666666667,26.873521333694455L117.83333333333333,30.414717342104222L119,27.0713931263515L120.16666666666666,25.210016284942625L121.33333333333334,25.822839370727536L122.5,24.178496817452572L123.66666666666666,28.960070683888027L124.83333333333334,30.00257674925668L126,28.96678471592493L127.16666666666667,27.67200888116019L128.33333333333331,31.504168884004855L129.5,27.95158690207345L130.66666666666666,29.843210796901154L131.83333333333334,31.78428191757202L133,39.55152027293613L134.16666666666669,33.636480654580254L135.33333333333334,40.070429799488615L136.5,36.563723268781374L137.66666666666666,30.982614435740874L138.83333333333334,32.66222261183603L140,39.62795172854831L141.16666666666666,35.09583693122863L142.33333333333331,29.378789671761652L143.5,29.951705334799623L144.66666666666669,31.624674832752774L145.83333333333334,37.028988357543945L147,35.45148470905848L148.16666666666666,31.7282412259238L149.33333333333334,38.78288793863568L150.5,36.98229154886518L151.66666666666666,40.49422763987949L152.83333333333331,35.894708783558436L154,35.21898026629856L155.16666666666669,38.804145272391175L156.33333333333334,34.237940373011995L157.5,35.6202397567204L158.66666666666666,40.4649149747576L159.83333333333331,35.1016090395791L161,37.806595340728755L162.16666666666669,37.62626593480792L163.33333333333334,40.48865145165579L164.5,38.18949108695983L165.66666666666666,37.145131315776275L166.83333333333334,41.89487569699969L168,34.69372594179425L169.16666666666666,39.18339389010837L170.33333333333331,40.67748077692303L171.5,35.89213921574183L172.66666666666669,43.753796001434324L173.83333333333334,39.999461501257755L175,36.86000724819727L176.16666666666666,42.587362920488616L177.33333333333331,42.79892651585169L178.5,45.34656634902954L179.66666666666669,40.73214249229431L180.83333333333334,42.78405919238498L182,45.45756263623919L183.16666666666666,50.851921911512086L184.33333333333334,53.2575648651123L185.5,48.52885175595965L186.66666666666666,42.118737048012875L187.83333333333331,44.300676893779205L189,45.5330747743334L190.16666666666669,44.817378551210666L191.33333333333334,40.97121025930132L192.5,40.43729777227129L193.66666666666666,43.49497797857013L194.83333333333331,41.60553181130545L196,46.34055204146249L197.16666666666669,46.431458980287815L198.33333333333334,52.964739629472994L199.5,52.41519874463763L200.66666666666666,43.51696624510629L201.83333333333334,45.893597949164246L203,50.355927504403255L204.16666666666666,43.340238755362364L205.33333333333331,52.21337840788705L206.5,53.20879582432337L207.66666666666669,51.28577949687412L208.83333333333334,46.7037578149523L210,57.91793952696664L211.16666666666666,43.030180083956026L212.33333333333331,45.78561581775119L213.5,51.990376091275884L214.66666666666669,50.416421611240935L215.83333333333334,44.49616750335693L217,56.203600740705205L218.16666666666666,50.595869376591274L219.33333333333334,61.694887731007164L220.5,44.226837612152096L221.66666666666666,50.41325674765451L222.83333333333331,48.921151668276096L224,50.81758314159937L225.16666666666669,57.83291772733416L226.33333333333334,51.40333157294137L227.5,61.184862428665156L228.66666666666666,55.186699928828645L229.83333333333331,53.73015435246057L231,47.47019735091073L232.16666666666669,49.655377414158416L233.33333333333334,58.023683647700715L234.5,52.850721651077265L235.66666666666666,61.76391189874921L236.83333333333334,52.68091918427603L238,46.25430950873239L239.16666666666666,59.97843150029864L240.33333333333331,59.76244463130405L241.5,61.94100108718872L242.66666666666669,51.249481525693604L243.83333333333334,49.82221847288949L245,67.12239518465314L246.16666666666666,54.58042509651184L247.33333333333331,62.37753373582022L248.5,57.85055053874424L249.66666666666669,46.348780686787194L250.83333333333334,47.40600336783273L252,51.33554320907592L253.16666666666666,63.08117333575656L254.33333333333334,49.31865853473117L255.5,58.46433815438406" style="fill: none;" fill="none"></path></g><g><path stroke="rgb(0, 119, 187)" stroke-width="2px" d="M26.833333333333336,-22.735843485151005L28,3.173809600830078L29.166666666666668,8.315537408011295L30.333333333333336,35.51597257232666L31.5,69.58410897145953L32.666666666666664,91.3089533617837L33.833333333333336,103.355524338586L35,110.27145583384377L36.16666666666667,119.41819040802545L37.333333333333336,121.57723208897453L38.5,123.031096950531L39.666666666666664,120.81413073056082L40.833333333333336,126.36813665144781L42,128.82657631152014L43.16666666666667,124.60115940189361L44.33333333333333,128.12749185453143L45.5,123.93590695987429L46.666666666666664,124.94828653805594L47.833333333333336,128.08502993474687L49,128.49210297816137L50.166666666666664,127.56716405963897L51.33333333333333,126.52826744583673L52.5,131.3606882367134L53.66666666666667,131.90488087885717L54.833333333333336,132.5055588006292L56,131.50647353335788L57.166666666666664,130.98527513224738L58.333333333333336,129.1005366995675L59.5,132.49893707711354L60.66666666666667,136.379779463768L61.83333333333333,128.51796066720144L63,135.60757723869594L64.16666666666666,128.6304207038198L65.33333333333333,131.39984965590065L66.5,132.9398063423974L67.66666666666667,131.46957838256017L68.83333333333333,135.75848660019463L70,133.28052651364462L71.16666666666666,134.2588498990195L72.33333333333334,136.76832110057558L73.5,135.0340964214461L74.66666666666667,135.66647195911406L75.83333333333333,135.67726075301852L77,133.61840584305352L78.16666666666667,136.71510617998666L79.33333333333333,135.30378989519392L80.5,138.17018235540388L81.66666666666667,136.83708529738016L82.83333333333333,138.9029151522432L84,137.21927742661748L85.16666666666666,137.54898085842814L86.33333333333334,139.1099622235298L87.5,138.2205573760782L88.66666666666666,140.87024898913927L89.83333333333334,138.9357609731129L91,137.7495380755152L92.16666666666667,140.04117058610916L93.33333333333333,138.36364971290317L94.5,140.17150833429608L95.66666666666667,139.9348773238659L96.83333333333333,140.5904769319466L98,138.44401652567726L99.16666666666667,139.40845689783777L100.33333333333333,140.21688833366122L101.5,140.250611085483L102.66666666666666,140.15759423760002L103.83333333333334,139.78512181888308L105,140.38584872068677L106.16666666666666,140.0750365103313L107.33333333333334,139.7459660512379L108.5,140.83438901247297L109.66666666666667,140.726601859263L110.83333333333333,142.37499845208438L112,141.63553184281076L113.16666666666667,141.90043186691827L114.33333333333333,142.76309455898829L115.5,144.45122667348383L116.66666666666667,141.94113521518025L117.83333333333333,142.89797332126753L119,143.75593393029484L120.16666666666666,143.9973635709456L121.33333333333334,145.36672469089712L122.5,143.06392237826753L123.66666666666666,144.2759907198974L124.83333333333334,144.4895267034599L126,142.87077810059276L127.16666666666667,144.6504444750888L128.33333333333331,147.76198835191553L129.5,147.05643452756746L130.66666666666666,146.4893253530945L131.83333333333334,146.6788733661345L133,148.08603459006548L134.16666666666669,147.18902017663206L135.33333333333334,143.93198653171743L136.5,145.3876810800348L137.66666666666666,151.29266775293115L138.83333333333334,150.3482842622229L140,148.08785650595595L141.16666666666666,151.6815502686094L142.33333333333331,149.3116842938491L143.5,152.14758706698566L144.66666666666669,156.32554571093831L145.83333333333334,149.50954925755943L147,149.6485388102872L148.16666666666666,154.04545223646505L149.33333333333334,153.7105053509729L150.5,150.8172746591653L151.66666666666666,151.56518152280682L152.83333333333331,151.7369457830057L154,149.43887060086217L155.16666666666669,155.53492487462077L156.33333333333334,149.96340270537988L157.5,161.5448098502159L158.66666666666666,156.37914823312417L159.83333333333331,159.7229363462925L161,155.86267028256825L162.16666666666669,153.87603760674168L163.33333333333334,152.38095622512486L164.5,150.8452785213249L165.66666666666666,156.58685841868603L166.83333333333334,155.16559282947438L168,160.80787795758246L169.16666666666666,161.12841082038196L170.33333333333331,153.96868757534878L171.5,154.32035125146592L172.66666666666669,149.0737847476942L173.83333333333334,154.65517144822223L175,159.21678376318727L176.16666666666666,148.34374750096455L177.33333333333331,157.2935079357624L178.5,157.97146033484594L179.66666666666669,163.8980159121922L180.83333333333334,162.9015331800665L182,159.25769527658392L183.16666666666666,153.70479117092913L184.33333333333334,155.29514195205482L185.5,156.9489159872021L186.66666666666666,166.455484719038L187.83333333333331,160.00776935945237L189,155.83419074894698L190.16666666666669,159.0395589377369L191.33333333333334,156.81895924714632L192.5,156.3841253578833L193.66666666666666,163.76910141069547L194.83333333333331,161.70487565187042L196,159.46906200989653L197.16666666666669,161.4811235640049L198.33333333333334,157.893039536408L199.5,162.96167500744548L200.66666666666666,156.00986658089502L201.83333333333334,162.00177753322464L203,164.71755262827872L204.16666666666666,163.92758383863313L205.33333333333331,166.96873611000603L206.5,165.84231688918385L207.66666666666669,165.25242870323999L208.83333333333334,161.55922881800785L210,166.34097223070688L211.16666666666666,162.73907960186685L212.33333333333331,162.20494293699946L213.5,176.49523170839038L214.66666666666669,169.84470039871758L215.83333333333334,164.90546734564646L217,166.0560148836204L218.16666666666666,166.85601421860284L219.33333333333334,166.71521640787805L220.5,166.33852322912216L221.66666666666666,170.82814408125193L222.83333333333331,175.977454374109L224,175.9637927129609L225.16666666666669,175.2054631399427L226.33333333333334,165.64770509440558L227.5,170.58908950117655L228.66666666666666,173.88033287245887L229.83333333333331,172.1710032363619L231,173.61437318420408L232.16666666666669,167.1894250620433L233.33333333333334,171.1925969617026L234.5,169.74961320257185L235.66666666666666,172.6178480655125L236.83333333333334,170.64447649778637L238,173.43522495058602L239.16666666666666,176.6993936674254L240.33333333333331,178.09502503899162L241.5,169.90546012803483L242.66666666666669,172.43922165761674L243.83333333333334,168.36586890792844L245,170.8607289892605L246.16666666666666,175.24804185826437L247.33333333333331,176.6463332223211L248.5,176.0037641865185L249.66666666666669,178.4740965750558L250.83333333333334,170.21634769228524L252,174.66314492593492L253.16666666666666,180.1824711005347L254.33333333333334,165.7638546461037L255.5,172.49994936152865" style="fill: none;" fill="none"></path></g><g><path stroke="rgb(255, 112, 67)" stroke-width="2px" d="M23.333333333333332,11.36412993458338L24.5,8.509573687417152L25.666666666666664,6.316835628509521L26.833333333333336,5.722911299569252L28,5.996852849142886L29.166666666666668,7.712510328565314L30.333333333333336,7.319826111384797L31.5,8.692442519596646L32.666666666666664,13.065033121381475L33.833333333333336,10.867577908652164L35,12.846325976780484L36.16666666666667,12.03928576224191L37.333333333333336,13.285443264007567L38.5,10.698423485347199L39.666666666666664,12.508710386003758L40.833333333333336,13.504165479387547L42,14.937984321049283L43.16666666666667,13.538918695722295L44.33333333333333,12.74978256661551L45.5,15.308228148324135L46.666666666666664,12.679763727460577L47.833333333333336,11.936955172947478L49,14.081572234562467L50.166666666666664,13.772108858925941L51.33333333333333,14.287378792354035L52.5,13.372341375623419L53.66666666666667,12.935303855895995L54.833333333333336,12.369486529759001L56,13.39886594663346L57.166666666666664,13.224240830557681L58.333333333333336,14.480797169821596L59.5,13.604762929098941L60.66666666666667,13.456451393127441L61.83333333333333,12.875216660090851L63,13.16306853866577L64.16666666666666,13.76831102262223L65.33333333333333,14.580972637721468L66.5,16.472491037096287L67.66666666666667,12.56524087796891L68.83333333333333,15.900690611703041L70,14.946936363765168L71.16666666666666,14.7684832698277L72.33333333333334,15.650304689679816L73.5,14.35601111984253L74.66666666666667,14.667795395442415L75.83333333333333,14.970778336116242L77,13.427620992932988L78.16666666666667,16.002448511396125L79.33333333333333,15.608875118255614L80.5,13.934571856362464L81.66666666666667,14.166676923479343L82.83333333333333,15.758211467197965L84,16.26550895854404L85.16666666666666,12.660262139456606L86.33333333333334,16.3280526913234L87.5,15.881008174351285L88.66666666666666,15.723051339830661L89.83333333333334,14.586398118155337L91,15.01374512699671L92.16666666666667,15.051979693276527L93.33333333333333,15.482280574798583L94.5,16.382397920336032L95.66666666666667,14.894716114589142L96.83333333333333,14.196049871717168L98,16.65611340822492L99.16666666666667,15.167060161590575L100.33333333333333,17.272357560838962L101.5,16.38058942685807L102.66666666666666,15.916379292624331L103.83333333333334,18.6106276637486L105,17.454924977438782L106.16666666666666,17.052655744825078L107.33333333333334,15.329206672668457L108.5,18.514415810721253L109.66666666666667,17.270925836835577L110.83333333333333,16.78095974131992L112,17.753793595450258L113.16666666666667,20.016414856501985L114.33333333333333,18.393698871067595L115.5,20.726760953085755L116.66666666666667,18.68861894498551L117.83333333333333,20.454040136609745L119,23.041391472407746L120.16666666666666,21.774406154087615L121.33333333333334,23.4319205681937L122.5,25.90109439059665L123.66666666666666,21.35537821524484L124.83333333333334,22.87390990556989L126,23.688048457009454L127.16666666666667,19.87494545418875L128.33333333333331,21.514390004294253L129.5,23.408048454284668L130.66666666666666,21.87795747647965L131.83333333333334,23.3949971596854L133,23.543881385258267L134.16666666666669,28.857936014720366L135.33333333333334,28.472885147094726L136.5,25.75293356241498L137.66666666666666,20.629705136435366L138.83333333333334,25.368244393484925L140,26.517662564958837L141.16666666666666,26.60888599014282L142.33333333333331,25.62207398850577L143.5,27.435186660221646L144.66666666666669,24.374869067600798L145.83333333333334,28.776696980612613L147,24.0568907018389L148.16666666666666,28.99991028812952L149.33333333333334,26.24281676864624L150.5,32.163093482698706L151.66666666666666,25.123931995391846L152.83333333333331,33.13468399756295L154,26.761123464039397L155.16666666666669,31.92420656503949L156.33333333333334,27.213359864371157L157.5,27.130583610807133L158.66666666666666,31.359986741474696L159.83333333333331,32.62525399099078L161,32.384332518168854L162.16666666666669,37.473855146953035L163.33333333333334,40.25127161189487L164.5,24.24623996898105L165.66666666666666,29.63218221419198L166.83333333333334,28.499025413240695L168,30.817265384129115L169.16666666666666,40.22501831490652L170.33333333333331,29.930545961107516L171.5,32.74772667639596L172.66666666666669,37.75542251069205L173.83333333333334,40.32339282471793L175,32.674196345738004L176.16666666666666,39.23602858570643L177.33333333333331,41.3493134978158L178.5,29.508971060616634L179.66666666666669,34.27895549801416L180.83333333333334,37.12064883531842L182,38.57338150460379L183.16666666666666,31.637417176382876L184.33333333333334,34.423936391830445L185.5,37.73743553597586L186.66666666666666,42.373885336194704L187.83333333333331,42.95654425784519L189,38.79847865949358L190.16666666666669,36.73739892578125L191.33333333333334,43.13122965703692L192.5,37.467894653865265L193.66666666666666,37.709773121152594L194.83333333333331,44.42025598961966L196,40.05252571405683L197.16666666666669,34.45281200436182L198.33333333333334,45.29974143872943L199.5,44.792413805825376L200.66666666666666,39.46552640805926L201.83333333333334,43.65900080163138L203,45.3917485444205L204.16666666666666,35.53157836396353L205.33333333333331,48.941105379649564L206.5,46.16334982218061L207.66666666666669,41.2668763367789L208.83333333333334,47.86083947753906L210,47.96515940965924L211.16666666666666,52.332332066399715L212.33333333333331,39.683999955586025L213.5,36.51741830035618L214.66666666666669,38.86855024637494L215.83333333333334,46.62374704933166L217,46.55904065976824L218.16666666666666,39.75809544045584L219.33333333333334,41.01486277062552L220.5,43.958675706318445L221.66666666666666,49.290657027380796L222.83333333333331,47.83437518964495L224,48.779621982846926L225.16666666666669,49.18679675401959L226.33333333333334,54.198237676892944L227.5,46.110895975930354L228.66666666666666,53.277639142717625L229.83333333333331,40.64453605406625L231,48.9965959878649L232.16666666666669,52.048074568612236L233.33333333333334,47.997870535441805L234.5,52.320335726329255L235.66666666666666,53.851564547947476L236.83333333333334,49.184656703404016L238,53.859883617946075L239.16666666666666,49.22860309491839L240.33333333333331,46.02395265197754L241.5,52.48300971467154L242.66666666666669,53.75788458578927L243.83333333333334,50.38842763928003L245,52.416472225461675L246.16666666666666,48.85374007388523L247.33333333333331,51.00007520430429L248.5,57.065988391058774L249.66666666666669,53.59886526135035L250.83333333333334,51.008115464891695L252,47.42632631329126L253.16666666666666,51.32365236445835L254.33333333333334,42.75399298831394L255.5,57.06985404586791" style="fill: none;" fill="none"></path></g></g></g></g></g></g><g transform="translate(50, 176)" clip-path="url(#clip_1)"><clipPath id="clip_1"><rect width="279" height="22"></rect></clipPath><g><g><line x1="0" y1="0" x2="0" y2="5" style="visibility: inherit;" fill="rgb(0, 0, 0)" stroke="rgb(204, 204, 204)" stroke-width="1px"></line><line x1="23.333333333333332" y1="0" x2="23.333333333333332" y2="5" style="visibility: inherit;" fill="rgb(0, 0, 0)" stroke="rgb(204, 204, 204)" stroke-width="1px"></line><line x1="46.666666666666664" y1="0" x2="46.666666666666664" y2="5" style="visibility: inherit;" fill="rgb(0, 0, 0)" stroke="rgb(204, 204, 204)" stroke-width="1px"></line><line x1="70" y1="0" x2="70" y2="5" style="visibility: inherit;" fill="rgb(0, 0, 0)" stroke="rgb(204, 204, 204)" stroke-width="1px"></line><line x1="93.33333333333333" y1="0" x2="93.33333333333333" y2="5" style="visibility: inherit;" fill="rgb(0, 0, 0)" stroke="rgb(204, 204, 204)" stroke-width="1px"></line><line x1="116.66666666666667" y1="0" x2="116.66666666666667" y2="5" style="visibility: inherit;" fill="rgb(0, 0, 0)" stroke="rgb(204, 204, 204)" stroke-width="1px"></line><line x1="140" y1="0" x2="140" y2="5" style="visibility: inherit;" fill="rgb(0, 0, 0)" stroke="rgb(204, 204, 204)" stroke-width="1px"></line><line x1="163.33333333333334" y1="0" x2="163.33333333333334" y2="5" style="visibility: inherit;" fill="rgb(0, 0, 0)" stroke="rgb(204, 204, 204)" stroke-width="1px"></line><line x1="186.66666666666666" y1="0" x2="186.66666666666666" y2="5" style="visibility: inherit;" fill="rgb(0, 0, 0)" stroke="rgb(204, 204, 204)" stroke-width="1px"></line><line x1="210" y1="0" x2="210" y2="5" style="visibility: inherit;" fill="rgb(0, 0, 0)" stroke="rgb(204, 204, 204)" stroke-width="1px"></line><line x1="233.33333333333334" y1="0" x2="233.33333333333334" y2="5" style="visibility: inherit;" fill="rgb(0, 0, 0)" stroke="rgb(204, 204, 204)" stroke-width="1px"></line><line x1="256.66666666666663" y1="0" x2="256.66666666666663" y2="5" style="visibility: inherit;" fill="rgb(0, 0, 0)" stroke="rgb(204, 204, 204)" stroke-width="1px"></line><line x1="280" y1="0" x2="280" y2="5" style="visibility: inherit;" fill="rgb(0, 0, 0)" stroke="rgb(204, 204, 204)" stroke-width="1px"></line></g><g transform="translate(0, 8)"><text x="0" y="0" dx="0em" dy="0.95em" style="text-anchor: middle; visibility: hidden; font-family: Roboto, sans-serif; font-size: 12px; font-weight: 200;" fill="rgb(33, 33, 33)" stroke="none" stroke-width="1px">-20</text><text x="23.333333333333332" y="0" dx="0em" dy="0.95em" style="text-anchor: middle; visibility: inherit; font-family: Roboto, sans-serif; font-size: 12px; font-weight: 200;" fill="rgb(33, 33, 33)" stroke="none" stroke-width="1px">0</text><text x="46.666666666666664" y="0" dx="0em" dy="0.95em" style="text-anchor: middle; visibility: hidden; font-family: Roboto, sans-serif; font-size: 12px; font-weight: 200;" fill="rgb(33, 33, 33)" stroke="none" stroke-width="1px">20</text><text x="70" y="0" dx="0em" dy="0.95em" style="text-anchor: middle; visibility: inherit; font-family: Roboto, sans-serif; font-size: 12px; font-weight: 200;" fill="rgb(33, 33, 33)" stroke="none" stroke-width="1px">40</text><text x="93.33333333333333" y="0" dx="0em" dy="0.95em" style="text-anchor: middle; visibility: hidden; font-family: Roboto, sans-serif; font-size: 12px; font-weight: 200;" fill="rgb(33, 33, 33)" stroke="none" stroke-width="1px">60</text><text x="116.66666666666667" y="0" dx="0em" dy="0.95em" style="text-anchor: middle; visibility: inherit; font-family: Roboto, sans-serif; font-size: 12px; font-weight: 200;" fill="rgb(33, 33, 33)" stroke="none" stroke-width="1px">80</text><text x="140" y="0" dx="0em" dy="0.95em" style="text-anchor: middle; visibility: hidden; font-family: Roboto, sans-serif; font-size: 12px; font-weight: 200;" fill="rgb(33, 33, 33)" stroke="none" stroke-width="1px">100</text><text x="163.33333333333334" y="0" dx="0em" dy="0.95em" style="text-anchor: middle; visibility: inherit; font-family: Roboto, sans-serif; font-size: 12px; font-weight: 200;" fill="rgb(33, 33, 33)" stroke="none" stroke-width="1px">120</text><text x="186.66666666666666" y="0" dx="0em" dy="0.95em" style="text-anchor: middle; visibility: hidden; font-family: Roboto, sans-serif; font-size: 12px; font-weight: 200;" fill="rgb(33, 33, 33)" stroke="none" stroke-width="1px">140</text><text x="210" y="0" dx="0em" dy="0.95em" style="text-anchor: middle; visibility: inherit; font-family: Roboto, sans-serif; font-size: 12px; font-weight: 200;" fill="rgb(33, 33, 33)" stroke="none" stroke-width="1px">160</text><text x="233.33333333333334" y="0" dx="0em" dy="0.95em" style="text-anchor: middle; visibility: hidden; font-family: Roboto, sans-serif; font-size: 12px; font-weight: 200;" fill="rgb(33, 33, 33)" stroke="none" stroke-width="1px">180</text><text x="256.66666666666663" y="0" dx="0em" dy="0.95em" style="text-anchor: middle; visibility: inherit; font-family: Roboto, sans-serif; font-size: 12px; font-weight: 200;" fill="rgb(33, 33, 33)" stroke="none" stroke-width="1px">200</text><text x="280" y="0" dx="0em" dy="0.95em" style="text-anchor: middle; visibility: hidden; font-family: Roboto, sans-serif; font-size: 12px; font-weight: 200;" fill="rgb(33, 33, 33)" stroke="none" stroke-width="1px">220</text></g><line x1="0" y1="0" x2="280" y2="0" fill="rgb(0, 0, 0)" stroke="rgb(204, 204, 204)" stroke-width="1px"></line></g></g></g></g></svg>