<svg viewBox="0 0 330 199.9921875" xmlns="http://www.w3.org/2000/svg"><g><g><g><g><g><line x1="50" y1="176.992" x2="45" y2="176.992" style="visibility: inherit;" fill="rgb(0, 0, 0)" stroke="rgb(204, 204, 204)" stroke-width="1px"></line><line x1="50" y1="162.24266666666668" x2="45" y2="162.24266666666668" style="visibility: inherit;" fill="rgb(0, 0, 0)" stroke="rgb(204, 204, 204)" stroke-width="1px"></line><line x1="50" y1="147.4933333333333" x2="45" y2="147.4933333333333" style="visibility: inherit;" fill="rgb(0, 0, 0)" stroke="rgb(204, 204, 204)" stroke-width="1px"></line><line x1="50" y1="132.744" x2="45" y2="132.744" style="visibility: inherit;" fill="rgb(0, 0, 0)" stroke="rgb(204, 204, 204)" stroke-width="1px"></line><line x1="50" y1="117.99466666666666" x2="45" y2="117.99466666666666" style="visibility: inherit;" fill="rgb(0, 0, 0)" stroke="rgb(204, 204, 204)" stroke-width="1px"></line><line x1="50" y1="103.24533333333332" x2="45" y2="103.24533333333332" style="visibility: inherit;" fill="rgb(0, 0, 0)" stroke="rgb(204, 204, 204)" stroke-width="1px"></line><line x1="50" y1="88.496" x2="45" y2="88.496" style="visibility: inherit;" fill="rgb(0, 0, 0)" stroke="rgb(204, 204, 204)" stroke-width="1px"></line><line x1="50" y1="73.74666666666666" x2="45" y2="73.74666666666666" style="visibility: inherit;" fill="rgb(0, 0, 0)" stroke="rgb(204, 204, 204)" stroke-width="1px"></line><line x1="50" y1="58.997333333333316" x2="45" y2="58.997333333333316" style="visibility: inherit;" fill="rgb(0, 0, 0)" stroke="rgb(204, 204, 204)" stroke-width="1px"></line><line x1="50" y1="44.248" x2="45" y2="44.248" style="visibility: inherit;" fill="rgb(0, 0, 0)" stroke="rgb(204, 204, 204)" stroke-width="1px"></line><line x1="50" y1="29.498666666666658" x2="45" y2="29.498666666666658" style="visibility: inherit;" fill="rgb(0, 0, 0)" stroke="rgb(204, 204, 204)" stroke-width="1px"></line><line x1="50" y1="14.74933333333332" x2="45" y2="14.74933333333332" style="visibility: inherit;" fill="rgb(0, 0, 0)" stroke="rgb(204, 204, 204)" stroke-width="1px"></line><line x1="50" y1="0" x2="45" y2="0" style="visibility: inherit;" fill="rgb(0, 0, 0)" stroke="rgb(204, 204, 204)" stroke-width="1px"></line></g><g transform="translate(40, 0)"><text x="0" y="176.992" dx="0em" dy="0.3em" style="text-anchor: end; visibility: hidden; font-family: Roboto, sans-serif; font-size: 12px; font-weight: 200;" fill="rgb(33, 33, 33)" stroke="none" stroke-width="1px">-1</text><text x="0" y="162.24266666666668" dx="0em" dy="0.3em" style="text-anchor: end; visibility: inherit; font-family: Roboto, sans-serif; font-size: 12px; font-weight: 200;" fill="rgb(33, 33, 33)" stroke="none" stroke-width="1px">-0.8</text><text x="0" y="147.4933333333333" dx="0em" dy="0.3em" style="text-anchor: end; visibility: hidden; font-family: Roboto, sans-serif; font-size: 12px; font-weight: 200;" fill="rgb(33, 33, 33)" stroke="none" stroke-width="1px">-0.6</text><text x="0" y="132.744" dx="0em" dy="0.3em" style="text-anchor: end; visibility: inherit; font-family: Roboto, sans-serif; font-size: 12px; font-weight: 200;" fill="rgb(33, 33, 33)" stroke="none" stroke-width="1px">-0.4</text><text x="0" y="117.99466666666666" dx="0em" dy="0.3em" style="text-anchor: end; visibility: hidden; font-family: Roboto, sans-serif; font-size: 12px; font-weight: 200;" fill="rgb(33, 33, 33)" stroke="none" stroke-width="1px">-0.2</text><text x="0" y="103.24533333333332" dx="0em" dy="0.3em" style="text-anchor: end; visibility: inherit; font-family: Roboto, sans-serif; font-size: 12px; font-weight: 200;" fill="rgb(33, 33, 33)" stroke="none" stroke-width="1px">0</text><text x="0" y="88.496" dx="0em" dy="0.3em" style="text-anchor: end; visibility: hidden; font-family: Roboto, sans-serif; font-size: 12px; font-weight: 200;" fill="rgb(33, 33, 33)" stroke="none" stroke-width="1px">0.2</text><text x="0" y="73.74666666666666" dx="0em" dy="0.3em" style="text-anchor: end; visibility: inherit; font-family: Roboto, sans-serif; font-size: 12px; font-weight: 200;" fill="rgb(33, 33, 33)" stroke="none" stroke-width="1px">0.4</text><text x="0" y="58.997333333333316" dx="0em" dy="0.3em" style="text-anchor: end; visibility: hidden; font-family: Roboto, sans-serif; font-size: 12px; font-weight: 200;" fill="rgb(33, 33, 33)" stroke="none" stroke-width="1px">0.6</text><text x="0" y="44.248" dx="0em" dy="0.3em" style="text-anchor: end; visibility: inherit; font-family: Roboto, sans-serif; font-size: 12px; font-weight: 200;" fill="rgb(33, 33, 33)" stroke="none" stroke-width="1px">0.8</text><text x="0" y="29.498666666666658" dx="0em" dy="0.3em" style="text-anchor: end; visibility: hidden; font-family: Roboto, sans-serif; font-size: 12px; font-weight: 200;" fill="rgb(33, 33, 33)" stroke="none" stroke-width="1px">1</text><text x="0" y="14.74933333333332" dx="0em" dy="0.3em" style="text-anchor: end; visibility: inherit; font-family: Roboto, sans-serif; font-size: 12px; font-weight: 200;" fill="rgb(33, 33, 33)" stroke="none" stroke-width="1px">1.2</text><text x="0" y="0" dx="0em" dy="0.3em" style="text-anchor: end; visibility: hidden; font-family: Roboto, sans-serif; font-size: 12px; font-weight: 200;" fill="rgb(33, 33, 33)" stroke="none" stroke-width="1px">1.4</text></g><line x1="50" y1="0" x2="50" y2="176.992" fill="rgb(0, 0, 0)" stroke="rgb(204, 204, 204)" stroke-width="1px"></line></g></g><g transform="translate(50, 0)" clip-path="url(#clip_0)"><clipPath id="clip_0"><rect width="279" height="176"></rect></clipPath><g><g><g><line x1="0" y1="0" x2="0" y2="176.992" fill="rgb(0, 0, 0)" stroke="rgb(66, 66, 66)" stroke-width="1px" opacity="0.25"></line><line x1="23.333333333333332" y1="0" x2="23.333333333333332" y2="176.992" fill="rgb(0, 0, 0)" stroke="rgb(66, 66, 66)" stroke-width="1px" opacity="0.25"></line><line x1="46.666666666666664" y1="0" x2="46.666666666666664" y2="176.992" fill="rgb(0, 0, 0)" stroke="rgb(66, 66, 66)" stroke-width="1px" opacity="0.25"></line><line x1="70" y1="0" x2="70" y2="176.992" fill="rgb(0, 0, 0)" stroke="rgb(66, 66, 66)" stroke-width="1px" opacity="0.25"></line><line x1="93.33333333333333" y1="0" x2="93.33333333333333" y2="176.992" fill="rgb(0, 0, 0)" stroke="rgb(66, 66, 66)" stroke-width="1px" opacity="0.25"></line><line x1="116.66666666666667" y1="0" x2="116.66666666666667" y2="176.992" fill="rgb(0, 0, 0)" stroke="rgb(66, 66, 66)" stroke-width="1px" opacity="0.25"></line><line x1="140" y1="0" x2="140" y2="176.992" fill="rgb(0, 0, 0)" stroke="rgb(66, 66, 66)" stroke-width="1px" opacity="0.25"></line><line x1="163.33333333333334" y1="0" x2="163.33333333333334" y2="176.992" fill="rgb(0, 0, 0)" stroke="rgb(66, 66, 66)" stroke-width="1px" opacity="0.25"></line><line x1="186.66666666666666" y1="0" x2="186.66666666666666" y2="176.992" fill="rgb(0, 0, 0)" stroke="rgb(66, 66, 66)" stroke-width="1px" opacity="0.25"></line><line x1="210" y1="0" x2="210" y2="176.992" fill="rgb(0, 0, 0)" stroke="rgb(66, 66, 66)" stroke-width="1px" opacity="0.25"></line><line x1="233.33333333333334" y1="0" x2="233.33333333333334" y2="176.992" fill="rgb(0, 0, 0)" stroke="rgb(66, 66, 66)" stroke-width="1px" opacity="0.25"></line><line x1="256.66666666666663" y1="0" x2="256.66666666666663" y2="176.992" fill="rgb(0, 0, 0)" stroke="rgb(66, 66, 66)" stroke-width="1px" opacity="0.25"></line><line x1="280" y1="0" x2="280" y2="176.992" fill="rgb(0, 0, 0)" stroke="rgb(66, 66, 66)" stroke-width="1px" opacity="0.25"></line></g><g><line x1="0" y1="176.992" x2="280" y2="176.992" fill="rgb(0, 0, 0)" stroke="rgb(66, 66, 66)" stroke-width="1px" opacity="0.25"></line><line x1="0" y1="162.24266666666668" x2="280" y2="162.24266666666668" fill="rgb(0, 0, 0)" stroke="rgb(66, 66, 66)" stroke-width="1px" opacity="0.25"></line><line x1="0" y1="147.4933333333333" x2="280" y2="147.4933333333333" fill="rgb(0, 0, 0)" stroke="rgb(66, 66, 66)" stroke-width="1px" opacity="0.25"></line><line x1="0" y1="132.744" x2="280" y2="132.744" fill="rgb(0, 0, 0)" stroke="rgb(66, 66, 66)" stroke-width="1px" opacity="0.25"></line><line x1="0" y1="117.99466666666666" x2="280" y2="117.99466666666666" fill="rgb(0, 0, 0)" stroke="rgb(66, 66, 66)" stroke-width="1px" opacity="0.25"></line><line x1="0" y1="103.24533333333332" x2="280" y2="103.24533333333332" fill="rgb(0, 0, 0)" stroke="rgb(66, 66, 66)" stroke-width="1px" opacity="0.25"></line><line x1="0" y1="88.496" x2="280" y2="88.496" fill="rgb(0, 0, 0)" stroke="rgb(66, 66, 66)" stroke-width="1px" opacity="0.25"></line><line x1="0" y1="73.74666666666666" x2="280" y2="73.74666666666666" fill="rgb(0, 0, 0)" stroke="rgb(66, 66, 66)" stroke-width="1px" opacity="0.25"></line><line x1="0" y1="58.997333333333316" x2="280" y2="58.997333333333316" fill="rgb(0, 0, 0)" stroke="rgb(66, 66, 66)" stroke-width="1px" opacity="0.25"></line><line x1="0" y1="44.248" x2="280" y2="44.248" fill="rgb(0, 0, 0)" stroke="rgb(66, 66, 66)" stroke-width="1px" opacity="0.25"></line><line x1="0" y1="29.498666666666658" x2="280" y2="29.498666666666658" fill="rgb(0, 0, 0)" stroke="rgb(66, 66, 66)" stroke-width="1px" opacity="0.25"></line><line x1="0" y1="14.74933333333332" x2="280" y2="14.74933333333332" fill="rgb(0, 0, 0)" stroke="rgb(66, 66, 66)" stroke-width="1px" opacity="0.25"></line><line x1="0" y1="0" x2="280" y2="0" fill="rgb(0, 0, 0)" stroke="rgb(66, 66, 66)" stroke-width="1px" opacity="0.25"></line></g></g></g><g><g><line x1="0" y1="103.24533333333332" x2="280" y2="103.24533333333332" fill="rgb(0, 0, 0)" stroke="rgb(153, 153, 153)" stroke-width="1.5px"></line></g></g><g><g><line x1="23.333333333333332" y1="0" x2="23.333333333333332" y2="176.992" fill="rgb(0, 0, 0)" stroke="rgb(153, 153, 153)" stroke-width="1.5px"></line></g></g><g><g><g><g><g><path stroke="rgb(51, 187, 238)" stroke-width="2px" d="M23.333333333333332,21.548863406499212L24.5,21.271646631280575L25.666666666666664,21.51040241970658L26.833333333333336,21.959993957032165L28,22.075708747527983L29.166666666666668,21.653089398846834L30.333333333333336,21.797787976778256L31.5,21.279258121082485L32.666666666666664,21.7154763623869L33.833333333333336,21.818408052907127L35,21.895889218995947L36.16666666666667,21.86788310220942L37.333333333333336,21.704759878625314L38.5,21.580275929189593L39.666666666666664,21.480823818928105L40.833333333333336,21.504973032521185L42,21.114083086370375L43.16666666666667,21.319330626283335L44.33333333333333,21.63052642959442L45.5,21.618369091904857L46.666666666666664,21.842642572732398L47.833333333333336,22.100606684470083L49,21.712488540988637L50.166666666666664,21.783982473343038L51.33333333333333,21.875220286407007L52.5,21.955675610477876L53.66666666666667,21.603638778385392L54.833333333333336,21.330406644442554L56,21.687133437968786L57.166666666666664,21.830519109550668L58.333333333333336,21.917429621103214L59.5,21.895954154746903L60.66666666666667,22.013183457308376L61.83333333333333,21.962602143706064L63,22.095278999126602L64.16666666666666,22.110726292330416L65.33333333333333,22.06966278726976L66.5,22.18817146494159L67.66666666666667,22.469040313723593L68.83333333333333,22.511396093808315L70,22.63579594534047L71.16666666666666,22.564764218272792L72.33333333333334,22.32667617386978L73.5,22.85479904331612L74.66666666666667,23.012768480749568L75.83333333333333,22.72857179476136L77,22.92981272611566L78.16666666666667,23.326364596941303L79.33333333333333,23.795017791399662L80.5,24.099868821636882L81.66666666666667,23.518964228795763L82.83333333333333,23.87831002798588L84,24.155692128191347L85.16666666666666,23.7524353932118L86.33333333333334,24.06723360480337L87.5,24.00346147165375L88.66666666666666,24.71834429594106L89.83333333333334,25.58717244645105L91,25.836375464686636L92.16666666666667,26.82014828397968L93.33333333333333,26.971477044754042L94.5,26.941773878423078L95.66666666666667,28.580754549603284L96.83333333333333,28.736756181427204L98,29.268377797398L99.16666666666667,30.631061238769494L100.33333333333333,30.3545920278254L101.5,32.20909084278878L102.66666666666666,33.38441574911199L103.83333333333334,33.373319425193L105,35.183214207860345L106.16666666666666,36.916281284522505L107.33333333333334,37.2715896688967L108.5,38.28346494896427L109.66666666666667,40.21895193627207L110.83333333333333,41.950534964355185L112,43.53498242721897L113.16666666666667,43.600166029893984L114.33333333333333,46.32866825527569L115.5,47.43587823848696L116.66666666666667,48.39122925950351L117.83333333333333,47.71262379519897L119,48.53046140766595L120.16666666666666,49.29003320287339L121.33333333333334,51.929572594555246L122.5,53.3842577081156L123.66666666666666,54.919446592769944L124.83333333333334,54.72259647726332L126,57.09579141811917L127.16666666666667,58.423605541573295L128.33333333333331,58.658256440877715L129.5,59.72648212234167L130.66666666666666,60.120144980955054L131.83333333333334,60.92917245572086L133,63.2604138683872L134.16666666666669,65.3705620277164L135.33333333333334,66.98331953102576L136.5,67.53832856906787L137.66666666666666,68.70430498874984L138.83333333333334,70.17778438380242L140,72.03601439534951L141.16666666666666,70.6971167395949L142.33333333333331,70.2658922570888L143.5,71.66601554163756L144.66666666666669,74.29909989994643L145.83333333333334,74.6698943824562L147,75.98339801262571L148.16666666666666,76.96251729074372L149.33333333333334,78.0068835101401L150.5,79.30421256168732L151.66666666666666,80.56004109330208L152.83333333333331,80.65802639147776L154,81.44942019336902L155.16666666666669,80.85229607869078L156.33333333333334,82.19289313008518L157.5,82.8175671099313L158.66666666666666,83.30947584618058L159.83333333333331,84.12892206007398L161,84.71322314776276L162.16666666666669,86.38147013897871L163.33333333333334,87.29732130577071L164.5,88.52642404288792L165.66666666666666,89.4334766586944L166.83333333333334,90.51108136970545L168,90.4939490053261L169.16666666666666,90.46539821382392L170.33333333333331,90.53068825930771L171.5,90.36105909279038L172.66666666666669,90.88174124872117L173.83333333333334,91.39860072996275L175,92.0958025322401L176.16666666666666,92.55550508412779L177.33333333333331,93.44134418134526L178.5,94.19448215750435L179.66666666666669,94.76179257318724L180.83333333333334,94.8375302921137L182,94.04472891222642L183.16666666666666,94.3323628512176L184.33333333333334,95.06478098940563L185.5,95.00767048994527L186.66666666666666,94.9649243338972L187.83333333333331,95.63940292764919L189,96.0339403224223L190.16666666666669,95.37344986683328L191.33333333333334,94.72410848586279L192.5,94.62954388926339L193.66666666666666,95.20891589874772L194.83333333333331,93.71847534523059L196,92.53173366129585L197.16666666666669,89.82769537751787L198.33333333333334,86.04446179361886L199.5,87.14311629005122L200.66666666666666,86.90701962921528L201.83333333333334,90.18298814838036L203,88.5602089032704L204.16666666666666,89.53920240827247L205.33333333333331,90.42941573617367L206.5,90.76606899248861L207.66666666666669,88.28460959519128L208.83333333333334,89.00180168016661L210,89.35452678381547L211.16666666666666,91.01207329233773L212.33333333333331,90.12237812261753L213.5,89.5195977641084L214.66666666666669,90.65180450298816L215.83333333333334,91.48460421029584L217,93.60966940044474L218.16666666666666,95.18655869778264L219.33333333333334,95.84636377078853L220.5,96.59938298883375L221.66666666666666,97.02330328017672L222.83333333333331,97.1028712479961L224,96.80575178886404L225.16666666666669,96.74462380273908L226.33333333333334,97.51015135799909L227.5,97.73906714075642L228.66666666666666,97.10091953628363L229.83333333333331,95.90651841120581L231,95.6293544300675L232.16666666666669,95.4082957693982L233.33333333333334,95.0787590245315L234.5,94.94810812938461L235.66666666666666,94.09465788473439L236.83333333333334,93.92181100406893L238,94.7765732413132L239.16666666666666,95.43571321601067L240.33333333333331,96.13667510896363L241.5,97.02868548936108L242.66666666666669,97.3368481402067L243.83333333333334,97.33910035423047L245,97.61274489716453L246.16666666666666,98.01947270212827L247.33333333333331,96.9545721358831L248.5,96.0625734796271L249.66666666666669,92.9099802313017L250.83333333333334,88.11019860497515L252,88.05891327261568L253.16666666666666,90.67921972696567L254.33333333333334,92.98521524440795L255.5,94.23833753700784" style="fill: none;" fill="none"></path></g><g><path stroke="rgb(204, 51, 17)" stroke-width="2px" d="M23.333333333333332,20.329503005663547L24.5,20.559411663730923L25.666666666666664,20.49833520136071L26.833333333333336,20.676001269247003L28,20.53556096796382L29.166666666666668,20.45265986996817L30.333333333333336,20.666760803502548L31.5,20.397877456880366L32.666666666666664,20.85186490759916L33.833333333333336,21.196675975763313L35,21.56950960445373L36.16666666666667,21.68860778119505L37.333333333333336,21.940237920015473L38.5,22.02761987963062L39.666666666666664,22.15419988213412L40.833333333333336,22.15111008341182L42,22.07507035193768L43.16666666666667,22.17078378034024L44.33333333333333,22.578974755467996L45.5,22.9403165261173L46.666666666666664,21.802398721813965L47.833333333333336,21.860230743006653L49,22.006702783588572L50.166666666666664,22.126568123969864L51.33333333333333,22.310737962211377L52.5,22.66725886234891L53.66666666666667,22.177536721421284L54.833333333333336,22.257731082496385L56,22.23981803933625L57.166666666666664,22.206430888471083L58.333333333333336,22.3024822979087L59.5,22.130780068662805L60.66666666666667,22.604991203922932L61.83333333333333,22.738089693182783L63,23.109678881679685L64.16666666666666,22.750849577656524L65.33333333333333,23.17740040297106L66.5,22.86990429614724L67.66666666666667,22.6574644037684L68.83333333333333,22.52980706031342L70,23.14747471380038L71.16666666666666,23.38991591283903L72.33333333333334,23.74999003204504L73.5,24.089070333703276L74.66666666666667,23.19208489600073L75.83333333333333,23.805657822912956L77,24.183493094640827L78.16666666666667,24.462221098515368L79.33333333333333,24.763503939783455L80.5,24.998779628530567L81.66666666666667,24.83020335908775L82.83333333333333,24.249637028319196L84,24.97609896987162L85.16666666666666,25.31804650007213L86.33333333333334,25.716363126356768L87.5,26.72333186697962L88.66666666666666,26.645485008478165L89.83333333333334,27.180426072835967L91,29.038011104250156L92.16666666666667,28.44564042071351L93.33333333333333,28.378273344682743L94.5,29.43375744616615L95.66666666666667,29.88237284201559L96.83333333333333,30.28903254500733L98,32.79596385359591L99.16666666666667,34.24166233353511L100.33333333333333,33.75606707315064L101.5,35.18155170839082L102.66666666666666,35.850286088917954L103.83333333333334,37.56980141294854L105,38.63425463768357L106.16666666666666,39.733032682461605L107.33333333333334,40.94337434828463L108.5,42.97803241682957L109.66666666666667,43.85272305091764L110.83333333333333,45.183738957058665L112,46.10675225529548L113.16666666666667,48.275885509658714L114.33333333333333,50.44077541380455L115.5,51.557652336740475L116.66666666666667,53.14226582379976L117.83333333333333,54.775971038062394L119,57.23747340309562L120.16666666666666,58.405582598503074L121.33333333333334,59.462831096412124L122.5,59.642781389221376L123.66666666666666,61.37173491311758L124.83333333333334,63.31197931139085L126,63.0871464438622L127.16666666666667,63.546444586923805L128.33333333333331,64.78767785896326L129.5,67.38214871913671L130.66666666666666,68.21853377770469L131.83333333333334,68.88493947759719L133,69.38266333697311L134.16666666666669,70.11055865037088L135.33333333333334,71.49921911229079L136.5,72.7059167655948L137.66666666666666,74.31440220150012L138.83333333333334,75.01327744595602L140,74.6566536463125L141.16666666666666,75.57416820901375L142.33333333333331,77.75300365749443L143.5,78.603419065345L144.66666666666669,76.96550044732213L145.83333333333334,77.9145951965943L147,80.75957533830176L148.16666666666666,81.43516558958154L149.33333333333334,81.54660677123702L150.5,83.19658723562938L151.66666666666666,84.63658614892552L152.83333333333331,84.58781993730935L154,84.79608981596672L155.16666666666669,86.33601477969832L156.33333333333334,87.51204894477415L157.5,89.57696121117843L158.66666666666666,91.072149553474L159.83333333333331,90.89902613456424L161,91.63472445803905L162.16666666666669,91.43908630255474L163.33333333333334,92.60613670216965L164.5,94.00896643834294L165.66666666666666,94.46985162944583L166.83333333333334,93.45375575124612L168,93.69173924303489L169.16666666666666,93.62043818472486L170.33333333333331,94.51743522004283L171.5,95.70424937592344L172.66666666666669,96.40765207716463L173.83333333333334,96.92006813587729L175,97.44740721831708L176.16666666666666,97.46520754665924L177.33333333333331,96.87308255004163L178.5,96.3097470022953L179.66666666666669,95.56948843486207L180.83333333333334,95.21599674595454L182,94.92824764661624L183.16666666666666,94.56288964323582L184.33333333333334,95.31069429461387L185.5,95.304672122909L186.66666666666666,96.15644298505387L187.83333333333331,95.73425646209479L189,96.71473101277208L190.16666666666669,96.6681728992088L191.33333333333334,97.80362397319216L192.5,98.7305337465851L193.66666666666666,99.6273925604531L194.83333333333331,99.13497826458467L196,99.9247675098049L197.16666666666669,100.32265933063827L198.33333333333334,100.36730575707675L199.5,99.67342153665496L200.66666666666666,98.30771962156933L201.83333333333334,96.59808366488839L203,95.20342273425713L204.16666666666666,95.50032207115285L205.33333333333331,95.47745415388619L206.5,96.0076108152096L207.66666666666669,94.99187569089082L208.83333333333334,95.81709101650327L210,96.60566416578217L211.16666666666666,96.78932149961425L212.33333333333331,97.20790921884479L213.5,97.399057795042L214.66666666666669,98.21455982771367L215.83333333333334,98.71279277587843L217,98.54230525223163L218.16666666666666,99.09388981888144L219.33333333333334,98.68043321449032L220.5,99.43621464045725L221.66666666666666,99.92314049978978L222.83333333333331,99.5468051769411L224,100.09635940773539L225.16666666666669,98.17055377859624L226.33333333333334,98.02655860551248L227.5,98.38554462223878L228.66666666666666,97.96908638221599L229.83333333333331,98.38711655710483L231,98.9108229368469L232.16666666666669,99.59244654758814L233.33333333333334,99.81667861542329L234.5,99.6690819158508L235.66666666666666,100.33965697712621L236.83333333333334,99.12548090355547L238,99.59864769920678L239.16666666666666,98.66133977675223L240.33333333333331,97.47128081511525L241.5,97.58123965107839L242.66666666666669,97.80329811257981L243.83333333333334,98.4615953772517L245,98.71773314855805L246.16666666666666,99.16946178460306L247.33333333333331,98.88080262127828L248.5,98.59990725500175L249.66666666666669,97.39501017890844L250.83333333333334,97.4917964375246L252,97.93488110079534L253.16666666666666,98.64024123032193L254.33333333333334,99.11872066146512L255.5,99.44001763835179" style="fill: none;" fill="none"></path></g><g><path stroke="rgb(0, 119, 187)" stroke-width="2px" d="M26.833333333333336,-2.43960673722915L28,5.08785321875983L29.166666666666668,15.154401071738658L30.333333333333336,26.933032137639604L31.5,40.27640337547498L32.666666666666664,52.99134279004494L33.833333333333336,65.12484973261617L35,73.15742643785018L36.16666666666667,78.26876836142145L37.333333333333336,81.4345503919552L38.5,84.35637802845953L39.666666666666664,85.57686260187236L40.833333333333336,88.49473392936761L42,89.29228132543552L43.16666666666667,89.52236579231106L44.33333333333333,90.47092060206509L45.5,90.63977365076629L46.666666666666664,91.91393537250227L47.833333333333336,92.31316159378295L49,92.85791054341715L50.166666666666664,93.17247479357432L51.33333333333333,93.68602875762167L52.5,94.40917188924355L53.66666666666667,94.62766141736905L54.833333333333336,94.96828315527806L56,95.07387382197483L57.166666666666664,95.18787349826707L58.333333333333336,95.08431457799679L59.5,94.92745002473683L60.66666666666667,95.12663504764866L61.83333333333333,95.31996584123023L63,95.4286774350833L64.16666666666666,95.40133322825228L65.33333333333333,95.517623501215L66.5,95.51665856746888L67.66666666666667,95.52054887813831L68.83333333333333,95.57871147805581L70,95.75572811654773L71.16666666666666,95.82046168310323L72.33333333333334,95.81428383630858L73.5,95.60656606533709L74.66666666666667,95.66156580714907L75.83333333333333,95.61969750735813L77,95.71788027216355L78.16666666666667,95.82129296806107L79.33333333333333,96.04670798676308L80.5,96.07047423858522L81.66666666666667,96.16330172821174L82.83333333333333,96.24643956732153L84,96.02534225487312L85.16666666666666,95.88462511371516L86.33333333333334,96.17370082059884L87.5,96.35705974034903L88.66666666666666,96.38919878844682L89.83333333333334,96.24290578531577L91,96.3472657748184L92.16666666666667,95.92723391768857L93.33333333333333,96.12686918909665L94.5,96.15519744275005L95.66666666666667,96.17134713458611L96.83333333333333,96.82004158927357L98,96.55160312534187L99.16666666666667,96.6168374638288L100.33333333333333,96.85294159396462L101.5,97.16226052271507L102.66666666666666,97.21509552293129L103.83333333333334,97.09717364093329L105,97.36862885961133L106.16666666666666,97.08698832859912L107.33333333333334,97.3302938663462L108.5,97.83405490745896L109.66666666666667,98.19199994431611L110.83333333333333,99.16738753333495L112,98.74495598262232L113.16666666666667,98.7138448731324L114.33333333333333,99.02047761225826L115.5,99.36748641210072L116.66666666666667,99.87295666924281L117.83333333333333,100.65842227458455L119,100.53296386129159L120.16666666666666,101.26444037141599L121.33333333333334,101.30993123367548L122.5,102.1160448570518L123.66666666666666,103.37616261719276L124.83333333333334,103.9756182404455L126,105.04712366624058L127.16666666666667,106.51239331784672L128.33333333333331,107.5472147484471L129.5,108.49629582877851L130.66666666666666,110.38678139529961L131.83333333333334,111.87866363881233L133,112.13324261716724L134.16666666666669,113.28097388454111L135.33333333333334,115.12216409418481L136.5,116.4608807609568L137.66666666666666,117.82707625620903L138.83333333333334,119.1411601907492L140,120.2893751009671L141.16666666666666,121.90832910234738L142.33333333333331,122.70194957723027L143.5,123.36399869623465L144.66666666666669,125.06569790421337L145.83333333333334,125.7785344416285L147,127.75495444793609L148.16666666666666,129.25214375313385L149.33333333333334,129.98065976745445L150.5,131.8964551826391L151.66666666666666,133.16288029516974L152.83333333333331,135.7588837200795L154,136.90190534865027L155.16666666666669,138.044271876354L156.33333333333334,139.27974596342582L157.5,140.417346941764L158.66666666666666,141.46979568565777L159.83333333333331,142.53770841184985L161,142.3883970844253L162.16666666666669,144.1047992536408L163.33333333333334,146.28094711314333L164.5,147.72492278499618L165.66666666666666,147.13706919446318L166.83333333333334,147.65116746176915L168,148.37243012927556L169.16666666666666,147.94792288838178L170.33333333333331,148.94463022152394L171.5,150.85342683216618L172.66666666666669,153.0551081315797L173.83333333333334,152.42643786396113L175,151.92942627581075L176.16666666666666,153.12450218367644L177.33333333333331,154.77906999383012L178.5,154.89738700311366L179.66666666666669,155.36339614070843L180.83333333333334,156.00571257284514L182,155.11876924788496L183.16666666666666,156.95199240702513L184.33333333333334,157.1606040124066L185.5,155.648242423898L186.66666666666666,155.01183098144097L187.83333333333331,156.45047343163546L189,157.784615219018L190.16666666666669,159.56119169445503L191.33333333333334,159.58280292649866L192.5,160.36185127068242L193.66666666666666,161.95030309162544L194.83333333333331,162.52119404878223L196,162.18272910086714L197.16666666666669,163.21791531811002L198.33333333333334,163.0806413367858L199.5,160.80199348832787L200.66666666666666,160.15306002064716L201.83333333333334,162.2883925027778L203,162.7945678892094L204.16666666666666,164.25092523053237L205.33333333333331,164.90680009573467L206.5,165.74600462161166L207.66666666666669,165.1171655197779L208.83333333333334,164.7782922939046L210,164.6714492248128L211.16666666666666,165.57640351443072L212.33333333333331,166.11583144098466L213.5,167.12456511838008L214.66666666666669,166.87431632354318L215.83333333333334,166.57524263232426L217,166.46536563573764L218.16666666666666,167.23732124797394L219.33333333333334,166.96883441837562L220.5,167.31654864811858L221.66666666666666,167.45862010474178L222.83333333333331,168.00915243190434L224,168.52472711823327L225.16666666666669,169.03048688071934L226.33333333333334,168.82492541980326L227.5,169.06763490740207L228.66666666666666,169.74767243213503L229.83333333333331,170.4761549676759L231,170.7303083406748L232.16666666666669,170.0558795318402L233.33333333333334,170.00560960488698L234.5,170.43549749441055L235.66666666666666,170.38210083887046L236.83333333333334,170.85640937073865L238,169.97861921615504L239.16666666666666,170.00296018160444L240.33333333333331,170.63142697686988L241.5,170.20971130913318L242.66666666666669,169.31406514855516L243.83333333333334,169.1084729593215L245,168.2707270544778L246.16666666666666,167.52485447018208L247.33333333333331,168.77430791729805L248.5,168.00999012566874L249.66666666666669,169.80825312462608L250.83333333333334,170.42755316973822L252,171.46272245277422L253.16666666666666,170.55378830431374L254.33333333333334,169.93994544199987L255.5,170.23417050953637" style="fill: none;" fill="none"></path></g><g><path stroke="rgb(255, 112, 67)" stroke-width="2px" d="M23.333333333333332,22.520036963144932L24.5,22.375695007562637L25.666666666666664,22.350176725024284L26.833333333333336,22.015681270310687L28,22.44391697901389L29.166666666666668,22.603012561047013L30.333333333333336,22.381558986520524L31.5,22.24549029962832L32.666666666666664,22.589920565812687L33.833333333333336,22.58793867103027L35,22.430366032090326L36.16666666666667,22.37814103086446L37.333333333333336,22.5398852201994L38.5,22.515782708840202L39.666666666666664,22.78997094045406L40.833333333333336,22.58433142684302L42,22.458364606122007L43.16666666666667,22.59357838373495L44.33333333333333,22.708402195578476L45.5,22.514366623866145L46.666666666666664,22.716141636849184L47.833333333333336,22.868800115765193L49,22.715607368153922L50.166666666666664,23.0634875382703L51.33333333333333,23.110549377239675L52.5,22.928118649256746L53.66666666666667,23.12877516231907L54.833333333333336,22.888912295445216L56,22.887930511365823L57.166666666666664,23.044459370374938L58.333333333333336,22.890634625741704L59.5,22.88168472294438L60.66666666666667,22.82947479840606L61.83333333333333,22.91595210437082L63,23.041653656013676L64.16666666666666,23.08453627109723L65.33333333333333,23.339018664791713L66.5,23.44408041936297L67.66666666666667,24.041142488558933L68.83333333333333,24.21531829582282L70,23.805913230456163L71.16666666666666,23.80734054221217L72.33333333333334,24.40124665083649L73.5,23.55417906907524L74.66666666666667,23.989222595629574L75.83333333333333,23.90018666673195L77,24.13293207489224L78.16666666666667,24.64197164805345L79.33333333333333,24.438981155867303L80.5,25.45847535149777L81.66666666666667,25.540999644187632L82.83333333333333,26.217013032796498L84,27.136204579221314L85.16666666666666,28.1660569895281L86.33333333333334,28.650643282360573L87.5,29.511125009600683L88.66666666666666,30.353461809133293L89.83333333333334,31.244476142995563L91,31.680493967823022L92.16666666666667,32.49572018383259L93.33333333333333,33.334239270804225L94.5,35.79477137823778L95.66666666666667,36.75904033001986L96.83333333333333,38.59848862869379L98,39.524002161845615L99.16666666666667,41.715975529018074L100.33333333333333,43.97282778605402L101.5,45.40237014734298L102.66666666666666,46.82424128968446L103.83333333333334,49.01391048324265L105,50.09097492834025L106.16666666666666,50.56525776546058L107.33333333333334,50.919811392916365L108.5,52.54822924977927L109.66666666666667,54.902593431558536L110.83333333333333,56.03521470087746L112,57.4808620343962L113.16666666666667,59.14832267438323L114.33333333333333,60.4576158975936L115.5,61.32574553991418L116.66666666666667,61.295251340824734L117.83333333333333,60.017349663518885L119,61.054097380572365L120.16666666666666,61.73123397804129L121.33333333333334,63.41374190297621L122.5,65.46688328290918L123.66666666666666,65.92184333161276L124.83333333333334,66.93001717196164L126,68.23942538528198L127.16666666666667,68.74955399288667L128.33333333333331,67.78315291695952L129.5,66.79094812866742L130.66666666666666,68.14435220649658L131.83333333333334,69.62879453773587L133,70.61466870357566L134.16666666666669,71.26694715526487L135.33333333333334,72.32268414859841L136.5,72.8772482736083L137.66666666666666,72.77516526134642L138.83333333333334,74.3732411245495L140,74.68402280065159L141.16666666666666,76.05125581658328L142.33333333333331,76.61572783385381L143.5,76.3985722064336L144.66666666666669,77.59697383905409L145.83333333333334,76.98059447443262L147,78.00254726642635L148.16666666666666,78.42111411707954L149.33333333333334,78.31710642273443L150.5,78.75521707016159L151.66666666666666,79.37004793806432L152.83333333333331,81.02807364001804L154,83.07290947975477L155.16666666666669,82.27380905312158L156.33333333333334,79.98456814906906L157.5,78.38394552344032L158.66666666666666,80.03062041522233L159.83333333333331,81.57153317274154L161,83.47383686059415L162.16666666666669,84.91795409966528L163.33333333333334,87.1566275352062L164.5,87.39213417648999L165.66666666666666,87.3050506157541L166.83333333333334,87.51294611221532L168,87.43493082007157L169.16666666666666,87.30734641390076L170.33333333333331,88.00067565102397L171.5,89.33394252960098L172.66666666666669,89.47772006069944L173.83333333333334,91.11977945202585L175,89.0654792192896L176.16666666666666,89.25910881059086L177.33333333333331,88.3880425347371L178.5,90.15424925793904L179.66666666666669,90.51462679170189L180.83333333333334,92.08733582332106L182,92.4899897907716L183.16666666666666,92.04953736492051L184.33333333333334,90.08466865942509L185.5,89.46337969660937L186.66666666666666,88.82146763822344L187.83333333333331,90.4099499952132L189,91.38767127896155L190.16666666666669,91.94309893381279L191.33333333333334,92.60310966988214L192.5,93.58370355912731L193.66666666666666,94.48188992780457L194.83333333333331,95.30499946604179L196,96.09315596368714L197.16666666666669,95.75095528969051L198.33333333333334,95.92121012622246L199.5,94.56373915097392L200.66666666666666,93.89273477738664L201.83333333333334,94.71580272062758L203,95.4865519073733L204.16666666666666,96.29780411223143L205.33333333333331,94.89264547809505L206.5,96.67230044424062L207.66666666666669,96.89782432159299L208.83333333333334,97.2687664783111L210,97.37458874592646L211.16666666666666,96.60103107299882L212.33333333333331,95.83538057471006L213.5,96.3726647207301L214.66666666666669,97.25626486376689L215.83333333333334,96.8065376883175L217,95.57595495300845L218.16666666666666,94.2880632338843L219.33333333333334,93.18126498262413L220.5,94.01239528354999L221.66666666666666,94.65834753393132L222.83333333333331,96.43000373131234L224,97.48916774501917L225.16666666666669,98.43543938365688L226.33333333333334,97.93832489177652L227.5,97.79680507683592L228.66666666666666,97.99514540190602L229.83333333333331,98.40217679891846L231,99.57737795371928L232.16666666666669,98.8332868409581L233.33333333333334,99.13204721724351L234.5,99.68368250139572L235.66666666666666,100.19360483928132L236.83333333333334,100.53523559537496L238,100.71381595482407L239.16666666666666,100.40539444951997L240.33333333333331,98.7445477437384L241.5,98.86707592345519L242.66666666666669,95.6378220723385L243.83333333333334,96.67624220123578L245,95.95935828943263L246.16666666666666,97.63003340173094L247.33333333333331,98.42637584936415L248.5,99.39250053838767L249.66666666666669,99.70112797264582L250.83333333333334,99.16415629970427L252,98.48824484460788L253.16666666666666,99.36666642511628L254.33333333333334,98.99147632590578L255.5,98.32905811945383" style="fill: none;" fill="none"></path></g></g></g></g><g opacity="0.2"><g><g><g><path stroke="rgb(51, 187, 238)" stroke-width="2px" d="M23.333333333333332,21.548863406499212L24.5,21.105316566149387L25.666666666666664,21.739607976595554L26.833333333333336,22.48871360492706L28,22.226785977999363L29.166666666666668,21.068454696655273L30.333333333333336,22.004709258397405L31.5,20.523236613591497L32.666666666666664,22.358813537279758L33.833333333333336,21.9712496172587L35,22.01140821965534L36.16666666666667,21.82602633508045L37.333333333333336,21.460607668876648L38.5,21.393793882052098L39.666666666666664,21.33176255575815L40.833333333333336,21.541179821014403L42,20.52791357866922L43.16666666666667,21.627149823824556L44.33333333333333,22.097272727012633L45.5,21.60013419659931L46.666666666666664,22.179040494283026L47.833333333333336,22.487544363657626L49,21.13031898848215L50.166666666666664,21.89122252496082L51.33333333333333,22.012076357523593L52.5,22.076358253479004L53.66666666666667,21.07558443101246L54.833333333333336,20.920558863004036L56,22.222223299662264L57.166666666666664,22.045597537676485L58.333333333333336,22.04779535961151L59.5,21.86374095948536L60.66666666666667,22.189027397155762L61.83333333333333,21.886730176925656L63,22.294294276555366L64.16666666666666,22.133897231737766L65.33333333333333,22.00806753031412L66.5,22.365934480349214L67.66666666666667,22.89034358533222L68.83333333333333,22.574929763793943L70,22.82239572238922L71.16666666666666,22.458216627756748L72.33333333333334,21.969544107437134L73.5,23.646983347256963L74.66666666666667,23.249722636858614L75.83333333333333,22.302276765823365L77,23.23167412312824L78.16666666666667,23.921192403157537L79.33333333333333,24.49799758307138L80.5,24.55714536698658L81.66666666666667,22.64760733954111L82.83333333333333,24.417328726768492L84,24.571765278498322L85.16666666666666,23.147550290743503L86.33333333333334,24.53943092219034L87.5,23.907803271929414L88.66666666666666,25.79066853237152L89.83333333333334,26.890414672215766L91,26.210179992039983L92.16666666666667,28.2958075129191L93.33333333333333,27.19847018591562L94.5,26.89721912892658L95.66666666666667,31.039225556373594L96.83333333333333,28.970758629163093L98,30.06581022135416L99.16666666666667,32.67508640082676L100.33333333333333,29.939888211409244L101.5,34.99083906523386L102.66666666666666,35.1474031085968L103.83333333333334,33.356674939314516L105,37.89805638186136L106.16666666666666,39.515881899515776L107.33333333333334,37.804552245457955L108.5,39.801277869065586L109.66666666666667,43.122182417233766L110.83333333333333,44.54790950647989L112,45.911653621514624L113.16666666666667,43.69794143390655L114.33333333333333,50.42142159334818L115.5,49.096693213303865L116.66666666666667,49.82425579102833L117.83333333333333,46.69471559874216L119,49.75721782636642L120.16666666666666,50.42939089568454L121.33333333333334,55.888881682078036L122.5,55.566285378456115L123.66666666666666,57.22222991975147L124.83333333333334,54.427321304003385L126,60.65558382940292L127.16666666666667,60.41532672675449L128.33333333333331,59.010232789834326L129.5,61.3288206445376L130.66666666666666,60.71063926887512L131.83333333333334,62.142713667869565L133,66.7572759873867L134.16666666666669,68.53578426671028L135.33333333333334,69.40245578598976L136.5,68.37084212613105L137.66666666666666,70.45326961827277L138.83333333333334,72.3880034763813L140,74.82335941267013L141.16666666666666,68.688770255963L142.33333333333331,69.61905553332963L143.5,73.76620046846071L144.66666666666669,78.2487264374097L145.83333333333334,75.22608610622088L147,77.95365345788002L148.16666666666666,78.4311962079207L149.33333333333334,79.57343283923466L150.5,81.2502061390082L151.66666666666666,82.44378389072418L152.83333333333331,80.8050043387413L154,82.63651089620589L155.16666666666669,79.95660990667342L156.33333333333334,84.20378870717683L157.5,83.75457807970047L158.66666666666666,84.04733895055452L159.83333333333331,85.35809138091403L161,85.58967477929592L162.16666666666669,88.88384062580266L163.33333333333334,88.67109805595874L164.5,90.37007814856368L165.66666666666666,90.79405558240413L166.83333333333334,92.12748843622207L168,90.46825045875707L169.16666666666666,90.42257202657062L170.33333333333331,90.62862332753339L171.5,90.10661534301438L172.66666666666669,91.66276448261738L173.83333333333334,92.17388995182513L175,93.14160523565609L176.16666666666666,93.24505891195932L177.33333333333331,94.77010282717147L178.5,95.32418912174302L179.66666666666669,95.61275819671154L180.83333333333334,94.95113687050342L182,92.85552684239545L183.16666666666666,94.76381375970442L184.33333333333334,96.1634081966877L185.5,94.92200474075476L186.66666666666666,94.90080509982505L187.83333333333331,96.65112081827718L189,96.62574641458193L190.16666666666669,94.38271418344974L191.33333333333334,93.75009641440708L192.5,94.48769699436426L193.66666666666666,96.07797391297419L194.83333333333331,91.48281451495487L196,90.75162113539376L197.16666666666669,85.77163795185089L198.33333333333334,80.36961141777039L199.5,88.79109803469974L200.66666666666666,86.55287463796138L201.83333333333334,95.09694092712799L203,86.12604003560543L204.16666666666666,91.0076926657756L205.33333333333331,91.76473572802543L206.5,91.27104887696106L207.66666666666669,84.56242049924532L208.83333333333334,90.07758980762958L210,89.88361443928876L211.16666666666666,93.4983930551211L212.33333333333331,88.78783536803722L213.5,88.61542722634474L214.66666666666669,92.35011461130777L215.83333333333334,92.7338037712574L217,96.79726718566813L218.16666666666666,97.55189264378944L219.33333333333334,96.83607138029733L220.5,97.72891181590158L221.66666666666666,97.65918371719121L222.83333333333331,97.22222319972515L224,96.36007260016599L225.16666666666669,96.65293182355165L226.33333333333334,98.65844269088903L227.5,98.08244081489244L228.66666666666666,96.14369812957445L229.83333333333331,94.11491672358909L231,95.21360845836001L232.16666666666669,95.07670777839422L233.33333333333334,94.58445390723148L234.5,94.75213178666431L235.66666666666666,92.81448251775899L236.83333333333334,93.6625406830708L238,96.05871659717955L239.16666666666666,96.42442317805687L240.33333333333331,97.18811794839301L241.5,98.36670105995732L242.66666666666669,97.7990921164751L243.83333333333334,97.3424786752661L245,98.02321171156564L246.16666666666666,98.62956440957386L247.33333333333331,95.35722128651538L248.5,94.72457549524307L249.66666666666669,88.18109035881359L250.83333333333334,80.91052616548538L252,87.98198527407645L253.16666666666666,94.60967940849065L254.33333333333334,96.44420852057138L255.5,96.11802097590763" style="fill: none;" fill="none"></path></g><g><path stroke="rgb(204, 51, 17)" stroke-width="2px" d="M23.333333333333332,20.329503005663547L24.5,20.697356858571357L25.666666666666664,20.439701797485352L26.833333333333336,20.884936565081272L28,20.352202110608406L29.166666666666668,20.337977807044982L30.333333333333336,20.972928564071655L31.5,20.00584295622507L32.666666666666664,21.521408214886968L33.833333333333336,21.70868022632599L35,22.125378473917635L36.16666666666667,21.866606919288635L37.333333333333336,22.316861512184143L38.5,22.1585216286977L39.666666666666664,22.34392109584808L40.833333333333336,22.146477564493807L42,21.961042932192477L43.16666666666667,22.314329621315L44.33333333333333,23.191199034372957L45.5,23.482296154022215L46.666666666666664,20.095584421475714L47.833333333333336,21.946976871808356L49,22.22640795262653L50.166666666666664,22.306364714622497L51.33333333333333,22.586991410573308L52.5,23.202038692156467L53.66666666666667,21.442954763094576L54.833333333333336,22.37802250099182L56,22.212948491096494L57.166666666666664,22.156350180625914L58.333333333333336,22.44655938021341L59.5,21.873226758956907L60.66666666666667,23.31630785020191L61.83333333333333,22.937737417538948L63,23.667062648455293L64.16666666666666,22.212605630874634L65.33333333333333,23.817226634343452L66.5,22.408660138765963L67.66666666666667,22.33880456638336L68.83333333333333,22.33832104555765L70,24.07397619279224L71.16666666666666,23.753577711105347L72.33333333333334,24.290101210594177L73.5,24.597690786043795L74.66666666666667,21.846606739679963L75.83333333333333,24.726017213185614L77,24.750246002197265L78.16666666666667,24.880313104311618L79.33333333333333,25.215428201675415L80.5,25.351693161646516L81.66666666666667,24.577338954925537L82.83333333333333,23.3787875321706L84,26.065791882197054L85.16666666666666,25.830967795372008L86.33333333333334,26.313838065783173L87.5,28.2337849779129L88.66666666666666,26.52871472072601L89.83333333333334,27.982837669372557L91,31.824388651371L92.16666666666667,27.55708439540863L93.33333333333333,28.277222730636595L94.5,31.016983598391207L95.66666666666667,30.555295935789736L96.83333333333333,30.899022099494932L98,36.55636081647873L99.16666666666667,36.410210053443905L100.33333333333333,33.027674182573946L101.5,37.319778661251064L102.66666666666666,36.85338765970865L103.83333333333334,40.14907439899444L105,40.23093447478611L106.16666666666666,41.38119974962869L107.33333333333334,42.75888684701919L108.5,46.03001951964695L109.66666666666667,45.16475900204975L110.83333333333333,47.18026281627018L112,47.4912722026507L113.16666666666667,51.529585391203554L114.33333333333333,53.688110270023344L115.5,53.23296772114435L116.66666666666667,55.51918605438867L117.83333333333333,57.226528859456366L119,60.929726950645446L120.16666666666666,60.15774639161426L121.33333333333334,61.048703843275696L122.5,59.91270682843525L123.66666666666666,63.965165198961884L124.83333333333334,66.22234590880075L126,62.74989714256921L127.16666666666667,64.2353918015162L128.33333333333331,66.64952776702243L129.5,71.27385500939685L130.66666666666666,69.47311136555672L131.83333333333334,69.88454802743593L133,70.12924912603694L134.16666666666669,71.20240162046748L135.33333333333334,73.58220980517068L136.5,74.51596324555078L137.66666666666666,76.72713035535811L138.83333333333334,76.06159031263986L140,74.12171794684727L141.16666666666666,76.9504400530656L142.33333333333331,81.02125683021545L143.5,79.87904217712084L144.66666666666669,74.50862252028782L145.83333333333334,79.33823732050259L147,85.02704555086294L148.16666666666666,82.44855096650123L149.33333333333334,81.71376854372024L150.5,85.6715579322179L151.66666666666666,86.7965845188697L152.83333333333331,84.51467061988511L154,85.10849463395276L155.16666666666669,88.64590222529569L156.33333333333334,89.27610019238789L157.5,92.67432961078482L158.66666666666666,93.31493206691741L159.83333333333331,90.6393410061995L161,92.73827194325128L162.16666666666669,91.14562906932831L163.33333333333334,94.35671230159203L164.5,96.11321104260284L165.66666666666666,95.16117941610017L166.83333333333334,91.9296119339466L168,94.04871448071796L169.16666666666666,93.51348659725983L170.33333333333331,95.86293077301978L171.5,97.48447060974438L172.66666666666669,97.4627561290264L173.83333333333334,97.68869222394625L175,98.23841584197679L176.16666666666666,97.49190803917247L177.33333333333331,95.98489505511522L178.5,95.46474368067581L179.66666666666669,94.45910058371224L180.83333333333334,94.68575921259323L182,94.49662399760881L183.16666666666666,94.01485263816514L184.33333333333334,96.43240127168097L185.5,95.29563886535168L186.66666666666666,97.43409927827119L187.83333333333331,95.10097667765616L189,98.18544283878802L190.16666666666669,96.59833572886386L191.33333333333334,99.50680058416724L192.5,100.12089840667444L193.66666666666666,100.97268078125515L194.83333333333331,98.396356820782L196,101.10945137763518L197.16666666666669,100.91949706188836L198.33333333333334,100.43427539673446L199.5,98.63259520602226L200.66666666666666,96.25916674894094L201.83333333333334,94.03362972986697L203,93.11143133831024L204.16666666666666,95.94567107649642L205.33333333333331,95.4431522779862L206.5,96.8028458071947L207.66666666666669,93.46827300441265L208.83333333333334,97.05491400492191L210,97.78852388970056L211.16666666666666,97.06480750036239L212.33333333333331,97.83579079769054L213.5,97.68578065933782L214.66666666666669,99.43781287672121L215.83333333333334,99.46014219812551L217,98.28657396676141L218.16666666666666,99.92126666885613L219.33333333333334,98.06024830790359L220.5,100.56988677940765L221.66666666666666,100.65352928878862L222.83333333333331,98.98230219266812L224,100.92069075392682L225.16666666666669,95.28184533488749L226.33333333333334,97.81056584588686L227.5,98.9240236473282L228.66666666666666,97.3443990221818L229.83333333333331,99.01416181943813L231,99.69638250645994L232.16666666666669,100.61488196370006L233.33333333333334,100.15302671717602L234.5,99.44768686649203L235.66666666666666,101.34551956903934L236.83333333333334,97.30421679319936L238,100.30839789268374L239.16666666666666,97.25537789307037L240.33333333333331,95.68619237265983L241.5,97.74617790502309L242.66666666666669,98.13638580483197L243.83333333333334,99.44904127425947L245,99.10193980551759L246.16666666666666,99.84705473867058L247.33333333333331,98.4478138762911L248.5,98.17856420558691L249.66666666666669,95.58766456476846L250.83333333333334,97.63697582544881L252,98.59950809570152L253.16666666666666,99.6982814246118L254.33333333333334,99.83643980817992L255.5,99.92196310368179" style="fill: none;" fill="none"></path></g><g><path stroke="rgb(0, 119, 187)" stroke-width="2px" d="M25.666666666666664,-2.362735943476372L26.833333333333336,2.0737170842488473L28,14.915704937299079L29.166666666666668,29.080060709635408L30.333333333333336,43.77666301997501L31.5,59.73116673660278L32.666666666666664,71.74340867670375L33.833333333333336,83.14169345490137L35,85.13343661618232L36.16666666666667,85.90796554974713L37.333333333333336,86.17288661015033L38.5,88.73339531870681L39.666666666666664,87.4061548281908L40.833333333333336,92.8694830116828L42,90.48826492420831L43.16666666666667,89.86743407420316L44.33333333333333,91.89360831391811L45.5,90.89303778998055L46.666666666666664,93.82510807704925L47.833333333333336,92.91198778899509L49,93.67502321275073L50.166666666666664,93.6443174424966L51.33333333333333,94.4563560535709L52.5,95.49388350280124L53.66666666666667,94.95539515050251L54.833333333333336,95.47921523920694L56,95.23225972475606L57.166666666666664,95.35887294969955L58.333333333333336,94.92897623193264L59.5,94.69215322605767L60.66666666666667,95.4254125582377L61.83333333333333,95.6099620177547L63,95.59174482119083L64.16666666666666,95.36031691871085L65.33333333333333,95.69205890885988L66.5,95.51521116685866L67.66666666666667,95.5263843441208L68.83333333333333,95.66595537773767L70,96.02125307393074L71.16666666666666,95.91756203285851L72.33333333333334,95.8050170661211L73.5,95.29498940896987L74.66666666666667,95.74406541985273L75.83333333333333,95.55689505767822L77,95.86515441936254L78.16666666666667,95.97641201190153L79.33333333333333,96.38483051480847L80.5,96.1061236163179L81.66666666666667,96.30254296265045L82.83333333333333,96.37114632598558L84,95.69369628620147L85.16666666666666,95.67354940197863L86.33333333333334,96.6073143809239L87.5,96.63209811997413L88.66666666666666,96.43740736059347L89.83333333333334,96.02346628061929L91,96.50380575907229L92.16666666666667,95.29718613199391L93.33333333333333,96.42632209620872L94.5,96.19768982323009L95.66666666666667,96.19557167234022L96.83333333333333,97.79308327130475L98,96.14894542944431L99.16666666666667,96.7146889715592L100.33333333333333,97.20709778916836L101.5,97.62623891584077L102.66666666666666,97.29434802325565L103.83333333333334,96.92029081793625L105,97.77581168762842L106.16666666666666,96.6645275320808L107.33333333333334,97.69525217296678L108.5,98.58969646912813L109.66666666666667,98.72891749960183L110.83333333333333,100.6304689168632L112,98.11130865655342L113.16666666666667,98.6671782088975L114.33333333333333,99.48042672094702L115.5,99.88799961186447L116.66666666666667,100.63116205495595L117.83333333333333,101.83662068259716L119,100.34477624135214L120.16666666666666,102.36165513660261L121.33333333333334,101.37816752706468L122.5,103.3252152921163L123.66666666666666,105.2663392574042L124.83333333333334,104.87480167532462L126,106.65438180493314L127.16666666666667,108.71029779525595L128.33333333333331,109.09944689434766L129.5,109.91991744927564L130.66666666666666,113.22250974508124L131.83333333333334,114.11648700408139L133,112.51511108469963L134.16666666666669,115.00257078560192L135.33333333333334,117.8839494086504L136.5,118.46895576111474L137.66666666666666,119.87636949908733L138.83333333333334,121.11228609255949L140,122.01169746629395L141.16666666666666,124.33676010441779L142.33333333333331,123.8923802895546L143.5,124.35707237474122L144.66666666666669,127.61824671618142L145.83333333333334,126.84778924775122L147,130.71958445739745L148.16666666666666,131.4979277109305L149.33333333333334,131.07343378893532L150.5,134.7701483054161L151.66666666666666,135.06251796396572L152.83333333333331,139.6528888574441L154,138.61643779150643L155.16666666666669,139.7578216679096L156.33333333333334,141.13295709403354L157.5,142.12374840927123L158.66666666666666,143.04846880149842L159.83333333333331,144.13957750113804L161,142.16443009328842L162.16666666666669,146.6794025074641L163.33333333333334,149.54516890239714L164.5,149.89088629277546L165.66666666666666,146.25528880866366L166.83333333333334,148.42231486272811L168,149.45432413053513L169.16666666666666,147.3111620270411L170.33333333333331,150.43969122123718L171.5,153.7166217481295L172.66666666666669,156.35763008069992L173.83333333333334,151.4834324625333L175,151.1839088935852L176.16666666666666,154.91711604547498L177.33333333333331,157.26092170906065L178.5,155.07486251703898L179.66666666666669,156.06240984710058L180.83333333333334,156.96918722105025L182,153.78835426044463L183.16666666666666,159.7018271457354L184.33333333333334,157.47352142047882L185.5,153.37970004113512L186.66666666666666,154.05721381775535L187.83333333333331,158.60843710692723L189,159.7858279000918L190.16666666666669,162.22605640761057L191.33333333333334,159.6152197745641L192.5,161.53042378695807L193.66666666666666,164.33298082304L194.83333333333331,163.37753048451742L196,161.6750316789945L197.16666666666669,164.7706946439743L198.33333333333334,162.8747303647995L199.5,157.384021715641L200.66666666666666,159.17965981912613L201.83333333333334,165.49139122597376L203,163.5538309688568L204.16666666666666,166.43546124251682L205.33333333333331,165.89061239353813L206.5,167.0048114104271L207.66666666666669,164.17390686702728L208.83333333333334,164.26998245509466L210,164.51118462117512L211.16666666666666,166.93383494885762L212.33333333333331,166.92497333081562L213.5,168.63766563447317L214.66666666666669,166.4989431312879L215.83333333333334,166.12663209549584L217,166.3005501408577L218.16666666666666,168.3952546663284L219.33333333333334,166.56610417397818L220.5,167.838119992733L221.66666666666666,167.67172728967665L222.83333333333331,168.8349509226481L224,169.29808914772667L225.16666666666669,169.7891265244484L226.33333333333334,168.51658322842917L227.5,169.4316991388003L228.66666666666666,170.76772871923447L229.83333333333331,171.56887877098717L231,171.11153840017317L232.16666666666669,169.04423631858825L233.33333333333334,169.93020471445718L234.5,171.0803293286959L235.66666666666666,170.30200585556028L236.83333333333334,171.56787216854096L238,168.6619339842796L239.16666666666666,170.03947162977852L240.33333333333331,171.574127169768L241.5,169.57713780752817L242.66666666666669,167.97059590768814L243.83333333333334,168.80008467547097L245,167.0141081972122L246.16666666666666,166.40604559373855L247.33333333333331,170.648488087972L248.5,166.86351343822477L249.66666666666669,172.50564762306212L250.83333333333334,171.3565032374064L252,173.01547637732824L253.16666666666666,169.19038708162307L254.33333333333334,169.01918114852904L255.5,170.67550811084112" style="fill: none;" fill="none"></path></g><g><path stroke="rgb(255, 112, 67)" stroke-width="2px" d="M23.333333333333332,22.520036963144932L24.5,22.289089834213257L25.666666666666664,22.32567917378742L26.833333333333336,21.62231461556751L28,23.003021520296723L29.166666666666668,22.823099025408418L30.333333333333336,22.064876831690462L31.5,22.04710084788004L32.666666666666664,23.097888306299836L33.833333333333336,22.584995788256318L35,22.195436245918273L36.16666666666667,22.300087735176085L37.333333333333336,22.78197338136036L38.5,22.479676161130254L39.666666666666664,23.200930989901217L40.833333333333336,22.276017189343754L42,22.269467679977417L43.16666666666667,22.79636471939087L44.33333333333333,22.880620421091706L45.5,22.223331001917515L46.666666666666664,23.018793090502413L47.833333333333336,23.097782810846958L49,22.485821271260566L50.166666666666664,23.585303672472627L51.33333333333333,23.181141801198308L52.5,22.65447333526611L53.66666666666667,23.42975941848755L54.833333333333336,22.52911836338043L56,22.886457836151124L57.166666666666664,23.27925257237751L58.333333333333336,22.65989755980173L59.5,22.868259870529172L60.66666666666667,22.75115991783142L61.83333333333333,23.045668057123812L63,23.230205978075656L64.16666666666666,23.148860192616766L65.33333333333333,23.720742251396178L66.5,23.601673050244635L67.66666666666667,24.936735589027403L68.83333333333333,24.476582006136567L70,23.191805633227023L71.16666666666666,23.809481509844453L72.33333333333334,25.292105813344307L73.5,22.28357769680023L74.66666666666667,24.641787885347995L75.83333333333333,23.76663277339935L77,24.4820501871109L78.16666666666667,25.405531007766722L79.33333333333333,24.13449541759491L80.5,26.987716644922884L81.66666666666667,25.664786083221433L82.83333333333333,27.23103311570484L84,28.514991898854557L85.16666666666666,29.71083560498554L86.33333333333334,29.377522721608464L87.5,30.80184760046005L88.66666666666666,31.616967008431736L89.83333333333334,32.58099764378864L91,32.33452070506412L92.16666666666667,33.718559507846834L93.33333333333333,34.592017901261634L94.5,39.485569539388L95.66666666666667,38.20544375769296L96.83333333333333,41.35766107670465L98,40.912272461573274L99.16666666666667,45.00393557977676L100.33333333333333,47.35810617160797L101.5,47.54668368927637L102.66666666666666,48.95704800319671L103.83333333333334,52.2984142735799L105,51.70657159598667L106.16666666666666,51.27668202114105L107.33333333333334,51.45164183410007L108.5,54.990856035073584L109.66666666666667,58.43413970422744L110.83333333333333,57.73414660485584L112,59.649333034674314L113.16666666666667,61.6495136343638L114.33333333333333,62.421555732409146L115.5,62.627940003395075L116.66666666666667,61.24951004219055L117.83333333333333,58.10049714756012L119,62.60921895615259L120.16666666666666,62.746938874244684L121.33333333333334,65.93750379037857L122.5,68.54659535280862L123.66666666666666,66.60428340466815L124.83333333333334,68.44227793248493L126,70.20353770526249L127.16666666666667,69.51474690429369L128.33333333333331,66.33355130306879L129.5,65.30264094622929L130.66666666666666,70.17445832324027L131.83333333333334,71.85545803459483L133,72.09347995233536L134.16666666666669,72.24536483279863L135.33333333333334,73.90628963859874L136.5,73.70909446112314L137.66666666666666,72.6220407429536L138.83333333333334,76.7703549193541L140,75.1501953148047L141.16666666666666,78.1021053404808L142.33333333333331,77.46243585975964L143.5,76.07283876530329L144.66666666666669,79.39457628798485L145.83333333333334,76.0560254275004L147,79.5354764544169L148.16666666666666,79.0489643930594L149.33333333333334,78.16109488121667L150.5,79.41238304130235L151.66666666666666,80.29229423991838L152.83333333333331,83.51511219294864L154,86.14016323935985L155.16666666666669,81.07515841317176L156.33333333333334,76.55070679299035L157.5,75.98301158499717L158.66666666666666,82.50063275289536L159.83333333333331,83.88290230902034L161,86.32729239237308L162.16666666666669,87.08412995827197L163.33333333333334,90.51463768851757L164.5,87.74539413841563L165.66666666666666,87.17442527465025L166.83333333333334,87.82478935690719L168,87.31790788185596L169.16666666666666,87.11596980464458L170.33333333333331,89.04066950670877L171.5,91.33384284746646L172.66666666666669,89.69338635734717L173.83333333333334,93.58286853901544L175,85.9840288701852L176.16666666666666,89.54955319754282L177.33333333333331,87.08144312095642L178.5,92.80355934274196L179.66666666666669,91.05519309234619L180.83333333333334,94.44639937074977L182,93.09397074194747L183.16666666666666,91.38885872614384L184.33333333333334,87.13736560118198L185.5,88.53144625238576L186.66666666666666,87.85859955064454L187.83333333333331,92.79267353069781L189,92.85425320458411L190.16666666666669,92.77624041608968L191.33333333333334,93.59312577398616L192.5,95.05459439299503L193.66666666666666,95.82916948082048L194.83333333333331,96.53966377339759L196,97.27539071015515L197.16666666666669,95.23765427869557L198.33333333333334,96.17659238102037L199.5,92.52753268810112L200.66666666666666,92.88622821700572L201.83333333333334,95.95040463548898L203,96.64267568749189L204.16666666666666,97.51468241951862L205.33333333333331,92.78490752689042L206.5,99.34178289345898L207.66666666666669,97.23611013762155L208.83333333333334,97.82517971338827L210,97.53332214734951L211.16666666666666,95.44069456360737L212.33333333333331,94.68690482727685L213.5,97.1785909397602L214.66666666666669,98.58166507832208L215.83333333333334,96.1319469251434L217,93.73008085004487L218.16666666666666,92.35622565519809L219.33333333333334,91.52106760573386L220.5,95.25909073493877L221.66666666666666,95.62727590950328L222.83333333333331,99.08748802738387L224,99.07791376557945L225.16666666666669,99.85484684161344L226.33333333333334,97.19265315395593L227.5,97.5845253544251L228.66666666666666,98.29265588951111L229.83333333333331,99.01272389443713L231,101.34017968592048L232.16666666666669,97.71715017181634L233.33333333333334,99.58018778167167L234.5,100.51113542762398L235.66666666666666,100.95848834610977L236.83333333333334,101.04768172951538L238,100.98168649399776L239.16666666666666,99.94276219156384L240.33333333333331,96.25327768506605L241.5,99.05086819303035L242.66666666666669,90.7939412956635L243.83333333333334,98.23387239458162L245,94.88403242172795L246.16666666666666,100.13604607017834L247.33333333333331,99.620889520814L248.5,100.84168757192293L249.66666666666669,100.16406912403303L250.83333333333334,98.35869879029194L252,97.47437766196329L253.16666666666666,100.68429879587889L254.33333333333334,98.42869117708999L255.5,97.33543080977597" style="fill: none;" fill="none"></path></g></g></g></g></g></g><g transform="translate(50, 176)" clip-path="url(#clip_1)"><clipPath id="clip_1"><rect width="279" height="22"></rect></clipPath><g><g><line x1="0" y1="0" x2="0" y2="5" style="visibility: inherit;" fill="rgb(0, 0, 0)" stroke="rgb(204, 204, 204)" stroke-width="1px"></line><line x1="23.333333333333332" y1="0" x2="23.333333333333332" y2="5" style="visibility: inherit;" fill="rgb(0, 0, 0)" stroke="rgb(204, 204, 204)" stroke-width="1px"></line><line x1="46.666666666666664" y1="0" x2="46.666666666666664" y2="5" style="visibility: inherit;" fill="rgb(0, 0, 0)" stroke="rgb(204, 204, 204)" stroke-width="1px"></line><line x1="70" y1="0" x2="70" y2="5" style="visibility: inherit;" fill="rgb(0, 0, 0)" stroke="rgb(204, 204, 204)" stroke-width="1px"></line><line x1="93.33333333333333" y1="0" x2="93.33333333333333" y2="5" style="visibility: inherit;" fill="rgb(0, 0, 0)" stroke="rgb(204, 204, 204)" stroke-width="1px"></line><line x1="116.66666666666667" y1="0" x2="116.66666666666667" y2="5" style="visibility: inherit;" fill="rgb(0, 0, 0)" stroke="rgb(204, 204, 204)" stroke-width="1px"></line><line x1="140" y1="0" x2="140" y2="5" style="visibility: inherit;" fill="rgb(0, 0, 0)" stroke="rgb(204, 204, 204)" stroke-width="1px"></line><line x1="163.33333333333334" y1="0" x2="163.33333333333334" y2="5" style="visibility: inherit;" fill="rgb(0, 0, 0)" stroke="rgb(204, 204, 204)" stroke-width="1px"></line><line x1="186.66666666666666" y1="0" x2="186.66666666666666" y2="5" style="visibility: inherit;" fill="rgb(0, 0, 0)" stroke="rgb(204, 204, 204)" stroke-width="1px"></line><line x1="210" y1="0" x2="210" y2="5" style="visibility: inherit;" fill="rgb(0, 0, 0)" stroke="rgb(204, 204, 204)" stroke-width="1px"></line><line x1="233.33333333333334" y1="0" x2="233.33333333333334" y2="5" style="visibility: inherit;" fill="rgb(0, 0, 0)" stroke="rgb(204, 204, 204)" stroke-width="1px"></line><line x1="256.66666666666663" y1="0" x2="256.66666666666663" y2="5" style="visibility: inherit;" fill="rgb(0, 0, 0)" stroke="rgb(204, 204, 204)" stroke-width="1px"></line><line x1="280" y1="0" x2="280" y2="5" style="visibility: inherit;" fill="rgb(0, 0, 0)" stroke="rgb(204, 204, 204)" stroke-width="1px"></line></g><g transform="translate(0, 8)"><text x="0" y="0" dx="0em" dy="0.95em" style="text-anchor: middle; visibility: hidden; font-family: Roboto, sans-serif; font-size: 12px; font-weight: 200;" fill="rgb(33, 33, 33)" stroke="none" stroke-width="1px">-20</text><text x="23.333333333333332" y="0" dx="0em" dy="0.95em" style="text-anchor: middle; visibility: inherit; font-family: Roboto, sans-serif; font-size: 12px; font-weight: 200;" fill="rgb(33, 33, 33)" stroke="none" stroke-width="1px">0</text><text x="46.666666666666664" y="0" dx="0em" dy="0.95em" style="text-anchor: middle; visibility: hidden; font-family: Roboto, sans-serif; font-size: 12px; font-weight: 200;" fill="rgb(33, 33, 33)" stroke="none" stroke-width="1px">20</text><text x="70" y="0" dx="0em" dy="0.95em" style="text-anchor: middle; visibility: inherit; font-family: Roboto, sans-serif; font-size: 12px; font-weight: 200;" fill="rgb(33, 33, 33)" stroke="none" stroke-width="1px">40</text><text x="93.33333333333333" y="0" dx="0em" dy="0.95em" style="text-anchor: middle; visibility: hidden; font-family: Roboto, sans-serif; font-size: 12px; font-weight: 200;" fill="rgb(33, 33, 33)" stroke="none" stroke-width="1px">60</text><text x="116.66666666666667" y="0" dx="0em" dy="0.95em" style="text-anchor: middle; visibility: inherit; font-family: Roboto, sans-serif; font-size: 12px; font-weight: 200;" fill="rgb(33, 33, 33)" stroke="none" stroke-width="1px">80</text><text x="140" y="0" dx="0em" dy="0.95em" style="text-anchor: middle; visibility: hidden; font-family: Roboto, sans-serif; font-size: 12px; font-weight: 200;" fill="rgb(33, 33, 33)" stroke="none" stroke-width="1px">100</text><text x="163.33333333333334" y="0" dx="0em" dy="0.95em" style="text-anchor: middle; visibility: inherit; font-family: Roboto, sans-serif; font-size: 12px; font-weight: 200;" fill="rgb(33, 33, 33)" stroke="none" stroke-width="1px">120</text><text x="186.66666666666666" y="0" dx="0em" dy="0.95em" style="text-anchor: middle; visibility: hidden; font-family: Roboto, sans-serif; font-size: 12px; font-weight: 200;" fill="rgb(33, 33, 33)" stroke="none" stroke-width="1px">140</text><text x="210" y="0" dx="0em" dy="0.95em" style="text-anchor: middle; visibility: inherit; font-family: Roboto, sans-serif; font-size: 12px; font-weight: 200;" fill="rgb(33, 33, 33)" stroke="none" stroke-width="1px">160</text><text x="233.33333333333334" y="0" dx="0em" dy="0.95em" style="text-anchor: middle; visibility: hidden; font-family: Roboto, sans-serif; font-size: 12px; font-weight: 200;" fill="rgb(33, 33, 33)" stroke="none" stroke-width="1px">180</text><text x="256.66666666666663" y="0" dx="0em" dy="0.95em" style="text-anchor: middle; visibility: inherit; font-family: Roboto, sans-serif; font-size: 12px; font-weight: 200;" fill="rgb(33, 33, 33)" stroke="none" stroke-width="1px">200</text><text x="280" y="0" dx="0em" dy="0.95em" style="text-anchor: middle; visibility: hidden; font-family: Roboto, sans-serif; font-size: 12px; font-weight: 200;" fill="rgb(33, 33, 33)" stroke="none" stroke-width="1px">220</text></g><line x1="0" y1="0" x2="280" y2="0" fill="rgb(0, 0, 0)" stroke="rgb(204, 204, 204)" stroke-width="1px"></line></g></g></g></g></svg>